M48
; DRILL file {KiCad 7.0.6} date Sun Oct  8 21:10:42 2023
; FORMAT={-:-/ absolute / metric / decimal}
; #@! TF.CreationDate,2023-10-08T21:10:42-06:00
; #@! TF.GenerationSoftware,Kicad,Pcbnew,7.0.6
; #@! TF.FileFunction,MixedPlating,1,4
FMAT,2
METRIC
; #@! TA.AperFunction,Plated,PTH,ViaDrill
T1C0.300
; #@! TA.AperFunction,Plated,PTH,ViaDrill
T2C0.400
; #@! TA.AperFunction,Plated,PTH,ComponentDrill
T3C0.500
; #@! TA.AperFunction,Plated,PTH,ComponentDrill
T4C0.550
; #@! TA.AperFunction,Plated,PTH,ComponentDrill
T5C1.000
; #@! TA.AperFunction,Plated,PTH,ComponentDrill
T6C1.020
; #@! TA.AperFunction,Plated,PTH,ComponentDrill
T7C2.410
; #@! TA.AperFunction,Plated,PTH,ComponentDrill
T8C3.200
; #@! TA.AperFunction,NonPlated,NPTH,ComponentDrill
T9C0.900
; #@! TA.AperFunction,NonPlated,NPTH,ComponentDrill
T10C2.200
%
G90
G05
T1
X114.3Y-89.662
X114.387Y-101.116
X116.078Y-101.727
X122.09Y-76.473
X123.519Y-78.105
X123.825Y-116.713
X124.215Y-100.584
X124.293Y-92.456
X124.841Y-89.408
X126.064Y-87.471
X127.52Y-99.262
X128.142Y-99.922
X128.143Y-86.308
X128.943Y-104.33
X128.974Y-102.77
X129.558Y-103.66
X130.556Y-98.044
X132.842Y-92.329
X134.005Y-97.197
X134.239Y-111.289
X134.569Y-109.691
X134.586Y-103.834
X135.019Y-98.933
X135.763Y-112.506
X136.017Y-98.044
X136.779Y-91.567
X136.906Y-98.627
X137.287Y-112.478
X137.636Y-100.554
X137.668Y-99.568
X137.922Y-101.473
X138.684Y-97.663
X138.977Y-103.505
X138.977Y-109.691
X139.827Y-103.084
X140.501Y-91.56
X140.589Y-93.892
X140.629Y-101.981
X141.193Y-93.226
X141.732Y-110.363
X142.792Y-95.537
X142.792Y-104.474
X143.002Y-81.894
X143.002Y-82.793
X143.002Y-83.693
X143.51Y-94.615
X143.51Y-99.06
X144.907Y-96.432
X144.962Y-113.284
X145.415Y-84.455
X151.003Y-85.439
X151.257Y-101.092
X151.257Y-105.322
X151.384Y-108.164
X151.384Y-112.014
X153.289Y-107.315
X153.416Y-101.092
X153.416Y-105.664
X153.416Y-112.014
X153.638Y-85.82
X153.67Y-83.39
X155.321Y-109.347
X155.321Y-112.014
X157.138Y-103.124
X157.226Y-101.092
T2
X100.203Y-113.792
X100.203Y-115.824
X100.358Y-76.093
X100.56Y-101.206
X100.597Y-93.438
X100.711Y-98.679
X100.747Y-109.16
X100.753Y-85.869
X101.346Y-105.156
X101.346Y-110.744
X102.793Y-116.624
X102.87Y-114.808
X103.061Y-80.929
X103.632Y-109.982
X103.787Y-78.232
X104.34Y-86.995
X104.648Y-110.236
X104.775Y-98.679
X105.529Y-88.808
X105.537Y-93.345
X105.679Y-96.136
X105.961Y-73.59
X108.839Y-92.075
X108.966Y-78.232
X109.093Y-112.395
X110.584Y-116.842
X110.713Y-78.771
X112.395Y-96.393
X112.395Y-97.536
X112.507Y-110.193
X112.903Y-108.458
X113.919Y-96.393
X113.919Y-97.536
X115.463Y-114.074
X115.57Y-103.251
X115.749Y-75.547
X115.967Y-99.441
X116.332Y-109.347
X116.967Y-104.65
X117.409Y-80.01
X117.856Y-101.727
X117.983Y-116.731
X118.067Y-98.336
X118.173Y-83.702
X118.187Y-88.822
X118.715Y-90.823
X120.015Y-109.347
X120.142Y-101.722
X120.486Y-83.104
X120.618Y-98.076
X120.904Y-111.379
X121.194Y-97.212
X121.412Y-109.347
X121.666Y-101.722
X121.793Y-95.377
X121.793Y-111.887
X122.174Y-115.257
X122.503Y-82.042
X122.569Y-79.96
X122.569Y-88.057
X122.569Y-88.951
X122.58Y-87.173
X123.241Y-108.989
X124.69Y-103.632
X124.931Y-82.55
X125.222Y-77.597
X125.222Y-106.172
X125.603Y-88.773
X125.614Y-102.504
X125.723Y-108.832
X126.041Y-75.911
X127.0Y-106.172
X127.09Y-88.265
X127.127Y-95.758
X127.381Y-90.805
X128.27Y-108.712
X128.27Y-114.681
X128.456Y-81.153
X129.032Y-97.663
X129.651Y-99.171
X129.921Y-96.012
X130.048Y-93.853
X130.302Y-83.947
X130.429Y-108.712
X130.71Y-111.31
X131.258Y-91.279
X131.272Y-73.355
X131.476Y-100.175
X131.476Y-102.588
X131.496Y-101.42
X132.493Y-100.175
X132.493Y-102.588
X132.52Y-101.445
X132.969Y-113.538
X133.636Y-100.175
X133.636Y-102.588
X133.655Y-101.42
X133.937Y-83.316
X135.763Y-117.094
X136.177Y-75.873
X136.654Y-104.013
X137.287Y-117.094
X137.523Y-103.32
X137.795Y-87.249
X138.409Y-92.329
X138.684Y-88.519
X138.811Y-117.094
X139.337Y-91.699
X139.7Y-87.249
X139.827Y-104.902
X140.335Y-117.348
X140.716Y-112.141
X141.544Y-73.391
X141.596Y-116.755
X142.24Y-86.233
X143.568Y-88.499
X143.91Y-111.035
X144.309Y-85.433
X145.796Y-89.789
X145.796Y-99.822
X145.923Y-111.76
X145.946Y-93.909
X146.05Y-117.348
X147.193Y-116.586
X147.32Y-95.885
X148.719Y-73.252
X149.352Y-94.107
X149.352Y-112.014
X149.352Y-115.57
X150.495Y-97.282
X151.155Y-89.504
X151.398Y-78.581
X151.4Y-116.841
X151.403Y-96.148
X156.166Y-73.122
X156.559Y-83.407
X156.559Y-85.185
X156.559Y-87.344
X156.689Y-93.7
X156.71Y-81.037
X157.48Y-95.631
X157.829Y-85.185
X157.843Y-83.447
X158.633Y-116.761
X158.988Y-103.865
X159.099Y-87.218
X159.258Y-107.061
X160.115Y-84.296
X161.29Y-97.663
X161.417Y-101.092
X161.788Y-75.483
X161.886Y-109.04
X162.306Y-104.775
X162.56Y-95.504
X162.56Y-96.393
X162.56Y-97.282
X163.068Y-94.869
X163.322Y-112.014
X163.322Y-115.443
X163.703Y-94.361
X163.732Y-81.312
X163.983Y-88.189
X164.211Y-96.647
X164.211Y-97.409
X164.338Y-93.853
X164.592Y-92.964
X164.719Y-96.012
X164.846Y-91.821
X165.1Y-97.382
X165.227Y-90.805
X165.481Y-92.964
X165.481Y-96.012
X165.481Y-98.425
X165.989Y-90.805
X166.331Y-92.964
X166.37Y-96.012
X166.497Y-98.425
X166.553Y-111.152
X166.751Y-90.805
X166.915Y-101.637
X167.386Y-107.823
X167.513Y-90.932
X167.513Y-92.837
X167.513Y-96.393
X167.513Y-98.298
X168.402Y-90.805
X168.529Y-92.837
X168.529Y-96.012
X168.656Y-98.425
X169.164Y-90.805
X169.418Y-92.837
X169.418Y-96.012
X169.545Y-98.425
T5
X107.391Y-104.318
X107.391Y-106.858
X109.459Y-84.836
X109.931Y-104.318
X109.931Y-106.858
X111.999Y-84.836
X114.539Y-84.836
X138.786Y-79.652
X140.171Y-76.812
X141.556Y-79.652
X142.941Y-76.812
X144.326Y-79.652
X145.711Y-76.812
X147.096Y-79.652
X148.481Y-76.812
X149.866Y-79.652
X151.606Y-88.487
X151.606Y-91.027
X154.146Y-88.487
X154.146Y-91.027
X156.686Y-88.487
X156.686Y-91.027
X159.226Y-88.487
X159.226Y-91.027
X161.766Y-88.487
X161.766Y-91.027
T6
X104.947Y-75.232
X104.947Y-78.232
X104.947Y-81.232
X107.947Y-75.232
X107.947Y-78.232
X107.947Y-81.232
T7
X100.627Y-73.082
X100.627Y-83.382
T8
X131.826Y-78.232
X156.826Y-78.232
T9
X128.675Y-116.408
X131.675Y-116.408
T10
X114.554Y-73.914
X114.554Y-115.57
X167.386Y-73.914
X167.386Y-115.57
T3
G00X118.69Y-72.969
M15
G01X118.69Y-72.319
M16
G05
G00X125.69Y-72.969
M15
G01X125.69Y-72.319
M16
G05
T4
G00X119.84Y-75.344
M15
G01X119.54Y-75.344
M16
G05
G00X124.84Y-75.344
M15
G01X124.54Y-75.344
M16
G05
T0
M30
