%TF.GenerationSoftware,KiCad,Pcbnew,7.0.6*%
%TF.CreationDate,2023-10-08T21:10:44-06:00*%
%TF.ProjectId,CAN-USB RF Module,43414e2d-5553-4422-9052-46204d6f6475,2.0*%
%TF.SameCoordinates,Original*%
%TF.FileFunction,Soldermask,Bot*%
%TF.FilePolarity,Negative*%
%FSLAX46Y46*%
G04 Gerber Fmt 4.6, Leading zero omitted, Abs format (unit mm)*
G04 Created by KiCad (PCBNEW 7.0.6) date 2023-10-08 21:10:44*
%MOMM*%
%LPD*%
G01*
G04 APERTURE LIST*
G04 Aperture macros list*
%AMRoundRect*
0 Rectangle with rounded corners*
0 $1 Rounding radius*
0 $2 $3 $4 $5 $6 $7 $8 $9 X,Y pos of 4 corners*
0 Add a 4 corners polygon primitive as box body*
4,1,4,$2,$3,$4,$5,$6,$7,$8,$9,$2,$3,0*
0 Add four circle primitives for the rounded corners*
1,1,$1+$1,$2,$3*
1,1,$1+$1,$4,$5*
1,1,$1+$1,$6,$7*
1,1,$1+$1,$8,$9*
0 Add four rect primitives between the rounded corners*
20,1,$1+$1,$2,$3,$4,$5,0*
20,1,$1+$1,$4,$5,$6,$7,0*
20,1,$1+$1,$6,$7,$8,$9,0*
20,1,$1+$1,$8,$9,$2,$3,0*%
G04 Aperture macros list end*
%ADD10C,2.200000*%
%ADD11R,1.700000X1.700000*%
%ADD12O,1.700000X1.700000*%
%ADD13C,4.000000*%
%ADD14R,1.600000X1.600000*%
%ADD15C,1.600000*%
%ADD16O,0.890000X1.550000*%
%ADD17O,1.250000X0.950000*%
%ADD18C,0.900000*%
%ADD19R,4.560000X1.000000*%
%ADD20RoundRect,0.250001X0.499999X-0.499999X0.499999X0.499999X-0.499999X0.499999X-0.499999X-0.499999X0*%
%ADD21C,1.500000*%
%ADD22C,3.410000*%
%ADD23C,0.800000*%
%ADD24C,0.700000*%
G04 APERTURE END LIST*
D10*
%TO.C,H2*%
X167386000Y-115570000D03*
%TD*%
%TO.C,H3*%
X114554000Y-73914000D03*
%TD*%
D11*
%TO.C,J3*%
X107391200Y-106857800D03*
D12*
X107391200Y-104317800D03*
X109931200Y-106857800D03*
X109931200Y-104317800D03*
%TD*%
D13*
%TO.C,J6*%
X156826000Y-78232000D03*
X131826000Y-78232000D03*
D14*
X138786000Y-79652000D03*
D15*
X141556000Y-79652000D03*
X144326000Y-79652000D03*
X147096000Y-79652000D03*
X149866000Y-79652000D03*
X140171000Y-76812000D03*
X142941000Y-76812000D03*
X145711000Y-76812000D03*
X148481000Y-76812000D03*
%TD*%
D16*
%TO.C,J4*%
X125690000Y-72644000D03*
D17*
X124690000Y-75344000D03*
X119690000Y-75344000D03*
D16*
X118690000Y-72644000D03*
%TD*%
D18*
%TO.C,SW2*%
X128675000Y-116408000D03*
X131675000Y-116408000D03*
%TD*%
D19*
%TO.C,J5*%
X167499500Y-97382250D03*
X167499500Y-91842250D03*
%TD*%
D20*
%TO.C,J2*%
X104947000Y-81232000D03*
D21*
X104947000Y-78232000D03*
X104947000Y-75232000D03*
X107947000Y-81232000D03*
X107947000Y-78232000D03*
X107947000Y-75232000D03*
D22*
X100627000Y-83382000D03*
X100627000Y-73082000D03*
%TD*%
D11*
%TO.C,J1*%
X161766000Y-88487500D03*
D12*
X161766000Y-91027500D03*
X159226000Y-88487500D03*
X159226000Y-91027500D03*
X156686000Y-88487500D03*
X156686000Y-91027500D03*
X154146000Y-88487500D03*
X154146000Y-91027500D03*
X151606000Y-88487500D03*
X151606000Y-91027500D03*
%TD*%
D11*
%TO.C,JP1*%
X114539000Y-84836000D03*
D12*
X111999000Y-84836000D03*
X109459000Y-84836000D03*
%TD*%
D10*
%TO.C,H4*%
X114554000Y-115570000D03*
%TD*%
%TO.C,H1*%
X167386000Y-73914000D03*
%TD*%
D23*
X145923000Y-111760000D03*
X146050000Y-117348000D03*
X140335000Y-117348000D03*
X140716000Y-112141000D03*
D24*
X144961500Y-113284000D03*
X144907000Y-96432500D03*
D23*
X118172649Y-83702481D03*
X166915221Y-101637254D03*
X139827000Y-104902000D03*
X125614300Y-102504051D03*
X122503000Y-82042000D03*
X108839000Y-92075000D03*
X103632000Y-109982000D03*
X161290000Y-97663000D03*
X168529000Y-96012000D03*
X118714625Y-90823081D03*
X125722882Y-108832240D03*
X147320000Y-95885000D03*
X147193000Y-116586000D03*
X136176711Y-75872846D03*
X157842877Y-83447000D03*
X165100000Y-97382250D03*
X163982935Y-88189075D03*
X101346000Y-110744000D03*
X156689443Y-93700460D03*
X159099000Y-87217500D03*
X165989000Y-90805000D03*
X157480000Y-95631000D03*
X124931500Y-82550000D03*
X121666000Y-101722500D03*
X103061494Y-80929222D03*
D24*
X134585899Y-103834135D03*
D23*
X166330503Y-92964000D03*
X138811000Y-117094000D03*
X143910398Y-111035150D03*
X100203000Y-115824000D03*
X149352000Y-94107000D03*
X138409500Y-92329000D03*
X120142000Y-101722500D03*
X165481000Y-92964000D03*
X168529000Y-92837000D03*
X162560000Y-95504000D03*
X115749048Y-75547243D03*
X138684000Y-88519000D03*
X104340000Y-86995000D03*
X158633141Y-116760954D03*
X151399571Y-116841428D03*
X133936982Y-83316425D03*
X100711000Y-98679000D03*
X105679426Y-96136440D03*
X117856000Y-101727000D03*
X159258000Y-107061000D03*
X162560000Y-96393000D03*
X129032000Y-97663000D03*
X137522548Y-103320500D03*
X100746655Y-109159931D03*
X122174000Y-115257000D03*
X110584406Y-116841663D03*
X115462850Y-114074267D03*
X169418000Y-96012000D03*
X131476500Y-100175000D03*
X131476500Y-102588000D03*
X130048000Y-93853000D03*
X161787756Y-75483293D03*
X104648000Y-110236000D03*
X164211000Y-97409000D03*
X156166098Y-73121614D03*
X127381000Y-90805000D03*
X110713412Y-78771309D03*
X126040977Y-75910635D03*
X128456175Y-81152810D03*
X162306000Y-104775000D03*
X167386000Y-107823000D03*
X151155500Y-89503500D03*
X166370000Y-96012000D03*
X144309500Y-85433500D03*
X129921000Y-96012000D03*
X103787500Y-78232000D03*
X102792512Y-116624034D03*
X127089500Y-88265000D03*
X132520500Y-101445000D03*
X115570000Y-103251000D03*
X164338000Y-93853000D03*
X100357649Y-76092560D03*
X125222000Y-77597000D03*
X105529027Y-88808401D03*
X120486500Y-83104000D03*
X137795000Y-87249000D03*
X121793000Y-111887000D03*
X116967443Y-104650295D03*
X164719000Y-96012000D03*
X113919000Y-96393000D03*
X169418000Y-92837000D03*
X108966000Y-78232000D03*
X105537000Y-93345000D03*
X163703000Y-94361000D03*
X141544011Y-73391267D03*
X131496500Y-101420500D03*
X133635500Y-102588000D03*
X167513000Y-98298000D03*
X128270000Y-114681000D03*
X167513000Y-90932000D03*
X100560196Y-101205748D03*
X156709668Y-81036868D03*
X166553301Y-111151615D03*
X135763000Y-117094000D03*
X132492500Y-102588000D03*
X127000000Y-106172000D03*
X112506942Y-110192661D03*
X156559000Y-87344500D03*
X164211000Y-96647000D03*
X149352000Y-115570000D03*
X120904000Y-111379000D03*
X167513000Y-96393000D03*
X127127000Y-95758000D03*
X163322000Y-112014000D03*
X122569000Y-88057000D03*
X101346000Y-105156000D03*
X168656000Y-98425000D03*
X122569000Y-88950800D03*
X130302000Y-83947000D03*
X137287000Y-117094000D03*
X156559000Y-83407500D03*
X156559000Y-85185500D03*
X131271774Y-73355145D03*
X164846000Y-91821000D03*
X163322000Y-115443000D03*
X165481000Y-98425000D03*
D24*
X130556000Y-98044000D03*
D23*
X133635500Y-100175000D03*
X100753311Y-85869374D03*
X125222000Y-106172000D03*
X169545000Y-98425000D03*
X162560000Y-97282000D03*
X118066963Y-98335854D03*
X123241175Y-108988500D03*
X104775000Y-98679000D03*
X105960676Y-73589999D03*
X112395000Y-97536000D03*
X166497000Y-98425000D03*
X145796000Y-89789000D03*
X145796000Y-99822000D03*
X157829000Y-85185500D03*
X139700000Y-87249000D03*
X165227000Y-90805000D03*
X143568067Y-88498675D03*
X149352000Y-112014000D03*
X167513000Y-92837000D03*
X151403079Y-96148352D03*
X145945777Y-93909134D03*
X169164000Y-90805000D03*
X148719472Y-73252264D03*
X132492500Y-100175000D03*
X165481000Y-96012000D03*
X122580400Y-87172800D03*
X113919000Y-97536000D03*
X163068000Y-94869000D03*
X158988485Y-103865164D03*
X164592000Y-92964000D03*
X166751000Y-90805000D03*
X130709990Y-111309692D03*
X112395000Y-96393000D03*
X141595776Y-116755204D03*
X133655500Y-101420500D03*
X151397821Y-78581194D03*
X168402000Y-90805000D03*
X100596812Y-93438465D03*
X100203000Y-113792000D03*
X131257507Y-91279443D03*
X117983000Y-116731298D03*
X161885887Y-109040054D03*
X161417000Y-101092000D03*
X163732288Y-81311950D03*
D24*
X143002000Y-81893994D03*
X132842000Y-92329000D03*
X124214500Y-100584000D03*
X124293500Y-92456000D03*
X153670000Y-83389998D03*
X123825000Y-116713000D03*
X153638000Y-85820500D03*
D23*
X142240000Y-86233000D03*
X109093000Y-112395000D03*
X132969000Y-113538000D03*
X120618000Y-98076000D03*
X160115000Y-84296500D03*
X125603000Y-88773000D03*
X121793000Y-95377000D03*
X130429000Y-108712000D03*
X128270000Y-108712000D03*
X129650616Y-99170616D03*
X124690175Y-103632000D03*
X150495000Y-97282000D03*
X136653583Y-104013000D03*
X121412000Y-109347000D03*
X118187094Y-88821868D03*
X139336852Y-91698852D03*
X116332000Y-109347000D03*
X120015000Y-109347000D03*
X121194017Y-97211729D03*
X112903000Y-108458000D03*
D24*
X141192965Y-93225918D03*
X141732000Y-110363000D03*
X128143000Y-86308000D03*
X127520444Y-99261556D03*
X129558500Y-103659591D03*
X126064219Y-87470954D03*
X124841000Y-89408000D03*
X128943457Y-104330498D03*
X155321000Y-109347000D03*
X155321000Y-112014000D03*
X151384000Y-112014000D03*
X151384000Y-108164500D03*
X153416000Y-112014000D03*
X153289000Y-107315000D03*
X153416000Y-101092000D03*
X153416000Y-105664000D03*
X151257000Y-105322500D03*
X151257000Y-101092000D03*
X137668000Y-99568000D03*
X140500700Y-91559602D03*
X136906000Y-98627500D03*
X136779000Y-91567000D03*
X142792230Y-95536580D03*
X142792465Y-104473500D03*
X143510000Y-94615000D03*
X143510000Y-99060000D03*
X140629000Y-101981000D03*
X140589000Y-93892500D03*
X134005318Y-97196793D03*
X143002000Y-82793497D03*
X143002000Y-83693000D03*
X135019500Y-98933000D03*
X145415000Y-84455000D03*
X136017000Y-98044000D03*
X151003000Y-85439500D03*
D23*
X102870000Y-114808000D03*
X122569000Y-79960000D03*
X117409000Y-80010000D03*
D24*
X135763000Y-112505750D03*
X137636109Y-100553780D03*
X137922000Y-101473000D03*
X137287000Y-112477750D03*
X128973710Y-102770500D03*
X134239000Y-111289500D03*
X116078000Y-101727000D03*
X114300000Y-89662000D03*
D23*
X115966502Y-99441000D03*
D24*
X114387500Y-101116100D03*
X157138500Y-103124000D03*
X157226000Y-101092000D03*
X138684000Y-97663000D03*
X139827000Y-103084500D03*
X128142500Y-99921875D03*
X138977500Y-109690500D03*
X138977500Y-103505000D03*
X134569200Y-109690500D03*
X123519000Y-78105000D03*
X122090500Y-76472687D03*
M02*
