%TF.GenerationSoftware,KiCad,Pcbnew,7.0.10*%
%TF.CreationDate,2024-01-28T20:05:48-07:00*%
%TF.ProjectId,CANBUS Breakout Board,43414e42-5553-4204-9272-65616b6f7574,rev?*%
%TF.SameCoordinates,Original*%
%TF.FileFunction,Drillmap*%
%TF.FilePolarity,Positive*%
%FSLAX45Y45*%
G04 Gerber Fmt 4.5, Leading zero omitted, Abs format (unit mm)*
G04 Created by KiCad (PCBNEW 7.0.10) date 2024-01-28 20:05:48*
%MOMM*%
%LPD*%
G01*
G04 APERTURE LIST*
%ADD10C,0.100000*%
%ADD11C,0.200000*%
%ADD12C,0.220000*%
G04 APERTURE END LIST*
D10*
X12446000Y-5588000D02*
G75*
G03*
X11938000Y-6096000I0J-508000D01*
G01*
X18288000Y-10160000D02*
G75*
G03*
X18796000Y-9652000I0J508000D01*
G01*
X12446000Y-5588000D02*
X18288000Y-5588000D01*
X18796000Y-6096000D02*
G75*
G03*
X18288000Y-5588000I-508000J0D01*
G01*
X11938000Y-6096000D02*
X11938000Y-9652000D01*
X11938000Y-9652000D02*
G75*
G03*
X12446000Y-10160000I508000J0D01*
G01*
X18796000Y-6096000D02*
X18796000Y-9652000D01*
X12446000Y-10160000D02*
X18288000Y-10160000D01*
D11*
D12*
X12336000Y-5986000D02*
X12556000Y-6206000D01*
X12556000Y-5986000D02*
X12336000Y-6206000D01*
X12336000Y-9542000D02*
X12556000Y-9762000D01*
X12556000Y-9542000D02*
X12336000Y-9762000D01*
X18178000Y-5986000D02*
X18398000Y-6206000D01*
X18398000Y-5986000D02*
X18178000Y-6206000D01*
X18178000Y-9542000D02*
X18398000Y-9762000D01*
X18398000Y-9542000D02*
X18178000Y-9762000D01*
D11*
X12193777Y-10476484D02*
X12193777Y-10276484D01*
X12193777Y-10276484D02*
X12241396Y-10276484D01*
X12241396Y-10276484D02*
X12269967Y-10286008D01*
X12269967Y-10286008D02*
X12289015Y-10305055D01*
X12289015Y-10305055D02*
X12298539Y-10324103D01*
X12298539Y-10324103D02*
X12308062Y-10362198D01*
X12308062Y-10362198D02*
X12308062Y-10390770D01*
X12308062Y-10390770D02*
X12298539Y-10428865D01*
X12298539Y-10428865D02*
X12289015Y-10447912D01*
X12289015Y-10447912D02*
X12269967Y-10466960D01*
X12269967Y-10466960D02*
X12241396Y-10476484D01*
X12241396Y-10476484D02*
X12193777Y-10476484D01*
X12393777Y-10476484D02*
X12393777Y-10343150D01*
X12393777Y-10381246D02*
X12403301Y-10362198D01*
X12403301Y-10362198D02*
X12412824Y-10352674D01*
X12412824Y-10352674D02*
X12431872Y-10343150D01*
X12431872Y-10343150D02*
X12450920Y-10343150D01*
X12517586Y-10476484D02*
X12517586Y-10343150D01*
X12517586Y-10276484D02*
X12508062Y-10286008D01*
X12508062Y-10286008D02*
X12517586Y-10295531D01*
X12517586Y-10295531D02*
X12527110Y-10286008D01*
X12527110Y-10286008D02*
X12517586Y-10276484D01*
X12517586Y-10276484D02*
X12517586Y-10295531D01*
X12641396Y-10476484D02*
X12622348Y-10466960D01*
X12622348Y-10466960D02*
X12612824Y-10447912D01*
X12612824Y-10447912D02*
X12612824Y-10276484D01*
X12746158Y-10476484D02*
X12727110Y-10466960D01*
X12727110Y-10466960D02*
X12717586Y-10447912D01*
X12717586Y-10447912D02*
X12717586Y-10276484D01*
X12974729Y-10476484D02*
X12974729Y-10276484D01*
X12974729Y-10276484D02*
X13041396Y-10419341D01*
X13041396Y-10419341D02*
X13108062Y-10276484D01*
X13108062Y-10276484D02*
X13108062Y-10476484D01*
X13289015Y-10476484D02*
X13289015Y-10371722D01*
X13289015Y-10371722D02*
X13279491Y-10352674D01*
X13279491Y-10352674D02*
X13260443Y-10343150D01*
X13260443Y-10343150D02*
X13222348Y-10343150D01*
X13222348Y-10343150D02*
X13203301Y-10352674D01*
X13289015Y-10466960D02*
X13269967Y-10476484D01*
X13269967Y-10476484D02*
X13222348Y-10476484D01*
X13222348Y-10476484D02*
X13203301Y-10466960D01*
X13203301Y-10466960D02*
X13193777Y-10447912D01*
X13193777Y-10447912D02*
X13193777Y-10428865D01*
X13193777Y-10428865D02*
X13203301Y-10409817D01*
X13203301Y-10409817D02*
X13222348Y-10400293D01*
X13222348Y-10400293D02*
X13269967Y-10400293D01*
X13269967Y-10400293D02*
X13289015Y-10390770D01*
X13384253Y-10343150D02*
X13384253Y-10543150D01*
X13384253Y-10352674D02*
X13403301Y-10343150D01*
X13403301Y-10343150D02*
X13441396Y-10343150D01*
X13441396Y-10343150D02*
X13460443Y-10352674D01*
X13460443Y-10352674D02*
X13469967Y-10362198D01*
X13469967Y-10362198D02*
X13479491Y-10381246D01*
X13479491Y-10381246D02*
X13479491Y-10438389D01*
X13479491Y-10438389D02*
X13469967Y-10457436D01*
X13469967Y-10457436D02*
X13460443Y-10466960D01*
X13460443Y-10466960D02*
X13441396Y-10476484D01*
X13441396Y-10476484D02*
X13403301Y-10476484D01*
X13403301Y-10476484D02*
X13384253Y-10466960D01*
X13565205Y-10457436D02*
X13574729Y-10466960D01*
X13574729Y-10466960D02*
X13565205Y-10476484D01*
X13565205Y-10476484D02*
X13555682Y-10466960D01*
X13555682Y-10466960D02*
X13565205Y-10457436D01*
X13565205Y-10457436D02*
X13565205Y-10476484D01*
X13565205Y-10352674D02*
X13574729Y-10362198D01*
X13574729Y-10362198D02*
X13565205Y-10371722D01*
X13565205Y-10371722D02*
X13555682Y-10362198D01*
X13555682Y-10362198D02*
X13565205Y-10352674D01*
X13565205Y-10352674D02*
X13565205Y-10371722D01*
X11733000Y-10705000D02*
X11933000Y-10905000D01*
X11933000Y-10705000D02*
X11733000Y-10905000D01*
X12184253Y-10715531D02*
X12193777Y-10706008D01*
X12193777Y-10706008D02*
X12212824Y-10696484D01*
X12212824Y-10696484D02*
X12260443Y-10696484D01*
X12260443Y-10696484D02*
X12279491Y-10706008D01*
X12279491Y-10706008D02*
X12289015Y-10715531D01*
X12289015Y-10715531D02*
X12298539Y-10734579D01*
X12298539Y-10734579D02*
X12298539Y-10753627D01*
X12298539Y-10753627D02*
X12289015Y-10782198D01*
X12289015Y-10782198D02*
X12174729Y-10896484D01*
X12174729Y-10896484D02*
X12298539Y-10896484D01*
X12384253Y-10877436D02*
X12393777Y-10886960D01*
X12393777Y-10886960D02*
X12384253Y-10896484D01*
X12384253Y-10896484D02*
X12374729Y-10886960D01*
X12374729Y-10886960D02*
X12384253Y-10877436D01*
X12384253Y-10877436D02*
X12384253Y-10896484D01*
X12469967Y-10715531D02*
X12479491Y-10706008D01*
X12479491Y-10706008D02*
X12498539Y-10696484D01*
X12498539Y-10696484D02*
X12546158Y-10696484D01*
X12546158Y-10696484D02*
X12565205Y-10706008D01*
X12565205Y-10706008D02*
X12574729Y-10715531D01*
X12574729Y-10715531D02*
X12584253Y-10734579D01*
X12584253Y-10734579D02*
X12584253Y-10753627D01*
X12584253Y-10753627D02*
X12574729Y-10782198D01*
X12574729Y-10782198D02*
X12460443Y-10896484D01*
X12460443Y-10896484D02*
X12584253Y-10896484D01*
X12708062Y-10696484D02*
X12727110Y-10696484D01*
X12727110Y-10696484D02*
X12746158Y-10706008D01*
X12746158Y-10706008D02*
X12755682Y-10715531D01*
X12755682Y-10715531D02*
X12765205Y-10734579D01*
X12765205Y-10734579D02*
X12774729Y-10772674D01*
X12774729Y-10772674D02*
X12774729Y-10820293D01*
X12774729Y-10820293D02*
X12765205Y-10858389D01*
X12765205Y-10858389D02*
X12755682Y-10877436D01*
X12755682Y-10877436D02*
X12746158Y-10886960D01*
X12746158Y-10886960D02*
X12727110Y-10896484D01*
X12727110Y-10896484D02*
X12708062Y-10896484D01*
X12708062Y-10896484D02*
X12689015Y-10886960D01*
X12689015Y-10886960D02*
X12679491Y-10877436D01*
X12679491Y-10877436D02*
X12669967Y-10858389D01*
X12669967Y-10858389D02*
X12660443Y-10820293D01*
X12660443Y-10820293D02*
X12660443Y-10772674D01*
X12660443Y-10772674D02*
X12669967Y-10734579D01*
X12669967Y-10734579D02*
X12679491Y-10715531D01*
X12679491Y-10715531D02*
X12689015Y-10706008D01*
X12689015Y-10706008D02*
X12708062Y-10696484D01*
X12898539Y-10696484D02*
X12917586Y-10696484D01*
X12917586Y-10696484D02*
X12936634Y-10706008D01*
X12936634Y-10706008D02*
X12946158Y-10715531D01*
X12946158Y-10715531D02*
X12955682Y-10734579D01*
X12955682Y-10734579D02*
X12965205Y-10772674D01*
X12965205Y-10772674D02*
X12965205Y-10820293D01*
X12965205Y-10820293D02*
X12955682Y-10858389D01*
X12955682Y-10858389D02*
X12946158Y-10877436D01*
X12946158Y-10877436D02*
X12936634Y-10886960D01*
X12936634Y-10886960D02*
X12917586Y-10896484D01*
X12917586Y-10896484D02*
X12898539Y-10896484D01*
X12898539Y-10896484D02*
X12879491Y-10886960D01*
X12879491Y-10886960D02*
X12869967Y-10877436D01*
X12869967Y-10877436D02*
X12860443Y-10858389D01*
X12860443Y-10858389D02*
X12850920Y-10820293D01*
X12850920Y-10820293D02*
X12850920Y-10772674D01*
X12850920Y-10772674D02*
X12860443Y-10734579D01*
X12860443Y-10734579D02*
X12869967Y-10715531D01*
X12869967Y-10715531D02*
X12879491Y-10706008D01*
X12879491Y-10706008D02*
X12898539Y-10696484D01*
X13050920Y-10896484D02*
X13050920Y-10763150D01*
X13050920Y-10782198D02*
X13060443Y-10772674D01*
X13060443Y-10772674D02*
X13079491Y-10763150D01*
X13079491Y-10763150D02*
X13108063Y-10763150D01*
X13108063Y-10763150D02*
X13127110Y-10772674D01*
X13127110Y-10772674D02*
X13136634Y-10791722D01*
X13136634Y-10791722D02*
X13136634Y-10896484D01*
X13136634Y-10791722D02*
X13146158Y-10772674D01*
X13146158Y-10772674D02*
X13165205Y-10763150D01*
X13165205Y-10763150D02*
X13193777Y-10763150D01*
X13193777Y-10763150D02*
X13212824Y-10772674D01*
X13212824Y-10772674D02*
X13222348Y-10791722D01*
X13222348Y-10791722D02*
X13222348Y-10896484D01*
X13317586Y-10896484D02*
X13317586Y-10763150D01*
X13317586Y-10782198D02*
X13327110Y-10772674D01*
X13327110Y-10772674D02*
X13346158Y-10763150D01*
X13346158Y-10763150D02*
X13374729Y-10763150D01*
X13374729Y-10763150D02*
X13393777Y-10772674D01*
X13393777Y-10772674D02*
X13403301Y-10791722D01*
X13403301Y-10791722D02*
X13403301Y-10896484D01*
X13403301Y-10791722D02*
X13412824Y-10772674D01*
X13412824Y-10772674D02*
X13431872Y-10763150D01*
X13431872Y-10763150D02*
X13460443Y-10763150D01*
X13460443Y-10763150D02*
X13479491Y-10772674D01*
X13479491Y-10772674D02*
X13489015Y-10791722D01*
X13489015Y-10791722D02*
X13489015Y-10896484D01*
X13879491Y-10686960D02*
X13708063Y-10944103D01*
X14136634Y-10696484D02*
X14155682Y-10696484D01*
X14155682Y-10696484D02*
X14174729Y-10706008D01*
X14174729Y-10706008D02*
X14184253Y-10715531D01*
X14184253Y-10715531D02*
X14193777Y-10734579D01*
X14193777Y-10734579D02*
X14203301Y-10772674D01*
X14203301Y-10772674D02*
X14203301Y-10820293D01*
X14203301Y-10820293D02*
X14193777Y-10858389D01*
X14193777Y-10858389D02*
X14184253Y-10877436D01*
X14184253Y-10877436D02*
X14174729Y-10886960D01*
X14174729Y-10886960D02*
X14155682Y-10896484D01*
X14155682Y-10896484D02*
X14136634Y-10896484D01*
X14136634Y-10896484D02*
X14117586Y-10886960D01*
X14117586Y-10886960D02*
X14108063Y-10877436D01*
X14108063Y-10877436D02*
X14098539Y-10858389D01*
X14098539Y-10858389D02*
X14089015Y-10820293D01*
X14089015Y-10820293D02*
X14089015Y-10772674D01*
X14089015Y-10772674D02*
X14098539Y-10734579D01*
X14098539Y-10734579D02*
X14108063Y-10715531D01*
X14108063Y-10715531D02*
X14117586Y-10706008D01*
X14117586Y-10706008D02*
X14136634Y-10696484D01*
X14289015Y-10877436D02*
X14298539Y-10886960D01*
X14298539Y-10886960D02*
X14289015Y-10896484D01*
X14289015Y-10896484D02*
X14279491Y-10886960D01*
X14279491Y-10886960D02*
X14289015Y-10877436D01*
X14289015Y-10877436D02*
X14289015Y-10896484D01*
X14422348Y-10696484D02*
X14441396Y-10696484D01*
X14441396Y-10696484D02*
X14460444Y-10706008D01*
X14460444Y-10706008D02*
X14469967Y-10715531D01*
X14469967Y-10715531D02*
X14479491Y-10734579D01*
X14479491Y-10734579D02*
X14489015Y-10772674D01*
X14489015Y-10772674D02*
X14489015Y-10820293D01*
X14489015Y-10820293D02*
X14479491Y-10858389D01*
X14479491Y-10858389D02*
X14469967Y-10877436D01*
X14469967Y-10877436D02*
X14460444Y-10886960D01*
X14460444Y-10886960D02*
X14441396Y-10896484D01*
X14441396Y-10896484D02*
X14422348Y-10896484D01*
X14422348Y-10896484D02*
X14403301Y-10886960D01*
X14403301Y-10886960D02*
X14393777Y-10877436D01*
X14393777Y-10877436D02*
X14384253Y-10858389D01*
X14384253Y-10858389D02*
X14374729Y-10820293D01*
X14374729Y-10820293D02*
X14374729Y-10772674D01*
X14374729Y-10772674D02*
X14384253Y-10734579D01*
X14384253Y-10734579D02*
X14393777Y-10715531D01*
X14393777Y-10715531D02*
X14403301Y-10706008D01*
X14403301Y-10706008D02*
X14422348Y-10696484D01*
X14603301Y-10782198D02*
X14584253Y-10772674D01*
X14584253Y-10772674D02*
X14574729Y-10763150D01*
X14574729Y-10763150D02*
X14565206Y-10744103D01*
X14565206Y-10744103D02*
X14565206Y-10734579D01*
X14565206Y-10734579D02*
X14574729Y-10715531D01*
X14574729Y-10715531D02*
X14584253Y-10706008D01*
X14584253Y-10706008D02*
X14603301Y-10696484D01*
X14603301Y-10696484D02*
X14641396Y-10696484D01*
X14641396Y-10696484D02*
X14660444Y-10706008D01*
X14660444Y-10706008D02*
X14669967Y-10715531D01*
X14669967Y-10715531D02*
X14679491Y-10734579D01*
X14679491Y-10734579D02*
X14679491Y-10744103D01*
X14679491Y-10744103D02*
X14669967Y-10763150D01*
X14669967Y-10763150D02*
X14660444Y-10772674D01*
X14660444Y-10772674D02*
X14641396Y-10782198D01*
X14641396Y-10782198D02*
X14603301Y-10782198D01*
X14603301Y-10782198D02*
X14584253Y-10791722D01*
X14584253Y-10791722D02*
X14574729Y-10801246D01*
X14574729Y-10801246D02*
X14565206Y-10820293D01*
X14565206Y-10820293D02*
X14565206Y-10858389D01*
X14565206Y-10858389D02*
X14574729Y-10877436D01*
X14574729Y-10877436D02*
X14584253Y-10886960D01*
X14584253Y-10886960D02*
X14603301Y-10896484D01*
X14603301Y-10896484D02*
X14641396Y-10896484D01*
X14641396Y-10896484D02*
X14660444Y-10886960D01*
X14660444Y-10886960D02*
X14669967Y-10877436D01*
X14669967Y-10877436D02*
X14679491Y-10858389D01*
X14679491Y-10858389D02*
X14679491Y-10820293D01*
X14679491Y-10820293D02*
X14669967Y-10801246D01*
X14669967Y-10801246D02*
X14660444Y-10791722D01*
X14660444Y-10791722D02*
X14641396Y-10782198D01*
X14850920Y-10696484D02*
X14812825Y-10696484D01*
X14812825Y-10696484D02*
X14793777Y-10706008D01*
X14793777Y-10706008D02*
X14784253Y-10715531D01*
X14784253Y-10715531D02*
X14765206Y-10744103D01*
X14765206Y-10744103D02*
X14755682Y-10782198D01*
X14755682Y-10782198D02*
X14755682Y-10858389D01*
X14755682Y-10858389D02*
X14765206Y-10877436D01*
X14765206Y-10877436D02*
X14774729Y-10886960D01*
X14774729Y-10886960D02*
X14793777Y-10896484D01*
X14793777Y-10896484D02*
X14831872Y-10896484D01*
X14831872Y-10896484D02*
X14850920Y-10886960D01*
X14850920Y-10886960D02*
X14860444Y-10877436D01*
X14860444Y-10877436D02*
X14869967Y-10858389D01*
X14869967Y-10858389D02*
X14869967Y-10810770D01*
X14869967Y-10810770D02*
X14860444Y-10791722D01*
X14860444Y-10791722D02*
X14850920Y-10782198D01*
X14850920Y-10782198D02*
X14831872Y-10772674D01*
X14831872Y-10772674D02*
X14793777Y-10772674D01*
X14793777Y-10772674D02*
X14774729Y-10782198D01*
X14774729Y-10782198D02*
X14765206Y-10791722D01*
X14765206Y-10791722D02*
X14755682Y-10810770D01*
X15041396Y-10696484D02*
X15003301Y-10696484D01*
X15003301Y-10696484D02*
X14984253Y-10706008D01*
X14984253Y-10706008D02*
X14974729Y-10715531D01*
X14974729Y-10715531D02*
X14955682Y-10744103D01*
X14955682Y-10744103D02*
X14946158Y-10782198D01*
X14946158Y-10782198D02*
X14946158Y-10858389D01*
X14946158Y-10858389D02*
X14955682Y-10877436D01*
X14955682Y-10877436D02*
X14965206Y-10886960D01*
X14965206Y-10886960D02*
X14984253Y-10896484D01*
X14984253Y-10896484D02*
X15022348Y-10896484D01*
X15022348Y-10896484D02*
X15041396Y-10886960D01*
X15041396Y-10886960D02*
X15050920Y-10877436D01*
X15050920Y-10877436D02*
X15060444Y-10858389D01*
X15060444Y-10858389D02*
X15060444Y-10810770D01*
X15060444Y-10810770D02*
X15050920Y-10791722D01*
X15050920Y-10791722D02*
X15041396Y-10782198D01*
X15041396Y-10782198D02*
X15022348Y-10772674D01*
X15022348Y-10772674D02*
X14984253Y-10772674D01*
X14984253Y-10772674D02*
X14965206Y-10782198D01*
X14965206Y-10782198D02*
X14955682Y-10791722D01*
X14955682Y-10791722D02*
X14946158Y-10810770D01*
X15136634Y-10696484D02*
X15136634Y-10734579D01*
X15212825Y-10696484D02*
X15212825Y-10734579D01*
X15508063Y-10972674D02*
X15498539Y-10963150D01*
X15498539Y-10963150D02*
X15479491Y-10934579D01*
X15479491Y-10934579D02*
X15469968Y-10915531D01*
X15469968Y-10915531D02*
X15460444Y-10886960D01*
X15460444Y-10886960D02*
X15450920Y-10839341D01*
X15450920Y-10839341D02*
X15450920Y-10801246D01*
X15450920Y-10801246D02*
X15460444Y-10753627D01*
X15460444Y-10753627D02*
X15469968Y-10725055D01*
X15469968Y-10725055D02*
X15479491Y-10706008D01*
X15479491Y-10706008D02*
X15498539Y-10677436D01*
X15498539Y-10677436D02*
X15508063Y-10667912D01*
X15669968Y-10763150D02*
X15669968Y-10896484D01*
X15622348Y-10686960D02*
X15574729Y-10829817D01*
X15574729Y-10829817D02*
X15698539Y-10829817D01*
X15927110Y-10896484D02*
X15927110Y-10696484D01*
X16012825Y-10896484D02*
X16012825Y-10791722D01*
X16012825Y-10791722D02*
X16003301Y-10772674D01*
X16003301Y-10772674D02*
X15984253Y-10763150D01*
X15984253Y-10763150D02*
X15955682Y-10763150D01*
X15955682Y-10763150D02*
X15936634Y-10772674D01*
X15936634Y-10772674D02*
X15927110Y-10782198D01*
X16136634Y-10896484D02*
X16117587Y-10886960D01*
X16117587Y-10886960D02*
X16108063Y-10877436D01*
X16108063Y-10877436D02*
X16098539Y-10858389D01*
X16098539Y-10858389D02*
X16098539Y-10801246D01*
X16098539Y-10801246D02*
X16108063Y-10782198D01*
X16108063Y-10782198D02*
X16117587Y-10772674D01*
X16117587Y-10772674D02*
X16136634Y-10763150D01*
X16136634Y-10763150D02*
X16165206Y-10763150D01*
X16165206Y-10763150D02*
X16184253Y-10772674D01*
X16184253Y-10772674D02*
X16193777Y-10782198D01*
X16193777Y-10782198D02*
X16203301Y-10801246D01*
X16203301Y-10801246D02*
X16203301Y-10858389D01*
X16203301Y-10858389D02*
X16193777Y-10877436D01*
X16193777Y-10877436D02*
X16184253Y-10886960D01*
X16184253Y-10886960D02*
X16165206Y-10896484D01*
X16165206Y-10896484D02*
X16136634Y-10896484D01*
X16317587Y-10896484D02*
X16298539Y-10886960D01*
X16298539Y-10886960D02*
X16289015Y-10867912D01*
X16289015Y-10867912D02*
X16289015Y-10696484D01*
X16469968Y-10886960D02*
X16450920Y-10896484D01*
X16450920Y-10896484D02*
X16412825Y-10896484D01*
X16412825Y-10896484D02*
X16393777Y-10886960D01*
X16393777Y-10886960D02*
X16384253Y-10867912D01*
X16384253Y-10867912D02*
X16384253Y-10791722D01*
X16384253Y-10791722D02*
X16393777Y-10772674D01*
X16393777Y-10772674D02*
X16412825Y-10763150D01*
X16412825Y-10763150D02*
X16450920Y-10763150D01*
X16450920Y-10763150D02*
X16469968Y-10772674D01*
X16469968Y-10772674D02*
X16479491Y-10791722D01*
X16479491Y-10791722D02*
X16479491Y-10810770D01*
X16479491Y-10810770D02*
X16384253Y-10829817D01*
X16555682Y-10886960D02*
X16574730Y-10896484D01*
X16574730Y-10896484D02*
X16612825Y-10896484D01*
X16612825Y-10896484D02*
X16631872Y-10886960D01*
X16631872Y-10886960D02*
X16641396Y-10867912D01*
X16641396Y-10867912D02*
X16641396Y-10858389D01*
X16641396Y-10858389D02*
X16631872Y-10839341D01*
X16631872Y-10839341D02*
X16612825Y-10829817D01*
X16612825Y-10829817D02*
X16584253Y-10829817D01*
X16584253Y-10829817D02*
X16565206Y-10820293D01*
X16565206Y-10820293D02*
X16555682Y-10801246D01*
X16555682Y-10801246D02*
X16555682Y-10791722D01*
X16555682Y-10791722D02*
X16565206Y-10772674D01*
X16565206Y-10772674D02*
X16584253Y-10763150D01*
X16584253Y-10763150D02*
X16612825Y-10763150D01*
X16612825Y-10763150D02*
X16631872Y-10772674D01*
X16708063Y-10972674D02*
X16717587Y-10963150D01*
X16717587Y-10963150D02*
X16736634Y-10934579D01*
X16736634Y-10934579D02*
X16746158Y-10915531D01*
X16746158Y-10915531D02*
X16755682Y-10886960D01*
X16755682Y-10886960D02*
X16765206Y-10839341D01*
X16765206Y-10839341D02*
X16765206Y-10801246D01*
X16765206Y-10801246D02*
X16755682Y-10753627D01*
X16755682Y-10753627D02*
X16746158Y-10725055D01*
X16746158Y-10725055D02*
X16736634Y-10706008D01*
X16736634Y-10706008D02*
X16717587Y-10677436D01*
X16717587Y-10677436D02*
X16708063Y-10667912D01*
X17069968Y-10972674D02*
X17060444Y-10963150D01*
X17060444Y-10963150D02*
X17041396Y-10934579D01*
X17041396Y-10934579D02*
X17031873Y-10915531D01*
X17031873Y-10915531D02*
X17022349Y-10886960D01*
X17022349Y-10886960D02*
X17012825Y-10839341D01*
X17012825Y-10839341D02*
X17012825Y-10801246D01*
X17012825Y-10801246D02*
X17022349Y-10753627D01*
X17022349Y-10753627D02*
X17031873Y-10725055D01*
X17031873Y-10725055D02*
X17041396Y-10706008D01*
X17041396Y-10706008D02*
X17060444Y-10677436D01*
X17060444Y-10677436D02*
X17069968Y-10667912D01*
X17146158Y-10763150D02*
X17146158Y-10896484D01*
X17146158Y-10782198D02*
X17155682Y-10772674D01*
X17155682Y-10772674D02*
X17174730Y-10763150D01*
X17174730Y-10763150D02*
X17203301Y-10763150D01*
X17203301Y-10763150D02*
X17222349Y-10772674D01*
X17222349Y-10772674D02*
X17231873Y-10791722D01*
X17231873Y-10791722D02*
X17231873Y-10896484D01*
X17355682Y-10896484D02*
X17336634Y-10886960D01*
X17336634Y-10886960D02*
X17327111Y-10877436D01*
X17327111Y-10877436D02*
X17317587Y-10858389D01*
X17317587Y-10858389D02*
X17317587Y-10801246D01*
X17317587Y-10801246D02*
X17327111Y-10782198D01*
X17327111Y-10782198D02*
X17336634Y-10772674D01*
X17336634Y-10772674D02*
X17355682Y-10763150D01*
X17355682Y-10763150D02*
X17384254Y-10763150D01*
X17384254Y-10763150D02*
X17403301Y-10772674D01*
X17403301Y-10772674D02*
X17412825Y-10782198D01*
X17412825Y-10782198D02*
X17422349Y-10801246D01*
X17422349Y-10801246D02*
X17422349Y-10858389D01*
X17422349Y-10858389D02*
X17412825Y-10877436D01*
X17412825Y-10877436D02*
X17403301Y-10886960D01*
X17403301Y-10886960D02*
X17384254Y-10896484D01*
X17384254Y-10896484D02*
X17355682Y-10896484D01*
X17479492Y-10763150D02*
X17555682Y-10763150D01*
X17508063Y-10696484D02*
X17508063Y-10867912D01*
X17508063Y-10867912D02*
X17517587Y-10886960D01*
X17517587Y-10886960D02*
X17536634Y-10896484D01*
X17536634Y-10896484D02*
X17555682Y-10896484D01*
X17774730Y-10763150D02*
X17774730Y-10963150D01*
X17774730Y-10772674D02*
X17793777Y-10763150D01*
X17793777Y-10763150D02*
X17831873Y-10763150D01*
X17831873Y-10763150D02*
X17850920Y-10772674D01*
X17850920Y-10772674D02*
X17860444Y-10782198D01*
X17860444Y-10782198D02*
X17869968Y-10801246D01*
X17869968Y-10801246D02*
X17869968Y-10858389D01*
X17869968Y-10858389D02*
X17860444Y-10877436D01*
X17860444Y-10877436D02*
X17850920Y-10886960D01*
X17850920Y-10886960D02*
X17831873Y-10896484D01*
X17831873Y-10896484D02*
X17793777Y-10896484D01*
X17793777Y-10896484D02*
X17774730Y-10886960D01*
X17984254Y-10896484D02*
X17965206Y-10886960D01*
X17965206Y-10886960D02*
X17955682Y-10867912D01*
X17955682Y-10867912D02*
X17955682Y-10696484D01*
X18146158Y-10896484D02*
X18146158Y-10791722D01*
X18146158Y-10791722D02*
X18136635Y-10772674D01*
X18136635Y-10772674D02*
X18117587Y-10763150D01*
X18117587Y-10763150D02*
X18079492Y-10763150D01*
X18079492Y-10763150D02*
X18060444Y-10772674D01*
X18146158Y-10886960D02*
X18127111Y-10896484D01*
X18127111Y-10896484D02*
X18079492Y-10896484D01*
X18079492Y-10896484D02*
X18060444Y-10886960D01*
X18060444Y-10886960D02*
X18050920Y-10867912D01*
X18050920Y-10867912D02*
X18050920Y-10848865D01*
X18050920Y-10848865D02*
X18060444Y-10829817D01*
X18060444Y-10829817D02*
X18079492Y-10820293D01*
X18079492Y-10820293D02*
X18127111Y-10820293D01*
X18127111Y-10820293D02*
X18146158Y-10810770D01*
X18212825Y-10763150D02*
X18289015Y-10763150D01*
X18241396Y-10696484D02*
X18241396Y-10867912D01*
X18241396Y-10867912D02*
X18250920Y-10886960D01*
X18250920Y-10886960D02*
X18269968Y-10896484D01*
X18269968Y-10896484D02*
X18289015Y-10896484D01*
X18431873Y-10886960D02*
X18412825Y-10896484D01*
X18412825Y-10896484D02*
X18374730Y-10896484D01*
X18374730Y-10896484D02*
X18355682Y-10886960D01*
X18355682Y-10886960D02*
X18346158Y-10867912D01*
X18346158Y-10867912D02*
X18346158Y-10791722D01*
X18346158Y-10791722D02*
X18355682Y-10772674D01*
X18355682Y-10772674D02*
X18374730Y-10763150D01*
X18374730Y-10763150D02*
X18412825Y-10763150D01*
X18412825Y-10763150D02*
X18431873Y-10772674D01*
X18431873Y-10772674D02*
X18441396Y-10791722D01*
X18441396Y-10791722D02*
X18441396Y-10810770D01*
X18441396Y-10810770D02*
X18346158Y-10829817D01*
X18612825Y-10896484D02*
X18612825Y-10696484D01*
X18612825Y-10886960D02*
X18593777Y-10896484D01*
X18593777Y-10896484D02*
X18555682Y-10896484D01*
X18555682Y-10896484D02*
X18536635Y-10886960D01*
X18536635Y-10886960D02*
X18527111Y-10877436D01*
X18527111Y-10877436D02*
X18517587Y-10858389D01*
X18517587Y-10858389D02*
X18517587Y-10801246D01*
X18517587Y-10801246D02*
X18527111Y-10782198D01*
X18527111Y-10782198D02*
X18536635Y-10772674D01*
X18536635Y-10772674D02*
X18555682Y-10763150D01*
X18555682Y-10763150D02*
X18593777Y-10763150D01*
X18593777Y-10763150D02*
X18612825Y-10772674D01*
X18689016Y-10972674D02*
X18698539Y-10963150D01*
X18698539Y-10963150D02*
X18717587Y-10934579D01*
X18717587Y-10934579D02*
X18727111Y-10915531D01*
X18727111Y-10915531D02*
X18736635Y-10886960D01*
X18736635Y-10886960D02*
X18746158Y-10839341D01*
X18746158Y-10839341D02*
X18746158Y-10801246D01*
X18746158Y-10801246D02*
X18736635Y-10753627D01*
X18736635Y-10753627D02*
X18727111Y-10725055D01*
X18727111Y-10725055D02*
X18717587Y-10706008D01*
X18717587Y-10706008D02*
X18698539Y-10677436D01*
X18698539Y-10677436D02*
X18689016Y-10667912D01*
M02*
