G04 #@! TF.GenerationSoftware,KiCad,Pcbnew,7.0.10*
G04 #@! TF.CreationDate,2024-01-28T20:04:37-07:00*
G04 #@! TF.ProjectId,CANBUS Breakout Board,43414e42-5553-4204-9272-65616b6f7574,rev?*
G04 #@! TF.SameCoordinates,Original*
G04 #@! TF.FileFunction,Legend,Top*
G04 #@! TF.FilePolarity,Positive*
%FSLAX46Y46*%
G04 Gerber Fmt 4.6, Leading zero omitted, Abs format (unit mm)*
G04 Created by KiCad (PCBNEW 7.0.10) date 2024-01-28 20:04:37*
%MOMM*%
%LPD*%
G01*
G04 APERTURE LIST*
%ADD10C,0.150000*%
%ADD11C,0.120000*%
%ADD12C,4.000000*%
%ADD13R,1.600000X1.600000*%
%ADD14C,1.600000*%
%ADD15C,2.200000*%
G04 APERTURE END LIST*
D10*
X168200000Y-58500000D02*
X168000000Y-58300000D01*
X169022493Y-61469819D02*
X169022493Y-62184104D01*
X169022493Y-62184104D02*
X168974874Y-62326961D01*
X168974874Y-62326961D02*
X168879636Y-62422200D01*
X168879636Y-62422200D02*
X168736779Y-62469819D01*
X168736779Y-62469819D02*
X168641541Y-62469819D01*
X169403446Y-61469819D02*
X170022493Y-61469819D01*
X170022493Y-61469819D02*
X169689160Y-61850771D01*
X169689160Y-61850771D02*
X169832017Y-61850771D01*
X169832017Y-61850771D02*
X169927255Y-61898390D01*
X169927255Y-61898390D02*
X169974874Y-61946009D01*
X169974874Y-61946009D02*
X170022493Y-62041247D01*
X170022493Y-62041247D02*
X170022493Y-62279342D01*
X170022493Y-62279342D02*
X169974874Y-62374580D01*
X169974874Y-62374580D02*
X169927255Y-62422200D01*
X169927255Y-62422200D02*
X169832017Y-62469819D01*
X169832017Y-62469819D02*
X169546303Y-62469819D01*
X169546303Y-62469819D02*
X169451065Y-62422200D01*
X169451065Y-62422200D02*
X169403446Y-62374580D01*
X170922493Y-57169819D02*
X170922493Y-57884104D01*
X170922493Y-57884104D02*
X170874874Y-58026961D01*
X170874874Y-58026961D02*
X170779636Y-58122200D01*
X170779636Y-58122200D02*
X170636779Y-58169819D01*
X170636779Y-58169819D02*
X170541541Y-58169819D01*
X171351065Y-57265057D02*
X171398684Y-57217438D01*
X171398684Y-57217438D02*
X171493922Y-57169819D01*
X171493922Y-57169819D02*
X171732017Y-57169819D01*
X171732017Y-57169819D02*
X171827255Y-57217438D01*
X171827255Y-57217438D02*
X171874874Y-57265057D01*
X171874874Y-57265057D02*
X171922493Y-57360295D01*
X171922493Y-57360295D02*
X171922493Y-57455533D01*
X171922493Y-57455533D02*
X171874874Y-57598390D01*
X171874874Y-57598390D02*
X171303446Y-58169819D01*
X171303446Y-58169819D02*
X171922493Y-58169819D01*
X167322493Y-57069819D02*
X167322493Y-57784104D01*
X167322493Y-57784104D02*
X167274874Y-57926961D01*
X167274874Y-57926961D02*
X167179636Y-58022200D01*
X167179636Y-58022200D02*
X167036779Y-58069819D01*
X167036779Y-58069819D02*
X166941541Y-58069819D01*
X168322493Y-58069819D02*
X167751065Y-58069819D01*
X168036779Y-58069819D02*
X168036779Y-57069819D01*
X168036779Y-57069819D02*
X167941541Y-57212676D01*
X167941541Y-57212676D02*
X167846303Y-57307914D01*
X167846303Y-57307914D02*
X167751065Y-57355533D01*
X170100000Y-58600000D02*
X170300000Y-58300000D01*
X169300000Y-59700000D02*
X169300000Y-61100000D01*
X169300000Y-59700000D02*
X170100000Y-58600000D01*
X168200000Y-58500000D02*
X169300000Y-59700000D01*
X129876779Y-57086009D02*
X130210112Y-57086009D01*
X130352969Y-57609819D02*
X129876779Y-57609819D01*
X129876779Y-57609819D02*
X129876779Y-56609819D01*
X129876779Y-56609819D02*
X130352969Y-56609819D01*
X131210112Y-57562200D02*
X131114874Y-57609819D01*
X131114874Y-57609819D02*
X130924398Y-57609819D01*
X130924398Y-57609819D02*
X130829160Y-57562200D01*
X130829160Y-57562200D02*
X130781541Y-57514580D01*
X130781541Y-57514580D02*
X130733922Y-57419342D01*
X130733922Y-57419342D02*
X130733922Y-57133628D01*
X130733922Y-57133628D02*
X130781541Y-57038390D01*
X130781541Y-57038390D02*
X130829160Y-56990771D01*
X130829160Y-56990771D02*
X130924398Y-56943152D01*
X130924398Y-56943152D02*
X131114874Y-56943152D01*
X131114874Y-56943152D02*
X131210112Y-56990771D01*
X131781541Y-57609819D02*
X131686303Y-57562200D01*
X131686303Y-57562200D02*
X131638684Y-57514580D01*
X131638684Y-57514580D02*
X131591065Y-57419342D01*
X131591065Y-57419342D02*
X131591065Y-57133628D01*
X131591065Y-57133628D02*
X131638684Y-57038390D01*
X131638684Y-57038390D02*
X131686303Y-56990771D01*
X131686303Y-56990771D02*
X131781541Y-56943152D01*
X131781541Y-56943152D02*
X131924398Y-56943152D01*
X131924398Y-56943152D02*
X132019636Y-56990771D01*
X132019636Y-56990771D02*
X132067255Y-57038390D01*
X132067255Y-57038390D02*
X132114874Y-57133628D01*
X132114874Y-57133628D02*
X132114874Y-57419342D01*
X132114874Y-57419342D02*
X132067255Y-57514580D01*
X132067255Y-57514580D02*
X132019636Y-57562200D01*
X132019636Y-57562200D02*
X131924398Y-57609819D01*
X131924398Y-57609819D02*
X131781541Y-57609819D01*
X133114874Y-57514580D02*
X133067255Y-57562200D01*
X133067255Y-57562200D02*
X132924398Y-57609819D01*
X132924398Y-57609819D02*
X132829160Y-57609819D01*
X132829160Y-57609819D02*
X132686303Y-57562200D01*
X132686303Y-57562200D02*
X132591065Y-57466961D01*
X132591065Y-57466961D02*
X132543446Y-57371723D01*
X132543446Y-57371723D02*
X132495827Y-57181247D01*
X132495827Y-57181247D02*
X132495827Y-57038390D01*
X132495827Y-57038390D02*
X132543446Y-56847914D01*
X132543446Y-56847914D02*
X132591065Y-56752676D01*
X132591065Y-56752676D02*
X132686303Y-56657438D01*
X132686303Y-56657438D02*
X132829160Y-56609819D01*
X132829160Y-56609819D02*
X132924398Y-56609819D01*
X132924398Y-56609819D02*
X133067255Y-56657438D01*
X133067255Y-56657438D02*
X133114874Y-56705057D01*
X133972017Y-57609819D02*
X133972017Y-57086009D01*
X133972017Y-57086009D02*
X133924398Y-56990771D01*
X133924398Y-56990771D02*
X133829160Y-56943152D01*
X133829160Y-56943152D02*
X133638684Y-56943152D01*
X133638684Y-56943152D02*
X133543446Y-56990771D01*
X133972017Y-57562200D02*
X133876779Y-57609819D01*
X133876779Y-57609819D02*
X133638684Y-57609819D01*
X133638684Y-57609819D02*
X133543446Y-57562200D01*
X133543446Y-57562200D02*
X133495827Y-57466961D01*
X133495827Y-57466961D02*
X133495827Y-57371723D01*
X133495827Y-57371723D02*
X133543446Y-57276485D01*
X133543446Y-57276485D02*
X133638684Y-57228866D01*
X133638684Y-57228866D02*
X133876779Y-57228866D01*
X133876779Y-57228866D02*
X133972017Y-57181247D01*
X134448208Y-57609819D02*
X134448208Y-56943152D01*
X134448208Y-57133628D02*
X134495827Y-57038390D01*
X134495827Y-57038390D02*
X134543446Y-56990771D01*
X134543446Y-56990771D02*
X134638684Y-56943152D01*
X134638684Y-56943152D02*
X134733922Y-56943152D01*
X136400589Y-57514580D02*
X136352970Y-57562200D01*
X136352970Y-57562200D02*
X136210113Y-57609819D01*
X136210113Y-57609819D02*
X136114875Y-57609819D01*
X136114875Y-57609819D02*
X135972018Y-57562200D01*
X135972018Y-57562200D02*
X135876780Y-57466961D01*
X135876780Y-57466961D02*
X135829161Y-57371723D01*
X135829161Y-57371723D02*
X135781542Y-57181247D01*
X135781542Y-57181247D02*
X135781542Y-57038390D01*
X135781542Y-57038390D02*
X135829161Y-56847914D01*
X135829161Y-56847914D02*
X135876780Y-56752676D01*
X135876780Y-56752676D02*
X135972018Y-56657438D01*
X135972018Y-56657438D02*
X136114875Y-56609819D01*
X136114875Y-56609819D02*
X136210113Y-56609819D01*
X136210113Y-56609819D02*
X136352970Y-56657438D01*
X136352970Y-56657438D02*
X136400589Y-56705057D01*
X136781542Y-57324104D02*
X137257732Y-57324104D01*
X136686304Y-57609819D02*
X137019637Y-56609819D01*
X137019637Y-56609819D02*
X137352970Y-57609819D01*
X137686304Y-57609819D02*
X137686304Y-56609819D01*
X137686304Y-56609819D02*
X138257732Y-57609819D01*
X138257732Y-57609819D02*
X138257732Y-56609819D01*
X139829161Y-57086009D02*
X139972018Y-57133628D01*
X139972018Y-57133628D02*
X140019637Y-57181247D01*
X140019637Y-57181247D02*
X140067256Y-57276485D01*
X140067256Y-57276485D02*
X140067256Y-57419342D01*
X140067256Y-57419342D02*
X140019637Y-57514580D01*
X140019637Y-57514580D02*
X139972018Y-57562200D01*
X139972018Y-57562200D02*
X139876780Y-57609819D01*
X139876780Y-57609819D02*
X139495828Y-57609819D01*
X139495828Y-57609819D02*
X139495828Y-56609819D01*
X139495828Y-56609819D02*
X139829161Y-56609819D01*
X139829161Y-56609819D02*
X139924399Y-56657438D01*
X139924399Y-56657438D02*
X139972018Y-56705057D01*
X139972018Y-56705057D02*
X140019637Y-56800295D01*
X140019637Y-56800295D02*
X140019637Y-56895533D01*
X140019637Y-56895533D02*
X139972018Y-56990771D01*
X139972018Y-56990771D02*
X139924399Y-57038390D01*
X139924399Y-57038390D02*
X139829161Y-57086009D01*
X139829161Y-57086009D02*
X139495828Y-57086009D01*
X140924399Y-56943152D02*
X140924399Y-57609819D01*
X140495828Y-56943152D02*
X140495828Y-57466961D01*
X140495828Y-57466961D02*
X140543447Y-57562200D01*
X140543447Y-57562200D02*
X140638685Y-57609819D01*
X140638685Y-57609819D02*
X140781542Y-57609819D01*
X140781542Y-57609819D02*
X140876780Y-57562200D01*
X140876780Y-57562200D02*
X140924399Y-57514580D01*
X141352971Y-57562200D02*
X141448209Y-57609819D01*
X141448209Y-57609819D02*
X141638685Y-57609819D01*
X141638685Y-57609819D02*
X141733923Y-57562200D01*
X141733923Y-57562200D02*
X141781542Y-57466961D01*
X141781542Y-57466961D02*
X141781542Y-57419342D01*
X141781542Y-57419342D02*
X141733923Y-57324104D01*
X141733923Y-57324104D02*
X141638685Y-57276485D01*
X141638685Y-57276485D02*
X141495828Y-57276485D01*
X141495828Y-57276485D02*
X141400590Y-57228866D01*
X141400590Y-57228866D02*
X141352971Y-57133628D01*
X141352971Y-57133628D02*
X141352971Y-57086009D01*
X141352971Y-57086009D02*
X141400590Y-56990771D01*
X141400590Y-56990771D02*
X141495828Y-56943152D01*
X141495828Y-56943152D02*
X141638685Y-56943152D01*
X141638685Y-56943152D02*
X141733923Y-56990771D01*
X143305352Y-57086009D02*
X143448209Y-57133628D01*
X143448209Y-57133628D02*
X143495828Y-57181247D01*
X143495828Y-57181247D02*
X143543447Y-57276485D01*
X143543447Y-57276485D02*
X143543447Y-57419342D01*
X143543447Y-57419342D02*
X143495828Y-57514580D01*
X143495828Y-57514580D02*
X143448209Y-57562200D01*
X143448209Y-57562200D02*
X143352971Y-57609819D01*
X143352971Y-57609819D02*
X142972019Y-57609819D01*
X142972019Y-57609819D02*
X142972019Y-56609819D01*
X142972019Y-56609819D02*
X143305352Y-56609819D01*
X143305352Y-56609819D02*
X143400590Y-56657438D01*
X143400590Y-56657438D02*
X143448209Y-56705057D01*
X143448209Y-56705057D02*
X143495828Y-56800295D01*
X143495828Y-56800295D02*
X143495828Y-56895533D01*
X143495828Y-56895533D02*
X143448209Y-56990771D01*
X143448209Y-56990771D02*
X143400590Y-57038390D01*
X143400590Y-57038390D02*
X143305352Y-57086009D01*
X143305352Y-57086009D02*
X142972019Y-57086009D01*
X143972019Y-57609819D02*
X143972019Y-56943152D01*
X143972019Y-57133628D02*
X144019638Y-57038390D01*
X144019638Y-57038390D02*
X144067257Y-56990771D01*
X144067257Y-56990771D02*
X144162495Y-56943152D01*
X144162495Y-56943152D02*
X144257733Y-56943152D01*
X144972019Y-57562200D02*
X144876781Y-57609819D01*
X144876781Y-57609819D02*
X144686305Y-57609819D01*
X144686305Y-57609819D02*
X144591067Y-57562200D01*
X144591067Y-57562200D02*
X144543448Y-57466961D01*
X144543448Y-57466961D02*
X144543448Y-57086009D01*
X144543448Y-57086009D02*
X144591067Y-56990771D01*
X144591067Y-56990771D02*
X144686305Y-56943152D01*
X144686305Y-56943152D02*
X144876781Y-56943152D01*
X144876781Y-56943152D02*
X144972019Y-56990771D01*
X144972019Y-56990771D02*
X145019638Y-57086009D01*
X145019638Y-57086009D02*
X145019638Y-57181247D01*
X145019638Y-57181247D02*
X144543448Y-57276485D01*
X145876781Y-57609819D02*
X145876781Y-57086009D01*
X145876781Y-57086009D02*
X145829162Y-56990771D01*
X145829162Y-56990771D02*
X145733924Y-56943152D01*
X145733924Y-56943152D02*
X145543448Y-56943152D01*
X145543448Y-56943152D02*
X145448210Y-56990771D01*
X145876781Y-57562200D02*
X145781543Y-57609819D01*
X145781543Y-57609819D02*
X145543448Y-57609819D01*
X145543448Y-57609819D02*
X145448210Y-57562200D01*
X145448210Y-57562200D02*
X145400591Y-57466961D01*
X145400591Y-57466961D02*
X145400591Y-57371723D01*
X145400591Y-57371723D02*
X145448210Y-57276485D01*
X145448210Y-57276485D02*
X145543448Y-57228866D01*
X145543448Y-57228866D02*
X145781543Y-57228866D01*
X145781543Y-57228866D02*
X145876781Y-57181247D01*
X146352972Y-57609819D02*
X146352972Y-56609819D01*
X146448210Y-57228866D02*
X146733924Y-57609819D01*
X146733924Y-56943152D02*
X146352972Y-57324104D01*
X147305353Y-57609819D02*
X147210115Y-57562200D01*
X147210115Y-57562200D02*
X147162496Y-57514580D01*
X147162496Y-57514580D02*
X147114877Y-57419342D01*
X147114877Y-57419342D02*
X147114877Y-57133628D01*
X147114877Y-57133628D02*
X147162496Y-57038390D01*
X147162496Y-57038390D02*
X147210115Y-56990771D01*
X147210115Y-56990771D02*
X147305353Y-56943152D01*
X147305353Y-56943152D02*
X147448210Y-56943152D01*
X147448210Y-56943152D02*
X147543448Y-56990771D01*
X147543448Y-56990771D02*
X147591067Y-57038390D01*
X147591067Y-57038390D02*
X147638686Y-57133628D01*
X147638686Y-57133628D02*
X147638686Y-57419342D01*
X147638686Y-57419342D02*
X147591067Y-57514580D01*
X147591067Y-57514580D02*
X147543448Y-57562200D01*
X147543448Y-57562200D02*
X147448210Y-57609819D01*
X147448210Y-57609819D02*
X147305353Y-57609819D01*
X148495829Y-56943152D02*
X148495829Y-57609819D01*
X148067258Y-56943152D02*
X148067258Y-57466961D01*
X148067258Y-57466961D02*
X148114877Y-57562200D01*
X148114877Y-57562200D02*
X148210115Y-57609819D01*
X148210115Y-57609819D02*
X148352972Y-57609819D01*
X148352972Y-57609819D02*
X148448210Y-57562200D01*
X148448210Y-57562200D02*
X148495829Y-57514580D01*
X148829163Y-56943152D02*
X149210115Y-56943152D01*
X148972020Y-56609819D02*
X148972020Y-57466961D01*
X148972020Y-57466961D02*
X149019639Y-57562200D01*
X149019639Y-57562200D02*
X149114877Y-57609819D01*
X149114877Y-57609819D02*
X149210115Y-57609819D01*
X150638687Y-57086009D02*
X150781544Y-57133628D01*
X150781544Y-57133628D02*
X150829163Y-57181247D01*
X150829163Y-57181247D02*
X150876782Y-57276485D01*
X150876782Y-57276485D02*
X150876782Y-57419342D01*
X150876782Y-57419342D02*
X150829163Y-57514580D01*
X150829163Y-57514580D02*
X150781544Y-57562200D01*
X150781544Y-57562200D02*
X150686306Y-57609819D01*
X150686306Y-57609819D02*
X150305354Y-57609819D01*
X150305354Y-57609819D02*
X150305354Y-56609819D01*
X150305354Y-56609819D02*
X150638687Y-56609819D01*
X150638687Y-56609819D02*
X150733925Y-56657438D01*
X150733925Y-56657438D02*
X150781544Y-56705057D01*
X150781544Y-56705057D02*
X150829163Y-56800295D01*
X150829163Y-56800295D02*
X150829163Y-56895533D01*
X150829163Y-56895533D02*
X150781544Y-56990771D01*
X150781544Y-56990771D02*
X150733925Y-57038390D01*
X150733925Y-57038390D02*
X150638687Y-57086009D01*
X150638687Y-57086009D02*
X150305354Y-57086009D01*
X151448211Y-57609819D02*
X151352973Y-57562200D01*
X151352973Y-57562200D02*
X151305354Y-57514580D01*
X151305354Y-57514580D02*
X151257735Y-57419342D01*
X151257735Y-57419342D02*
X151257735Y-57133628D01*
X151257735Y-57133628D02*
X151305354Y-57038390D01*
X151305354Y-57038390D02*
X151352973Y-56990771D01*
X151352973Y-56990771D02*
X151448211Y-56943152D01*
X151448211Y-56943152D02*
X151591068Y-56943152D01*
X151591068Y-56943152D02*
X151686306Y-56990771D01*
X151686306Y-56990771D02*
X151733925Y-57038390D01*
X151733925Y-57038390D02*
X151781544Y-57133628D01*
X151781544Y-57133628D02*
X151781544Y-57419342D01*
X151781544Y-57419342D02*
X151733925Y-57514580D01*
X151733925Y-57514580D02*
X151686306Y-57562200D01*
X151686306Y-57562200D02*
X151591068Y-57609819D01*
X151591068Y-57609819D02*
X151448211Y-57609819D01*
X152638687Y-57609819D02*
X152638687Y-57086009D01*
X152638687Y-57086009D02*
X152591068Y-56990771D01*
X152591068Y-56990771D02*
X152495830Y-56943152D01*
X152495830Y-56943152D02*
X152305354Y-56943152D01*
X152305354Y-56943152D02*
X152210116Y-56990771D01*
X152638687Y-57562200D02*
X152543449Y-57609819D01*
X152543449Y-57609819D02*
X152305354Y-57609819D01*
X152305354Y-57609819D02*
X152210116Y-57562200D01*
X152210116Y-57562200D02*
X152162497Y-57466961D01*
X152162497Y-57466961D02*
X152162497Y-57371723D01*
X152162497Y-57371723D02*
X152210116Y-57276485D01*
X152210116Y-57276485D02*
X152305354Y-57228866D01*
X152305354Y-57228866D02*
X152543449Y-57228866D01*
X152543449Y-57228866D02*
X152638687Y-57181247D01*
X153114878Y-57609819D02*
X153114878Y-56943152D01*
X153114878Y-57133628D02*
X153162497Y-57038390D01*
X153162497Y-57038390D02*
X153210116Y-56990771D01*
X153210116Y-56990771D02*
X153305354Y-56943152D01*
X153305354Y-56943152D02*
X153400592Y-56943152D01*
X154162497Y-57609819D02*
X154162497Y-56609819D01*
X154162497Y-57562200D02*
X154067259Y-57609819D01*
X154067259Y-57609819D02*
X153876783Y-57609819D01*
X153876783Y-57609819D02*
X153781545Y-57562200D01*
X153781545Y-57562200D02*
X153733926Y-57514580D01*
X153733926Y-57514580D02*
X153686307Y-57419342D01*
X153686307Y-57419342D02*
X153686307Y-57133628D01*
X153686307Y-57133628D02*
X153733926Y-57038390D01*
X153733926Y-57038390D02*
X153781545Y-56990771D01*
X153781545Y-56990771D02*
X153876783Y-56943152D01*
X153876783Y-56943152D02*
X154067259Y-56943152D01*
X154067259Y-56943152D02*
X154162497Y-56990771D01*
X129876779Y-59219819D02*
X129876779Y-58219819D01*
X130448207Y-59219819D02*
X130019636Y-58648390D01*
X130448207Y-58219819D02*
X129876779Y-58791247D01*
X131305350Y-59219819D02*
X131305350Y-58696009D01*
X131305350Y-58696009D02*
X131257731Y-58600771D01*
X131257731Y-58600771D02*
X131162493Y-58553152D01*
X131162493Y-58553152D02*
X130972017Y-58553152D01*
X130972017Y-58553152D02*
X130876779Y-58600771D01*
X131305350Y-59172200D02*
X131210112Y-59219819D01*
X131210112Y-59219819D02*
X130972017Y-59219819D01*
X130972017Y-59219819D02*
X130876779Y-59172200D01*
X130876779Y-59172200D02*
X130829160Y-59076961D01*
X130829160Y-59076961D02*
X130829160Y-58981723D01*
X130829160Y-58981723D02*
X130876779Y-58886485D01*
X130876779Y-58886485D02*
X130972017Y-58838866D01*
X130972017Y-58838866D02*
X131210112Y-58838866D01*
X131210112Y-58838866D02*
X131305350Y-58791247D01*
X131781541Y-59219819D02*
X131781541Y-58553152D01*
X131781541Y-58219819D02*
X131733922Y-58267438D01*
X131733922Y-58267438D02*
X131781541Y-58315057D01*
X131781541Y-58315057D02*
X131829160Y-58267438D01*
X131829160Y-58267438D02*
X131781541Y-58219819D01*
X131781541Y-58219819D02*
X131781541Y-58315057D01*
X132114874Y-58553152D02*
X132495826Y-58553152D01*
X132257731Y-58219819D02*
X132257731Y-59076961D01*
X132257731Y-59076961D02*
X132305350Y-59172200D01*
X132305350Y-59172200D02*
X132400588Y-59219819D01*
X132400588Y-59219819D02*
X132495826Y-59219819D01*
X132972017Y-59219819D02*
X132876779Y-59172200D01*
X132876779Y-59172200D02*
X132829160Y-59076961D01*
X132829160Y-59076961D02*
X132829160Y-58219819D01*
X133257732Y-58553152D02*
X133495827Y-59219819D01*
X133733922Y-58553152D02*
X133495827Y-59219819D01*
X133495827Y-59219819D02*
X133400589Y-59457914D01*
X133400589Y-59457914D02*
X133352970Y-59505533D01*
X133352970Y-59505533D02*
X133257732Y-59553152D01*
X134114875Y-58553152D02*
X134114875Y-59219819D01*
X134114875Y-58648390D02*
X134162494Y-58600771D01*
X134162494Y-58600771D02*
X134257732Y-58553152D01*
X134257732Y-58553152D02*
X134400589Y-58553152D01*
X134400589Y-58553152D02*
X134495827Y-58600771D01*
X134495827Y-58600771D02*
X134543446Y-58696009D01*
X134543446Y-58696009D02*
X134543446Y-59219819D01*
X136352970Y-59124580D02*
X136305351Y-59172200D01*
X136305351Y-59172200D02*
X136162494Y-59219819D01*
X136162494Y-59219819D02*
X136067256Y-59219819D01*
X136067256Y-59219819D02*
X135924399Y-59172200D01*
X135924399Y-59172200D02*
X135829161Y-59076961D01*
X135829161Y-59076961D02*
X135781542Y-58981723D01*
X135781542Y-58981723D02*
X135733923Y-58791247D01*
X135733923Y-58791247D02*
X135733923Y-58648390D01*
X135733923Y-58648390D02*
X135781542Y-58457914D01*
X135781542Y-58457914D02*
X135829161Y-58362676D01*
X135829161Y-58362676D02*
X135924399Y-58267438D01*
X135924399Y-58267438D02*
X136067256Y-58219819D01*
X136067256Y-58219819D02*
X136162494Y-58219819D01*
X136162494Y-58219819D02*
X136305351Y-58267438D01*
X136305351Y-58267438D02*
X136352970Y-58315057D01*
X136781542Y-59219819D02*
X136781542Y-58219819D01*
X137210113Y-59219819D02*
X137210113Y-58696009D01*
X137210113Y-58696009D02*
X137162494Y-58600771D01*
X137162494Y-58600771D02*
X137067256Y-58553152D01*
X137067256Y-58553152D02*
X136924399Y-58553152D01*
X136924399Y-58553152D02*
X136829161Y-58600771D01*
X136829161Y-58600771D02*
X136781542Y-58648390D01*
X138114875Y-59219819D02*
X138114875Y-58696009D01*
X138114875Y-58696009D02*
X138067256Y-58600771D01*
X138067256Y-58600771D02*
X137972018Y-58553152D01*
X137972018Y-58553152D02*
X137781542Y-58553152D01*
X137781542Y-58553152D02*
X137686304Y-58600771D01*
X138114875Y-59172200D02*
X138019637Y-59219819D01*
X138019637Y-59219819D02*
X137781542Y-59219819D01*
X137781542Y-59219819D02*
X137686304Y-59172200D01*
X137686304Y-59172200D02*
X137638685Y-59076961D01*
X137638685Y-59076961D02*
X137638685Y-58981723D01*
X137638685Y-58981723D02*
X137686304Y-58886485D01*
X137686304Y-58886485D02*
X137781542Y-58838866D01*
X137781542Y-58838866D02*
X138019637Y-58838866D01*
X138019637Y-58838866D02*
X138114875Y-58791247D01*
X138733923Y-59219819D02*
X138638685Y-59172200D01*
X138638685Y-59172200D02*
X138591066Y-59076961D01*
X138591066Y-59076961D02*
X138591066Y-58219819D01*
X139543447Y-58553152D02*
X139543447Y-59219819D01*
X139114876Y-58553152D02*
X139114876Y-59076961D01*
X139114876Y-59076961D02*
X139162495Y-59172200D01*
X139162495Y-59172200D02*
X139257733Y-59219819D01*
X139257733Y-59219819D02*
X139400590Y-59219819D01*
X139400590Y-59219819D02*
X139495828Y-59172200D01*
X139495828Y-59172200D02*
X139543447Y-59124580D01*
X140019638Y-58553152D02*
X140019638Y-59553152D01*
X140019638Y-58600771D02*
X140114876Y-58553152D01*
X140114876Y-58553152D02*
X140305352Y-58553152D01*
X140305352Y-58553152D02*
X140400590Y-58600771D01*
X140400590Y-58600771D02*
X140448209Y-58648390D01*
X140448209Y-58648390D02*
X140495828Y-58743628D01*
X140495828Y-58743628D02*
X140495828Y-59029342D01*
X140495828Y-59029342D02*
X140448209Y-59124580D01*
X140448209Y-59124580D02*
X140400590Y-59172200D01*
X140400590Y-59172200D02*
X140305352Y-59219819D01*
X140305352Y-59219819D02*
X140114876Y-59219819D01*
X140114876Y-59219819D02*
X140019638Y-59172200D01*
X140924400Y-59219819D02*
X140924400Y-58553152D01*
X140924400Y-58219819D02*
X140876781Y-58267438D01*
X140876781Y-58267438D02*
X140924400Y-58315057D01*
X140924400Y-58315057D02*
X140972019Y-58267438D01*
X140972019Y-58267438D02*
X140924400Y-58219819D01*
X140924400Y-58219819D02*
X140924400Y-58315057D01*
X141829161Y-59219819D02*
X141829161Y-58696009D01*
X141829161Y-58696009D02*
X141781542Y-58600771D01*
X141781542Y-58600771D02*
X141686304Y-58553152D01*
X141686304Y-58553152D02*
X141495828Y-58553152D01*
X141495828Y-58553152D02*
X141400590Y-58600771D01*
X141829161Y-59172200D02*
X141733923Y-59219819D01*
X141733923Y-59219819D02*
X141495828Y-59219819D01*
X141495828Y-59219819D02*
X141400590Y-59172200D01*
X141400590Y-59172200D02*
X141352971Y-59076961D01*
X141352971Y-59076961D02*
X141352971Y-58981723D01*
X141352971Y-58981723D02*
X141400590Y-58886485D01*
X141400590Y-58886485D02*
X141495828Y-58838866D01*
X141495828Y-58838866D02*
X141733923Y-58838866D01*
X141733923Y-58838866D02*
X141829161Y-58791247D01*
X142305352Y-59219819D02*
X142305352Y-58219819D01*
X142400590Y-58838866D02*
X142686304Y-59219819D01*
X142686304Y-58553152D02*
X142305352Y-58934104D01*
X130162493Y-59829819D02*
X130162493Y-60544104D01*
X130162493Y-60544104D02*
X130114874Y-60686961D01*
X130114874Y-60686961D02*
X130019636Y-60782200D01*
X130019636Y-60782200D02*
X129876779Y-60829819D01*
X129876779Y-60829819D02*
X129781541Y-60829819D01*
X131067255Y-60829819D02*
X131067255Y-60306009D01*
X131067255Y-60306009D02*
X131019636Y-60210771D01*
X131019636Y-60210771D02*
X130924398Y-60163152D01*
X130924398Y-60163152D02*
X130733922Y-60163152D01*
X130733922Y-60163152D02*
X130638684Y-60210771D01*
X131067255Y-60782200D02*
X130972017Y-60829819D01*
X130972017Y-60829819D02*
X130733922Y-60829819D01*
X130733922Y-60829819D02*
X130638684Y-60782200D01*
X130638684Y-60782200D02*
X130591065Y-60686961D01*
X130591065Y-60686961D02*
X130591065Y-60591723D01*
X130591065Y-60591723D02*
X130638684Y-60496485D01*
X130638684Y-60496485D02*
X130733922Y-60448866D01*
X130733922Y-60448866D02*
X130972017Y-60448866D01*
X130972017Y-60448866D02*
X131067255Y-60401247D01*
X131543446Y-60163152D02*
X131543446Y-60829819D01*
X131543446Y-60258390D02*
X131591065Y-60210771D01*
X131591065Y-60210771D02*
X131686303Y-60163152D01*
X131686303Y-60163152D02*
X131829160Y-60163152D01*
X131829160Y-60163152D02*
X131924398Y-60210771D01*
X131924398Y-60210771D02*
X131972017Y-60306009D01*
X131972017Y-60306009D02*
X131972017Y-60829819D01*
X133162494Y-59925057D02*
X133210113Y-59877438D01*
X133210113Y-59877438D02*
X133305351Y-59829819D01*
X133305351Y-59829819D02*
X133543446Y-59829819D01*
X133543446Y-59829819D02*
X133638684Y-59877438D01*
X133638684Y-59877438D02*
X133686303Y-59925057D01*
X133686303Y-59925057D02*
X133733922Y-60020295D01*
X133733922Y-60020295D02*
X133733922Y-60115533D01*
X133733922Y-60115533D02*
X133686303Y-60258390D01*
X133686303Y-60258390D02*
X133114875Y-60829819D01*
X133114875Y-60829819D02*
X133733922Y-60829819D01*
X134352970Y-59829819D02*
X134448208Y-59829819D01*
X134448208Y-59829819D02*
X134543446Y-59877438D01*
X134543446Y-59877438D02*
X134591065Y-59925057D01*
X134591065Y-59925057D02*
X134638684Y-60020295D01*
X134638684Y-60020295D02*
X134686303Y-60210771D01*
X134686303Y-60210771D02*
X134686303Y-60448866D01*
X134686303Y-60448866D02*
X134638684Y-60639342D01*
X134638684Y-60639342D02*
X134591065Y-60734580D01*
X134591065Y-60734580D02*
X134543446Y-60782200D01*
X134543446Y-60782200D02*
X134448208Y-60829819D01*
X134448208Y-60829819D02*
X134352970Y-60829819D01*
X134352970Y-60829819D02*
X134257732Y-60782200D01*
X134257732Y-60782200D02*
X134210113Y-60734580D01*
X134210113Y-60734580D02*
X134162494Y-60639342D01*
X134162494Y-60639342D02*
X134114875Y-60448866D01*
X134114875Y-60448866D02*
X134114875Y-60210771D01*
X134114875Y-60210771D02*
X134162494Y-60020295D01*
X134162494Y-60020295D02*
X134210113Y-59925057D01*
X134210113Y-59925057D02*
X134257732Y-59877438D01*
X134257732Y-59877438D02*
X134352970Y-59829819D01*
X135067256Y-59925057D02*
X135114875Y-59877438D01*
X135114875Y-59877438D02*
X135210113Y-59829819D01*
X135210113Y-59829819D02*
X135448208Y-59829819D01*
X135448208Y-59829819D02*
X135543446Y-59877438D01*
X135543446Y-59877438D02*
X135591065Y-59925057D01*
X135591065Y-59925057D02*
X135638684Y-60020295D01*
X135638684Y-60020295D02*
X135638684Y-60115533D01*
X135638684Y-60115533D02*
X135591065Y-60258390D01*
X135591065Y-60258390D02*
X135019637Y-60829819D01*
X135019637Y-60829819D02*
X135638684Y-60829819D01*
X136495827Y-60163152D02*
X136495827Y-60829819D01*
X136257732Y-59782200D02*
X136019637Y-60496485D01*
X136019637Y-60496485D02*
X136638684Y-60496485D01*
X141155150Y-79083333D02*
X141869435Y-79083333D01*
X141869435Y-79083333D02*
X142012292Y-79130952D01*
X142012292Y-79130952D02*
X142107531Y-79226190D01*
X142107531Y-79226190D02*
X142155150Y-79369047D01*
X142155150Y-79369047D02*
X142155150Y-79464285D01*
X142155150Y-78083333D02*
X142155150Y-78654761D01*
X142155150Y-78369047D02*
X141155150Y-78369047D01*
X141155150Y-78369047D02*
X141298007Y-78464285D01*
X141298007Y-78464285D02*
X141393245Y-78559523D01*
X141393245Y-78559523D02*
X141440864Y-78654761D01*
X160584819Y-78803002D02*
X161299104Y-78803002D01*
X161299104Y-78803002D02*
X161441961Y-78850621D01*
X161441961Y-78850621D02*
X161537200Y-78945859D01*
X161537200Y-78945859D02*
X161584819Y-79088716D01*
X161584819Y-79088716D02*
X161584819Y-79183954D01*
X160680057Y-78374430D02*
X160632438Y-78326811D01*
X160632438Y-78326811D02*
X160584819Y-78231573D01*
X160584819Y-78231573D02*
X160584819Y-77993478D01*
X160584819Y-77993478D02*
X160632438Y-77898240D01*
X160632438Y-77898240D02*
X160680057Y-77850621D01*
X160680057Y-77850621D02*
X160775295Y-77803002D01*
X160775295Y-77803002D02*
X160870533Y-77803002D01*
X160870533Y-77803002D02*
X161013390Y-77850621D01*
X161013390Y-77850621D02*
X161584819Y-78422049D01*
X161584819Y-78422049D02*
X161584819Y-77803002D01*
X179255150Y-79083333D02*
X179969435Y-79083333D01*
X179969435Y-79083333D02*
X180112292Y-79130952D01*
X180112292Y-79130952D02*
X180207531Y-79226190D01*
X180207531Y-79226190D02*
X180255150Y-79369047D01*
X180255150Y-79369047D02*
X180255150Y-79464285D01*
X179255150Y-78702380D02*
X179255150Y-78083333D01*
X179255150Y-78083333D02*
X179636102Y-78416666D01*
X179636102Y-78416666D02*
X179636102Y-78273809D01*
X179636102Y-78273809D02*
X179683721Y-78178571D01*
X179683721Y-78178571D02*
X179731340Y-78130952D01*
X179731340Y-78130952D02*
X179826578Y-78083333D01*
X179826578Y-78083333D02*
X180064673Y-78083333D01*
X180064673Y-78083333D02*
X180159911Y-78130952D01*
X180159911Y-78130952D02*
X180207531Y-78178571D01*
X180207531Y-78178571D02*
X180255150Y-78273809D01*
X180255150Y-78273809D02*
X180255150Y-78559523D01*
X180255150Y-78559523D02*
X180207531Y-78654761D01*
X180207531Y-78654761D02*
X180159911Y-78702380D01*
D11*
X129140331Y-63265000D02*
X139640331Y-63265000D01*
X140700331Y-64325000D02*
X140700331Y-93175000D01*
X136452075Y-70883530D02*
X131752075Y-71712267D01*
X138400331Y-72518311D02*
X138400331Y-84981689D01*
X130380331Y-73347048D02*
X130380331Y-84152952D01*
X141594669Y-84040000D02*
X141594669Y-84540000D01*
X141161656Y-84290000D02*
X141594669Y-84040000D01*
X141594669Y-84540000D02*
X141161656Y-84290000D01*
X136452075Y-86616470D02*
X131752075Y-85787733D01*
X128080331Y-93175000D02*
X128080331Y-64325000D01*
X139640331Y-94235000D02*
X129140331Y-94235000D01*
X140700331Y-64325000D02*
G75*
G03*
X139640331Y-63265000I-1060001J-1D01*
G01*
X129140331Y-63265000D02*
G75*
G03*
X128080331Y-64325000I1J-1060001D01*
G01*
X138400331Y-72518311D02*
G75*
G03*
X136452075Y-70883530I-1659999J1D01*
G01*
X131752075Y-71712266D02*
G75*
G03*
X130380331Y-73347048I288257J-1634782D01*
G01*
X136452075Y-86616471D02*
G75*
G03*
X138400331Y-84981689I288256J1634781D01*
G01*
X130380332Y-84152952D02*
G75*
G03*
X131752075Y-85787732I1659998J-1D01*
G01*
X139640331Y-94235000D02*
G75*
G03*
X140700331Y-93175000I0J1060000D01*
G01*
X128080331Y-93175000D02*
G75*
G03*
X129140331Y-94235000I1060000J0D01*
G01*
X147510000Y-92894669D02*
G75*
G03*
X148570000Y-93954669I1060000J0D01*
G01*
X159070000Y-93954669D02*
G75*
G03*
X160130000Y-92894669I0J1060000D01*
G01*
X149810001Y-83872621D02*
G75*
G03*
X151181744Y-85507401I1659998J-1D01*
G01*
X155881744Y-86336140D02*
G75*
G03*
X157830000Y-84701358I288256J1634781D01*
G01*
X151181744Y-71431935D02*
G75*
G03*
X149810000Y-73066717I288257J-1634782D01*
G01*
X157830000Y-72237980D02*
G75*
G03*
X155881744Y-70603199I-1659999J1D01*
G01*
X148570000Y-62984669D02*
G75*
G03*
X147510000Y-64044669I1J-1060001D01*
G01*
X160130000Y-64044669D02*
G75*
G03*
X159070000Y-62984669I-1060001J-1D01*
G01*
X159070000Y-93954669D02*
X148570000Y-93954669D01*
X147510000Y-92894669D02*
X147510000Y-64044669D01*
X155881744Y-86336139D02*
X151181744Y-85507402D01*
X161024338Y-84259669D02*
X160591325Y-84009669D01*
X160591325Y-84009669D02*
X161024338Y-83759669D01*
X161024338Y-83759669D02*
X161024338Y-84259669D01*
X149810000Y-73066717D02*
X149810000Y-83872621D01*
X157830000Y-72237980D02*
X157830000Y-84701358D01*
X155881744Y-70603199D02*
X151181744Y-71431936D01*
X160130000Y-64044669D02*
X160130000Y-92894669D01*
X148570000Y-62984669D02*
X159070000Y-62984669D01*
X167240331Y-63265000D02*
X177740331Y-63265000D01*
X178800331Y-64325000D02*
X178800331Y-93175000D01*
X174552075Y-70883530D02*
X169852075Y-71712267D01*
X176500331Y-72518311D02*
X176500331Y-84981689D01*
X168480331Y-73347048D02*
X168480331Y-84152952D01*
X179694669Y-84040000D02*
X179694669Y-84540000D01*
X179261656Y-84290000D02*
X179694669Y-84040000D01*
X179694669Y-84540000D02*
X179261656Y-84290000D01*
X174552075Y-86616470D02*
X169852075Y-85787733D01*
X166180331Y-93175000D02*
X166180331Y-64325000D01*
X177740331Y-94235000D02*
X167240331Y-94235000D01*
X178800331Y-64325000D02*
G75*
G03*
X177740331Y-63265000I-1060001J-1D01*
G01*
X167240331Y-63265000D02*
G75*
G03*
X166180331Y-64325000I1J-1060001D01*
G01*
X176500331Y-72518311D02*
G75*
G03*
X174552075Y-70883530I-1659999J1D01*
G01*
X169852075Y-71712266D02*
G75*
G03*
X168480331Y-73347048I288257J-1634782D01*
G01*
X174552075Y-86616471D02*
G75*
G03*
X176500331Y-84981689I288256J1634781D01*
G01*
X168480332Y-84152952D02*
G75*
G03*
X169852075Y-85787732I1659998J-1D01*
G01*
X177740331Y-94235000D02*
G75*
G03*
X178800331Y-93175000I0J1060000D01*
G01*
X166180331Y-93175000D02*
G75*
G03*
X167240331Y-94235000I1060000J0D01*
G01*
%LPC*%
D12*
X134390331Y-66250000D03*
X134390331Y-91250000D03*
D13*
X135810331Y-84290000D03*
D14*
X135810331Y-81520000D03*
X135810331Y-78750000D03*
X135810331Y-75980000D03*
X135810331Y-73210000D03*
X132970331Y-82905000D03*
X132970331Y-80135000D03*
X132970331Y-77365000D03*
X132970331Y-74595000D03*
X152400000Y-74314669D03*
X152400000Y-77084669D03*
X152400000Y-79854669D03*
X152400000Y-82624669D03*
X155240000Y-72929669D03*
X155240000Y-75699669D03*
X155240000Y-78469669D03*
X155240000Y-81239669D03*
D13*
X155240000Y-84009669D03*
D12*
X153820000Y-90969669D03*
X153820000Y-65969669D03*
D15*
X182880000Y-96520000D03*
X124460000Y-60960000D03*
D12*
X172490331Y-66250000D03*
X172490331Y-91250000D03*
D13*
X173910331Y-84290000D03*
D14*
X173910331Y-81520000D03*
X173910331Y-78750000D03*
X173910331Y-75980000D03*
X173910331Y-73210000D03*
X171070331Y-82905000D03*
X171070331Y-80135000D03*
X171070331Y-77365000D03*
X171070331Y-74595000D03*
D15*
X182880000Y-60960000D03*
X124460000Y-96520000D03*
%LPD*%
M02*
