%TF.GenerationSoftware,KiCad,Pcbnew,7.0.10*%
%TF.CreationDate,2024-01-28T20:05:48-07:00*%
%TF.ProjectId,CANBUS Breakout Board,43414e42-5553-4204-9272-65616b6f7574,rev?*%
%TF.SameCoordinates,Original*%
%TF.FileFunction,Drillmap*%
%TF.FilePolarity,Positive*%
%FSLAX45Y45*%
G04 Gerber Fmt 4.5, Leading zero omitted, Abs format (unit mm)*
G04 Created by KiCad (PCBNEW 7.0.10) date 2024-01-28 20:05:48*
%MOMM*%
%LPD*%
G01*
G04 APERTURE LIST*
%ADD10C,0.100000*%
%ADD11C,0.200000*%
%ADD12C,0.320000*%
G04 APERTURE END LIST*
D10*
X12446000Y-5588000D02*
G75*
G03*
X11938000Y-6096000I0J-508000D01*
G01*
X18288000Y-10160000D02*
G75*
G03*
X18796000Y-9652000I0J508000D01*
G01*
X12446000Y-5588000D02*
X18288000Y-5588000D01*
X18796000Y-6096000D02*
G75*
G03*
X18288000Y-5588000I-508000J0D01*
G01*
X11938000Y-6096000D02*
X11938000Y-9652000D01*
X11938000Y-9652000D02*
G75*
G03*
X12446000Y-10160000I508000J0D01*
G01*
X18796000Y-6096000D02*
X18796000Y-9652000D01*
X12446000Y-10160000D02*
X18288000Y-10160000D01*
D11*
D10*
X13247033Y-7409500D02*
X13347033Y-7509500D01*
X13347033Y-7409500D02*
X13247033Y-7509500D01*
X13247033Y-7686500D02*
X13347033Y-7786500D01*
X13347033Y-7686500D02*
X13247033Y-7786500D01*
X13247033Y-7963500D02*
X13347033Y-8063500D01*
X13347033Y-7963500D02*
X13247033Y-8063500D01*
X13247033Y-8240500D02*
X13347033Y-8340500D01*
X13347033Y-8240500D02*
X13247033Y-8340500D01*
X13531033Y-7271000D02*
X13631033Y-7371000D01*
X13631033Y-7271000D02*
X13531033Y-7371000D01*
X13531033Y-7548000D02*
X13631033Y-7648000D01*
X13631033Y-7548000D02*
X13531033Y-7648000D01*
X13531033Y-7825000D02*
X13631033Y-7925000D01*
X13631033Y-7825000D02*
X13531033Y-7925000D01*
X13531033Y-8102000D02*
X13631033Y-8202000D01*
X13631033Y-8102000D02*
X13531033Y-8202000D01*
X13531033Y-8379000D02*
X13631033Y-8479000D01*
X13631033Y-8379000D02*
X13531033Y-8479000D01*
X15190000Y-7381467D02*
X15290000Y-7481467D01*
X15290000Y-7381467D02*
X15190000Y-7481467D01*
X15190000Y-7658467D02*
X15290000Y-7758467D01*
X15290000Y-7658467D02*
X15190000Y-7758467D01*
X15190000Y-7935467D02*
X15290000Y-8035467D01*
X15290000Y-7935467D02*
X15190000Y-8035467D01*
X15190000Y-8212467D02*
X15290000Y-8312467D01*
X15290000Y-8212467D02*
X15190000Y-8312467D01*
X15474000Y-7242967D02*
X15574000Y-7342967D01*
X15574000Y-7242967D02*
X15474000Y-7342967D01*
X15474000Y-7519967D02*
X15574000Y-7619967D01*
X15574000Y-7519967D02*
X15474000Y-7619967D01*
X15474000Y-7796967D02*
X15574000Y-7896967D01*
X15574000Y-7796967D02*
X15474000Y-7896967D01*
X15474000Y-8073967D02*
X15574000Y-8173967D01*
X15574000Y-8073967D02*
X15474000Y-8173967D01*
X15474000Y-8350967D02*
X15574000Y-8450967D01*
X15574000Y-8350967D02*
X15474000Y-8450967D01*
X17057033Y-7409500D02*
X17157033Y-7509500D01*
X17157033Y-7409500D02*
X17057033Y-7509500D01*
X17057033Y-7686500D02*
X17157033Y-7786500D01*
X17157033Y-7686500D02*
X17057033Y-7786500D01*
X17057033Y-7963500D02*
X17157033Y-8063500D01*
X17157033Y-7963500D02*
X17057033Y-8063500D01*
X17057033Y-8240500D02*
X17157033Y-8340500D01*
X17157033Y-8240500D02*
X17057033Y-8340500D01*
X17341033Y-7271000D02*
X17441033Y-7371000D01*
X17441033Y-7271000D02*
X17341033Y-7371000D01*
X17341033Y-7548000D02*
X17441033Y-7648000D01*
X17441033Y-7548000D02*
X17341033Y-7648000D01*
X17341033Y-7825000D02*
X17441033Y-7925000D01*
X17441033Y-7825000D02*
X17341033Y-7925000D01*
X17341033Y-8102000D02*
X17441033Y-8202000D01*
X17441033Y-8102000D02*
X17341033Y-8202000D01*
X17341033Y-8379000D02*
X17441033Y-8479000D01*
X17441033Y-8379000D02*
X17341033Y-8479000D01*
D12*
X13599033Y-6625000D02*
G75*
G03*
X13279033Y-6625000I-160000J0D01*
G01*
X13279033Y-6625000D02*
G75*
G03*
X13599033Y-6625000I160000J0D01*
G01*
X13599033Y-9125000D02*
G75*
G03*
X13279033Y-9125000I-160000J0D01*
G01*
X13279033Y-9125000D02*
G75*
G03*
X13599033Y-9125000I160000J0D01*
G01*
X15542000Y-6596967D02*
G75*
G03*
X15222000Y-6596967I-160000J0D01*
G01*
X15222000Y-6596967D02*
G75*
G03*
X15542000Y-6596967I160000J0D01*
G01*
X15542000Y-9096967D02*
G75*
G03*
X15222000Y-9096967I-160000J0D01*
G01*
X15222000Y-9096967D02*
G75*
G03*
X15542000Y-9096967I160000J0D01*
G01*
X17409033Y-6625000D02*
G75*
G03*
X17089033Y-6625000I-160000J0D01*
G01*
X17089033Y-6625000D02*
G75*
G03*
X17409033Y-6625000I160000J0D01*
G01*
X17409033Y-9125000D02*
G75*
G03*
X17089033Y-9125000I-160000J0D01*
G01*
X17089033Y-9125000D02*
G75*
G03*
X17409033Y-9125000I160000J0D01*
G01*
D11*
X12193777Y-10476484D02*
X12193777Y-10276484D01*
X12193777Y-10276484D02*
X12241396Y-10276484D01*
X12241396Y-10276484D02*
X12269967Y-10286008D01*
X12269967Y-10286008D02*
X12289015Y-10305055D01*
X12289015Y-10305055D02*
X12298539Y-10324103D01*
X12298539Y-10324103D02*
X12308062Y-10362198D01*
X12308062Y-10362198D02*
X12308062Y-10390770D01*
X12308062Y-10390770D02*
X12298539Y-10428865D01*
X12298539Y-10428865D02*
X12289015Y-10447912D01*
X12289015Y-10447912D02*
X12269967Y-10466960D01*
X12269967Y-10466960D02*
X12241396Y-10476484D01*
X12241396Y-10476484D02*
X12193777Y-10476484D01*
X12393777Y-10476484D02*
X12393777Y-10343150D01*
X12393777Y-10381246D02*
X12403301Y-10362198D01*
X12403301Y-10362198D02*
X12412824Y-10352674D01*
X12412824Y-10352674D02*
X12431872Y-10343150D01*
X12431872Y-10343150D02*
X12450920Y-10343150D01*
X12517586Y-10476484D02*
X12517586Y-10343150D01*
X12517586Y-10276484D02*
X12508062Y-10286008D01*
X12508062Y-10286008D02*
X12517586Y-10295531D01*
X12517586Y-10295531D02*
X12527110Y-10286008D01*
X12527110Y-10286008D02*
X12517586Y-10276484D01*
X12517586Y-10276484D02*
X12517586Y-10295531D01*
X12641396Y-10476484D02*
X12622348Y-10466960D01*
X12622348Y-10466960D02*
X12612824Y-10447912D01*
X12612824Y-10447912D02*
X12612824Y-10276484D01*
X12746158Y-10476484D02*
X12727110Y-10466960D01*
X12727110Y-10466960D02*
X12717586Y-10447912D01*
X12717586Y-10447912D02*
X12717586Y-10276484D01*
X12974729Y-10476484D02*
X12974729Y-10276484D01*
X12974729Y-10276484D02*
X13041396Y-10419341D01*
X13041396Y-10419341D02*
X13108062Y-10276484D01*
X13108062Y-10276484D02*
X13108062Y-10476484D01*
X13289015Y-10476484D02*
X13289015Y-10371722D01*
X13289015Y-10371722D02*
X13279491Y-10352674D01*
X13279491Y-10352674D02*
X13260443Y-10343150D01*
X13260443Y-10343150D02*
X13222348Y-10343150D01*
X13222348Y-10343150D02*
X13203301Y-10352674D01*
X13289015Y-10466960D02*
X13269967Y-10476484D01*
X13269967Y-10476484D02*
X13222348Y-10476484D01*
X13222348Y-10476484D02*
X13203301Y-10466960D01*
X13203301Y-10466960D02*
X13193777Y-10447912D01*
X13193777Y-10447912D02*
X13193777Y-10428865D01*
X13193777Y-10428865D02*
X13203301Y-10409817D01*
X13203301Y-10409817D02*
X13222348Y-10400293D01*
X13222348Y-10400293D02*
X13269967Y-10400293D01*
X13269967Y-10400293D02*
X13289015Y-10390770D01*
X13384253Y-10343150D02*
X13384253Y-10543150D01*
X13384253Y-10352674D02*
X13403301Y-10343150D01*
X13403301Y-10343150D02*
X13441396Y-10343150D01*
X13441396Y-10343150D02*
X13460443Y-10352674D01*
X13460443Y-10352674D02*
X13469967Y-10362198D01*
X13469967Y-10362198D02*
X13479491Y-10381246D01*
X13479491Y-10381246D02*
X13479491Y-10438389D01*
X13479491Y-10438389D02*
X13469967Y-10457436D01*
X13469967Y-10457436D02*
X13460443Y-10466960D01*
X13460443Y-10466960D02*
X13441396Y-10476484D01*
X13441396Y-10476484D02*
X13403301Y-10476484D01*
X13403301Y-10476484D02*
X13384253Y-10466960D01*
X13565205Y-10457436D02*
X13574729Y-10466960D01*
X13574729Y-10466960D02*
X13565205Y-10476484D01*
X13565205Y-10476484D02*
X13555682Y-10466960D01*
X13555682Y-10466960D02*
X13565205Y-10457436D01*
X13565205Y-10457436D02*
X13565205Y-10476484D01*
X13565205Y-10352674D02*
X13574729Y-10362198D01*
X13574729Y-10362198D02*
X13565205Y-10371722D01*
X13565205Y-10371722D02*
X13555682Y-10362198D01*
X13555682Y-10362198D02*
X13565205Y-10352674D01*
X13565205Y-10352674D02*
X13565205Y-10371722D01*
D10*
X11833000Y-10755000D02*
X11933000Y-10855000D01*
X11933000Y-10755000D02*
X11833000Y-10855000D01*
D11*
X12298539Y-10896484D02*
X12184253Y-10896484D01*
X12241396Y-10896484D02*
X12241396Y-10696484D01*
X12241396Y-10696484D02*
X12222348Y-10725055D01*
X12222348Y-10725055D02*
X12203301Y-10744103D01*
X12203301Y-10744103D02*
X12184253Y-10753627D01*
X12384253Y-10877436D02*
X12393777Y-10886960D01*
X12393777Y-10886960D02*
X12384253Y-10896484D01*
X12384253Y-10896484D02*
X12374729Y-10886960D01*
X12374729Y-10886960D02*
X12384253Y-10877436D01*
X12384253Y-10877436D02*
X12384253Y-10896484D01*
X12517586Y-10696484D02*
X12536634Y-10696484D01*
X12536634Y-10696484D02*
X12555682Y-10706008D01*
X12555682Y-10706008D02*
X12565205Y-10715531D01*
X12565205Y-10715531D02*
X12574729Y-10734579D01*
X12574729Y-10734579D02*
X12584253Y-10772674D01*
X12584253Y-10772674D02*
X12584253Y-10820293D01*
X12584253Y-10820293D02*
X12574729Y-10858389D01*
X12574729Y-10858389D02*
X12565205Y-10877436D01*
X12565205Y-10877436D02*
X12555682Y-10886960D01*
X12555682Y-10886960D02*
X12536634Y-10896484D01*
X12536634Y-10896484D02*
X12517586Y-10896484D01*
X12517586Y-10896484D02*
X12498539Y-10886960D01*
X12498539Y-10886960D02*
X12489015Y-10877436D01*
X12489015Y-10877436D02*
X12479491Y-10858389D01*
X12479491Y-10858389D02*
X12469967Y-10820293D01*
X12469967Y-10820293D02*
X12469967Y-10772674D01*
X12469967Y-10772674D02*
X12479491Y-10734579D01*
X12479491Y-10734579D02*
X12489015Y-10715531D01*
X12489015Y-10715531D02*
X12498539Y-10706008D01*
X12498539Y-10706008D02*
X12517586Y-10696484D01*
X12708062Y-10696484D02*
X12727110Y-10696484D01*
X12727110Y-10696484D02*
X12746158Y-10706008D01*
X12746158Y-10706008D02*
X12755682Y-10715531D01*
X12755682Y-10715531D02*
X12765205Y-10734579D01*
X12765205Y-10734579D02*
X12774729Y-10772674D01*
X12774729Y-10772674D02*
X12774729Y-10820293D01*
X12774729Y-10820293D02*
X12765205Y-10858389D01*
X12765205Y-10858389D02*
X12755682Y-10877436D01*
X12755682Y-10877436D02*
X12746158Y-10886960D01*
X12746158Y-10886960D02*
X12727110Y-10896484D01*
X12727110Y-10896484D02*
X12708062Y-10896484D01*
X12708062Y-10896484D02*
X12689015Y-10886960D01*
X12689015Y-10886960D02*
X12679491Y-10877436D01*
X12679491Y-10877436D02*
X12669967Y-10858389D01*
X12669967Y-10858389D02*
X12660443Y-10820293D01*
X12660443Y-10820293D02*
X12660443Y-10772674D01*
X12660443Y-10772674D02*
X12669967Y-10734579D01*
X12669967Y-10734579D02*
X12679491Y-10715531D01*
X12679491Y-10715531D02*
X12689015Y-10706008D01*
X12689015Y-10706008D02*
X12708062Y-10696484D01*
X12898539Y-10696484D02*
X12917586Y-10696484D01*
X12917586Y-10696484D02*
X12936634Y-10706008D01*
X12936634Y-10706008D02*
X12946158Y-10715531D01*
X12946158Y-10715531D02*
X12955682Y-10734579D01*
X12955682Y-10734579D02*
X12965205Y-10772674D01*
X12965205Y-10772674D02*
X12965205Y-10820293D01*
X12965205Y-10820293D02*
X12955682Y-10858389D01*
X12955682Y-10858389D02*
X12946158Y-10877436D01*
X12946158Y-10877436D02*
X12936634Y-10886960D01*
X12936634Y-10886960D02*
X12917586Y-10896484D01*
X12917586Y-10896484D02*
X12898539Y-10896484D01*
X12898539Y-10896484D02*
X12879491Y-10886960D01*
X12879491Y-10886960D02*
X12869967Y-10877436D01*
X12869967Y-10877436D02*
X12860443Y-10858389D01*
X12860443Y-10858389D02*
X12850920Y-10820293D01*
X12850920Y-10820293D02*
X12850920Y-10772674D01*
X12850920Y-10772674D02*
X12860443Y-10734579D01*
X12860443Y-10734579D02*
X12869967Y-10715531D01*
X12869967Y-10715531D02*
X12879491Y-10706008D01*
X12879491Y-10706008D02*
X12898539Y-10696484D01*
X13050920Y-10896484D02*
X13050920Y-10763150D01*
X13050920Y-10782198D02*
X13060443Y-10772674D01*
X13060443Y-10772674D02*
X13079491Y-10763150D01*
X13079491Y-10763150D02*
X13108063Y-10763150D01*
X13108063Y-10763150D02*
X13127110Y-10772674D01*
X13127110Y-10772674D02*
X13136634Y-10791722D01*
X13136634Y-10791722D02*
X13136634Y-10896484D01*
X13136634Y-10791722D02*
X13146158Y-10772674D01*
X13146158Y-10772674D02*
X13165205Y-10763150D01*
X13165205Y-10763150D02*
X13193777Y-10763150D01*
X13193777Y-10763150D02*
X13212824Y-10772674D01*
X13212824Y-10772674D02*
X13222348Y-10791722D01*
X13222348Y-10791722D02*
X13222348Y-10896484D01*
X13317586Y-10896484D02*
X13317586Y-10763150D01*
X13317586Y-10782198D02*
X13327110Y-10772674D01*
X13327110Y-10772674D02*
X13346158Y-10763150D01*
X13346158Y-10763150D02*
X13374729Y-10763150D01*
X13374729Y-10763150D02*
X13393777Y-10772674D01*
X13393777Y-10772674D02*
X13403301Y-10791722D01*
X13403301Y-10791722D02*
X13403301Y-10896484D01*
X13403301Y-10791722D02*
X13412824Y-10772674D01*
X13412824Y-10772674D02*
X13431872Y-10763150D01*
X13431872Y-10763150D02*
X13460443Y-10763150D01*
X13460443Y-10763150D02*
X13479491Y-10772674D01*
X13479491Y-10772674D02*
X13489015Y-10791722D01*
X13489015Y-10791722D02*
X13489015Y-10896484D01*
X13879491Y-10686960D02*
X13708063Y-10944103D01*
X14136634Y-10696484D02*
X14155682Y-10696484D01*
X14155682Y-10696484D02*
X14174729Y-10706008D01*
X14174729Y-10706008D02*
X14184253Y-10715531D01*
X14184253Y-10715531D02*
X14193777Y-10734579D01*
X14193777Y-10734579D02*
X14203301Y-10772674D01*
X14203301Y-10772674D02*
X14203301Y-10820293D01*
X14203301Y-10820293D02*
X14193777Y-10858389D01*
X14193777Y-10858389D02*
X14184253Y-10877436D01*
X14184253Y-10877436D02*
X14174729Y-10886960D01*
X14174729Y-10886960D02*
X14155682Y-10896484D01*
X14155682Y-10896484D02*
X14136634Y-10896484D01*
X14136634Y-10896484D02*
X14117586Y-10886960D01*
X14117586Y-10886960D02*
X14108063Y-10877436D01*
X14108063Y-10877436D02*
X14098539Y-10858389D01*
X14098539Y-10858389D02*
X14089015Y-10820293D01*
X14089015Y-10820293D02*
X14089015Y-10772674D01*
X14089015Y-10772674D02*
X14098539Y-10734579D01*
X14098539Y-10734579D02*
X14108063Y-10715531D01*
X14108063Y-10715531D02*
X14117586Y-10706008D01*
X14117586Y-10706008D02*
X14136634Y-10696484D01*
X14289015Y-10877436D02*
X14298539Y-10886960D01*
X14298539Y-10886960D02*
X14289015Y-10896484D01*
X14289015Y-10896484D02*
X14279491Y-10886960D01*
X14279491Y-10886960D02*
X14289015Y-10877436D01*
X14289015Y-10877436D02*
X14289015Y-10896484D01*
X14422348Y-10696484D02*
X14441396Y-10696484D01*
X14441396Y-10696484D02*
X14460444Y-10706008D01*
X14460444Y-10706008D02*
X14469967Y-10715531D01*
X14469967Y-10715531D02*
X14479491Y-10734579D01*
X14479491Y-10734579D02*
X14489015Y-10772674D01*
X14489015Y-10772674D02*
X14489015Y-10820293D01*
X14489015Y-10820293D02*
X14479491Y-10858389D01*
X14479491Y-10858389D02*
X14469967Y-10877436D01*
X14469967Y-10877436D02*
X14460444Y-10886960D01*
X14460444Y-10886960D02*
X14441396Y-10896484D01*
X14441396Y-10896484D02*
X14422348Y-10896484D01*
X14422348Y-10896484D02*
X14403301Y-10886960D01*
X14403301Y-10886960D02*
X14393777Y-10877436D01*
X14393777Y-10877436D02*
X14384253Y-10858389D01*
X14384253Y-10858389D02*
X14374729Y-10820293D01*
X14374729Y-10820293D02*
X14374729Y-10772674D01*
X14374729Y-10772674D02*
X14384253Y-10734579D01*
X14384253Y-10734579D02*
X14393777Y-10715531D01*
X14393777Y-10715531D02*
X14403301Y-10706008D01*
X14403301Y-10706008D02*
X14422348Y-10696484D01*
X14555682Y-10696484D02*
X14679491Y-10696484D01*
X14679491Y-10696484D02*
X14612825Y-10772674D01*
X14612825Y-10772674D02*
X14641396Y-10772674D01*
X14641396Y-10772674D02*
X14660444Y-10782198D01*
X14660444Y-10782198D02*
X14669967Y-10791722D01*
X14669967Y-10791722D02*
X14679491Y-10810770D01*
X14679491Y-10810770D02*
X14679491Y-10858389D01*
X14679491Y-10858389D02*
X14669967Y-10877436D01*
X14669967Y-10877436D02*
X14660444Y-10886960D01*
X14660444Y-10886960D02*
X14641396Y-10896484D01*
X14641396Y-10896484D02*
X14584253Y-10896484D01*
X14584253Y-10896484D02*
X14565206Y-10886960D01*
X14565206Y-10886960D02*
X14555682Y-10877436D01*
X14774729Y-10896484D02*
X14812825Y-10896484D01*
X14812825Y-10896484D02*
X14831872Y-10886960D01*
X14831872Y-10886960D02*
X14841396Y-10877436D01*
X14841396Y-10877436D02*
X14860444Y-10848865D01*
X14860444Y-10848865D02*
X14869967Y-10810770D01*
X14869967Y-10810770D02*
X14869967Y-10734579D01*
X14869967Y-10734579D02*
X14860444Y-10715531D01*
X14860444Y-10715531D02*
X14850920Y-10706008D01*
X14850920Y-10706008D02*
X14831872Y-10696484D01*
X14831872Y-10696484D02*
X14793777Y-10696484D01*
X14793777Y-10696484D02*
X14774729Y-10706008D01*
X14774729Y-10706008D02*
X14765206Y-10715531D01*
X14765206Y-10715531D02*
X14755682Y-10734579D01*
X14755682Y-10734579D02*
X14755682Y-10782198D01*
X14755682Y-10782198D02*
X14765206Y-10801246D01*
X14765206Y-10801246D02*
X14774729Y-10810770D01*
X14774729Y-10810770D02*
X14793777Y-10820293D01*
X14793777Y-10820293D02*
X14831872Y-10820293D01*
X14831872Y-10820293D02*
X14850920Y-10810770D01*
X14850920Y-10810770D02*
X14860444Y-10801246D01*
X14860444Y-10801246D02*
X14869967Y-10782198D01*
X15041396Y-10763150D02*
X15041396Y-10896484D01*
X14993777Y-10686960D02*
X14946158Y-10829817D01*
X14946158Y-10829817D02*
X15069967Y-10829817D01*
X15136634Y-10696484D02*
X15136634Y-10734579D01*
X15212825Y-10696484D02*
X15212825Y-10734579D01*
X15508063Y-10972674D02*
X15498539Y-10963150D01*
X15498539Y-10963150D02*
X15479491Y-10934579D01*
X15479491Y-10934579D02*
X15469968Y-10915531D01*
X15469968Y-10915531D02*
X15460444Y-10886960D01*
X15460444Y-10886960D02*
X15450920Y-10839341D01*
X15450920Y-10839341D02*
X15450920Y-10801246D01*
X15450920Y-10801246D02*
X15460444Y-10753627D01*
X15460444Y-10753627D02*
X15469968Y-10725055D01*
X15469968Y-10725055D02*
X15479491Y-10706008D01*
X15479491Y-10706008D02*
X15498539Y-10677436D01*
X15498539Y-10677436D02*
X15508063Y-10667912D01*
X15574729Y-10715531D02*
X15584253Y-10706008D01*
X15584253Y-10706008D02*
X15603301Y-10696484D01*
X15603301Y-10696484D02*
X15650920Y-10696484D01*
X15650920Y-10696484D02*
X15669968Y-10706008D01*
X15669968Y-10706008D02*
X15679491Y-10715531D01*
X15679491Y-10715531D02*
X15689015Y-10734579D01*
X15689015Y-10734579D02*
X15689015Y-10753627D01*
X15689015Y-10753627D02*
X15679491Y-10782198D01*
X15679491Y-10782198D02*
X15565206Y-10896484D01*
X15565206Y-10896484D02*
X15689015Y-10896484D01*
X15755682Y-10696484D02*
X15889015Y-10696484D01*
X15889015Y-10696484D02*
X15803301Y-10896484D01*
X16117587Y-10896484D02*
X16117587Y-10696484D01*
X16203301Y-10896484D02*
X16203301Y-10791722D01*
X16203301Y-10791722D02*
X16193777Y-10772674D01*
X16193777Y-10772674D02*
X16174730Y-10763150D01*
X16174730Y-10763150D02*
X16146158Y-10763150D01*
X16146158Y-10763150D02*
X16127110Y-10772674D01*
X16127110Y-10772674D02*
X16117587Y-10782198D01*
X16327110Y-10896484D02*
X16308063Y-10886960D01*
X16308063Y-10886960D02*
X16298539Y-10877436D01*
X16298539Y-10877436D02*
X16289015Y-10858389D01*
X16289015Y-10858389D02*
X16289015Y-10801246D01*
X16289015Y-10801246D02*
X16298539Y-10782198D01*
X16298539Y-10782198D02*
X16308063Y-10772674D01*
X16308063Y-10772674D02*
X16327110Y-10763150D01*
X16327110Y-10763150D02*
X16355682Y-10763150D01*
X16355682Y-10763150D02*
X16374730Y-10772674D01*
X16374730Y-10772674D02*
X16384253Y-10782198D01*
X16384253Y-10782198D02*
X16393777Y-10801246D01*
X16393777Y-10801246D02*
X16393777Y-10858389D01*
X16393777Y-10858389D02*
X16384253Y-10877436D01*
X16384253Y-10877436D02*
X16374730Y-10886960D01*
X16374730Y-10886960D02*
X16355682Y-10896484D01*
X16355682Y-10896484D02*
X16327110Y-10896484D01*
X16508063Y-10896484D02*
X16489015Y-10886960D01*
X16489015Y-10886960D02*
X16479491Y-10867912D01*
X16479491Y-10867912D02*
X16479491Y-10696484D01*
X16660444Y-10886960D02*
X16641396Y-10896484D01*
X16641396Y-10896484D02*
X16603301Y-10896484D01*
X16603301Y-10896484D02*
X16584253Y-10886960D01*
X16584253Y-10886960D02*
X16574730Y-10867912D01*
X16574730Y-10867912D02*
X16574730Y-10791722D01*
X16574730Y-10791722D02*
X16584253Y-10772674D01*
X16584253Y-10772674D02*
X16603301Y-10763150D01*
X16603301Y-10763150D02*
X16641396Y-10763150D01*
X16641396Y-10763150D02*
X16660444Y-10772674D01*
X16660444Y-10772674D02*
X16669968Y-10791722D01*
X16669968Y-10791722D02*
X16669968Y-10810770D01*
X16669968Y-10810770D02*
X16574730Y-10829817D01*
X16746158Y-10886960D02*
X16765206Y-10896484D01*
X16765206Y-10896484D02*
X16803301Y-10896484D01*
X16803301Y-10896484D02*
X16822349Y-10886960D01*
X16822349Y-10886960D02*
X16831873Y-10867912D01*
X16831873Y-10867912D02*
X16831873Y-10858389D01*
X16831873Y-10858389D02*
X16822349Y-10839341D01*
X16822349Y-10839341D02*
X16803301Y-10829817D01*
X16803301Y-10829817D02*
X16774730Y-10829817D01*
X16774730Y-10829817D02*
X16755682Y-10820293D01*
X16755682Y-10820293D02*
X16746158Y-10801246D01*
X16746158Y-10801246D02*
X16746158Y-10791722D01*
X16746158Y-10791722D02*
X16755682Y-10772674D01*
X16755682Y-10772674D02*
X16774730Y-10763150D01*
X16774730Y-10763150D02*
X16803301Y-10763150D01*
X16803301Y-10763150D02*
X16822349Y-10772674D01*
X16898539Y-10972674D02*
X16908063Y-10963150D01*
X16908063Y-10963150D02*
X16927111Y-10934579D01*
X16927111Y-10934579D02*
X16936634Y-10915531D01*
X16936634Y-10915531D02*
X16946158Y-10886960D01*
X16946158Y-10886960D02*
X16955682Y-10839341D01*
X16955682Y-10839341D02*
X16955682Y-10801246D01*
X16955682Y-10801246D02*
X16946158Y-10753627D01*
X16946158Y-10753627D02*
X16936634Y-10725055D01*
X16936634Y-10725055D02*
X16927111Y-10706008D01*
X16927111Y-10706008D02*
X16908063Y-10677436D01*
X16908063Y-10677436D02*
X16898539Y-10667912D01*
X11933000Y-11069000D02*
G75*
G03*
X11733000Y-11069000I-100000J0D01*
G01*
X11733000Y-11069000D02*
G75*
G03*
X11933000Y-11069000I100000J0D01*
G01*
X12174729Y-10960484D02*
X12298539Y-10960484D01*
X12298539Y-10960484D02*
X12231872Y-11036674D01*
X12231872Y-11036674D02*
X12260443Y-11036674D01*
X12260443Y-11036674D02*
X12279491Y-11046198D01*
X12279491Y-11046198D02*
X12289015Y-11055722D01*
X12289015Y-11055722D02*
X12298539Y-11074770D01*
X12298539Y-11074770D02*
X12298539Y-11122389D01*
X12298539Y-11122389D02*
X12289015Y-11141436D01*
X12289015Y-11141436D02*
X12279491Y-11150960D01*
X12279491Y-11150960D02*
X12260443Y-11160484D01*
X12260443Y-11160484D02*
X12203301Y-11160484D01*
X12203301Y-11160484D02*
X12184253Y-11150960D01*
X12184253Y-11150960D02*
X12174729Y-11141436D01*
X12384253Y-11141436D02*
X12393777Y-11150960D01*
X12393777Y-11150960D02*
X12384253Y-11160484D01*
X12384253Y-11160484D02*
X12374729Y-11150960D01*
X12374729Y-11150960D02*
X12384253Y-11141436D01*
X12384253Y-11141436D02*
X12384253Y-11160484D01*
X12469967Y-10979531D02*
X12479491Y-10970008D01*
X12479491Y-10970008D02*
X12498539Y-10960484D01*
X12498539Y-10960484D02*
X12546158Y-10960484D01*
X12546158Y-10960484D02*
X12565205Y-10970008D01*
X12565205Y-10970008D02*
X12574729Y-10979531D01*
X12574729Y-10979531D02*
X12584253Y-10998579D01*
X12584253Y-10998579D02*
X12584253Y-11017627D01*
X12584253Y-11017627D02*
X12574729Y-11046198D01*
X12574729Y-11046198D02*
X12460443Y-11160484D01*
X12460443Y-11160484D02*
X12584253Y-11160484D01*
X12708062Y-10960484D02*
X12727110Y-10960484D01*
X12727110Y-10960484D02*
X12746158Y-10970008D01*
X12746158Y-10970008D02*
X12755682Y-10979531D01*
X12755682Y-10979531D02*
X12765205Y-10998579D01*
X12765205Y-10998579D02*
X12774729Y-11036674D01*
X12774729Y-11036674D02*
X12774729Y-11084293D01*
X12774729Y-11084293D02*
X12765205Y-11122389D01*
X12765205Y-11122389D02*
X12755682Y-11141436D01*
X12755682Y-11141436D02*
X12746158Y-11150960D01*
X12746158Y-11150960D02*
X12727110Y-11160484D01*
X12727110Y-11160484D02*
X12708062Y-11160484D01*
X12708062Y-11160484D02*
X12689015Y-11150960D01*
X12689015Y-11150960D02*
X12679491Y-11141436D01*
X12679491Y-11141436D02*
X12669967Y-11122389D01*
X12669967Y-11122389D02*
X12660443Y-11084293D01*
X12660443Y-11084293D02*
X12660443Y-11036674D01*
X12660443Y-11036674D02*
X12669967Y-10998579D01*
X12669967Y-10998579D02*
X12679491Y-10979531D01*
X12679491Y-10979531D02*
X12689015Y-10970008D01*
X12689015Y-10970008D02*
X12708062Y-10960484D01*
X12898539Y-10960484D02*
X12917586Y-10960484D01*
X12917586Y-10960484D02*
X12936634Y-10970008D01*
X12936634Y-10970008D02*
X12946158Y-10979531D01*
X12946158Y-10979531D02*
X12955682Y-10998579D01*
X12955682Y-10998579D02*
X12965205Y-11036674D01*
X12965205Y-11036674D02*
X12965205Y-11084293D01*
X12965205Y-11084293D02*
X12955682Y-11122389D01*
X12955682Y-11122389D02*
X12946158Y-11141436D01*
X12946158Y-11141436D02*
X12936634Y-11150960D01*
X12936634Y-11150960D02*
X12917586Y-11160484D01*
X12917586Y-11160484D02*
X12898539Y-11160484D01*
X12898539Y-11160484D02*
X12879491Y-11150960D01*
X12879491Y-11150960D02*
X12869967Y-11141436D01*
X12869967Y-11141436D02*
X12860443Y-11122389D01*
X12860443Y-11122389D02*
X12850920Y-11084293D01*
X12850920Y-11084293D02*
X12850920Y-11036674D01*
X12850920Y-11036674D02*
X12860443Y-10998579D01*
X12860443Y-10998579D02*
X12869967Y-10979531D01*
X12869967Y-10979531D02*
X12879491Y-10970008D01*
X12879491Y-10970008D02*
X12898539Y-10960484D01*
X13050920Y-11160484D02*
X13050920Y-11027150D01*
X13050920Y-11046198D02*
X13060443Y-11036674D01*
X13060443Y-11036674D02*
X13079491Y-11027150D01*
X13079491Y-11027150D02*
X13108063Y-11027150D01*
X13108063Y-11027150D02*
X13127110Y-11036674D01*
X13127110Y-11036674D02*
X13136634Y-11055722D01*
X13136634Y-11055722D02*
X13136634Y-11160484D01*
X13136634Y-11055722D02*
X13146158Y-11036674D01*
X13146158Y-11036674D02*
X13165205Y-11027150D01*
X13165205Y-11027150D02*
X13193777Y-11027150D01*
X13193777Y-11027150D02*
X13212824Y-11036674D01*
X13212824Y-11036674D02*
X13222348Y-11055722D01*
X13222348Y-11055722D02*
X13222348Y-11160484D01*
X13317586Y-11160484D02*
X13317586Y-11027150D01*
X13317586Y-11046198D02*
X13327110Y-11036674D01*
X13327110Y-11036674D02*
X13346158Y-11027150D01*
X13346158Y-11027150D02*
X13374729Y-11027150D01*
X13374729Y-11027150D02*
X13393777Y-11036674D01*
X13393777Y-11036674D02*
X13403301Y-11055722D01*
X13403301Y-11055722D02*
X13403301Y-11160484D01*
X13403301Y-11055722D02*
X13412824Y-11036674D01*
X13412824Y-11036674D02*
X13431872Y-11027150D01*
X13431872Y-11027150D02*
X13460443Y-11027150D01*
X13460443Y-11027150D02*
X13479491Y-11036674D01*
X13479491Y-11036674D02*
X13489015Y-11055722D01*
X13489015Y-11055722D02*
X13489015Y-11160484D01*
X13879491Y-10950960D02*
X13708063Y-11208103D01*
X14136634Y-10960484D02*
X14155682Y-10960484D01*
X14155682Y-10960484D02*
X14174729Y-10970008D01*
X14174729Y-10970008D02*
X14184253Y-10979531D01*
X14184253Y-10979531D02*
X14193777Y-10998579D01*
X14193777Y-10998579D02*
X14203301Y-11036674D01*
X14203301Y-11036674D02*
X14203301Y-11084293D01*
X14203301Y-11084293D02*
X14193777Y-11122389D01*
X14193777Y-11122389D02*
X14184253Y-11141436D01*
X14184253Y-11141436D02*
X14174729Y-11150960D01*
X14174729Y-11150960D02*
X14155682Y-11160484D01*
X14155682Y-11160484D02*
X14136634Y-11160484D01*
X14136634Y-11160484D02*
X14117586Y-11150960D01*
X14117586Y-11150960D02*
X14108063Y-11141436D01*
X14108063Y-11141436D02*
X14098539Y-11122389D01*
X14098539Y-11122389D02*
X14089015Y-11084293D01*
X14089015Y-11084293D02*
X14089015Y-11036674D01*
X14089015Y-11036674D02*
X14098539Y-10998579D01*
X14098539Y-10998579D02*
X14108063Y-10979531D01*
X14108063Y-10979531D02*
X14117586Y-10970008D01*
X14117586Y-10970008D02*
X14136634Y-10960484D01*
X14289015Y-11141436D02*
X14298539Y-11150960D01*
X14298539Y-11150960D02*
X14289015Y-11160484D01*
X14289015Y-11160484D02*
X14279491Y-11150960D01*
X14279491Y-11150960D02*
X14289015Y-11141436D01*
X14289015Y-11141436D02*
X14289015Y-11160484D01*
X14489015Y-11160484D02*
X14374729Y-11160484D01*
X14431872Y-11160484D02*
X14431872Y-10960484D01*
X14431872Y-10960484D02*
X14412825Y-10989055D01*
X14412825Y-10989055D02*
X14393777Y-11008103D01*
X14393777Y-11008103D02*
X14374729Y-11017627D01*
X14565206Y-10979531D02*
X14574729Y-10970008D01*
X14574729Y-10970008D02*
X14593777Y-10960484D01*
X14593777Y-10960484D02*
X14641396Y-10960484D01*
X14641396Y-10960484D02*
X14660444Y-10970008D01*
X14660444Y-10970008D02*
X14669967Y-10979531D01*
X14669967Y-10979531D02*
X14679491Y-10998579D01*
X14679491Y-10998579D02*
X14679491Y-11017627D01*
X14679491Y-11017627D02*
X14669967Y-11046198D01*
X14669967Y-11046198D02*
X14555682Y-11160484D01*
X14555682Y-11160484D02*
X14679491Y-11160484D01*
X14850920Y-10960484D02*
X14812825Y-10960484D01*
X14812825Y-10960484D02*
X14793777Y-10970008D01*
X14793777Y-10970008D02*
X14784253Y-10979531D01*
X14784253Y-10979531D02*
X14765206Y-11008103D01*
X14765206Y-11008103D02*
X14755682Y-11046198D01*
X14755682Y-11046198D02*
X14755682Y-11122389D01*
X14755682Y-11122389D02*
X14765206Y-11141436D01*
X14765206Y-11141436D02*
X14774729Y-11150960D01*
X14774729Y-11150960D02*
X14793777Y-11160484D01*
X14793777Y-11160484D02*
X14831872Y-11160484D01*
X14831872Y-11160484D02*
X14850920Y-11150960D01*
X14850920Y-11150960D02*
X14860444Y-11141436D01*
X14860444Y-11141436D02*
X14869967Y-11122389D01*
X14869967Y-11122389D02*
X14869967Y-11074770D01*
X14869967Y-11074770D02*
X14860444Y-11055722D01*
X14860444Y-11055722D02*
X14850920Y-11046198D01*
X14850920Y-11046198D02*
X14831872Y-11036674D01*
X14831872Y-11036674D02*
X14793777Y-11036674D01*
X14793777Y-11036674D02*
X14774729Y-11046198D01*
X14774729Y-11046198D02*
X14765206Y-11055722D01*
X14765206Y-11055722D02*
X14755682Y-11074770D01*
X14993777Y-10960484D02*
X15012825Y-10960484D01*
X15012825Y-10960484D02*
X15031872Y-10970008D01*
X15031872Y-10970008D02*
X15041396Y-10979531D01*
X15041396Y-10979531D02*
X15050920Y-10998579D01*
X15050920Y-10998579D02*
X15060444Y-11036674D01*
X15060444Y-11036674D02*
X15060444Y-11084293D01*
X15060444Y-11084293D02*
X15050920Y-11122389D01*
X15050920Y-11122389D02*
X15041396Y-11141436D01*
X15041396Y-11141436D02*
X15031872Y-11150960D01*
X15031872Y-11150960D02*
X15012825Y-11160484D01*
X15012825Y-11160484D02*
X14993777Y-11160484D01*
X14993777Y-11160484D02*
X14974729Y-11150960D01*
X14974729Y-11150960D02*
X14965206Y-11141436D01*
X14965206Y-11141436D02*
X14955682Y-11122389D01*
X14955682Y-11122389D02*
X14946158Y-11084293D01*
X14946158Y-11084293D02*
X14946158Y-11036674D01*
X14946158Y-11036674D02*
X14955682Y-10998579D01*
X14955682Y-10998579D02*
X14965206Y-10979531D01*
X14965206Y-10979531D02*
X14974729Y-10970008D01*
X14974729Y-10970008D02*
X14993777Y-10960484D01*
X15136634Y-10960484D02*
X15136634Y-10998579D01*
X15212825Y-10960484D02*
X15212825Y-10998579D01*
X15508063Y-11236674D02*
X15498539Y-11227150D01*
X15498539Y-11227150D02*
X15479491Y-11198579D01*
X15479491Y-11198579D02*
X15469968Y-11179531D01*
X15469968Y-11179531D02*
X15460444Y-11150960D01*
X15460444Y-11150960D02*
X15450920Y-11103341D01*
X15450920Y-11103341D02*
X15450920Y-11065246D01*
X15450920Y-11065246D02*
X15460444Y-11017627D01*
X15460444Y-11017627D02*
X15469968Y-10989055D01*
X15469968Y-10989055D02*
X15479491Y-10970008D01*
X15479491Y-10970008D02*
X15498539Y-10941436D01*
X15498539Y-10941436D02*
X15508063Y-10931912D01*
X15669968Y-10960484D02*
X15631872Y-10960484D01*
X15631872Y-10960484D02*
X15612825Y-10970008D01*
X15612825Y-10970008D02*
X15603301Y-10979531D01*
X15603301Y-10979531D02*
X15584253Y-11008103D01*
X15584253Y-11008103D02*
X15574729Y-11046198D01*
X15574729Y-11046198D02*
X15574729Y-11122389D01*
X15574729Y-11122389D02*
X15584253Y-11141436D01*
X15584253Y-11141436D02*
X15593777Y-11150960D01*
X15593777Y-11150960D02*
X15612825Y-11160484D01*
X15612825Y-11160484D02*
X15650920Y-11160484D01*
X15650920Y-11160484D02*
X15669968Y-11150960D01*
X15669968Y-11150960D02*
X15679491Y-11141436D01*
X15679491Y-11141436D02*
X15689015Y-11122389D01*
X15689015Y-11122389D02*
X15689015Y-11074770D01*
X15689015Y-11074770D02*
X15679491Y-11055722D01*
X15679491Y-11055722D02*
X15669968Y-11046198D01*
X15669968Y-11046198D02*
X15650920Y-11036674D01*
X15650920Y-11036674D02*
X15612825Y-11036674D01*
X15612825Y-11036674D02*
X15593777Y-11046198D01*
X15593777Y-11046198D02*
X15584253Y-11055722D01*
X15584253Y-11055722D02*
X15574729Y-11074770D01*
X15927110Y-11160484D02*
X15927110Y-10960484D01*
X16012825Y-11160484D02*
X16012825Y-11055722D01*
X16012825Y-11055722D02*
X16003301Y-11036674D01*
X16003301Y-11036674D02*
X15984253Y-11027150D01*
X15984253Y-11027150D02*
X15955682Y-11027150D01*
X15955682Y-11027150D02*
X15936634Y-11036674D01*
X15936634Y-11036674D02*
X15927110Y-11046198D01*
X16136634Y-11160484D02*
X16117587Y-11150960D01*
X16117587Y-11150960D02*
X16108063Y-11141436D01*
X16108063Y-11141436D02*
X16098539Y-11122389D01*
X16098539Y-11122389D02*
X16098539Y-11065246D01*
X16098539Y-11065246D02*
X16108063Y-11046198D01*
X16108063Y-11046198D02*
X16117587Y-11036674D01*
X16117587Y-11036674D02*
X16136634Y-11027150D01*
X16136634Y-11027150D02*
X16165206Y-11027150D01*
X16165206Y-11027150D02*
X16184253Y-11036674D01*
X16184253Y-11036674D02*
X16193777Y-11046198D01*
X16193777Y-11046198D02*
X16203301Y-11065246D01*
X16203301Y-11065246D02*
X16203301Y-11122389D01*
X16203301Y-11122389D02*
X16193777Y-11141436D01*
X16193777Y-11141436D02*
X16184253Y-11150960D01*
X16184253Y-11150960D02*
X16165206Y-11160484D01*
X16165206Y-11160484D02*
X16136634Y-11160484D01*
X16317587Y-11160484D02*
X16298539Y-11150960D01*
X16298539Y-11150960D02*
X16289015Y-11131912D01*
X16289015Y-11131912D02*
X16289015Y-10960484D01*
X16469968Y-11150960D02*
X16450920Y-11160484D01*
X16450920Y-11160484D02*
X16412825Y-11160484D01*
X16412825Y-11160484D02*
X16393777Y-11150960D01*
X16393777Y-11150960D02*
X16384253Y-11131912D01*
X16384253Y-11131912D02*
X16384253Y-11055722D01*
X16384253Y-11055722D02*
X16393777Y-11036674D01*
X16393777Y-11036674D02*
X16412825Y-11027150D01*
X16412825Y-11027150D02*
X16450920Y-11027150D01*
X16450920Y-11027150D02*
X16469968Y-11036674D01*
X16469968Y-11036674D02*
X16479491Y-11055722D01*
X16479491Y-11055722D02*
X16479491Y-11074770D01*
X16479491Y-11074770D02*
X16384253Y-11093817D01*
X16555682Y-11150960D02*
X16574730Y-11160484D01*
X16574730Y-11160484D02*
X16612825Y-11160484D01*
X16612825Y-11160484D02*
X16631872Y-11150960D01*
X16631872Y-11150960D02*
X16641396Y-11131912D01*
X16641396Y-11131912D02*
X16641396Y-11122389D01*
X16641396Y-11122389D02*
X16631872Y-11103341D01*
X16631872Y-11103341D02*
X16612825Y-11093817D01*
X16612825Y-11093817D02*
X16584253Y-11093817D01*
X16584253Y-11093817D02*
X16565206Y-11084293D01*
X16565206Y-11084293D02*
X16555682Y-11065246D01*
X16555682Y-11065246D02*
X16555682Y-11055722D01*
X16555682Y-11055722D02*
X16565206Y-11036674D01*
X16565206Y-11036674D02*
X16584253Y-11027150D01*
X16584253Y-11027150D02*
X16612825Y-11027150D01*
X16612825Y-11027150D02*
X16631872Y-11036674D01*
X16708063Y-11236674D02*
X16717587Y-11227150D01*
X16717587Y-11227150D02*
X16736634Y-11198579D01*
X16736634Y-11198579D02*
X16746158Y-11179531D01*
X16746158Y-11179531D02*
X16755682Y-11150960D01*
X16755682Y-11150960D02*
X16765206Y-11103341D01*
X16765206Y-11103341D02*
X16765206Y-11065246D01*
X16765206Y-11065246D02*
X16755682Y-11017627D01*
X16755682Y-11017627D02*
X16746158Y-10989055D01*
X16746158Y-10989055D02*
X16736634Y-10970008D01*
X16736634Y-10970008D02*
X16717587Y-10941436D01*
X16717587Y-10941436D02*
X16708063Y-10931912D01*
M02*
