M48
; DRILL file {KiCad 7.0.10} date Sun Jan 28 20:05:20 2024
; FORMAT={-:-/ absolute / metric / decimal}
; #@! TF.CreationDate,2024-01-28T20:05:20-07:00
; #@! TF.GenerationSoftware,Kicad,Pcbnew,7.0.10
; #@! TF.FileFunction,Plated,1,2,PTH
FMAT,2
METRIC
; #@! TA.AperFunction,Plated,PTH,ComponentDrill
T1C1.000
; #@! TA.AperFunction,Plated,PTH,ComponentDrill
T2C3.200
%
G90
G05
T1
X132.97Y-74.595
X132.97Y-77.365
X132.97Y-80.135
X132.97Y-82.905
X135.81Y-73.21
X135.81Y-75.98
X135.81Y-78.75
X135.81Y-81.52
X135.81Y-84.29
X152.4Y-74.315
X152.4Y-77.085
X152.4Y-79.855
X152.4Y-82.625
X155.24Y-72.93
X155.24Y-75.7
X155.24Y-78.47
X155.24Y-81.24
X155.24Y-84.01
X171.07Y-74.595
X171.07Y-77.365
X171.07Y-80.135
X171.07Y-82.905
X173.91Y-73.21
X173.91Y-75.98
X173.91Y-78.75
X173.91Y-81.52
X173.91Y-84.29
T2
X134.39Y-66.25
X134.39Y-91.25
X153.82Y-65.97
X153.82Y-90.97
X172.49Y-66.25
X172.49Y-91.25
M30
