G04 #@! TF.GenerationSoftware,KiCad,Pcbnew,7.0.10*
G04 #@! TF.CreationDate,2024-01-28T20:04:37-07:00*
G04 #@! TF.ProjectId,CANBUS Breakout Board,43414e42-5553-4204-9272-65616b6f7574,rev?*
G04 #@! TF.SameCoordinates,Original*
G04 #@! TF.FileFunction,Copper,L2,Bot*
G04 #@! TF.FilePolarity,Positive*
%FSLAX46Y46*%
G04 Gerber Fmt 4.6, Leading zero omitted, Abs format (unit mm)*
G04 Created by KiCad (PCBNEW 7.0.10) date 2024-01-28 20:04:37*
%MOMM*%
%LPD*%
G01*
G04 APERTURE LIST*
G04 #@! TA.AperFunction,ComponentPad*
%ADD10C,4.000000*%
G04 #@! TD*
G04 #@! TA.AperFunction,ComponentPad*
%ADD11R,1.600000X1.600000*%
G04 #@! TD*
G04 #@! TA.AperFunction,ComponentPad*
%ADD12C,1.600000*%
G04 #@! TD*
G04 #@! TA.AperFunction,Conductor*
%ADD13C,0.250000*%
G04 #@! TD*
G04 #@! TA.AperFunction,Conductor*
%ADD14C,0.200000*%
G04 #@! TD*
G04 APERTURE END LIST*
D10*
X134390331Y-66250000D03*
X134390331Y-91250000D03*
D11*
X135810331Y-84290000D03*
D12*
X135810331Y-81520000D03*
X135810331Y-78750000D03*
X135810331Y-75980000D03*
X135810331Y-73210000D03*
X132970331Y-82905000D03*
X132970331Y-80135000D03*
X132970331Y-77365000D03*
X132970331Y-74595000D03*
X152400000Y-74314669D03*
X152400000Y-77084669D03*
X152400000Y-79854669D03*
X152400000Y-82624669D03*
X155240000Y-72929669D03*
X155240000Y-75699669D03*
X155240000Y-78469669D03*
X155240000Y-81239669D03*
D11*
X155240000Y-84009669D03*
D10*
X153820000Y-90969669D03*
X153820000Y-65969669D03*
X172490331Y-66250000D03*
X172490331Y-91250000D03*
D11*
X173910331Y-84290000D03*
D12*
X173910331Y-81520000D03*
X173910331Y-78750000D03*
X173910331Y-75980000D03*
X173910331Y-73210000D03*
X171070331Y-82905000D03*
X171070331Y-80135000D03*
X171070331Y-77365000D03*
X171070331Y-74595000D03*
D13*
X170790000Y-79854669D02*
X171070331Y-80135000D01*
X152119669Y-80135000D02*
X152400000Y-79854669D01*
D14*
X170790000Y-74314669D02*
X171070331Y-74595000D01*
X152119669Y-74595000D02*
X152400000Y-74314669D01*
G04 #@! TA.AperFunction,Conductor*
G36*
X182882562Y-55880605D02*
G01*
X183097373Y-55889490D01*
X183300249Y-55898348D01*
X183310120Y-55899177D01*
X183525510Y-55926026D01*
X183525963Y-55926084D01*
X183728504Y-55952749D01*
X183737718Y-55954319D01*
X183949797Y-55998787D01*
X183950827Y-55999009D01*
X184150566Y-56043290D01*
X184159092Y-56045502D01*
X184296957Y-56086546D01*
X184366503Y-56107251D01*
X184368407Y-56107835D01*
X184419925Y-56124078D01*
X184563404Y-56169316D01*
X184571119Y-56172034D01*
X184772754Y-56250712D01*
X184775027Y-56251626D01*
X184963987Y-56329896D01*
X184970965Y-56333043D01*
X185165405Y-56428098D01*
X185168080Y-56429449D01*
X185258300Y-56476415D01*
X185349482Y-56523882D01*
X185355698Y-56527348D01*
X185541533Y-56638081D01*
X185544685Y-56640024D01*
X185717116Y-56749875D01*
X185722545Y-56753538D01*
X185898570Y-56879218D01*
X185902002Y-56881759D01*
X186064219Y-57006232D01*
X186068874Y-57009985D01*
X186233920Y-57149771D01*
X186237552Y-57152972D01*
X186388327Y-57291132D01*
X186392235Y-57294873D01*
X186545125Y-57447763D01*
X186548866Y-57451671D01*
X186687026Y-57602446D01*
X186690227Y-57606078D01*
X186830013Y-57771124D01*
X186833766Y-57775779D01*
X186958239Y-57937996D01*
X186960780Y-57941428D01*
X187086460Y-58117453D01*
X187090123Y-58122882D01*
X187199974Y-58295313D01*
X187201917Y-58298465D01*
X187312650Y-58484300D01*
X187316116Y-58490516D01*
X187410534Y-58671889D01*
X187411946Y-58674686D01*
X187506942Y-58869004D01*
X187510102Y-58876011D01*
X187588351Y-59064920D01*
X187589307Y-59067298D01*
X187667949Y-59268838D01*
X187670693Y-59276627D01*
X187732163Y-59471591D01*
X187732747Y-59473495D01*
X187794494Y-59680898D01*
X187796710Y-59689441D01*
X187840949Y-59888987D01*
X187841249Y-59890380D01*
X187885675Y-60102260D01*
X187887253Y-60111521D01*
X187913887Y-60313829D01*
X187913996Y-60314676D01*
X187940818Y-60529849D01*
X187941652Y-60539778D01*
X187950512Y-60742701D01*
X187950524Y-60742986D01*
X187959394Y-60957438D01*
X187959500Y-60962562D01*
X187959500Y-96517437D01*
X187959394Y-96522561D01*
X187950524Y-96737013D01*
X187950512Y-96737298D01*
X187941652Y-96940220D01*
X187940818Y-96950149D01*
X187913996Y-97165322D01*
X187913887Y-97166169D01*
X187887253Y-97368477D01*
X187885675Y-97377738D01*
X187841249Y-97589618D01*
X187840949Y-97591011D01*
X187796710Y-97790557D01*
X187794494Y-97799100D01*
X187732747Y-98006503D01*
X187732163Y-98008407D01*
X187670693Y-98203371D01*
X187667949Y-98211160D01*
X187589307Y-98412700D01*
X187588351Y-98415078D01*
X187510102Y-98603987D01*
X187506942Y-98610994D01*
X187411946Y-98805312D01*
X187410534Y-98808109D01*
X187316116Y-98989482D01*
X187312650Y-98995698D01*
X187201917Y-99181533D01*
X187199974Y-99184685D01*
X187090123Y-99357116D01*
X187086460Y-99362545D01*
X186960780Y-99538570D01*
X186958239Y-99542002D01*
X186833766Y-99704219D01*
X186830013Y-99708874D01*
X186690227Y-99873920D01*
X186687026Y-99877552D01*
X186548866Y-100028327D01*
X186545125Y-100032235D01*
X186392235Y-100185125D01*
X186388327Y-100188866D01*
X186237552Y-100327026D01*
X186233920Y-100330227D01*
X186068874Y-100470013D01*
X186064219Y-100473766D01*
X185902002Y-100598239D01*
X185898570Y-100600780D01*
X185722545Y-100726460D01*
X185717116Y-100730123D01*
X185544685Y-100839974D01*
X185541533Y-100841917D01*
X185355698Y-100952650D01*
X185349482Y-100956116D01*
X185168109Y-101050534D01*
X185165312Y-101051946D01*
X184970994Y-101146942D01*
X184963987Y-101150102D01*
X184775078Y-101228351D01*
X184772700Y-101229307D01*
X184571160Y-101307949D01*
X184563371Y-101310693D01*
X184368407Y-101372163D01*
X184366503Y-101372747D01*
X184159100Y-101434494D01*
X184150557Y-101436710D01*
X183951011Y-101480949D01*
X183949618Y-101481249D01*
X183737738Y-101525675D01*
X183728477Y-101527253D01*
X183526169Y-101553887D01*
X183525322Y-101553996D01*
X183310149Y-101580818D01*
X183300220Y-101581652D01*
X183097408Y-101590507D01*
X183097124Y-101590519D01*
X182882563Y-101599394D01*
X182877438Y-101599500D01*
X124462562Y-101599500D01*
X124457437Y-101599394D01*
X124242874Y-101590519D01*
X124242590Y-101590507D01*
X124039778Y-101581652D01*
X124029849Y-101580818D01*
X123814676Y-101553996D01*
X123813829Y-101553887D01*
X123611521Y-101527253D01*
X123602260Y-101525675D01*
X123390380Y-101481249D01*
X123388987Y-101480949D01*
X123189441Y-101436710D01*
X123180898Y-101434494D01*
X122973495Y-101372747D01*
X122971591Y-101372163D01*
X122776627Y-101310693D01*
X122768845Y-101307951D01*
X122638255Y-101256995D01*
X122567298Y-101229307D01*
X122564920Y-101228351D01*
X122376011Y-101150102D01*
X122369004Y-101146942D01*
X122174657Y-101051931D01*
X122171889Y-101050534D01*
X121990516Y-100956116D01*
X121984300Y-100952650D01*
X121798465Y-100841917D01*
X121795313Y-100839974D01*
X121622882Y-100730123D01*
X121617453Y-100726460D01*
X121441428Y-100600780D01*
X121437996Y-100598239D01*
X121275779Y-100473766D01*
X121271124Y-100470013D01*
X121106078Y-100330227D01*
X121102446Y-100327026D01*
X120951671Y-100188866D01*
X120947763Y-100185125D01*
X120794873Y-100032235D01*
X120791132Y-100028327D01*
X120652972Y-99877552D01*
X120649771Y-99873920D01*
X120509985Y-99708874D01*
X120506232Y-99704219D01*
X120381759Y-99542002D01*
X120379218Y-99538570D01*
X120253538Y-99362545D01*
X120249875Y-99357116D01*
X120140024Y-99184685D01*
X120138081Y-99181533D01*
X120027348Y-98995698D01*
X120023882Y-98989482D01*
X119929464Y-98808109D01*
X119928098Y-98805404D01*
X119833043Y-98610965D01*
X119829896Y-98603987D01*
X119751626Y-98415027D01*
X119750712Y-98412754D01*
X119672034Y-98211119D01*
X119669316Y-98203404D01*
X119607835Y-98008407D01*
X119607251Y-98006503D01*
X119562165Y-97855063D01*
X119545502Y-97799092D01*
X119543288Y-97790557D01*
X119499009Y-97590827D01*
X119498787Y-97589797D01*
X119454319Y-97377718D01*
X119452749Y-97368504D01*
X119426084Y-97165963D01*
X119426026Y-97165510D01*
X119399177Y-96950120D01*
X119398348Y-96940249D01*
X119389487Y-96737298D01*
X119380606Y-96522561D01*
X119380553Y-96520000D01*
X123104341Y-96520000D01*
X123124936Y-96755403D01*
X123124938Y-96755413D01*
X123186094Y-96983655D01*
X123186096Y-96983659D01*
X123186097Y-96983663D01*
X123236031Y-97090746D01*
X123285964Y-97197828D01*
X123285965Y-97197830D01*
X123421505Y-97391402D01*
X123588597Y-97558494D01*
X123782169Y-97694034D01*
X123782171Y-97694035D01*
X123996337Y-97793903D01*
X123996343Y-97793904D01*
X123996344Y-97793905D01*
X124051285Y-97808626D01*
X124224592Y-97855063D01*
X124401032Y-97870499D01*
X124401033Y-97870500D01*
X124401034Y-97870500D01*
X124518967Y-97870500D01*
X124518967Y-97870499D01*
X124695408Y-97855063D01*
X124923663Y-97793903D01*
X125137829Y-97694035D01*
X125331401Y-97558495D01*
X125498495Y-97391401D01*
X125634035Y-97197830D01*
X125733903Y-96983663D01*
X125795063Y-96755408D01*
X125815659Y-96520000D01*
X181524341Y-96520000D01*
X181544936Y-96755403D01*
X181544938Y-96755413D01*
X181606094Y-96983655D01*
X181606096Y-96983659D01*
X181606097Y-96983663D01*
X181656031Y-97090746D01*
X181705964Y-97197828D01*
X181705965Y-97197830D01*
X181841505Y-97391402D01*
X182008597Y-97558494D01*
X182202169Y-97694034D01*
X182202171Y-97694035D01*
X182416337Y-97793903D01*
X182416343Y-97793904D01*
X182416344Y-97793905D01*
X182471285Y-97808626D01*
X182644592Y-97855063D01*
X182821032Y-97870499D01*
X182821033Y-97870500D01*
X182821034Y-97870500D01*
X182938967Y-97870500D01*
X182938967Y-97870499D01*
X183115408Y-97855063D01*
X183343663Y-97793903D01*
X183557829Y-97694035D01*
X183751401Y-97558495D01*
X183918495Y-97391401D01*
X184054035Y-97197830D01*
X184153903Y-96983663D01*
X184215063Y-96755408D01*
X184235659Y-96520000D01*
X184215063Y-96284592D01*
X184153903Y-96056337D01*
X184054035Y-95842171D01*
X184054034Y-95842169D01*
X183918494Y-95648597D01*
X183751402Y-95481505D01*
X183557830Y-95345965D01*
X183557828Y-95345964D01*
X183450746Y-95296031D01*
X183343663Y-95246097D01*
X183343659Y-95246096D01*
X183343655Y-95246094D01*
X183115413Y-95184938D01*
X183115403Y-95184936D01*
X182938967Y-95169500D01*
X182938966Y-95169500D01*
X182821034Y-95169500D01*
X182821033Y-95169500D01*
X182644596Y-95184936D01*
X182644586Y-95184938D01*
X182416344Y-95246094D01*
X182416335Y-95246098D01*
X182202171Y-95345964D01*
X182202169Y-95345965D01*
X182008597Y-95481505D01*
X181841506Y-95648597D01*
X181841501Y-95648604D01*
X181705967Y-95842165D01*
X181705965Y-95842169D01*
X181606098Y-96056335D01*
X181606094Y-96056344D01*
X181544938Y-96284586D01*
X181544936Y-96284596D01*
X181524341Y-96519999D01*
X181524341Y-96520000D01*
X125815659Y-96520000D01*
X125795063Y-96284592D01*
X125733903Y-96056337D01*
X125634035Y-95842171D01*
X125634034Y-95842169D01*
X125498494Y-95648597D01*
X125331402Y-95481505D01*
X125137830Y-95345965D01*
X125137828Y-95345964D01*
X125030746Y-95296031D01*
X124923663Y-95246097D01*
X124923659Y-95246096D01*
X124923655Y-95246094D01*
X124695413Y-95184938D01*
X124695403Y-95184936D01*
X124518967Y-95169500D01*
X124518966Y-95169500D01*
X124401034Y-95169500D01*
X124401033Y-95169500D01*
X124224596Y-95184936D01*
X124224586Y-95184938D01*
X123996344Y-95246094D01*
X123996335Y-95246098D01*
X123782171Y-95345964D01*
X123782169Y-95345965D01*
X123588597Y-95481505D01*
X123421506Y-95648597D01*
X123421501Y-95648604D01*
X123285967Y-95842165D01*
X123285965Y-95842169D01*
X123186098Y-96056335D01*
X123186094Y-96056344D01*
X123124938Y-96284586D01*
X123124936Y-96284596D01*
X123104341Y-96519999D01*
X123104341Y-96520000D01*
X119380553Y-96520000D01*
X119380500Y-96517438D01*
X119380500Y-91250005D01*
X131885388Y-91250005D01*
X131905138Y-91563942D01*
X131905139Y-91563949D01*
X131964086Y-91872958D01*
X132061294Y-92172132D01*
X132061296Y-92172137D01*
X132195231Y-92456761D01*
X132195234Y-92456767D01*
X132363788Y-92722367D01*
X132363791Y-92722371D01*
X132454617Y-92832160D01*
X133092597Y-92194180D01*
X133255461Y-92384870D01*
X133446149Y-92547732D01*
X132805302Y-93188579D01*
X132805303Y-93188581D01*
X133048103Y-93364985D01*
X133048121Y-93364996D01*
X133323778Y-93516540D01*
X133323786Y-93516544D01*
X133616257Y-93632340D01*
X133920951Y-93710573D01*
X133920960Y-93710575D01*
X134233032Y-93749999D01*
X134233046Y-93750000D01*
X134547616Y-93750000D01*
X134547629Y-93749999D01*
X134859701Y-93710575D01*
X134859710Y-93710573D01*
X135164404Y-93632340D01*
X135456875Y-93516544D01*
X135456883Y-93516540D01*
X135732540Y-93364996D01*
X135732550Y-93364990D01*
X135975357Y-93188579D01*
X135975358Y-93188579D01*
X135334511Y-92547733D01*
X135525201Y-92384870D01*
X135688064Y-92194181D01*
X136326043Y-92832160D01*
X136416875Y-92722364D01*
X136585427Y-92456767D01*
X136585430Y-92456761D01*
X136719365Y-92172137D01*
X136719367Y-92172132D01*
X136816575Y-91872958D01*
X136875522Y-91563949D01*
X136875523Y-91563942D01*
X136895274Y-91250005D01*
X136895274Y-91249994D01*
X136877638Y-90969674D01*
X151315057Y-90969674D01*
X151334807Y-91283611D01*
X151334808Y-91283618D01*
X151393755Y-91592627D01*
X151490963Y-91891801D01*
X151490965Y-91891806D01*
X151624900Y-92176430D01*
X151624903Y-92176436D01*
X151793457Y-92442036D01*
X151793460Y-92442040D01*
X151884286Y-92551829D01*
X152522266Y-91913849D01*
X152685130Y-92104539D01*
X152875818Y-92267401D01*
X152234971Y-92908248D01*
X152234972Y-92908250D01*
X152477772Y-93084654D01*
X152477790Y-93084665D01*
X152753447Y-93236209D01*
X152753455Y-93236213D01*
X153045926Y-93352009D01*
X153350620Y-93430242D01*
X153350629Y-93430244D01*
X153662701Y-93469668D01*
X153662715Y-93469669D01*
X153977285Y-93469669D01*
X153977298Y-93469668D01*
X154289370Y-93430244D01*
X154289379Y-93430242D01*
X154594073Y-93352009D01*
X154886544Y-93236213D01*
X154886552Y-93236209D01*
X155162209Y-93084665D01*
X155162219Y-93084659D01*
X155405026Y-92908248D01*
X155405027Y-92908248D01*
X154764180Y-92267402D01*
X154954870Y-92104539D01*
X155117733Y-91913850D01*
X155755712Y-92551829D01*
X155846544Y-92442033D01*
X156015096Y-92176436D01*
X156015099Y-92176430D01*
X156149034Y-91891806D01*
X156149036Y-91891801D01*
X156246244Y-91592627D01*
X156305191Y-91283618D01*
X156305192Y-91283611D01*
X156307306Y-91250005D01*
X169985388Y-91250005D01*
X170005138Y-91563942D01*
X170005139Y-91563949D01*
X170064086Y-91872958D01*
X170161294Y-92172132D01*
X170161296Y-92172137D01*
X170295231Y-92456761D01*
X170295234Y-92456767D01*
X170463788Y-92722367D01*
X170463791Y-92722371D01*
X170554617Y-92832160D01*
X171192597Y-92194180D01*
X171355461Y-92384870D01*
X171546149Y-92547732D01*
X170905302Y-93188579D01*
X170905303Y-93188581D01*
X171148103Y-93364985D01*
X171148121Y-93364996D01*
X171423778Y-93516540D01*
X171423786Y-93516544D01*
X171716257Y-93632340D01*
X172020951Y-93710573D01*
X172020960Y-93710575D01*
X172333032Y-93749999D01*
X172333046Y-93750000D01*
X172647616Y-93750000D01*
X172647629Y-93749999D01*
X172959701Y-93710575D01*
X172959710Y-93710573D01*
X173264404Y-93632340D01*
X173556875Y-93516544D01*
X173556883Y-93516540D01*
X173832540Y-93364996D01*
X173832550Y-93364990D01*
X174075357Y-93188579D01*
X174075358Y-93188579D01*
X173434511Y-92547733D01*
X173625201Y-92384870D01*
X173788064Y-92194181D01*
X174426043Y-92832160D01*
X174516875Y-92722364D01*
X174685427Y-92456767D01*
X174685430Y-92456761D01*
X174819365Y-92172137D01*
X174819367Y-92172132D01*
X174916575Y-91872958D01*
X174975522Y-91563949D01*
X174975523Y-91563942D01*
X174995274Y-91250005D01*
X174995274Y-91249994D01*
X174975523Y-90936057D01*
X174975522Y-90936050D01*
X174916575Y-90627041D01*
X174819367Y-90327867D01*
X174819365Y-90327862D01*
X174685430Y-90043238D01*
X174685427Y-90043232D01*
X174516873Y-89777632D01*
X174516870Y-89777628D01*
X174426043Y-89667838D01*
X173788063Y-90305818D01*
X173625201Y-90115130D01*
X173434511Y-89952266D01*
X174075358Y-89311419D01*
X174075357Y-89311417D01*
X173832558Y-89135014D01*
X173832540Y-89135003D01*
X173556883Y-88983459D01*
X173556875Y-88983455D01*
X173264404Y-88867659D01*
X172959710Y-88789426D01*
X172959701Y-88789424D01*
X172647629Y-88750000D01*
X172333032Y-88750000D01*
X172020960Y-88789424D01*
X172020951Y-88789426D01*
X171716257Y-88867659D01*
X171423786Y-88983455D01*
X171423778Y-88983459D01*
X171148118Y-89135004D01*
X171148113Y-89135007D01*
X170905303Y-89311418D01*
X170905302Y-89311419D01*
X171546150Y-89952266D01*
X171355461Y-90115130D01*
X171192597Y-90305818D01*
X170554617Y-89667838D01*
X170554616Y-89667838D01*
X170463790Y-89777629D01*
X170463788Y-89777632D01*
X170295234Y-90043232D01*
X170295231Y-90043238D01*
X170161296Y-90327862D01*
X170161294Y-90327867D01*
X170064086Y-90627041D01*
X170005139Y-90936050D01*
X170005138Y-90936057D01*
X169985388Y-91249994D01*
X169985388Y-91250005D01*
X156307306Y-91250005D01*
X156324943Y-90969674D01*
X156324943Y-90969663D01*
X156305192Y-90655726D01*
X156305191Y-90655719D01*
X156246244Y-90346710D01*
X156149036Y-90047536D01*
X156149034Y-90047531D01*
X156015099Y-89762907D01*
X156015096Y-89762901D01*
X155846542Y-89497301D01*
X155846539Y-89497297D01*
X155755712Y-89387507D01*
X155117732Y-90025487D01*
X154954870Y-89834799D01*
X154764180Y-89671935D01*
X155405027Y-89031088D01*
X155405026Y-89031086D01*
X155162227Y-88854683D01*
X155162209Y-88854672D01*
X154886552Y-88703128D01*
X154886544Y-88703124D01*
X154594073Y-88587328D01*
X154289379Y-88509095D01*
X154289370Y-88509093D01*
X153977298Y-88469669D01*
X153662701Y-88469669D01*
X153350629Y-88509093D01*
X153350620Y-88509095D01*
X153045926Y-88587328D01*
X152753455Y-88703124D01*
X152753447Y-88703128D01*
X152477787Y-88854673D01*
X152477782Y-88854676D01*
X152234972Y-89031087D01*
X152234971Y-89031088D01*
X152875819Y-89671935D01*
X152685130Y-89834799D01*
X152522266Y-90025487D01*
X151884286Y-89387507D01*
X151884285Y-89387507D01*
X151793459Y-89497298D01*
X151793457Y-89497301D01*
X151624903Y-89762901D01*
X151624900Y-89762907D01*
X151490965Y-90047531D01*
X151490963Y-90047536D01*
X151393755Y-90346710D01*
X151334808Y-90655719D01*
X151334807Y-90655726D01*
X151315057Y-90969663D01*
X151315057Y-90969674D01*
X136877638Y-90969674D01*
X136875523Y-90936057D01*
X136875522Y-90936050D01*
X136816575Y-90627041D01*
X136719367Y-90327867D01*
X136719365Y-90327862D01*
X136585430Y-90043238D01*
X136585427Y-90043232D01*
X136416873Y-89777632D01*
X136416870Y-89777628D01*
X136326043Y-89667838D01*
X135688063Y-90305818D01*
X135525201Y-90115130D01*
X135334511Y-89952266D01*
X135975358Y-89311419D01*
X135975357Y-89311417D01*
X135732558Y-89135014D01*
X135732540Y-89135003D01*
X135456883Y-88983459D01*
X135456875Y-88983455D01*
X135164404Y-88867659D01*
X134859710Y-88789426D01*
X134859701Y-88789424D01*
X134547629Y-88750000D01*
X134233032Y-88750000D01*
X133920960Y-88789424D01*
X133920951Y-88789426D01*
X133616257Y-88867659D01*
X133323786Y-88983455D01*
X133323778Y-88983459D01*
X133048118Y-89135004D01*
X133048113Y-89135007D01*
X132805303Y-89311418D01*
X132805302Y-89311419D01*
X133446150Y-89952266D01*
X133255461Y-90115130D01*
X133092597Y-90305818D01*
X132454617Y-89667838D01*
X132454616Y-89667838D01*
X132363790Y-89777629D01*
X132363788Y-89777632D01*
X132195234Y-90043232D01*
X132195231Y-90043238D01*
X132061296Y-90327862D01*
X132061294Y-90327867D01*
X131964086Y-90627041D01*
X131905139Y-90936050D01*
X131905138Y-90936057D01*
X131885388Y-91249994D01*
X131885388Y-91250005D01*
X119380500Y-91250005D01*
X119380500Y-85134856D01*
X134709831Y-85134856D01*
X134709833Y-85134882D01*
X134712744Y-85159987D01*
X134712746Y-85159991D01*
X134758124Y-85262764D01*
X134758125Y-85262765D01*
X134837566Y-85342206D01*
X134940340Y-85387585D01*
X134965466Y-85390500D01*
X136655195Y-85390499D01*
X136655210Y-85390497D01*
X136655213Y-85390497D01*
X136680318Y-85387586D01*
X136680319Y-85387585D01*
X136680322Y-85387585D01*
X136783096Y-85342206D01*
X136862537Y-85262765D01*
X136907916Y-85159991D01*
X136910831Y-85134865D01*
X136910831Y-85134856D01*
X172809831Y-85134856D01*
X172809833Y-85134882D01*
X172812744Y-85159987D01*
X172812746Y-85159991D01*
X172858124Y-85262764D01*
X172858125Y-85262765D01*
X172937566Y-85342206D01*
X173040340Y-85387585D01*
X173065466Y-85390500D01*
X174755195Y-85390499D01*
X174755210Y-85390497D01*
X174755213Y-85390497D01*
X174780318Y-85387586D01*
X174780319Y-85387585D01*
X174780322Y-85387585D01*
X174883096Y-85342206D01*
X174962537Y-85262765D01*
X175007916Y-85159991D01*
X175010831Y-85134865D01*
X175010830Y-83445136D01*
X175010828Y-83445117D01*
X175007917Y-83420012D01*
X175007916Y-83420010D01*
X175007916Y-83420009D01*
X174962537Y-83317235D01*
X174883096Y-83237794D01*
X174883094Y-83237793D01*
X174780323Y-83192415D01*
X174755196Y-83189500D01*
X173065474Y-83189500D01*
X173065448Y-83189502D01*
X173040343Y-83192413D01*
X173040339Y-83192415D01*
X172937566Y-83237793D01*
X172858125Y-83317234D01*
X172812746Y-83420006D01*
X172812746Y-83420008D01*
X172809831Y-83445131D01*
X172809831Y-85134856D01*
X136910831Y-85134856D01*
X136910831Y-84854525D01*
X154139500Y-84854525D01*
X154139502Y-84854551D01*
X154142413Y-84879656D01*
X154142415Y-84879660D01*
X154187793Y-84982433D01*
X154187794Y-84982434D01*
X154267235Y-85061875D01*
X154370009Y-85107254D01*
X154395135Y-85110169D01*
X156084864Y-85110168D01*
X156084879Y-85110166D01*
X156084882Y-85110166D01*
X156109987Y-85107255D01*
X156109988Y-85107254D01*
X156109991Y-85107254D01*
X156212765Y-85061875D01*
X156292206Y-84982434D01*
X156337585Y-84879660D01*
X156340500Y-84854534D01*
X156340499Y-83164805D01*
X156340497Y-83164786D01*
X156337586Y-83139681D01*
X156337585Y-83139679D01*
X156337585Y-83139678D01*
X156292206Y-83036904D01*
X156212765Y-82957463D01*
X156212763Y-82957462D01*
X156109992Y-82912084D01*
X156084865Y-82909169D01*
X154395143Y-82909169D01*
X154395117Y-82909171D01*
X154370012Y-82912082D01*
X154370008Y-82912084D01*
X154267235Y-82957462D01*
X154187794Y-83036903D01*
X154142415Y-83139675D01*
X154142415Y-83139677D01*
X154139500Y-83164800D01*
X154139500Y-84854525D01*
X136910831Y-84854525D01*
X136910830Y-83445136D01*
X136910828Y-83445117D01*
X136907917Y-83420012D01*
X136907916Y-83420010D01*
X136907916Y-83420009D01*
X136862537Y-83317235D01*
X136783096Y-83237794D01*
X136783094Y-83237793D01*
X136680323Y-83192415D01*
X136655196Y-83189500D01*
X134965474Y-83189500D01*
X134965448Y-83189502D01*
X134940343Y-83192413D01*
X134940339Y-83192415D01*
X134837566Y-83237793D01*
X134758125Y-83317234D01*
X134712746Y-83420006D01*
X134712746Y-83420008D01*
X134709831Y-83445131D01*
X134709831Y-85134856D01*
X119380500Y-85134856D01*
X119380500Y-82905002D01*
X131665365Y-82905002D01*
X131685189Y-83131599D01*
X131685191Y-83131610D01*
X131744061Y-83351317D01*
X131744066Y-83351331D01*
X131840194Y-83557478D01*
X131891305Y-83630472D01*
X132487254Y-83034523D01*
X132510838Y-83114844D01*
X132588570Y-83235798D01*
X132697231Y-83329952D01*
X132828016Y-83389680D01*
X132837797Y-83391086D01*
X132244857Y-83984025D01*
X132317844Y-84035132D01*
X132317852Y-84035136D01*
X132523999Y-84131264D01*
X132524013Y-84131269D01*
X132743720Y-84190139D01*
X132743731Y-84190141D01*
X132970329Y-84209966D01*
X132970333Y-84209966D01*
X133196930Y-84190141D01*
X133196941Y-84190139D01*
X133416648Y-84131269D01*
X133416662Y-84131264D01*
X133622809Y-84035136D01*
X133695802Y-83984024D01*
X133102864Y-83391086D01*
X133112646Y-83389680D01*
X133243431Y-83329952D01*
X133352092Y-83235798D01*
X133429824Y-83114844D01*
X133453407Y-83034523D01*
X134049355Y-83630471D01*
X134100467Y-83557478D01*
X134196595Y-83351331D01*
X134196600Y-83351317D01*
X134255470Y-83131610D01*
X134255472Y-83131599D01*
X134275297Y-82905002D01*
X134275297Y-82904997D01*
X134255472Y-82678400D01*
X134255470Y-82678389D01*
X134241076Y-82624671D01*
X151095034Y-82624671D01*
X151114858Y-82851268D01*
X151114860Y-82851279D01*
X151173730Y-83070986D01*
X151173735Y-83071000D01*
X151269863Y-83277147D01*
X151320974Y-83350141D01*
X151916923Y-82754192D01*
X151940507Y-82834513D01*
X152018239Y-82955467D01*
X152126900Y-83049621D01*
X152257685Y-83109349D01*
X152267466Y-83110755D01*
X151674526Y-83703694D01*
X151747513Y-83754801D01*
X151747521Y-83754805D01*
X151953668Y-83850933D01*
X151953682Y-83850938D01*
X152173389Y-83909808D01*
X152173400Y-83909810D01*
X152399998Y-83929635D01*
X152400002Y-83929635D01*
X152626599Y-83909810D01*
X152626610Y-83909808D01*
X152846317Y-83850938D01*
X152846331Y-83850933D01*
X153052478Y-83754805D01*
X153125471Y-83703693D01*
X152532533Y-83110755D01*
X152542315Y-83109349D01*
X152673100Y-83049621D01*
X152781761Y-82955467D01*
X152859493Y-82834513D01*
X152883076Y-82754192D01*
X153479024Y-83350140D01*
X153530136Y-83277147D01*
X153626264Y-83071000D01*
X153626269Y-83070986D01*
X153670744Y-82905002D01*
X169765365Y-82905002D01*
X169785189Y-83131599D01*
X169785191Y-83131610D01*
X169844061Y-83351317D01*
X169844066Y-83351331D01*
X169940194Y-83557478D01*
X169991305Y-83630472D01*
X170587254Y-83034523D01*
X170610838Y-83114844D01*
X170688570Y-83235798D01*
X170797231Y-83329952D01*
X170928016Y-83389680D01*
X170937797Y-83391086D01*
X170344857Y-83984025D01*
X170417844Y-84035132D01*
X170417852Y-84035136D01*
X170623999Y-84131264D01*
X170624013Y-84131269D01*
X170843720Y-84190139D01*
X170843731Y-84190141D01*
X171070329Y-84209966D01*
X171070333Y-84209966D01*
X171296930Y-84190141D01*
X171296941Y-84190139D01*
X171516648Y-84131269D01*
X171516662Y-84131264D01*
X171722809Y-84035136D01*
X171795802Y-83984024D01*
X171202864Y-83391086D01*
X171212646Y-83389680D01*
X171343431Y-83329952D01*
X171452092Y-83235798D01*
X171529824Y-83114844D01*
X171553407Y-83034523D01*
X172149355Y-83630471D01*
X172200467Y-83557478D01*
X172296595Y-83351331D01*
X172296600Y-83351317D01*
X172355470Y-83131610D01*
X172355472Y-83131599D01*
X172375297Y-82905002D01*
X172375297Y-82904997D01*
X172355472Y-82678400D01*
X172355470Y-82678389D01*
X172296600Y-82458682D01*
X172296595Y-82458668D01*
X172200467Y-82252521D01*
X172200463Y-82252513D01*
X172149356Y-82179526D01*
X171553407Y-82775475D01*
X171529824Y-82695156D01*
X171452092Y-82574202D01*
X171343431Y-82480048D01*
X171212646Y-82420320D01*
X171202864Y-82418913D01*
X171795803Y-81825974D01*
X171722809Y-81774863D01*
X171516662Y-81678735D01*
X171516648Y-81678730D01*
X171296941Y-81619860D01*
X171296930Y-81619858D01*
X171070333Y-81600034D01*
X171070329Y-81600034D01*
X170843731Y-81619858D01*
X170843720Y-81619860D01*
X170624013Y-81678730D01*
X170624004Y-81678734D01*
X170417847Y-81774866D01*
X170417843Y-81774868D01*
X170344857Y-81825973D01*
X170344857Y-81825974D01*
X170937797Y-82418913D01*
X170928016Y-82420320D01*
X170797231Y-82480048D01*
X170688570Y-82574202D01*
X170610838Y-82695156D01*
X170587254Y-82775475D01*
X169991305Y-82179526D01*
X169991304Y-82179526D01*
X169940199Y-82252512D01*
X169940197Y-82252516D01*
X169844065Y-82458673D01*
X169844061Y-82458682D01*
X169785191Y-82678389D01*
X169785189Y-82678400D01*
X169765365Y-82904997D01*
X169765365Y-82905002D01*
X153670744Y-82905002D01*
X153685139Y-82851279D01*
X153685141Y-82851268D01*
X153704966Y-82624671D01*
X153704966Y-82624666D01*
X153685141Y-82398069D01*
X153685139Y-82398058D01*
X153626269Y-82178351D01*
X153626264Y-82178337D01*
X153530136Y-81972190D01*
X153530132Y-81972182D01*
X153479025Y-81899195D01*
X152883076Y-82495144D01*
X152859493Y-82414825D01*
X152781761Y-82293871D01*
X152673100Y-82199717D01*
X152542315Y-82139989D01*
X152532533Y-82138582D01*
X153125472Y-81545643D01*
X153052478Y-81494532D01*
X152846331Y-81398404D01*
X152846317Y-81398399D01*
X152626610Y-81339529D01*
X152626599Y-81339527D01*
X152400002Y-81319703D01*
X152399998Y-81319703D01*
X152173400Y-81339527D01*
X152173389Y-81339529D01*
X151953682Y-81398399D01*
X151953673Y-81398403D01*
X151747516Y-81494535D01*
X151747512Y-81494537D01*
X151674526Y-81545642D01*
X151674526Y-81545643D01*
X152267466Y-82138582D01*
X152257685Y-82139989D01*
X152126900Y-82199717D01*
X152018239Y-82293871D01*
X151940507Y-82414825D01*
X151916923Y-82495144D01*
X151320974Y-81899195D01*
X151320973Y-81899195D01*
X151269868Y-81972181D01*
X151269866Y-81972185D01*
X151173734Y-82178342D01*
X151173730Y-82178351D01*
X151114860Y-82398058D01*
X151114858Y-82398069D01*
X151095034Y-82624666D01*
X151095034Y-82624671D01*
X134241076Y-82624671D01*
X134196600Y-82458682D01*
X134196595Y-82458668D01*
X134100467Y-82252521D01*
X134100463Y-82252513D01*
X134049356Y-82179526D01*
X133453407Y-82775475D01*
X133429824Y-82695156D01*
X133352092Y-82574202D01*
X133243431Y-82480048D01*
X133112646Y-82420320D01*
X133102864Y-82418913D01*
X133695803Y-81825974D01*
X133622809Y-81774863D01*
X133416662Y-81678735D01*
X133416648Y-81678730D01*
X133196941Y-81619860D01*
X133196930Y-81619858D01*
X132970333Y-81600034D01*
X132970329Y-81600034D01*
X132743731Y-81619858D01*
X132743720Y-81619860D01*
X132524013Y-81678730D01*
X132524004Y-81678734D01*
X132317847Y-81774866D01*
X132317843Y-81774868D01*
X132244857Y-81825973D01*
X132244857Y-81825974D01*
X132837797Y-82418913D01*
X132828016Y-82420320D01*
X132697231Y-82480048D01*
X132588570Y-82574202D01*
X132510838Y-82695156D01*
X132487254Y-82775475D01*
X131891305Y-82179526D01*
X131891304Y-82179526D01*
X131840199Y-82252512D01*
X131840197Y-82252516D01*
X131744065Y-82458673D01*
X131744061Y-82458682D01*
X131685191Y-82678389D01*
X131685189Y-82678400D01*
X131665365Y-82904997D01*
X131665365Y-82905002D01*
X119380500Y-82905002D01*
X119380500Y-81520000D01*
X134705116Y-81520000D01*
X134723933Y-81723082D01*
X134779748Y-81919247D01*
X134779753Y-81919260D01*
X134870658Y-82101821D01*
X134993568Y-82264581D01*
X135144289Y-82401980D01*
X135144291Y-82401982D01*
X135235843Y-82458668D01*
X135317694Y-82509348D01*
X135507875Y-82583024D01*
X135708355Y-82620500D01*
X135708357Y-82620500D01*
X135912305Y-82620500D01*
X135912307Y-82620500D01*
X136112787Y-82583024D01*
X136302968Y-82509348D01*
X136476372Y-82401981D01*
X136627095Y-82264579D01*
X136750004Y-82101821D01*
X136840913Y-81919250D01*
X136896728Y-81723083D01*
X136915546Y-81520000D01*
X136896728Y-81316917D01*
X136874749Y-81239669D01*
X154134785Y-81239669D01*
X154153602Y-81442751D01*
X154209417Y-81638916D01*
X154209422Y-81638929D01*
X154300327Y-81821490D01*
X154423237Y-81984250D01*
X154573958Y-82121649D01*
X154573960Y-82121651D01*
X154665512Y-82178337D01*
X154747363Y-82229017D01*
X154937544Y-82302693D01*
X155138024Y-82340169D01*
X155138026Y-82340169D01*
X155341974Y-82340169D01*
X155341976Y-82340169D01*
X155542456Y-82302693D01*
X155732637Y-82229017D01*
X155906041Y-82121650D01*
X156056764Y-81984248D01*
X156179673Y-81821490D01*
X156270582Y-81638919D01*
X156304418Y-81520000D01*
X172805116Y-81520000D01*
X172823933Y-81723082D01*
X172879748Y-81919247D01*
X172879753Y-81919260D01*
X172970658Y-82101821D01*
X173093568Y-82264581D01*
X173244289Y-82401980D01*
X173244291Y-82401982D01*
X173335843Y-82458668D01*
X173417694Y-82509348D01*
X173607875Y-82583024D01*
X173808355Y-82620500D01*
X173808357Y-82620500D01*
X174012305Y-82620500D01*
X174012307Y-82620500D01*
X174212787Y-82583024D01*
X174402968Y-82509348D01*
X174576372Y-82401981D01*
X174727095Y-82264579D01*
X174850004Y-82101821D01*
X174940913Y-81919250D01*
X174996728Y-81723083D01*
X175015546Y-81520000D01*
X174996728Y-81316917D01*
X174940913Y-81120750D01*
X174850004Y-80938179D01*
X174727095Y-80775421D01*
X174727093Y-80775418D01*
X174576372Y-80638019D01*
X174576370Y-80638017D01*
X174402973Y-80530655D01*
X174402966Y-80530651D01*
X174307877Y-80493814D01*
X174212787Y-80456976D01*
X174012307Y-80419500D01*
X173808355Y-80419500D01*
X173607875Y-80456976D01*
X173607872Y-80456976D01*
X173607872Y-80456977D01*
X173417695Y-80530651D01*
X173417688Y-80530655D01*
X173244291Y-80638017D01*
X173244289Y-80638019D01*
X173093568Y-80775418D01*
X172970658Y-80938178D01*
X172879753Y-81120739D01*
X172879748Y-81120752D01*
X172823933Y-81316917D01*
X172805116Y-81519999D01*
X172805116Y-81520000D01*
X156304418Y-81520000D01*
X156326397Y-81442752D01*
X156345215Y-81239669D01*
X156326397Y-81036586D01*
X156270582Y-80840419D01*
X156179673Y-80657848D01*
X156086334Y-80534247D01*
X156056762Y-80495087D01*
X155906041Y-80357688D01*
X155906039Y-80357686D01*
X155732642Y-80250324D01*
X155732635Y-80250320D01*
X155637546Y-80213483D01*
X155542456Y-80176645D01*
X155341976Y-80139169D01*
X155138024Y-80139169D01*
X154937544Y-80176645D01*
X154937541Y-80176645D01*
X154937541Y-80176646D01*
X154747364Y-80250320D01*
X154747357Y-80250324D01*
X154573960Y-80357686D01*
X154573958Y-80357688D01*
X154423237Y-80495087D01*
X154300327Y-80657847D01*
X154209422Y-80840408D01*
X154209417Y-80840421D01*
X154153602Y-81036586D01*
X154134785Y-81239668D01*
X154134785Y-81239669D01*
X136874749Y-81239669D01*
X136840913Y-81120750D01*
X136750004Y-80938179D01*
X136627095Y-80775421D01*
X136627093Y-80775418D01*
X136476372Y-80638019D01*
X136476370Y-80638017D01*
X136302973Y-80530655D01*
X136302966Y-80530651D01*
X136207877Y-80493814D01*
X136112787Y-80456976D01*
X135912307Y-80419500D01*
X135708355Y-80419500D01*
X135507875Y-80456976D01*
X135507872Y-80456976D01*
X135507872Y-80456977D01*
X135317695Y-80530651D01*
X135317688Y-80530655D01*
X135144291Y-80638017D01*
X135144289Y-80638019D01*
X134993568Y-80775418D01*
X134870658Y-80938178D01*
X134779753Y-81120739D01*
X134779748Y-81120752D01*
X134723933Y-81316917D01*
X134705116Y-81519999D01*
X134705116Y-81520000D01*
X119380500Y-81520000D01*
X119380500Y-80135000D01*
X131865116Y-80135000D01*
X131883933Y-80338082D01*
X131939748Y-80534247D01*
X131939753Y-80534260D01*
X132030658Y-80716821D01*
X132153568Y-80879581D01*
X132304289Y-81016980D01*
X132304291Y-81016982D01*
X132335953Y-81036586D01*
X132477694Y-81124348D01*
X132667875Y-81198024D01*
X132868355Y-81235500D01*
X132868357Y-81235500D01*
X133072305Y-81235500D01*
X133072307Y-81235500D01*
X133272787Y-81198024D01*
X133462968Y-81124348D01*
X133636372Y-81016981D01*
X133787095Y-80879579D01*
X133910004Y-80716821D01*
X134000913Y-80534250D01*
X134056728Y-80338083D01*
X134075546Y-80135000D01*
X134056728Y-79931917D01*
X134034749Y-79854669D01*
X151294785Y-79854669D01*
X151313602Y-80057751D01*
X151369417Y-80253916D01*
X151369422Y-80253929D01*
X151460327Y-80436490D01*
X151583237Y-80599250D01*
X151733958Y-80736649D01*
X151733960Y-80736651D01*
X151796576Y-80775421D01*
X151907363Y-80844017D01*
X152097544Y-80917693D01*
X152298024Y-80955169D01*
X152298026Y-80955169D01*
X152501974Y-80955169D01*
X152501976Y-80955169D01*
X152702456Y-80917693D01*
X152892637Y-80844017D01*
X153066041Y-80736650D01*
X153216764Y-80599248D01*
X153339673Y-80436490D01*
X153430582Y-80253919D01*
X153464418Y-80135000D01*
X169965116Y-80135000D01*
X169983933Y-80338082D01*
X170039748Y-80534247D01*
X170039753Y-80534260D01*
X170130658Y-80716821D01*
X170253568Y-80879581D01*
X170404289Y-81016980D01*
X170404291Y-81016982D01*
X170435953Y-81036586D01*
X170577694Y-81124348D01*
X170767875Y-81198024D01*
X170968355Y-81235500D01*
X170968357Y-81235500D01*
X171172305Y-81235500D01*
X171172307Y-81235500D01*
X171372787Y-81198024D01*
X171562968Y-81124348D01*
X171736372Y-81016981D01*
X171887095Y-80879579D01*
X172010004Y-80716821D01*
X172100913Y-80534250D01*
X172156728Y-80338083D01*
X172175546Y-80135000D01*
X172156728Y-79931917D01*
X172100913Y-79735750D01*
X172010004Y-79553179D01*
X171887095Y-79390421D01*
X171887093Y-79390418D01*
X171736372Y-79253019D01*
X171736370Y-79253017D01*
X171562973Y-79145655D01*
X171562966Y-79145651D01*
X171467877Y-79108814D01*
X171372787Y-79071976D01*
X171172307Y-79034500D01*
X170968355Y-79034500D01*
X170767875Y-79071976D01*
X170767872Y-79071976D01*
X170767872Y-79071977D01*
X170577695Y-79145651D01*
X170577688Y-79145655D01*
X170404291Y-79253017D01*
X170404289Y-79253019D01*
X170253568Y-79390418D01*
X170130658Y-79553178D01*
X170039753Y-79735739D01*
X170039748Y-79735752D01*
X169983933Y-79931917D01*
X169965116Y-80134999D01*
X169965116Y-80135000D01*
X153464418Y-80135000D01*
X153486397Y-80057752D01*
X153505215Y-79854669D01*
X153486397Y-79651586D01*
X153430582Y-79455419D01*
X153339673Y-79272848D01*
X153246334Y-79149247D01*
X153216762Y-79110087D01*
X153066041Y-78972688D01*
X153066039Y-78972686D01*
X152892642Y-78865324D01*
X152892635Y-78865320D01*
X152797546Y-78828483D01*
X152702456Y-78791645D01*
X152501976Y-78754169D01*
X152298024Y-78754169D01*
X152097544Y-78791645D01*
X152097541Y-78791645D01*
X152097541Y-78791646D01*
X151907364Y-78865320D01*
X151907357Y-78865324D01*
X151733960Y-78972686D01*
X151733958Y-78972688D01*
X151583237Y-79110087D01*
X151460327Y-79272847D01*
X151369422Y-79455408D01*
X151369417Y-79455421D01*
X151313602Y-79651586D01*
X151294785Y-79854668D01*
X151294785Y-79854669D01*
X134034749Y-79854669D01*
X134000913Y-79735750D01*
X133910004Y-79553179D01*
X133787095Y-79390421D01*
X133787093Y-79390418D01*
X133636372Y-79253019D01*
X133636370Y-79253017D01*
X133462973Y-79145655D01*
X133462966Y-79145651D01*
X133367877Y-79108814D01*
X133272787Y-79071976D01*
X133072307Y-79034500D01*
X132868355Y-79034500D01*
X132667875Y-79071976D01*
X132667872Y-79071976D01*
X132667872Y-79071977D01*
X132477695Y-79145651D01*
X132477688Y-79145655D01*
X132304291Y-79253017D01*
X132304289Y-79253019D01*
X132153568Y-79390418D01*
X132030658Y-79553178D01*
X131939753Y-79735739D01*
X131939748Y-79735752D01*
X131883933Y-79931917D01*
X131865116Y-80134999D01*
X131865116Y-80135000D01*
X119380500Y-80135000D01*
X119380500Y-78750000D01*
X134705116Y-78750000D01*
X134723933Y-78953082D01*
X134779748Y-79149247D01*
X134779753Y-79149260D01*
X134870658Y-79331821D01*
X134993568Y-79494581D01*
X135144289Y-79631980D01*
X135144291Y-79631982D01*
X135175953Y-79651586D01*
X135317694Y-79739348D01*
X135507875Y-79813024D01*
X135708355Y-79850500D01*
X135708357Y-79850500D01*
X135912305Y-79850500D01*
X135912307Y-79850500D01*
X136112787Y-79813024D01*
X136302968Y-79739348D01*
X136476372Y-79631981D01*
X136627095Y-79494579D01*
X136750004Y-79331821D01*
X136840913Y-79149250D01*
X136896728Y-78953083D01*
X136915546Y-78750000D01*
X136896728Y-78546917D01*
X136874749Y-78469669D01*
X154134785Y-78469669D01*
X154153602Y-78672751D01*
X154209417Y-78868916D01*
X154209422Y-78868929D01*
X154300327Y-79051490D01*
X154423237Y-79214250D01*
X154573958Y-79351649D01*
X154573960Y-79351651D01*
X154636576Y-79390421D01*
X154747363Y-79459017D01*
X154937544Y-79532693D01*
X155138024Y-79570169D01*
X155138026Y-79570169D01*
X155341974Y-79570169D01*
X155341976Y-79570169D01*
X155542456Y-79532693D01*
X155732637Y-79459017D01*
X155906041Y-79351650D01*
X156056764Y-79214248D01*
X156179673Y-79051490D01*
X156270582Y-78868919D01*
X156304418Y-78750000D01*
X172805116Y-78750000D01*
X172823933Y-78953082D01*
X172879748Y-79149247D01*
X172879753Y-79149260D01*
X172970658Y-79331821D01*
X173093568Y-79494581D01*
X173244289Y-79631980D01*
X173244291Y-79631982D01*
X173275953Y-79651586D01*
X173417694Y-79739348D01*
X173607875Y-79813024D01*
X173808355Y-79850500D01*
X173808357Y-79850500D01*
X174012305Y-79850500D01*
X174012307Y-79850500D01*
X174212787Y-79813024D01*
X174402968Y-79739348D01*
X174576372Y-79631981D01*
X174727095Y-79494579D01*
X174850004Y-79331821D01*
X174940913Y-79149250D01*
X174996728Y-78953083D01*
X175015546Y-78750000D01*
X174996728Y-78546917D01*
X174940913Y-78350750D01*
X174850004Y-78168179D01*
X174727095Y-78005421D01*
X174727093Y-78005418D01*
X174576372Y-77868019D01*
X174576370Y-77868017D01*
X174402973Y-77760655D01*
X174402966Y-77760651D01*
X174307877Y-77723814D01*
X174212787Y-77686976D01*
X174012307Y-77649500D01*
X173808355Y-77649500D01*
X173607875Y-77686976D01*
X173607872Y-77686976D01*
X173607872Y-77686977D01*
X173417695Y-77760651D01*
X173417688Y-77760655D01*
X173244291Y-77868017D01*
X173244289Y-77868019D01*
X173093568Y-78005418D01*
X172970658Y-78168178D01*
X172879753Y-78350739D01*
X172879748Y-78350752D01*
X172823933Y-78546917D01*
X172805116Y-78749999D01*
X172805116Y-78750000D01*
X156304418Y-78750000D01*
X156326397Y-78672752D01*
X156345215Y-78469669D01*
X156326397Y-78266586D01*
X156270582Y-78070419D01*
X156179673Y-77887848D01*
X156086334Y-77764247D01*
X156056762Y-77725087D01*
X155906041Y-77587688D01*
X155906039Y-77587686D01*
X155732642Y-77480324D01*
X155732635Y-77480320D01*
X155637546Y-77443483D01*
X155542456Y-77406645D01*
X155341976Y-77369169D01*
X155138024Y-77369169D01*
X154937544Y-77406645D01*
X154937541Y-77406645D01*
X154937541Y-77406646D01*
X154747364Y-77480320D01*
X154747357Y-77480324D01*
X154573960Y-77587686D01*
X154573958Y-77587688D01*
X154423237Y-77725087D01*
X154300327Y-77887847D01*
X154209422Y-78070408D01*
X154209417Y-78070421D01*
X154153602Y-78266586D01*
X154134785Y-78469668D01*
X154134785Y-78469669D01*
X136874749Y-78469669D01*
X136840913Y-78350750D01*
X136750004Y-78168179D01*
X136627095Y-78005421D01*
X136627093Y-78005418D01*
X136476372Y-77868019D01*
X136476370Y-77868017D01*
X136302973Y-77760655D01*
X136302966Y-77760651D01*
X136207877Y-77723814D01*
X136112787Y-77686976D01*
X135912307Y-77649500D01*
X135708355Y-77649500D01*
X135507875Y-77686976D01*
X135507872Y-77686976D01*
X135507872Y-77686977D01*
X135317695Y-77760651D01*
X135317688Y-77760655D01*
X135144291Y-77868017D01*
X135144289Y-77868019D01*
X134993568Y-78005418D01*
X134870658Y-78168178D01*
X134779753Y-78350739D01*
X134779748Y-78350752D01*
X134723933Y-78546917D01*
X134705116Y-78749999D01*
X134705116Y-78750000D01*
X119380500Y-78750000D01*
X119380500Y-77365000D01*
X131865116Y-77365000D01*
X131883933Y-77568082D01*
X131939748Y-77764247D01*
X131939753Y-77764260D01*
X132030658Y-77946821D01*
X132153568Y-78109581D01*
X132304289Y-78246980D01*
X132304291Y-78246982D01*
X132335953Y-78266586D01*
X132477694Y-78354348D01*
X132667875Y-78428024D01*
X132868355Y-78465500D01*
X132868357Y-78465500D01*
X133072305Y-78465500D01*
X133072307Y-78465500D01*
X133272787Y-78428024D01*
X133462968Y-78354348D01*
X133636372Y-78246981D01*
X133787095Y-78109579D01*
X133910004Y-77946821D01*
X134000913Y-77764250D01*
X134056728Y-77568083D01*
X134075546Y-77365000D01*
X134056728Y-77161917D01*
X134034749Y-77084669D01*
X151294785Y-77084669D01*
X151313602Y-77287751D01*
X151369417Y-77483916D01*
X151369422Y-77483929D01*
X151460327Y-77666490D01*
X151583237Y-77829250D01*
X151733958Y-77966649D01*
X151733960Y-77966651D01*
X151796576Y-78005421D01*
X151907363Y-78074017D01*
X152097544Y-78147693D01*
X152298024Y-78185169D01*
X152298026Y-78185169D01*
X152501974Y-78185169D01*
X152501976Y-78185169D01*
X152702456Y-78147693D01*
X152892637Y-78074017D01*
X153066041Y-77966650D01*
X153216764Y-77829248D01*
X153339673Y-77666490D01*
X153430582Y-77483919D01*
X153464418Y-77365000D01*
X169965116Y-77365000D01*
X169983933Y-77568082D01*
X170039748Y-77764247D01*
X170039753Y-77764260D01*
X170130658Y-77946821D01*
X170253568Y-78109581D01*
X170404289Y-78246980D01*
X170404291Y-78246982D01*
X170435953Y-78266586D01*
X170577694Y-78354348D01*
X170767875Y-78428024D01*
X170968355Y-78465500D01*
X170968357Y-78465500D01*
X171172305Y-78465500D01*
X171172307Y-78465500D01*
X171372787Y-78428024D01*
X171562968Y-78354348D01*
X171736372Y-78246981D01*
X171887095Y-78109579D01*
X172010004Y-77946821D01*
X172100913Y-77764250D01*
X172156728Y-77568083D01*
X172175546Y-77365000D01*
X172156728Y-77161917D01*
X172100913Y-76965750D01*
X172010004Y-76783179D01*
X171887095Y-76620421D01*
X171887093Y-76620418D01*
X171736372Y-76483019D01*
X171736370Y-76483017D01*
X171562973Y-76375655D01*
X171562966Y-76375651D01*
X171467877Y-76338814D01*
X171372787Y-76301976D01*
X171172307Y-76264500D01*
X170968355Y-76264500D01*
X170767875Y-76301976D01*
X170767872Y-76301976D01*
X170767872Y-76301977D01*
X170577695Y-76375651D01*
X170577688Y-76375655D01*
X170404291Y-76483017D01*
X170404289Y-76483019D01*
X170253568Y-76620418D01*
X170130658Y-76783178D01*
X170039753Y-76965739D01*
X170039748Y-76965752D01*
X169983933Y-77161917D01*
X169965116Y-77364999D01*
X169965116Y-77365000D01*
X153464418Y-77365000D01*
X153486397Y-77287752D01*
X153505215Y-77084669D01*
X153486397Y-76881586D01*
X153430582Y-76685419D01*
X153339673Y-76502848D01*
X153246334Y-76379247D01*
X153216762Y-76340087D01*
X153066041Y-76202688D01*
X153066039Y-76202686D01*
X152892642Y-76095324D01*
X152892635Y-76095320D01*
X152797546Y-76058483D01*
X152702456Y-76021645D01*
X152501976Y-75984169D01*
X152298024Y-75984169D01*
X152097544Y-76021645D01*
X152097541Y-76021645D01*
X152097541Y-76021646D01*
X151907364Y-76095320D01*
X151907357Y-76095324D01*
X151733960Y-76202686D01*
X151733958Y-76202688D01*
X151583237Y-76340087D01*
X151460327Y-76502847D01*
X151369422Y-76685408D01*
X151369417Y-76685421D01*
X151313602Y-76881586D01*
X151294785Y-77084668D01*
X151294785Y-77084669D01*
X134034749Y-77084669D01*
X134000913Y-76965750D01*
X133910004Y-76783179D01*
X133787095Y-76620421D01*
X133787093Y-76620418D01*
X133636372Y-76483019D01*
X133636370Y-76483017D01*
X133462973Y-76375655D01*
X133462966Y-76375651D01*
X133367877Y-76338814D01*
X133272787Y-76301976D01*
X133072307Y-76264500D01*
X132868355Y-76264500D01*
X132667875Y-76301976D01*
X132667872Y-76301976D01*
X132667872Y-76301977D01*
X132477695Y-76375651D01*
X132477688Y-76375655D01*
X132304291Y-76483017D01*
X132304289Y-76483019D01*
X132153568Y-76620418D01*
X132030658Y-76783178D01*
X131939753Y-76965739D01*
X131939748Y-76965752D01*
X131883933Y-77161917D01*
X131865116Y-77364999D01*
X131865116Y-77365000D01*
X119380500Y-77365000D01*
X119380500Y-75980000D01*
X134705116Y-75980000D01*
X134723933Y-76183082D01*
X134779748Y-76379247D01*
X134779753Y-76379260D01*
X134870658Y-76561821D01*
X134993568Y-76724581D01*
X135144289Y-76861980D01*
X135144291Y-76861982D01*
X135175953Y-76881586D01*
X135317694Y-76969348D01*
X135507875Y-77043024D01*
X135708355Y-77080500D01*
X135708357Y-77080500D01*
X135912305Y-77080500D01*
X135912307Y-77080500D01*
X136112787Y-77043024D01*
X136302968Y-76969348D01*
X136476372Y-76861981D01*
X136627095Y-76724579D01*
X136750004Y-76561821D01*
X136840913Y-76379250D01*
X136896728Y-76183083D01*
X136915546Y-75980000D01*
X136896728Y-75776917D01*
X136874749Y-75699669D01*
X154134785Y-75699669D01*
X154153602Y-75902751D01*
X154209417Y-76098916D01*
X154209422Y-76098929D01*
X154300327Y-76281490D01*
X154423237Y-76444250D01*
X154573958Y-76581649D01*
X154573960Y-76581651D01*
X154636576Y-76620421D01*
X154747363Y-76689017D01*
X154937544Y-76762693D01*
X155138024Y-76800169D01*
X155138026Y-76800169D01*
X155341974Y-76800169D01*
X155341976Y-76800169D01*
X155542456Y-76762693D01*
X155732637Y-76689017D01*
X155906041Y-76581650D01*
X156056764Y-76444248D01*
X156179673Y-76281490D01*
X156270582Y-76098919D01*
X156304418Y-75980000D01*
X172805116Y-75980000D01*
X172823933Y-76183082D01*
X172879748Y-76379247D01*
X172879753Y-76379260D01*
X172970658Y-76561821D01*
X173093568Y-76724581D01*
X173244289Y-76861980D01*
X173244291Y-76861982D01*
X173275953Y-76881586D01*
X173417694Y-76969348D01*
X173607875Y-77043024D01*
X173808355Y-77080500D01*
X173808357Y-77080500D01*
X174012305Y-77080500D01*
X174012307Y-77080500D01*
X174212787Y-77043024D01*
X174402968Y-76969348D01*
X174576372Y-76861981D01*
X174727095Y-76724579D01*
X174850004Y-76561821D01*
X174940913Y-76379250D01*
X174996728Y-76183083D01*
X175015546Y-75980000D01*
X174996728Y-75776917D01*
X174940913Y-75580750D01*
X174850004Y-75398179D01*
X174727095Y-75235421D01*
X174727093Y-75235418D01*
X174576372Y-75098019D01*
X174576370Y-75098017D01*
X174402973Y-74990655D01*
X174402966Y-74990651D01*
X174307877Y-74953814D01*
X174212787Y-74916976D01*
X174012307Y-74879500D01*
X173808355Y-74879500D01*
X173607875Y-74916976D01*
X173607872Y-74916976D01*
X173607872Y-74916977D01*
X173417695Y-74990651D01*
X173417688Y-74990655D01*
X173244291Y-75098017D01*
X173244289Y-75098019D01*
X173093568Y-75235418D01*
X172970658Y-75398178D01*
X172879753Y-75580739D01*
X172879748Y-75580752D01*
X172823933Y-75776917D01*
X172805116Y-75979999D01*
X172805116Y-75980000D01*
X156304418Y-75980000D01*
X156326397Y-75902752D01*
X156345215Y-75699669D01*
X156326397Y-75496586D01*
X156270582Y-75300419D01*
X156179673Y-75117848D01*
X156086334Y-74994247D01*
X156056762Y-74955087D01*
X155906041Y-74817688D01*
X155906039Y-74817686D01*
X155732642Y-74710324D01*
X155732635Y-74710320D01*
X155637546Y-74673483D01*
X155542456Y-74636645D01*
X155341976Y-74599169D01*
X155138024Y-74599169D01*
X154937544Y-74636645D01*
X154937541Y-74636645D01*
X154937541Y-74636646D01*
X154747364Y-74710320D01*
X154747357Y-74710324D01*
X154573960Y-74817686D01*
X154573958Y-74817688D01*
X154423237Y-74955087D01*
X154300327Y-75117847D01*
X154209422Y-75300408D01*
X154209417Y-75300421D01*
X154153602Y-75496586D01*
X154134785Y-75699668D01*
X154134785Y-75699669D01*
X136874749Y-75699669D01*
X136840913Y-75580750D01*
X136750004Y-75398179D01*
X136627095Y-75235421D01*
X136627093Y-75235418D01*
X136476372Y-75098019D01*
X136476370Y-75098017D01*
X136302973Y-74990655D01*
X136302966Y-74990651D01*
X136207877Y-74953814D01*
X136112787Y-74916976D01*
X135912307Y-74879500D01*
X135708355Y-74879500D01*
X135507875Y-74916976D01*
X135507872Y-74916976D01*
X135507872Y-74916977D01*
X135317695Y-74990651D01*
X135317688Y-74990655D01*
X135144291Y-75098017D01*
X135144289Y-75098019D01*
X134993568Y-75235418D01*
X134870658Y-75398178D01*
X134779753Y-75580739D01*
X134779748Y-75580752D01*
X134723933Y-75776917D01*
X134705116Y-75979999D01*
X134705116Y-75980000D01*
X119380500Y-75980000D01*
X119380500Y-74595000D01*
X131865116Y-74595000D01*
X131883933Y-74798082D01*
X131939748Y-74994247D01*
X131939753Y-74994260D01*
X132030658Y-75176821D01*
X132153568Y-75339581D01*
X132304289Y-75476980D01*
X132304291Y-75476982D01*
X132335953Y-75496586D01*
X132477694Y-75584348D01*
X132667875Y-75658024D01*
X132868355Y-75695500D01*
X132868357Y-75695500D01*
X133072305Y-75695500D01*
X133072307Y-75695500D01*
X133272787Y-75658024D01*
X133462968Y-75584348D01*
X133636372Y-75476981D01*
X133787095Y-75339579D01*
X133910004Y-75176821D01*
X134000913Y-74994250D01*
X134056728Y-74798083D01*
X134075546Y-74595000D01*
X134056728Y-74391917D01*
X134034749Y-74314669D01*
X151294785Y-74314669D01*
X151313602Y-74517751D01*
X151369417Y-74713916D01*
X151369422Y-74713929D01*
X151460327Y-74896490D01*
X151583237Y-75059250D01*
X151733958Y-75196649D01*
X151733960Y-75196651D01*
X151796576Y-75235421D01*
X151907363Y-75304017D01*
X152097544Y-75377693D01*
X152298024Y-75415169D01*
X152298026Y-75415169D01*
X152501974Y-75415169D01*
X152501976Y-75415169D01*
X152702456Y-75377693D01*
X152892637Y-75304017D01*
X153066041Y-75196650D01*
X153216764Y-75059248D01*
X153339673Y-74896490D01*
X153430582Y-74713919D01*
X153464418Y-74595000D01*
X169965116Y-74595000D01*
X169983933Y-74798082D01*
X170039748Y-74994247D01*
X170039753Y-74994260D01*
X170130658Y-75176821D01*
X170253568Y-75339581D01*
X170404289Y-75476980D01*
X170404291Y-75476982D01*
X170435953Y-75496586D01*
X170577694Y-75584348D01*
X170767875Y-75658024D01*
X170968355Y-75695500D01*
X170968357Y-75695500D01*
X171172305Y-75695500D01*
X171172307Y-75695500D01*
X171372787Y-75658024D01*
X171562968Y-75584348D01*
X171736372Y-75476981D01*
X171887095Y-75339579D01*
X172010004Y-75176821D01*
X172100913Y-74994250D01*
X172156728Y-74798083D01*
X172175546Y-74595000D01*
X172156728Y-74391917D01*
X172100913Y-74195750D01*
X172010004Y-74013179D01*
X171887095Y-73850421D01*
X171887093Y-73850418D01*
X171736372Y-73713019D01*
X171736370Y-73713017D01*
X171562973Y-73605655D01*
X171562966Y-73605651D01*
X171467877Y-73568814D01*
X171372787Y-73531976D01*
X171172307Y-73494500D01*
X170968355Y-73494500D01*
X170767875Y-73531976D01*
X170767872Y-73531976D01*
X170767872Y-73531977D01*
X170577695Y-73605651D01*
X170577688Y-73605655D01*
X170404291Y-73713017D01*
X170404289Y-73713019D01*
X170253568Y-73850418D01*
X170130658Y-74013178D01*
X170039753Y-74195739D01*
X170039748Y-74195752D01*
X169983933Y-74391917D01*
X169965116Y-74594999D01*
X169965116Y-74595000D01*
X153464418Y-74595000D01*
X153486397Y-74517752D01*
X153505215Y-74314669D01*
X153486397Y-74111586D01*
X153430582Y-73915419D01*
X153339673Y-73732848D01*
X153246334Y-73609247D01*
X153216762Y-73570087D01*
X153066041Y-73432688D01*
X153066039Y-73432686D01*
X152892642Y-73325324D01*
X152892635Y-73325320D01*
X152797546Y-73288483D01*
X152702456Y-73251645D01*
X152501976Y-73214169D01*
X152298024Y-73214169D01*
X152097544Y-73251645D01*
X152097541Y-73251645D01*
X152097541Y-73251646D01*
X151907364Y-73325320D01*
X151907357Y-73325324D01*
X151733960Y-73432686D01*
X151733958Y-73432688D01*
X151583237Y-73570087D01*
X151460327Y-73732847D01*
X151369422Y-73915408D01*
X151369417Y-73915421D01*
X151313602Y-74111586D01*
X151294785Y-74314668D01*
X151294785Y-74314669D01*
X134034749Y-74314669D01*
X134000913Y-74195750D01*
X133910004Y-74013179D01*
X133787095Y-73850421D01*
X133787093Y-73850418D01*
X133636372Y-73713019D01*
X133636370Y-73713017D01*
X133462973Y-73605655D01*
X133462966Y-73605651D01*
X133367877Y-73568814D01*
X133272787Y-73531976D01*
X133072307Y-73494500D01*
X132868355Y-73494500D01*
X132667875Y-73531976D01*
X132667872Y-73531976D01*
X132667872Y-73531977D01*
X132477695Y-73605651D01*
X132477688Y-73605655D01*
X132304291Y-73713017D01*
X132304289Y-73713019D01*
X132153568Y-73850418D01*
X132030658Y-74013178D01*
X131939753Y-74195739D01*
X131939748Y-74195752D01*
X131883933Y-74391917D01*
X131865116Y-74594999D01*
X131865116Y-74595000D01*
X119380500Y-74595000D01*
X119380500Y-73210000D01*
X134705116Y-73210000D01*
X134723933Y-73413082D01*
X134779748Y-73609247D01*
X134779753Y-73609260D01*
X134870658Y-73791821D01*
X134993568Y-73954581D01*
X135144289Y-74091980D01*
X135144291Y-74091982D01*
X135175953Y-74111586D01*
X135317694Y-74199348D01*
X135507875Y-74273024D01*
X135708355Y-74310500D01*
X135708357Y-74310500D01*
X135912305Y-74310500D01*
X135912307Y-74310500D01*
X136112787Y-74273024D01*
X136302968Y-74199348D01*
X136476372Y-74091981D01*
X136627095Y-73954579D01*
X136750004Y-73791821D01*
X136840913Y-73609250D01*
X136896728Y-73413083D01*
X136915546Y-73210000D01*
X136896728Y-73006917D01*
X136874749Y-72929669D01*
X154134785Y-72929669D01*
X154153602Y-73132751D01*
X154209417Y-73328916D01*
X154209422Y-73328929D01*
X154300327Y-73511490D01*
X154423237Y-73674250D01*
X154573958Y-73811649D01*
X154573960Y-73811651D01*
X154636576Y-73850421D01*
X154747363Y-73919017D01*
X154937544Y-73992693D01*
X155138024Y-74030169D01*
X155138026Y-74030169D01*
X155341974Y-74030169D01*
X155341976Y-74030169D01*
X155542456Y-73992693D01*
X155732637Y-73919017D01*
X155906041Y-73811650D01*
X156056764Y-73674248D01*
X156179673Y-73511490D01*
X156270582Y-73328919D01*
X156304418Y-73210000D01*
X172805116Y-73210000D01*
X172823933Y-73413082D01*
X172879748Y-73609247D01*
X172879753Y-73609260D01*
X172970658Y-73791821D01*
X173093568Y-73954581D01*
X173244289Y-74091980D01*
X173244291Y-74091982D01*
X173275953Y-74111586D01*
X173417694Y-74199348D01*
X173607875Y-74273024D01*
X173808355Y-74310500D01*
X173808357Y-74310500D01*
X174012305Y-74310500D01*
X174012307Y-74310500D01*
X174212787Y-74273024D01*
X174402968Y-74199348D01*
X174576372Y-74091981D01*
X174727095Y-73954579D01*
X174850004Y-73791821D01*
X174940913Y-73609250D01*
X174996728Y-73413083D01*
X175015546Y-73210000D01*
X174996728Y-73006917D01*
X174940913Y-72810750D01*
X174850004Y-72628179D01*
X174727095Y-72465421D01*
X174727093Y-72465418D01*
X174576372Y-72328019D01*
X174576370Y-72328017D01*
X174402973Y-72220655D01*
X174402966Y-72220651D01*
X174307877Y-72183814D01*
X174212787Y-72146976D01*
X174012307Y-72109500D01*
X173808355Y-72109500D01*
X173607875Y-72146976D01*
X173607872Y-72146976D01*
X173607872Y-72146977D01*
X173417695Y-72220651D01*
X173417688Y-72220655D01*
X173244291Y-72328017D01*
X173244289Y-72328019D01*
X173093568Y-72465418D01*
X172970658Y-72628178D01*
X172879753Y-72810739D01*
X172879748Y-72810752D01*
X172823933Y-73006917D01*
X172805116Y-73209999D01*
X172805116Y-73210000D01*
X156304418Y-73210000D01*
X156326397Y-73132752D01*
X156345215Y-72929669D01*
X156326397Y-72726586D01*
X156270582Y-72530419D01*
X156179673Y-72347848D01*
X156120704Y-72269760D01*
X156056762Y-72185087D01*
X155906041Y-72047688D01*
X155906039Y-72047686D01*
X155732642Y-71940324D01*
X155732635Y-71940320D01*
X155637546Y-71903483D01*
X155542456Y-71866645D01*
X155341976Y-71829169D01*
X155138024Y-71829169D01*
X154937544Y-71866645D01*
X154937541Y-71866645D01*
X154937541Y-71866646D01*
X154747364Y-71940320D01*
X154747357Y-71940324D01*
X154573960Y-72047686D01*
X154573958Y-72047688D01*
X154423237Y-72185087D01*
X154300327Y-72347847D01*
X154209422Y-72530408D01*
X154209417Y-72530421D01*
X154153602Y-72726586D01*
X154134785Y-72929668D01*
X154134785Y-72929669D01*
X136874749Y-72929669D01*
X136840913Y-72810750D01*
X136750004Y-72628179D01*
X136627095Y-72465421D01*
X136627093Y-72465418D01*
X136476372Y-72328019D01*
X136476370Y-72328017D01*
X136302973Y-72220655D01*
X136302966Y-72220651D01*
X136207877Y-72183814D01*
X136112787Y-72146976D01*
X135912307Y-72109500D01*
X135708355Y-72109500D01*
X135507875Y-72146976D01*
X135507872Y-72146976D01*
X135507872Y-72146977D01*
X135317695Y-72220651D01*
X135317688Y-72220655D01*
X135144291Y-72328017D01*
X135144289Y-72328019D01*
X134993568Y-72465418D01*
X134870658Y-72628178D01*
X134779753Y-72810739D01*
X134779748Y-72810752D01*
X134723933Y-73006917D01*
X134705116Y-73209999D01*
X134705116Y-73210000D01*
X119380500Y-73210000D01*
X119380500Y-66250005D01*
X131885388Y-66250005D01*
X131905138Y-66563942D01*
X131905139Y-66563949D01*
X131964086Y-66872958D01*
X132061294Y-67172132D01*
X132061296Y-67172137D01*
X132195231Y-67456761D01*
X132195234Y-67456767D01*
X132363788Y-67722367D01*
X132363791Y-67722371D01*
X132454617Y-67832160D01*
X133092597Y-67194180D01*
X133255461Y-67384870D01*
X133446149Y-67547732D01*
X132805302Y-68188579D01*
X132805303Y-68188581D01*
X133048103Y-68364985D01*
X133048121Y-68364996D01*
X133323778Y-68516540D01*
X133323786Y-68516544D01*
X133616257Y-68632340D01*
X133920951Y-68710573D01*
X133920960Y-68710575D01*
X134233032Y-68749999D01*
X134233046Y-68750000D01*
X134547616Y-68750000D01*
X134547629Y-68749999D01*
X134859701Y-68710575D01*
X134859710Y-68710573D01*
X135164404Y-68632340D01*
X135456875Y-68516544D01*
X135456883Y-68516540D01*
X135732540Y-68364996D01*
X135732550Y-68364990D01*
X135975357Y-68188579D01*
X135975358Y-68188579D01*
X135334511Y-67547733D01*
X135525201Y-67384870D01*
X135688064Y-67194181D01*
X136326043Y-67832160D01*
X136416875Y-67722364D01*
X136585427Y-67456767D01*
X136585430Y-67456761D01*
X136719365Y-67172137D01*
X136719367Y-67172132D01*
X136816575Y-66872958D01*
X136875522Y-66563949D01*
X136875523Y-66563942D01*
X136895274Y-66250005D01*
X136895274Y-66249994D01*
X136877638Y-65969674D01*
X151315057Y-65969674D01*
X151334807Y-66283611D01*
X151334808Y-66283618D01*
X151393755Y-66592627D01*
X151490963Y-66891801D01*
X151490965Y-66891806D01*
X151624900Y-67176430D01*
X151624903Y-67176436D01*
X151793457Y-67442036D01*
X151793460Y-67442040D01*
X151884286Y-67551829D01*
X152522266Y-66913849D01*
X152685130Y-67104539D01*
X152875818Y-67267401D01*
X152234971Y-67908248D01*
X152234972Y-67908250D01*
X152477772Y-68084654D01*
X152477790Y-68084665D01*
X152753447Y-68236209D01*
X152753455Y-68236213D01*
X153045926Y-68352009D01*
X153350620Y-68430242D01*
X153350629Y-68430244D01*
X153662701Y-68469668D01*
X153662715Y-68469669D01*
X153977285Y-68469669D01*
X153977298Y-68469668D01*
X154289370Y-68430244D01*
X154289379Y-68430242D01*
X154594073Y-68352009D01*
X154886544Y-68236213D01*
X154886552Y-68236209D01*
X155162209Y-68084665D01*
X155162219Y-68084659D01*
X155405026Y-67908248D01*
X155405027Y-67908248D01*
X154764180Y-67267402D01*
X154954870Y-67104539D01*
X155117733Y-66913850D01*
X155755712Y-67551829D01*
X155846544Y-67442033D01*
X156015096Y-67176436D01*
X156015099Y-67176430D01*
X156149034Y-66891806D01*
X156149036Y-66891801D01*
X156246244Y-66592627D01*
X156305191Y-66283618D01*
X156305192Y-66283611D01*
X156307306Y-66250005D01*
X169985388Y-66250005D01*
X170005138Y-66563942D01*
X170005139Y-66563949D01*
X170064086Y-66872958D01*
X170161294Y-67172132D01*
X170161296Y-67172137D01*
X170295231Y-67456761D01*
X170295234Y-67456767D01*
X170463788Y-67722367D01*
X170463791Y-67722371D01*
X170554617Y-67832160D01*
X171192597Y-67194180D01*
X171355461Y-67384870D01*
X171546149Y-67547732D01*
X170905302Y-68188579D01*
X170905303Y-68188581D01*
X171148103Y-68364985D01*
X171148121Y-68364996D01*
X171423778Y-68516540D01*
X171423786Y-68516544D01*
X171716257Y-68632340D01*
X172020951Y-68710573D01*
X172020960Y-68710575D01*
X172333032Y-68749999D01*
X172333046Y-68750000D01*
X172647616Y-68750000D01*
X172647629Y-68749999D01*
X172959701Y-68710575D01*
X172959710Y-68710573D01*
X173264404Y-68632340D01*
X173556875Y-68516544D01*
X173556883Y-68516540D01*
X173832540Y-68364996D01*
X173832550Y-68364990D01*
X174075357Y-68188579D01*
X174075358Y-68188579D01*
X173434511Y-67547733D01*
X173625201Y-67384870D01*
X173788064Y-67194181D01*
X174426043Y-67832160D01*
X174516875Y-67722364D01*
X174685427Y-67456767D01*
X174685430Y-67456761D01*
X174819365Y-67172137D01*
X174819367Y-67172132D01*
X174916575Y-66872958D01*
X174975522Y-66563949D01*
X174975523Y-66563942D01*
X174995274Y-66250005D01*
X174995274Y-66249994D01*
X174975523Y-65936057D01*
X174975522Y-65936050D01*
X174916575Y-65627041D01*
X174819367Y-65327867D01*
X174819365Y-65327862D01*
X174685430Y-65043238D01*
X174685427Y-65043232D01*
X174516873Y-64777632D01*
X174516870Y-64777628D01*
X174426043Y-64667838D01*
X173788063Y-65305818D01*
X173625201Y-65115130D01*
X173434511Y-64952266D01*
X174075358Y-64311419D01*
X174075357Y-64311417D01*
X173832558Y-64135014D01*
X173832540Y-64135003D01*
X173556883Y-63983459D01*
X173556875Y-63983455D01*
X173264404Y-63867659D01*
X172959710Y-63789426D01*
X172959701Y-63789424D01*
X172647629Y-63750000D01*
X172333032Y-63750000D01*
X172020960Y-63789424D01*
X172020951Y-63789426D01*
X171716257Y-63867659D01*
X171423786Y-63983455D01*
X171423778Y-63983459D01*
X171148118Y-64135004D01*
X171148113Y-64135007D01*
X170905303Y-64311418D01*
X170905302Y-64311419D01*
X171546150Y-64952266D01*
X171355461Y-65115130D01*
X171192597Y-65305818D01*
X170554617Y-64667838D01*
X170554616Y-64667838D01*
X170463790Y-64777629D01*
X170463788Y-64777632D01*
X170295234Y-65043232D01*
X170295231Y-65043238D01*
X170161296Y-65327862D01*
X170161294Y-65327867D01*
X170064086Y-65627041D01*
X170005139Y-65936050D01*
X170005138Y-65936057D01*
X169985388Y-66249994D01*
X169985388Y-66250005D01*
X156307306Y-66250005D01*
X156324943Y-65969674D01*
X156324943Y-65969663D01*
X156305192Y-65655726D01*
X156305191Y-65655719D01*
X156246244Y-65346710D01*
X156149036Y-65047536D01*
X156149034Y-65047531D01*
X156015099Y-64762907D01*
X156015096Y-64762901D01*
X155846542Y-64497301D01*
X155846539Y-64497297D01*
X155755712Y-64387507D01*
X155117732Y-65025487D01*
X154954870Y-64834799D01*
X154764180Y-64671935D01*
X155405027Y-64031088D01*
X155405026Y-64031086D01*
X155162227Y-63854683D01*
X155162209Y-63854672D01*
X154886552Y-63703128D01*
X154886544Y-63703124D01*
X154594073Y-63587328D01*
X154289379Y-63509095D01*
X154289370Y-63509093D01*
X153977298Y-63469669D01*
X153662701Y-63469669D01*
X153350629Y-63509093D01*
X153350620Y-63509095D01*
X153045926Y-63587328D01*
X152753455Y-63703124D01*
X152753447Y-63703128D01*
X152477787Y-63854673D01*
X152477782Y-63854676D01*
X152234972Y-64031087D01*
X152234971Y-64031088D01*
X152875819Y-64671935D01*
X152685130Y-64834799D01*
X152522266Y-65025487D01*
X151884286Y-64387507D01*
X151884285Y-64387507D01*
X151793459Y-64497298D01*
X151793457Y-64497301D01*
X151624903Y-64762901D01*
X151624900Y-64762907D01*
X151490965Y-65047531D01*
X151490963Y-65047536D01*
X151393755Y-65346710D01*
X151334808Y-65655719D01*
X151334807Y-65655726D01*
X151315057Y-65969663D01*
X151315057Y-65969674D01*
X136877638Y-65969674D01*
X136875523Y-65936057D01*
X136875522Y-65936050D01*
X136816575Y-65627041D01*
X136719367Y-65327867D01*
X136719365Y-65327862D01*
X136585430Y-65043238D01*
X136585427Y-65043232D01*
X136416873Y-64777632D01*
X136416870Y-64777628D01*
X136326043Y-64667838D01*
X135688063Y-65305818D01*
X135525201Y-65115130D01*
X135334511Y-64952266D01*
X135975358Y-64311419D01*
X135975357Y-64311417D01*
X135732558Y-64135014D01*
X135732540Y-64135003D01*
X135456883Y-63983459D01*
X135456875Y-63983455D01*
X135164404Y-63867659D01*
X134859710Y-63789426D01*
X134859701Y-63789424D01*
X134547629Y-63750000D01*
X134233032Y-63750000D01*
X133920960Y-63789424D01*
X133920951Y-63789426D01*
X133616257Y-63867659D01*
X133323786Y-63983455D01*
X133323778Y-63983459D01*
X133048118Y-64135004D01*
X133048113Y-64135007D01*
X132805303Y-64311418D01*
X132805302Y-64311419D01*
X133446150Y-64952266D01*
X133255461Y-65115130D01*
X133092597Y-65305818D01*
X132454617Y-64667838D01*
X132454616Y-64667838D01*
X132363790Y-64777629D01*
X132363788Y-64777632D01*
X132195234Y-65043232D01*
X132195231Y-65043238D01*
X132061296Y-65327862D01*
X132061294Y-65327867D01*
X131964086Y-65627041D01*
X131905139Y-65936050D01*
X131905138Y-65936057D01*
X131885388Y-66249994D01*
X131885388Y-66250005D01*
X119380500Y-66250005D01*
X119380500Y-60962560D01*
X119380553Y-60960000D01*
X123104341Y-60960000D01*
X123124936Y-61195403D01*
X123124938Y-61195413D01*
X123186094Y-61423655D01*
X123186096Y-61423659D01*
X123186097Y-61423663D01*
X123236031Y-61530746D01*
X123285964Y-61637828D01*
X123285965Y-61637830D01*
X123421505Y-61831402D01*
X123588597Y-61998494D01*
X123782169Y-62134034D01*
X123782171Y-62134035D01*
X123996337Y-62233903D01*
X124224592Y-62295063D01*
X124401032Y-62310499D01*
X124401033Y-62310500D01*
X124401034Y-62310500D01*
X124518967Y-62310500D01*
X124518967Y-62310499D01*
X124695408Y-62295063D01*
X124923663Y-62233903D01*
X125137829Y-62134035D01*
X125331401Y-61998495D01*
X125498495Y-61831401D01*
X125634035Y-61637830D01*
X125733903Y-61423663D01*
X125795063Y-61195408D01*
X125815659Y-60960000D01*
X181524341Y-60960000D01*
X181544936Y-61195403D01*
X181544938Y-61195413D01*
X181606094Y-61423655D01*
X181606096Y-61423659D01*
X181606097Y-61423663D01*
X181656031Y-61530746D01*
X181705964Y-61637828D01*
X181705965Y-61637830D01*
X181841505Y-61831402D01*
X182008597Y-61998494D01*
X182202169Y-62134034D01*
X182202171Y-62134035D01*
X182416337Y-62233903D01*
X182644592Y-62295063D01*
X182821032Y-62310499D01*
X182821033Y-62310500D01*
X182821034Y-62310500D01*
X182938967Y-62310500D01*
X182938967Y-62310499D01*
X183115408Y-62295063D01*
X183343663Y-62233903D01*
X183557829Y-62134035D01*
X183751401Y-61998495D01*
X183918495Y-61831401D01*
X184054035Y-61637830D01*
X184153903Y-61423663D01*
X184215063Y-61195408D01*
X184235659Y-60960000D01*
X184215063Y-60724592D01*
X184168626Y-60551285D01*
X184153905Y-60496344D01*
X184153904Y-60496343D01*
X184153903Y-60496337D01*
X184054035Y-60282171D01*
X184054034Y-60282169D01*
X183918494Y-60088597D01*
X183751402Y-59921505D01*
X183557830Y-59785965D01*
X183557828Y-59785964D01*
X183401476Y-59713056D01*
X183343663Y-59686097D01*
X183343659Y-59686096D01*
X183343655Y-59686094D01*
X183115413Y-59624938D01*
X183115403Y-59624936D01*
X182938967Y-59609500D01*
X182938966Y-59609500D01*
X182821034Y-59609500D01*
X182821033Y-59609500D01*
X182644596Y-59624936D01*
X182644586Y-59624938D01*
X182416344Y-59686094D01*
X182416335Y-59686098D01*
X182202171Y-59785964D01*
X182202169Y-59785965D01*
X182008597Y-59921505D01*
X181841506Y-60088597D01*
X181841501Y-60088604D01*
X181705967Y-60282165D01*
X181705965Y-60282169D01*
X181606098Y-60496335D01*
X181606094Y-60496344D01*
X181544938Y-60724586D01*
X181544936Y-60724596D01*
X181524341Y-60959999D01*
X181524341Y-60960000D01*
X125815659Y-60960000D01*
X125795063Y-60724592D01*
X125748626Y-60551285D01*
X125733905Y-60496344D01*
X125733904Y-60496343D01*
X125733903Y-60496337D01*
X125634035Y-60282171D01*
X125634034Y-60282169D01*
X125498494Y-60088597D01*
X125331402Y-59921505D01*
X125137830Y-59785965D01*
X125137828Y-59785964D01*
X124981476Y-59713056D01*
X124923663Y-59686097D01*
X124923659Y-59686096D01*
X124923655Y-59686094D01*
X124695413Y-59624938D01*
X124695403Y-59624936D01*
X124518967Y-59609500D01*
X124518966Y-59609500D01*
X124401034Y-59609500D01*
X124401033Y-59609500D01*
X124224596Y-59624936D01*
X124224586Y-59624938D01*
X123996344Y-59686094D01*
X123996335Y-59686098D01*
X123782171Y-59785964D01*
X123782169Y-59785965D01*
X123588597Y-59921505D01*
X123421506Y-60088597D01*
X123421501Y-60088604D01*
X123285967Y-60282165D01*
X123285965Y-60282169D01*
X123186098Y-60496335D01*
X123186094Y-60496344D01*
X123124938Y-60724586D01*
X123124936Y-60724596D01*
X123104341Y-60959999D01*
X123104341Y-60960000D01*
X119380553Y-60960000D01*
X119380606Y-60957436D01*
X119389495Y-60742496D01*
X119398348Y-60539746D01*
X119399177Y-60529883D01*
X119426031Y-60314444D01*
X119426073Y-60314123D01*
X119452750Y-60111486D01*
X119454317Y-60102290D01*
X119498805Y-59890115D01*
X119498994Y-59889240D01*
X119543293Y-59689419D01*
X119545498Y-59680920D01*
X119607267Y-59473440D01*
X119607835Y-59471591D01*
X119669322Y-59276576D01*
X119672027Y-59268898D01*
X119750739Y-59067176D01*
X119751599Y-59065038D01*
X119829908Y-58875983D01*
X119833031Y-58869058D01*
X119928130Y-58674530D01*
X119929416Y-58671983D01*
X120023890Y-58490500D01*
X120027348Y-58484300D01*
X120138108Y-58298420D01*
X120139977Y-58295388D01*
X120249901Y-58122843D01*
X120253511Y-58117491D01*
X120379249Y-57941385D01*
X120381727Y-57938038D01*
X120506258Y-57775746D01*
X120509958Y-57771157D01*
X120649810Y-57606032D01*
X120652931Y-57602492D01*
X120791176Y-57451624D01*
X120794827Y-57447810D01*
X120947810Y-57294827D01*
X120951624Y-57291176D01*
X121102492Y-57152931D01*
X121106032Y-57149810D01*
X121271157Y-57009958D01*
X121275746Y-57006258D01*
X121438038Y-56881727D01*
X121441385Y-56879249D01*
X121617491Y-56753511D01*
X121622843Y-56749901D01*
X121795388Y-56639977D01*
X121798420Y-56638108D01*
X121984301Y-56527347D01*
X121990500Y-56523890D01*
X122171983Y-56429416D01*
X122174530Y-56428130D01*
X122369058Y-56333031D01*
X122375983Y-56329908D01*
X122565038Y-56251599D01*
X122567176Y-56250739D01*
X122768898Y-56172027D01*
X122776576Y-56169322D01*
X122971612Y-56107828D01*
X122973438Y-56107268D01*
X123180920Y-56045498D01*
X123189419Y-56043293D01*
X123389240Y-55998994D01*
X123390115Y-55998805D01*
X123602290Y-55954317D01*
X123611486Y-55952750D01*
X123814123Y-55926073D01*
X123814444Y-55926031D01*
X124029883Y-55899177D01*
X124039746Y-55898348D01*
X124242421Y-55889499D01*
X124457437Y-55880605D01*
X124462561Y-55880500D01*
X182877439Y-55880500D01*
X182882562Y-55880605D01*
G37*
G04 #@! TD.AperFunction*
M02*
