G04 #@! TF.GenerationSoftware,KiCad,Pcbnew,7.0.2*
G04 #@! TF.CreationDate,2023-11-12T14:42:30-07:00*
G04 #@! TF.ProjectId,Relay_Board_Lucy_V1,52656c61-795f-4426-9f61-72645f4c7563,V1.0*
G04 #@! TF.SameCoordinates,Original*
G04 #@! TF.FileFunction,Soldermask,Bot*
G04 #@! TF.FilePolarity,Negative*
%FSLAX46Y46*%
G04 Gerber Fmt 4.6, Leading zero omitted, Abs format (unit mm)*
G04 Created by KiCad (PCBNEW 7.0.2) date 2023-11-12 14:42:30*
%MOMM*%
%LPD*%
G01*
G04 APERTURE LIST*
G04 Aperture macros list*
%AMRoundRect*
0 Rectangle with rounded corners*
0 $1 Rounding radius*
0 $2 $3 $4 $5 $6 $7 $8 $9 X,Y pos of 4 corners*
0 Add a 4 corners polygon primitive as box body*
4,1,4,$2,$3,$4,$5,$6,$7,$8,$9,$2,$3,0*
0 Add four circle primitives for the rounded corners*
1,1,$1+$1,$2,$3*
1,1,$1+$1,$4,$5*
1,1,$1+$1,$6,$7*
1,1,$1+$1,$8,$9*
0 Add four rect primitives between the rounded corners*
20,1,$1+$1,$2,$3,$4,$5,0*
20,1,$1+$1,$4,$5,$6,$7,0*
20,1,$1+$1,$6,$7,$8,$9,0*
20,1,$1+$1,$8,$9,$2,$3,0*%
%AMFreePoly0*
4,1,19,0.500000,-0.750000,0.000000,-0.750000,0.000000,-0.744911,-0.071157,-0.744911,-0.207708,-0.704816,-0.327430,-0.627875,-0.420627,-0.520320,-0.479746,-0.390866,-0.500000,-0.250000,-0.500000,0.250000,-0.479746,0.390866,-0.420627,0.520320,-0.327430,0.627875,-0.207708,0.704816,-0.071157,0.744911,0.000000,0.744911,0.000000,0.750000,0.500000,0.750000,0.500000,-0.750000,0.500000,-0.750000,
$1*%
%AMFreePoly1*
4,1,19,0.000000,0.744911,0.071157,0.744911,0.207708,0.704816,0.327430,0.627875,0.420627,0.520320,0.479746,0.390866,0.500000,0.250000,0.500000,-0.250000,0.479746,-0.390866,0.420627,-0.520320,0.327430,-0.627875,0.207708,-0.704816,0.071157,-0.744911,0.000000,-0.744911,0.000000,-0.750000,-0.500000,-0.750000,-0.500000,0.750000,0.000000,0.750000,0.000000,0.744911,0.000000,0.744911,
$1*%
%AMFreePoly2*
4,1,6,1.000000,0.000000,0.500000,-0.750000,-0.500000,-0.750000,-0.500000,0.750000,0.500000,0.750000,1.000000,0.000000,1.000000,0.000000,$1*%
%AMFreePoly3*
4,1,6,0.500000,-0.750000,-0.650000,-0.750000,-0.150000,0.000000,-0.650000,0.750000,0.500000,0.750000,0.500000,-0.750000,0.500000,-0.750000,$1*%
G04 Aperture macros list end*
%ADD10RoundRect,0.102000X-2.159000X-2.159000X2.159000X-2.159000X2.159000X2.159000X-2.159000X2.159000X0*%
%ADD11C,4.522000*%
%ADD12C,2.744000*%
%ADD13C,2.209800*%
%ADD14O,0.800000X0.800000*%
%ADD15O,1.800000X1.150000*%
%ADD16O,2.000000X1.450000*%
%ADD17R,1.700000X1.700000*%
%ADD18O,1.700000X1.700000*%
%ADD19C,1.000000*%
%ADD20RoundRect,0.250001X0.499999X0.499999X-0.499999X0.499999X-0.499999X-0.499999X0.499999X-0.499999X0*%
%ADD21C,1.500000*%
%ADD22C,3.200000*%
%ADD23O,7.500000X2.300000*%
%ADD24C,3.000000*%
%ADD25O,2.300000X7.500000*%
%ADD26R,1.500000X1.500000*%
%ADD27C,0.800000*%
%ADD28O,9.000000X6.000000*%
%ADD29RoundRect,0.250001X0.499999X-0.499999X0.499999X0.499999X-0.499999X0.499999X-0.499999X-0.499999X0*%
%ADD30O,6.000000X9.000000*%
%ADD31C,4.000000*%
%ADD32R,1.600000X1.600000*%
%ADD33C,1.600000*%
%ADD34RoundRect,0.150000X-0.512500X-0.150000X0.512500X-0.150000X0.512500X0.150000X-0.512500X0.150000X0*%
%ADD35RoundRect,0.200000X0.275000X-0.200000X0.275000X0.200000X-0.275000X0.200000X-0.275000X-0.200000X0*%
%ADD36RoundRect,0.200000X-0.200000X-0.275000X0.200000X-0.275000X0.200000X0.275000X-0.200000X0.275000X0*%
%ADD37R,0.650000X1.050000*%
%ADD38RoundRect,0.200000X0.200000X0.275000X-0.200000X0.275000X-0.200000X-0.275000X0.200000X-0.275000X0*%
%ADD39RoundRect,0.150000X0.150000X-0.512500X0.150000X0.512500X-0.150000X0.512500X-0.150000X-0.512500X0*%
%ADD40RoundRect,0.150000X-0.150000X0.825000X-0.150000X-0.825000X0.150000X-0.825000X0.150000X0.825000X0*%
%ADD41RoundRect,0.200000X-0.275000X0.200000X-0.275000X-0.200000X0.275000X-0.200000X0.275000X0.200000X0*%
%ADD42RoundRect,0.225000X-0.250000X0.225000X-0.250000X-0.225000X0.250000X-0.225000X0.250000X0.225000X0*%
%ADD43RoundRect,0.225000X0.225000X0.250000X-0.225000X0.250000X-0.225000X-0.250000X0.225000X-0.250000X0*%
%ADD44RoundRect,0.225000X0.250000X-0.225000X0.250000X0.225000X-0.250000X0.225000X-0.250000X-0.225000X0*%
%ADD45RoundRect,0.150000X0.512500X0.150000X-0.512500X0.150000X-0.512500X-0.150000X0.512500X-0.150000X0*%
%ADD46R,1.219200X0.558800*%
%ADD47RoundRect,0.250000X-0.450000X0.325000X-0.450000X-0.325000X0.450000X-0.325000X0.450000X0.325000X0*%
%ADD48RoundRect,0.225000X-0.225000X-0.250000X0.225000X-0.250000X0.225000X0.250000X-0.225000X0.250000X0*%
%ADD49RoundRect,0.100000X0.637500X0.100000X-0.637500X0.100000X-0.637500X-0.100000X0.637500X-0.100000X0*%
%ADD50RoundRect,0.150000X-0.150000X0.512500X-0.150000X-0.512500X0.150000X-0.512500X0.150000X0.512500X0*%
%ADD51R,1.000000X1.000000*%
%ADD52RoundRect,0.075000X0.700000X0.075000X-0.700000X0.075000X-0.700000X-0.075000X0.700000X-0.075000X0*%
%ADD53RoundRect,0.075000X0.075000X0.700000X-0.075000X0.700000X-0.075000X-0.700000X0.075000X-0.700000X0*%
%ADD54FreePoly0,90.000000*%
%ADD55FreePoly1,90.000000*%
%ADD56RoundRect,0.250000X0.325000X0.450000X-0.325000X0.450000X-0.325000X-0.450000X0.325000X-0.450000X0*%
%ADD57FreePoly2,90.000000*%
%ADD58FreePoly3,90.000000*%
%ADD59R,0.630000X0.450000*%
%ADD60R,1.700000X2.600000*%
%ADD61RoundRect,0.250000X0.275000X0.700000X-0.275000X0.700000X-0.275000X-0.700000X0.275000X-0.700000X0*%
%ADD62R,0.558800X1.219200*%
%ADD63R,1.450000X0.450000*%
%ADD64R,1.500000X1.800000*%
%ADD65R,1.200000X1.400000*%
G04 APERTURE END LIST*
D10*
X110800000Y-117100000D03*
D11*
X110800000Y-124720000D03*
D12*
X106990000Y-139960000D03*
X96830000Y-139960000D03*
D11*
X93020000Y-127260000D03*
D13*
X175641000Y-125730000D03*
X185801000Y-125730000D03*
X175641000Y-115570000D03*
X185801000Y-115570000D03*
D14*
X189700000Y-140422000D03*
X189700000Y-135422000D03*
D15*
X192450000Y-141797000D03*
D16*
X188650000Y-141647000D03*
X188650000Y-134197000D03*
D15*
X192450000Y-134047000D03*
D17*
X119390000Y-128270000D03*
D18*
X119390000Y-130810000D03*
X121930000Y-128270000D03*
X121930000Y-130810000D03*
X124470000Y-128270000D03*
X124470000Y-130810000D03*
X127010000Y-128270000D03*
X127010000Y-130810000D03*
X129550000Y-128270000D03*
X129550000Y-130810000D03*
X132090000Y-128270000D03*
X132090000Y-130810000D03*
X134630000Y-128270000D03*
X134630000Y-130810000D03*
X137170000Y-128270000D03*
X137170000Y-130810000D03*
X139710000Y-128270000D03*
X139710000Y-130810000D03*
X142250000Y-128270000D03*
X142250000Y-130810000D03*
X144790000Y-128270000D03*
X144790000Y-130810000D03*
X147330000Y-128270000D03*
X147330000Y-130810000D03*
X149870000Y-128270000D03*
X149870000Y-130810000D03*
X152410000Y-128270000D03*
X152410000Y-130810000D03*
D17*
X143383000Y-134620000D03*
D18*
X145923000Y-134620000D03*
X148463000Y-134620000D03*
X151003000Y-134620000D03*
D13*
X123825000Y-135001000D03*
X123825000Y-145161000D03*
X133985000Y-135001000D03*
X133985000Y-145161000D03*
D19*
X100567000Y-74038000D03*
X88567000Y-74038000D03*
D20*
X97567000Y-77978000D03*
D21*
X94567000Y-77978000D03*
X91567000Y-77978000D03*
X97567000Y-74978000D03*
X94567000Y-74978000D03*
X91567000Y-74978000D03*
D22*
X190754000Y-56896000D03*
D23*
X160650000Y-83000000D03*
X184650000Y-83000000D03*
D24*
X188650000Y-101600000D03*
X156650000Y-101600000D03*
D25*
X143695000Y-94805000D03*
X143695000Y-118805000D03*
D24*
X125095000Y-122805000D03*
X125095000Y-90805000D03*
D13*
X111125000Y-70612000D03*
X111125000Y-60452000D03*
X100965000Y-70612000D03*
X100965000Y-60452000D03*
D26*
X160660000Y-133745000D03*
D21*
X162570000Y-133745000D03*
X164480000Y-133745000D03*
D27*
X163620000Y-111715000D03*
X163620000Y-112975000D03*
X164370000Y-110685000D03*
X164370000Y-114005000D03*
X165570000Y-110295000D03*
X165570000Y-114395000D03*
X166900000Y-110295000D03*
X166900000Y-114395000D03*
D28*
X167570000Y-112345000D03*
D27*
X168240000Y-110295000D03*
X168240000Y-114395000D03*
X169570000Y-110295000D03*
X169570000Y-114395000D03*
X170770000Y-110685000D03*
X170770000Y-114005000D03*
X171520000Y-111715000D03*
X171520000Y-112975000D03*
X153620000Y-111715000D03*
X153620000Y-112975000D03*
X154370000Y-110685000D03*
X154370000Y-114005000D03*
X155570000Y-110295000D03*
X155570000Y-114395000D03*
X156900000Y-110295000D03*
X156900000Y-114395000D03*
D28*
X157570000Y-112345000D03*
D27*
X158240000Y-110295000D03*
X158240000Y-114395000D03*
X159570000Y-110295000D03*
X159570000Y-114395000D03*
X160770000Y-110685000D03*
X160770000Y-114005000D03*
X161520000Y-111715000D03*
X161520000Y-112975000D03*
D22*
X91186000Y-148844000D03*
X190754000Y-148844000D03*
D19*
X182340000Y-147000000D03*
X182340000Y-135000000D03*
D29*
X178400000Y-144000000D03*
D21*
X178400000Y-141000000D03*
X178400000Y-138000000D03*
X181400000Y-144000000D03*
X181400000Y-141000000D03*
X181400000Y-138000000D03*
D26*
X134225000Y-61600000D03*
D21*
X134225000Y-63510000D03*
X134225000Y-65420000D03*
D27*
X156255000Y-64560000D03*
X154995000Y-64560000D03*
X157285000Y-65310000D03*
X153965000Y-65310000D03*
X157675000Y-66510000D03*
X153575000Y-66510000D03*
X157675000Y-67840000D03*
X153575000Y-67840000D03*
D30*
X155625000Y-68510000D03*
D27*
X157675000Y-69180000D03*
X153575000Y-69180000D03*
X157675000Y-70510000D03*
X153575000Y-70510000D03*
X157285000Y-71710000D03*
X153965000Y-71710000D03*
X156255000Y-72460000D03*
X154995000Y-72460000D03*
X156255000Y-54560000D03*
X154995000Y-54560000D03*
X157285000Y-55310000D03*
X153965000Y-55310000D03*
X157675000Y-56510000D03*
X153575000Y-56510000D03*
X157675000Y-57840000D03*
X153575000Y-57840000D03*
D30*
X155625000Y-58510000D03*
D27*
X157675000Y-59180000D03*
X153575000Y-59180000D03*
X157675000Y-60510000D03*
X153575000Y-60510000D03*
X157285000Y-61710000D03*
X153965000Y-61710000D03*
X156255000Y-62460000D03*
X154995000Y-62460000D03*
D13*
X176931600Y-70739101D03*
X176931600Y-60579101D03*
X166771600Y-70739101D03*
X166771600Y-60579101D03*
D10*
X112400000Y-83840000D03*
D11*
X112400000Y-91460000D03*
D12*
X108590000Y-106700000D03*
X98430000Y-106700000D03*
D11*
X94620000Y-94000000D03*
D31*
X145270000Y-142979000D03*
X170270000Y-142979000D03*
D32*
X163310000Y-141559000D03*
D33*
X160540000Y-141559000D03*
X157770000Y-141559000D03*
X155000000Y-141559000D03*
X152230000Y-141559000D03*
X161925000Y-144399000D03*
X159155000Y-144399000D03*
X156385000Y-144399000D03*
X153615000Y-144399000D03*
D22*
X91186000Y-56896000D03*
D26*
X127249000Y-55485000D03*
D21*
X125339000Y-55485000D03*
X123429000Y-55485000D03*
D27*
X124289000Y-77515000D03*
X124289000Y-76255000D03*
X123539000Y-78545000D03*
X123539000Y-75225000D03*
X122339000Y-78935000D03*
X122339000Y-74835000D03*
X121009000Y-78935000D03*
X121009000Y-74835000D03*
D28*
X120339000Y-76885000D03*
D27*
X119669000Y-78935000D03*
X119669000Y-74835000D03*
X118339000Y-78935000D03*
X118339000Y-74835000D03*
X117139000Y-78545000D03*
X117139000Y-75225000D03*
X116389000Y-77515000D03*
X116389000Y-76255000D03*
X134289000Y-77515000D03*
X134289000Y-76255000D03*
X133539000Y-78545000D03*
X133539000Y-75225000D03*
X132339000Y-78935000D03*
X132339000Y-74835000D03*
X131009000Y-78935000D03*
X131009000Y-74835000D03*
D28*
X130339000Y-76885000D03*
D27*
X129669000Y-78935000D03*
X129669000Y-74835000D03*
X128339000Y-78935000D03*
X128339000Y-74835000D03*
X127139000Y-78545000D03*
X127139000Y-75225000D03*
X126389000Y-77515000D03*
X126389000Y-76255000D03*
D34*
X186314500Y-108773000D03*
X186314500Y-106873000D03*
X188589500Y-107823000D03*
D35*
X165100000Y-139191000D03*
X165100000Y-137541000D03*
D36*
X109157000Y-101727000D03*
X110807000Y-101727000D03*
D37*
X177555000Y-118321000D03*
X177555000Y-122471000D03*
X179705000Y-118321000D03*
X179705000Y-122471000D03*
D38*
X122745000Y-113157000D03*
X121095000Y-113157000D03*
D36*
X168720000Y-123698000D03*
X170370000Y-123698000D03*
X132271000Y-111506000D03*
X133921000Y-111506000D03*
D39*
X134427000Y-105404500D03*
X132527000Y-105404500D03*
X133477000Y-103129500D03*
D40*
X154178000Y-133288000D03*
X155448000Y-133288000D03*
X156718000Y-133288000D03*
X157988000Y-133288000D03*
X157988000Y-138238000D03*
X156718000Y-138238000D03*
X155448000Y-138238000D03*
X154178000Y-138238000D03*
D38*
X122745000Y-114681000D03*
X121095000Y-114681000D03*
D41*
X183515000Y-113348000D03*
X183515000Y-114998000D03*
D42*
X183007000Y-92824000D03*
X183007000Y-94374000D03*
D43*
X163208000Y-92075000D03*
X161658000Y-92075000D03*
D42*
X165608000Y-102476000D03*
X165608000Y-104026000D03*
D44*
X179705000Y-116726000D03*
X179705000Y-115176000D03*
D45*
X137916500Y-109540000D03*
X137916500Y-111440000D03*
X135641500Y-110490000D03*
D46*
X183553100Y-112014000D03*
X183553100Y-110744000D03*
X190334900Y-110744000D03*
X190334900Y-112014000D03*
D41*
X163576000Y-137541000D03*
X163576000Y-139191000D03*
D47*
X122301000Y-120641000D03*
X122301000Y-122691000D03*
D48*
X156705000Y-130937000D03*
X158255000Y-130937000D03*
D46*
X107403900Y-101600000D03*
X107403900Y-102870000D03*
X100622100Y-102870000D03*
X100622100Y-101600000D03*
D49*
X130497500Y-96983000D03*
X130497500Y-97633000D03*
X130497500Y-98283000D03*
X130497500Y-98933000D03*
X130497500Y-99583000D03*
X130497500Y-100233000D03*
X130497500Y-100883000D03*
X124772500Y-100883000D03*
X124772500Y-100233000D03*
X124772500Y-99583000D03*
X124772500Y-98933000D03*
X124772500Y-98283000D03*
X124772500Y-97633000D03*
X124772500Y-96983000D03*
D42*
X136271000Y-61582000D03*
X136271000Y-63132000D03*
D44*
X168656000Y-122187000D03*
X168656000Y-120637000D03*
D36*
X132398000Y-99822000D03*
X134048000Y-99822000D03*
D35*
X169291000Y-134175000D03*
X169291000Y-132525000D03*
D50*
X118557000Y-120274500D03*
X120457000Y-120274500D03*
X119507000Y-122549500D03*
D44*
X177419000Y-91453000D03*
X177419000Y-89903000D03*
D51*
X156718000Y-92329000D03*
D48*
X160896000Y-135509000D03*
X162446000Y-135509000D03*
D52*
X176363000Y-92643000D03*
X176363000Y-93143000D03*
X176363000Y-93643000D03*
X176363000Y-94143000D03*
X176363000Y-94643000D03*
X176363000Y-95143000D03*
X176363000Y-95643000D03*
X176363000Y-96143000D03*
X176363000Y-96643000D03*
X176363000Y-97143000D03*
X176363000Y-97643000D03*
X176363000Y-98143000D03*
X176363000Y-98643000D03*
X176363000Y-99143000D03*
X176363000Y-99643000D03*
X176363000Y-100143000D03*
D53*
X174438000Y-102068000D03*
X173938000Y-102068000D03*
X173438000Y-102068000D03*
X172938000Y-102068000D03*
X172438000Y-102068000D03*
X171938000Y-102068000D03*
X171438000Y-102068000D03*
X170938000Y-102068000D03*
X170438000Y-102068000D03*
X169938000Y-102068000D03*
X169438000Y-102068000D03*
X168938000Y-102068000D03*
X168438000Y-102068000D03*
X167938000Y-102068000D03*
X167438000Y-102068000D03*
X166938000Y-102068000D03*
D52*
X165013000Y-100143000D03*
X165013000Y-99643000D03*
X165013000Y-99143000D03*
X165013000Y-98643000D03*
X165013000Y-98143000D03*
X165013000Y-97643000D03*
X165013000Y-97143000D03*
X165013000Y-96643000D03*
X165013000Y-96143000D03*
X165013000Y-95643000D03*
X165013000Y-95143000D03*
X165013000Y-94643000D03*
X165013000Y-94143000D03*
X165013000Y-93643000D03*
X165013000Y-93143000D03*
X165013000Y-92643000D03*
D53*
X166938000Y-90718000D03*
X167438000Y-90718000D03*
X167938000Y-90718000D03*
X168438000Y-90718000D03*
X168938000Y-90718000D03*
X169438000Y-90718000D03*
X169938000Y-90718000D03*
X170438000Y-90718000D03*
X170938000Y-90718000D03*
X171438000Y-90718000D03*
X171938000Y-90718000D03*
X172438000Y-90718000D03*
X172938000Y-90718000D03*
X173438000Y-90718000D03*
X173938000Y-90718000D03*
X174438000Y-90718000D03*
D36*
X132398000Y-96774000D03*
X134048000Y-96774000D03*
D38*
X122872000Y-99949000D03*
X121222000Y-99949000D03*
D50*
X132146000Y-92715500D03*
X134046000Y-92715500D03*
X133096000Y-94990500D03*
D42*
X153289000Y-89014000D03*
X153289000Y-90564000D03*
D54*
X143383000Y-138572000D03*
D55*
X143383000Y-137272000D03*
D41*
X181356000Y-115126000D03*
X181356000Y-116776000D03*
D44*
X162560000Y-87630000D03*
X162560000Y-86080000D03*
D38*
X122872000Y-101473000D03*
X121222000Y-101473000D03*
X104711000Y-133604000D03*
X103061000Y-133604000D03*
D56*
X190509000Y-105029000D03*
X188459000Y-105029000D03*
D49*
X130370500Y-110191000D03*
X130370500Y-110841000D03*
X130370500Y-111491000D03*
X130370500Y-112141000D03*
X130370500Y-112791000D03*
X130370500Y-113441000D03*
X130370500Y-114091000D03*
X124645500Y-114091000D03*
X124645500Y-113441000D03*
X124645500Y-112791000D03*
X124645500Y-112141000D03*
X124645500Y-111491000D03*
X124645500Y-110841000D03*
X124645500Y-110191000D03*
D45*
X102864500Y-135194000D03*
X102864500Y-137094000D03*
X100589500Y-136144000D03*
D43*
X163208000Y-90424000D03*
X161658000Y-90424000D03*
D36*
X132398000Y-98298000D03*
X134048000Y-98298000D03*
D39*
X122616000Y-105531500D03*
X120716000Y-105531500D03*
X121666000Y-103256500D03*
D50*
X161422000Y-129159000D03*
X163322000Y-129159000D03*
X162372000Y-131434000D03*
D41*
X158242000Y-124524000D03*
X158242000Y-126174000D03*
D44*
X160909000Y-87643000D03*
X160909000Y-86093000D03*
D47*
X98552000Y-134738000D03*
X98552000Y-136788000D03*
D57*
X149733000Y-145378000D03*
D58*
X149733000Y-143928000D03*
D36*
X132271000Y-114554000D03*
X133921000Y-114554000D03*
D42*
X173863000Y-104000000D03*
X173863000Y-105550000D03*
D36*
X169482000Y-127358127D03*
X171132000Y-127358127D03*
X132271000Y-113030000D03*
X133921000Y-113030000D03*
D35*
X170942000Y-134175000D03*
X170942000Y-132525000D03*
D45*
X137916500Y-113096000D03*
X137916500Y-114996000D03*
X135641500Y-114046000D03*
D59*
X156394000Y-87818000D03*
X156394000Y-86868000D03*
X156394000Y-85918000D03*
X159074000Y-85918000D03*
X159074000Y-86868000D03*
X159074000Y-87818000D03*
D60*
X157734000Y-86868000D03*
D61*
X185852000Y-98806000D03*
X182702000Y-98806000D03*
D47*
X98552000Y-102099000D03*
X98552000Y-104149000D03*
D36*
X169482000Y-129009127D03*
X171132000Y-129009127D03*
X132398000Y-101346000D03*
X134048000Y-101346000D03*
D48*
X179438000Y-100330000D03*
X180988000Y-100330000D03*
D35*
X118491000Y-125920000D03*
X118491000Y-124270000D03*
D43*
X127013000Y-57277000D03*
X125463000Y-57277000D03*
D35*
X168148000Y-139191000D03*
X168148000Y-137541000D03*
D41*
X116332000Y-127191000D03*
X116332000Y-128841000D03*
D43*
X128283000Y-108585000D03*
X126733000Y-108585000D03*
D36*
X168720000Y-125349000D03*
X170370000Y-125349000D03*
D44*
X159639000Y-138951000D03*
X159639000Y-137401000D03*
D43*
X128410000Y-95377000D03*
X126860000Y-95377000D03*
D41*
X166624000Y-137541000D03*
X166624000Y-139191000D03*
D36*
X132271000Y-109982000D03*
X133921000Y-109982000D03*
D41*
X105156000Y-104712000D03*
X105156000Y-106362000D03*
D62*
X106807000Y-130213100D03*
X108077000Y-130213100D03*
X108077000Y-136994900D03*
X106807000Y-136994900D03*
D44*
X174752000Y-88786000D03*
X174752000Y-87236000D03*
D48*
X179438000Y-98679000D03*
X180988000Y-98679000D03*
D35*
X168021000Y-128587000D03*
X168021000Y-126937000D03*
X184531000Y-108838000D03*
X184531000Y-107188000D03*
D39*
X130236000Y-118231500D03*
X128336000Y-118231500D03*
X129286000Y-115956500D03*
D42*
X154940000Y-89014000D03*
X154940000Y-90564000D03*
X167259000Y-104381000D03*
X167259000Y-105931000D03*
D45*
X103372500Y-104841000D03*
X103372500Y-106741000D03*
X101097500Y-105791000D03*
D42*
X158242000Y-121399000D03*
X158242000Y-122949000D03*
D57*
X140589000Y-138647000D03*
D58*
X140589000Y-137197000D03*
D63*
X166133000Y-122521000D03*
X166133000Y-123171000D03*
X166133000Y-123821000D03*
X166133000Y-124471000D03*
X166133000Y-125121000D03*
X166133000Y-125771000D03*
X166133000Y-126421000D03*
X160233000Y-126421000D03*
X160233000Y-125771000D03*
X160233000Y-125121000D03*
X160233000Y-124471000D03*
X160233000Y-123821000D03*
X160233000Y-123171000D03*
X160233000Y-122521000D03*
D64*
X163933000Y-125371000D03*
X163933000Y-123571000D03*
X162433000Y-125371000D03*
X162433000Y-123571000D03*
D65*
X181317000Y-92829200D03*
X181317000Y-95029200D03*
X179617000Y-95029200D03*
X179617000Y-92829200D03*
D51*
X156718000Y-94488000D03*
D35*
X104775000Y-137223000D03*
X104775000Y-135573000D03*
D37*
X183574000Y-122512000D03*
X183574000Y-118362000D03*
X181424000Y-122512000D03*
X181424000Y-118362000D03*
D62*
X116459000Y-125437900D03*
X115189000Y-125437900D03*
X115189000Y-118656100D03*
X116459000Y-118656100D03*
M02*
