G04 #@! TF.GenerationSoftware,KiCad,Pcbnew,7.0.2*
G04 #@! TF.CreationDate,2023-11-12T14:42:30-07:00*
G04 #@! TF.ProjectId,Relay_Board_Lucy_V1,52656c61-795f-4426-9f61-72645f4c7563,V1.0*
G04 #@! TF.SameCoordinates,Original*
G04 #@! TF.FileFunction,Paste,Bot*
G04 #@! TF.FilePolarity,Positive*
%FSLAX46Y46*%
G04 Gerber Fmt 4.6, Leading zero omitted, Abs format (unit mm)*
G04 Created by KiCad (PCBNEW 7.0.2) date 2023-11-12 14:42:30*
%MOMM*%
%LPD*%
G01*
G04 APERTURE LIST*
G04 Aperture macros list*
%AMRoundRect*
0 Rectangle with rounded corners*
0 $1 Rounding radius*
0 $2 $3 $4 $5 $6 $7 $8 $9 X,Y pos of 4 corners*
0 Add a 4 corners polygon primitive as box body*
4,1,4,$2,$3,$4,$5,$6,$7,$8,$9,$2,$3,0*
0 Add four circle primitives for the rounded corners*
1,1,$1+$1,$2,$3*
1,1,$1+$1,$4,$5*
1,1,$1+$1,$6,$7*
1,1,$1+$1,$8,$9*
0 Add four rect primitives between the rounded corners*
20,1,$1+$1,$2,$3,$4,$5,0*
20,1,$1+$1,$4,$5,$6,$7,0*
20,1,$1+$1,$6,$7,$8,$9,0*
20,1,$1+$1,$8,$9,$2,$3,0*%
G04 Aperture macros list end*
%ADD10RoundRect,0.150000X-0.512500X-0.150000X0.512500X-0.150000X0.512500X0.150000X-0.512500X0.150000X0*%
%ADD11RoundRect,0.200000X0.275000X-0.200000X0.275000X0.200000X-0.275000X0.200000X-0.275000X-0.200000X0*%
%ADD12RoundRect,0.200000X-0.200000X-0.275000X0.200000X-0.275000X0.200000X0.275000X-0.200000X0.275000X0*%
%ADD13R,0.650000X1.050000*%
%ADD14RoundRect,0.200000X0.200000X0.275000X-0.200000X0.275000X-0.200000X-0.275000X0.200000X-0.275000X0*%
%ADD15RoundRect,0.150000X0.150000X-0.512500X0.150000X0.512500X-0.150000X0.512500X-0.150000X-0.512500X0*%
%ADD16RoundRect,0.150000X-0.150000X0.825000X-0.150000X-0.825000X0.150000X-0.825000X0.150000X0.825000X0*%
%ADD17RoundRect,0.200000X-0.275000X0.200000X-0.275000X-0.200000X0.275000X-0.200000X0.275000X0.200000X0*%
%ADD18RoundRect,0.225000X-0.250000X0.225000X-0.250000X-0.225000X0.250000X-0.225000X0.250000X0.225000X0*%
%ADD19RoundRect,0.225000X0.225000X0.250000X-0.225000X0.250000X-0.225000X-0.250000X0.225000X-0.250000X0*%
%ADD20RoundRect,0.225000X0.250000X-0.225000X0.250000X0.225000X-0.250000X0.225000X-0.250000X-0.225000X0*%
%ADD21RoundRect,0.150000X0.512500X0.150000X-0.512500X0.150000X-0.512500X-0.150000X0.512500X-0.150000X0*%
%ADD22R,1.219200X0.558800*%
%ADD23RoundRect,0.250000X-0.450000X0.325000X-0.450000X-0.325000X0.450000X-0.325000X0.450000X0.325000X0*%
%ADD24RoundRect,0.225000X-0.225000X-0.250000X0.225000X-0.250000X0.225000X0.250000X-0.225000X0.250000X0*%
%ADD25RoundRect,0.100000X0.637500X0.100000X-0.637500X0.100000X-0.637500X-0.100000X0.637500X-0.100000X0*%
%ADD26RoundRect,0.150000X-0.150000X0.512500X-0.150000X-0.512500X0.150000X-0.512500X0.150000X0.512500X0*%
%ADD27RoundRect,0.075000X0.700000X0.075000X-0.700000X0.075000X-0.700000X-0.075000X0.700000X-0.075000X0*%
%ADD28RoundRect,0.075000X0.075000X0.700000X-0.075000X0.700000X-0.075000X-0.700000X0.075000X-0.700000X0*%
%ADD29RoundRect,0.250000X0.325000X0.450000X-0.325000X0.450000X-0.325000X-0.450000X0.325000X-0.450000X0*%
%ADD30R,0.660000X0.730000*%
%ADD31R,0.630000X0.450000*%
%ADD32RoundRect,0.250000X0.275000X0.700000X-0.275000X0.700000X-0.275000X-0.700000X0.275000X-0.700000X0*%
%ADD33R,0.558800X1.219200*%
%ADD34R,1.450000X0.450000*%
%ADD35R,1.100000X1.400000*%
%ADD36R,1.200000X1.400000*%
G04 APERTURE END LIST*
D10*
X186314500Y-108773000D03*
X186314500Y-106873000D03*
X188589500Y-107823000D03*
D11*
X165100000Y-139191000D03*
X165100000Y-137541000D03*
D12*
X109157000Y-101727000D03*
X110807000Y-101727000D03*
D13*
X177555000Y-118321000D03*
X177555000Y-122471000D03*
X179705000Y-118321000D03*
X179705000Y-122471000D03*
D14*
X122745000Y-113157000D03*
X121095000Y-113157000D03*
D12*
X168720000Y-123698000D03*
X170370000Y-123698000D03*
X132271000Y-111506000D03*
X133921000Y-111506000D03*
D15*
X134427000Y-105404500D03*
X132527000Y-105404500D03*
X133477000Y-103129500D03*
D16*
X154178000Y-133288000D03*
X155448000Y-133288000D03*
X156718000Y-133288000D03*
X157988000Y-133288000D03*
X157988000Y-138238000D03*
X156718000Y-138238000D03*
X155448000Y-138238000D03*
X154178000Y-138238000D03*
D14*
X122745000Y-114681000D03*
X121095000Y-114681000D03*
D17*
X183515000Y-113348000D03*
X183515000Y-114998000D03*
D18*
X183007000Y-92824000D03*
X183007000Y-94374000D03*
D19*
X163208000Y-92075000D03*
X161658000Y-92075000D03*
D18*
X165608000Y-102476000D03*
X165608000Y-104026000D03*
D20*
X179705000Y-116726000D03*
X179705000Y-115176000D03*
D21*
X137916500Y-109540000D03*
X137916500Y-111440000D03*
X135641500Y-110490000D03*
D22*
X183553100Y-112014000D03*
X183553100Y-110744000D03*
X190334900Y-110744000D03*
X190334900Y-112014000D03*
D17*
X163576000Y-137541000D03*
X163576000Y-139191000D03*
D23*
X122301000Y-120641000D03*
X122301000Y-122691000D03*
D24*
X156705000Y-130937000D03*
X158255000Y-130937000D03*
D22*
X107403900Y-101600000D03*
X107403900Y-102870000D03*
X100622100Y-102870000D03*
X100622100Y-101600000D03*
D25*
X130497500Y-96983000D03*
X130497500Y-97633000D03*
X130497500Y-98283000D03*
X130497500Y-98933000D03*
X130497500Y-99583000D03*
X130497500Y-100233000D03*
X130497500Y-100883000D03*
X124772500Y-100883000D03*
X124772500Y-100233000D03*
X124772500Y-99583000D03*
X124772500Y-98933000D03*
X124772500Y-98283000D03*
X124772500Y-97633000D03*
X124772500Y-96983000D03*
D18*
X136271000Y-61582000D03*
X136271000Y-63132000D03*
D20*
X168656000Y-122187000D03*
X168656000Y-120637000D03*
D12*
X132398000Y-99822000D03*
X134048000Y-99822000D03*
D11*
X169291000Y-134175000D03*
X169291000Y-132525000D03*
D26*
X118557000Y-120274500D03*
X120457000Y-120274500D03*
X119507000Y-122549500D03*
D20*
X177419000Y-91453000D03*
X177419000Y-89903000D03*
D24*
X160896000Y-135509000D03*
X162446000Y-135509000D03*
D27*
X176363000Y-92643000D03*
X176363000Y-93143000D03*
X176363000Y-93643000D03*
X176363000Y-94143000D03*
X176363000Y-94643000D03*
X176363000Y-95143000D03*
X176363000Y-95643000D03*
X176363000Y-96143000D03*
X176363000Y-96643000D03*
X176363000Y-97143000D03*
X176363000Y-97643000D03*
X176363000Y-98143000D03*
X176363000Y-98643000D03*
X176363000Y-99143000D03*
X176363000Y-99643000D03*
X176363000Y-100143000D03*
D28*
X174438000Y-102068000D03*
X173938000Y-102068000D03*
X173438000Y-102068000D03*
X172938000Y-102068000D03*
X172438000Y-102068000D03*
X171938000Y-102068000D03*
X171438000Y-102068000D03*
X170938000Y-102068000D03*
X170438000Y-102068000D03*
X169938000Y-102068000D03*
X169438000Y-102068000D03*
X168938000Y-102068000D03*
X168438000Y-102068000D03*
X167938000Y-102068000D03*
X167438000Y-102068000D03*
X166938000Y-102068000D03*
D27*
X165013000Y-100143000D03*
X165013000Y-99643000D03*
X165013000Y-99143000D03*
X165013000Y-98643000D03*
X165013000Y-98143000D03*
X165013000Y-97643000D03*
X165013000Y-97143000D03*
X165013000Y-96643000D03*
X165013000Y-96143000D03*
X165013000Y-95643000D03*
X165013000Y-95143000D03*
X165013000Y-94643000D03*
X165013000Y-94143000D03*
X165013000Y-93643000D03*
X165013000Y-93143000D03*
X165013000Y-92643000D03*
D28*
X166938000Y-90718000D03*
X167438000Y-90718000D03*
X167938000Y-90718000D03*
X168438000Y-90718000D03*
X168938000Y-90718000D03*
X169438000Y-90718000D03*
X169938000Y-90718000D03*
X170438000Y-90718000D03*
X170938000Y-90718000D03*
X171438000Y-90718000D03*
X171938000Y-90718000D03*
X172438000Y-90718000D03*
X172938000Y-90718000D03*
X173438000Y-90718000D03*
X173938000Y-90718000D03*
X174438000Y-90718000D03*
D12*
X132398000Y-96774000D03*
X134048000Y-96774000D03*
D14*
X122872000Y-99949000D03*
X121222000Y-99949000D03*
D26*
X132146000Y-92715500D03*
X134046000Y-92715500D03*
X133096000Y-94990500D03*
D18*
X153289000Y-89014000D03*
X153289000Y-90564000D03*
D17*
X181356000Y-115126000D03*
X181356000Y-116776000D03*
D20*
X162560000Y-87630000D03*
X162560000Y-86080000D03*
D14*
X122872000Y-101473000D03*
X121222000Y-101473000D03*
X104711000Y-133604000D03*
X103061000Y-133604000D03*
D29*
X190509000Y-105029000D03*
X188459000Y-105029000D03*
D25*
X130370500Y-110191000D03*
X130370500Y-110841000D03*
X130370500Y-111491000D03*
X130370500Y-112141000D03*
X130370500Y-112791000D03*
X130370500Y-113441000D03*
X130370500Y-114091000D03*
X124645500Y-114091000D03*
X124645500Y-113441000D03*
X124645500Y-112791000D03*
X124645500Y-112141000D03*
X124645500Y-111491000D03*
X124645500Y-110841000D03*
X124645500Y-110191000D03*
D21*
X102864500Y-135194000D03*
X102864500Y-137094000D03*
X100589500Y-136144000D03*
D19*
X163208000Y-90424000D03*
X161658000Y-90424000D03*
D12*
X132398000Y-98298000D03*
X134048000Y-98298000D03*
D15*
X122616000Y-105531500D03*
X120716000Y-105531500D03*
X121666000Y-103256500D03*
D26*
X161422000Y-129159000D03*
X163322000Y-129159000D03*
X162372000Y-131434000D03*
D17*
X158242000Y-124524000D03*
X158242000Y-126174000D03*
D20*
X160909000Y-87643000D03*
X160909000Y-86093000D03*
D23*
X98552000Y-134738000D03*
X98552000Y-136788000D03*
D12*
X132271000Y-114554000D03*
X133921000Y-114554000D03*
D18*
X173863000Y-104000000D03*
X173863000Y-105550000D03*
D12*
X169482000Y-127358127D03*
X171132000Y-127358127D03*
X132271000Y-113030000D03*
X133921000Y-113030000D03*
D11*
X170942000Y-134175000D03*
X170942000Y-132525000D03*
D21*
X137916500Y-113096000D03*
X137916500Y-114996000D03*
X135641500Y-114046000D03*
D30*
X157309000Y-86002000D03*
X157309000Y-86868000D03*
X157309000Y-87734000D03*
X158159000Y-86002000D03*
X158159000Y-86868000D03*
X158159000Y-87734000D03*
D31*
X156394000Y-87818000D03*
X156394000Y-86868000D03*
X156394000Y-85918000D03*
X159074000Y-85918000D03*
X159074000Y-86868000D03*
X159074000Y-87818000D03*
D32*
X185852000Y-98806000D03*
X182702000Y-98806000D03*
D23*
X98552000Y-102099000D03*
X98552000Y-104149000D03*
D12*
X169482000Y-129009127D03*
X171132000Y-129009127D03*
X132398000Y-101346000D03*
X134048000Y-101346000D03*
D24*
X179438000Y-100330000D03*
X180988000Y-100330000D03*
D11*
X118491000Y-125920000D03*
X118491000Y-124270000D03*
D19*
X127013000Y-57277000D03*
X125463000Y-57277000D03*
D11*
X168148000Y-139191000D03*
X168148000Y-137541000D03*
D17*
X116332000Y-127191000D03*
X116332000Y-128841000D03*
D19*
X128283000Y-108585000D03*
X126733000Y-108585000D03*
D12*
X168720000Y-125349000D03*
X170370000Y-125349000D03*
D20*
X159639000Y-138951000D03*
X159639000Y-137401000D03*
D19*
X128410000Y-95377000D03*
X126860000Y-95377000D03*
D17*
X166624000Y-137541000D03*
X166624000Y-139191000D03*
D12*
X132271000Y-109982000D03*
X133921000Y-109982000D03*
D17*
X105156000Y-104712000D03*
X105156000Y-106362000D03*
D33*
X106807000Y-130213100D03*
X108077000Y-130213100D03*
X108077000Y-136994900D03*
X106807000Y-136994900D03*
D20*
X174752000Y-88786000D03*
X174752000Y-87236000D03*
D24*
X179438000Y-98679000D03*
X180988000Y-98679000D03*
D11*
X168021000Y-128587000D03*
X168021000Y-126937000D03*
X184531000Y-108838000D03*
X184531000Y-107188000D03*
D15*
X130236000Y-118231500D03*
X128336000Y-118231500D03*
X129286000Y-115956500D03*
D18*
X154940000Y-89014000D03*
X154940000Y-90564000D03*
X167259000Y-104381000D03*
X167259000Y-105931000D03*
D21*
X103372500Y-104841000D03*
X103372500Y-106741000D03*
X101097500Y-105791000D03*
D18*
X158242000Y-121399000D03*
X158242000Y-122949000D03*
D34*
X166133000Y-122521000D03*
X166133000Y-123171000D03*
X166133000Y-123821000D03*
X166133000Y-124471000D03*
X166133000Y-125121000D03*
X166133000Y-125771000D03*
X166133000Y-126421000D03*
X160233000Y-126421000D03*
X160233000Y-125771000D03*
X160233000Y-125121000D03*
X160233000Y-124471000D03*
X160233000Y-123821000D03*
X160233000Y-123171000D03*
X160233000Y-122521000D03*
D35*
X163933000Y-125371000D03*
X163933000Y-123571000D03*
X162433000Y-125371000D03*
X162433000Y-123571000D03*
D36*
X181317000Y-92829200D03*
X181317000Y-95029200D03*
X179617000Y-95029200D03*
X179617000Y-92829200D03*
D11*
X104775000Y-137223000D03*
X104775000Y-135573000D03*
D13*
X183574000Y-122512000D03*
X183574000Y-118362000D03*
X181424000Y-122512000D03*
X181424000Y-118362000D03*
D33*
X116459000Y-125437900D03*
X115189000Y-125437900D03*
X115189000Y-118656100D03*
X116459000Y-118656100D03*
M02*
