M48
; DRILL file {KiCad 7.0.2} date Sun Nov 12 14:42:51 2023
; FORMAT={-:-/ absolute / metric / decimal}
; #@! TF.CreationDate,2023-11-12T14:42:51-07:00
; #@! TF.GenerationSoftware,Kicad,Pcbnew,7.0.2
; #@! TF.FileFunction,Plated,1,4,PTH
FMAT,2
METRIC
; #@! TA.AperFunction,Plated,PTH,ViaDrill
T1C0.150
; #@! TA.AperFunction,Plated,PTH,ViaDrill
T2C0.300
; #@! TA.AperFunction,Plated,PTH,ComponentDrill
T3C0.500
; #@! TA.AperFunction,Plated,PTH,ComponentDrill
T4C0.550
; #@! TA.AperFunction,Plated,PTH,ViaDrill
T5C0.600
; #@! TA.AperFunction,Plated,PTH,ComponentDrill
T6C0.800
; #@! TA.AperFunction,Plated,PTH,ComponentDrill
T7C0.850
; #@! TA.AperFunction,Plated,PTH,ComponentDrill
T8C1.000
; #@! TA.AperFunction,Plated,PTH,ComponentDrill
T9C1.500
; #@! TA.AperFunction,Plated,PTH,ComponentDrill
T10C1.524
; #@! TA.AperFunction,Plated,PTH,ComponentDrill
T11C1.702
; #@! TA.AperFunction,Plated,PTH,ComponentDrill
T12C2.000
; #@! TA.AperFunction,Plated,PTH,ComponentDrill
T13C2.100
; #@! TA.AperFunction,Plated,PTH,ComponentDrill
T14C3.048
; #@! TA.AperFunction,Plated,PTH,ComponentDrill
T15C3.200
%
G90
G05
T1
X102.108Y-133.604
X103.124Y-146.812
X110.287Y-109.474
X110.719Y-112.166
X112.039Y-78.588
X120.98Y-112.268
X121.095Y-114.681
X121.31Y-102.311
X121.92Y-107.086
X128.092Y-111.836
X133.223Y-111.506
X133.325Y-103.988
X133.325Y-106.655
X133.604Y-95.123
X133.731Y-106.299
X135.153Y-104.343
X135.255Y-106.147
X135.687Y-113.335
X135.738Y-108.534
X136.017Y-123.698
X136.144Y-109.322
X137.82Y-116.205
X137.846Y-124.104
X137.947Y-147.32
X142.9Y-147.32
X145.999Y-106.02
X146.279Y-106.426
X146.736Y-106.68
X146.914Y-108.534
X147.041Y-107.086
X148.057Y-108.864
X148.996Y-109.398
X150.876Y-104.902
X150.952Y-108.687
X151.74Y-126.263
X152.146Y-125.857
X152.476Y-108.788
X152.502Y-106.959
X152.502Y-119.405
X152.502Y-124.079
X152.756Y-108.382
X152.781Y-107.493
X152.806Y-106.528
X153.137Y-107.874
X153.365Y-106.147
X154.178Y-136.83
X154.457Y-126.263
X154.559Y-105.512
X154.915Y-125.984
X154.94Y-134.518
X155.753Y-105.588
X157.302Y-134.493
X158.877Y-96.139
X159.283Y-95.733
X163.271Y-94.143
X163.271Y-94.643
X163.271Y-95.143
X163.271Y-95.643
X163.271Y-96.143
X163.271Y-96.643
X163.271Y-97.143
X163.271Y-97.643
X163.271Y-98.143
X163.271Y-98.643
X163.271Y-99.143
X163.271Y-99.643
X163.297Y-100.143
X165.557Y-105.766
X166.192Y-106.197
X166.395Y-93.65
X166.938Y-91.973
X167.589Y-92.685
X168.148Y-92.659
X168.427Y-103.149
X168.681Y-92.608
X168.91Y-104.038
X169.342Y-92.659
X169.438Y-104.069
X169.774Y-108.229
X169.901Y-92.634
X169.901Y-104.038
X170.307Y-108.026
X170.358Y-104.013
X170.459Y-92.608
X171.069Y-92.608
X171.374Y-105.461
X171.374Y-107.772
X171.602Y-92.558
X171.679Y-106.68
X171.806Y-105.131
X171.958Y-107.772
X172.06Y-92.431
X172.339Y-103.505
X172.466Y-107.086
X172.644Y-92.405
X172.771Y-103.657
X173.203Y-92.38
X173.711Y-147.32
X173.761Y-92.354
X174.066Y-120.955
X174.066Y-123.596
X174.066Y-135.738
X174.066Y-138.151
X174.219Y-91.923
X174.422Y-119.355
X174.777Y-110.541
X176.784Y-112.903
X177.216Y-113.335
X177.927Y-100.305
X177.978Y-92.735
X178.003Y-93.294
X178.029Y-93.904
X178.029Y-99.263
X178.029Y-99.797
X178.206Y-96.698
X178.232Y-96.164
X178.257Y-95.631
X178.638Y-97.282
X180.569Y-110.541
X183.515Y-114.173
T2
X89.865Y-65.456
X89.916Y-67.818
X90.5Y-82.728
X90.551Y-85.09
X91.999Y-67.793
X92.024Y-65.456
X92.634Y-85.065
X92.659Y-82.728
X100.99Y-82.728
X101.041Y-85.09
X103.124Y-85.065
X103.149Y-82.728
X104.191Y-150.241
X104.292Y-91.389
X104.343Y-93.751
X104.394Y-96.393
X104.394Y-98.171
X106.172Y-96.393
X106.172Y-98.171
X106.426Y-93.726
X106.451Y-91.389
X107.696Y-96.393
X107.95Y-98.171
X108.712Y-97.409
X111.5Y-105.4
X112.776Y-105.41
X112.852Y-64.186
X112.903Y-66.548
X114.427Y-105.41
X114.986Y-66.523
X115.011Y-64.186
X115.951Y-105.41
X117.119Y-114.859
X117.348Y-105.41
X118.745Y-105.41
X121.539Y-105.435
X121.641Y-125.933
X123.419Y-88.138
X123.469Y-92.786
X124.003Y-124.943
X124.714Y-62.357
X124.765Y-64.719
X125.451Y-92.812
X126.848Y-64.694
X126.873Y-62.357
X127.0Y-105.41
X127.229Y-88.189
X127.533Y-124.943
X129.159Y-105.41
X130.81Y-92.71
X131.064Y-105.41
X133.223Y-114.554
X133.883Y-116.713
X134.95Y-101.371
X135.179Y-92.583
X136.398Y-92.71
X136.398Y-105.41
X138.43Y-150.165
X138.684Y-91.059
X138.684Y-105.41
X138.938Y-88.519
X138.938Y-92.71
X139.7Y-90.551
X139.954Y-88.519
X140.081Y-98.095
X141.351Y-105.41
X141.732Y-61.087
X141.783Y-63.449
X143.866Y-63.424
X143.891Y-61.087
X144.399Y-105.41
X145.872Y-148.158
X149.784Y-133.248
X151.689Y-148.184
X154.559Y-103.149
X154.94Y-94.996
X154.94Y-96.52
X155.448Y-136.779
X156.058Y-134.391
X156.337Y-96.52
X156.718Y-136.779
X156.845Y-125.73
X157.861Y-96.52
X158.115Y-125.349
X159.131Y-97.409
X159.233Y-148.209
X159.36Y-93.675
X159.36Y-94.691
X159.385Y-92.202
X159.512Y-104.013
X159.766Y-101.854
X160.909Y-103.124
X160.909Y-104.013
X161.671Y-93.345
X161.671Y-94.234
X161.671Y-95.377
X161.671Y-97.536
X161.671Y-98.933
X161.671Y-100.33
X162.179Y-104.013
X162.179Y-137.033
X162.56Y-101.346
X162.687Y-108.585
X162.687Y-109.601
X162.687Y-115.824
X162.687Y-117.348
X162.687Y-118.745
X162.687Y-120.269
X162.687Y-121.539
X163.195Y-123.19
X163.195Y-124.206
X163.195Y-125.095
X163.195Y-125.984
X163.449Y-104.013
X163.551Y-139.954
X164.211Y-123.19
X164.211Y-124.206
X164.211Y-125.095
X164.211Y-125.984
X164.338Y-91.948
X164.465Y-136.779
X164.592Y-129.667
X164.97Y-139.994
X166.37Y-136.779
X166.497Y-132.588
X166.497Y-133.604
X167.259Y-140.157
X167.513Y-123.571
X167.513Y-132.588
X167.513Y-133.604
X167.513Y-136.906
X167.767Y-125.73
X167.894Y-93.853
X167.894Y-95.758
X167.894Y-96.901
X167.894Y-98.044
X167.894Y-100.203
X167.919Y-140.183
X168.148Y-104.775
X168.148Y-105.537
X169.164Y-135.89
X169.545Y-93.853
X169.545Y-95.758
X169.545Y-96.901
X169.545Y-98.044
X169.545Y-100.203
X171.069Y-135.89
X171.196Y-93.853
X171.196Y-95.758
X171.196Y-96.901
X171.196Y-98.044
X171.196Y-100.203
X171.577Y-126.365
X172.339Y-75.438
X172.339Y-78.105
X172.339Y-79.121
X172.339Y-80.137
X172.339Y-81.153
X172.339Y-82.169
X172.339Y-83.185
X172.72Y-93.853
X172.72Y-95.758
X172.72Y-96.901
X172.72Y-98.044
X172.72Y-100.203
X175.108Y-127.508
X175.108Y-129.032
X175.158Y-131.394
X175.387Y-105.156
X176.022Y-101.981
X177.165Y-127.508
X177.241Y-131.369
X177.267Y-129.032
X177.546Y-64.389
X177.597Y-66.751
X177.673Y-101.981
X178.562Y-105.156
X179.324Y-101.981
X179.451Y-104.394
X179.68Y-66.726
X179.705Y-64.389
X180.34Y-103.632
X180.365Y-124.536
X180.416Y-126.898
X180.492Y-128.981
X180.543Y-131.343
X180.848Y-101.981
X180.975Y-96.901
X181.229Y-102.87
X181.991Y-96.901
X182.118Y-102.108
X182.499Y-126.873
X182.524Y-124.536
X182.626Y-131.318
X182.651Y-128.981
X183.007Y-101.346
X183.159Y-96.901
X183.8Y-92.0
X183.896Y-100.584
X184.277Y-95.758
X184.277Y-96.901
X184.277Y-98.044
X184.277Y-99.187
X184.8Y-92.0
X187.147Y-123.596
X187.198Y-92.202
X187.706Y-95.758
X187.706Y-96.774
X187.985Y-66.37
X188.036Y-68.732
X188.112Y-117.805
X188.163Y-120.167
X188.214Y-92.202
X189.23Y-92.202
X189.23Y-109.347
X189.23Y-113.411
X189.23Y-123.571
X189.255Y-121.234
X190.119Y-68.707
X190.119Y-106.426
X190.119Y-107.696
X190.144Y-66.37
X190.246Y-92.202
X190.246Y-120.142
X190.271Y-117.805
X190.373Y-109.347
X190.373Y-113.411
X190.627Y-95.758
X190.627Y-96.774
X191.262Y-92.202
X191.389Y-107.696
X191.389Y-109.347
X191.389Y-113.411
T3
X116.389Y-76.255
X116.389Y-77.515
X117.139Y-75.225
X117.139Y-78.545
X118.339Y-74.835
X118.339Y-78.935
X119.669Y-74.835
X119.669Y-78.935
X121.009Y-74.835
X121.009Y-78.935
X122.339Y-74.835
X122.339Y-78.935
X123.539Y-75.225
X123.539Y-78.545
X124.289Y-76.255
X124.289Y-77.515
X126.389Y-76.255
X126.389Y-77.515
X127.139Y-75.225
X127.139Y-78.545
X128.339Y-74.835
X128.339Y-78.935
X129.669Y-74.835
X129.669Y-78.935
X131.009Y-74.835
X131.009Y-78.935
X132.339Y-74.835
X132.339Y-78.935
X133.539Y-75.225
X133.539Y-78.545
X134.289Y-76.255
X134.289Y-77.515
X153.575Y-56.51
X153.575Y-57.84
X153.575Y-59.18
X153.575Y-60.51
X153.575Y-66.51
X153.575Y-67.84
X153.575Y-69.18
X153.575Y-70.51
X153.62Y-111.715
X153.62Y-112.975
X153.965Y-55.31
X153.965Y-61.71
X153.965Y-65.31
X153.965Y-71.71
X154.37Y-110.685
X154.37Y-114.005
X154.995Y-54.56
X154.995Y-62.46
X154.995Y-64.56
X154.995Y-72.46
X155.57Y-110.295
X155.57Y-114.395
X156.255Y-54.56
X156.255Y-62.46
X156.255Y-64.56
X156.255Y-72.46
X156.9Y-110.295
X156.9Y-114.395
X157.285Y-55.31
X157.285Y-61.71
X157.285Y-65.31
X157.285Y-71.71
X157.675Y-56.51
X157.675Y-57.84
X157.675Y-59.18
X157.675Y-60.51
X157.675Y-66.51
X157.675Y-67.84
X157.675Y-69.18
X157.675Y-70.51
X158.24Y-110.295
X158.24Y-114.395
X159.57Y-110.295
X159.57Y-114.395
X160.77Y-110.685
X160.77Y-114.005
X161.52Y-111.715
X161.52Y-112.975
X163.62Y-111.715
X163.62Y-112.975
X164.37Y-110.685
X164.37Y-114.005
X165.57Y-110.295
X165.57Y-114.395
X166.9Y-110.295
X166.9Y-114.395
X168.24Y-110.295
X168.24Y-114.395
X169.57Y-110.295
X169.57Y-114.395
X170.77Y-110.685
X170.77Y-114.005
X171.52Y-111.715
X171.52Y-112.975
T5
X160.655Y-138.938
X166.37Y-148.082
X176.657Y-148.082
X185.547Y-102.616
T6
X123.429Y-55.485
X125.339Y-55.485
X127.249Y-55.485
X134.225Y-61.6
X134.225Y-63.51
X134.225Y-65.42
X160.66Y-133.745
X162.57Y-133.745
X164.48Y-133.745
T8
X91.567Y-74.978
X91.567Y-77.978
X94.567Y-74.978
X94.567Y-77.978
X97.567Y-74.978
X97.567Y-77.978
X119.39Y-128.27
X119.39Y-130.81
X121.93Y-128.27
X121.93Y-130.81
X124.47Y-128.27
X124.47Y-130.81
X127.01Y-128.27
X127.01Y-130.81
X129.55Y-128.27
X129.55Y-130.81
X132.09Y-128.27
X132.09Y-130.81
X134.63Y-128.27
X134.63Y-130.81
X137.17Y-128.27
X137.17Y-130.81
X139.71Y-128.27
X139.71Y-130.81
X142.25Y-128.27
X142.25Y-130.81
X143.383Y-134.62
X144.79Y-128.27
X144.79Y-130.81
X145.923Y-134.62
X147.33Y-128.27
X147.33Y-130.81
X148.463Y-134.62
X149.87Y-128.27
X149.87Y-130.81
X151.003Y-134.62
X152.23Y-141.559
X152.41Y-128.27
X152.41Y-130.81
X153.615Y-144.399
X155.0Y-141.559
X156.385Y-144.399
X157.77Y-141.559
X159.155Y-144.399
X160.54Y-141.559
X161.925Y-144.399
X163.31Y-141.559
X178.4Y-138.0
X178.4Y-141.0
X178.4Y-144.0
X181.4Y-138.0
X181.4Y-141.0
X181.4Y-144.0
T10
X96.83Y-139.96
X98.43Y-106.7
X106.99Y-139.96
X108.59Y-106.7
T11
X100.965Y-60.452
X100.965Y-70.612
X111.125Y-60.452
X111.125Y-70.612
X123.825Y-135.001
X123.825Y-145.161
X133.985Y-135.001
X133.985Y-145.161
X166.772Y-60.579
X166.772Y-70.739
X175.641Y-115.57
X175.641Y-125.73
X176.932Y-60.579
X176.932Y-70.739
X185.801Y-115.57
X185.801Y-125.73
T13
X125.095Y-90.805
X125.095Y-122.805
X156.65Y-101.6
X188.65Y-101.6
T14
X93.02Y-127.26
X94.62Y-94.0
X110.8Y-117.1
X110.8Y-124.72
X112.4Y-83.84
X112.4Y-91.46
T15
X145.27Y-142.979
X170.27Y-142.979
T4
X192.125Y-134.047G85X192.775Y-134.047
G05
X192.125Y-141.797G85X192.775Y-141.797
G05
T7
X188.375Y-134.197G85X188.925Y-134.197
G05
X188.375Y-141.647G85X188.925Y-141.647
G05
T9
X143.695Y-92.205G85X143.695Y-97.405
G05
X143.695Y-116.205G85X143.695Y-121.405
G05
X158.05Y-83.0G85X163.25Y-83.0
G05
X182.05Y-83.0G85X187.25Y-83.0
G05
T12
X122.339Y-76.885G85X118.339Y-76.885
G05
X132.339Y-76.885G85X128.339Y-76.885
G05
X155.625Y-56.51G85X155.625Y-60.51
G05
X155.625Y-66.51G85X155.625Y-70.51
G05
X155.57Y-112.345G85X159.57Y-112.345
G05
X165.57Y-112.345G85X169.57Y-112.345
G05
T0
M30
