G04 #@! TF.GenerationSoftware,KiCad,Pcbnew,7.0.2*
G04 #@! TF.CreationDate,2023-11-05T14:56:03-07:00*
G04 #@! TF.ProjectId,Relay_Board_Lucy_V1,52656c61-795f-4426-9f61-72645f4c7563,V1.0*
G04 #@! TF.SameCoordinates,Original*
G04 #@! TF.FileFunction,Soldermask,Top*
G04 #@! TF.FilePolarity,Negative*
%FSLAX46Y46*%
G04 Gerber Fmt 4.6, Leading zero omitted, Abs format (unit mm)*
G04 Created by KiCad (PCBNEW 7.0.2) date 2023-11-05 14:56:03*
%MOMM*%
%LPD*%
G01*
G04 APERTURE LIST*
G04 Aperture macros list*
%AMRoundRect*
0 Rectangle with rounded corners*
0 $1 Rounding radius*
0 $2 $3 $4 $5 $6 $7 $8 $9 X,Y pos of 4 corners*
0 Add a 4 corners polygon primitive as box body*
4,1,4,$2,$3,$4,$5,$6,$7,$8,$9,$2,$3,0*
0 Add four circle primitives for the rounded corners*
1,1,$1+$1,$2,$3*
1,1,$1+$1,$4,$5*
1,1,$1+$1,$6,$7*
1,1,$1+$1,$8,$9*
0 Add four rect primitives between the rounded corners*
20,1,$1+$1,$2,$3,$4,$5,0*
20,1,$1+$1,$4,$5,$6,$7,0*
20,1,$1+$1,$6,$7,$8,$9,0*
20,1,$1+$1,$8,$9,$2,$3,0*%
G04 Aperture macros list end*
%ADD10O,0.800000X0.800000*%
%ADD11R,1.300000X0.450000*%
%ADD12O,1.800000X1.150000*%
%ADD13O,2.000000X1.450000*%
%ADD14RoundRect,0.250000X-2.050000X-0.300000X2.050000X-0.300000X2.050000X0.300000X-2.050000X0.300000X0*%
%ADD15RoundRect,0.250002X-4.449998X-5.149998X4.449998X-5.149998X4.449998X5.149998X-4.449998X5.149998X0*%
%ADD16RoundRect,0.102000X-2.159000X-2.159000X2.159000X-2.159000X2.159000X2.159000X-2.159000X2.159000X0*%
%ADD17C,4.522000*%
%ADD18C,2.744000*%
%ADD19C,2.209800*%
%ADD20RoundRect,0.200000X0.200000X0.275000X-0.200000X0.275000X-0.200000X-0.275000X0.200000X-0.275000X0*%
%ADD21R,1.700000X1.700000*%
%ADD22O,1.700000X1.700000*%
%ADD23C,1.000000*%
%ADD24RoundRect,0.250001X0.499999X0.499999X-0.499999X0.499999X-0.499999X-0.499999X0.499999X-0.499999X0*%
%ADD25C,1.500000*%
%ADD26C,3.200000*%
%ADD27RoundRect,0.150000X-0.150000X0.512500X-0.150000X-0.512500X0.150000X-0.512500X0.150000X0.512500X0*%
%ADD28O,7.500000X2.300000*%
%ADD29C,3.000000*%
%ADD30O,2.300000X7.500000*%
%ADD31R,1.500000X1.500000*%
%ADD32C,0.800000*%
%ADD33O,9.000000X6.000000*%
%ADD34RoundRect,0.250001X0.499999X-0.499999X0.499999X0.499999X-0.499999X0.499999X-0.499999X-0.499999X0*%
%ADD35O,6.000000X9.000000*%
%ADD36C,4.000000*%
%ADD37R,1.600000X1.600000*%
%ADD38C,1.600000*%
G04 APERTURE END LIST*
D10*
X189700000Y-140422000D03*
X189700000Y-135422000D03*
D11*
X188600000Y-139222000D03*
X188600000Y-138572000D03*
X188600000Y-137922000D03*
X188600000Y-137272000D03*
X188600000Y-136622000D03*
D12*
X192450000Y-141797000D03*
D13*
X188650000Y-141647000D03*
X188650000Y-134197000D03*
D12*
X192450000Y-134047000D03*
D14*
X138430000Y-77470000D03*
D15*
X147580000Y-80010000D03*
D14*
X138430000Y-82550000D03*
D16*
X110800000Y-117100000D03*
D17*
X110800000Y-124720000D03*
D18*
X106990000Y-139960000D03*
X96830000Y-139960000D03*
D17*
X93020000Y-127260000D03*
D19*
X175641000Y-125730000D03*
X185801000Y-125730000D03*
X175641000Y-115570000D03*
X185801000Y-115570000D03*
D20*
X156844000Y-138176000D03*
X155194000Y-138176000D03*
D21*
X119390000Y-128270000D03*
D22*
X119390000Y-130810000D03*
X121930000Y-128270000D03*
X121930000Y-130810000D03*
X124470000Y-128270000D03*
X124470000Y-130810000D03*
X127010000Y-128270000D03*
X127010000Y-130810000D03*
X129550000Y-128270000D03*
X129550000Y-130810000D03*
X132090000Y-128270000D03*
X132090000Y-130810000D03*
X134630000Y-128270000D03*
X134630000Y-130810000D03*
X137170000Y-128270000D03*
X137170000Y-130810000D03*
X139710000Y-128270000D03*
X139710000Y-130810000D03*
X142250000Y-128270000D03*
X142250000Y-130810000D03*
X144790000Y-128270000D03*
X144790000Y-130810000D03*
X147330000Y-128270000D03*
X147330000Y-130810000D03*
X149870000Y-128270000D03*
X149870000Y-130810000D03*
X152410000Y-128270000D03*
X152410000Y-130810000D03*
D21*
X143383000Y-134620000D03*
D22*
X145923000Y-134620000D03*
X148463000Y-134620000D03*
X151003000Y-134620000D03*
D19*
X123825000Y-135001000D03*
X123825000Y-145161000D03*
X133985000Y-135001000D03*
X133985000Y-145161000D03*
D23*
X100567000Y-74038000D03*
X88567000Y-74038000D03*
D24*
X97567000Y-77978000D03*
D25*
X94567000Y-77978000D03*
X91567000Y-77978000D03*
X97567000Y-74978000D03*
X94567000Y-74978000D03*
X91567000Y-74978000D03*
D26*
X190754000Y-56896000D03*
D27*
X164018000Y-135895500D03*
X162118000Y-135895500D03*
X163068000Y-138170500D03*
D28*
X160650000Y-83000000D03*
X184650000Y-83000000D03*
D29*
X188650000Y-101600000D03*
X156650000Y-101600000D03*
D30*
X143695000Y-94805000D03*
X143695000Y-118805000D03*
D29*
X125095000Y-122805000D03*
X125095000Y-90805000D03*
D19*
X111125000Y-70612000D03*
X111125000Y-60452000D03*
X100965000Y-70612000D03*
X100965000Y-60452000D03*
D31*
X160660000Y-133745000D03*
D25*
X162570000Y-133745000D03*
X164480000Y-133745000D03*
D32*
X163620000Y-111715000D03*
X163620000Y-112975000D03*
X164370000Y-110685000D03*
X164370000Y-114005000D03*
X165570000Y-110295000D03*
X165570000Y-114395000D03*
X166900000Y-110295000D03*
X166900000Y-114395000D03*
D33*
X167570000Y-112345000D03*
D32*
X168240000Y-110295000D03*
X168240000Y-114395000D03*
X169570000Y-110295000D03*
X169570000Y-114395000D03*
X170770000Y-110685000D03*
X170770000Y-114005000D03*
X171520000Y-111715000D03*
X171520000Y-112975000D03*
X153620000Y-111715000D03*
X153620000Y-112975000D03*
X154370000Y-110685000D03*
X154370000Y-114005000D03*
X155570000Y-110295000D03*
X155570000Y-114395000D03*
X156900000Y-110295000D03*
X156900000Y-114395000D03*
D33*
X157570000Y-112345000D03*
D32*
X158240000Y-110295000D03*
X158240000Y-114395000D03*
X159570000Y-110295000D03*
X159570000Y-114395000D03*
X160770000Y-110685000D03*
X160770000Y-114005000D03*
X161520000Y-111715000D03*
X161520000Y-112975000D03*
D26*
X91186000Y-148844000D03*
X190754000Y-148844000D03*
D23*
X182340000Y-147000000D03*
X182340000Y-135000000D03*
D34*
X178400000Y-144000000D03*
D25*
X178400000Y-141000000D03*
X178400000Y-138000000D03*
X181400000Y-144000000D03*
X181400000Y-141000000D03*
X181400000Y-138000000D03*
D27*
X167574000Y-135895500D03*
X165674000Y-135895500D03*
X166624000Y-138170500D03*
X171130000Y-135895500D03*
X169230000Y-135895500D03*
X170180000Y-138170500D03*
D31*
X134225000Y-61600000D03*
D25*
X134225000Y-63510000D03*
X134225000Y-65420000D03*
D32*
X156255000Y-64560000D03*
X154995000Y-64560000D03*
X157285000Y-65310000D03*
X153965000Y-65310000D03*
X157675000Y-66510000D03*
X153575000Y-66510000D03*
X157675000Y-67840000D03*
X153575000Y-67840000D03*
D35*
X155625000Y-68510000D03*
D32*
X157675000Y-69180000D03*
X153575000Y-69180000D03*
X157675000Y-70510000D03*
X153575000Y-70510000D03*
X157285000Y-71710000D03*
X153965000Y-71710000D03*
X156255000Y-72460000D03*
X154995000Y-72460000D03*
X156255000Y-54560000D03*
X154995000Y-54560000D03*
X157285000Y-55310000D03*
X153965000Y-55310000D03*
X157675000Y-56510000D03*
X153575000Y-56510000D03*
X157675000Y-57840000D03*
X153575000Y-57840000D03*
D35*
X155625000Y-58510000D03*
D32*
X157675000Y-59180000D03*
X153575000Y-59180000D03*
X157675000Y-60510000D03*
X153575000Y-60510000D03*
X157285000Y-61710000D03*
X153965000Y-61710000D03*
X156255000Y-62460000D03*
X154995000Y-62460000D03*
D19*
X176931600Y-70739101D03*
X176931600Y-60579101D03*
X166771600Y-70739101D03*
X166771600Y-60579101D03*
D16*
X112400000Y-83840000D03*
D17*
X112400000Y-91460000D03*
D18*
X108590000Y-106700000D03*
X98430000Y-106700000D03*
D17*
X94620000Y-94000000D03*
D36*
X145270000Y-142979000D03*
X170270000Y-142979000D03*
D37*
X163310000Y-141559000D03*
D38*
X160540000Y-141559000D03*
X157770000Y-141559000D03*
X155000000Y-141559000D03*
X152230000Y-141559000D03*
X161925000Y-144399000D03*
X159155000Y-144399000D03*
X156385000Y-144399000D03*
X153615000Y-144399000D03*
D26*
X91186000Y-56896000D03*
D31*
X127249000Y-55485000D03*
D25*
X125339000Y-55485000D03*
X123429000Y-55485000D03*
D32*
X124289000Y-77515000D03*
X124289000Y-76255000D03*
X123539000Y-78545000D03*
X123539000Y-75225000D03*
X122339000Y-78935000D03*
X122339000Y-74835000D03*
X121009000Y-78935000D03*
X121009000Y-74835000D03*
D33*
X120339000Y-76885000D03*
D32*
X119669000Y-78935000D03*
X119669000Y-74835000D03*
X118339000Y-78935000D03*
X118339000Y-74835000D03*
X117139000Y-78545000D03*
X117139000Y-75225000D03*
X116389000Y-77515000D03*
X116389000Y-76255000D03*
X134289000Y-77515000D03*
X134289000Y-76255000D03*
X133539000Y-78545000D03*
X133539000Y-75225000D03*
X132339000Y-78935000D03*
X132339000Y-74835000D03*
X131009000Y-78935000D03*
X131009000Y-74835000D03*
D33*
X130339000Y-76885000D03*
D32*
X129669000Y-78935000D03*
X129669000Y-74835000D03*
X128339000Y-78935000D03*
X128339000Y-74835000D03*
X127139000Y-78545000D03*
X127139000Y-75225000D03*
X126389000Y-77515000D03*
X126389000Y-76255000D03*
M02*
