G04 #@! TF.GenerationSoftware,KiCad,Pcbnew,7.0.2*
G04 #@! TF.CreationDate,2023-11-05T14:56:02-07:00*
G04 #@! TF.ProjectId,Relay_Board_Lucy_V1,52656c61-795f-4426-9f61-72645f4c7563,V1.0*
G04 #@! TF.SameCoordinates,Original*
G04 #@! TF.FileFunction,Copper,L1,Top*
G04 #@! TF.FilePolarity,Positive*
%FSLAX46Y46*%
G04 Gerber Fmt 4.6, Leading zero omitted, Abs format (unit mm)*
G04 Created by KiCad (PCBNEW 7.0.2) date 2023-11-05 14:56:02*
%MOMM*%
%LPD*%
G01*
G04 APERTURE LIST*
G04 Aperture macros list*
%AMRoundRect*
0 Rectangle with rounded corners*
0 $1 Rounding radius*
0 $2 $3 $4 $5 $6 $7 $8 $9 X,Y pos of 4 corners*
0 Add a 4 corners polygon primitive as box body*
4,1,4,$2,$3,$4,$5,$6,$7,$8,$9,$2,$3,0*
0 Add four circle primitives for the rounded corners*
1,1,$1+$1,$2,$3*
1,1,$1+$1,$4,$5*
1,1,$1+$1,$6,$7*
1,1,$1+$1,$8,$9*
0 Add four rect primitives between the rounded corners*
20,1,$1+$1,$2,$3,$4,$5,0*
20,1,$1+$1,$4,$5,$6,$7,0*
20,1,$1+$1,$6,$7,$8,$9,0*
20,1,$1+$1,$8,$9,$2,$3,0*%
G04 Aperture macros list end*
G04 #@! TA.AperFunction,SMDPad,CuDef*
%ADD10R,1.300000X0.450000*%
G04 #@! TD*
G04 #@! TA.AperFunction,ComponentPad*
%ADD11O,1.800000X1.150000*%
G04 #@! TD*
G04 #@! TA.AperFunction,ComponentPad*
%ADD12O,2.000000X1.450000*%
G04 #@! TD*
G04 #@! TA.AperFunction,SMDPad,CuDef*
%ADD13RoundRect,0.250000X-2.050000X-0.300000X2.050000X-0.300000X2.050000X0.300000X-2.050000X0.300000X0*%
G04 #@! TD*
G04 #@! TA.AperFunction,SMDPad,CuDef*
%ADD14RoundRect,0.250000X-2.025000X-2.375000X2.025000X-2.375000X2.025000X2.375000X-2.025000X2.375000X0*%
G04 #@! TD*
G04 #@! TA.AperFunction,SMDPad,CuDef*
%ADD15RoundRect,0.250002X-4.449998X-5.149998X4.449998X-5.149998X4.449998X5.149998X-4.449998X5.149998X0*%
G04 #@! TD*
G04 #@! TA.AperFunction,ComponentPad*
%ADD16R,4.318000X4.318000*%
G04 #@! TD*
G04 #@! TA.AperFunction,ComponentPad*
%ADD17C,4.318000*%
G04 #@! TD*
G04 #@! TA.AperFunction,ComponentPad*
%ADD18C,2.540000*%
G04 #@! TD*
G04 #@! TA.AperFunction,ComponentPad*
%ADD19C,2.209800*%
G04 #@! TD*
G04 #@! TA.AperFunction,SMDPad,CuDef*
%ADD20RoundRect,0.200000X0.200000X0.275000X-0.200000X0.275000X-0.200000X-0.275000X0.200000X-0.275000X0*%
G04 #@! TD*
G04 #@! TA.AperFunction,ComponentPad*
%ADD21R,1.700000X1.700000*%
G04 #@! TD*
G04 #@! TA.AperFunction,ComponentPad*
%ADD22O,1.700000X1.700000*%
G04 #@! TD*
G04 #@! TA.AperFunction,ComponentPad*
%ADD23RoundRect,0.250001X0.499999X0.499999X-0.499999X0.499999X-0.499999X-0.499999X0.499999X-0.499999X0*%
G04 #@! TD*
G04 #@! TA.AperFunction,ComponentPad*
%ADD24C,1.500000*%
G04 #@! TD*
G04 #@! TA.AperFunction,SMDPad,CuDef*
%ADD25RoundRect,0.150000X-0.150000X0.512500X-0.150000X-0.512500X0.150000X-0.512500X0.150000X0.512500X0*%
G04 #@! TD*
G04 #@! TA.AperFunction,ComponentPad*
%ADD26O,7.500000X2.300000*%
G04 #@! TD*
G04 #@! TA.AperFunction,ComponentPad*
%ADD27C,3.000000*%
G04 #@! TD*
G04 #@! TA.AperFunction,ComponentPad*
%ADD28O,2.300000X7.500000*%
G04 #@! TD*
G04 #@! TA.AperFunction,ComponentPad*
%ADD29R,1.500000X1.500000*%
G04 #@! TD*
G04 #@! TA.AperFunction,ComponentPad*
%ADD30C,0.800000*%
G04 #@! TD*
G04 #@! TA.AperFunction,ComponentPad*
%ADD31O,9.000000X6.000000*%
G04 #@! TD*
G04 #@! TA.AperFunction,ComponentPad*
%ADD32RoundRect,0.250001X0.499999X-0.499999X0.499999X0.499999X-0.499999X0.499999X-0.499999X-0.499999X0*%
G04 #@! TD*
G04 #@! TA.AperFunction,ComponentPad*
%ADD33O,6.000000X9.000000*%
G04 #@! TD*
G04 #@! TA.AperFunction,ComponentPad*
%ADD34C,4.000000*%
G04 #@! TD*
G04 #@! TA.AperFunction,ComponentPad*
%ADD35R,1.600000X1.600000*%
G04 #@! TD*
G04 #@! TA.AperFunction,ComponentPad*
%ADD36C,1.600000*%
G04 #@! TD*
G04 #@! TA.AperFunction,ViaPad*
%ADD37C,0.400000*%
G04 #@! TD*
G04 #@! TA.AperFunction,ViaPad*
%ADD38C,0.700000*%
G04 #@! TD*
G04 #@! TA.AperFunction,ViaPad*
%ADD39C,0.250000*%
G04 #@! TD*
G04 #@! TA.AperFunction,Conductor*
%ADD40C,0.200000*%
G04 #@! TD*
G04 #@! TA.AperFunction,Conductor*
%ADD41C,0.600000*%
G04 #@! TD*
G04 #@! TA.AperFunction,Conductor*
%ADD42C,10.000000*%
G04 #@! TD*
G04 APERTURE END LIST*
D10*
X188600000Y-139222000D03*
X188600000Y-138572000D03*
X188600000Y-137922000D03*
X188600000Y-137272000D03*
X188600000Y-136622000D03*
D11*
X192450000Y-141797000D03*
D12*
X188650000Y-141647000D03*
X188650000Y-134197000D03*
D11*
X192450000Y-134047000D03*
D13*
X138430000Y-77470000D03*
D14*
X145155000Y-77235000D03*
X145155000Y-82785000D03*
D15*
X147580000Y-80010000D03*
D14*
X150005000Y-77235000D03*
X150005000Y-82785000D03*
D13*
X138430000Y-82550000D03*
D16*
X110800000Y-117100000D03*
D17*
X110800000Y-124720000D03*
D18*
X106990000Y-139960000D03*
X96830000Y-139960000D03*
D17*
X93020000Y-127260000D03*
D19*
X175641000Y-125730000D03*
X185801000Y-125730000D03*
X175641000Y-115570000D03*
X185801000Y-115570000D03*
D20*
X156844000Y-138176000D03*
X155194000Y-138176000D03*
D21*
X119390000Y-128270000D03*
D22*
X119390000Y-130810000D03*
X121930000Y-128270000D03*
X121930000Y-130810000D03*
X124470000Y-128270000D03*
X124470000Y-130810000D03*
X127010000Y-128270000D03*
X127010000Y-130810000D03*
X129550000Y-128270000D03*
X129550000Y-130810000D03*
X132090000Y-128270000D03*
X132090000Y-130810000D03*
X134630000Y-128270000D03*
X134630000Y-130810000D03*
X137170000Y-128270000D03*
X137170000Y-130810000D03*
X139710000Y-128270000D03*
X139710000Y-130810000D03*
X142250000Y-128270000D03*
X142250000Y-130810000D03*
X144790000Y-128270000D03*
X144790000Y-130810000D03*
X147330000Y-128270000D03*
X147330000Y-130810000D03*
X149870000Y-128270000D03*
X149870000Y-130810000D03*
X152410000Y-128270000D03*
X152410000Y-130810000D03*
D21*
X143383000Y-134620000D03*
D22*
X145923000Y-134620000D03*
X148463000Y-134620000D03*
X151003000Y-134620000D03*
D19*
X123825000Y-135001000D03*
X123825000Y-145161000D03*
X133985000Y-135001000D03*
X133985000Y-145161000D03*
D23*
X97567000Y-77978000D03*
D24*
X94567000Y-77978000D03*
X91567000Y-77978000D03*
X97567000Y-74978000D03*
X94567000Y-74978000D03*
X91567000Y-74978000D03*
D25*
X164018000Y-135895500D03*
X162118000Y-135895500D03*
X163068000Y-138170500D03*
D26*
X160650000Y-83000000D03*
X184650000Y-83000000D03*
D27*
X188650000Y-101600000D03*
X156650000Y-101600000D03*
D28*
X143695000Y-94805000D03*
X143695000Y-118805000D03*
D27*
X125095000Y-122805000D03*
X125095000Y-90805000D03*
D19*
X111125000Y-70612000D03*
X111125000Y-60452000D03*
X100965000Y-70612000D03*
X100965000Y-60452000D03*
D29*
X160660000Y-133745000D03*
D24*
X162570000Y-133745000D03*
X164480000Y-133745000D03*
D30*
X163620000Y-111715000D03*
X163620000Y-112975000D03*
X164370000Y-110685000D03*
X164370000Y-114005000D03*
X165570000Y-110295000D03*
X165570000Y-114395000D03*
X166900000Y-110295000D03*
X166900000Y-114395000D03*
D31*
X167570000Y-112345000D03*
D30*
X168240000Y-110295000D03*
X168240000Y-114395000D03*
X169570000Y-110295000D03*
X169570000Y-114395000D03*
X170770000Y-110685000D03*
X170770000Y-114005000D03*
X171520000Y-111715000D03*
X171520000Y-112975000D03*
X153620000Y-111715000D03*
X153620000Y-112975000D03*
X154370000Y-110685000D03*
X154370000Y-114005000D03*
X155570000Y-110295000D03*
X155570000Y-114395000D03*
X156900000Y-110295000D03*
X156900000Y-114395000D03*
D31*
X157570000Y-112345000D03*
D30*
X158240000Y-110295000D03*
X158240000Y-114395000D03*
X159570000Y-110295000D03*
X159570000Y-114395000D03*
X160770000Y-110685000D03*
X160770000Y-114005000D03*
X161520000Y-111715000D03*
X161520000Y-112975000D03*
D32*
X178400000Y-144000000D03*
D24*
X178400000Y-141000000D03*
X178400000Y-138000000D03*
X181400000Y-144000000D03*
X181400000Y-141000000D03*
X181400000Y-138000000D03*
D25*
X167574000Y-135895500D03*
X165674000Y-135895500D03*
X166624000Y-138170500D03*
X171130000Y-135895500D03*
X169230000Y-135895500D03*
X170180000Y-138170500D03*
D29*
X134225000Y-61600000D03*
D24*
X134225000Y-63510000D03*
X134225000Y-65420000D03*
D30*
X156255000Y-64560000D03*
X154995000Y-64560000D03*
X157285000Y-65310000D03*
X153965000Y-65310000D03*
X157675000Y-66510000D03*
X153575000Y-66510000D03*
X157675000Y-67840000D03*
X153575000Y-67840000D03*
D33*
X155625000Y-68510000D03*
D30*
X157675000Y-69180000D03*
X153575000Y-69180000D03*
X157675000Y-70510000D03*
X153575000Y-70510000D03*
X157285000Y-71710000D03*
X153965000Y-71710000D03*
X156255000Y-72460000D03*
X154995000Y-72460000D03*
X156255000Y-54560000D03*
X154995000Y-54560000D03*
X157285000Y-55310000D03*
X153965000Y-55310000D03*
X157675000Y-56510000D03*
X153575000Y-56510000D03*
X157675000Y-57840000D03*
X153575000Y-57840000D03*
D33*
X155625000Y-58510000D03*
D30*
X157675000Y-59180000D03*
X153575000Y-59180000D03*
X157675000Y-60510000D03*
X153575000Y-60510000D03*
X157285000Y-61710000D03*
X153965000Y-61710000D03*
X156255000Y-62460000D03*
X154995000Y-62460000D03*
D19*
X176931600Y-70739101D03*
X176931600Y-60579101D03*
X166771600Y-70739101D03*
X166771600Y-60579101D03*
D16*
X112400000Y-83840000D03*
D17*
X112400000Y-91460000D03*
D18*
X108590000Y-106700000D03*
X98430000Y-106700000D03*
D17*
X94620000Y-94000000D03*
D34*
X145270000Y-142979000D03*
X170270000Y-142979000D03*
D35*
X163310000Y-141559000D03*
D36*
X160540000Y-141559000D03*
X157770000Y-141559000D03*
X155000000Y-141559000D03*
X152230000Y-141559000D03*
X161925000Y-144399000D03*
X159155000Y-144399000D03*
X156385000Y-144399000D03*
X153615000Y-144399000D03*
D29*
X127249000Y-55485000D03*
D24*
X125339000Y-55485000D03*
X123429000Y-55485000D03*
D30*
X124289000Y-77515000D03*
X124289000Y-76255000D03*
X123539000Y-78545000D03*
X123539000Y-75225000D03*
X122339000Y-78935000D03*
X122339000Y-74835000D03*
X121009000Y-78935000D03*
X121009000Y-74835000D03*
D31*
X120339000Y-76885000D03*
D30*
X119669000Y-78935000D03*
X119669000Y-74835000D03*
X118339000Y-78935000D03*
X118339000Y-74835000D03*
X117139000Y-78545000D03*
X117139000Y-75225000D03*
X116389000Y-77515000D03*
X116389000Y-76255000D03*
X134289000Y-77515000D03*
X134289000Y-76255000D03*
X133539000Y-78545000D03*
X133539000Y-75225000D03*
X132339000Y-78935000D03*
X132339000Y-74835000D03*
X131009000Y-78935000D03*
X131009000Y-74835000D03*
D31*
X130339000Y-76885000D03*
D30*
X129669000Y-78935000D03*
X129669000Y-74835000D03*
X128339000Y-78935000D03*
X128339000Y-74835000D03*
X127139000Y-78545000D03*
X127139000Y-75225000D03*
X126389000Y-77515000D03*
X126389000Y-76255000D03*
D37*
X159359600Y-94691200D03*
X138938000Y-92710000D03*
X179451000Y-104394000D03*
X144399000Y-105410000D03*
X169545000Y-98044000D03*
X180848000Y-101981000D03*
X171196000Y-98044000D03*
X164211000Y-125984000D03*
X171196000Y-100203000D03*
X104394000Y-98171000D03*
X123215400Y-121081800D03*
X118745000Y-105410000D03*
X184277000Y-96901000D03*
X163449000Y-104013000D03*
X164211000Y-123190000D03*
X138684000Y-105410000D03*
X187198000Y-92202000D03*
X160909000Y-104013000D03*
X189230000Y-92202000D03*
X172339000Y-82169000D03*
X164211000Y-124206000D03*
X163195000Y-124206000D03*
X175387000Y-105156000D03*
X172720000Y-100203000D03*
X183800000Y-92000000D03*
X184277000Y-98044000D03*
X177165000Y-127508000D03*
X127228600Y-88188800D03*
X158115000Y-125349000D03*
X167894000Y-93853000D03*
X180975000Y-96901000D03*
X169545000Y-100203000D03*
X190373000Y-112776000D03*
X104394000Y-100076000D03*
X98679000Y-98171000D03*
X178562000Y-105156000D03*
X162687000Y-117348000D03*
X159359600Y-93675200D03*
X172720000Y-98044000D03*
X171196000Y-93853000D03*
X123418600Y-88138000D03*
X189230000Y-112776000D03*
X162687000Y-109601000D03*
X163195000Y-125095000D03*
X106172000Y-100076000D03*
X163195000Y-125984000D03*
X145872200Y-148158200D03*
X159512000Y-104013000D03*
X172339000Y-75438000D03*
X130810000Y-92710000D03*
X167894000Y-96901000D03*
X169545000Y-93853000D03*
X177266600Y-129032000D03*
X167894000Y-98044000D03*
X176022000Y-101981000D03*
X172720000Y-96901000D03*
X175107600Y-129032000D03*
X100457000Y-96393000D03*
X168148000Y-104775000D03*
X162560000Y-101346000D03*
X163195000Y-123190000D03*
X100457000Y-98171000D03*
X160909000Y-103124000D03*
X184277000Y-99187000D03*
X117348000Y-105410000D03*
X190373000Y-110998000D03*
X161671000Y-98933000D03*
X182118000Y-102108000D03*
X167513000Y-132588000D03*
X164338000Y-91948000D03*
X106172000Y-96393000D03*
X181991000Y-96901000D03*
X107950000Y-98171000D03*
X172339000Y-83185000D03*
X108204000Y-100076000D03*
X168148000Y-105537000D03*
X172339000Y-79121000D03*
X125450600Y-92811600D03*
X189230000Y-109347000D03*
X184800000Y-92000000D03*
X191262000Y-92202000D03*
X136398000Y-92710000D03*
X189230000Y-110998000D03*
X162687000Y-118745000D03*
X162687000Y-108585000D03*
X162687000Y-120269000D03*
X121640600Y-125933200D03*
X138684000Y-91059000D03*
X169545000Y-96901000D03*
X172720000Y-93853000D03*
X184277000Y-95758000D03*
X175158400Y-131394200D03*
X159131000Y-97409000D03*
X191389000Y-110998000D03*
X156337000Y-96520000D03*
X167513000Y-123571000D03*
X159385000Y-92202000D03*
X172339000Y-80137000D03*
X102362000Y-100076000D03*
X164211000Y-125095000D03*
X172339000Y-81153000D03*
X172720000Y-95758000D03*
X183159400Y-96901000D03*
X159232600Y-148209000D03*
X166497000Y-133604000D03*
X162687000Y-121539000D03*
X177241200Y-131368800D03*
X159766000Y-101854000D03*
X156845000Y-125730000D03*
X154940000Y-94996000D03*
X167513000Y-133604000D03*
X102362000Y-98171000D03*
X115951000Y-105410000D03*
X98679000Y-100076000D03*
X177673000Y-101981000D03*
X141351000Y-105410000D03*
X151688800Y-148183600D03*
X171196000Y-95758000D03*
X181229000Y-102870000D03*
X131064000Y-105410000D03*
X157861000Y-96520000D03*
X190373000Y-109347000D03*
X171577000Y-126365000D03*
X102362000Y-96393000D03*
X154940000Y-96520000D03*
X190119000Y-106426000D03*
X167767000Y-125730000D03*
X129159000Y-105410000D03*
X190246000Y-92202000D03*
X167894000Y-100203000D03*
X175107600Y-127508000D03*
X191389000Y-112776000D03*
X100457000Y-100076000D03*
X191389000Y-107696000D03*
X171196000Y-96901000D03*
X167894000Y-95758000D03*
X127000000Y-105410000D03*
X161671000Y-93345000D03*
X191389000Y-109347000D03*
X98679000Y-96393000D03*
X149783800Y-133248400D03*
X161671000Y-100330000D03*
X190119000Y-107696000D03*
X156057600Y-134391400D03*
X107950000Y-96393000D03*
X180340000Y-103632000D03*
X136398000Y-105410000D03*
X104394000Y-96393000D03*
X164592000Y-129667000D03*
X112776000Y-105410000D03*
X106172000Y-98171000D03*
X138430000Y-150164800D03*
X166497000Y-132588000D03*
X124002800Y-124942600D03*
X162179000Y-104013000D03*
X188214000Y-92202000D03*
X161671000Y-97536000D03*
X127533400Y-124942600D03*
X172339000Y-78105000D03*
X123469400Y-92786200D03*
X179324000Y-101981000D03*
X169545000Y-95758000D03*
X104190800Y-150241000D03*
X162687000Y-115824000D03*
X161671000Y-95377000D03*
X161671000Y-94234000D03*
X121539000Y-105435400D03*
X114427000Y-105410000D03*
X111500000Y-105400000D03*
X183896000Y-100584000D03*
X183007000Y-101346000D03*
D38*
X176657000Y-148082000D03*
X166370000Y-148082000D03*
X160655000Y-138938000D03*
X185547000Y-102616000D03*
D39*
X178257200Y-95631000D03*
X177215800Y-113334800D03*
D37*
X171069000Y-135890000D03*
X169164000Y-135890000D03*
D39*
X146278600Y-106426000D03*
X153365200Y-106146600D03*
X133731000Y-106299000D03*
X133604000Y-95123000D03*
X133324600Y-103987600D03*
X171805600Y-105130600D03*
X133324600Y-106654600D03*
X146735800Y-106680000D03*
X152806400Y-106527600D03*
X171678600Y-106680000D03*
X171373800Y-107772200D03*
X148056600Y-108864400D03*
X170357800Y-104013000D03*
X153136600Y-107873800D03*
X171958000Y-107772200D03*
X152781000Y-107492800D03*
X171373800Y-105460800D03*
X135686800Y-113334800D03*
X146913600Y-108534200D03*
X135737600Y-108534200D03*
X172466000Y-107086400D03*
X147040600Y-107086400D03*
X121310400Y-102311200D03*
X152501600Y-106959400D03*
X121920000Y-107086400D03*
X172770800Y-103657400D03*
X152501600Y-124079000D03*
X137845800Y-124104400D03*
X174421800Y-119354600D03*
X152501600Y-119405400D03*
X172339000Y-103505000D03*
X137820400Y-116205000D03*
D37*
X167513000Y-136906000D03*
X166370000Y-136779000D03*
X164465000Y-136779000D03*
X162179000Y-137033000D03*
X108534200Y-99110800D03*
X138938000Y-88519000D03*
X154559000Y-103149400D03*
X134950200Y-101371400D03*
X135178800Y-92583000D03*
X140081000Y-98094800D03*
X139700000Y-90551000D03*
X139954000Y-88519000D03*
D39*
X166938000Y-91973400D03*
X154559000Y-105511600D03*
X166192200Y-106197400D03*
X151739600Y-126263400D03*
X154457400Y-126263400D03*
X152146000Y-125857000D03*
X165557200Y-105765600D03*
X154914600Y-125984000D03*
X166395400Y-93649800D03*
X155752800Y-105587800D03*
X163271200Y-94643000D03*
X163271200Y-94143000D03*
X178231800Y-96164400D03*
X170459400Y-92608400D03*
X178206400Y-96697800D03*
X171069000Y-92608400D03*
X178638200Y-97282000D03*
X171602400Y-92557600D03*
X172059600Y-92430600D03*
X178028600Y-99263200D03*
X168148000Y-92659200D03*
X178028600Y-99796600D03*
X168681400Y-92608400D03*
X177927000Y-100304600D03*
X169341800Y-92659200D03*
X169900600Y-92633800D03*
X177977800Y-92735400D03*
X167589200Y-92684600D03*
X178003200Y-93294200D03*
X163271200Y-95643000D03*
X178028600Y-93903800D03*
X163271200Y-95143000D03*
X163271200Y-98143000D03*
X163271200Y-97643000D03*
X163271200Y-97143000D03*
D37*
X156718000Y-136779000D03*
X155448000Y-136779000D03*
D39*
X128092200Y-111836200D03*
X110286800Y-109474000D03*
X133223000Y-111506000D03*
D37*
X133883400Y-116713000D03*
X133223000Y-114554000D03*
X117119400Y-114858800D03*
D39*
X110718600Y-112166400D03*
X120980200Y-112268000D03*
X112039400Y-78587600D03*
X121095000Y-114681000D03*
X163296600Y-100143000D03*
D37*
X167919400Y-140182600D03*
D39*
X163271200Y-99643000D03*
D37*
X167259000Y-140157200D03*
X164969815Y-139994133D03*
D39*
X163271200Y-99143000D03*
D37*
X163550600Y-139954000D03*
D39*
X163271200Y-98643000D03*
X173202600Y-92379800D03*
X176784000Y-112903000D03*
X168910000Y-104038400D03*
X136118600Y-119507000D03*
X169773600Y-108229400D03*
X148996400Y-109397800D03*
X136144000Y-109321600D03*
X152476200Y-108788200D03*
X180568600Y-110540800D03*
X185140600Y-110540800D03*
X174777400Y-110540800D03*
X168427400Y-103149400D03*
X150952200Y-108686600D03*
X135255000Y-106146600D03*
X135153400Y-104343200D03*
X150977600Y-105359200D03*
X145999200Y-106019600D03*
X152755600Y-108381800D03*
X169438000Y-104069200D03*
X170307000Y-108026200D03*
X169900600Y-104038400D03*
X137947400Y-147320000D03*
X142900400Y-147320000D03*
X174066200Y-120954800D03*
X174066200Y-123596400D03*
X100838000Y-146913600D03*
X174066200Y-138150600D03*
X174066200Y-135737600D03*
X173710600Y-147320000D03*
X99822000Y-133223000D03*
X163271200Y-96143000D03*
X159283400Y-95732600D03*
X158877000Y-96139000D03*
X163271200Y-96643000D03*
X174218600Y-91922600D03*
X154940000Y-134518400D03*
X157302200Y-134493000D03*
X173761400Y-92354400D03*
X154178000Y-136829800D03*
X172643800Y-92405200D03*
D40*
X170270000Y-138260500D02*
X170270000Y-142979000D01*
X188600000Y-136622000D02*
X188600000Y-134247000D01*
X170180000Y-138170500D02*
X170270000Y-138260500D01*
X170180000Y-138170500D02*
X166624000Y-138170500D01*
X163068000Y-138170500D02*
X166624000Y-138170500D01*
X188600000Y-134247000D02*
X188650000Y-134197000D01*
D41*
X176990000Y-137970000D02*
X178425000Y-137970000D01*
X176657000Y-148082000D02*
X176657000Y-138303000D01*
X178425000Y-137970000D02*
X181425000Y-137970000D01*
X176657000Y-138303000D02*
X176990000Y-137970000D01*
D40*
X171069000Y-135890000D02*
X171124500Y-135890000D01*
X171124500Y-135890000D02*
X171130000Y-135895500D01*
X169164000Y-135890000D02*
X169224500Y-135890000D01*
X169224500Y-135890000D02*
X169230000Y-135895500D01*
D42*
X147580000Y-80010000D02*
X147701000Y-80131000D01*
X147701000Y-80131000D02*
X147701000Y-88519000D01*
D40*
X167513000Y-135956500D02*
X167574000Y-135895500D01*
X167513000Y-136906000D02*
X167513000Y-135956500D01*
X166370000Y-136591500D02*
X165674000Y-135895500D01*
X166370000Y-136779000D02*
X166370000Y-136591500D01*
X164465000Y-136779000D02*
X164465000Y-136342500D01*
X164465000Y-136342500D02*
X164018000Y-135895500D01*
X162179000Y-137033000D02*
X162179000Y-135956500D01*
X162179000Y-135956500D02*
X162118000Y-135895500D01*
X108534200Y-99110800D02*
X108534200Y-81254600D01*
X154559000Y-104267000D02*
X154559000Y-103149400D01*
X163499800Y-105537000D02*
X162915600Y-104952800D01*
X135890000Y-88519000D02*
X135178800Y-89230200D01*
X155244800Y-104952800D02*
X154559000Y-104267000D01*
X163499800Y-106324400D02*
X163499800Y-105537000D01*
X138938000Y-88519000D02*
X135890000Y-88519000D01*
X162915600Y-104952800D02*
X155244800Y-104952800D01*
X135178800Y-89230200D02*
X135178800Y-92583000D01*
X139700000Y-88773000D02*
X139954000Y-88519000D01*
X139700000Y-90551000D02*
X139700000Y-88773000D01*
X192815000Y-126678200D02*
X192815000Y-95851200D01*
X190025800Y-129467400D02*
X192815000Y-126678200D01*
X186947200Y-138472000D02*
X185550600Y-137075400D01*
X164366000Y-94643000D02*
X163271200Y-94643000D01*
X192007000Y-95043200D02*
X164766200Y-95043200D01*
X187524999Y-138472000D02*
X186947200Y-138472000D01*
X185550600Y-137075400D02*
X185550600Y-130208800D01*
X188600000Y-138572000D02*
X187624999Y-138572000D01*
X187624999Y-138572000D02*
X187524999Y-138472000D01*
X192815000Y-95851200D02*
X192007000Y-95043200D01*
X186292000Y-129467400D02*
X190025800Y-129467400D01*
X185550600Y-130208800D02*
X186292000Y-129467400D01*
X164766200Y-95043200D02*
X164366000Y-94643000D01*
X193265000Y-95664800D02*
X193265000Y-126864600D01*
X189714000Y-94293200D02*
X189714000Y-94029048D01*
X188514000Y-94293200D02*
X188514000Y-94029041D01*
X190212200Y-129917400D02*
X186478400Y-129917400D01*
X164490400Y-94132400D02*
X164951200Y-94593200D01*
X193265000Y-126864600D02*
X190212200Y-129917400D01*
X191514000Y-94029054D02*
X191514000Y-94293200D01*
X163271200Y-94143000D02*
X163281800Y-94132400D01*
X187133600Y-138022000D02*
X187524999Y-138022000D01*
X187524999Y-138022000D02*
X187624999Y-137922000D01*
X190314000Y-94029048D02*
X190314000Y-94293200D01*
X186478400Y-129917400D02*
X186000600Y-130395200D01*
X187624999Y-137922000D02*
X188600000Y-137922000D01*
X186000600Y-130395200D02*
X186000600Y-136889000D01*
X192193400Y-94593200D02*
X193265000Y-95664800D01*
X163281800Y-94132400D02*
X164490400Y-94132400D01*
X164951200Y-94593200D02*
X188214000Y-94593200D01*
X190914000Y-94293200D02*
X190914000Y-94029054D01*
X191814000Y-94593200D02*
X192193400Y-94593200D01*
X189114000Y-94029041D02*
X189114000Y-94293200D01*
X186000600Y-136889000D02*
X187133600Y-138022000D01*
X189114000Y-94293200D02*
G75*
G03*
X189414000Y-94593200I300000J0D01*
G01*
X189414000Y-94593200D02*
G75*
G03*
X189714000Y-94293200I0J300000D01*
G01*
X190614000Y-94593200D02*
G75*
G03*
X190914000Y-94293200I0J300000D01*
G01*
X190314000Y-94293200D02*
G75*
G03*
X190614000Y-94593200I300000J0D01*
G01*
X190014000Y-93729000D02*
G75*
G03*
X189714000Y-94029048I0J-300000D01*
G01*
X191514046Y-94029054D02*
G75*
G03*
X191214000Y-93729054I-300046J-46D01*
G01*
X190313952Y-94029048D02*
G75*
G03*
X190014000Y-93729048I-299952J48D01*
G01*
X188814000Y-93729000D02*
G75*
G03*
X188514000Y-94029041I0J-300000D01*
G01*
X191214000Y-93729100D02*
G75*
G03*
X190914000Y-94029054I0J-300000D01*
G01*
X191514000Y-94293200D02*
G75*
G03*
X191814000Y-94593200I300000J0D01*
G01*
X189113959Y-94029041D02*
G75*
G03*
X188814000Y-93729041I-299959J41D01*
G01*
X188214000Y-94593200D02*
G75*
G03*
X188514000Y-94293200I0J300000D01*
G01*
X156718000Y-138050000D02*
X156844000Y-138176000D01*
X156718000Y-136779000D02*
X156718000Y-138050000D01*
X155448000Y-136779000D02*
X155448000Y-137922000D01*
X155448000Y-137922000D02*
X155194000Y-138176000D01*
X187452000Y-104394000D02*
X188087000Y-105029000D01*
X185629256Y-127867400D02*
X183950600Y-129546059D01*
X165919000Y-143245055D02*
X165919000Y-141548000D01*
X191215000Y-117527553D02*
X191215000Y-126015456D01*
X188087000Y-105029000D02*
X188087000Y-114399553D01*
X189363056Y-127867400D02*
X185629256Y-127867400D01*
X165919000Y-141548000D02*
X166624000Y-140843000D01*
X183950600Y-149632342D02*
X183398942Y-150184000D01*
X163296600Y-100143000D02*
X165040000Y-100143000D01*
X164903000Y-149489942D02*
X164903000Y-144261057D01*
X165040000Y-100143000D02*
X166426600Y-101529600D01*
X169996400Y-102616000D02*
X180213000Y-102616000D01*
X167919400Y-140447254D02*
X167919400Y-140182600D01*
X164903000Y-144261057D02*
X165919000Y-143245055D01*
X180213000Y-102616000D02*
X181991000Y-104394000D01*
X188087000Y-114399553D02*
X191215000Y-117527553D01*
X168910000Y-101529600D02*
X169996400Y-102616000D01*
X167523654Y-140843000D02*
X167919400Y-140447254D01*
X191215000Y-126015456D02*
X189363056Y-127867400D01*
X183950600Y-129546059D02*
X183950600Y-149632342D01*
X166624000Y-140843000D02*
X167523654Y-140843000D01*
X165597058Y-150184000D02*
X164903000Y-149489942D01*
X166426600Y-101529600D02*
X168910000Y-101529600D01*
X181991000Y-104394000D02*
X187452000Y-104394000D01*
X183398942Y-150184000D02*
X165597058Y-150184000D01*
X191615000Y-117361868D02*
X191615000Y-126181142D01*
X188487000Y-104667000D02*
X188487000Y-114233867D01*
X166674800Y-140157200D02*
X167259000Y-140157200D01*
X165445000Y-99695000D02*
X166879600Y-101129600D01*
X166879600Y-101129600D02*
X169075685Y-101129600D01*
X163323200Y-99695000D02*
X165445000Y-99695000D01*
X183564628Y-150584000D02*
X165431372Y-150584000D01*
X188487000Y-114233867D02*
X191615000Y-117361868D01*
X186563000Y-101854000D02*
X186563000Y-102743000D01*
X164503000Y-149655628D02*
X164503000Y-144095372D01*
X182118000Y-101346000D02*
X183642000Y-99822000D01*
X191615000Y-126181142D02*
X189528742Y-128267400D01*
X165431372Y-150584000D02*
X164503000Y-149655628D01*
X184531000Y-99822000D02*
X186563000Y-101854000D01*
X185794942Y-128267400D02*
X184350600Y-129711744D01*
X183642000Y-99822000D02*
X184531000Y-99822000D01*
X169075685Y-101129600D02*
X169292085Y-101346000D01*
X186563000Y-102743000D02*
X188487000Y-104667000D01*
X165519000Y-141313000D02*
X166674800Y-140157200D01*
X169292085Y-101346000D02*
X182118000Y-101346000D01*
X163271200Y-99643000D02*
X163323200Y-99695000D01*
X189528742Y-128267400D02*
X185794942Y-128267400D01*
X184350600Y-129711744D02*
X184350600Y-149798028D01*
X184350600Y-149798028D02*
X183564628Y-150584000D01*
X165519000Y-143079370D02*
X165519000Y-141313000D01*
X164503000Y-144095372D02*
X165519000Y-143079370D01*
X175641000Y-99187000D02*
X177292000Y-100838000D01*
X192015000Y-99120315D02*
X192015000Y-126346828D01*
X185960628Y-128667400D02*
X184750600Y-129877429D01*
X164103000Y-143929686D02*
X165119000Y-142913685D01*
X183445686Y-98679000D02*
X191573685Y-98679000D01*
X165119000Y-142913685D02*
X165119000Y-140143318D01*
X191573685Y-98679000D02*
X192015000Y-99120315D01*
X184750600Y-129877429D02*
X184750600Y-149963714D01*
X165119000Y-140143318D02*
X164969815Y-139994133D01*
X189694428Y-128667400D02*
X185960628Y-128667400D01*
X184750600Y-149963714D02*
X183730314Y-150984000D01*
X181286686Y-100838000D02*
X183445686Y-98679000D01*
X177292000Y-100838000D02*
X181286686Y-100838000D01*
X183730314Y-150984000D02*
X165265686Y-150984000D01*
X164103000Y-149821314D02*
X164103000Y-143929686D01*
X163315200Y-99187000D02*
X175641000Y-99187000D01*
X163271200Y-99143000D02*
X163315200Y-99187000D01*
X165265686Y-150984000D02*
X164103000Y-149821314D01*
X192015000Y-126346828D02*
X189694428Y-128667400D01*
X185150600Y-150129400D02*
X183896000Y-151384000D01*
X192415000Y-126512514D02*
X189860114Y-129067400D01*
X163905000Y-139954000D02*
X163550600Y-139954000D01*
X164719000Y-142748000D02*
X164719000Y-140768000D01*
X192415000Y-98435000D02*
X192415000Y-126512514D01*
X163703000Y-149987000D02*
X163703000Y-143764000D01*
X164719000Y-140768000D02*
X163905000Y-139954000D01*
X163271200Y-98643000D02*
X182916000Y-98643000D01*
X165100000Y-151384000D02*
X163703000Y-149987000D01*
X191389000Y-97409000D02*
X192415000Y-98435000D01*
X182916000Y-98643000D02*
X184150000Y-97409000D01*
X184150000Y-97409000D02*
X191389000Y-97409000D01*
X163703000Y-143764000D02*
X164719000Y-142748000D01*
X183896000Y-151384000D02*
X165100000Y-151384000D01*
X186126314Y-129067400D02*
X185150600Y-130043114D01*
X185150600Y-130043114D02*
X185150600Y-150129400D01*
X189860114Y-129067400D02*
X186126314Y-129067400D01*
G04 #@! TA.AperFunction,Conductor*
G36*
X109290039Y-57042685D02*
G01*
X109335794Y-57095489D01*
X109347000Y-57146999D01*
X109347000Y-72644000D01*
X124844000Y-72644000D01*
X124911039Y-72663685D01*
X124956794Y-72716489D01*
X124968000Y-72768000D01*
X124968000Y-81664000D01*
X124948315Y-81731039D01*
X124895511Y-81776794D01*
X124844000Y-81788000D01*
X115183499Y-81788000D01*
X115116460Y-81768315D01*
X115070705Y-81715511D01*
X115059499Y-81664000D01*
X115059499Y-81636439D01*
X115059499Y-81633128D01*
X115053091Y-81573517D01*
X115002796Y-81438669D01*
X114916546Y-81323454D01*
X114801331Y-81237204D01*
X114666483Y-81186909D01*
X114606873Y-81180500D01*
X114603550Y-81180500D01*
X110196439Y-81180500D01*
X110196420Y-81180500D01*
X110193128Y-81180501D01*
X110189848Y-81180853D01*
X110189840Y-81180854D01*
X110133515Y-81186909D01*
X109998669Y-81237204D01*
X109883454Y-81323454D01*
X109797204Y-81438668D01*
X109746910Y-81573515D01*
X109746909Y-81573517D01*
X109740500Y-81633127D01*
X109740500Y-81636448D01*
X109740500Y-81636449D01*
X109740500Y-81664000D01*
X109720815Y-81731039D01*
X109668011Y-81776794D01*
X109616500Y-81788000D01*
X99438000Y-81788000D01*
X99370961Y-81768315D01*
X99325206Y-81715511D01*
X99314000Y-81664000D01*
X99314000Y-78587600D01*
X111409305Y-78587600D01*
X111427615Y-78738391D01*
X111481478Y-78880419D01*
X111567768Y-79005431D01*
X111681463Y-79106155D01*
X111681464Y-79106155D01*
X111681466Y-79106157D01*
X111815966Y-79176748D01*
X111963451Y-79213100D01*
X111963452Y-79213100D01*
X112115348Y-79213100D01*
X112115349Y-79213100D01*
X112262834Y-79176748D01*
X112397334Y-79106157D01*
X112511032Y-79005430D01*
X112597321Y-78880419D01*
X112651185Y-78738391D01*
X112669494Y-78587600D01*
X112651185Y-78436809D01*
X112597321Y-78294781D01*
X112597321Y-78294780D01*
X112511031Y-78169768D01*
X112397336Y-78069044D01*
X112262832Y-77998451D01*
X112163590Y-77973990D01*
X112115349Y-77962100D01*
X111963451Y-77962100D01*
X111927100Y-77971059D01*
X111815967Y-77998451D01*
X111681463Y-78069044D01*
X111567768Y-78169768D01*
X111481478Y-78294780D01*
X111427615Y-78436808D01*
X111409305Y-78587600D01*
X99314000Y-78587600D01*
X99314000Y-76581000D01*
X90040000Y-76581000D01*
X89972961Y-76561315D01*
X89927206Y-76508511D01*
X89916000Y-76457000D01*
X89916000Y-74978000D01*
X90312224Y-74978000D01*
X90331287Y-75195886D01*
X90387898Y-75407161D01*
X90480331Y-75605386D01*
X90523873Y-75667571D01*
X90523874Y-75667572D01*
X91083923Y-75107523D01*
X91107507Y-75187844D01*
X91185239Y-75308798D01*
X91293900Y-75402952D01*
X91424685Y-75462680D01*
X91434466Y-75464086D01*
X90877426Y-76021124D01*
X90877427Y-76021125D01*
X90939610Y-76064666D01*
X91137840Y-76157102D01*
X91349113Y-76213712D01*
X91566999Y-76232775D01*
X91784886Y-76213712D01*
X91996159Y-76157102D01*
X92194385Y-76064667D01*
X92256572Y-76021124D01*
X91699534Y-75464086D01*
X91709315Y-75462680D01*
X91840100Y-75402952D01*
X91948761Y-75308798D01*
X92026493Y-75187844D01*
X92050076Y-75107524D01*
X92610124Y-75667572D01*
X92653667Y-75605385D01*
X92746102Y-75407159D01*
X92802712Y-75195886D01*
X92821775Y-74978000D01*
X93312224Y-74978000D01*
X93331287Y-75195886D01*
X93387898Y-75407161D01*
X93480331Y-75605386D01*
X93523873Y-75667571D01*
X93523875Y-75667572D01*
X94083923Y-75107523D01*
X94107507Y-75187844D01*
X94185239Y-75308798D01*
X94293900Y-75402952D01*
X94424685Y-75462680D01*
X94434466Y-75464086D01*
X93877426Y-76021124D01*
X93877427Y-76021125D01*
X93939610Y-76064666D01*
X94137840Y-76157102D01*
X94349113Y-76213712D01*
X94566999Y-76232775D01*
X94784886Y-76213712D01*
X94996159Y-76157102D01*
X95194385Y-76064667D01*
X95256572Y-76021124D01*
X94699534Y-75464086D01*
X94709315Y-75462680D01*
X94840100Y-75402952D01*
X94948761Y-75308798D01*
X95026493Y-75187844D01*
X95050076Y-75107524D01*
X95610124Y-75667572D01*
X95653667Y-75605385D01*
X95746102Y-75407159D01*
X95802712Y-75195886D01*
X95821775Y-74978000D01*
X96312224Y-74978000D01*
X96331287Y-75195886D01*
X96387898Y-75407161D01*
X96480331Y-75605386D01*
X96523873Y-75667571D01*
X96523874Y-75667572D01*
X97083923Y-75107523D01*
X97107507Y-75187844D01*
X97185239Y-75308798D01*
X97293900Y-75402952D01*
X97424685Y-75462680D01*
X97434466Y-75464086D01*
X96877426Y-76021124D01*
X96877427Y-76021125D01*
X96939610Y-76064666D01*
X97137840Y-76157102D01*
X97349113Y-76213712D01*
X97566999Y-76232775D01*
X97784886Y-76213712D01*
X97996159Y-76157102D01*
X98194385Y-76064667D01*
X98256572Y-76021124D01*
X97699534Y-75464086D01*
X97709315Y-75462680D01*
X97840100Y-75402952D01*
X97948761Y-75308798D01*
X98026493Y-75187844D01*
X98050076Y-75107524D01*
X98610124Y-75667572D01*
X98653667Y-75605385D01*
X98746102Y-75407159D01*
X98802712Y-75195886D01*
X98821775Y-74978000D01*
X98802712Y-74760113D01*
X98746102Y-74548840D01*
X98653667Y-74350615D01*
X98610123Y-74288428D01*
X98050076Y-74848475D01*
X98026493Y-74768156D01*
X97948761Y-74647202D01*
X97840100Y-74553048D01*
X97709315Y-74493320D01*
X97699533Y-74491913D01*
X98109278Y-74082168D01*
X99808648Y-74082168D01*
X99824120Y-74169907D01*
X99839277Y-74255866D01*
X99880146Y-74350611D01*
X99909136Y-74417818D01*
X100014461Y-74559294D01*
X100149570Y-74672665D01*
X100149571Y-74672665D01*
X100149573Y-74672667D01*
X100307189Y-74751824D01*
X100307190Y-74751824D01*
X100307192Y-74751825D01*
X100478810Y-74792500D01*
X100478812Y-74792500D01*
X100607342Y-74792500D01*
X100610941Y-74792500D01*
X100742184Y-74777160D01*
X100907924Y-74716836D01*
X101055285Y-74619915D01*
X101176322Y-74491623D01*
X101184188Y-74478000D01*
X101230291Y-74398143D01*
X101264510Y-74338876D01*
X101315095Y-74169909D01*
X101325351Y-73993831D01*
X101294723Y-73820134D01*
X101224864Y-73658182D01*
X101119539Y-73516706D01*
X101058380Y-73465387D01*
X100984429Y-73403334D01*
X100826807Y-73324174D01*
X100655190Y-73283500D01*
X100655188Y-73283500D01*
X100523059Y-73283500D01*
X100519492Y-73283916D01*
X100519490Y-73283917D01*
X100391813Y-73298840D01*
X100226074Y-73359164D01*
X100078715Y-73456084D01*
X99957676Y-73584377D01*
X99869491Y-73737120D01*
X99818905Y-73906092D01*
X99808648Y-74082168D01*
X98109278Y-74082168D01*
X98256572Y-73934874D01*
X98256571Y-73934873D01*
X98194386Y-73891331D01*
X97996161Y-73798898D01*
X97784886Y-73742287D01*
X97567000Y-73723224D01*
X97349113Y-73742287D01*
X97137840Y-73798897D01*
X96939611Y-73891333D01*
X96877428Y-73934874D01*
X96877427Y-73934875D01*
X97434467Y-74491913D01*
X97424685Y-74493320D01*
X97293900Y-74553048D01*
X97185239Y-74647202D01*
X97107507Y-74768156D01*
X97083923Y-74848475D01*
X96523875Y-74288427D01*
X96523874Y-74288428D01*
X96480333Y-74350611D01*
X96387897Y-74548840D01*
X96331287Y-74760113D01*
X96312224Y-74978000D01*
X95821775Y-74978000D01*
X95802712Y-74760113D01*
X95746102Y-74548840D01*
X95653667Y-74350615D01*
X95610123Y-74288428D01*
X95050076Y-74848475D01*
X95026493Y-74768156D01*
X94948761Y-74647202D01*
X94840100Y-74553048D01*
X94709315Y-74493320D01*
X94699534Y-74491913D01*
X95256572Y-73934875D01*
X95256571Y-73934873D01*
X95194386Y-73891331D01*
X94996161Y-73798898D01*
X94784886Y-73742287D01*
X94567000Y-73723224D01*
X94349113Y-73742287D01*
X94137840Y-73798897D01*
X93939611Y-73891333D01*
X93877428Y-73934874D01*
X93877427Y-73934875D01*
X94434466Y-74491913D01*
X94424685Y-74493320D01*
X94293900Y-74553048D01*
X94185239Y-74647202D01*
X94107507Y-74768156D01*
X94083923Y-74848475D01*
X93523875Y-74288427D01*
X93523874Y-74288428D01*
X93480333Y-74350611D01*
X93387897Y-74548840D01*
X93331287Y-74760113D01*
X93312224Y-74978000D01*
X92821775Y-74978000D01*
X92802712Y-74760113D01*
X92746102Y-74548840D01*
X92653667Y-74350615D01*
X92610123Y-74288428D01*
X92050076Y-74848475D01*
X92026493Y-74768156D01*
X91948761Y-74647202D01*
X91840100Y-74553048D01*
X91709315Y-74493320D01*
X91699533Y-74491913D01*
X92256572Y-73934874D01*
X92256571Y-73934873D01*
X92194386Y-73891331D01*
X91996161Y-73798898D01*
X91784886Y-73742287D01*
X91567000Y-73723224D01*
X91349113Y-73742287D01*
X91137840Y-73798897D01*
X90939611Y-73891333D01*
X90877428Y-73934874D01*
X90877427Y-73934875D01*
X91434467Y-74491913D01*
X91424685Y-74493320D01*
X91293900Y-74553048D01*
X91185239Y-74647202D01*
X91107507Y-74768156D01*
X91083923Y-74848475D01*
X90523875Y-74288427D01*
X90523874Y-74288428D01*
X90480333Y-74350611D01*
X90387897Y-74548840D01*
X90331287Y-74760113D01*
X90312224Y-74978000D01*
X89916000Y-74978000D01*
X89916000Y-73403000D01*
X89935685Y-73335961D01*
X89988489Y-73290206D01*
X90040000Y-73279000D01*
X94361000Y-73279000D01*
X94361000Y-58625263D01*
X94374515Y-58568968D01*
X94478260Y-58365357D01*
X94479734Y-58362465D01*
X94614978Y-58010143D01*
X94712653Y-57645613D01*
X94771690Y-57272871D01*
X94778626Y-57140510D01*
X94801793Y-57074593D01*
X94856920Y-57031664D01*
X94902457Y-57023000D01*
X109223000Y-57023000D01*
X109290039Y-57042685D01*
G37*
G04 #@! TD.AperFunction*
G04 #@! TA.AperFunction,Conductor*
G36*
X102813039Y-89681685D02*
G01*
X102858794Y-89734489D01*
X102870000Y-89786000D01*
X102870000Y-95897436D01*
X102850315Y-95964475D01*
X102797511Y-96010230D01*
X102728353Y-96020174D01*
X102678961Y-96001752D01*
X102620956Y-95964475D01*
X102572053Y-95933047D01*
X102433961Y-95892500D01*
X102290039Y-95892500D01*
X102151947Y-95933047D01*
X102030870Y-96010858D01*
X101936623Y-96119625D01*
X101876834Y-96250542D01*
X101856353Y-96393000D01*
X101876834Y-96535457D01*
X101936623Y-96666374D01*
X102021704Y-96764563D01*
X102030872Y-96775143D01*
X102151947Y-96852953D01*
X102290039Y-96893500D01*
X102433961Y-96893500D01*
X102572053Y-96852953D01*
X102678962Y-96784246D01*
X102746000Y-96764563D01*
X102813040Y-96784248D01*
X102858794Y-96837052D01*
X102870000Y-96888563D01*
X102870000Y-97675436D01*
X102850315Y-97742475D01*
X102797511Y-97788230D01*
X102728353Y-97798174D01*
X102678961Y-97779752D01*
X102620956Y-97742475D01*
X102572053Y-97711047D01*
X102433961Y-97670500D01*
X102290039Y-97670500D01*
X102151947Y-97711047D01*
X102030870Y-97788858D01*
X101936623Y-97897625D01*
X101876834Y-98028542D01*
X101856353Y-98171000D01*
X101876834Y-98313457D01*
X101936623Y-98444374D01*
X102021704Y-98542563D01*
X102030872Y-98553143D01*
X102151947Y-98630953D01*
X102290039Y-98671500D01*
X102433961Y-98671500D01*
X102572053Y-98630953D01*
X102678962Y-98562246D01*
X102746000Y-98542563D01*
X102813040Y-98562248D01*
X102858794Y-98615052D01*
X102870000Y-98666563D01*
X102870000Y-99580436D01*
X102850315Y-99647475D01*
X102797511Y-99693230D01*
X102728353Y-99703174D01*
X102678961Y-99684752D01*
X102620956Y-99647475D01*
X102572053Y-99616047D01*
X102433961Y-99575500D01*
X102290039Y-99575500D01*
X102151947Y-99616047D01*
X102030870Y-99693858D01*
X101936623Y-99802625D01*
X101876834Y-99933542D01*
X101856353Y-100075999D01*
X101876834Y-100218457D01*
X101936623Y-100349374D01*
X102021704Y-100447563D01*
X102030872Y-100458143D01*
X102151947Y-100535953D01*
X102290039Y-100576500D01*
X102433961Y-100576500D01*
X102572053Y-100535953D01*
X102678962Y-100467246D01*
X102746000Y-100447563D01*
X102813040Y-100467248D01*
X102858794Y-100520052D01*
X102870000Y-100571563D01*
X102869999Y-101980999D01*
X102870000Y-101981000D01*
X106048123Y-101981000D01*
X106115162Y-102000685D01*
X106160917Y-102053489D01*
X106172123Y-102104877D01*
X106197400Y-127558800D01*
X115978816Y-127558800D01*
X116045855Y-127578485D01*
X116091610Y-127631289D01*
X116102815Y-127683382D01*
X116077999Y-132968999D01*
X116078000Y-132969000D01*
X125987000Y-132969000D01*
X126054039Y-132988685D01*
X126099794Y-133041489D01*
X126111000Y-133093000D01*
X126111000Y-146561000D01*
X126091315Y-146628039D01*
X126038511Y-146673794D01*
X125987000Y-146685000D01*
X117853000Y-146685000D01*
X117785961Y-146665315D01*
X117740206Y-146612511D01*
X117729000Y-146561000D01*
X117729000Y-142494000D01*
X110360000Y-142494000D01*
X110292961Y-142474315D01*
X110247206Y-142421511D01*
X110236000Y-142370000D01*
X110236000Y-136524999D01*
X110235999Y-136524999D01*
X99058393Y-136650591D01*
X98991137Y-136631661D01*
X98944791Y-136579374D01*
X98933000Y-136526599D01*
X98933000Y-133223000D01*
X99391195Y-133223000D01*
X99412280Y-133356124D01*
X99473472Y-133476221D01*
X99568778Y-133571527D01*
X99568780Y-133571528D01*
X99688874Y-133632719D01*
X99755436Y-133643261D01*
X99821999Y-133653804D01*
X99821999Y-133653803D01*
X99822000Y-133653804D01*
X99955126Y-133632719D01*
X100075220Y-133571528D01*
X100170528Y-133476220D01*
X100231719Y-133356126D01*
X100252804Y-133223000D01*
X100231719Y-133089874D01*
X100170528Y-132969780D01*
X100170527Y-132969778D01*
X100075221Y-132874472D01*
X99955124Y-132813280D01*
X99821999Y-132792195D01*
X99688875Y-132813280D01*
X99568778Y-132874472D01*
X99473472Y-132969778D01*
X99412280Y-133089875D01*
X99391195Y-133223000D01*
X98933000Y-133223000D01*
X98933000Y-123698000D01*
X89532000Y-123698000D01*
X89464961Y-123678315D01*
X89419206Y-123625511D01*
X89408000Y-123574000D01*
X89408000Y-106699999D01*
X96854644Y-106699999D01*
X96874039Y-106946441D01*
X96931746Y-107186812D01*
X97026346Y-107415193D01*
X97026348Y-107415197D01*
X97075937Y-107496119D01*
X97155512Y-107625974D01*
X97219243Y-107700593D01*
X97316055Y-107813945D01*
X97504029Y-107974490D01*
X97714803Y-108103652D01*
X97799171Y-108138598D01*
X97943187Y-108198253D01*
X98019126Y-108216484D01*
X98183560Y-108255961D01*
X98430000Y-108275356D01*
X98676440Y-108255961D01*
X98916812Y-108198253D01*
X99145197Y-108103652D01*
X99355971Y-107974490D01*
X99543945Y-107813945D01*
X99704490Y-107625971D01*
X99833652Y-107415197D01*
X99928253Y-107186812D01*
X99985961Y-106946440D01*
X100005356Y-106700000D01*
X99985961Y-106453560D01*
X99928253Y-106213188D01*
X99833652Y-105984803D01*
X99704490Y-105774029D01*
X99543945Y-105586055D01*
X99367551Y-105435400D01*
X99355974Y-105425512D01*
X99314342Y-105400000D01*
X99145197Y-105296348D01*
X99145194Y-105296347D01*
X99145193Y-105296346D01*
X98916812Y-105201746D01*
X98676441Y-105144039D01*
X98553220Y-105134341D01*
X98430000Y-105124644D01*
X98429999Y-105124644D01*
X98183558Y-105144039D01*
X97943187Y-105201746D01*
X97714806Y-105296346D01*
X97504025Y-105425512D01*
X97316055Y-105586055D01*
X97155512Y-105774025D01*
X97026346Y-105984806D01*
X96931746Y-106213187D01*
X96874039Y-106453558D01*
X96854644Y-106699999D01*
X89408000Y-106699999D01*
X89408000Y-100075999D01*
X98173353Y-100075999D01*
X98193834Y-100218457D01*
X98253623Y-100349374D01*
X98338704Y-100447563D01*
X98347872Y-100458143D01*
X98468947Y-100535953D01*
X98607039Y-100576500D01*
X98750961Y-100576500D01*
X98889053Y-100535953D01*
X99010128Y-100458143D01*
X99104377Y-100349373D01*
X99164165Y-100218457D01*
X99184647Y-100076000D01*
X99184647Y-100075999D01*
X99951353Y-100075999D01*
X99971834Y-100218457D01*
X100031623Y-100349374D01*
X100116704Y-100447563D01*
X100125872Y-100458143D01*
X100246947Y-100535953D01*
X100385039Y-100576500D01*
X100528961Y-100576500D01*
X100667053Y-100535953D01*
X100788128Y-100458143D01*
X100882377Y-100349373D01*
X100942165Y-100218457D01*
X100962647Y-100076000D01*
X100942165Y-99933543D01*
X100882377Y-99802627D01*
X100882376Y-99802626D01*
X100882376Y-99802625D01*
X100788129Y-99693858D01*
X100788128Y-99693857D01*
X100667053Y-99616047D01*
X100528961Y-99575500D01*
X100385039Y-99575500D01*
X100246947Y-99616047D01*
X100125870Y-99693858D01*
X100031623Y-99802625D01*
X99971834Y-99933542D01*
X99951353Y-100075999D01*
X99184647Y-100075999D01*
X99164165Y-99933543D01*
X99104377Y-99802627D01*
X99104376Y-99802626D01*
X99104376Y-99802625D01*
X99010129Y-99693858D01*
X99010128Y-99693857D01*
X98889053Y-99616047D01*
X98750961Y-99575500D01*
X98607039Y-99575500D01*
X98468947Y-99616047D01*
X98347870Y-99693858D01*
X98253623Y-99802625D01*
X98193834Y-99933542D01*
X98173353Y-100075999D01*
X89408000Y-100075999D01*
X89408000Y-98171000D01*
X98173353Y-98171000D01*
X98193834Y-98313457D01*
X98253623Y-98444374D01*
X98338704Y-98542563D01*
X98347872Y-98553143D01*
X98468947Y-98630953D01*
X98607039Y-98671500D01*
X98750961Y-98671500D01*
X98889053Y-98630953D01*
X99010128Y-98553143D01*
X99104377Y-98444373D01*
X99164165Y-98313457D01*
X99184647Y-98171000D01*
X99951353Y-98171000D01*
X99971834Y-98313457D01*
X100031623Y-98444374D01*
X100116704Y-98542563D01*
X100125872Y-98553143D01*
X100246947Y-98630953D01*
X100385039Y-98671500D01*
X100528961Y-98671500D01*
X100667053Y-98630953D01*
X100788128Y-98553143D01*
X100882377Y-98444373D01*
X100942165Y-98313457D01*
X100962647Y-98171000D01*
X100942165Y-98028543D01*
X100882377Y-97897627D01*
X100882376Y-97897626D01*
X100882376Y-97897625D01*
X100788129Y-97788858D01*
X100788128Y-97788857D01*
X100667053Y-97711047D01*
X100528961Y-97670500D01*
X100385039Y-97670500D01*
X100246947Y-97711047D01*
X100125870Y-97788858D01*
X100031623Y-97897625D01*
X99971834Y-98028542D01*
X99951353Y-98171000D01*
X99184647Y-98171000D01*
X99164165Y-98028543D01*
X99104377Y-97897627D01*
X99104376Y-97897626D01*
X99104376Y-97897625D01*
X99010129Y-97788858D01*
X99010128Y-97788857D01*
X98889053Y-97711047D01*
X98750961Y-97670500D01*
X98607039Y-97670500D01*
X98468947Y-97711047D01*
X98347870Y-97788858D01*
X98253623Y-97897625D01*
X98193834Y-98028542D01*
X98173353Y-98171000D01*
X89408000Y-98171000D01*
X89408000Y-96393000D01*
X98173353Y-96393000D01*
X98193834Y-96535457D01*
X98253623Y-96666374D01*
X98338704Y-96764563D01*
X98347872Y-96775143D01*
X98468947Y-96852953D01*
X98607039Y-96893500D01*
X98750961Y-96893500D01*
X98889053Y-96852953D01*
X99010128Y-96775143D01*
X99104377Y-96666373D01*
X99164165Y-96535457D01*
X99184647Y-96393000D01*
X99951353Y-96393000D01*
X99971834Y-96535457D01*
X100031623Y-96666374D01*
X100116704Y-96764563D01*
X100125872Y-96775143D01*
X100246947Y-96852953D01*
X100385039Y-96893500D01*
X100528961Y-96893500D01*
X100667053Y-96852953D01*
X100788128Y-96775143D01*
X100882377Y-96666373D01*
X100942165Y-96535457D01*
X100962647Y-96393000D01*
X100942165Y-96250543D01*
X100882377Y-96119627D01*
X100882376Y-96119626D01*
X100882376Y-96119625D01*
X100788129Y-96010858D01*
X100788128Y-96010857D01*
X100667053Y-95933047D01*
X100528961Y-95892500D01*
X100385039Y-95892500D01*
X100246947Y-95933047D01*
X100125870Y-96010858D01*
X100031623Y-96119625D01*
X99971834Y-96250542D01*
X99951353Y-96393000D01*
X99184647Y-96393000D01*
X99164165Y-96250543D01*
X99104377Y-96119627D01*
X99104376Y-96119626D01*
X99104376Y-96119625D01*
X99010129Y-96010858D01*
X99010128Y-96010857D01*
X98889053Y-95933047D01*
X98750961Y-95892500D01*
X98607039Y-95892500D01*
X98468947Y-95933047D01*
X98347870Y-96010858D01*
X98253623Y-96119625D01*
X98193834Y-96250542D01*
X98173353Y-96393000D01*
X89408000Y-96393000D01*
X89408000Y-89786000D01*
X89427685Y-89718961D01*
X89480489Y-89673206D01*
X89532000Y-89662000D01*
X102746000Y-89662000D01*
X102813039Y-89681685D01*
G37*
G04 #@! TD.AperFunction*
G04 #@! TA.AperFunction,Conductor*
G36*
X165147372Y-105683685D02*
G01*
X165193127Y-105736489D01*
X165202806Y-105768602D01*
X165219699Y-105875260D01*
X165270104Y-105974187D01*
X165348612Y-106052695D01*
X165447539Y-106103100D01*
X165557200Y-106120469D01*
X165686259Y-106100028D01*
X165686574Y-106102019D01*
X165727376Y-106094356D01*
X165792117Y-106120629D01*
X165832376Y-106177734D01*
X165837479Y-106198338D01*
X165854699Y-106307061D01*
X165905104Y-106405987D01*
X165983612Y-106484495D01*
X166082539Y-106534900D01*
X166192199Y-106552269D01*
X166192199Y-106552268D01*
X166192200Y-106552269D01*
X166301861Y-106534900D01*
X166400787Y-106484495D01*
X166479295Y-106405987D01*
X166529700Y-106307061D01*
X166547069Y-106197400D01*
X166529700Y-106087739D01*
X166511844Y-106052695D01*
X166479295Y-105988812D01*
X166400787Y-105910304D01*
X166377590Y-105898485D01*
X166326793Y-105850511D01*
X166309998Y-105782690D01*
X166332535Y-105716555D01*
X166387250Y-105673103D01*
X166433884Y-105664000D01*
X167659172Y-105664000D01*
X167726211Y-105683685D01*
X167769657Y-105731705D01*
X167799472Y-105790221D01*
X167894778Y-105885527D01*
X167894780Y-105885528D01*
X168014874Y-105946719D01*
X168081436Y-105957261D01*
X168147999Y-105967804D01*
X168147999Y-105967803D01*
X168148000Y-105967804D01*
X168281126Y-105946719D01*
X168401220Y-105885528D01*
X168496528Y-105790220D01*
X168526342Y-105731705D01*
X168574317Y-105680909D01*
X168636828Y-105664000D01*
X171029956Y-105664000D01*
X171096995Y-105683685D01*
X171117632Y-105700314D01*
X171149023Y-105731705D01*
X171165214Y-105747896D01*
X171233502Y-105782690D01*
X171264139Y-105798300D01*
X171373800Y-105815669D01*
X171483461Y-105798300D01*
X171582387Y-105747895D01*
X171629964Y-105700317D01*
X171691285Y-105666834D01*
X171717644Y-105664000D01*
X187582000Y-105664000D01*
X187649039Y-105683685D01*
X187694794Y-105736489D01*
X187706000Y-105788000D01*
X187706000Y-122050000D01*
X187686315Y-122117039D01*
X187633511Y-122162794D01*
X187582000Y-122174000D01*
X163065000Y-122174000D01*
X162997961Y-122154315D01*
X162952206Y-122101511D01*
X162941000Y-122050000D01*
X162941000Y-121938110D01*
X162960685Y-121871071D01*
X162977314Y-121850433D01*
X163035528Y-121792220D01*
X163096719Y-121672126D01*
X163117804Y-121539000D01*
X163096719Y-121405874D01*
X163035528Y-121285780D01*
X163035527Y-121285778D01*
X162977319Y-121227570D01*
X162943834Y-121166247D01*
X162941000Y-121139889D01*
X162941000Y-120954799D01*
X173711330Y-120954799D01*
X173728699Y-121064460D01*
X173779104Y-121163387D01*
X173857612Y-121241895D01*
X173943739Y-121285778D01*
X173956539Y-121292300D01*
X174066200Y-121309669D01*
X174175861Y-121292300D01*
X174274787Y-121241895D01*
X174353295Y-121163387D01*
X174403700Y-121064461D01*
X174421069Y-120954800D01*
X174403700Y-120845139D01*
X174403700Y-120845138D01*
X174353295Y-120746212D01*
X174274787Y-120667704D01*
X174175860Y-120617299D01*
X174066200Y-120599930D01*
X173956539Y-120617299D01*
X173857612Y-120667704D01*
X173779104Y-120746212D01*
X173728699Y-120845139D01*
X173711330Y-120954799D01*
X162941000Y-120954799D01*
X162941000Y-120668110D01*
X162960685Y-120601071D01*
X162977319Y-120580429D01*
X162977318Y-120580429D01*
X163035528Y-120522220D01*
X163096719Y-120402126D01*
X163117804Y-120269000D01*
X163096719Y-120135874D01*
X163066123Y-120075827D01*
X163035528Y-120015779D01*
X162977318Y-119957569D01*
X162943834Y-119896245D01*
X162941000Y-119869888D01*
X162941000Y-119354600D01*
X174066930Y-119354600D01*
X174084299Y-119464260D01*
X174134704Y-119563187D01*
X174213212Y-119641695D01*
X174312139Y-119692100D01*
X174421800Y-119709469D01*
X174531461Y-119692100D01*
X174630387Y-119641695D01*
X174708895Y-119563187D01*
X174759300Y-119464261D01*
X174776669Y-119354600D01*
X174759300Y-119244939D01*
X174759299Y-119244939D01*
X174708895Y-119146012D01*
X174630387Y-119067504D01*
X174531460Y-119017099D01*
X174421800Y-118999730D01*
X174312139Y-119017099D01*
X174213212Y-119067504D01*
X174134704Y-119146012D01*
X174084299Y-119244939D01*
X174066930Y-119354600D01*
X162941000Y-119354600D01*
X162941000Y-119144110D01*
X162960685Y-119077071D01*
X162977319Y-119056429D01*
X162977319Y-119056428D01*
X163035528Y-118998220D01*
X163096719Y-118878126D01*
X163117804Y-118745000D01*
X163096719Y-118611874D01*
X163066123Y-118551827D01*
X163035528Y-118491779D01*
X162977318Y-118433569D01*
X162943834Y-118372245D01*
X162941000Y-118345888D01*
X162941000Y-117747109D01*
X162960685Y-117680070D01*
X162977310Y-117659437D01*
X163035528Y-117601220D01*
X163096719Y-117481126D01*
X163117804Y-117348000D01*
X163096719Y-117214874D01*
X163035528Y-117094780D01*
X163035527Y-117094778D01*
X162977319Y-117036570D01*
X162943834Y-116975247D01*
X162941000Y-116948889D01*
X162941000Y-116223110D01*
X162960685Y-116156071D01*
X162977319Y-116135429D01*
X162977319Y-116135428D01*
X163035528Y-116077220D01*
X163096719Y-115957126D01*
X163117804Y-115824000D01*
X163096719Y-115690874D01*
X163035528Y-115570780D01*
X163035527Y-115570778D01*
X162977319Y-115512570D01*
X162943834Y-115451247D01*
X162941000Y-115424889D01*
X162941000Y-112903000D01*
X176429130Y-112903000D01*
X176446499Y-113012660D01*
X176496904Y-113111587D01*
X176575412Y-113190095D01*
X176674338Y-113240500D01*
X176692585Y-113243390D01*
X176761430Y-113254294D01*
X176824564Y-113284223D01*
X176861496Y-113343534D01*
X176864505Y-113357368D01*
X176878299Y-113444461D01*
X176928704Y-113543387D01*
X177007212Y-113621895D01*
X177106139Y-113672300D01*
X177215800Y-113689669D01*
X177325461Y-113672300D01*
X177424387Y-113621895D01*
X177502895Y-113543387D01*
X177553300Y-113444461D01*
X177570669Y-113334800D01*
X177553300Y-113225139D01*
X177533215Y-113185719D01*
X177502895Y-113126212D01*
X177424387Y-113047704D01*
X177325461Y-112997299D01*
X177238368Y-112983505D01*
X177175234Y-112953575D01*
X177138303Y-112894264D01*
X177135294Y-112880430D01*
X177121500Y-112793338D01*
X177071095Y-112694412D01*
X176992587Y-112615904D01*
X176893660Y-112565499D01*
X176784000Y-112548130D01*
X176674339Y-112565499D01*
X176575412Y-112615904D01*
X176496904Y-112694412D01*
X176446499Y-112793339D01*
X176429130Y-112903000D01*
X162941000Y-112903000D01*
X162941000Y-110540800D01*
X174422530Y-110540800D01*
X174439899Y-110650460D01*
X174490304Y-110749387D01*
X174568812Y-110827895D01*
X174641389Y-110864874D01*
X174667739Y-110878300D01*
X174777400Y-110895669D01*
X174887061Y-110878300D01*
X174985987Y-110827895D01*
X175064495Y-110749387D01*
X175114900Y-110650461D01*
X175132269Y-110540800D01*
X180213730Y-110540800D01*
X180231099Y-110650460D01*
X180281504Y-110749387D01*
X180360012Y-110827895D01*
X180432589Y-110864874D01*
X180458939Y-110878300D01*
X180568600Y-110895669D01*
X180678261Y-110878300D01*
X180777187Y-110827895D01*
X180855695Y-110749387D01*
X180906100Y-110650461D01*
X180923469Y-110540800D01*
X184785730Y-110540800D01*
X184803099Y-110650460D01*
X184853504Y-110749387D01*
X184932012Y-110827895D01*
X185004589Y-110864874D01*
X185030939Y-110878300D01*
X185140600Y-110895669D01*
X185250261Y-110878300D01*
X185349187Y-110827895D01*
X185427695Y-110749387D01*
X185478100Y-110650461D01*
X185495469Y-110540800D01*
X185478100Y-110431139D01*
X185478099Y-110431138D01*
X185427695Y-110332212D01*
X185349187Y-110253704D01*
X185250260Y-110203299D01*
X185140600Y-110185930D01*
X185030939Y-110203299D01*
X184932012Y-110253704D01*
X184853504Y-110332212D01*
X184803099Y-110431139D01*
X184785730Y-110540800D01*
X180923469Y-110540800D01*
X180906100Y-110431139D01*
X180855695Y-110332212D01*
X180777187Y-110253704D01*
X180678260Y-110203299D01*
X180568600Y-110185930D01*
X180458939Y-110203299D01*
X180360012Y-110253704D01*
X180281504Y-110332212D01*
X180231099Y-110431139D01*
X180213730Y-110540800D01*
X175132269Y-110540800D01*
X175114900Y-110431139D01*
X175114899Y-110431139D01*
X175064495Y-110332212D01*
X174985987Y-110253704D01*
X174887060Y-110203299D01*
X174777400Y-110185930D01*
X174667739Y-110203299D01*
X174568812Y-110253704D01*
X174490304Y-110332212D01*
X174439899Y-110431139D01*
X174422530Y-110540800D01*
X162941000Y-110540800D01*
X162941000Y-110000110D01*
X162960685Y-109933071D01*
X162977319Y-109912429D01*
X162977319Y-109912428D01*
X163035528Y-109854220D01*
X163096719Y-109734126D01*
X163117804Y-109601000D01*
X163117680Y-109600220D01*
X163107261Y-109534436D01*
X163096719Y-109467874D01*
X163035528Y-109347780D01*
X163035527Y-109347778D01*
X162977319Y-109289570D01*
X162943834Y-109228247D01*
X162941000Y-109201889D01*
X162941000Y-108984110D01*
X162960685Y-108917071D01*
X162977314Y-108896433D01*
X163035528Y-108838220D01*
X163096719Y-108718126D01*
X163117804Y-108585000D01*
X163096719Y-108451874D01*
X163035528Y-108331780D01*
X163035527Y-108331778D01*
X162977319Y-108273570D01*
X162953200Y-108229400D01*
X169418730Y-108229400D01*
X169436099Y-108339060D01*
X169486504Y-108437987D01*
X169565012Y-108516495D01*
X169663939Y-108566899D01*
X169663939Y-108566900D01*
X169773600Y-108584269D01*
X169883261Y-108566900D01*
X169982187Y-108516495D01*
X170060695Y-108437987D01*
X170065021Y-108429495D01*
X170112993Y-108378699D01*
X170180813Y-108361902D01*
X170194905Y-108363315D01*
X170306999Y-108381069D01*
X170306999Y-108381068D01*
X170307000Y-108381069D01*
X170416661Y-108363700D01*
X170515587Y-108313295D01*
X170594095Y-108234787D01*
X170644500Y-108135861D01*
X170661869Y-108026200D01*
X170644500Y-107916539D01*
X170644500Y-107916538D01*
X170594095Y-107817612D01*
X170548682Y-107772199D01*
X171018930Y-107772199D01*
X171036299Y-107881860D01*
X171086704Y-107980787D01*
X171165212Y-108059295D01*
X171264139Y-108109700D01*
X171373800Y-108127069D01*
X171483461Y-108109700D01*
X171535078Y-108083399D01*
X171599887Y-108050379D01*
X171600386Y-108051358D01*
X171639536Y-108029979D01*
X171709228Y-108034960D01*
X171738224Y-108053594D01*
X171848339Y-108109700D01*
X171957999Y-108127069D01*
X171957999Y-108127068D01*
X171958000Y-108127069D01*
X172067661Y-108109700D01*
X172166587Y-108059295D01*
X172245095Y-107980787D01*
X172295500Y-107881861D01*
X172312869Y-107772200D01*
X172295500Y-107662539D01*
X172268376Y-107609306D01*
X172255481Y-107540639D01*
X172281757Y-107475898D01*
X172338863Y-107435641D01*
X172398261Y-107430540D01*
X172466000Y-107441269D01*
X172575661Y-107423900D01*
X172674587Y-107373495D01*
X172753095Y-107294987D01*
X172803500Y-107196061D01*
X172820869Y-107086400D01*
X172803500Y-106976739D01*
X172774544Y-106919909D01*
X172753095Y-106877812D01*
X172674587Y-106799304D01*
X172575660Y-106748899D01*
X172466000Y-106731530D01*
X172356339Y-106748899D01*
X172257413Y-106799304D01*
X172238726Y-106817991D01*
X172177402Y-106851475D01*
X172107711Y-106846489D01*
X172051778Y-106804617D01*
X172027362Y-106739152D01*
X172028572Y-106710912D01*
X172033469Y-106680000D01*
X172016100Y-106570339D01*
X171972361Y-106484495D01*
X171965695Y-106471412D01*
X171887187Y-106392904D01*
X171788260Y-106342499D01*
X171678600Y-106325130D01*
X171568939Y-106342499D01*
X171470012Y-106392904D01*
X171391504Y-106471412D01*
X171341099Y-106570339D01*
X171323730Y-106680000D01*
X171341099Y-106789660D01*
X171391504Y-106888587D01*
X171470012Y-106967095D01*
X171568939Y-107017500D01*
X171678599Y-107034869D01*
X171678599Y-107034868D01*
X171678600Y-107034869D01*
X171788261Y-107017500D01*
X171887187Y-106967095D01*
X171905872Y-106948409D01*
X171967193Y-106914925D01*
X172036885Y-106919909D01*
X172092819Y-106961779D01*
X172117237Y-107027243D01*
X172116026Y-107055488D01*
X172111130Y-107086399D01*
X172128499Y-107196059D01*
X172155622Y-107249291D01*
X172168518Y-107317961D01*
X172142241Y-107382701D01*
X172085135Y-107422958D01*
X172025739Y-107428059D01*
X171958000Y-107417330D01*
X171848339Y-107434699D01*
X171731913Y-107494021D01*
X171731413Y-107493040D01*
X171692258Y-107514421D01*
X171622566Y-107509437D01*
X171593574Y-107490804D01*
X171483460Y-107434699D01*
X171373800Y-107417330D01*
X171264139Y-107434699D01*
X171165212Y-107485104D01*
X171086704Y-107563612D01*
X171036299Y-107662539D01*
X171018930Y-107772199D01*
X170548682Y-107772199D01*
X170515587Y-107739104D01*
X170416660Y-107688699D01*
X170307000Y-107671330D01*
X170197339Y-107688699D01*
X170098412Y-107739104D01*
X170019904Y-107817612D01*
X170015576Y-107826107D01*
X169967601Y-107876903D01*
X169899780Y-107893697D01*
X169885694Y-107892284D01*
X169773600Y-107874530D01*
X169663939Y-107891899D01*
X169565012Y-107942304D01*
X169486504Y-108020812D01*
X169436099Y-108119739D01*
X169418730Y-108229400D01*
X162953200Y-108229400D01*
X162943834Y-108212247D01*
X162941000Y-108185889D01*
X162941000Y-105788000D01*
X162960685Y-105720961D01*
X163013489Y-105675206D01*
X163065000Y-105664000D01*
X165080333Y-105664000D01*
X165147372Y-105683685D01*
G37*
G04 #@! TD.AperFunction*
G04 #@! TA.AperFunction,Conductor*
G36*
X98114039Y-124251085D02*
G01*
X98159794Y-124303889D01*
X98171000Y-124355399D01*
X98171000Y-137541000D01*
X109223000Y-137541000D01*
X109290039Y-137560685D01*
X109335794Y-137613489D01*
X109347000Y-137665000D01*
X109347000Y-143256000D01*
X116970000Y-143256000D01*
X117037039Y-143275685D01*
X117082794Y-143328489D01*
X117094000Y-143380000D01*
X117094000Y-147193000D01*
X126746000Y-147193000D01*
X126746000Y-136652000D01*
X126746000Y-133093000D01*
X126765685Y-133025961D01*
X126818489Y-132980206D01*
X126870000Y-132969000D01*
X140592000Y-132969000D01*
X140659039Y-132988685D01*
X140704794Y-133041489D01*
X140716000Y-133093000D01*
X140716000Y-151768000D01*
X140696315Y-151835039D01*
X140643511Y-151880794D01*
X140592000Y-151892000D01*
X117475000Y-151892000D01*
X109982000Y-151892000D01*
X106299000Y-151892000D01*
X102616000Y-151892000D01*
X101219000Y-151892000D01*
X97406000Y-151892000D01*
X97338961Y-151872315D01*
X97293206Y-151819511D01*
X97282000Y-151768000D01*
X97282000Y-150240999D01*
X103685153Y-150240999D01*
X103705634Y-150383457D01*
X103765423Y-150514374D01*
X103859670Y-150623141D01*
X103859672Y-150623143D01*
X103980747Y-150700953D01*
X104118839Y-150741500D01*
X104262761Y-150741500D01*
X104400853Y-150700953D01*
X104521928Y-150623143D01*
X104616177Y-150514373D01*
X104675965Y-150383457D01*
X104696447Y-150241000D01*
X104685491Y-150164800D01*
X137924353Y-150164800D01*
X137944834Y-150307257D01*
X138004623Y-150438174D01*
X138070650Y-150514373D01*
X138098872Y-150546943D01*
X138219947Y-150624753D01*
X138358039Y-150665300D01*
X138501961Y-150665300D01*
X138640053Y-150624753D01*
X138761128Y-150546943D01*
X138855377Y-150438173D01*
X138915165Y-150307257D01*
X138935647Y-150164800D01*
X138915165Y-150022343D01*
X138855377Y-149891427D01*
X138855376Y-149891426D01*
X138855376Y-149891425D01*
X138761129Y-149782658D01*
X138761128Y-149782657D01*
X138640053Y-149704847D01*
X138501961Y-149664300D01*
X138358039Y-149664300D01*
X138219947Y-149704847D01*
X138098870Y-149782658D01*
X138004623Y-149891425D01*
X137944834Y-150022342D01*
X137924353Y-150164800D01*
X104685491Y-150164800D01*
X104675965Y-150098543D01*
X104616177Y-149967627D01*
X104616176Y-149967626D01*
X104616176Y-149967625D01*
X104521929Y-149858858D01*
X104521928Y-149858857D01*
X104400853Y-149781047D01*
X104262761Y-149740500D01*
X104118839Y-149740500D01*
X103980747Y-149781047D01*
X103859670Y-149858858D01*
X103765423Y-149967625D01*
X103705634Y-150098542D01*
X103685153Y-150240999D01*
X97282000Y-150240999D01*
X97282000Y-146913600D01*
X100407195Y-146913600D01*
X100428280Y-147046724D01*
X100489472Y-147166821D01*
X100584778Y-147262127D01*
X100584780Y-147262128D01*
X100704874Y-147323319D01*
X100838000Y-147344404D01*
X100971126Y-147323319D01*
X100977640Y-147320000D01*
X137516595Y-147320000D01*
X137537680Y-147453124D01*
X137598872Y-147573221D01*
X137694178Y-147668527D01*
X137694180Y-147668528D01*
X137814274Y-147729719D01*
X137880836Y-147740261D01*
X137947399Y-147750804D01*
X137947399Y-147750803D01*
X137947400Y-147750804D01*
X138080526Y-147729719D01*
X138200620Y-147668528D01*
X138295928Y-147573220D01*
X138357119Y-147453126D01*
X138378204Y-147320000D01*
X138357119Y-147186874D01*
X138295928Y-147066780D01*
X138295927Y-147066778D01*
X138200621Y-146971472D01*
X138080524Y-146910280D01*
X137947400Y-146889195D01*
X137814275Y-146910280D01*
X137694178Y-146971472D01*
X137598872Y-147066778D01*
X137537680Y-147186875D01*
X137516595Y-147320000D01*
X100977640Y-147320000D01*
X101091220Y-147262128D01*
X101186528Y-147166820D01*
X101247719Y-147046726D01*
X101268804Y-146913600D01*
X101247719Y-146780474D01*
X101186528Y-146660380D01*
X101186527Y-146660378D01*
X101091221Y-146565072D01*
X100971124Y-146503880D01*
X100837999Y-146482795D01*
X100704875Y-146503880D01*
X100584778Y-146565072D01*
X100489472Y-146660378D01*
X100428280Y-146780475D01*
X100407195Y-146913600D01*
X97282000Y-146913600D01*
X97282000Y-144526000D01*
X89532000Y-144526000D01*
X89464961Y-144506315D01*
X89419206Y-144453511D01*
X89408000Y-144402000D01*
X89408000Y-139960000D01*
X95254644Y-139960000D01*
X95274039Y-140206441D01*
X95331746Y-140446812D01*
X95426346Y-140675193D01*
X95555512Y-140885974D01*
X95619243Y-140960593D01*
X95716055Y-141073945D01*
X95904029Y-141234490D01*
X96114803Y-141363652D01*
X96199171Y-141398598D01*
X96343187Y-141458253D01*
X96419126Y-141476484D01*
X96583560Y-141515961D01*
X96830000Y-141535356D01*
X97076440Y-141515961D01*
X97316812Y-141458253D01*
X97545197Y-141363652D01*
X97755971Y-141234490D01*
X97943945Y-141073945D01*
X98104490Y-140885971D01*
X98233652Y-140675197D01*
X98328253Y-140446812D01*
X98385961Y-140206440D01*
X98405356Y-139960000D01*
X98405356Y-139959999D01*
X105414644Y-139959999D01*
X105434039Y-140206441D01*
X105491746Y-140446812D01*
X105586346Y-140675193D01*
X105715512Y-140885974D01*
X105779243Y-140960593D01*
X105876055Y-141073945D01*
X106064029Y-141234490D01*
X106274803Y-141363652D01*
X106359171Y-141398598D01*
X106503187Y-141458253D01*
X106579126Y-141476484D01*
X106743560Y-141515961D01*
X106990000Y-141535356D01*
X107236440Y-141515961D01*
X107476812Y-141458253D01*
X107705197Y-141363652D01*
X107915971Y-141234490D01*
X108103945Y-141073945D01*
X108264490Y-140885971D01*
X108393652Y-140675197D01*
X108488253Y-140446812D01*
X108545961Y-140206440D01*
X108565356Y-139960000D01*
X108545961Y-139713560D01*
X108488253Y-139473188D01*
X108393652Y-139244803D01*
X108264490Y-139034029D01*
X108103945Y-138846055D01*
X107990593Y-138749243D01*
X107915974Y-138685512D01*
X107915971Y-138685510D01*
X107705197Y-138556348D01*
X107705194Y-138556347D01*
X107705193Y-138556346D01*
X107476812Y-138461746D01*
X107236441Y-138404039D01*
X106990000Y-138384644D01*
X106743558Y-138404039D01*
X106503187Y-138461746D01*
X106274806Y-138556346D01*
X106064025Y-138685512D01*
X105876055Y-138846055D01*
X105715512Y-139034025D01*
X105586346Y-139244806D01*
X105491746Y-139473187D01*
X105434039Y-139713558D01*
X105414644Y-139959999D01*
X98405356Y-139959999D01*
X98385961Y-139713560D01*
X98328253Y-139473188D01*
X98233652Y-139244803D01*
X98104490Y-139034029D01*
X97943945Y-138846055D01*
X97830593Y-138749243D01*
X97755974Y-138685512D01*
X97755971Y-138685510D01*
X97545197Y-138556348D01*
X97545194Y-138556347D01*
X97545193Y-138556346D01*
X97316812Y-138461746D01*
X97076441Y-138404039D01*
X96953219Y-138394341D01*
X96830000Y-138384644D01*
X96829999Y-138384644D01*
X96583558Y-138404039D01*
X96343187Y-138461746D01*
X96114806Y-138556346D01*
X95904025Y-138685512D01*
X95716055Y-138846055D01*
X95555512Y-139034025D01*
X95426346Y-139244806D01*
X95331746Y-139473187D01*
X95274039Y-139713558D01*
X95254644Y-139960000D01*
X89408000Y-139960000D01*
X89408000Y-124355400D01*
X89427685Y-124288361D01*
X89480489Y-124242606D01*
X89532000Y-124231400D01*
X98047000Y-124231400D01*
X98114039Y-124251085D01*
G37*
G04 #@! TD.AperFunction*
G04 #@! TA.AperFunction,Conductor*
G36*
X141167039Y-68345685D02*
G01*
X141212794Y-68398489D01*
X141224000Y-68450000D01*
X141224000Y-85474000D01*
X141204315Y-85541039D01*
X141151511Y-85586794D01*
X141100000Y-85598000D01*
X125727000Y-85598000D01*
X125659961Y-85578315D01*
X125614206Y-85525511D01*
X125603000Y-85474000D01*
X125603000Y-68450000D01*
X125622685Y-68382961D01*
X125675489Y-68337206D01*
X125727000Y-68326000D01*
X141100000Y-68326000D01*
X141167039Y-68345685D01*
G37*
G04 #@! TD.AperFunction*
G04 #@! TA.AperFunction,Conductor*
G36*
X191713039Y-73933685D02*
G01*
X191758794Y-73986489D01*
X191770000Y-74038000D01*
X191770000Y-91570000D01*
X191750315Y-91637039D01*
X191697511Y-91682794D01*
X191646000Y-91694000D01*
X185147111Y-91694000D01*
X185080072Y-91674315D01*
X185059430Y-91657681D01*
X185053221Y-91651472D01*
X184933124Y-91590280D01*
X184800000Y-91569195D01*
X184666875Y-91590280D01*
X184546778Y-91651472D01*
X184540570Y-91657681D01*
X184479247Y-91691166D01*
X184452889Y-91694000D01*
X184147111Y-91694000D01*
X184080072Y-91674315D01*
X184059430Y-91657681D01*
X184053221Y-91651472D01*
X183933124Y-91590280D01*
X183800000Y-91569195D01*
X183666875Y-91590280D01*
X183546778Y-91651472D01*
X183540570Y-91657681D01*
X183479247Y-91691166D01*
X183452889Y-91694000D01*
X174537045Y-91694000D01*
X174470006Y-91674315D01*
X174449364Y-91657681D01*
X174427187Y-91635504D01*
X174328260Y-91585099D01*
X174218600Y-91567730D01*
X174108939Y-91585099D01*
X174010012Y-91635504D01*
X173987836Y-91657681D01*
X173926513Y-91691166D01*
X173900155Y-91694000D01*
X167191460Y-91694000D01*
X167135166Y-91680485D01*
X167047661Y-91635899D01*
X166938000Y-91618530D01*
X166828338Y-91635899D01*
X166740834Y-91680485D01*
X166684540Y-91694000D01*
X164737110Y-91694000D01*
X164670071Y-91674315D01*
X164649433Y-91657685D01*
X164591220Y-91599472D01*
X164591219Y-91599471D01*
X164471124Y-91538280D01*
X164338000Y-91517195D01*
X164204875Y-91538280D01*
X164084780Y-91599471D01*
X164065722Y-91618530D01*
X164026569Y-91657682D01*
X163965249Y-91691166D01*
X163938890Y-91694000D01*
X153924000Y-91694000D01*
X153924000Y-105032000D01*
X153904315Y-105099039D01*
X153851511Y-105144794D01*
X153800000Y-105156000D01*
X151321444Y-105156000D01*
X151254405Y-105136315D01*
X151233767Y-105119685D01*
X151186187Y-105072105D01*
X151186186Y-105072104D01*
X151186185Y-105072103D01*
X151087260Y-105021699D01*
X150977600Y-105004330D01*
X150867939Y-105021699D01*
X150769014Y-105072103D01*
X150754246Y-105086872D01*
X150721435Y-105119682D01*
X150660115Y-105153166D01*
X150633756Y-105156000D01*
X144798110Y-105156000D01*
X144731071Y-105136315D01*
X144710433Y-105119685D01*
X144652220Y-105061472D01*
X144652219Y-105061471D01*
X144532124Y-105000280D01*
X144398999Y-104979195D01*
X144265875Y-105000280D01*
X144145780Y-105061471D01*
X144123741Y-105083511D01*
X144087569Y-105119682D01*
X144026249Y-105153166D01*
X143999890Y-105156000D01*
X141750110Y-105156000D01*
X141683071Y-105136315D01*
X141662433Y-105119685D01*
X141604220Y-105061472D01*
X141604219Y-105061471D01*
X141484124Y-105000280D01*
X141351000Y-104979195D01*
X141217875Y-105000280D01*
X141097780Y-105061471D01*
X141075741Y-105083511D01*
X141039569Y-105119682D01*
X140978249Y-105153166D01*
X140951890Y-105156000D01*
X139083110Y-105156000D01*
X139016071Y-105136315D01*
X138995433Y-105119685D01*
X138937220Y-105061472D01*
X138937219Y-105061471D01*
X138817124Y-105000280D01*
X138683999Y-104979195D01*
X138550875Y-105000280D01*
X138430780Y-105061471D01*
X138408741Y-105083511D01*
X138372569Y-105119682D01*
X138311249Y-105153166D01*
X138284890Y-105156000D01*
X136797110Y-105156000D01*
X136730071Y-105136315D01*
X136709433Y-105119685D01*
X136651220Y-105061472D01*
X136651219Y-105061471D01*
X136531124Y-105000280D01*
X136398000Y-104979195D01*
X136264875Y-105000280D01*
X136144780Y-105061471D01*
X136122741Y-105083511D01*
X136086569Y-105119682D01*
X136025249Y-105153166D01*
X135998890Y-105156000D01*
X131463110Y-105156000D01*
X131396071Y-105136315D01*
X131375433Y-105119685D01*
X131317220Y-105061472D01*
X131317219Y-105061471D01*
X131197124Y-105000280D01*
X131064000Y-104979195D01*
X130930875Y-105000280D01*
X130810780Y-105061471D01*
X130788741Y-105083511D01*
X130752569Y-105119682D01*
X130691249Y-105153166D01*
X130664890Y-105156000D01*
X129558110Y-105156000D01*
X129491071Y-105136315D01*
X129470433Y-105119685D01*
X129412220Y-105061472D01*
X129412219Y-105061471D01*
X129292124Y-105000280D01*
X129159000Y-104979195D01*
X129025875Y-105000280D01*
X128905780Y-105061471D01*
X128883741Y-105083511D01*
X128847569Y-105119682D01*
X128786249Y-105153166D01*
X128759890Y-105156000D01*
X127399110Y-105156000D01*
X127332071Y-105136315D01*
X127311433Y-105119685D01*
X127253220Y-105061472D01*
X127253219Y-105061471D01*
X127133124Y-105000280D01*
X127000000Y-104979195D01*
X126866875Y-105000280D01*
X126746780Y-105061471D01*
X126724741Y-105083511D01*
X126688569Y-105119682D01*
X126627249Y-105153166D01*
X126600890Y-105156000D01*
X121912710Y-105156000D01*
X121845671Y-105136315D01*
X121825028Y-105119680D01*
X121792221Y-105086872D01*
X121672124Y-105025680D01*
X121539000Y-105004595D01*
X121405875Y-105025680D01*
X121285778Y-105086872D01*
X121252972Y-105119680D01*
X121191649Y-105153166D01*
X121165290Y-105156000D01*
X119144110Y-105156000D01*
X119077071Y-105136315D01*
X119056433Y-105119685D01*
X118998220Y-105061472D01*
X118998219Y-105061471D01*
X118878124Y-105000280D01*
X118744999Y-104979195D01*
X118611875Y-105000280D01*
X118491780Y-105061471D01*
X118469741Y-105083511D01*
X118433569Y-105119682D01*
X118372249Y-105153166D01*
X118345890Y-105156000D01*
X117747110Y-105156000D01*
X117680071Y-105136315D01*
X117659433Y-105119685D01*
X117601220Y-105061472D01*
X117601219Y-105061471D01*
X117481124Y-105000280D01*
X117348000Y-104979195D01*
X117214875Y-105000280D01*
X117094780Y-105061471D01*
X117072741Y-105083511D01*
X117036569Y-105119682D01*
X116975249Y-105153166D01*
X116948890Y-105156000D01*
X116350110Y-105156000D01*
X116283071Y-105136315D01*
X116262433Y-105119685D01*
X116204220Y-105061472D01*
X116204219Y-105061471D01*
X116084124Y-105000280D01*
X115950999Y-104979195D01*
X115817875Y-105000280D01*
X115697780Y-105061471D01*
X115675741Y-105083511D01*
X115639569Y-105119682D01*
X115578249Y-105153166D01*
X115551890Y-105156000D01*
X114826110Y-105156000D01*
X114759071Y-105136315D01*
X114738433Y-105119685D01*
X114680220Y-105061472D01*
X114680219Y-105061471D01*
X114560124Y-105000280D01*
X114427000Y-104979195D01*
X114293875Y-105000280D01*
X114173780Y-105061471D01*
X114151741Y-105083511D01*
X114115569Y-105119682D01*
X114054249Y-105153166D01*
X114027890Y-105156000D01*
X113175110Y-105156000D01*
X113108071Y-105136315D01*
X113087433Y-105119685D01*
X113029220Y-105061472D01*
X113029219Y-105061471D01*
X112909124Y-105000280D01*
X112776000Y-104979195D01*
X112642875Y-105000280D01*
X112522780Y-105061471D01*
X112500741Y-105083511D01*
X112464569Y-105119682D01*
X112403249Y-105153166D01*
X112376890Y-105156000D01*
X111909111Y-105156000D01*
X111842072Y-105136315D01*
X111821430Y-105119681D01*
X111753221Y-105051472D01*
X111633124Y-104990280D01*
X111499999Y-104969195D01*
X111366875Y-104990280D01*
X111246778Y-105051472D01*
X111178570Y-105119681D01*
X111117247Y-105153166D01*
X111090889Y-105156000D01*
X109506000Y-105156000D01*
X109438961Y-105136315D01*
X109393206Y-105083511D01*
X109382000Y-105032000D01*
X109382000Y-104343200D01*
X134798530Y-104343200D01*
X134815899Y-104452860D01*
X134866304Y-104551787D01*
X134944812Y-104630295D01*
X135043739Y-104680700D01*
X135153399Y-104698069D01*
X135153399Y-104698068D01*
X135153400Y-104698069D01*
X135263061Y-104680700D01*
X135361987Y-104630295D01*
X135440495Y-104551787D01*
X135490900Y-104452861D01*
X135508269Y-104343200D01*
X135490900Y-104233539D01*
X135482974Y-104217983D01*
X135440495Y-104134612D01*
X135361987Y-104056104D01*
X135263060Y-104005699D01*
X135153400Y-103988330D01*
X135043739Y-104005699D01*
X134944812Y-104056104D01*
X134866304Y-104134612D01*
X134815899Y-104233539D01*
X134798530Y-104343200D01*
X109382000Y-104343200D01*
X109382000Y-103987599D01*
X132969730Y-103987599D01*
X132987099Y-104097260D01*
X133037504Y-104196187D01*
X133116012Y-104274695D01*
X133214938Y-104325100D01*
X133214939Y-104325100D01*
X133324600Y-104342469D01*
X133434261Y-104325100D01*
X133533187Y-104274695D01*
X133611695Y-104196187D01*
X133662100Y-104097261D01*
X133679469Y-103987600D01*
X133662100Y-103877939D01*
X133616997Y-103789418D01*
X133611695Y-103779012D01*
X133533187Y-103700504D01*
X133434260Y-103650099D01*
X133324599Y-103632730D01*
X133214939Y-103650099D01*
X133116012Y-103700504D01*
X133037504Y-103779012D01*
X132987099Y-103877939D01*
X132969730Y-103987599D01*
X109382000Y-103987599D01*
X109382000Y-102311199D01*
X120955530Y-102311199D01*
X120972899Y-102420860D01*
X121023304Y-102519787D01*
X121101812Y-102598295D01*
X121200738Y-102648699D01*
X121200739Y-102648700D01*
X121310400Y-102666069D01*
X121420061Y-102648700D01*
X121518987Y-102598295D01*
X121597495Y-102519787D01*
X121647900Y-102420861D01*
X121665269Y-102311200D01*
X121647900Y-102201539D01*
X121597495Y-102102612D01*
X121518987Y-102024104D01*
X121420060Y-101973699D01*
X121310400Y-101956330D01*
X121200739Y-101973699D01*
X121101812Y-102024104D01*
X121023304Y-102102612D01*
X120972899Y-102201539D01*
X120955530Y-102311199D01*
X109382000Y-102311199D01*
X109382000Y-101371399D01*
X134519395Y-101371399D01*
X134540480Y-101504524D01*
X134601672Y-101624621D01*
X134696978Y-101719927D01*
X134696980Y-101719928D01*
X134817074Y-101781119D01*
X134950200Y-101802204D01*
X135083326Y-101781119D01*
X135203420Y-101719928D01*
X135298728Y-101624620D01*
X135359919Y-101504526D01*
X135381004Y-101371400D01*
X135359919Y-101238274D01*
X135298728Y-101118180D01*
X135298727Y-101118178D01*
X135203421Y-101022872D01*
X135083324Y-100961680D01*
X134950200Y-100940595D01*
X134817075Y-100961680D01*
X134696978Y-101022872D01*
X134601672Y-101118178D01*
X134540480Y-101238275D01*
X134519395Y-101371399D01*
X109382000Y-101371399D01*
X109382000Y-98094800D01*
X139650195Y-98094800D01*
X139671280Y-98227924D01*
X139732472Y-98348021D01*
X139827778Y-98443327D01*
X139827780Y-98443328D01*
X139947874Y-98504519D01*
X140081000Y-98525604D01*
X140214126Y-98504519D01*
X140334220Y-98443328D01*
X140429528Y-98348020D01*
X140490719Y-98227926D01*
X140511804Y-98094800D01*
X140490719Y-97961674D01*
X140429528Y-97841580D01*
X140429527Y-97841578D01*
X140334221Y-97746272D01*
X140214124Y-97685080D01*
X140081000Y-97663995D01*
X139947875Y-97685080D01*
X139827778Y-97746272D01*
X139732472Y-97841578D01*
X139671280Y-97961675D01*
X139650195Y-98094800D01*
X109382000Y-98094800D01*
X109382000Y-95122999D01*
X133249130Y-95122999D01*
X133266499Y-95232660D01*
X133316904Y-95331587D01*
X133395412Y-95410095D01*
X133428206Y-95426804D01*
X133494339Y-95460500D01*
X133604000Y-95477869D01*
X133713661Y-95460500D01*
X133812587Y-95410095D01*
X133891095Y-95331587D01*
X133941500Y-95232661D01*
X133958869Y-95123000D01*
X133941500Y-95013339D01*
X133932665Y-94996000D01*
X133891095Y-94914412D01*
X133812587Y-94835904D01*
X133713660Y-94785499D01*
X133603999Y-94768130D01*
X133494339Y-94785499D01*
X133395412Y-94835904D01*
X133316904Y-94914412D01*
X133266499Y-95013339D01*
X133249130Y-95122999D01*
X109382000Y-95122999D01*
X109382000Y-88086000D01*
X109401685Y-88018961D01*
X109454489Y-87973206D01*
X109506000Y-87962000D01*
X120272000Y-87962000D01*
X120339039Y-87981685D01*
X120384794Y-88034489D01*
X120396000Y-88086000D01*
X120395999Y-93217999D01*
X120396000Y-93218000D01*
X125286760Y-93218000D01*
X125306158Y-93219527D01*
X125450600Y-93242404D01*
X125595042Y-93219527D01*
X125614440Y-93218000D01*
X140589000Y-93218000D01*
X140589000Y-87754000D01*
X140608685Y-87686961D01*
X140661489Y-87641206D01*
X140713000Y-87630000D01*
X142240000Y-87630000D01*
X142240000Y-74546000D01*
X142259685Y-74478961D01*
X142312489Y-74433206D01*
X142364000Y-74422000D01*
X147918063Y-74422000D01*
X147985102Y-74441685D01*
X147989993Y-74445346D01*
X147992661Y-74446564D01*
X147992664Y-74446567D01*
X148123541Y-74506338D01*
X148190580Y-74526023D01*
X148190584Y-74526024D01*
X148333000Y-74546500D01*
X152659500Y-74546500D01*
X152726539Y-74566185D01*
X152772294Y-74618989D01*
X152783500Y-74670499D01*
X152783500Y-84839000D01*
X152783854Y-84842294D01*
X152783855Y-84842309D01*
X152794697Y-84943145D01*
X152795053Y-84946456D01*
X152795757Y-84949693D01*
X152795759Y-84949704D01*
X152802658Y-84981416D01*
X152806259Y-84997967D01*
X152807305Y-85001110D01*
X152807309Y-85001124D01*
X152840386Y-85100504D01*
X152888314Y-85175079D01*
X152908000Y-85242118D01*
X152908000Y-85471000D01*
X172720000Y-85471000D01*
X172720000Y-83404260D01*
X172733515Y-83347965D01*
X172748719Y-83318126D01*
X172769804Y-83185000D01*
X172748719Y-83051874D01*
X172733515Y-83022034D01*
X172720000Y-82965740D01*
X172720000Y-82388260D01*
X172733515Y-82331965D01*
X172748719Y-82302126D01*
X172769804Y-82169000D01*
X172748719Y-82035874D01*
X172733515Y-82006034D01*
X172720000Y-81949740D01*
X172720000Y-81372260D01*
X172733515Y-81315965D01*
X172748719Y-81286126D01*
X172769804Y-81153000D01*
X172748719Y-81019874D01*
X172733515Y-80990034D01*
X172720000Y-80933740D01*
X172720000Y-80356260D01*
X172733515Y-80299965D01*
X172748719Y-80270126D01*
X172769804Y-80137000D01*
X172748719Y-80003874D01*
X172733515Y-79974034D01*
X172720000Y-79917740D01*
X172720000Y-79340260D01*
X172733515Y-79283965D01*
X172748719Y-79254126D01*
X172769804Y-79121000D01*
X172748719Y-78987874D01*
X172733515Y-78958034D01*
X172720000Y-78901740D01*
X172720000Y-78324260D01*
X172733515Y-78267965D01*
X172748719Y-78238126D01*
X172769804Y-78105000D01*
X172748719Y-77971874D01*
X172733515Y-77942034D01*
X172720000Y-77885740D01*
X172720000Y-75657260D01*
X172733515Y-75600965D01*
X172748719Y-75571126D01*
X172769804Y-75438000D01*
X172748719Y-75304874D01*
X172733515Y-75275034D01*
X172720000Y-75218740D01*
X172720000Y-74038000D01*
X172739685Y-73970961D01*
X172792489Y-73925206D01*
X172844000Y-73914000D01*
X191646000Y-73914000D01*
X191713039Y-73933685D01*
G37*
G04 #@! TD.AperFunction*
G04 #@! TA.AperFunction,Conductor*
G36*
X174949039Y-53660185D02*
G01*
X174994794Y-53712989D01*
X175006000Y-53764500D01*
X175006000Y-72520000D01*
X174986315Y-72587039D01*
X174933511Y-72632794D01*
X174882000Y-72644000D01*
X164843000Y-72644000D01*
X164775961Y-72624315D01*
X164730206Y-72571511D01*
X164719000Y-72520000D01*
X164719000Y-63246000D01*
X148333000Y-63246000D01*
X148265961Y-63226315D01*
X148220206Y-63173511D01*
X148209000Y-63122000D01*
X148209000Y-53764500D01*
X148228685Y-53697461D01*
X148281489Y-53651706D01*
X148333000Y-53640500D01*
X174882000Y-53640500D01*
X174949039Y-53660185D01*
G37*
G04 #@! TD.AperFunction*
G04 #@! TA.AperFunction,Conductor*
G36*
X164027039Y-63773685D02*
G01*
X164072794Y-63826489D01*
X164084000Y-63877999D01*
X164084000Y-73279000D01*
X171707000Y-73279000D01*
X171774039Y-73298685D01*
X171819794Y-73351489D01*
X171831000Y-73403000D01*
X171831000Y-74902190D01*
X171811315Y-74969229D01*
X171809050Y-74972630D01*
X171714182Y-75110069D01*
X171653860Y-75269127D01*
X171633354Y-75438000D01*
X171653859Y-75606871D01*
X171653860Y-75606872D01*
X171714182Y-75765930D01*
X171809051Y-75903370D01*
X171830933Y-75969722D01*
X171831000Y-75973808D01*
X171831000Y-77569190D01*
X171811315Y-77636229D01*
X171809050Y-77639630D01*
X171714182Y-77777069D01*
X171653860Y-77936127D01*
X171633354Y-78105000D01*
X171653860Y-78273872D01*
X171714182Y-78432930D01*
X171789854Y-78542559D01*
X171811737Y-78608913D01*
X171794272Y-78676565D01*
X171789854Y-78683439D01*
X171714182Y-78793069D01*
X171653860Y-78952127D01*
X171633354Y-79121000D01*
X171653860Y-79289872D01*
X171714182Y-79448930D01*
X171789854Y-79558559D01*
X171811737Y-79624913D01*
X171794272Y-79692565D01*
X171789854Y-79699439D01*
X171714182Y-79809069D01*
X171653860Y-79968127D01*
X171633354Y-80136999D01*
X171653860Y-80305872D01*
X171714182Y-80464930D01*
X171789854Y-80574559D01*
X171811737Y-80640913D01*
X171794272Y-80708565D01*
X171789854Y-80715439D01*
X171714182Y-80825069D01*
X171653860Y-80984127D01*
X171633354Y-81152999D01*
X171653860Y-81321872D01*
X171714182Y-81480930D01*
X171789854Y-81590559D01*
X171811737Y-81656913D01*
X171794272Y-81724565D01*
X171789854Y-81731439D01*
X171714182Y-81841069D01*
X171653860Y-82000127D01*
X171633354Y-82168999D01*
X171653860Y-82337872D01*
X171714182Y-82496930D01*
X171789854Y-82606560D01*
X171811737Y-82672914D01*
X171794272Y-82740566D01*
X171789854Y-82747440D01*
X171714182Y-82857069D01*
X171653860Y-83016127D01*
X171633354Y-83184999D01*
X171653859Y-83353872D01*
X171653860Y-83353872D01*
X171714182Y-83512930D01*
X171809051Y-83650370D01*
X171830933Y-83716722D01*
X171831000Y-83720808D01*
X171831000Y-84839000D01*
X171811315Y-84906039D01*
X171758511Y-84951794D01*
X171707000Y-84963000D01*
X153413000Y-84963000D01*
X153345961Y-84943315D01*
X153300206Y-84890511D01*
X153289000Y-84839000D01*
X153289000Y-74041000D01*
X148333000Y-74041000D01*
X148265961Y-74021315D01*
X148220206Y-73968511D01*
X148209000Y-73917000D01*
X148209000Y-63878000D01*
X148228685Y-63810961D01*
X148281489Y-63765206D01*
X148333000Y-63754000D01*
X163960000Y-63754000D01*
X164027039Y-63773685D01*
G37*
G04 #@! TD.AperFunction*
G04 #@! TA.AperFunction,Conductor*
G36*
X111177929Y-105683685D02*
G01*
X111198566Y-105700314D01*
X111246780Y-105748528D01*
X111366874Y-105809719D01*
X111396164Y-105814358D01*
X111499999Y-105830804D01*
X111499999Y-105830803D01*
X111500000Y-105830804D01*
X111633126Y-105809719D01*
X111753220Y-105748528D01*
X111801430Y-105700317D01*
X111862751Y-105666834D01*
X111889110Y-105664000D01*
X112376890Y-105664000D01*
X112443929Y-105683685D01*
X112464566Y-105700314D01*
X112522780Y-105758528D01*
X112642874Y-105819719D01*
X112776000Y-105840804D01*
X112909126Y-105819719D01*
X113029220Y-105758528D01*
X113087430Y-105700317D01*
X113148751Y-105666834D01*
X113175110Y-105664000D01*
X114027890Y-105664000D01*
X114094929Y-105683685D01*
X114115566Y-105700314D01*
X114173780Y-105758528D01*
X114293874Y-105819719D01*
X114427000Y-105840804D01*
X114560126Y-105819719D01*
X114680220Y-105758528D01*
X114738430Y-105700317D01*
X114799751Y-105666834D01*
X114826110Y-105664000D01*
X115551890Y-105664000D01*
X115618929Y-105683685D01*
X115639566Y-105700314D01*
X115697780Y-105758528D01*
X115817874Y-105819719D01*
X115884436Y-105830261D01*
X115950999Y-105840804D01*
X115950999Y-105840803D01*
X115951000Y-105840804D01*
X116084126Y-105819719D01*
X116204220Y-105758528D01*
X116262430Y-105700317D01*
X116323751Y-105666834D01*
X116350110Y-105664000D01*
X116948890Y-105664000D01*
X117015929Y-105683685D01*
X117036566Y-105700314D01*
X117094780Y-105758528D01*
X117214874Y-105819719D01*
X117348000Y-105840804D01*
X117481126Y-105819719D01*
X117601220Y-105758528D01*
X117659430Y-105700317D01*
X117720751Y-105666834D01*
X117747110Y-105664000D01*
X118345890Y-105664000D01*
X118412929Y-105683685D01*
X118433566Y-105700314D01*
X118491780Y-105758528D01*
X118611874Y-105819719D01*
X118678437Y-105830261D01*
X118744999Y-105840804D01*
X118744999Y-105840803D01*
X118745000Y-105840804D01*
X118878126Y-105819719D01*
X118998220Y-105758528D01*
X119056430Y-105700317D01*
X119117751Y-105666834D01*
X119144110Y-105664000D01*
X121114489Y-105664000D01*
X121181528Y-105683685D01*
X121202170Y-105700319D01*
X121285778Y-105783927D01*
X121285780Y-105783928D01*
X121405874Y-105845119D01*
X121539000Y-105866204D01*
X121672126Y-105845119D01*
X121792220Y-105783928D01*
X121833845Y-105742303D01*
X121875830Y-105700319D01*
X121937153Y-105666834D01*
X121963511Y-105664000D01*
X126600890Y-105664000D01*
X126667929Y-105683685D01*
X126688566Y-105700314D01*
X126746780Y-105758528D01*
X126866874Y-105819719D01*
X127000000Y-105840804D01*
X127133126Y-105819719D01*
X127253220Y-105758528D01*
X127311430Y-105700317D01*
X127372751Y-105666834D01*
X127399110Y-105664000D01*
X128759890Y-105664000D01*
X128826929Y-105683685D01*
X128847566Y-105700314D01*
X128905780Y-105758528D01*
X129025874Y-105819719D01*
X129159000Y-105840804D01*
X129292126Y-105819719D01*
X129412220Y-105758528D01*
X129470430Y-105700317D01*
X129531751Y-105666834D01*
X129558110Y-105664000D01*
X130664890Y-105664000D01*
X130731929Y-105683685D01*
X130752566Y-105700314D01*
X130810780Y-105758528D01*
X130930874Y-105819719D01*
X131064000Y-105840804D01*
X131197126Y-105819719D01*
X131317220Y-105758528D01*
X131375430Y-105700317D01*
X131436751Y-105666834D01*
X131463110Y-105664000D01*
X134942555Y-105664000D01*
X135009594Y-105683685D01*
X135055349Y-105736489D01*
X135065293Y-105805647D01*
X135036268Y-105869203D01*
X135030236Y-105875681D01*
X134967904Y-105938012D01*
X134917499Y-106036939D01*
X134900130Y-106146599D01*
X134917499Y-106256260D01*
X134967904Y-106355187D01*
X135046412Y-106433695D01*
X135145339Y-106484100D01*
X135254999Y-106501469D01*
X135254999Y-106501468D01*
X135255000Y-106501469D01*
X135364661Y-106484100D01*
X135463587Y-106433695D01*
X135542095Y-106355187D01*
X135592500Y-106256261D01*
X135609869Y-106146600D01*
X135592500Y-106036939D01*
X135566434Y-105985781D01*
X135542095Y-105938012D01*
X135479764Y-105875681D01*
X135446279Y-105814358D01*
X135451263Y-105744666D01*
X135493135Y-105688733D01*
X135558599Y-105664316D01*
X135567445Y-105664000D01*
X135998890Y-105664000D01*
X136065929Y-105683685D01*
X136086566Y-105700314D01*
X136144780Y-105758528D01*
X136264874Y-105819719D01*
X136398000Y-105840804D01*
X136531126Y-105819719D01*
X136651220Y-105758528D01*
X136709430Y-105700317D01*
X136770751Y-105666834D01*
X136797110Y-105664000D01*
X138284890Y-105664000D01*
X138351929Y-105683685D01*
X138372566Y-105700314D01*
X138430780Y-105758528D01*
X138550874Y-105819719D01*
X138617437Y-105830261D01*
X138683999Y-105840804D01*
X138683999Y-105840803D01*
X138684000Y-105840804D01*
X138817126Y-105819719D01*
X138937220Y-105758528D01*
X138995430Y-105700317D01*
X139056751Y-105666834D01*
X139083110Y-105664000D01*
X140951890Y-105664000D01*
X141018929Y-105683685D01*
X141039566Y-105700314D01*
X141097780Y-105758528D01*
X141217874Y-105819719D01*
X141351000Y-105840804D01*
X141484126Y-105819719D01*
X141604220Y-105758528D01*
X141662430Y-105700317D01*
X141723751Y-105666834D01*
X141750110Y-105664000D01*
X143999890Y-105664000D01*
X144066929Y-105683685D01*
X144087566Y-105700314D01*
X144145780Y-105758528D01*
X144265874Y-105819719D01*
X144332436Y-105830261D01*
X144398999Y-105840804D01*
X144398999Y-105840803D01*
X144399000Y-105840804D01*
X144532126Y-105819719D01*
X144652220Y-105758528D01*
X144710430Y-105700317D01*
X144771751Y-105666834D01*
X144798110Y-105664000D01*
X145584662Y-105664000D01*
X145651701Y-105683685D01*
X145697456Y-105736489D01*
X145707400Y-105805647D01*
X145695147Y-105844294D01*
X145661699Y-105909939D01*
X145644330Y-106019599D01*
X145661699Y-106129260D01*
X145712104Y-106228187D01*
X145790610Y-106306693D01*
X145790612Y-106306694D01*
X145790613Y-106306695D01*
X145858567Y-106341319D01*
X145909362Y-106389291D01*
X145924745Y-106432405D01*
X145941099Y-106535660D01*
X145991504Y-106634587D01*
X146070012Y-106713095D01*
X146168939Y-106763500D01*
X146278597Y-106780869D01*
X146278598Y-106780868D01*
X146278600Y-106780869D01*
X146296232Y-106778076D01*
X146365524Y-106787029D01*
X146418977Y-106832024D01*
X146426116Y-106844254D01*
X146448705Y-106888588D01*
X146527212Y-106967095D01*
X146622795Y-107015796D01*
X146673591Y-107063770D01*
X146688974Y-107106882D01*
X146703099Y-107196061D01*
X146753504Y-107294987D01*
X146832012Y-107373495D01*
X146889021Y-107402542D01*
X146930939Y-107423900D01*
X147040600Y-107441269D01*
X147150261Y-107423900D01*
X147249187Y-107373495D01*
X147327695Y-107294987D01*
X147378100Y-107196061D01*
X147395469Y-107086400D01*
X147378100Y-106976739D01*
X147338236Y-106898501D01*
X147327695Y-106877812D01*
X147249188Y-106799305D01*
X147153602Y-106750602D01*
X147102806Y-106702628D01*
X147087424Y-106659514D01*
X147086097Y-106651138D01*
X147073300Y-106570339D01*
X147051524Y-106527600D01*
X147022895Y-106471412D01*
X146944387Y-106392904D01*
X146845460Y-106342499D01*
X146735801Y-106325130D01*
X146718165Y-106327924D01*
X146648872Y-106318968D01*
X146595420Y-106273971D01*
X146588283Y-106261744D01*
X146565695Y-106217412D01*
X146487188Y-106138905D01*
X146419232Y-106104280D01*
X146368436Y-106056305D01*
X146353054Y-106013193D01*
X146336700Y-105909938D01*
X146303253Y-105844294D01*
X146290357Y-105775625D01*
X146316634Y-105710885D01*
X146373740Y-105670628D01*
X146413738Y-105664000D01*
X150773992Y-105664000D01*
X150830285Y-105677514D01*
X150867939Y-105696700D01*
X150977600Y-105714069D01*
X151087261Y-105696700D01*
X151124914Y-105677514D01*
X151181208Y-105664000D01*
X153052755Y-105664000D01*
X153119794Y-105683685D01*
X153165549Y-105736489D01*
X153175493Y-105805647D01*
X153146468Y-105869203D01*
X153140436Y-105875681D01*
X153078104Y-105938012D01*
X153027699Y-106036938D01*
X153020700Y-106081129D01*
X152990770Y-106144263D01*
X152931458Y-106181193D01*
X152878829Y-106184202D01*
X152806400Y-106172730D01*
X152696739Y-106190099D01*
X152597812Y-106240504D01*
X152519304Y-106319012D01*
X152468899Y-106417938D01*
X152450398Y-106534746D01*
X152420468Y-106597881D01*
X152384220Y-106625832D01*
X152293011Y-106672305D01*
X152214504Y-106750812D01*
X152164099Y-106849739D01*
X152146730Y-106959399D01*
X152164099Y-107069060D01*
X152214504Y-107167987D01*
X152293011Y-107246494D01*
X152293013Y-107246495D01*
X152372015Y-107286748D01*
X152422811Y-107334721D01*
X152439607Y-107402542D01*
X152438194Y-107416630D01*
X152426130Y-107492798D01*
X152443499Y-107602460D01*
X152493904Y-107701387D01*
X152572412Y-107779895D01*
X152651798Y-107820344D01*
X152702595Y-107868318D01*
X152719390Y-107936139D01*
X152696853Y-108002274D01*
X152651799Y-108041314D01*
X152547011Y-108094705D01*
X152468504Y-108173212D01*
X152418099Y-108272138D01*
X152401745Y-108375395D01*
X152371815Y-108438529D01*
X152335566Y-108466481D01*
X152267612Y-108501104D01*
X152189104Y-108579612D01*
X152138699Y-108678539D01*
X152121330Y-108788200D01*
X152138699Y-108897860D01*
X152189104Y-108996787D01*
X152267612Y-109075295D01*
X152366539Y-109125700D01*
X152476200Y-109143069D01*
X152585861Y-109125700D01*
X152684787Y-109075295D01*
X152763295Y-108996787D01*
X152813700Y-108897861D01*
X152830054Y-108794604D01*
X152859983Y-108731471D01*
X152896228Y-108703521D01*
X152964187Y-108668895D01*
X153042695Y-108590387D01*
X153093100Y-108491461D01*
X153103700Y-108424539D01*
X153110469Y-108381802D01*
X153110469Y-108381800D01*
X153106846Y-108358927D01*
X153115800Y-108289636D01*
X153160795Y-108236183D01*
X153209921Y-108217056D01*
X153246261Y-108211300D01*
X153345187Y-108160895D01*
X153423695Y-108082387D01*
X153427850Y-108074232D01*
X153474100Y-107983461D01*
X153491469Y-107873800D01*
X153481323Y-107809745D01*
X153474100Y-107764139D01*
X153423695Y-107665212D01*
X153345187Y-107586704D01*
X153246261Y-107536299D01*
X153229074Y-107533577D01*
X153165940Y-107503646D01*
X153129010Y-107444333D01*
X153126002Y-107430502D01*
X153118500Y-107383138D01*
X153068095Y-107284212D01*
X152989588Y-107205705D01*
X152910583Y-107165450D01*
X152859787Y-107117475D01*
X152842992Y-107049654D01*
X152844405Y-107035567D01*
X152857601Y-106952253D01*
X152887530Y-106889118D01*
X152923775Y-106861169D01*
X153014987Y-106814695D01*
X153093495Y-106736187D01*
X153143900Y-106637261D01*
X153150899Y-106593071D01*
X153180828Y-106529938D01*
X153240139Y-106493006D01*
X153292770Y-106489997D01*
X153365200Y-106501469D01*
X153474861Y-106484100D01*
X153573787Y-106433695D01*
X153652295Y-106355187D01*
X153702700Y-106256261D01*
X153720069Y-106146600D01*
X153702700Y-106036939D01*
X153676634Y-105985781D01*
X153652295Y-105938012D01*
X153589964Y-105875681D01*
X153556479Y-105814358D01*
X153561463Y-105744666D01*
X153603335Y-105688733D01*
X153668799Y-105664316D01*
X153677645Y-105664000D01*
X154167289Y-105664000D01*
X154234328Y-105683685D01*
X154256324Y-105707994D01*
X154258019Y-105706300D01*
X154271904Y-105720185D01*
X154271905Y-105720187D01*
X154310246Y-105758528D01*
X154350414Y-105798696D01*
X154391675Y-105819719D01*
X154449339Y-105849100D01*
X154559000Y-105866469D01*
X154668661Y-105849100D01*
X154767587Y-105798695D01*
X154846095Y-105720187D01*
X154846096Y-105720184D01*
X154859981Y-105706300D01*
X154862160Y-105708479D01*
X154888208Y-105680905D01*
X154950711Y-105664000D01*
X155322263Y-105664000D01*
X155389302Y-105683685D01*
X155432748Y-105731706D01*
X155465704Y-105796387D01*
X155544212Y-105874895D01*
X155605099Y-105905918D01*
X155643139Y-105925300D01*
X155752800Y-105942669D01*
X155862461Y-105925300D01*
X155961387Y-105874895D01*
X156039895Y-105796387D01*
X156059185Y-105758528D01*
X156072852Y-105731706D01*
X156120826Y-105680909D01*
X156183337Y-105664000D01*
X162182000Y-105664000D01*
X162249039Y-105683685D01*
X162294794Y-105736489D01*
X162306000Y-105788000D01*
X162306000Y-108365740D01*
X162292485Y-108422034D01*
X162277280Y-108451874D01*
X162256195Y-108585000D01*
X162277280Y-108718124D01*
X162292485Y-108747966D01*
X162305999Y-108804259D01*
X162305999Y-109381740D01*
X162292486Y-109438031D01*
X162277280Y-109467875D01*
X162256195Y-109601000D01*
X162277280Y-109734124D01*
X162292485Y-109763966D01*
X162305999Y-109820259D01*
X162305999Y-115604740D01*
X162292486Y-115661031D01*
X162277280Y-115690875D01*
X162256195Y-115824000D01*
X162277280Y-115957124D01*
X162292485Y-115986966D01*
X162305999Y-116043259D01*
X162305999Y-117128740D01*
X162292486Y-117185031D01*
X162277280Y-117214875D01*
X162256195Y-117348000D01*
X162277280Y-117481124D01*
X162292485Y-117510966D01*
X162305999Y-117567259D01*
X162305999Y-118525740D01*
X162292486Y-118582031D01*
X162277280Y-118611875D01*
X162256195Y-118745000D01*
X162277280Y-118878124D01*
X162292485Y-118907966D01*
X162305999Y-118964259D01*
X162305999Y-120049740D01*
X162292486Y-120106031D01*
X162277280Y-120135875D01*
X162256195Y-120269000D01*
X162277280Y-120402124D01*
X162292485Y-120431966D01*
X162305999Y-120488259D01*
X162305999Y-121319740D01*
X162292486Y-121376031D01*
X162277280Y-121405875D01*
X162256195Y-121539000D01*
X162277280Y-121672124D01*
X162292485Y-121701966D01*
X162305999Y-121758259D01*
X162306000Y-124844000D01*
X162286315Y-124911039D01*
X162233511Y-124956794D01*
X162182000Y-124968000D01*
X158334260Y-124968000D01*
X158277965Y-124954485D01*
X158248126Y-124939281D01*
X158248125Y-124939280D01*
X158248124Y-124939280D01*
X158115000Y-124918195D01*
X157981875Y-124939280D01*
X157964144Y-124948315D01*
X157952034Y-124954485D01*
X157895740Y-124968000D01*
X128902000Y-124968000D01*
X128834961Y-124948315D01*
X128789206Y-124895511D01*
X128778000Y-124844000D01*
X128778000Y-124104400D01*
X137490930Y-124104400D01*
X137508299Y-124214060D01*
X137558704Y-124312987D01*
X137637212Y-124391495D01*
X137684769Y-124415726D01*
X137736139Y-124441900D01*
X137845800Y-124459269D01*
X137955461Y-124441900D01*
X138054387Y-124391495D01*
X138132895Y-124312987D01*
X138183300Y-124214061D01*
X138200669Y-124104400D01*
X138196646Y-124079000D01*
X152146730Y-124079000D01*
X152164099Y-124188660D01*
X152214504Y-124287587D01*
X152293012Y-124366095D01*
X152391939Y-124416500D01*
X152501599Y-124433869D01*
X152501599Y-124433868D01*
X152501600Y-124433869D01*
X152611261Y-124416500D01*
X152710187Y-124366095D01*
X152788695Y-124287587D01*
X152839100Y-124188661D01*
X152856469Y-124079000D01*
X152839100Y-123969339D01*
X152830663Y-123952780D01*
X152788695Y-123870412D01*
X152710187Y-123791904D01*
X152611260Y-123741499D01*
X152501600Y-123724130D01*
X152391939Y-123741499D01*
X152293012Y-123791904D01*
X152214504Y-123870412D01*
X152164099Y-123969339D01*
X152146730Y-124079000D01*
X138196646Y-124079000D01*
X138193237Y-124057480D01*
X138183300Y-123994739D01*
X138132895Y-123895812D01*
X138054387Y-123817304D01*
X137955460Y-123766899D01*
X137845799Y-123749530D01*
X137736139Y-123766899D01*
X137637212Y-123817304D01*
X137558704Y-123895812D01*
X137508299Y-123994739D01*
X137490930Y-124104400D01*
X128778000Y-124104400D01*
X128778000Y-120777000D01*
X123563711Y-120777000D01*
X123496672Y-120757315D01*
X123476030Y-120740681D01*
X123468621Y-120733272D01*
X123348524Y-120672080D01*
X123215399Y-120650995D01*
X123082275Y-120672080D01*
X122962178Y-120733272D01*
X122954770Y-120740681D01*
X122893447Y-120774166D01*
X122867089Y-120777000D01*
X116332000Y-120777000D01*
X116332000Y-121415000D01*
X116312315Y-121482039D01*
X116259511Y-121527794D01*
X116208000Y-121539000D01*
X107058000Y-121539000D01*
X106990961Y-121519315D01*
X106945206Y-121466511D01*
X106934000Y-121415000D01*
X106934000Y-119507000D01*
X135763730Y-119507000D01*
X135781099Y-119616660D01*
X135831504Y-119715587D01*
X135910012Y-119794095D01*
X136008939Y-119844499D01*
X136008939Y-119844500D01*
X136118600Y-119861869D01*
X136228261Y-119844500D01*
X136327187Y-119794095D01*
X136405695Y-119715587D01*
X136456100Y-119616661D01*
X136473469Y-119507000D01*
X136457377Y-119405399D01*
X152146730Y-119405399D01*
X152164099Y-119515060D01*
X152214504Y-119613987D01*
X152293012Y-119692495D01*
X152391939Y-119742900D01*
X152501599Y-119760269D01*
X152501599Y-119760268D01*
X152501600Y-119760269D01*
X152611261Y-119742900D01*
X152710187Y-119692495D01*
X152788695Y-119613987D01*
X152839100Y-119515061D01*
X152856469Y-119405400D01*
X152839100Y-119295739D01*
X152800461Y-119219905D01*
X152788695Y-119196812D01*
X152710187Y-119118304D01*
X152611260Y-119067899D01*
X152501599Y-119050530D01*
X152391939Y-119067899D01*
X152293012Y-119118304D01*
X152214504Y-119196812D01*
X152164099Y-119295739D01*
X152146730Y-119405399D01*
X136457377Y-119405399D01*
X136456100Y-119397339D01*
X136415194Y-119317055D01*
X136405695Y-119298412D01*
X136327187Y-119219904D01*
X136228260Y-119169499D01*
X136118600Y-119152130D01*
X136008939Y-119169499D01*
X135910012Y-119219904D01*
X135831504Y-119298412D01*
X135781099Y-119397339D01*
X135763730Y-119507000D01*
X106934000Y-119507000D01*
X106934000Y-116713000D01*
X133452595Y-116713000D01*
X133473680Y-116846124D01*
X133534872Y-116966221D01*
X133630178Y-117061527D01*
X133630180Y-117061528D01*
X133750274Y-117122719D01*
X133883400Y-117143804D01*
X134016526Y-117122719D01*
X134136620Y-117061528D01*
X134231928Y-116966220D01*
X134293119Y-116846126D01*
X134314204Y-116713000D01*
X134293119Y-116579874D01*
X134231928Y-116459780D01*
X134231927Y-116459778D01*
X134136621Y-116364472D01*
X134016524Y-116303280D01*
X133883400Y-116282195D01*
X133750275Y-116303280D01*
X133630178Y-116364472D01*
X133534872Y-116459778D01*
X133473680Y-116579875D01*
X133452595Y-116713000D01*
X106934000Y-116713000D01*
X106934000Y-116205000D01*
X137465530Y-116205000D01*
X137482899Y-116314660D01*
X137533304Y-116413587D01*
X137611812Y-116492095D01*
X137710739Y-116542500D01*
X137820400Y-116559869D01*
X137930061Y-116542500D01*
X138028987Y-116492095D01*
X138107495Y-116413587D01*
X138157900Y-116314661D01*
X138175269Y-116205000D01*
X138157900Y-116095339D01*
X138131364Y-116043259D01*
X138107495Y-115996412D01*
X138028987Y-115917904D01*
X137930060Y-115867499D01*
X137820400Y-115850130D01*
X137710739Y-115867499D01*
X137611812Y-115917904D01*
X137533304Y-115996412D01*
X137482899Y-116095339D01*
X137465530Y-116205000D01*
X106934000Y-116205000D01*
X106934000Y-114858799D01*
X116688595Y-114858799D01*
X116709680Y-114991924D01*
X116770872Y-115112021D01*
X116866178Y-115207327D01*
X116866180Y-115207328D01*
X116986274Y-115268519D01*
X117052837Y-115279061D01*
X117119399Y-115289604D01*
X117119399Y-115289603D01*
X117119400Y-115289604D01*
X117252526Y-115268519D01*
X117372620Y-115207328D01*
X117467928Y-115112020D01*
X117529119Y-114991926D01*
X117550204Y-114858800D01*
X117529119Y-114725674D01*
X117506356Y-114680999D01*
X120740130Y-114680999D01*
X120757499Y-114790660D01*
X120807904Y-114889587D01*
X120886412Y-114968095D01*
X120919206Y-114984804D01*
X120985339Y-115018500D01*
X121095000Y-115035869D01*
X121204661Y-115018500D01*
X121303587Y-114968095D01*
X121382095Y-114889587D01*
X121432500Y-114790661D01*
X121449869Y-114681000D01*
X121432500Y-114571339D01*
X121423665Y-114554000D01*
X132792195Y-114554000D01*
X132813280Y-114687124D01*
X132874472Y-114807221D01*
X132969778Y-114902527D01*
X132969780Y-114902528D01*
X133089874Y-114963719D01*
X133156437Y-114974261D01*
X133222999Y-114984804D01*
X133222999Y-114984803D01*
X133223000Y-114984804D01*
X133356126Y-114963719D01*
X133476220Y-114902528D01*
X133571528Y-114807220D01*
X133632719Y-114687126D01*
X133653804Y-114554000D01*
X133632719Y-114420874D01*
X133571528Y-114300780D01*
X133571527Y-114300778D01*
X133476221Y-114205472D01*
X133356124Y-114144280D01*
X133222999Y-114123195D01*
X133089875Y-114144280D01*
X132969778Y-114205472D01*
X132874472Y-114300778D01*
X132813280Y-114420875D01*
X132792195Y-114554000D01*
X121423665Y-114554000D01*
X121401385Y-114510272D01*
X121382095Y-114472412D01*
X121303587Y-114393904D01*
X121204660Y-114343499D01*
X121095000Y-114326130D01*
X120985339Y-114343499D01*
X120886412Y-114393904D01*
X120807904Y-114472412D01*
X120757499Y-114571339D01*
X120740130Y-114680999D01*
X117506356Y-114680999D01*
X117467928Y-114605580D01*
X117467927Y-114605578D01*
X117372621Y-114510272D01*
X117252524Y-114449080D01*
X117119399Y-114427995D01*
X116986275Y-114449080D01*
X116866178Y-114510272D01*
X116770872Y-114605578D01*
X116709680Y-114725675D01*
X116688595Y-114858799D01*
X106934000Y-114858799D01*
X106934000Y-113334799D01*
X135331930Y-113334799D01*
X135349299Y-113444460D01*
X135399704Y-113543387D01*
X135478212Y-113621895D01*
X135577138Y-113672300D01*
X135577139Y-113672300D01*
X135686800Y-113689669D01*
X135796461Y-113672300D01*
X135895387Y-113621895D01*
X135973895Y-113543387D01*
X136024300Y-113444461D01*
X136041669Y-113334800D01*
X136024300Y-113225139D01*
X136017181Y-113211167D01*
X135973895Y-113126212D01*
X135895387Y-113047704D01*
X135796460Y-112997299D01*
X135686800Y-112979930D01*
X135577139Y-112997299D01*
X135478212Y-113047704D01*
X135399704Y-113126212D01*
X135349299Y-113225139D01*
X135331930Y-113334799D01*
X106934000Y-113334799D01*
X106934000Y-112773000D01*
X106953685Y-112705961D01*
X107006489Y-112660206D01*
X107058000Y-112649000D01*
X110490000Y-112649000D01*
X110490000Y-112630247D01*
X110509685Y-112563208D01*
X110562489Y-112517453D01*
X110631647Y-112507509D01*
X110633374Y-112507770D01*
X110718600Y-112521269D01*
X110828261Y-112503900D01*
X110927187Y-112453495D01*
X111005695Y-112374987D01*
X111056100Y-112276061D01*
X111057377Y-112267999D01*
X120625330Y-112267999D01*
X120642699Y-112377660D01*
X120693104Y-112476587D01*
X120771612Y-112555095D01*
X120870538Y-112605499D01*
X120870539Y-112605500D01*
X120980200Y-112622869D01*
X121089861Y-112605500D01*
X121188787Y-112555095D01*
X121267295Y-112476587D01*
X121317700Y-112377661D01*
X121335069Y-112268000D01*
X121317700Y-112158339D01*
X121299844Y-112123295D01*
X121267295Y-112059412D01*
X121188787Y-111980904D01*
X121089860Y-111930499D01*
X120980200Y-111913130D01*
X120870539Y-111930499D01*
X120771612Y-111980904D01*
X120693104Y-112059412D01*
X120642699Y-112158339D01*
X120625330Y-112267999D01*
X111057377Y-112267999D01*
X111073469Y-112166400D01*
X111056100Y-112056739D01*
X111017461Y-111980905D01*
X111005695Y-111957812D01*
X110927187Y-111879304D01*
X110842589Y-111836200D01*
X127737330Y-111836200D01*
X127754699Y-111945860D01*
X127805104Y-112044787D01*
X127883612Y-112123295D01*
X127982539Y-112173700D01*
X128092199Y-112191069D01*
X128092199Y-112191068D01*
X128092200Y-112191069D01*
X128201861Y-112173700D01*
X128300787Y-112123295D01*
X128379295Y-112044787D01*
X128429700Y-111945861D01*
X128447069Y-111836200D01*
X128429700Y-111726539D01*
X128423610Y-111714587D01*
X128379295Y-111627612D01*
X128300787Y-111549104D01*
X128216187Y-111505999D01*
X132868130Y-111505999D01*
X132885499Y-111615660D01*
X132935904Y-111714587D01*
X133014412Y-111793095D01*
X133099010Y-111836199D01*
X133113339Y-111843500D01*
X133223000Y-111860869D01*
X133332661Y-111843500D01*
X133431587Y-111793095D01*
X133510095Y-111714587D01*
X133560500Y-111615661D01*
X133577869Y-111506000D01*
X133560500Y-111396339D01*
X133560499Y-111396339D01*
X133510095Y-111297412D01*
X133431587Y-111218904D01*
X133332660Y-111168499D01*
X133223000Y-111151130D01*
X133113339Y-111168499D01*
X133014412Y-111218904D01*
X132935904Y-111297412D01*
X132885499Y-111396339D01*
X132868130Y-111505999D01*
X128216187Y-111505999D01*
X128201860Y-111498699D01*
X128092200Y-111481330D01*
X127982539Y-111498699D01*
X127883612Y-111549104D01*
X127805104Y-111627612D01*
X127754699Y-111726539D01*
X127737330Y-111836200D01*
X110842589Y-111836200D01*
X110828260Y-111828899D01*
X110718599Y-111811530D01*
X110633398Y-111825025D01*
X110564104Y-111816070D01*
X110510652Y-111771074D01*
X110490013Y-111704323D01*
X110490000Y-111702552D01*
X110490000Y-109817845D01*
X110509685Y-109750806D01*
X110526319Y-109730164D01*
X110573895Y-109682587D01*
X110585862Y-109659100D01*
X110624300Y-109583661D01*
X110641669Y-109474000D01*
X110634899Y-109431260D01*
X110624300Y-109364339D01*
X110573895Y-109265412D01*
X110526319Y-109217836D01*
X110492834Y-109156513D01*
X110490000Y-109130155D01*
X110490000Y-108534199D01*
X135382730Y-108534199D01*
X135400099Y-108643860D01*
X135450504Y-108742787D01*
X135529012Y-108821295D01*
X135627939Y-108871700D01*
X135737598Y-108889069D01*
X135737598Y-108889068D01*
X135737600Y-108889069D01*
X135768509Y-108884173D01*
X135837801Y-108893127D01*
X135891254Y-108938122D01*
X135911895Y-109004873D01*
X135893171Y-109072187D01*
X135875591Y-109094326D01*
X135856904Y-109113013D01*
X135806499Y-109211939D01*
X135789130Y-109321600D01*
X135806499Y-109431260D01*
X135856904Y-109530187D01*
X135935412Y-109608695D01*
X136034338Y-109659099D01*
X136034339Y-109659100D01*
X136144000Y-109676469D01*
X136253661Y-109659100D01*
X136352587Y-109608695D01*
X136431095Y-109530187D01*
X136481500Y-109431261D01*
X136486800Y-109397800D01*
X148641530Y-109397800D01*
X148658899Y-109507460D01*
X148709304Y-109606387D01*
X148787812Y-109684895D01*
X148876659Y-109730164D01*
X148886739Y-109735300D01*
X148996400Y-109752669D01*
X149106061Y-109735300D01*
X149204987Y-109684895D01*
X149283495Y-109606387D01*
X149333900Y-109507461D01*
X149351269Y-109397800D01*
X149343346Y-109347780D01*
X149333900Y-109288139D01*
X149283495Y-109189212D01*
X149204987Y-109110704D01*
X149106060Y-109060299D01*
X148996400Y-109042930D01*
X148886739Y-109060299D01*
X148787812Y-109110704D01*
X148709304Y-109189212D01*
X148658899Y-109288139D01*
X148641530Y-109397800D01*
X136486800Y-109397800D01*
X136498869Y-109321600D01*
X136481500Y-109211939D01*
X136468745Y-109186905D01*
X136431095Y-109113012D01*
X136352587Y-109034504D01*
X136253660Y-108984099D01*
X136143999Y-108966730D01*
X136113088Y-108971626D01*
X136043795Y-108962671D01*
X135990343Y-108917675D01*
X135969704Y-108850923D01*
X135988429Y-108783610D01*
X136006007Y-108761474D01*
X136024695Y-108742787D01*
X136075100Y-108643861D01*
X136092469Y-108534200D01*
X136092469Y-108534199D01*
X146558730Y-108534199D01*
X146576099Y-108643860D01*
X146626504Y-108742787D01*
X146705012Y-108821295D01*
X146789610Y-108864399D01*
X146803939Y-108871700D01*
X146913600Y-108889069D01*
X147023261Y-108871700D01*
X147037588Y-108864400D01*
X147701730Y-108864400D01*
X147719099Y-108974060D01*
X147769504Y-109072987D01*
X147848012Y-109151495D01*
X147917509Y-109186905D01*
X147946939Y-109201900D01*
X148056600Y-109219269D01*
X148166261Y-109201900D01*
X148265187Y-109151495D01*
X148343695Y-109072987D01*
X148394100Y-108974061D01*
X148411469Y-108864400D01*
X148409334Y-108850923D01*
X148394100Y-108754739D01*
X148359382Y-108686600D01*
X150597330Y-108686600D01*
X150614699Y-108796260D01*
X150665104Y-108895187D01*
X150743612Y-108973695D01*
X150842539Y-109024100D01*
X150952199Y-109041469D01*
X150952199Y-109041468D01*
X150952200Y-109041469D01*
X151061861Y-109024100D01*
X151160787Y-108973695D01*
X151239295Y-108895187D01*
X151289700Y-108796261D01*
X151307069Y-108686600D01*
X151304264Y-108668893D01*
X151289700Y-108576939D01*
X151239295Y-108478012D01*
X151160787Y-108399504D01*
X151061860Y-108349099D01*
X150952200Y-108331730D01*
X150842539Y-108349099D01*
X150743612Y-108399504D01*
X150665104Y-108478012D01*
X150614699Y-108576939D01*
X150597330Y-108686600D01*
X148359382Y-108686600D01*
X148343695Y-108655812D01*
X148265187Y-108577304D01*
X148166260Y-108526899D01*
X148056599Y-108509530D01*
X147946939Y-108526899D01*
X147848012Y-108577304D01*
X147769504Y-108655812D01*
X147719099Y-108754739D01*
X147701730Y-108864400D01*
X147037588Y-108864400D01*
X147122187Y-108821295D01*
X147200695Y-108742787D01*
X147251100Y-108643861D01*
X147268469Y-108534200D01*
X147251100Y-108424539D01*
X147213577Y-108350895D01*
X147200695Y-108325612D01*
X147122187Y-108247104D01*
X147023260Y-108196699D01*
X146913600Y-108179330D01*
X146803939Y-108196699D01*
X146705012Y-108247104D01*
X146626504Y-108325612D01*
X146576099Y-108424539D01*
X146558730Y-108534199D01*
X136092469Y-108534199D01*
X136085699Y-108491460D01*
X136075100Y-108424539D01*
X136024695Y-108325612D01*
X135946187Y-108247104D01*
X135847260Y-108196699D01*
X135737600Y-108179330D01*
X135627939Y-108196699D01*
X135529012Y-108247104D01*
X135450504Y-108325612D01*
X135400099Y-108424539D01*
X135382730Y-108534199D01*
X110490000Y-108534199D01*
X110490000Y-107086399D01*
X121565130Y-107086399D01*
X121582499Y-107196060D01*
X121632904Y-107294987D01*
X121711412Y-107373495D01*
X121768421Y-107402542D01*
X121810339Y-107423900D01*
X121920000Y-107441269D01*
X122029661Y-107423900D01*
X122128587Y-107373495D01*
X122207095Y-107294987D01*
X122257500Y-107196061D01*
X122274869Y-107086400D01*
X122257500Y-106976739D01*
X122217636Y-106898501D01*
X122207095Y-106877812D01*
X122128587Y-106799304D01*
X122029660Y-106748899D01*
X121919999Y-106731530D01*
X121810339Y-106748899D01*
X121711412Y-106799304D01*
X121632904Y-106877812D01*
X121582499Y-106976739D01*
X121565130Y-107086399D01*
X110490000Y-107086399D01*
X110490000Y-106654600D01*
X132969730Y-106654600D01*
X132987099Y-106764260D01*
X133037504Y-106863187D01*
X133116012Y-106941695D01*
X133214939Y-106992100D01*
X133324599Y-107009469D01*
X133324599Y-107009468D01*
X133324600Y-107009469D01*
X133434261Y-106992100D01*
X133533187Y-106941695D01*
X133611695Y-106863187D01*
X133662100Y-106764261D01*
X133664168Y-106751202D01*
X133694096Y-106688070D01*
X133753407Y-106651138D01*
X133767237Y-106648129D01*
X133840661Y-106636500D01*
X133939587Y-106586095D01*
X134018095Y-106507587D01*
X134068500Y-106408661D01*
X134085869Y-106299000D01*
X134068500Y-106189339D01*
X134037889Y-106129261D01*
X134018095Y-106090412D01*
X133939587Y-106011904D01*
X133840660Y-105961499D01*
X133730999Y-105944130D01*
X133621339Y-105961499D01*
X133522412Y-106011904D01*
X133443904Y-106090412D01*
X133393499Y-106189338D01*
X133391431Y-106202398D01*
X133361500Y-106265532D01*
X133302188Y-106302462D01*
X133288358Y-106305470D01*
X133214938Y-106317099D01*
X133116012Y-106367504D01*
X133037504Y-106446012D01*
X132987099Y-106544939D01*
X132969730Y-106654600D01*
X110490000Y-106654600D01*
X110490000Y-105788000D01*
X110509685Y-105720961D01*
X110562489Y-105675206D01*
X110614000Y-105664000D01*
X111110890Y-105664000D01*
X111177929Y-105683685D01*
G37*
G04 #@! TD.AperFunction*
M02*
