G04 EAGLE Gerber RS-274X export*
G75*
%MOMM*%
%FSLAX34Y34*%
%LPD*%
%INSoldermask Top*%
%IPPOS*%
%AMOC8*
5,1,8,0,0,1.08239X$1,22.5*%
G01*
%ADD10R,2.263200X1.473200*%
%ADD11R,1.473200X2.263200*%
%ADD12C,4.203200*%
%ADD13R,2.303200X2.303200*%
%ADD14C,2.082800*%
%ADD15R,1.314400X0.604000*%
%ADD16R,2.003200X2.403200*%
%ADD17R,2.108200X2.108200*%
%ADD18C,2.286000*%
%ADD19C,3.505200*%
%ADD20C,1.828800*%
%ADD21C,1.625600*%
%ADD22R,1.403200X1.003200*%
%ADD23C,0.811222*%
%ADD24C,0.758316*%
%ADD25C,1.981200*%
%ADD26R,2.753200X2.753200*%
%ADD27C,2.753200*%
%ADD28C,1.879600*%
%ADD29C,0.959600*%


D10*
X306607Y438518D03*
X306607Y473618D03*
X250544Y439026D03*
X250544Y474126D03*
D11*
X175490Y319392D03*
X210590Y319392D03*
X175490Y266052D03*
X210590Y266052D03*
X90702Y542544D03*
X55602Y542544D03*
D12*
X312636Y41108D03*
D13*
X291936Y114508D03*
X333336Y114508D03*
D12*
X615112Y40600D03*
D13*
X594412Y114000D03*
X635812Y114000D03*
D14*
X629704Y471536D03*
X629704Y496936D03*
X629704Y522336D03*
X629704Y547736D03*
X629704Y573136D03*
X629704Y598536D03*
X629704Y623936D03*
X629704Y649336D03*
X601764Y471536D03*
X601764Y496936D03*
X601764Y522336D03*
X601764Y547736D03*
X601764Y573136D03*
X601764Y598536D03*
X601764Y623936D03*
X601764Y649336D03*
D15*
X371100Y624512D03*
X394100Y624512D03*
D16*
X455268Y177292D03*
X404268Y177292D03*
X606144Y428188D03*
X555144Y428188D03*
D17*
X316700Y623316D03*
X316700Y699516D03*
D18*
X240500Y661416D03*
D19*
X826008Y748792D03*
X31242Y17018D03*
X826008Y24892D03*
X38608Y748792D03*
D20*
X142748Y497332D03*
X117348Y497332D03*
X117348Y421132D03*
X142748Y421132D03*
X91948Y497332D03*
X66548Y497332D03*
X91948Y421132D03*
X66548Y421132D03*
D21*
X268224Y186436D02*
X282448Y186436D01*
X282448Y211836D02*
X268224Y211836D01*
X268224Y335788D02*
X282448Y335788D01*
X282448Y310388D02*
X268224Y310388D01*
D22*
X419240Y499000D03*
X419240Y517000D03*
D12*
X53808Y634492D03*
D13*
X127208Y667892D03*
X127208Y601092D03*
D23*
X102160Y356802D02*
X96040Y356802D01*
X102160Y356802D02*
X102160Y334582D01*
X96040Y334582D01*
X96040Y356802D01*
X96040Y342288D02*
X102160Y342288D01*
X102160Y349994D02*
X96040Y349994D01*
X56360Y356802D02*
X50240Y356802D01*
X56360Y356802D02*
X56360Y334582D01*
X50240Y334582D01*
X50240Y356802D01*
X50240Y342288D02*
X56360Y342288D01*
X56360Y349994D02*
X50240Y349994D01*
D24*
X50825Y306917D02*
X101575Y306917D01*
X101575Y251467D01*
X50825Y251467D01*
X50825Y306917D01*
X50825Y258671D02*
X101575Y258671D01*
X101575Y265875D02*
X50825Y265875D01*
X50825Y273079D02*
X101575Y273079D01*
X101575Y280283D02*
X50825Y280283D01*
X50825Y287487D02*
X101575Y287487D01*
X101575Y294691D02*
X50825Y294691D01*
X50825Y301895D02*
X101575Y301895D01*
D23*
X89460Y197290D02*
X83340Y197290D01*
X89460Y197290D02*
X89460Y175070D01*
X83340Y175070D01*
X83340Y197290D01*
X83340Y182776D02*
X89460Y182776D01*
X89460Y190482D02*
X83340Y190482D01*
X43660Y197290D02*
X37540Y197290D01*
X43660Y197290D02*
X43660Y175070D01*
X37540Y175070D01*
X37540Y197290D01*
X37540Y182776D02*
X43660Y182776D01*
X43660Y190482D02*
X37540Y190482D01*
D24*
X38125Y147405D02*
X88875Y147405D01*
X88875Y91955D01*
X38125Y91955D01*
X38125Y147405D01*
X38125Y99159D02*
X88875Y99159D01*
X88875Y106363D02*
X38125Y106363D01*
X38125Y113567D02*
X88875Y113567D01*
X88875Y120771D02*
X38125Y120771D01*
X38125Y127975D02*
X88875Y127975D01*
X88875Y135179D02*
X38125Y135179D01*
X38125Y142383D02*
X88875Y142383D01*
D10*
X418732Y472602D03*
X418732Y437502D03*
X362669Y473618D03*
X362669Y438518D03*
D25*
X267856Y530860D03*
X293256Y530860D03*
X318656Y530860D03*
D10*
X134112Y137438D03*
X134112Y102338D03*
D11*
X451382Y136652D03*
X416282Y136652D03*
X605814Y383540D03*
X570714Y383540D03*
D26*
X419608Y240792D03*
D27*
X479608Y260792D03*
D26*
X479608Y382792D03*
X359608Y382792D03*
D27*
X359608Y260792D03*
D28*
X598170Y250444D02*
X614934Y250444D01*
X614934Y225044D02*
X598170Y225044D01*
X598170Y199644D02*
X614934Y199644D01*
D19*
X781812Y225044D03*
D29*
X217932Y381000D03*
X134112Y186436D03*
X316738Y211582D03*
X392176Y136144D03*
X172212Y101600D03*
X231140Y241300D03*
X513588Y744728D03*
X511556Y688340D03*
X375920Y677672D03*
X182372Y601472D03*
X203708Y505460D03*
X337820Y482092D03*
X282956Y390144D03*
X94996Y370332D03*
X152400Y298704D03*
X236220Y292100D03*
X309880Y244856D03*
X271780Y160020D03*
X164592Y159004D03*
X417576Y96012D03*
X511556Y163068D03*
X663448Y151892D03*
X647700Y322072D03*
X555752Y323088D03*
M02*
