G04 EAGLE Gerber RS-274X export*
G75*
%MOMM*%
%FSLAX34Y34*%
%LPD*%
%INBoard Outline*%
%IPPOS*%
%AMOC8*
5,1,8,0,0,1.08239X$1,22.5*%
G01*
%ADD10C,0.000000*%
%ADD11C,0.254000*%


D10*
X508Y-13208D02*
X861608Y-13208D01*
X861608Y786792D01*
X508Y786792D01*
X508Y-13208D01*
X292636Y41108D02*
X292642Y41599D01*
X292660Y42089D01*
X292690Y42579D01*
X292732Y43068D01*
X292786Y43556D01*
X292852Y44043D01*
X292930Y44527D01*
X293020Y45010D01*
X293122Y45490D01*
X293235Y45968D01*
X293360Y46442D01*
X293497Y46914D01*
X293645Y47382D01*
X293805Y47846D01*
X293976Y48306D01*
X294158Y48762D01*
X294352Y49213D01*
X294556Y49659D01*
X294772Y50100D01*
X294998Y50536D01*
X295234Y50966D01*
X295481Y51390D01*
X295739Y51808D01*
X296007Y52219D01*
X296284Y52624D01*
X296572Y53022D01*
X296869Y53413D01*
X297176Y53796D01*
X297492Y54171D01*
X297817Y54539D01*
X298151Y54899D01*
X298494Y55250D01*
X298845Y55593D01*
X299205Y55927D01*
X299573Y56252D01*
X299948Y56568D01*
X300331Y56875D01*
X300722Y57172D01*
X301120Y57460D01*
X301525Y57737D01*
X301936Y58005D01*
X302354Y58263D01*
X302778Y58510D01*
X303208Y58746D01*
X303644Y58972D01*
X304085Y59188D01*
X304531Y59392D01*
X304982Y59586D01*
X305438Y59768D01*
X305898Y59939D01*
X306362Y60099D01*
X306830Y60247D01*
X307302Y60384D01*
X307776Y60509D01*
X308254Y60622D01*
X308734Y60724D01*
X309217Y60814D01*
X309701Y60892D01*
X310188Y60958D01*
X310676Y61012D01*
X311165Y61054D01*
X311655Y61084D01*
X312145Y61102D01*
X312636Y61108D01*
X313127Y61102D01*
X313617Y61084D01*
X314107Y61054D01*
X314596Y61012D01*
X315084Y60958D01*
X315571Y60892D01*
X316055Y60814D01*
X316538Y60724D01*
X317018Y60622D01*
X317496Y60509D01*
X317970Y60384D01*
X318442Y60247D01*
X318910Y60099D01*
X319374Y59939D01*
X319834Y59768D01*
X320290Y59586D01*
X320741Y59392D01*
X321187Y59188D01*
X321628Y58972D01*
X322064Y58746D01*
X322494Y58510D01*
X322918Y58263D01*
X323336Y58005D01*
X323747Y57737D01*
X324152Y57460D01*
X324550Y57172D01*
X324941Y56875D01*
X325324Y56568D01*
X325699Y56252D01*
X326067Y55927D01*
X326427Y55593D01*
X326778Y55250D01*
X327121Y54899D01*
X327455Y54539D01*
X327780Y54171D01*
X328096Y53796D01*
X328403Y53413D01*
X328700Y53022D01*
X328988Y52624D01*
X329265Y52219D01*
X329533Y51808D01*
X329791Y51390D01*
X330038Y50966D01*
X330274Y50536D01*
X330500Y50100D01*
X330716Y49659D01*
X330920Y49213D01*
X331114Y48762D01*
X331296Y48306D01*
X331467Y47846D01*
X331627Y47382D01*
X331775Y46914D01*
X331912Y46442D01*
X332037Y45968D01*
X332150Y45490D01*
X332252Y45010D01*
X332342Y44527D01*
X332420Y44043D01*
X332486Y43556D01*
X332540Y43068D01*
X332582Y42579D01*
X332612Y42089D01*
X332630Y41599D01*
X332636Y41108D01*
X332630Y40617D01*
X332612Y40127D01*
X332582Y39637D01*
X332540Y39148D01*
X332486Y38660D01*
X332420Y38173D01*
X332342Y37689D01*
X332252Y37206D01*
X332150Y36726D01*
X332037Y36248D01*
X331912Y35774D01*
X331775Y35302D01*
X331627Y34834D01*
X331467Y34370D01*
X331296Y33910D01*
X331114Y33454D01*
X330920Y33003D01*
X330716Y32557D01*
X330500Y32116D01*
X330274Y31680D01*
X330038Y31250D01*
X329791Y30826D01*
X329533Y30408D01*
X329265Y29997D01*
X328988Y29592D01*
X328700Y29194D01*
X328403Y28803D01*
X328096Y28420D01*
X327780Y28045D01*
X327455Y27677D01*
X327121Y27317D01*
X326778Y26966D01*
X326427Y26623D01*
X326067Y26289D01*
X325699Y25964D01*
X325324Y25648D01*
X324941Y25341D01*
X324550Y25044D01*
X324152Y24756D01*
X323747Y24479D01*
X323336Y24211D01*
X322918Y23953D01*
X322494Y23706D01*
X322064Y23470D01*
X321628Y23244D01*
X321187Y23028D01*
X320741Y22824D01*
X320290Y22630D01*
X319834Y22448D01*
X319374Y22277D01*
X318910Y22117D01*
X318442Y21969D01*
X317970Y21832D01*
X317496Y21707D01*
X317018Y21594D01*
X316538Y21492D01*
X316055Y21402D01*
X315571Y21324D01*
X315084Y21258D01*
X314596Y21204D01*
X314107Y21162D01*
X313617Y21132D01*
X313127Y21114D01*
X312636Y21108D01*
X312145Y21114D01*
X311655Y21132D01*
X311165Y21162D01*
X310676Y21204D01*
X310188Y21258D01*
X309701Y21324D01*
X309217Y21402D01*
X308734Y21492D01*
X308254Y21594D01*
X307776Y21707D01*
X307302Y21832D01*
X306830Y21969D01*
X306362Y22117D01*
X305898Y22277D01*
X305438Y22448D01*
X304982Y22630D01*
X304531Y22824D01*
X304085Y23028D01*
X303644Y23244D01*
X303208Y23470D01*
X302778Y23706D01*
X302354Y23953D01*
X301936Y24211D01*
X301525Y24479D01*
X301120Y24756D01*
X300722Y25044D01*
X300331Y25341D01*
X299948Y25648D01*
X299573Y25964D01*
X299205Y26289D01*
X298845Y26623D01*
X298494Y26966D01*
X298151Y27317D01*
X297817Y27677D01*
X297492Y28045D01*
X297176Y28420D01*
X296869Y28803D01*
X296572Y29194D01*
X296284Y29592D01*
X296007Y29997D01*
X295739Y30408D01*
X295481Y30826D01*
X295234Y31250D01*
X294998Y31680D01*
X294772Y32116D01*
X294556Y32557D01*
X294352Y33003D01*
X294158Y33454D01*
X293976Y33910D01*
X293805Y34370D01*
X293645Y34834D01*
X293497Y35302D01*
X293360Y35774D01*
X293235Y36248D01*
X293122Y36726D01*
X293020Y37206D01*
X292930Y37689D01*
X292852Y38173D01*
X292786Y38660D01*
X292732Y39148D01*
X292690Y39637D01*
X292660Y40127D01*
X292642Y40617D01*
X292636Y41108D01*
X595112Y40600D02*
X595118Y41091D01*
X595136Y41581D01*
X595166Y42071D01*
X595208Y42560D01*
X595262Y43048D01*
X595328Y43535D01*
X595406Y44019D01*
X595496Y44502D01*
X595598Y44982D01*
X595711Y45460D01*
X595836Y45934D01*
X595973Y46406D01*
X596121Y46874D01*
X596281Y47338D01*
X596452Y47798D01*
X596634Y48254D01*
X596828Y48705D01*
X597032Y49151D01*
X597248Y49592D01*
X597474Y50028D01*
X597710Y50458D01*
X597957Y50882D01*
X598215Y51300D01*
X598483Y51711D01*
X598760Y52116D01*
X599048Y52514D01*
X599345Y52905D01*
X599652Y53288D01*
X599968Y53663D01*
X600293Y54031D01*
X600627Y54391D01*
X600970Y54742D01*
X601321Y55085D01*
X601681Y55419D01*
X602049Y55744D01*
X602424Y56060D01*
X602807Y56367D01*
X603198Y56664D01*
X603596Y56952D01*
X604001Y57229D01*
X604412Y57497D01*
X604830Y57755D01*
X605254Y58002D01*
X605684Y58238D01*
X606120Y58464D01*
X606561Y58680D01*
X607007Y58884D01*
X607458Y59078D01*
X607914Y59260D01*
X608374Y59431D01*
X608838Y59591D01*
X609306Y59739D01*
X609778Y59876D01*
X610252Y60001D01*
X610730Y60114D01*
X611210Y60216D01*
X611693Y60306D01*
X612177Y60384D01*
X612664Y60450D01*
X613152Y60504D01*
X613641Y60546D01*
X614131Y60576D01*
X614621Y60594D01*
X615112Y60600D01*
X615603Y60594D01*
X616093Y60576D01*
X616583Y60546D01*
X617072Y60504D01*
X617560Y60450D01*
X618047Y60384D01*
X618531Y60306D01*
X619014Y60216D01*
X619494Y60114D01*
X619972Y60001D01*
X620446Y59876D01*
X620918Y59739D01*
X621386Y59591D01*
X621850Y59431D01*
X622310Y59260D01*
X622766Y59078D01*
X623217Y58884D01*
X623663Y58680D01*
X624104Y58464D01*
X624540Y58238D01*
X624970Y58002D01*
X625394Y57755D01*
X625812Y57497D01*
X626223Y57229D01*
X626628Y56952D01*
X627026Y56664D01*
X627417Y56367D01*
X627800Y56060D01*
X628175Y55744D01*
X628543Y55419D01*
X628903Y55085D01*
X629254Y54742D01*
X629597Y54391D01*
X629931Y54031D01*
X630256Y53663D01*
X630572Y53288D01*
X630879Y52905D01*
X631176Y52514D01*
X631464Y52116D01*
X631741Y51711D01*
X632009Y51300D01*
X632267Y50882D01*
X632514Y50458D01*
X632750Y50028D01*
X632976Y49592D01*
X633192Y49151D01*
X633396Y48705D01*
X633590Y48254D01*
X633772Y47798D01*
X633943Y47338D01*
X634103Y46874D01*
X634251Y46406D01*
X634388Y45934D01*
X634513Y45460D01*
X634626Y44982D01*
X634728Y44502D01*
X634818Y44019D01*
X634896Y43535D01*
X634962Y43048D01*
X635016Y42560D01*
X635058Y42071D01*
X635088Y41581D01*
X635106Y41091D01*
X635112Y40600D01*
X635106Y40109D01*
X635088Y39619D01*
X635058Y39129D01*
X635016Y38640D01*
X634962Y38152D01*
X634896Y37665D01*
X634818Y37181D01*
X634728Y36698D01*
X634626Y36218D01*
X634513Y35740D01*
X634388Y35266D01*
X634251Y34794D01*
X634103Y34326D01*
X633943Y33862D01*
X633772Y33402D01*
X633590Y32946D01*
X633396Y32495D01*
X633192Y32049D01*
X632976Y31608D01*
X632750Y31172D01*
X632514Y30742D01*
X632267Y30318D01*
X632009Y29900D01*
X631741Y29489D01*
X631464Y29084D01*
X631176Y28686D01*
X630879Y28295D01*
X630572Y27912D01*
X630256Y27537D01*
X629931Y27169D01*
X629597Y26809D01*
X629254Y26458D01*
X628903Y26115D01*
X628543Y25781D01*
X628175Y25456D01*
X627800Y25140D01*
X627417Y24833D01*
X627026Y24536D01*
X626628Y24248D01*
X626223Y23971D01*
X625812Y23703D01*
X625394Y23445D01*
X624970Y23198D01*
X624540Y22962D01*
X624104Y22736D01*
X623663Y22520D01*
X623217Y22316D01*
X622766Y22122D01*
X622310Y21940D01*
X621850Y21769D01*
X621386Y21609D01*
X620918Y21461D01*
X620446Y21324D01*
X619972Y21199D01*
X619494Y21086D01*
X619014Y20984D01*
X618531Y20894D01*
X618047Y20816D01*
X617560Y20750D01*
X617072Y20696D01*
X616583Y20654D01*
X616093Y20624D01*
X615603Y20606D01*
X615112Y20600D01*
X614621Y20606D01*
X614131Y20624D01*
X613641Y20654D01*
X613152Y20696D01*
X612664Y20750D01*
X612177Y20816D01*
X611693Y20894D01*
X611210Y20984D01*
X610730Y21086D01*
X610252Y21199D01*
X609778Y21324D01*
X609306Y21461D01*
X608838Y21609D01*
X608374Y21769D01*
X607914Y21940D01*
X607458Y22122D01*
X607007Y22316D01*
X606561Y22520D01*
X606120Y22736D01*
X605684Y22962D01*
X605254Y23198D01*
X604830Y23445D01*
X604412Y23703D01*
X604001Y23971D01*
X603596Y24248D01*
X603198Y24536D01*
X602807Y24833D01*
X602424Y25140D01*
X602049Y25456D01*
X601681Y25781D01*
X601321Y26115D01*
X600970Y26458D01*
X600627Y26809D01*
X600293Y27169D01*
X599968Y27537D01*
X599652Y27912D01*
X599345Y28295D01*
X599048Y28686D01*
X598760Y29084D01*
X598483Y29489D01*
X598215Y29900D01*
X597957Y30318D01*
X597710Y30742D01*
X597474Y31172D01*
X597248Y31608D01*
X597032Y32049D01*
X596828Y32495D01*
X596634Y32946D01*
X596452Y33402D01*
X596281Y33862D01*
X596121Y34326D01*
X595973Y34794D01*
X595836Y35266D01*
X595711Y35740D01*
X595598Y36218D01*
X595496Y36698D01*
X595406Y37181D01*
X595328Y37665D01*
X595262Y38152D01*
X595208Y38640D01*
X595166Y39129D01*
X595136Y39619D01*
X595118Y40109D01*
X595112Y40600D01*
X230086Y661416D02*
X230089Y661672D01*
X230099Y661927D01*
X230114Y662182D01*
X230136Y662437D01*
X230164Y662691D01*
X230199Y662944D01*
X230239Y663196D01*
X230286Y663448D01*
X230339Y663698D01*
X230398Y663946D01*
X230463Y664194D01*
X230534Y664439D01*
X230612Y664683D01*
X230695Y664924D01*
X230784Y665164D01*
X230879Y665401D01*
X230979Y665636D01*
X231086Y665869D01*
X231198Y666098D01*
X231316Y666325D01*
X231439Y666549D01*
X231568Y666770D01*
X231702Y666987D01*
X231841Y667202D01*
X231986Y667412D01*
X232135Y667620D01*
X232290Y667823D01*
X232450Y668023D01*
X232614Y668218D01*
X232784Y668410D01*
X232958Y668597D01*
X233136Y668780D01*
X233319Y668958D01*
X233506Y669132D01*
X233698Y669302D01*
X233893Y669466D01*
X234093Y669626D01*
X234296Y669781D01*
X234504Y669930D01*
X234714Y670075D01*
X234929Y670214D01*
X235146Y670348D01*
X235367Y670477D01*
X235591Y670600D01*
X235818Y670718D01*
X236047Y670830D01*
X236280Y670937D01*
X236515Y671037D01*
X236752Y671132D01*
X236992Y671221D01*
X237233Y671304D01*
X237477Y671382D01*
X237722Y671453D01*
X237970Y671518D01*
X238218Y671577D01*
X238468Y671630D01*
X238720Y671677D01*
X238972Y671717D01*
X239225Y671752D01*
X239479Y671780D01*
X239734Y671802D01*
X239989Y671817D01*
X240244Y671827D01*
X240500Y671830D01*
X240756Y671827D01*
X241011Y671817D01*
X241266Y671802D01*
X241521Y671780D01*
X241775Y671752D01*
X242028Y671717D01*
X242280Y671677D01*
X242532Y671630D01*
X242782Y671577D01*
X243030Y671518D01*
X243278Y671453D01*
X243523Y671382D01*
X243767Y671304D01*
X244008Y671221D01*
X244248Y671132D01*
X244485Y671037D01*
X244720Y670937D01*
X244953Y670830D01*
X245182Y670718D01*
X245409Y670600D01*
X245633Y670477D01*
X245854Y670348D01*
X246071Y670214D01*
X246286Y670075D01*
X246496Y669930D01*
X246704Y669781D01*
X246907Y669626D01*
X247107Y669466D01*
X247302Y669302D01*
X247494Y669132D01*
X247681Y668958D01*
X247864Y668780D01*
X248042Y668597D01*
X248216Y668410D01*
X248386Y668218D01*
X248550Y668023D01*
X248710Y667823D01*
X248865Y667620D01*
X249014Y667412D01*
X249159Y667202D01*
X249298Y666987D01*
X249432Y666770D01*
X249561Y666549D01*
X249684Y666325D01*
X249802Y666098D01*
X249914Y665869D01*
X250021Y665636D01*
X250121Y665401D01*
X250216Y665164D01*
X250305Y664924D01*
X250388Y664683D01*
X250466Y664439D01*
X250537Y664194D01*
X250602Y663946D01*
X250661Y663698D01*
X250714Y663448D01*
X250761Y663196D01*
X250801Y662944D01*
X250836Y662691D01*
X250864Y662437D01*
X250886Y662182D01*
X250901Y661927D01*
X250911Y661672D01*
X250914Y661416D01*
X250911Y661160D01*
X250901Y660905D01*
X250886Y660650D01*
X250864Y660395D01*
X250836Y660141D01*
X250801Y659888D01*
X250761Y659636D01*
X250714Y659384D01*
X250661Y659134D01*
X250602Y658886D01*
X250537Y658638D01*
X250466Y658393D01*
X250388Y658149D01*
X250305Y657908D01*
X250216Y657668D01*
X250121Y657431D01*
X250021Y657196D01*
X249914Y656963D01*
X249802Y656734D01*
X249684Y656507D01*
X249561Y656283D01*
X249432Y656062D01*
X249298Y655845D01*
X249159Y655630D01*
X249014Y655420D01*
X248865Y655212D01*
X248710Y655009D01*
X248550Y654809D01*
X248386Y654614D01*
X248216Y654422D01*
X248042Y654235D01*
X247864Y654052D01*
X247681Y653874D01*
X247494Y653700D01*
X247302Y653530D01*
X247107Y653366D01*
X246907Y653206D01*
X246704Y653051D01*
X246496Y652902D01*
X246286Y652757D01*
X246071Y652618D01*
X245854Y652484D01*
X245633Y652355D01*
X245409Y652232D01*
X245182Y652114D01*
X244953Y652002D01*
X244720Y651895D01*
X244485Y651795D01*
X244248Y651700D01*
X244008Y651611D01*
X243767Y651528D01*
X243523Y651450D01*
X243278Y651379D01*
X243030Y651314D01*
X242782Y651255D01*
X242532Y651202D01*
X242280Y651155D01*
X242028Y651115D01*
X241775Y651080D01*
X241521Y651052D01*
X241266Y651030D01*
X241011Y651015D01*
X240756Y651005D01*
X240500Y651002D01*
X240244Y651005D01*
X239989Y651015D01*
X239734Y651030D01*
X239479Y651052D01*
X239225Y651080D01*
X238972Y651115D01*
X238720Y651155D01*
X238468Y651202D01*
X238218Y651255D01*
X237970Y651314D01*
X237722Y651379D01*
X237477Y651450D01*
X237233Y651528D01*
X236992Y651611D01*
X236752Y651700D01*
X236515Y651795D01*
X236280Y651895D01*
X236047Y652002D01*
X235818Y652114D01*
X235591Y652232D01*
X235367Y652355D01*
X235146Y652484D01*
X234929Y652618D01*
X234714Y652757D01*
X234504Y652902D01*
X234296Y653051D01*
X234093Y653206D01*
X233893Y653366D01*
X233698Y653530D01*
X233506Y653700D01*
X233319Y653874D01*
X233136Y654052D01*
X232958Y654235D01*
X232784Y654422D01*
X232614Y654614D01*
X232450Y654809D01*
X232290Y655009D01*
X232135Y655212D01*
X231986Y655420D01*
X231841Y655630D01*
X231702Y655845D01*
X231568Y656062D01*
X231439Y656283D01*
X231316Y656507D01*
X231198Y656734D01*
X231086Y656963D01*
X230979Y657196D01*
X230879Y657431D01*
X230784Y657668D01*
X230695Y657908D01*
X230612Y658149D01*
X230534Y658393D01*
X230463Y658638D01*
X230398Y658886D01*
X230339Y659134D01*
X230286Y659384D01*
X230239Y659636D01*
X230199Y659888D01*
X230164Y660141D01*
X230136Y660395D01*
X230114Y660650D01*
X230099Y660905D01*
X230089Y661160D01*
X230086Y661416D01*
X809498Y748792D02*
X809503Y749197D01*
X809518Y749602D01*
X809543Y750007D01*
X809578Y750410D01*
X809622Y750813D01*
X809677Y751215D01*
X809741Y751615D01*
X809815Y752013D01*
X809899Y752409D01*
X809993Y752804D01*
X810096Y753195D01*
X810209Y753585D01*
X810331Y753971D01*
X810463Y754354D01*
X810604Y754734D01*
X810755Y755110D01*
X810914Y755483D01*
X811083Y755851D01*
X811261Y756215D01*
X811447Y756575D01*
X811643Y756930D01*
X811847Y757280D01*
X812059Y757625D01*
X812280Y757964D01*
X812510Y758299D01*
X812747Y758627D01*
X812992Y758949D01*
X813246Y759266D01*
X813506Y759576D01*
X813775Y759879D01*
X814051Y760176D01*
X814334Y760466D01*
X814624Y760749D01*
X814921Y761025D01*
X815224Y761294D01*
X815534Y761554D01*
X815851Y761808D01*
X816173Y762053D01*
X816501Y762290D01*
X816836Y762520D01*
X817175Y762741D01*
X817520Y762953D01*
X817870Y763157D01*
X818225Y763353D01*
X818585Y763539D01*
X818949Y763717D01*
X819317Y763886D01*
X819690Y764045D01*
X820066Y764196D01*
X820446Y764337D01*
X820829Y764469D01*
X821215Y764591D01*
X821605Y764704D01*
X821996Y764807D01*
X822391Y764901D01*
X822787Y764985D01*
X823185Y765059D01*
X823585Y765123D01*
X823987Y765178D01*
X824390Y765222D01*
X824793Y765257D01*
X825198Y765282D01*
X825603Y765297D01*
X826008Y765302D01*
X826413Y765297D01*
X826818Y765282D01*
X827223Y765257D01*
X827626Y765222D01*
X828029Y765178D01*
X828431Y765123D01*
X828831Y765059D01*
X829229Y764985D01*
X829625Y764901D01*
X830020Y764807D01*
X830411Y764704D01*
X830801Y764591D01*
X831187Y764469D01*
X831570Y764337D01*
X831950Y764196D01*
X832326Y764045D01*
X832699Y763886D01*
X833067Y763717D01*
X833431Y763539D01*
X833791Y763353D01*
X834146Y763157D01*
X834496Y762953D01*
X834841Y762741D01*
X835180Y762520D01*
X835515Y762290D01*
X835843Y762053D01*
X836165Y761808D01*
X836482Y761554D01*
X836792Y761294D01*
X837095Y761025D01*
X837392Y760749D01*
X837682Y760466D01*
X837965Y760176D01*
X838241Y759879D01*
X838510Y759576D01*
X838770Y759266D01*
X839024Y758949D01*
X839269Y758627D01*
X839506Y758299D01*
X839736Y757964D01*
X839957Y757625D01*
X840169Y757280D01*
X840373Y756930D01*
X840569Y756575D01*
X840755Y756215D01*
X840933Y755851D01*
X841102Y755483D01*
X841261Y755110D01*
X841412Y754734D01*
X841553Y754354D01*
X841685Y753971D01*
X841807Y753585D01*
X841920Y753195D01*
X842023Y752804D01*
X842117Y752409D01*
X842201Y752013D01*
X842275Y751615D01*
X842339Y751215D01*
X842394Y750813D01*
X842438Y750410D01*
X842473Y750007D01*
X842498Y749602D01*
X842513Y749197D01*
X842518Y748792D01*
X842513Y748387D01*
X842498Y747982D01*
X842473Y747577D01*
X842438Y747174D01*
X842394Y746771D01*
X842339Y746369D01*
X842275Y745969D01*
X842201Y745571D01*
X842117Y745175D01*
X842023Y744780D01*
X841920Y744389D01*
X841807Y743999D01*
X841685Y743613D01*
X841553Y743230D01*
X841412Y742850D01*
X841261Y742474D01*
X841102Y742101D01*
X840933Y741733D01*
X840755Y741369D01*
X840569Y741009D01*
X840373Y740654D01*
X840169Y740304D01*
X839957Y739959D01*
X839736Y739620D01*
X839506Y739285D01*
X839269Y738957D01*
X839024Y738635D01*
X838770Y738318D01*
X838510Y738008D01*
X838241Y737705D01*
X837965Y737408D01*
X837682Y737118D01*
X837392Y736835D01*
X837095Y736559D01*
X836792Y736290D01*
X836482Y736030D01*
X836165Y735776D01*
X835843Y735531D01*
X835515Y735294D01*
X835180Y735064D01*
X834841Y734843D01*
X834496Y734631D01*
X834146Y734427D01*
X833791Y734231D01*
X833431Y734045D01*
X833067Y733867D01*
X832699Y733698D01*
X832326Y733539D01*
X831950Y733388D01*
X831570Y733247D01*
X831187Y733115D01*
X830801Y732993D01*
X830411Y732880D01*
X830020Y732777D01*
X829625Y732683D01*
X829229Y732599D01*
X828831Y732525D01*
X828431Y732461D01*
X828029Y732406D01*
X827626Y732362D01*
X827223Y732327D01*
X826818Y732302D01*
X826413Y732287D01*
X826008Y732282D01*
X825603Y732287D01*
X825198Y732302D01*
X824793Y732327D01*
X824390Y732362D01*
X823987Y732406D01*
X823585Y732461D01*
X823185Y732525D01*
X822787Y732599D01*
X822391Y732683D01*
X821996Y732777D01*
X821605Y732880D01*
X821215Y732993D01*
X820829Y733115D01*
X820446Y733247D01*
X820066Y733388D01*
X819690Y733539D01*
X819317Y733698D01*
X818949Y733867D01*
X818585Y734045D01*
X818225Y734231D01*
X817870Y734427D01*
X817520Y734631D01*
X817175Y734843D01*
X816836Y735064D01*
X816501Y735294D01*
X816173Y735531D01*
X815851Y735776D01*
X815534Y736030D01*
X815224Y736290D01*
X814921Y736559D01*
X814624Y736835D01*
X814334Y737118D01*
X814051Y737408D01*
X813775Y737705D01*
X813506Y738008D01*
X813246Y738318D01*
X812992Y738635D01*
X812747Y738957D01*
X812510Y739285D01*
X812280Y739620D01*
X812059Y739959D01*
X811847Y740304D01*
X811643Y740654D01*
X811447Y741009D01*
X811261Y741369D01*
X811083Y741733D01*
X810914Y742101D01*
X810755Y742474D01*
X810604Y742850D01*
X810463Y743230D01*
X810331Y743613D01*
X810209Y743999D01*
X810096Y744389D01*
X809993Y744780D01*
X809899Y745175D01*
X809815Y745571D01*
X809741Y745969D01*
X809677Y746369D01*
X809622Y746771D01*
X809578Y747174D01*
X809543Y747577D01*
X809518Y747982D01*
X809503Y748387D01*
X809498Y748792D01*
X14732Y17018D02*
X14737Y17423D01*
X14752Y17828D01*
X14777Y18233D01*
X14812Y18636D01*
X14856Y19039D01*
X14911Y19441D01*
X14975Y19841D01*
X15049Y20239D01*
X15133Y20635D01*
X15227Y21030D01*
X15330Y21421D01*
X15443Y21811D01*
X15565Y22197D01*
X15697Y22580D01*
X15838Y22960D01*
X15989Y23336D01*
X16148Y23709D01*
X16317Y24077D01*
X16495Y24441D01*
X16681Y24801D01*
X16877Y25156D01*
X17081Y25506D01*
X17293Y25851D01*
X17514Y26190D01*
X17744Y26525D01*
X17981Y26853D01*
X18226Y27175D01*
X18480Y27492D01*
X18740Y27802D01*
X19009Y28105D01*
X19285Y28402D01*
X19568Y28692D01*
X19858Y28975D01*
X20155Y29251D01*
X20458Y29520D01*
X20768Y29780D01*
X21085Y30034D01*
X21407Y30279D01*
X21735Y30516D01*
X22070Y30746D01*
X22409Y30967D01*
X22754Y31179D01*
X23104Y31383D01*
X23459Y31579D01*
X23819Y31765D01*
X24183Y31943D01*
X24551Y32112D01*
X24924Y32271D01*
X25300Y32422D01*
X25680Y32563D01*
X26063Y32695D01*
X26449Y32817D01*
X26839Y32930D01*
X27230Y33033D01*
X27625Y33127D01*
X28021Y33211D01*
X28419Y33285D01*
X28819Y33349D01*
X29221Y33404D01*
X29624Y33448D01*
X30027Y33483D01*
X30432Y33508D01*
X30837Y33523D01*
X31242Y33528D01*
X31647Y33523D01*
X32052Y33508D01*
X32457Y33483D01*
X32860Y33448D01*
X33263Y33404D01*
X33665Y33349D01*
X34065Y33285D01*
X34463Y33211D01*
X34859Y33127D01*
X35254Y33033D01*
X35645Y32930D01*
X36035Y32817D01*
X36421Y32695D01*
X36804Y32563D01*
X37184Y32422D01*
X37560Y32271D01*
X37933Y32112D01*
X38301Y31943D01*
X38665Y31765D01*
X39025Y31579D01*
X39380Y31383D01*
X39730Y31179D01*
X40075Y30967D01*
X40414Y30746D01*
X40749Y30516D01*
X41077Y30279D01*
X41399Y30034D01*
X41716Y29780D01*
X42026Y29520D01*
X42329Y29251D01*
X42626Y28975D01*
X42916Y28692D01*
X43199Y28402D01*
X43475Y28105D01*
X43744Y27802D01*
X44004Y27492D01*
X44258Y27175D01*
X44503Y26853D01*
X44740Y26525D01*
X44970Y26190D01*
X45191Y25851D01*
X45403Y25506D01*
X45607Y25156D01*
X45803Y24801D01*
X45989Y24441D01*
X46167Y24077D01*
X46336Y23709D01*
X46495Y23336D01*
X46646Y22960D01*
X46787Y22580D01*
X46919Y22197D01*
X47041Y21811D01*
X47154Y21421D01*
X47257Y21030D01*
X47351Y20635D01*
X47435Y20239D01*
X47509Y19841D01*
X47573Y19441D01*
X47628Y19039D01*
X47672Y18636D01*
X47707Y18233D01*
X47732Y17828D01*
X47747Y17423D01*
X47752Y17018D01*
X47747Y16613D01*
X47732Y16208D01*
X47707Y15803D01*
X47672Y15400D01*
X47628Y14997D01*
X47573Y14595D01*
X47509Y14195D01*
X47435Y13797D01*
X47351Y13401D01*
X47257Y13006D01*
X47154Y12615D01*
X47041Y12225D01*
X46919Y11839D01*
X46787Y11456D01*
X46646Y11076D01*
X46495Y10700D01*
X46336Y10327D01*
X46167Y9959D01*
X45989Y9595D01*
X45803Y9235D01*
X45607Y8880D01*
X45403Y8530D01*
X45191Y8185D01*
X44970Y7846D01*
X44740Y7511D01*
X44503Y7183D01*
X44258Y6861D01*
X44004Y6544D01*
X43744Y6234D01*
X43475Y5931D01*
X43199Y5634D01*
X42916Y5344D01*
X42626Y5061D01*
X42329Y4785D01*
X42026Y4516D01*
X41716Y4256D01*
X41399Y4002D01*
X41077Y3757D01*
X40749Y3520D01*
X40414Y3290D01*
X40075Y3069D01*
X39730Y2857D01*
X39380Y2653D01*
X39025Y2457D01*
X38665Y2271D01*
X38301Y2093D01*
X37933Y1924D01*
X37560Y1765D01*
X37184Y1614D01*
X36804Y1473D01*
X36421Y1341D01*
X36035Y1219D01*
X35645Y1106D01*
X35254Y1003D01*
X34859Y909D01*
X34463Y825D01*
X34065Y751D01*
X33665Y687D01*
X33263Y632D01*
X32860Y588D01*
X32457Y553D01*
X32052Y528D01*
X31647Y513D01*
X31242Y508D01*
X30837Y513D01*
X30432Y528D01*
X30027Y553D01*
X29624Y588D01*
X29221Y632D01*
X28819Y687D01*
X28419Y751D01*
X28021Y825D01*
X27625Y909D01*
X27230Y1003D01*
X26839Y1106D01*
X26449Y1219D01*
X26063Y1341D01*
X25680Y1473D01*
X25300Y1614D01*
X24924Y1765D01*
X24551Y1924D01*
X24183Y2093D01*
X23819Y2271D01*
X23459Y2457D01*
X23104Y2653D01*
X22754Y2857D01*
X22409Y3069D01*
X22070Y3290D01*
X21735Y3520D01*
X21407Y3757D01*
X21085Y4002D01*
X20768Y4256D01*
X20458Y4516D01*
X20155Y4785D01*
X19858Y5061D01*
X19568Y5344D01*
X19285Y5634D01*
X19009Y5931D01*
X18740Y6234D01*
X18480Y6544D01*
X18226Y6861D01*
X17981Y7183D01*
X17744Y7511D01*
X17514Y7846D01*
X17293Y8185D01*
X17081Y8530D01*
X16877Y8880D01*
X16681Y9235D01*
X16495Y9595D01*
X16317Y9959D01*
X16148Y10327D01*
X15989Y10700D01*
X15838Y11076D01*
X15697Y11456D01*
X15565Y11839D01*
X15443Y12225D01*
X15330Y12615D01*
X15227Y13006D01*
X15133Y13401D01*
X15049Y13797D01*
X14975Y14195D01*
X14911Y14595D01*
X14856Y14997D01*
X14812Y15400D01*
X14777Y15803D01*
X14752Y16208D01*
X14737Y16613D01*
X14732Y17018D01*
X809498Y24892D02*
X809503Y25297D01*
X809518Y25702D01*
X809543Y26107D01*
X809578Y26510D01*
X809622Y26913D01*
X809677Y27315D01*
X809741Y27715D01*
X809815Y28113D01*
X809899Y28509D01*
X809993Y28904D01*
X810096Y29295D01*
X810209Y29685D01*
X810331Y30071D01*
X810463Y30454D01*
X810604Y30834D01*
X810755Y31210D01*
X810914Y31583D01*
X811083Y31951D01*
X811261Y32315D01*
X811447Y32675D01*
X811643Y33030D01*
X811847Y33380D01*
X812059Y33725D01*
X812280Y34064D01*
X812510Y34399D01*
X812747Y34727D01*
X812992Y35049D01*
X813246Y35366D01*
X813506Y35676D01*
X813775Y35979D01*
X814051Y36276D01*
X814334Y36566D01*
X814624Y36849D01*
X814921Y37125D01*
X815224Y37394D01*
X815534Y37654D01*
X815851Y37908D01*
X816173Y38153D01*
X816501Y38390D01*
X816836Y38620D01*
X817175Y38841D01*
X817520Y39053D01*
X817870Y39257D01*
X818225Y39453D01*
X818585Y39639D01*
X818949Y39817D01*
X819317Y39986D01*
X819690Y40145D01*
X820066Y40296D01*
X820446Y40437D01*
X820829Y40569D01*
X821215Y40691D01*
X821605Y40804D01*
X821996Y40907D01*
X822391Y41001D01*
X822787Y41085D01*
X823185Y41159D01*
X823585Y41223D01*
X823987Y41278D01*
X824390Y41322D01*
X824793Y41357D01*
X825198Y41382D01*
X825603Y41397D01*
X826008Y41402D01*
X826413Y41397D01*
X826818Y41382D01*
X827223Y41357D01*
X827626Y41322D01*
X828029Y41278D01*
X828431Y41223D01*
X828831Y41159D01*
X829229Y41085D01*
X829625Y41001D01*
X830020Y40907D01*
X830411Y40804D01*
X830801Y40691D01*
X831187Y40569D01*
X831570Y40437D01*
X831950Y40296D01*
X832326Y40145D01*
X832699Y39986D01*
X833067Y39817D01*
X833431Y39639D01*
X833791Y39453D01*
X834146Y39257D01*
X834496Y39053D01*
X834841Y38841D01*
X835180Y38620D01*
X835515Y38390D01*
X835843Y38153D01*
X836165Y37908D01*
X836482Y37654D01*
X836792Y37394D01*
X837095Y37125D01*
X837392Y36849D01*
X837682Y36566D01*
X837965Y36276D01*
X838241Y35979D01*
X838510Y35676D01*
X838770Y35366D01*
X839024Y35049D01*
X839269Y34727D01*
X839506Y34399D01*
X839736Y34064D01*
X839957Y33725D01*
X840169Y33380D01*
X840373Y33030D01*
X840569Y32675D01*
X840755Y32315D01*
X840933Y31951D01*
X841102Y31583D01*
X841261Y31210D01*
X841412Y30834D01*
X841553Y30454D01*
X841685Y30071D01*
X841807Y29685D01*
X841920Y29295D01*
X842023Y28904D01*
X842117Y28509D01*
X842201Y28113D01*
X842275Y27715D01*
X842339Y27315D01*
X842394Y26913D01*
X842438Y26510D01*
X842473Y26107D01*
X842498Y25702D01*
X842513Y25297D01*
X842518Y24892D01*
X842513Y24487D01*
X842498Y24082D01*
X842473Y23677D01*
X842438Y23274D01*
X842394Y22871D01*
X842339Y22469D01*
X842275Y22069D01*
X842201Y21671D01*
X842117Y21275D01*
X842023Y20880D01*
X841920Y20489D01*
X841807Y20099D01*
X841685Y19713D01*
X841553Y19330D01*
X841412Y18950D01*
X841261Y18574D01*
X841102Y18201D01*
X840933Y17833D01*
X840755Y17469D01*
X840569Y17109D01*
X840373Y16754D01*
X840169Y16404D01*
X839957Y16059D01*
X839736Y15720D01*
X839506Y15385D01*
X839269Y15057D01*
X839024Y14735D01*
X838770Y14418D01*
X838510Y14108D01*
X838241Y13805D01*
X837965Y13508D01*
X837682Y13218D01*
X837392Y12935D01*
X837095Y12659D01*
X836792Y12390D01*
X836482Y12130D01*
X836165Y11876D01*
X835843Y11631D01*
X835515Y11394D01*
X835180Y11164D01*
X834841Y10943D01*
X834496Y10731D01*
X834146Y10527D01*
X833791Y10331D01*
X833431Y10145D01*
X833067Y9967D01*
X832699Y9798D01*
X832326Y9639D01*
X831950Y9488D01*
X831570Y9347D01*
X831187Y9215D01*
X830801Y9093D01*
X830411Y8980D01*
X830020Y8877D01*
X829625Y8783D01*
X829229Y8699D01*
X828831Y8625D01*
X828431Y8561D01*
X828029Y8506D01*
X827626Y8462D01*
X827223Y8427D01*
X826818Y8402D01*
X826413Y8387D01*
X826008Y8382D01*
X825603Y8387D01*
X825198Y8402D01*
X824793Y8427D01*
X824390Y8462D01*
X823987Y8506D01*
X823585Y8561D01*
X823185Y8625D01*
X822787Y8699D01*
X822391Y8783D01*
X821996Y8877D01*
X821605Y8980D01*
X821215Y9093D01*
X820829Y9215D01*
X820446Y9347D01*
X820066Y9488D01*
X819690Y9639D01*
X819317Y9798D01*
X818949Y9967D01*
X818585Y10145D01*
X818225Y10331D01*
X817870Y10527D01*
X817520Y10731D01*
X817175Y10943D01*
X816836Y11164D01*
X816501Y11394D01*
X816173Y11631D01*
X815851Y11876D01*
X815534Y12130D01*
X815224Y12390D01*
X814921Y12659D01*
X814624Y12935D01*
X814334Y13218D01*
X814051Y13508D01*
X813775Y13805D01*
X813506Y14108D01*
X813246Y14418D01*
X812992Y14735D01*
X812747Y15057D01*
X812510Y15385D01*
X812280Y15720D01*
X812059Y16059D01*
X811847Y16404D01*
X811643Y16754D01*
X811447Y17109D01*
X811261Y17469D01*
X811083Y17833D01*
X810914Y18201D01*
X810755Y18574D01*
X810604Y18950D01*
X810463Y19330D01*
X810331Y19713D01*
X810209Y20099D01*
X810096Y20489D01*
X809993Y20880D01*
X809899Y21275D01*
X809815Y21671D01*
X809741Y22069D01*
X809677Y22469D01*
X809622Y22871D01*
X809578Y23274D01*
X809543Y23677D01*
X809518Y24082D01*
X809503Y24487D01*
X809498Y24892D01*
X22098Y748792D02*
X22103Y749197D01*
X22118Y749602D01*
X22143Y750007D01*
X22178Y750410D01*
X22222Y750813D01*
X22277Y751215D01*
X22341Y751615D01*
X22415Y752013D01*
X22499Y752409D01*
X22593Y752804D01*
X22696Y753195D01*
X22809Y753585D01*
X22931Y753971D01*
X23063Y754354D01*
X23204Y754734D01*
X23355Y755110D01*
X23514Y755483D01*
X23683Y755851D01*
X23861Y756215D01*
X24047Y756575D01*
X24243Y756930D01*
X24447Y757280D01*
X24659Y757625D01*
X24880Y757964D01*
X25110Y758299D01*
X25347Y758627D01*
X25592Y758949D01*
X25846Y759266D01*
X26106Y759576D01*
X26375Y759879D01*
X26651Y760176D01*
X26934Y760466D01*
X27224Y760749D01*
X27521Y761025D01*
X27824Y761294D01*
X28134Y761554D01*
X28451Y761808D01*
X28773Y762053D01*
X29101Y762290D01*
X29436Y762520D01*
X29775Y762741D01*
X30120Y762953D01*
X30470Y763157D01*
X30825Y763353D01*
X31185Y763539D01*
X31549Y763717D01*
X31917Y763886D01*
X32290Y764045D01*
X32666Y764196D01*
X33046Y764337D01*
X33429Y764469D01*
X33815Y764591D01*
X34205Y764704D01*
X34596Y764807D01*
X34991Y764901D01*
X35387Y764985D01*
X35785Y765059D01*
X36185Y765123D01*
X36587Y765178D01*
X36990Y765222D01*
X37393Y765257D01*
X37798Y765282D01*
X38203Y765297D01*
X38608Y765302D01*
X39013Y765297D01*
X39418Y765282D01*
X39823Y765257D01*
X40226Y765222D01*
X40629Y765178D01*
X41031Y765123D01*
X41431Y765059D01*
X41829Y764985D01*
X42225Y764901D01*
X42620Y764807D01*
X43011Y764704D01*
X43401Y764591D01*
X43787Y764469D01*
X44170Y764337D01*
X44550Y764196D01*
X44926Y764045D01*
X45299Y763886D01*
X45667Y763717D01*
X46031Y763539D01*
X46391Y763353D01*
X46746Y763157D01*
X47096Y762953D01*
X47441Y762741D01*
X47780Y762520D01*
X48115Y762290D01*
X48443Y762053D01*
X48765Y761808D01*
X49082Y761554D01*
X49392Y761294D01*
X49695Y761025D01*
X49992Y760749D01*
X50282Y760466D01*
X50565Y760176D01*
X50841Y759879D01*
X51110Y759576D01*
X51370Y759266D01*
X51624Y758949D01*
X51869Y758627D01*
X52106Y758299D01*
X52336Y757964D01*
X52557Y757625D01*
X52769Y757280D01*
X52973Y756930D01*
X53169Y756575D01*
X53355Y756215D01*
X53533Y755851D01*
X53702Y755483D01*
X53861Y755110D01*
X54012Y754734D01*
X54153Y754354D01*
X54285Y753971D01*
X54407Y753585D01*
X54520Y753195D01*
X54623Y752804D01*
X54717Y752409D01*
X54801Y752013D01*
X54875Y751615D01*
X54939Y751215D01*
X54994Y750813D01*
X55038Y750410D01*
X55073Y750007D01*
X55098Y749602D01*
X55113Y749197D01*
X55118Y748792D01*
X55113Y748387D01*
X55098Y747982D01*
X55073Y747577D01*
X55038Y747174D01*
X54994Y746771D01*
X54939Y746369D01*
X54875Y745969D01*
X54801Y745571D01*
X54717Y745175D01*
X54623Y744780D01*
X54520Y744389D01*
X54407Y743999D01*
X54285Y743613D01*
X54153Y743230D01*
X54012Y742850D01*
X53861Y742474D01*
X53702Y742101D01*
X53533Y741733D01*
X53355Y741369D01*
X53169Y741009D01*
X52973Y740654D01*
X52769Y740304D01*
X52557Y739959D01*
X52336Y739620D01*
X52106Y739285D01*
X51869Y738957D01*
X51624Y738635D01*
X51370Y738318D01*
X51110Y738008D01*
X50841Y737705D01*
X50565Y737408D01*
X50282Y737118D01*
X49992Y736835D01*
X49695Y736559D01*
X49392Y736290D01*
X49082Y736030D01*
X48765Y735776D01*
X48443Y735531D01*
X48115Y735294D01*
X47780Y735064D01*
X47441Y734843D01*
X47096Y734631D01*
X46746Y734427D01*
X46391Y734231D01*
X46031Y734045D01*
X45667Y733867D01*
X45299Y733698D01*
X44926Y733539D01*
X44550Y733388D01*
X44170Y733247D01*
X43787Y733115D01*
X43401Y732993D01*
X43011Y732880D01*
X42620Y732777D01*
X42225Y732683D01*
X41829Y732599D01*
X41431Y732525D01*
X41031Y732461D01*
X40629Y732406D01*
X40226Y732362D01*
X39823Y732327D01*
X39418Y732302D01*
X39013Y732287D01*
X38608Y732282D01*
X38203Y732287D01*
X37798Y732302D01*
X37393Y732327D01*
X36990Y732362D01*
X36587Y732406D01*
X36185Y732461D01*
X35785Y732525D01*
X35387Y732599D01*
X34991Y732683D01*
X34596Y732777D01*
X34205Y732880D01*
X33815Y732993D01*
X33429Y733115D01*
X33046Y733247D01*
X32666Y733388D01*
X32290Y733539D01*
X31917Y733698D01*
X31549Y733867D01*
X31185Y734045D01*
X30825Y734231D01*
X30470Y734427D01*
X30120Y734631D01*
X29775Y734843D01*
X29436Y735064D01*
X29101Y735294D01*
X28773Y735531D01*
X28451Y735776D01*
X28134Y736030D01*
X27824Y736290D01*
X27521Y736559D01*
X27224Y736835D01*
X26934Y737118D01*
X26651Y737408D01*
X26375Y737705D01*
X26106Y738008D01*
X25846Y738318D01*
X25592Y738635D01*
X25347Y738957D01*
X25110Y739285D01*
X24880Y739620D01*
X24659Y739959D01*
X24447Y740304D01*
X24243Y740654D01*
X24047Y741009D01*
X23861Y741369D01*
X23683Y741733D01*
X23514Y742101D01*
X23355Y742474D01*
X23204Y742850D01*
X23063Y743230D01*
X22931Y743613D01*
X22809Y743999D01*
X22696Y744389D01*
X22593Y744780D01*
X22499Y745175D01*
X22415Y745571D01*
X22341Y745969D01*
X22277Y746369D01*
X22222Y746771D01*
X22178Y747174D01*
X22143Y747577D01*
X22118Y747982D01*
X22103Y748387D01*
X22098Y748792D01*
X33808Y634492D02*
X33814Y634983D01*
X33832Y635473D01*
X33862Y635963D01*
X33904Y636452D01*
X33958Y636940D01*
X34024Y637427D01*
X34102Y637911D01*
X34192Y638394D01*
X34294Y638874D01*
X34407Y639352D01*
X34532Y639826D01*
X34669Y640298D01*
X34817Y640766D01*
X34977Y641230D01*
X35148Y641690D01*
X35330Y642146D01*
X35524Y642597D01*
X35728Y643043D01*
X35944Y643484D01*
X36170Y643920D01*
X36406Y644350D01*
X36653Y644774D01*
X36911Y645192D01*
X37179Y645603D01*
X37456Y646008D01*
X37744Y646406D01*
X38041Y646797D01*
X38348Y647180D01*
X38664Y647555D01*
X38989Y647923D01*
X39323Y648283D01*
X39666Y648634D01*
X40017Y648977D01*
X40377Y649311D01*
X40745Y649636D01*
X41120Y649952D01*
X41503Y650259D01*
X41894Y650556D01*
X42292Y650844D01*
X42697Y651121D01*
X43108Y651389D01*
X43526Y651647D01*
X43950Y651894D01*
X44380Y652130D01*
X44816Y652356D01*
X45257Y652572D01*
X45703Y652776D01*
X46154Y652970D01*
X46610Y653152D01*
X47070Y653323D01*
X47534Y653483D01*
X48002Y653631D01*
X48474Y653768D01*
X48948Y653893D01*
X49426Y654006D01*
X49906Y654108D01*
X50389Y654198D01*
X50873Y654276D01*
X51360Y654342D01*
X51848Y654396D01*
X52337Y654438D01*
X52827Y654468D01*
X53317Y654486D01*
X53808Y654492D01*
X54299Y654486D01*
X54789Y654468D01*
X55279Y654438D01*
X55768Y654396D01*
X56256Y654342D01*
X56743Y654276D01*
X57227Y654198D01*
X57710Y654108D01*
X58190Y654006D01*
X58668Y653893D01*
X59142Y653768D01*
X59614Y653631D01*
X60082Y653483D01*
X60546Y653323D01*
X61006Y653152D01*
X61462Y652970D01*
X61913Y652776D01*
X62359Y652572D01*
X62800Y652356D01*
X63236Y652130D01*
X63666Y651894D01*
X64090Y651647D01*
X64508Y651389D01*
X64919Y651121D01*
X65324Y650844D01*
X65722Y650556D01*
X66113Y650259D01*
X66496Y649952D01*
X66871Y649636D01*
X67239Y649311D01*
X67599Y648977D01*
X67950Y648634D01*
X68293Y648283D01*
X68627Y647923D01*
X68952Y647555D01*
X69268Y647180D01*
X69575Y646797D01*
X69872Y646406D01*
X70160Y646008D01*
X70437Y645603D01*
X70705Y645192D01*
X70963Y644774D01*
X71210Y644350D01*
X71446Y643920D01*
X71672Y643484D01*
X71888Y643043D01*
X72092Y642597D01*
X72286Y642146D01*
X72468Y641690D01*
X72639Y641230D01*
X72799Y640766D01*
X72947Y640298D01*
X73084Y639826D01*
X73209Y639352D01*
X73322Y638874D01*
X73424Y638394D01*
X73514Y637911D01*
X73592Y637427D01*
X73658Y636940D01*
X73712Y636452D01*
X73754Y635963D01*
X73784Y635473D01*
X73802Y634983D01*
X73808Y634492D01*
X73802Y634001D01*
X73784Y633511D01*
X73754Y633021D01*
X73712Y632532D01*
X73658Y632044D01*
X73592Y631557D01*
X73514Y631073D01*
X73424Y630590D01*
X73322Y630110D01*
X73209Y629632D01*
X73084Y629158D01*
X72947Y628686D01*
X72799Y628218D01*
X72639Y627754D01*
X72468Y627294D01*
X72286Y626838D01*
X72092Y626387D01*
X71888Y625941D01*
X71672Y625500D01*
X71446Y625064D01*
X71210Y624634D01*
X70963Y624210D01*
X70705Y623792D01*
X70437Y623381D01*
X70160Y622976D01*
X69872Y622578D01*
X69575Y622187D01*
X69268Y621804D01*
X68952Y621429D01*
X68627Y621061D01*
X68293Y620701D01*
X67950Y620350D01*
X67599Y620007D01*
X67239Y619673D01*
X66871Y619348D01*
X66496Y619032D01*
X66113Y618725D01*
X65722Y618428D01*
X65324Y618140D01*
X64919Y617863D01*
X64508Y617595D01*
X64090Y617337D01*
X63666Y617090D01*
X63236Y616854D01*
X62800Y616628D01*
X62359Y616412D01*
X61913Y616208D01*
X61462Y616014D01*
X61006Y615832D01*
X60546Y615661D01*
X60082Y615501D01*
X59614Y615353D01*
X59142Y615216D01*
X58668Y615091D01*
X58190Y614978D01*
X57710Y614876D01*
X57227Y614786D01*
X56743Y614708D01*
X56256Y614642D01*
X55768Y614588D01*
X55279Y614546D01*
X54789Y614516D01*
X54299Y614498D01*
X53808Y614492D01*
X53317Y614498D01*
X52827Y614516D01*
X52337Y614546D01*
X51848Y614588D01*
X51360Y614642D01*
X50873Y614708D01*
X50389Y614786D01*
X49906Y614876D01*
X49426Y614978D01*
X48948Y615091D01*
X48474Y615216D01*
X48002Y615353D01*
X47534Y615501D01*
X47070Y615661D01*
X46610Y615832D01*
X46154Y616014D01*
X45703Y616208D01*
X45257Y616412D01*
X44816Y616628D01*
X44380Y616854D01*
X43950Y617090D01*
X43526Y617337D01*
X43108Y617595D01*
X42697Y617863D01*
X42292Y618140D01*
X41894Y618428D01*
X41503Y618725D01*
X41120Y619032D01*
X40745Y619348D01*
X40377Y619673D01*
X40017Y620007D01*
X39666Y620350D01*
X39323Y620701D01*
X38989Y621061D01*
X38664Y621429D01*
X38348Y621804D01*
X38041Y622187D01*
X37744Y622578D01*
X37456Y622976D01*
X37179Y623381D01*
X36911Y623792D01*
X36653Y624210D01*
X36406Y624634D01*
X36170Y625064D01*
X35944Y625500D01*
X35728Y625941D01*
X35524Y626387D01*
X35330Y626838D01*
X35148Y627294D01*
X34977Y627754D01*
X34817Y628218D01*
X34669Y628686D01*
X34532Y629158D01*
X34407Y629632D01*
X34294Y630110D01*
X34192Y630590D01*
X34102Y631073D01*
X34024Y631557D01*
X33958Y632044D01*
X33904Y632532D01*
X33862Y633021D01*
X33832Y633511D01*
X33814Y634001D01*
X33808Y634492D01*
X765302Y225044D02*
X765307Y225449D01*
X765322Y225854D01*
X765347Y226259D01*
X765382Y226662D01*
X765426Y227065D01*
X765481Y227467D01*
X765545Y227867D01*
X765619Y228265D01*
X765703Y228661D01*
X765797Y229056D01*
X765900Y229447D01*
X766013Y229837D01*
X766135Y230223D01*
X766267Y230606D01*
X766408Y230986D01*
X766559Y231362D01*
X766718Y231735D01*
X766887Y232103D01*
X767065Y232467D01*
X767251Y232827D01*
X767447Y233182D01*
X767651Y233532D01*
X767863Y233877D01*
X768084Y234216D01*
X768314Y234551D01*
X768551Y234879D01*
X768796Y235201D01*
X769050Y235518D01*
X769310Y235828D01*
X769579Y236131D01*
X769855Y236428D01*
X770138Y236718D01*
X770428Y237001D01*
X770725Y237277D01*
X771028Y237546D01*
X771338Y237806D01*
X771655Y238060D01*
X771977Y238305D01*
X772305Y238542D01*
X772640Y238772D01*
X772979Y238993D01*
X773324Y239205D01*
X773674Y239409D01*
X774029Y239605D01*
X774389Y239791D01*
X774753Y239969D01*
X775121Y240138D01*
X775494Y240297D01*
X775870Y240448D01*
X776250Y240589D01*
X776633Y240721D01*
X777019Y240843D01*
X777409Y240956D01*
X777800Y241059D01*
X778195Y241153D01*
X778591Y241237D01*
X778989Y241311D01*
X779389Y241375D01*
X779791Y241430D01*
X780194Y241474D01*
X780597Y241509D01*
X781002Y241534D01*
X781407Y241549D01*
X781812Y241554D01*
X782217Y241549D01*
X782622Y241534D01*
X783027Y241509D01*
X783430Y241474D01*
X783833Y241430D01*
X784235Y241375D01*
X784635Y241311D01*
X785033Y241237D01*
X785429Y241153D01*
X785824Y241059D01*
X786215Y240956D01*
X786605Y240843D01*
X786991Y240721D01*
X787374Y240589D01*
X787754Y240448D01*
X788130Y240297D01*
X788503Y240138D01*
X788871Y239969D01*
X789235Y239791D01*
X789595Y239605D01*
X789950Y239409D01*
X790300Y239205D01*
X790645Y238993D01*
X790984Y238772D01*
X791319Y238542D01*
X791647Y238305D01*
X791969Y238060D01*
X792286Y237806D01*
X792596Y237546D01*
X792899Y237277D01*
X793196Y237001D01*
X793486Y236718D01*
X793769Y236428D01*
X794045Y236131D01*
X794314Y235828D01*
X794574Y235518D01*
X794828Y235201D01*
X795073Y234879D01*
X795310Y234551D01*
X795540Y234216D01*
X795761Y233877D01*
X795973Y233532D01*
X796177Y233182D01*
X796373Y232827D01*
X796559Y232467D01*
X796737Y232103D01*
X796906Y231735D01*
X797065Y231362D01*
X797216Y230986D01*
X797357Y230606D01*
X797489Y230223D01*
X797611Y229837D01*
X797724Y229447D01*
X797827Y229056D01*
X797921Y228661D01*
X798005Y228265D01*
X798079Y227867D01*
X798143Y227467D01*
X798198Y227065D01*
X798242Y226662D01*
X798277Y226259D01*
X798302Y225854D01*
X798317Y225449D01*
X798322Y225044D01*
X798317Y224639D01*
X798302Y224234D01*
X798277Y223829D01*
X798242Y223426D01*
X798198Y223023D01*
X798143Y222621D01*
X798079Y222221D01*
X798005Y221823D01*
X797921Y221427D01*
X797827Y221032D01*
X797724Y220641D01*
X797611Y220251D01*
X797489Y219865D01*
X797357Y219482D01*
X797216Y219102D01*
X797065Y218726D01*
X796906Y218353D01*
X796737Y217985D01*
X796559Y217621D01*
X796373Y217261D01*
X796177Y216906D01*
X795973Y216556D01*
X795761Y216211D01*
X795540Y215872D01*
X795310Y215537D01*
X795073Y215209D01*
X794828Y214887D01*
X794574Y214570D01*
X794314Y214260D01*
X794045Y213957D01*
X793769Y213660D01*
X793486Y213370D01*
X793196Y213087D01*
X792899Y212811D01*
X792596Y212542D01*
X792286Y212282D01*
X791969Y212028D01*
X791647Y211783D01*
X791319Y211546D01*
X790984Y211316D01*
X790645Y211095D01*
X790300Y210883D01*
X789950Y210679D01*
X789595Y210483D01*
X789235Y210297D01*
X788871Y210119D01*
X788503Y209950D01*
X788130Y209791D01*
X787754Y209640D01*
X787374Y209499D01*
X786991Y209367D01*
X786605Y209245D01*
X786215Y209132D01*
X785824Y209029D01*
X785429Y208935D01*
X785033Y208851D01*
X784635Y208777D01*
X784235Y208713D01*
X783833Y208658D01*
X783430Y208614D01*
X783027Y208579D01*
X782622Y208554D01*
X782217Y208539D01*
X781812Y208534D01*
X781407Y208539D01*
X781002Y208554D01*
X780597Y208579D01*
X780194Y208614D01*
X779791Y208658D01*
X779389Y208713D01*
X778989Y208777D01*
X778591Y208851D01*
X778195Y208935D01*
X777800Y209029D01*
X777409Y209132D01*
X777019Y209245D01*
X776633Y209367D01*
X776250Y209499D01*
X775870Y209640D01*
X775494Y209791D01*
X775121Y209950D01*
X774753Y210119D01*
X774389Y210297D01*
X774029Y210483D01*
X773674Y210679D01*
X773324Y210883D01*
X772979Y211095D01*
X772640Y211316D01*
X772305Y211546D01*
X771977Y211783D01*
X771655Y212028D01*
X771338Y212282D01*
X771028Y212542D01*
X770725Y212811D01*
X770428Y213087D01*
X770138Y213370D01*
X769855Y213660D01*
X769579Y213957D01*
X769310Y214260D01*
X769050Y214570D01*
X768796Y214887D01*
X768551Y215209D01*
X768314Y215537D01*
X768084Y215872D01*
X767863Y216211D01*
X767651Y216556D01*
X767447Y216906D01*
X767251Y217261D01*
X767065Y217621D01*
X766887Y217985D01*
X766718Y218353D01*
X766559Y218726D01*
X766408Y219102D01*
X766267Y219482D01*
X766135Y219865D01*
X766013Y220251D01*
X765900Y220641D01*
X765797Y221032D01*
X765703Y221427D01*
X765619Y221823D01*
X765545Y222221D01*
X765481Y222621D01*
X765426Y223023D01*
X765382Y223426D01*
X765347Y223829D01*
X765322Y224234D01*
X765307Y224639D01*
X765302Y225044D01*
D11*
X508Y-13208D02*
X861608Y-13208D01*
X861608Y786792D01*
X508Y786792D01*
X508Y-13208D01*
X332636Y40504D02*
X332563Y39297D01*
X332417Y38097D01*
X332199Y36908D01*
X331910Y35735D01*
X331551Y34581D01*
X331122Y33451D01*
X330626Y32349D01*
X330064Y31278D01*
X329439Y30244D01*
X328752Y29249D01*
X328007Y28298D01*
X327205Y27393D01*
X326351Y26539D01*
X325446Y25737D01*
X324495Y24992D01*
X323500Y24305D01*
X322466Y23680D01*
X321395Y23118D01*
X320293Y22622D01*
X319163Y22193D01*
X318009Y21834D01*
X316836Y21545D01*
X315647Y21327D01*
X314447Y21181D01*
X313240Y21108D01*
X312032Y21108D01*
X310825Y21181D01*
X309625Y21327D01*
X308436Y21545D01*
X307263Y21834D01*
X306109Y22193D01*
X304979Y22622D01*
X303877Y23118D01*
X302806Y23680D01*
X301772Y24305D01*
X300777Y24992D01*
X299826Y25737D01*
X298921Y26539D01*
X298067Y27393D01*
X297265Y28298D01*
X296520Y29249D01*
X295833Y30244D01*
X295208Y31278D01*
X294646Y32349D01*
X294150Y33451D01*
X293721Y34581D01*
X293362Y35735D01*
X293073Y36908D01*
X292855Y38097D01*
X292709Y39297D01*
X292636Y40504D01*
X292636Y41712D01*
X292709Y42919D01*
X292855Y44119D01*
X293073Y45308D01*
X293362Y46481D01*
X293721Y47635D01*
X294150Y48765D01*
X294646Y49867D01*
X295208Y50938D01*
X295833Y51972D01*
X296520Y52967D01*
X297265Y53918D01*
X298067Y54823D01*
X298921Y55677D01*
X299826Y56479D01*
X300777Y57224D01*
X301772Y57911D01*
X302806Y58536D01*
X303877Y59098D01*
X304979Y59594D01*
X306109Y60023D01*
X307263Y60382D01*
X308436Y60671D01*
X309625Y60889D01*
X310825Y61035D01*
X312032Y61108D01*
X313240Y61108D01*
X314447Y61035D01*
X315647Y60889D01*
X316836Y60671D01*
X318009Y60382D01*
X319163Y60023D01*
X320293Y59594D01*
X321395Y59098D01*
X322466Y58536D01*
X323500Y57911D01*
X324495Y57224D01*
X325446Y56479D01*
X326351Y55677D01*
X327205Y54823D01*
X328007Y53918D01*
X328752Y52967D01*
X329439Y51972D01*
X330064Y50938D01*
X330626Y49867D01*
X331122Y48765D01*
X331551Y47635D01*
X331910Y46481D01*
X332199Y45308D01*
X332417Y44119D01*
X332563Y42919D01*
X332636Y41712D01*
X332636Y40504D01*
X635112Y39996D02*
X635039Y38789D01*
X634893Y37589D01*
X634675Y36400D01*
X634386Y35227D01*
X634027Y34073D01*
X633598Y32943D01*
X633102Y31841D01*
X632540Y30770D01*
X631915Y29736D01*
X631228Y28741D01*
X630483Y27790D01*
X629681Y26885D01*
X628827Y26031D01*
X627922Y25229D01*
X626971Y24484D01*
X625976Y23797D01*
X624942Y23172D01*
X623871Y22610D01*
X622769Y22114D01*
X621639Y21685D01*
X620485Y21326D01*
X619312Y21037D01*
X618123Y20819D01*
X616923Y20673D01*
X615716Y20600D01*
X614508Y20600D01*
X613301Y20673D01*
X612101Y20819D01*
X610912Y21037D01*
X609739Y21326D01*
X608585Y21685D01*
X607455Y22114D01*
X606353Y22610D01*
X605282Y23172D01*
X604248Y23797D01*
X603253Y24484D01*
X602302Y25229D01*
X601397Y26031D01*
X600543Y26885D01*
X599741Y27790D01*
X598996Y28741D01*
X598309Y29736D01*
X597684Y30770D01*
X597122Y31841D01*
X596626Y32943D01*
X596197Y34073D01*
X595838Y35227D01*
X595549Y36400D01*
X595331Y37589D01*
X595185Y38789D01*
X595112Y39996D01*
X595112Y41204D01*
X595185Y42411D01*
X595331Y43611D01*
X595549Y44800D01*
X595838Y45973D01*
X596197Y47127D01*
X596626Y48257D01*
X597122Y49359D01*
X597684Y50430D01*
X598309Y51464D01*
X598996Y52459D01*
X599741Y53410D01*
X600543Y54315D01*
X601397Y55169D01*
X602302Y55971D01*
X603253Y56716D01*
X604248Y57403D01*
X605282Y58028D01*
X606353Y58590D01*
X607455Y59086D01*
X608585Y59515D01*
X609739Y59874D01*
X610912Y60163D01*
X612101Y60381D01*
X613301Y60527D01*
X614508Y60600D01*
X615716Y60600D01*
X616923Y60527D01*
X618123Y60381D01*
X619312Y60163D01*
X620485Y59874D01*
X621639Y59515D01*
X622769Y59086D01*
X623871Y58590D01*
X624942Y58028D01*
X625976Y57403D01*
X626971Y56716D01*
X627922Y55971D01*
X628827Y55169D01*
X629681Y54315D01*
X630483Y53410D01*
X631228Y52459D01*
X631915Y51464D01*
X632540Y50430D01*
X633102Y49359D01*
X633598Y48257D01*
X634027Y47127D01*
X634386Y45973D01*
X634675Y44800D01*
X634893Y43611D01*
X635039Y42411D01*
X635112Y41204D01*
X635112Y39996D01*
X240045Y651002D02*
X239139Y651081D01*
X238244Y651239D01*
X237365Y651475D01*
X236511Y651786D01*
X235687Y652170D01*
X234899Y652625D01*
X234154Y653146D01*
X233458Y653731D01*
X232815Y654374D01*
X232230Y655070D01*
X231709Y655815D01*
X231254Y656603D01*
X230870Y657427D01*
X230559Y658281D01*
X230323Y659160D01*
X230165Y660055D01*
X230086Y660961D01*
X230086Y661871D01*
X230165Y662777D01*
X230323Y663672D01*
X230559Y664551D01*
X230870Y665405D01*
X231254Y666229D01*
X231709Y667017D01*
X232230Y667762D01*
X232815Y668458D01*
X233458Y669101D01*
X234154Y669686D01*
X234899Y670207D01*
X235687Y670662D01*
X236511Y671046D01*
X237365Y671357D01*
X238244Y671593D01*
X239139Y671751D01*
X240045Y671830D01*
X240955Y671830D01*
X241861Y671751D01*
X242756Y671593D01*
X243635Y671357D01*
X244489Y671046D01*
X245313Y670662D01*
X246101Y670207D01*
X246846Y669686D01*
X247542Y669101D01*
X248185Y668458D01*
X248770Y667762D01*
X249291Y667017D01*
X249746Y666229D01*
X250130Y665405D01*
X250441Y664551D01*
X250677Y663672D01*
X250835Y662777D01*
X250914Y661871D01*
X250914Y660961D01*
X250835Y660055D01*
X250677Y659160D01*
X250441Y658281D01*
X250130Y657427D01*
X249746Y656603D01*
X249291Y655815D01*
X248770Y655070D01*
X248185Y654374D01*
X247542Y653731D01*
X246846Y653146D01*
X246101Y652625D01*
X245313Y652170D01*
X244489Y651786D01*
X243635Y651475D01*
X242756Y651239D01*
X241861Y651081D01*
X240955Y651002D01*
X240045Y651002D01*
X842518Y748252D02*
X842447Y747173D01*
X842306Y746101D01*
X842095Y745041D01*
X841816Y743997D01*
X841468Y742973D01*
X841054Y741975D01*
X840576Y741005D01*
X840036Y740069D01*
X839435Y739170D01*
X838777Y738313D01*
X838065Y737500D01*
X837300Y736736D01*
X836487Y736023D01*
X835630Y735365D01*
X834731Y734764D01*
X833795Y734224D01*
X832825Y733746D01*
X831827Y733332D01*
X830803Y732984D01*
X829759Y732705D01*
X828699Y732494D01*
X827627Y732353D01*
X826548Y732282D01*
X825468Y732282D01*
X824389Y732353D01*
X823317Y732494D01*
X822257Y732705D01*
X821213Y732984D01*
X820189Y733332D01*
X819191Y733746D01*
X818221Y734224D01*
X817285Y734764D01*
X816386Y735365D01*
X815529Y736023D01*
X814716Y736736D01*
X813952Y737500D01*
X813239Y738313D01*
X812581Y739170D01*
X811980Y740069D01*
X811440Y741005D01*
X810962Y741975D01*
X810548Y742973D01*
X810200Y743997D01*
X809921Y745041D01*
X809710Y746101D01*
X809569Y747173D01*
X809498Y748252D01*
X809498Y749332D01*
X809569Y750411D01*
X809710Y751483D01*
X809921Y752543D01*
X810200Y753587D01*
X810548Y754611D01*
X810962Y755609D01*
X811440Y756579D01*
X811980Y757515D01*
X812581Y758414D01*
X813239Y759271D01*
X813952Y760084D01*
X814716Y760849D01*
X815529Y761561D01*
X816386Y762219D01*
X817285Y762820D01*
X818221Y763360D01*
X819191Y763838D01*
X820189Y764252D01*
X821213Y764600D01*
X822257Y764879D01*
X823317Y765090D01*
X824389Y765231D01*
X825468Y765302D01*
X826548Y765302D01*
X827627Y765231D01*
X828699Y765090D01*
X829759Y764879D01*
X830803Y764600D01*
X831827Y764252D01*
X832825Y763838D01*
X833795Y763360D01*
X834731Y762820D01*
X835630Y762219D01*
X836487Y761561D01*
X837300Y760849D01*
X838065Y760084D01*
X838777Y759271D01*
X839435Y758414D01*
X840036Y757515D01*
X840576Y756579D01*
X841054Y755609D01*
X841468Y754611D01*
X841816Y753587D01*
X842095Y752543D01*
X842306Y751483D01*
X842447Y750411D01*
X842518Y749332D01*
X842518Y748252D01*
X47752Y16478D02*
X47681Y15399D01*
X47540Y14327D01*
X47329Y13267D01*
X47050Y12223D01*
X46702Y11199D01*
X46288Y10201D01*
X45810Y9231D01*
X45270Y8295D01*
X44669Y7396D01*
X44011Y6539D01*
X43299Y5726D01*
X42534Y4962D01*
X41721Y4249D01*
X40864Y3591D01*
X39965Y2990D01*
X39029Y2450D01*
X38059Y1972D01*
X37061Y1558D01*
X36037Y1210D01*
X34993Y931D01*
X33933Y720D01*
X32861Y579D01*
X31782Y508D01*
X30702Y508D01*
X29623Y579D01*
X28551Y720D01*
X27491Y931D01*
X26447Y1210D01*
X25423Y1558D01*
X24425Y1972D01*
X23455Y2450D01*
X22519Y2990D01*
X21620Y3591D01*
X20763Y4249D01*
X19950Y4962D01*
X19186Y5726D01*
X18473Y6539D01*
X17815Y7396D01*
X17214Y8295D01*
X16674Y9231D01*
X16196Y10201D01*
X15782Y11199D01*
X15434Y12223D01*
X15155Y13267D01*
X14944Y14327D01*
X14803Y15399D01*
X14732Y16478D01*
X14732Y17558D01*
X14803Y18637D01*
X14944Y19709D01*
X15155Y20769D01*
X15434Y21813D01*
X15782Y22837D01*
X16196Y23835D01*
X16674Y24805D01*
X17214Y25741D01*
X17815Y26640D01*
X18473Y27497D01*
X19186Y28310D01*
X19950Y29075D01*
X20763Y29787D01*
X21620Y30445D01*
X22519Y31046D01*
X23455Y31586D01*
X24425Y32064D01*
X25423Y32478D01*
X26447Y32826D01*
X27491Y33105D01*
X28551Y33316D01*
X29623Y33457D01*
X30702Y33528D01*
X31782Y33528D01*
X32861Y33457D01*
X33933Y33316D01*
X34993Y33105D01*
X36037Y32826D01*
X37061Y32478D01*
X38059Y32064D01*
X39029Y31586D01*
X39965Y31046D01*
X40864Y30445D01*
X41721Y29787D01*
X42534Y29075D01*
X43299Y28310D01*
X44011Y27497D01*
X44669Y26640D01*
X45270Y25741D01*
X45810Y24805D01*
X46288Y23835D01*
X46702Y22837D01*
X47050Y21813D01*
X47329Y20769D01*
X47540Y19709D01*
X47681Y18637D01*
X47752Y17558D01*
X47752Y16478D01*
X842518Y24352D02*
X842447Y23273D01*
X842306Y22201D01*
X842095Y21141D01*
X841816Y20097D01*
X841468Y19073D01*
X841054Y18075D01*
X840576Y17105D01*
X840036Y16169D01*
X839435Y15270D01*
X838777Y14413D01*
X838065Y13600D01*
X837300Y12836D01*
X836487Y12123D01*
X835630Y11465D01*
X834731Y10864D01*
X833795Y10324D01*
X832825Y9846D01*
X831827Y9432D01*
X830803Y9084D01*
X829759Y8805D01*
X828699Y8594D01*
X827627Y8453D01*
X826548Y8382D01*
X825468Y8382D01*
X824389Y8453D01*
X823317Y8594D01*
X822257Y8805D01*
X821213Y9084D01*
X820189Y9432D01*
X819191Y9846D01*
X818221Y10324D01*
X817285Y10864D01*
X816386Y11465D01*
X815529Y12123D01*
X814716Y12836D01*
X813952Y13600D01*
X813239Y14413D01*
X812581Y15270D01*
X811980Y16169D01*
X811440Y17105D01*
X810962Y18075D01*
X810548Y19073D01*
X810200Y20097D01*
X809921Y21141D01*
X809710Y22201D01*
X809569Y23273D01*
X809498Y24352D01*
X809498Y25432D01*
X809569Y26511D01*
X809710Y27583D01*
X809921Y28643D01*
X810200Y29687D01*
X810548Y30711D01*
X810962Y31709D01*
X811440Y32679D01*
X811980Y33615D01*
X812581Y34514D01*
X813239Y35371D01*
X813952Y36184D01*
X814716Y36949D01*
X815529Y37661D01*
X816386Y38319D01*
X817285Y38920D01*
X818221Y39460D01*
X819191Y39938D01*
X820189Y40352D01*
X821213Y40700D01*
X822257Y40979D01*
X823317Y41190D01*
X824389Y41331D01*
X825468Y41402D01*
X826548Y41402D01*
X827627Y41331D01*
X828699Y41190D01*
X829759Y40979D01*
X830803Y40700D01*
X831827Y40352D01*
X832825Y39938D01*
X833795Y39460D01*
X834731Y38920D01*
X835630Y38319D01*
X836487Y37661D01*
X837300Y36949D01*
X838065Y36184D01*
X838777Y35371D01*
X839435Y34514D01*
X840036Y33615D01*
X840576Y32679D01*
X841054Y31709D01*
X841468Y30711D01*
X841816Y29687D01*
X842095Y28643D01*
X842306Y27583D01*
X842447Y26511D01*
X842518Y25432D01*
X842518Y24352D01*
X55118Y748252D02*
X55047Y747173D01*
X54906Y746101D01*
X54695Y745041D01*
X54416Y743997D01*
X54068Y742973D01*
X53654Y741975D01*
X53176Y741005D01*
X52636Y740069D01*
X52035Y739170D01*
X51377Y738313D01*
X50665Y737500D01*
X49900Y736736D01*
X49087Y736023D01*
X48230Y735365D01*
X47331Y734764D01*
X46395Y734224D01*
X45425Y733746D01*
X44427Y733332D01*
X43403Y732984D01*
X42359Y732705D01*
X41299Y732494D01*
X40227Y732353D01*
X39148Y732282D01*
X38068Y732282D01*
X36989Y732353D01*
X35917Y732494D01*
X34857Y732705D01*
X33813Y732984D01*
X32789Y733332D01*
X31791Y733746D01*
X30821Y734224D01*
X29885Y734764D01*
X28986Y735365D01*
X28129Y736023D01*
X27316Y736736D01*
X26552Y737500D01*
X25839Y738313D01*
X25181Y739170D01*
X24580Y740069D01*
X24040Y741005D01*
X23562Y741975D01*
X23148Y742973D01*
X22800Y743997D01*
X22521Y745041D01*
X22310Y746101D01*
X22169Y747173D01*
X22098Y748252D01*
X22098Y749332D01*
X22169Y750411D01*
X22310Y751483D01*
X22521Y752543D01*
X22800Y753587D01*
X23148Y754611D01*
X23562Y755609D01*
X24040Y756579D01*
X24580Y757515D01*
X25181Y758414D01*
X25839Y759271D01*
X26552Y760084D01*
X27316Y760849D01*
X28129Y761561D01*
X28986Y762219D01*
X29885Y762820D01*
X30821Y763360D01*
X31791Y763838D01*
X32789Y764252D01*
X33813Y764600D01*
X34857Y764879D01*
X35917Y765090D01*
X36989Y765231D01*
X38068Y765302D01*
X39148Y765302D01*
X40227Y765231D01*
X41299Y765090D01*
X42359Y764879D01*
X43403Y764600D01*
X44427Y764252D01*
X45425Y763838D01*
X46395Y763360D01*
X47331Y762820D01*
X48230Y762219D01*
X49087Y761561D01*
X49900Y760849D01*
X50665Y760084D01*
X51377Y759271D01*
X52035Y758414D01*
X52636Y757515D01*
X53176Y756579D01*
X53654Y755609D01*
X54068Y754611D01*
X54416Y753587D01*
X54695Y752543D01*
X54906Y751483D01*
X55047Y750411D01*
X55118Y749332D01*
X55118Y748252D01*
X53204Y614492D02*
X51997Y614565D01*
X50797Y614711D01*
X49608Y614929D01*
X48435Y615218D01*
X47281Y615577D01*
X46151Y616006D01*
X45049Y616502D01*
X43978Y617064D01*
X42944Y617689D01*
X41949Y618376D01*
X40998Y619121D01*
X40093Y619923D01*
X39239Y620777D01*
X38437Y621682D01*
X37692Y622633D01*
X37005Y623628D01*
X36380Y624662D01*
X35818Y625733D01*
X35322Y626835D01*
X34893Y627965D01*
X34534Y629119D01*
X34245Y630292D01*
X34027Y631481D01*
X33881Y632681D01*
X33808Y633888D01*
X33808Y635096D01*
X33881Y636303D01*
X34027Y637503D01*
X34245Y638692D01*
X34534Y639865D01*
X34893Y641019D01*
X35322Y642149D01*
X35818Y643251D01*
X36380Y644322D01*
X37005Y645356D01*
X37692Y646351D01*
X38437Y647302D01*
X39239Y648207D01*
X40093Y649061D01*
X40998Y649863D01*
X41949Y650608D01*
X42944Y651295D01*
X43978Y651920D01*
X45049Y652482D01*
X46151Y652978D01*
X47281Y653407D01*
X48435Y653766D01*
X49608Y654055D01*
X50797Y654273D01*
X51997Y654419D01*
X53204Y654492D01*
X54412Y654492D01*
X55619Y654419D01*
X56819Y654273D01*
X58008Y654055D01*
X59181Y653766D01*
X60335Y653407D01*
X61465Y652978D01*
X62567Y652482D01*
X63638Y651920D01*
X64672Y651295D01*
X65667Y650608D01*
X66618Y649863D01*
X67523Y649061D01*
X68377Y648207D01*
X69179Y647302D01*
X69924Y646351D01*
X70611Y645356D01*
X71236Y644322D01*
X71798Y643251D01*
X72294Y642149D01*
X72723Y641019D01*
X73082Y639865D01*
X73371Y638692D01*
X73589Y637503D01*
X73735Y636303D01*
X73808Y635096D01*
X73808Y633888D01*
X73735Y632681D01*
X73589Y631481D01*
X73371Y630292D01*
X73082Y629119D01*
X72723Y627965D01*
X72294Y626835D01*
X71798Y625733D01*
X71236Y624662D01*
X70611Y623628D01*
X69924Y622633D01*
X69179Y621682D01*
X68377Y620777D01*
X67523Y619923D01*
X66618Y619121D01*
X65667Y618376D01*
X64672Y617689D01*
X63638Y617064D01*
X62567Y616502D01*
X61465Y616006D01*
X60335Y615577D01*
X59181Y615218D01*
X58008Y614929D01*
X56819Y614711D01*
X55619Y614565D01*
X54412Y614492D01*
X53204Y614492D01*
X781272Y208534D02*
X780193Y208605D01*
X779121Y208746D01*
X778061Y208957D01*
X777017Y209236D01*
X775993Y209584D01*
X774995Y209998D01*
X774025Y210476D01*
X773089Y211016D01*
X772190Y211617D01*
X771333Y212275D01*
X770520Y212988D01*
X769756Y213752D01*
X769043Y214565D01*
X768385Y215422D01*
X767784Y216321D01*
X767244Y217257D01*
X766766Y218227D01*
X766352Y219225D01*
X766004Y220249D01*
X765725Y221293D01*
X765514Y222353D01*
X765373Y223425D01*
X765302Y224504D01*
X765302Y225584D01*
X765373Y226663D01*
X765514Y227735D01*
X765725Y228795D01*
X766004Y229839D01*
X766352Y230863D01*
X766766Y231861D01*
X767244Y232831D01*
X767784Y233767D01*
X768385Y234666D01*
X769043Y235523D01*
X769756Y236336D01*
X770520Y237101D01*
X771333Y237813D01*
X772190Y238471D01*
X773089Y239072D01*
X774025Y239612D01*
X774995Y240090D01*
X775993Y240504D01*
X777017Y240852D01*
X778061Y241131D01*
X779121Y241342D01*
X780193Y241483D01*
X781272Y241554D01*
X782352Y241554D01*
X783431Y241483D01*
X784503Y241342D01*
X785563Y241131D01*
X786607Y240852D01*
X787631Y240504D01*
X788629Y240090D01*
X789599Y239612D01*
X790535Y239072D01*
X791434Y238471D01*
X792291Y237813D01*
X793104Y237101D01*
X793869Y236336D01*
X794581Y235523D01*
X795239Y234666D01*
X795840Y233767D01*
X796380Y232831D01*
X796858Y231861D01*
X797272Y230863D01*
X797620Y229839D01*
X797899Y228795D01*
X798110Y227735D01*
X798251Y226663D01*
X798322Y225584D01*
X798322Y224504D01*
X798251Y223425D01*
X798110Y222353D01*
X797899Y221293D01*
X797620Y220249D01*
X797272Y219225D01*
X796858Y218227D01*
X796380Y217257D01*
X795840Y216321D01*
X795239Y215422D01*
X794581Y214565D01*
X793869Y213752D01*
X793104Y212988D01*
X792291Y212275D01*
X791434Y211617D01*
X790535Y211016D01*
X789599Y210476D01*
X788629Y209998D01*
X787631Y209584D01*
X786607Y209236D01*
X785563Y208957D01*
X784503Y208746D01*
X783431Y208605D01*
X782352Y208534D01*
X781272Y208534D01*
M02*
