G04 EAGLE Gerber RS-274X export*
G75*
%MOMM*%
%FSLAX34Y34*%
%LPD*%
%INSoldermask Bottom*%
%IPPOS*%
%AMOC8*
5,1,8,0,0,1.08239X$1,22.5*%
G01*
%ADD10C,4.203200*%
%ADD11R,2.303200X2.303200*%
%ADD12C,2.082800*%
%ADD13R,2.108200X2.108200*%
%ADD14C,2.286000*%
%ADD15C,3.505200*%
%ADD16C,1.828800*%
%ADD17C,1.625600*%
%ADD18C,1.981200*%
%ADD19R,2.753200X2.753200*%
%ADD20C,2.753200*%
%ADD21C,1.879600*%
%ADD22C,0.959600*%


D10*
X312636Y41108D03*
D11*
X291936Y114508D03*
X333336Y114508D03*
D10*
X615112Y40600D03*
D11*
X594412Y114000D03*
X635812Y114000D03*
D12*
X629704Y471536D03*
X629704Y496936D03*
X629704Y522336D03*
X629704Y547736D03*
X629704Y573136D03*
X629704Y598536D03*
X629704Y623936D03*
X629704Y649336D03*
X601764Y471536D03*
X601764Y496936D03*
X601764Y522336D03*
X601764Y547736D03*
X601764Y573136D03*
X601764Y598536D03*
X601764Y623936D03*
X601764Y649336D03*
D13*
X316700Y623316D03*
X316700Y699516D03*
D14*
X240500Y661416D03*
D15*
X826008Y748792D03*
X31242Y17018D03*
X826008Y24892D03*
X38608Y748792D03*
D16*
X142748Y497332D03*
X117348Y497332D03*
X117348Y421132D03*
X142748Y421132D03*
X91948Y497332D03*
X66548Y497332D03*
X91948Y421132D03*
X66548Y421132D03*
D17*
X268224Y186436D02*
X282448Y186436D01*
X282448Y211836D02*
X268224Y211836D01*
X268224Y335788D02*
X282448Y335788D01*
X282448Y310388D02*
X268224Y310388D01*
D10*
X53808Y634492D03*
D11*
X127208Y667892D03*
X127208Y601092D03*
D18*
X267856Y530860D03*
X293256Y530860D03*
X318656Y530860D03*
D19*
X419608Y240792D03*
D20*
X479608Y260792D03*
D19*
X479608Y382792D03*
X359608Y382792D03*
D20*
X359608Y260792D03*
D21*
X598170Y250444D02*
X614934Y250444D01*
X614934Y225044D02*
X598170Y225044D01*
X598170Y199644D02*
X614934Y199644D01*
D15*
X781812Y225044D03*
D22*
X217932Y381000D03*
X134112Y186436D03*
X316738Y211582D03*
X392176Y136144D03*
X172212Y101600D03*
X231140Y241300D03*
X513588Y744728D03*
X511556Y688340D03*
X375920Y677672D03*
X182372Y601472D03*
X203708Y505460D03*
X337820Y482092D03*
X282956Y390144D03*
X94996Y370332D03*
X152400Y298704D03*
X236220Y292100D03*
X309880Y244856D03*
X271780Y160020D03*
X164592Y159004D03*
X417576Y96012D03*
X511556Y163068D03*
X663448Y151892D03*
X647700Y322072D03*
X555752Y323088D03*
M02*
