G04 EAGLE Gerber RS-274X export*
G75*
%MOMM*%
%FSLAX34Y34*%
%LPD*%
%INTop Copper*%
%IPPOS*%
%AMOC8*
5,1,8,0,0,1.08239X$1,22.5*%
G01*
%ADD10C,0.254000*%
%ADD11C,0.152400*%
%ADD12R,2.060000X1.270000*%
%ADD13R,1.270000X2.060000*%
%ADD14R,2.100000X2.100000*%
%ADD15C,1.879600*%
%ADD16R,1.111200X0.400800*%
%ADD17R,1.800000X2.200000*%
%ADD18R,1.905000X1.905000*%
%ADD19C,1.625600*%
%ADD20C,1.422400*%
%ADD21R,1.200000X0.800000*%
%ADD22C,0.610000*%
%ADD23C,0.563000*%
%ADD24C,1.778000*%
%ADD25R,2.550000X2.550000*%
%ADD26C,2.550000*%
%ADD27C,1.676400*%
%ADD28C,1.270000*%
%ADD29C,0.756400*%
%ADD30C,0.508000*%
%ADD31C,0.609600*%

G36*
X821473Y-3043D02*
X821473Y-3043D01*
X821496Y-3046D01*
X821593Y-3024D01*
X821692Y-3008D01*
X821713Y-2996D01*
X821736Y-2991D01*
X821821Y-2939D01*
X821909Y-2892D01*
X821925Y-2875D01*
X821946Y-2862D01*
X822010Y-2786D01*
X822078Y-2714D01*
X822088Y-2692D01*
X822104Y-2674D01*
X822140Y-2581D01*
X822182Y-2491D01*
X822185Y-2467D01*
X822193Y-2445D01*
X822198Y-2345D01*
X822209Y-2247D01*
X822204Y-2223D01*
X822205Y-2199D01*
X822178Y-2103D01*
X822157Y-2006D01*
X822144Y-1986D01*
X822138Y-1962D01*
X822082Y-1880D01*
X822031Y-1795D01*
X822012Y-1779D01*
X821999Y-1760D01*
X821919Y-1700D01*
X821844Y-1635D01*
X821821Y-1626D01*
X821802Y-1612D01*
X821646Y-1551D01*
X815713Y39D01*
X809632Y3550D01*
X804666Y8516D01*
X801155Y14597D01*
X799337Y21381D01*
X799337Y28403D01*
X801155Y35187D01*
X804666Y41268D01*
X809632Y46234D01*
X815713Y49745D01*
X822497Y51563D01*
X829519Y51563D01*
X836303Y49745D01*
X842384Y46234D01*
X847350Y41268D01*
X850027Y36632D01*
X850057Y36595D01*
X850080Y36552D01*
X850135Y36500D01*
X850183Y36441D01*
X850223Y36416D01*
X850258Y36383D01*
X850327Y36351D01*
X850391Y36311D01*
X850438Y36299D01*
X850481Y36279D01*
X850556Y36271D01*
X850630Y36253D01*
X850678Y36257D01*
X850725Y36252D01*
X850800Y36268D01*
X850875Y36275D01*
X850919Y36294D01*
X850966Y36304D01*
X851031Y36343D01*
X851100Y36374D01*
X851136Y36406D01*
X851177Y36431D01*
X851226Y36488D01*
X851282Y36539D01*
X851306Y36581D01*
X851337Y36617D01*
X851365Y36688D01*
X851402Y36754D01*
X851411Y36801D01*
X851429Y36846D01*
X851443Y36974D01*
X851447Y36996D01*
X851446Y37002D01*
X851447Y37012D01*
X851447Y736672D01*
X851440Y736719D01*
X851441Y736767D01*
X851420Y736840D01*
X851408Y736914D01*
X851385Y736957D01*
X851371Y737003D01*
X851328Y737065D01*
X851292Y737132D01*
X851258Y737165D01*
X851230Y737204D01*
X851169Y737249D01*
X851114Y737301D01*
X851071Y737321D01*
X851032Y737350D01*
X850960Y737373D01*
X850891Y737405D01*
X850843Y737410D01*
X850798Y737425D01*
X850722Y737424D01*
X850647Y737432D01*
X850600Y737422D01*
X850552Y737421D01*
X850480Y737396D01*
X850406Y737380D01*
X850365Y737355D01*
X850320Y737339D01*
X850260Y737292D01*
X850195Y737253D01*
X850164Y737217D01*
X850126Y737187D01*
X850050Y737084D01*
X850035Y737067D01*
X850033Y737060D01*
X850027Y737052D01*
X847350Y732416D01*
X842384Y727450D01*
X836303Y723939D01*
X829519Y722121D01*
X822497Y722121D01*
X815713Y723939D01*
X809632Y727450D01*
X804666Y732416D01*
X801155Y738497D01*
X799337Y745281D01*
X799337Y752303D01*
X801155Y759087D01*
X804666Y765168D01*
X809632Y770134D01*
X815713Y773645D01*
X821273Y775135D01*
X821295Y775145D01*
X821318Y775149D01*
X821406Y775195D01*
X821497Y775236D01*
X821514Y775252D01*
X821536Y775264D01*
X821604Y775336D01*
X821677Y775403D01*
X821688Y775424D01*
X821705Y775442D01*
X821747Y775532D01*
X821794Y775619D01*
X821799Y775643D01*
X821809Y775665D01*
X821820Y775764D01*
X821837Y775862D01*
X821833Y775886D01*
X821836Y775909D01*
X821815Y776007D01*
X821800Y776105D01*
X821789Y776126D01*
X821784Y776150D01*
X821732Y776235D01*
X821687Y776324D01*
X821670Y776340D01*
X821657Y776361D01*
X821582Y776426D01*
X821510Y776495D01*
X821489Y776505D01*
X821470Y776521D01*
X821378Y776558D01*
X821289Y776601D01*
X821265Y776604D01*
X821242Y776613D01*
X821076Y776631D01*
X43540Y776631D01*
X43517Y776627D01*
X43493Y776630D01*
X43396Y776608D01*
X43298Y776592D01*
X43276Y776580D01*
X43253Y776575D01*
X43168Y776523D01*
X43080Y776476D01*
X43064Y776459D01*
X43043Y776446D01*
X42979Y776370D01*
X42911Y776298D01*
X42901Y776276D01*
X42885Y776258D01*
X42849Y776165D01*
X42807Y776075D01*
X42805Y776051D01*
X42796Y776029D01*
X42791Y775929D01*
X42780Y775831D01*
X42785Y775807D01*
X42784Y775783D01*
X42811Y775687D01*
X42832Y775590D01*
X42845Y775570D01*
X42851Y775546D01*
X42908Y775464D01*
X42959Y775379D01*
X42977Y775363D01*
X42991Y775344D01*
X43070Y775284D01*
X43146Y775219D01*
X43168Y775210D01*
X43187Y775196D01*
X43343Y775135D01*
X48903Y773645D01*
X54984Y770134D01*
X59950Y765168D01*
X63461Y759087D01*
X65279Y752303D01*
X65279Y745281D01*
X63461Y738497D01*
X59950Y732416D01*
X54984Y727450D01*
X48903Y723939D01*
X42119Y722121D01*
X35097Y722121D01*
X28313Y723939D01*
X22232Y727450D01*
X17266Y732416D01*
X13755Y738497D01*
X12165Y744430D01*
X12155Y744452D01*
X12151Y744476D01*
X12105Y744563D01*
X12064Y744654D01*
X12048Y744672D01*
X12036Y744693D01*
X11964Y744761D01*
X11897Y744834D01*
X11876Y744846D01*
X11858Y744862D01*
X11768Y744904D01*
X11681Y744952D01*
X11657Y744956D01*
X11635Y744966D01*
X11536Y744977D01*
X11438Y744994D01*
X11414Y744990D01*
X11391Y744993D01*
X11293Y744972D01*
X11195Y744957D01*
X11174Y744946D01*
X11150Y744941D01*
X11065Y744890D01*
X10976Y744844D01*
X10960Y744827D01*
X10939Y744815D01*
X10874Y744739D01*
X10805Y744668D01*
X10795Y744646D01*
X10779Y744628D01*
X10742Y744535D01*
X10699Y744446D01*
X10696Y744422D01*
X10687Y744399D01*
X10669Y744233D01*
X10669Y36001D01*
X10680Y35930D01*
X10682Y35858D01*
X10700Y35809D01*
X10708Y35758D01*
X10742Y35695D01*
X10767Y35627D01*
X10799Y35587D01*
X10824Y35541D01*
X10876Y35491D01*
X10920Y35435D01*
X10964Y35407D01*
X11002Y35371D01*
X11067Y35341D01*
X11127Y35302D01*
X11178Y35289D01*
X11225Y35268D01*
X11296Y35260D01*
X11366Y35242D01*
X11418Y35246D01*
X11469Y35240D01*
X11540Y35256D01*
X11611Y35261D01*
X11659Y35282D01*
X11710Y35293D01*
X11771Y35329D01*
X11837Y35358D01*
X11893Y35402D01*
X11921Y35419D01*
X11936Y35437D01*
X11968Y35462D01*
X14866Y38360D01*
X20947Y41871D01*
X27731Y43689D01*
X34753Y43689D01*
X41537Y41871D01*
X47618Y38360D01*
X52584Y33394D01*
X56095Y27313D01*
X57913Y20529D01*
X57913Y13507D01*
X56095Y6723D01*
X52584Y642D01*
X50194Y-1748D01*
X50153Y-1806D01*
X50103Y-1858D01*
X50081Y-1905D01*
X50051Y-1947D01*
X50030Y-2016D01*
X50000Y-2081D01*
X49994Y-2133D01*
X49978Y-2183D01*
X49980Y-2254D01*
X49972Y-2325D01*
X49983Y-2376D01*
X49985Y-2428D01*
X50009Y-2496D01*
X50025Y-2566D01*
X50051Y-2611D01*
X50069Y-2659D01*
X50114Y-2715D01*
X50151Y-2777D01*
X50190Y-2811D01*
X50223Y-2851D01*
X50283Y-2890D01*
X50338Y-2937D01*
X50386Y-2956D01*
X50430Y-2984D01*
X50499Y-3002D01*
X50566Y-3029D01*
X50637Y-3037D01*
X50668Y-3045D01*
X50692Y-3043D01*
X50733Y-3047D01*
X821449Y-3047D01*
X821473Y-3043D01*
G37*
%LPC*%
G36*
X49067Y247167D02*
X49067Y247167D01*
X46525Y249709D01*
X46525Y308675D01*
X49067Y311217D01*
X96773Y311217D01*
X96863Y311231D01*
X96954Y311239D01*
X96984Y311251D01*
X97016Y311256D01*
X97096Y311299D01*
X97180Y311335D01*
X97212Y311361D01*
X97233Y311372D01*
X97255Y311395D01*
X97311Y311440D01*
X163606Y377735D01*
X163659Y377809D01*
X163719Y377878D01*
X163731Y377908D01*
X163750Y377935D01*
X163777Y378022D01*
X163811Y378106D01*
X163815Y378147D01*
X163822Y378170D01*
X163821Y378202D01*
X163829Y378273D01*
X163829Y558334D01*
X165028Y561229D01*
X233791Y629992D01*
X236686Y631191D01*
X304889Y631191D01*
X304909Y631194D01*
X304928Y631192D01*
X305030Y631214D01*
X305132Y631230D01*
X305149Y631240D01*
X305169Y631244D01*
X305258Y631297D01*
X305349Y631346D01*
X305363Y631360D01*
X305380Y631370D01*
X305447Y631449D01*
X305519Y631524D01*
X305527Y631542D01*
X305540Y631557D01*
X305579Y631653D01*
X305622Y631747D01*
X305624Y631767D01*
X305632Y631785D01*
X305650Y631952D01*
X305650Y633473D01*
X306543Y634366D01*
X326857Y634366D01*
X327750Y633473D01*
X327750Y631952D01*
X327753Y631932D01*
X327751Y631913D01*
X327773Y631811D01*
X327789Y631709D01*
X327799Y631692D01*
X327803Y631672D01*
X327856Y631583D01*
X327905Y631492D01*
X327919Y631478D01*
X327929Y631461D01*
X328008Y631394D01*
X328083Y631322D01*
X328101Y631314D01*
X328116Y631301D01*
X328212Y631262D01*
X328306Y631219D01*
X328326Y631217D01*
X328344Y631209D01*
X328511Y631191D01*
X366495Y631191D01*
X366559Y631201D01*
X366625Y631202D01*
X366705Y631225D01*
X366738Y631230D01*
X366755Y631240D01*
X366786Y631249D01*
X369534Y632387D01*
X372666Y632387D01*
X375561Y631188D01*
X377776Y628973D01*
X378975Y626078D01*
X378975Y622946D01*
X377776Y620051D01*
X374365Y616640D01*
X371470Y615441D01*
X328511Y615441D01*
X328491Y615438D01*
X328472Y615440D01*
X328370Y615418D01*
X328268Y615402D01*
X328251Y615392D01*
X328231Y615388D01*
X328142Y615335D01*
X328051Y615286D01*
X328037Y615272D01*
X328020Y615262D01*
X327953Y615183D01*
X327881Y615108D01*
X327873Y615090D01*
X327860Y615075D01*
X327821Y614979D01*
X327778Y614885D01*
X327776Y614865D01*
X327768Y614847D01*
X327750Y614680D01*
X327750Y613159D01*
X326857Y612266D01*
X306543Y612266D01*
X305650Y613159D01*
X305650Y614680D01*
X305647Y614700D01*
X305649Y614719D01*
X305627Y614821D01*
X305611Y614923D01*
X305601Y614940D01*
X305597Y614960D01*
X305544Y615049D01*
X305495Y615140D01*
X305481Y615154D01*
X305471Y615171D01*
X305392Y615238D01*
X305317Y615310D01*
X305299Y615318D01*
X305284Y615331D01*
X305188Y615370D01*
X305094Y615413D01*
X305074Y615415D01*
X305056Y615423D01*
X304889Y615441D01*
X241829Y615441D01*
X241739Y615427D01*
X241648Y615419D01*
X241618Y615407D01*
X241586Y615402D01*
X241506Y615359D01*
X241422Y615323D01*
X241390Y615297D01*
X241369Y615286D01*
X241347Y615263D01*
X241291Y615218D01*
X179802Y553729D01*
X179749Y553655D01*
X179689Y553586D01*
X179677Y553556D01*
X179658Y553529D01*
X179631Y553442D01*
X179597Y553358D01*
X179593Y553317D01*
X179586Y553294D01*
X179587Y553262D01*
X179579Y553191D01*
X179579Y373130D01*
X178380Y370235D01*
X106098Y297953D01*
X106045Y297879D01*
X105985Y297810D01*
X105973Y297780D01*
X105954Y297753D01*
X105927Y297666D01*
X105893Y297582D01*
X105889Y297541D01*
X105882Y297518D01*
X105883Y297486D01*
X105875Y297415D01*
X105875Y249709D01*
X103333Y247167D01*
X49067Y247167D01*
G37*
%LPD*%
%LPC*%
G36*
X168508Y254227D02*
X168508Y254227D01*
X167615Y255120D01*
X167615Y340124D01*
X168814Y343019D01*
X242446Y416651D01*
X242492Y416715D01*
X242511Y416735D01*
X242515Y416743D01*
X242559Y416794D01*
X242571Y416824D01*
X242590Y416851D01*
X242617Y416938D01*
X242651Y417022D01*
X242655Y417063D01*
X242662Y417086D01*
X242661Y417118D01*
X242669Y417189D01*
X242669Y430390D01*
X242666Y430410D01*
X242668Y430429D01*
X242646Y430531D01*
X242630Y430633D01*
X242620Y430650D01*
X242616Y430670D01*
X242563Y430759D01*
X242514Y430850D01*
X242500Y430864D01*
X242490Y430881D01*
X242411Y430948D01*
X242336Y431020D01*
X242318Y431028D01*
X242303Y431041D01*
X242207Y431080D01*
X242113Y431123D01*
X242093Y431125D01*
X242075Y431133D01*
X241908Y431151D01*
X239612Y431151D01*
X238719Y432044D01*
X238719Y446008D01*
X239612Y446901D01*
X307665Y446901D01*
X308752Y446451D01*
X308815Y446436D01*
X308876Y446411D01*
X308959Y446402D01*
X308991Y446395D01*
X309010Y446396D01*
X309043Y446393D01*
X419282Y446393D01*
X421595Y445435D01*
X421659Y445420D01*
X421720Y445395D01*
X421803Y445386D01*
X421835Y445379D01*
X421854Y445380D01*
X421887Y445377D01*
X429664Y445377D01*
X430557Y444484D01*
X430557Y430520D01*
X429664Y429627D01*
X407800Y429627D01*
X407007Y430420D01*
X406933Y430473D01*
X406864Y430533D01*
X406834Y430545D01*
X406808Y430564D01*
X406721Y430591D01*
X406636Y430625D01*
X406595Y430629D01*
X406573Y430636D01*
X406540Y430635D01*
X406469Y430643D01*
X295675Y430643D01*
X295390Y430928D01*
X295316Y430981D01*
X295247Y431041D01*
X295216Y431053D01*
X295190Y431072D01*
X295103Y431099D01*
X295018Y431133D01*
X294978Y431137D01*
X294955Y431144D01*
X294923Y431143D01*
X294852Y431151D01*
X259180Y431151D01*
X259160Y431148D01*
X259141Y431150D01*
X259039Y431128D01*
X258937Y431112D01*
X258920Y431102D01*
X258900Y431098D01*
X258811Y431045D01*
X258720Y430996D01*
X258706Y430982D01*
X258689Y430972D01*
X258622Y430893D01*
X258550Y430818D01*
X258542Y430800D01*
X258529Y430785D01*
X258490Y430689D01*
X258447Y430595D01*
X258445Y430575D01*
X258437Y430557D01*
X258419Y430390D01*
X258419Y412046D01*
X257220Y409151D01*
X236444Y388375D01*
X236391Y388301D01*
X236331Y388232D01*
X236319Y388202D01*
X236300Y388175D01*
X236273Y388088D01*
X236239Y388004D01*
X236235Y387963D01*
X236228Y387940D01*
X236229Y387908D01*
X236221Y387837D01*
X236221Y374163D01*
X236235Y374073D01*
X236243Y373982D01*
X236255Y373952D01*
X236260Y373920D01*
X236303Y373840D01*
X236339Y373756D01*
X236365Y373724D01*
X236376Y373703D01*
X236399Y373681D01*
X236444Y373625D01*
X265537Y344532D01*
X265632Y344464D01*
X265725Y344394D01*
X265731Y344392D01*
X265736Y344388D01*
X265848Y344354D01*
X265959Y344318D01*
X265966Y344318D01*
X265971Y344316D01*
X266088Y344319D01*
X266205Y344320D01*
X266212Y344322D01*
X266217Y344322D01*
X266235Y344329D01*
X266366Y344367D01*
X266506Y344425D01*
X284166Y344425D01*
X287340Y343110D01*
X289770Y340680D01*
X291085Y337506D01*
X291085Y334070D01*
X289770Y330896D01*
X287340Y328466D01*
X284166Y327151D01*
X266506Y327151D01*
X264806Y327855D01*
X264743Y327870D01*
X264682Y327895D01*
X264599Y327904D01*
X264567Y327911D01*
X264548Y327910D01*
X264515Y327913D01*
X261578Y327913D01*
X258683Y329112D01*
X256361Y331434D01*
X225307Y362488D01*
X225233Y362541D01*
X225164Y362601D01*
X225134Y362613D01*
X225107Y362632D01*
X225020Y362659D01*
X224936Y362693D01*
X224895Y362697D01*
X224872Y362704D01*
X224840Y362703D01*
X224769Y362711D01*
X211095Y362711D01*
X211005Y362697D01*
X210914Y362689D01*
X210884Y362677D01*
X210852Y362672D01*
X210772Y362629D01*
X210688Y362593D01*
X210656Y362567D01*
X210635Y362556D01*
X210613Y362533D01*
X210557Y362488D01*
X183588Y335519D01*
X183535Y335445D01*
X183475Y335376D01*
X183463Y335346D01*
X183444Y335319D01*
X183417Y335232D01*
X183383Y335148D01*
X183379Y335107D01*
X183372Y335084D01*
X183373Y335052D01*
X183365Y334981D01*
X183365Y255120D01*
X182472Y254227D01*
X168508Y254227D01*
G37*
%LPD*%
%LPC*%
G36*
X596199Y215137D02*
X596199Y215137D01*
X592558Y216645D01*
X592258Y216946D01*
X592184Y216999D01*
X592114Y217059D01*
X592084Y217071D01*
X592058Y217090D01*
X591971Y217117D01*
X591886Y217151D01*
X591845Y217155D01*
X591823Y217162D01*
X591790Y217161D01*
X591719Y217169D01*
X571338Y217169D01*
X568444Y218368D01*
X520590Y266222D01*
X519391Y269116D01*
X519391Y364215D01*
X519377Y364305D01*
X519369Y364396D01*
X519357Y364426D01*
X519352Y364458D01*
X519309Y364538D01*
X519273Y364622D01*
X519247Y364654D01*
X519236Y364675D01*
X519213Y364697D01*
X519168Y364753D01*
X509025Y374896D01*
X508951Y374949D01*
X508882Y375009D01*
X508852Y375021D01*
X508825Y375040D01*
X508738Y375067D01*
X508654Y375101D01*
X508613Y375105D01*
X508590Y375112D01*
X508558Y375111D01*
X508487Y375119D01*
X505059Y375119D01*
X504995Y375109D01*
X504929Y375108D01*
X504849Y375085D01*
X504817Y375080D01*
X504800Y375070D01*
X504768Y375061D01*
X504420Y374917D01*
X494644Y374917D01*
X494624Y374914D01*
X494605Y374916D01*
X494503Y374894D01*
X494401Y374878D01*
X494384Y374868D01*
X494364Y374864D01*
X494275Y374811D01*
X494184Y374762D01*
X494170Y374748D01*
X494153Y374738D01*
X494086Y374659D01*
X494014Y374584D01*
X494006Y374566D01*
X493993Y374551D01*
X493954Y374455D01*
X493911Y374361D01*
X493909Y374341D01*
X493901Y374323D01*
X493883Y374156D01*
X493883Y369410D01*
X492990Y368517D01*
X466226Y368517D01*
X465333Y369410D01*
X465333Y396174D01*
X466226Y397067D01*
X492990Y397067D01*
X493883Y396174D01*
X493883Y391630D01*
X493886Y391610D01*
X493884Y391591D01*
X493906Y391489D01*
X493922Y391387D01*
X493932Y391370D01*
X493936Y391350D01*
X493989Y391261D01*
X494038Y391170D01*
X494052Y391156D01*
X494062Y391139D01*
X494141Y391072D01*
X494216Y391000D01*
X494234Y390992D01*
X494249Y390979D01*
X494345Y390940D01*
X494439Y390897D01*
X494459Y390895D01*
X494477Y390887D01*
X494644Y390869D01*
X525494Y390869D01*
X525559Y390879D01*
X525625Y390880D01*
X525705Y390903D01*
X525727Y390907D01*
X562078Y390907D01*
X562098Y390910D01*
X562117Y390908D01*
X562219Y390930D01*
X562321Y390946D01*
X562338Y390956D01*
X562358Y390960D01*
X562447Y391013D01*
X562538Y391062D01*
X562552Y391076D01*
X562569Y391086D01*
X562636Y391165D01*
X562708Y391240D01*
X562716Y391258D01*
X562729Y391273D01*
X562768Y391369D01*
X562811Y391463D01*
X562813Y391483D01*
X562821Y391501D01*
X562839Y391668D01*
X562839Y394472D01*
X563732Y395365D01*
X577696Y395365D01*
X578589Y394472D01*
X578589Y372608D01*
X577696Y371715D01*
X563732Y371715D01*
X562839Y372608D01*
X562839Y374396D01*
X562836Y374416D01*
X562838Y374435D01*
X562816Y374537D01*
X562800Y374639D01*
X562790Y374656D01*
X562786Y374676D01*
X562733Y374765D01*
X562684Y374856D01*
X562670Y374870D01*
X562660Y374887D01*
X562581Y374954D01*
X562506Y375026D01*
X562488Y375034D01*
X562473Y375047D01*
X562377Y375086D01*
X562283Y375129D01*
X562263Y375131D01*
X562245Y375139D01*
X562078Y375157D01*
X546083Y375157D01*
X545993Y375143D01*
X545902Y375135D01*
X545872Y375123D01*
X545840Y375118D01*
X545760Y375075D01*
X545676Y375039D01*
X545644Y375013D01*
X545623Y375002D01*
X545601Y374979D01*
X545545Y374934D01*
X535364Y364753D01*
X535311Y364679D01*
X535251Y364610D01*
X535239Y364580D01*
X535220Y364553D01*
X535193Y364466D01*
X535159Y364382D01*
X535155Y364341D01*
X535148Y364318D01*
X535149Y364286D01*
X535141Y364215D01*
X535141Y274260D01*
X535155Y274170D01*
X535163Y274079D01*
X535175Y274049D01*
X535180Y274017D01*
X535223Y273937D01*
X535259Y273853D01*
X535285Y273821D01*
X535296Y273800D01*
X535319Y273778D01*
X535364Y273722D01*
X575944Y233142D01*
X576018Y233089D01*
X576087Y233029D01*
X576117Y233017D01*
X576143Y232998D01*
X576230Y232971D01*
X576315Y232937D01*
X576356Y232933D01*
X576378Y232926D01*
X576411Y232927D01*
X576482Y232919D01*
X591719Y232919D01*
X591809Y232933D01*
X591900Y232941D01*
X591930Y232953D01*
X591962Y232958D01*
X592043Y233001D01*
X592127Y233037D01*
X592159Y233063D01*
X592179Y233074D01*
X592199Y233094D01*
X592201Y233095D01*
X592206Y233101D01*
X592258Y233142D01*
X592558Y233443D01*
X596199Y234951D01*
X616905Y234951D01*
X620546Y233443D01*
X623333Y230656D01*
X624841Y227015D01*
X624841Y223073D01*
X623333Y219432D01*
X620546Y216645D01*
X616905Y215137D01*
X596199Y215137D01*
G37*
%LPD*%
%LPC*%
G36*
X36367Y87655D02*
X36367Y87655D01*
X33825Y90197D01*
X33825Y149163D01*
X36367Y151705D01*
X90633Y151705D01*
X93175Y149163D01*
X93175Y128316D01*
X93178Y128296D01*
X93176Y128277D01*
X93198Y128175D01*
X93214Y128073D01*
X93224Y128056D01*
X93228Y128036D01*
X93281Y127947D01*
X93330Y127856D01*
X93344Y127842D01*
X93354Y127825D01*
X93433Y127758D01*
X93508Y127686D01*
X93526Y127678D01*
X93541Y127665D01*
X93637Y127626D01*
X93731Y127583D01*
X93751Y127581D01*
X93769Y127573D01*
X93936Y127555D01*
X118336Y127555D01*
X121231Y126356D01*
X137151Y110436D01*
X137225Y110383D01*
X137294Y110323D01*
X137324Y110311D01*
X137351Y110292D01*
X137438Y110265D01*
X137522Y110231D01*
X137563Y110227D01*
X137586Y110220D01*
X137618Y110221D01*
X137689Y110213D01*
X145044Y110213D01*
X145559Y109698D01*
X145633Y109645D01*
X145702Y109585D01*
X145732Y109573D01*
X145758Y109554D01*
X145845Y109527D01*
X145930Y109493D01*
X145971Y109489D01*
X145993Y109482D01*
X146026Y109483D01*
X146097Y109475D01*
X173778Y109475D01*
X176673Y108276D01*
X178888Y106061D01*
X180087Y103166D01*
X180087Y100034D01*
X178888Y97139D01*
X176673Y94924D01*
X173778Y93725D01*
X133284Y93725D01*
X131642Y94405D01*
X131578Y94420D01*
X131517Y94445D01*
X131434Y94454D01*
X131402Y94461D01*
X131383Y94460D01*
X131351Y94463D01*
X123180Y94463D01*
X122287Y95356D01*
X122287Y102711D01*
X122273Y102801D01*
X122265Y102892D01*
X122253Y102922D01*
X122248Y102954D01*
X122205Y103034D01*
X122169Y103118D01*
X122143Y103150D01*
X122132Y103171D01*
X122109Y103193D01*
X122064Y103249D01*
X113731Y111582D01*
X113657Y111635D01*
X113588Y111695D01*
X113558Y111707D01*
X113531Y111726D01*
X113444Y111753D01*
X113360Y111787D01*
X113319Y111791D01*
X113296Y111798D01*
X113264Y111797D01*
X113193Y111805D01*
X93936Y111805D01*
X93916Y111802D01*
X93897Y111804D01*
X93795Y111782D01*
X93693Y111766D01*
X93676Y111756D01*
X93656Y111752D01*
X93567Y111699D01*
X93476Y111650D01*
X93462Y111636D01*
X93445Y111626D01*
X93378Y111547D01*
X93306Y111472D01*
X93298Y111454D01*
X93285Y111439D01*
X93246Y111343D01*
X93203Y111249D01*
X93201Y111229D01*
X93193Y111211D01*
X93175Y111044D01*
X93175Y90197D01*
X90633Y87655D01*
X36367Y87655D01*
G37*
%LPD*%
%LPC*%
G36*
X35655Y170505D02*
X35655Y170505D01*
X32975Y173185D01*
X32975Y183859D01*
X32965Y183923D01*
X32964Y183989D01*
X32941Y184069D01*
X32936Y184101D01*
X32926Y184119D01*
X32917Y184150D01*
X32725Y184614D01*
X32725Y187746D01*
X32917Y188210D01*
X32932Y188274D01*
X32957Y188335D01*
X32966Y188417D01*
X32973Y188449D01*
X32972Y188469D01*
X32975Y188501D01*
X32975Y199175D01*
X35655Y201855D01*
X44823Y201855D01*
X44913Y201869D01*
X45004Y201877D01*
X45034Y201889D01*
X45066Y201894D01*
X45146Y201937D01*
X45230Y201973D01*
X45262Y201999D01*
X45283Y202010D01*
X45305Y202033D01*
X45361Y202078D01*
X62303Y219020D01*
X65198Y220219D01*
X265741Y220219D01*
X265806Y220229D01*
X265872Y220230D01*
X265952Y220253D01*
X265984Y220258D01*
X266001Y220268D01*
X266033Y220277D01*
X266506Y220473D01*
X284166Y220473D01*
X286479Y219515D01*
X286543Y219500D01*
X286604Y219475D01*
X286686Y219466D01*
X286718Y219459D01*
X286738Y219460D01*
X286770Y219457D01*
X318304Y219457D01*
X321199Y218258D01*
X323414Y216043D01*
X324613Y213148D01*
X324613Y210016D01*
X323414Y207121D01*
X321199Y204906D01*
X318304Y203707D01*
X285544Y203707D01*
X285479Y203697D01*
X285414Y203696D01*
X285334Y203673D01*
X285301Y203668D01*
X285284Y203658D01*
X285252Y203649D01*
X284166Y203199D01*
X266506Y203199D01*
X263580Y204411D01*
X263516Y204426D01*
X263455Y204451D01*
X263372Y204460D01*
X263340Y204467D01*
X263321Y204466D01*
X263289Y204469D01*
X70341Y204469D01*
X70251Y204455D01*
X70160Y204447D01*
X70130Y204435D01*
X70098Y204430D01*
X70018Y204387D01*
X69934Y204351D01*
X69902Y204325D01*
X69881Y204314D01*
X69859Y204291D01*
X69803Y204246D01*
X48448Y182891D01*
X48395Y182817D01*
X48335Y182748D01*
X48323Y182718D01*
X48304Y182691D01*
X48277Y182604D01*
X48243Y182520D01*
X48239Y182479D01*
X48232Y182456D01*
X48233Y182424D01*
X48225Y182353D01*
X48225Y173185D01*
X45545Y170505D01*
X35655Y170505D01*
G37*
%LPD*%
%LPC*%
G36*
X280804Y102483D02*
X280804Y102483D01*
X279911Y103376D01*
X279911Y125640D01*
X280804Y126533D01*
X283300Y126533D01*
X283320Y126536D01*
X283339Y126534D01*
X283441Y126556D01*
X283543Y126572D01*
X283560Y126582D01*
X283580Y126586D01*
X283669Y126639D01*
X283760Y126688D01*
X283774Y126702D01*
X283791Y126712D01*
X283858Y126791D01*
X283930Y126866D01*
X283938Y126884D01*
X283951Y126899D01*
X283990Y126995D01*
X284033Y127089D01*
X284035Y127109D01*
X284043Y127127D01*
X284061Y127294D01*
X284061Y146690D01*
X285260Y149585D01*
X351510Y215835D01*
X351563Y215909D01*
X351623Y215978D01*
X351635Y216008D01*
X351654Y216035D01*
X351681Y216122D01*
X351715Y216206D01*
X351719Y216247D01*
X351726Y216270D01*
X351725Y216302D01*
X351733Y216373D01*
X351733Y248164D01*
X351729Y248189D01*
X351731Y248205D01*
X351718Y248266D01*
X351711Y248345D01*
X351699Y248375D01*
X351694Y248407D01*
X351682Y248428D01*
X351679Y248445D01*
X351645Y248502D01*
X351615Y248571D01*
X351589Y248603D01*
X351578Y248624D01*
X351563Y248639D01*
X351552Y248656D01*
X351536Y248671D01*
X351510Y248702D01*
X347506Y252706D01*
X345333Y257953D01*
X345333Y263631D01*
X347506Y268878D01*
X351522Y272894D01*
X356769Y275067D01*
X362447Y275067D01*
X367694Y272894D01*
X371710Y268878D01*
X373883Y263631D01*
X373883Y257953D01*
X371710Y252706D01*
X367706Y248702D01*
X367664Y248644D01*
X367616Y248593D01*
X367608Y248576D01*
X367593Y248559D01*
X367581Y248529D01*
X367562Y248502D01*
X367540Y248429D01*
X367512Y248370D01*
X367510Y248353D01*
X367501Y248331D01*
X367497Y248290D01*
X367490Y248267D01*
X367491Y248235D01*
X367483Y248164D01*
X367483Y215357D01*
X367497Y215267D01*
X367505Y215176D01*
X367517Y215146D01*
X367522Y215114D01*
X367565Y215034D01*
X367601Y214950D01*
X367627Y214918D01*
X367638Y214897D01*
X367661Y214875D01*
X367706Y214819D01*
X393134Y189391D01*
X393150Y189379D01*
X393162Y189364D01*
X393250Y189307D01*
X393334Y189247D01*
X393353Y189241D01*
X393369Y189231D01*
X393470Y189205D01*
X393569Y189175D01*
X393589Y189175D01*
X393608Y189170D01*
X393711Y189178D01*
X393815Y189181D01*
X393833Y189188D01*
X393853Y189190D01*
X393948Y189230D01*
X394046Y189266D01*
X394061Y189278D01*
X394079Y189286D01*
X394210Y189391D01*
X394636Y189817D01*
X413900Y189817D01*
X414793Y188924D01*
X414793Y165660D01*
X413900Y164767D01*
X394636Y164767D01*
X393743Y165660D01*
X393743Y168656D01*
X393740Y168676D01*
X393742Y168695D01*
X393720Y168797D01*
X393704Y168899D01*
X393694Y168916D01*
X393690Y168936D01*
X393637Y169025D01*
X393588Y169116D01*
X393574Y169130D01*
X393564Y169147D01*
X393485Y169214D01*
X393410Y169286D01*
X393392Y169294D01*
X393377Y169307D01*
X393281Y169346D01*
X393187Y169389D01*
X393167Y169391D01*
X393149Y169399D01*
X392982Y169417D01*
X392530Y169417D01*
X389635Y170616D01*
X387313Y172938D01*
X359638Y200613D01*
X359622Y200625D01*
X359610Y200640D01*
X359522Y200697D01*
X359439Y200757D01*
X359420Y200763D01*
X359403Y200773D01*
X359302Y200799D01*
X359203Y200829D01*
X359184Y200829D01*
X359164Y200833D01*
X359061Y200825D01*
X358958Y200823D01*
X358939Y200816D01*
X358919Y200814D01*
X358824Y200774D01*
X358727Y200738D01*
X358711Y200726D01*
X358693Y200718D01*
X358562Y200613D01*
X300034Y142085D01*
X299981Y142011D01*
X299921Y141942D01*
X299909Y141912D01*
X299890Y141885D01*
X299863Y141798D01*
X299829Y141714D01*
X299825Y141673D01*
X299818Y141650D01*
X299819Y141618D01*
X299811Y141547D01*
X299811Y127294D01*
X299814Y127274D01*
X299812Y127255D01*
X299834Y127153D01*
X299850Y127051D01*
X299860Y127034D01*
X299864Y127014D01*
X299917Y126925D01*
X299966Y126834D01*
X299980Y126820D01*
X299990Y126803D01*
X300069Y126736D01*
X300144Y126664D01*
X300162Y126656D01*
X300177Y126643D01*
X300273Y126604D01*
X300367Y126561D01*
X300387Y126559D01*
X300405Y126551D01*
X300572Y126533D01*
X303068Y126533D01*
X303961Y125640D01*
X303961Y103376D01*
X303068Y102483D01*
X280804Y102483D01*
G37*
%LPD*%
%LPC*%
G36*
X123180Y129563D02*
X123180Y129563D01*
X122287Y130456D01*
X122287Y144420D01*
X123180Y145313D01*
X125476Y145313D01*
X125496Y145316D01*
X125515Y145314D01*
X125617Y145336D01*
X125719Y145352D01*
X125736Y145362D01*
X125756Y145366D01*
X125845Y145419D01*
X125936Y145468D01*
X125950Y145482D01*
X125967Y145492D01*
X126034Y145571D01*
X126106Y145646D01*
X126114Y145664D01*
X126127Y145679D01*
X126166Y145775D01*
X126209Y145869D01*
X126211Y145889D01*
X126219Y145907D01*
X126237Y146074D01*
X126237Y171427D01*
X126223Y171517D01*
X126215Y171608D01*
X126203Y171638D01*
X126198Y171670D01*
X126155Y171750D01*
X126119Y171834D01*
X126093Y171866D01*
X126082Y171887D01*
X126059Y171909D01*
X126014Y171965D01*
X119897Y178082D01*
X119823Y178135D01*
X119754Y178195D01*
X119724Y178207D01*
X119697Y178226D01*
X119610Y178253D01*
X119526Y178287D01*
X119485Y178291D01*
X119462Y178298D01*
X119430Y178297D01*
X119359Y178305D01*
X94786Y178305D01*
X94766Y178302D01*
X94747Y178304D01*
X94645Y178282D01*
X94543Y178266D01*
X94526Y178256D01*
X94506Y178252D01*
X94417Y178199D01*
X94326Y178150D01*
X94312Y178136D01*
X94295Y178126D01*
X94228Y178047D01*
X94156Y177972D01*
X94148Y177954D01*
X94135Y177939D01*
X94096Y177843D01*
X94053Y177749D01*
X94051Y177729D01*
X94043Y177711D01*
X94025Y177544D01*
X94025Y173185D01*
X91345Y170505D01*
X81455Y170505D01*
X78775Y173185D01*
X78775Y183859D01*
X78765Y183923D01*
X78764Y183989D01*
X78741Y184069D01*
X78736Y184101D01*
X78726Y184119D01*
X78717Y184150D01*
X78525Y184614D01*
X78525Y187746D01*
X78717Y188210D01*
X78732Y188274D01*
X78757Y188335D01*
X78766Y188417D01*
X78773Y188449D01*
X78772Y188469D01*
X78775Y188501D01*
X78775Y199175D01*
X81455Y201855D01*
X91345Y201855D01*
X94025Y199175D01*
X94025Y194816D01*
X94028Y194796D01*
X94026Y194777D01*
X94048Y194675D01*
X94064Y194573D01*
X94074Y194556D01*
X94078Y194536D01*
X94131Y194447D01*
X94180Y194356D01*
X94194Y194342D01*
X94204Y194325D01*
X94283Y194258D01*
X94358Y194186D01*
X94376Y194178D01*
X94391Y194165D01*
X94487Y194126D01*
X94581Y194083D01*
X94601Y194081D01*
X94619Y194073D01*
X94786Y194055D01*
X131776Y194055D01*
X131841Y194065D01*
X131906Y194066D01*
X131986Y194089D01*
X132019Y194094D01*
X132036Y194104D01*
X132067Y194113D01*
X132546Y194311D01*
X264515Y194311D01*
X264580Y194321D01*
X264645Y194322D01*
X264725Y194345D01*
X264758Y194350D01*
X264775Y194360D01*
X264806Y194369D01*
X266506Y195073D01*
X284166Y195073D01*
X287340Y193758D01*
X289770Y191328D01*
X291085Y188154D01*
X291085Y184718D01*
X289770Y181544D01*
X287340Y179114D01*
X284166Y177799D01*
X266506Y177799D01*
X264806Y178503D01*
X264743Y178518D01*
X264682Y178543D01*
X264599Y178552D01*
X264567Y178559D01*
X264548Y178558D01*
X264515Y178561D01*
X148609Y178561D01*
X148519Y178547D01*
X148428Y178539D01*
X148398Y178527D01*
X148366Y178522D01*
X148286Y178479D01*
X148202Y178443D01*
X148170Y178417D01*
X148149Y178406D01*
X148127Y178383D01*
X148071Y178338D01*
X142210Y172477D01*
X142157Y172403D01*
X142097Y172334D01*
X142085Y172304D01*
X142066Y172277D01*
X142039Y172190D01*
X142005Y172106D01*
X142001Y172065D01*
X141994Y172042D01*
X141995Y172010D01*
X141987Y171939D01*
X141987Y146074D01*
X141990Y146054D01*
X141988Y146035D01*
X142010Y145933D01*
X142026Y145831D01*
X142036Y145814D01*
X142040Y145794D01*
X142093Y145705D01*
X142142Y145614D01*
X142156Y145600D01*
X142166Y145583D01*
X142245Y145516D01*
X142320Y145444D01*
X142338Y145436D01*
X142353Y145423D01*
X142449Y145384D01*
X142543Y145341D01*
X142563Y145339D01*
X142581Y145331D01*
X142748Y145313D01*
X145044Y145313D01*
X145937Y144420D01*
X145937Y130456D01*
X145044Y129563D01*
X123180Y129563D01*
G37*
%LPD*%
%LPC*%
G36*
X116076Y655867D02*
X116076Y655867D01*
X115183Y656760D01*
X115183Y679024D01*
X116076Y679917D01*
X127781Y679917D01*
X127871Y679931D01*
X127962Y679939D01*
X127992Y679951D01*
X128024Y679956D01*
X128104Y679999D01*
X128188Y680035D01*
X128220Y680061D01*
X128241Y680072D01*
X128263Y680095D01*
X128319Y680140D01*
X152049Y703870D01*
X154371Y706192D01*
X157266Y707391D01*
X304889Y707391D01*
X304909Y707394D01*
X304928Y707392D01*
X305030Y707414D01*
X305132Y707430D01*
X305149Y707440D01*
X305169Y707444D01*
X305258Y707497D01*
X305349Y707546D01*
X305363Y707560D01*
X305380Y707570D01*
X305447Y707649D01*
X305519Y707724D01*
X305527Y707742D01*
X305540Y707757D01*
X305579Y707853D01*
X305622Y707947D01*
X305624Y707967D01*
X305632Y707985D01*
X305650Y708152D01*
X305650Y709673D01*
X306543Y710566D01*
X326857Y710566D01*
X327750Y709673D01*
X327750Y689359D01*
X326857Y688466D01*
X306543Y688466D01*
X305650Y689359D01*
X305650Y690880D01*
X305647Y690900D01*
X305649Y690919D01*
X305627Y691021D01*
X305611Y691123D01*
X305601Y691140D01*
X305597Y691160D01*
X305544Y691249D01*
X305495Y691340D01*
X305481Y691354D01*
X305471Y691371D01*
X305392Y691438D01*
X305317Y691510D01*
X305299Y691518D01*
X305284Y691531D01*
X305188Y691570D01*
X305094Y691613D01*
X305074Y691615D01*
X305056Y691623D01*
X304889Y691641D01*
X162409Y691641D01*
X162319Y691627D01*
X162228Y691619D01*
X162198Y691607D01*
X162166Y691602D01*
X162086Y691559D01*
X162002Y691523D01*
X161970Y691497D01*
X161949Y691486D01*
X161927Y691463D01*
X161871Y691418D01*
X139456Y669003D01*
X139403Y668929D01*
X139343Y668860D01*
X139331Y668830D01*
X139312Y668803D01*
X139285Y668716D01*
X139251Y668632D01*
X139247Y668591D01*
X139240Y668568D01*
X139241Y668536D01*
X139233Y668465D01*
X139233Y656760D01*
X138340Y655867D01*
X116076Y655867D01*
G37*
%LPD*%
%LPC*%
G36*
X596199Y240537D02*
X596199Y240537D01*
X592558Y242045D01*
X589771Y244832D01*
X588263Y248473D01*
X588263Y252415D01*
X589771Y256056D01*
X592558Y258843D01*
X596199Y260351D01*
X597916Y260351D01*
X597936Y260354D01*
X597955Y260352D01*
X598057Y260374D01*
X598159Y260390D01*
X598176Y260400D01*
X598196Y260404D01*
X598285Y260457D01*
X598376Y260506D01*
X598390Y260520D01*
X598407Y260530D01*
X598474Y260609D01*
X598546Y260684D01*
X598554Y260702D01*
X598567Y260717D01*
X598606Y260813D01*
X598649Y260907D01*
X598651Y260927D01*
X598659Y260945D01*
X598677Y261112D01*
X598677Y371555D01*
X598663Y371645D01*
X598655Y371736D01*
X598643Y371766D01*
X598638Y371798D01*
X598595Y371879D01*
X598559Y371962D01*
X598533Y371995D01*
X598522Y372015D01*
X598499Y372037D01*
X598454Y372093D01*
X597939Y372608D01*
X597939Y394472D01*
X598046Y394579D01*
X598093Y394643D01*
X598107Y394658D01*
X598110Y394665D01*
X598159Y394722D01*
X598171Y394752D01*
X598190Y394778D01*
X598217Y394865D01*
X598251Y394950D01*
X598255Y394991D01*
X598262Y395013D01*
X598261Y395046D01*
X598269Y395117D01*
X598269Y414902D01*
X598268Y414912D01*
X598268Y414918D01*
X598267Y414926D01*
X598268Y414941D01*
X598246Y415043D01*
X598230Y415145D01*
X598220Y415162D01*
X598216Y415182D01*
X598163Y415271D01*
X598114Y415362D01*
X598100Y415376D01*
X598090Y415393D01*
X598011Y415460D01*
X597936Y415532D01*
X597918Y415540D01*
X597903Y415553D01*
X597807Y415592D01*
X597713Y415635D01*
X597693Y415637D01*
X597675Y415645D01*
X597508Y415663D01*
X596512Y415663D01*
X595619Y416556D01*
X595619Y439820D01*
X596512Y440713D01*
X615776Y440713D01*
X616669Y439820D01*
X616669Y416556D01*
X615776Y415663D01*
X614780Y415663D01*
X614760Y415660D01*
X614741Y415662D01*
X614639Y415640D01*
X614537Y415624D01*
X614520Y415614D01*
X614500Y415610D01*
X614411Y415557D01*
X614320Y415508D01*
X614306Y415494D01*
X614289Y415484D01*
X614222Y415405D01*
X614150Y415330D01*
X614142Y415312D01*
X614129Y415297D01*
X614090Y415201D01*
X614047Y415107D01*
X614045Y415087D01*
X614037Y415069D01*
X614019Y414902D01*
X614019Y386521D01*
X614029Y386456D01*
X614030Y386391D01*
X614053Y386311D01*
X614058Y386278D01*
X614068Y386261D01*
X614077Y386229D01*
X614427Y385384D01*
X614427Y385380D01*
X614437Y385315D01*
X614438Y385249D01*
X614461Y385169D01*
X614466Y385137D01*
X614476Y385120D01*
X614485Y385088D01*
X615035Y383760D01*
X615035Y380628D01*
X614485Y379300D01*
X614470Y379236D01*
X614445Y379175D01*
X614436Y379092D01*
X614429Y379060D01*
X614430Y379041D01*
X614427Y379008D01*
X614427Y261112D01*
X614430Y261092D01*
X614428Y261073D01*
X614450Y260971D01*
X614466Y260869D01*
X614476Y260852D01*
X614480Y260832D01*
X614533Y260743D01*
X614582Y260652D01*
X614596Y260638D01*
X614606Y260621D01*
X614685Y260554D01*
X614760Y260482D01*
X614778Y260474D01*
X614793Y260461D01*
X614889Y260422D01*
X614983Y260379D01*
X615003Y260377D01*
X615021Y260369D01*
X615188Y260351D01*
X616905Y260351D01*
X620546Y258843D01*
X623333Y256056D01*
X624841Y252415D01*
X624841Y248473D01*
X623333Y244832D01*
X620546Y242045D01*
X616905Y240537D01*
X596199Y240537D01*
G37*
%LPD*%
%LPC*%
G36*
X444400Y124827D02*
X444400Y124827D01*
X443507Y125720D01*
X443507Y147584D01*
X444400Y148477D01*
X446632Y148477D01*
X446652Y148480D01*
X446671Y148478D01*
X446773Y148500D01*
X446875Y148516D01*
X446892Y148526D01*
X446912Y148530D01*
X447001Y148583D01*
X447092Y148632D01*
X447106Y148646D01*
X447123Y148656D01*
X447190Y148735D01*
X447262Y148810D01*
X447270Y148828D01*
X447283Y148843D01*
X447322Y148939D01*
X447365Y149033D01*
X447367Y149053D01*
X447375Y149071D01*
X447393Y149238D01*
X447393Y164006D01*
X447390Y164026D01*
X447392Y164045D01*
X447370Y164147D01*
X447354Y164249D01*
X447344Y164266D01*
X447340Y164286D01*
X447287Y164375D01*
X447238Y164466D01*
X447224Y164480D01*
X447214Y164497D01*
X447135Y164564D01*
X447060Y164636D01*
X447042Y164644D01*
X447027Y164657D01*
X446931Y164696D01*
X446837Y164739D01*
X446817Y164741D01*
X446799Y164749D01*
X446632Y164767D01*
X445636Y164767D01*
X444743Y165660D01*
X444743Y188924D01*
X445636Y189817D01*
X456341Y189817D01*
X456431Y189831D01*
X456522Y189839D01*
X456552Y189851D01*
X456584Y189856D01*
X456664Y189899D01*
X456748Y189935D01*
X456780Y189961D01*
X456801Y189972D01*
X456823Y189995D01*
X456879Y190040D01*
X470946Y204107D01*
X470999Y204181D01*
X471059Y204250D01*
X471071Y204280D01*
X471090Y204307D01*
X471117Y204394D01*
X471151Y204478D01*
X471155Y204519D01*
X471162Y204542D01*
X471161Y204574D01*
X471169Y204645D01*
X471169Y248728D01*
X471155Y248818D01*
X471147Y248909D01*
X471135Y248939D01*
X471130Y248971D01*
X471087Y249051D01*
X471051Y249135D01*
X471025Y249167D01*
X471014Y249188D01*
X470991Y249210D01*
X470946Y249266D01*
X467506Y252706D01*
X465333Y257953D01*
X465333Y263631D01*
X467506Y268878D01*
X471522Y272894D01*
X476769Y275067D01*
X482447Y275067D01*
X487694Y272894D01*
X491710Y268878D01*
X493883Y263631D01*
X493883Y257953D01*
X491710Y252706D01*
X487694Y248690D01*
X487389Y248564D01*
X487289Y248502D01*
X487189Y248442D01*
X487185Y248438D01*
X487180Y248434D01*
X487105Y248344D01*
X487029Y248256D01*
X487027Y248250D01*
X487023Y248245D01*
X486981Y248136D01*
X486937Y248027D01*
X486936Y248020D01*
X486935Y248015D01*
X486934Y247997D01*
X486919Y247861D01*
X486919Y199502D01*
X485720Y196607D01*
X466016Y176903D01*
X465963Y176829D01*
X465903Y176760D01*
X465891Y176730D01*
X465872Y176703D01*
X465845Y176616D01*
X465811Y176532D01*
X465807Y176491D01*
X465800Y176468D01*
X465801Y176436D01*
X465793Y176365D01*
X465793Y165660D01*
X464900Y164767D01*
X463904Y164767D01*
X463884Y164764D01*
X463865Y164766D01*
X463763Y164744D01*
X463661Y164728D01*
X463644Y164718D01*
X463624Y164714D01*
X463535Y164661D01*
X463444Y164612D01*
X463430Y164598D01*
X463413Y164588D01*
X463346Y164509D01*
X463274Y164434D01*
X463266Y164416D01*
X463253Y164401D01*
X463214Y164305D01*
X463171Y164211D01*
X463169Y164191D01*
X463161Y164173D01*
X463143Y164006D01*
X463143Y138972D01*
X461944Y136077D01*
X459480Y133613D01*
X459427Y133539D01*
X459367Y133470D01*
X459355Y133440D01*
X459336Y133413D01*
X459309Y133326D01*
X459275Y133242D01*
X459271Y133201D01*
X459264Y133178D01*
X459265Y133146D01*
X459257Y133075D01*
X459257Y125720D01*
X458364Y124827D01*
X444400Y124827D01*
G37*
%LPD*%
%LPC*%
G36*
X611141Y10439D02*
X611141Y10439D01*
X603470Y12495D01*
X596593Y16465D01*
X590977Y22081D01*
X587007Y28958D01*
X584951Y36629D01*
X584951Y44571D01*
X587007Y52242D01*
X590977Y59119D01*
X596593Y64735D01*
X603470Y68705D01*
X611141Y70761D01*
X619083Y70761D01*
X626754Y68705D01*
X633631Y64735D01*
X639247Y59119D01*
X643217Y52242D01*
X645273Y44571D01*
X645273Y36629D01*
X643217Y28958D01*
X639247Y22081D01*
X633631Y16465D01*
X626754Y12495D01*
X619083Y10439D01*
X611141Y10439D01*
G37*
%LPD*%
%LPC*%
G36*
X308665Y10947D02*
X308665Y10947D01*
X300994Y13003D01*
X294117Y16973D01*
X288501Y22589D01*
X284531Y29466D01*
X282475Y37137D01*
X282475Y45079D01*
X284531Y52750D01*
X288501Y59627D01*
X294117Y65243D01*
X300994Y69213D01*
X308665Y71269D01*
X316607Y71269D01*
X324278Y69213D01*
X331155Y65243D01*
X336771Y59627D01*
X340741Y52750D01*
X342797Y45079D01*
X342797Y37137D01*
X340741Y29466D01*
X336771Y22589D01*
X331155Y16973D01*
X324278Y13003D01*
X316607Y10947D01*
X308665Y10947D01*
G37*
%LPD*%
%LPC*%
G36*
X49837Y604331D02*
X49837Y604331D01*
X42166Y606387D01*
X35289Y610357D01*
X29673Y615973D01*
X25703Y622850D01*
X23647Y630521D01*
X23647Y638463D01*
X25703Y646134D01*
X29673Y653011D01*
X35289Y658627D01*
X42166Y662597D01*
X49837Y664653D01*
X57779Y664653D01*
X65450Y662597D01*
X72327Y658627D01*
X77943Y653011D01*
X81913Y646134D01*
X83969Y638463D01*
X83969Y630521D01*
X81913Y622850D01*
X77943Y615973D01*
X72327Y610357D01*
X65450Y606387D01*
X57779Y604331D01*
X49837Y604331D01*
G37*
%LPD*%
%LPC*%
G36*
X48355Y330017D02*
X48355Y330017D01*
X45675Y332697D01*
X45675Y343371D01*
X45665Y343435D01*
X45664Y343501D01*
X45641Y343581D01*
X45636Y343613D01*
X45626Y343631D01*
X45617Y343662D01*
X45425Y344126D01*
X45425Y374398D01*
X46624Y377293D01*
X68183Y398852D01*
X71078Y400051D01*
X102087Y400051D01*
X102177Y400065D01*
X102268Y400073D01*
X102298Y400085D01*
X102330Y400090D01*
X102410Y400133D01*
X102494Y400169D01*
X102526Y400195D01*
X102547Y400206D01*
X102569Y400229D01*
X102625Y400274D01*
X109250Y406899D01*
X109303Y406973D01*
X109363Y407042D01*
X109375Y407072D01*
X109394Y407099D01*
X109421Y407186D01*
X109455Y407270D01*
X109459Y407311D01*
X109466Y407334D01*
X109465Y407366D01*
X109473Y407437D01*
X109473Y415040D01*
X109459Y415130D01*
X109451Y415221D01*
X109439Y415251D01*
X109434Y415283D01*
X109391Y415364D01*
X109355Y415448D01*
X109329Y415480D01*
X109318Y415501D01*
X109295Y415523D01*
X109250Y415579D01*
X109165Y415664D01*
X107695Y419212D01*
X107695Y423052D01*
X109165Y426600D01*
X111880Y429315D01*
X115428Y430785D01*
X119268Y430785D01*
X122816Y429315D01*
X125531Y426600D01*
X127001Y423052D01*
X127001Y419212D01*
X125531Y415664D01*
X125446Y415579D01*
X125392Y415505D01*
X125333Y415435D01*
X125321Y415405D01*
X125302Y415379D01*
X125275Y415292D01*
X125241Y415207D01*
X125237Y415166D01*
X125230Y415144D01*
X125231Y415112D01*
X125223Y415040D01*
X125223Y402294D01*
X124024Y399399D01*
X110125Y385500D01*
X107230Y384301D01*
X76221Y384301D01*
X76131Y384287D01*
X76040Y384279D01*
X76010Y384267D01*
X75978Y384262D01*
X75898Y384219D01*
X75814Y384183D01*
X75782Y384157D01*
X75761Y384146D01*
X75739Y384123D01*
X75683Y384078D01*
X61398Y369793D01*
X61345Y369719D01*
X61285Y369650D01*
X61273Y369620D01*
X61254Y369593D01*
X61227Y369506D01*
X61193Y369422D01*
X61189Y369381D01*
X61182Y369358D01*
X61183Y369326D01*
X61175Y369255D01*
X61175Y344126D01*
X60983Y343662D01*
X60968Y343598D01*
X60943Y343537D01*
X60934Y343454D01*
X60927Y343422D01*
X60928Y343403D01*
X60925Y343371D01*
X60925Y332697D01*
X58245Y330017D01*
X48355Y330017D01*
G37*
%LPD*%
%LPC*%
G36*
X583280Y101975D02*
X583280Y101975D01*
X582387Y102868D01*
X582387Y125132D01*
X583280Y126025D01*
X585776Y126025D01*
X585796Y126028D01*
X585815Y126026D01*
X585917Y126048D01*
X586019Y126064D01*
X586036Y126074D01*
X586056Y126078D01*
X586145Y126131D01*
X586236Y126180D01*
X586250Y126194D01*
X586267Y126204D01*
X586334Y126283D01*
X586406Y126358D01*
X586414Y126376D01*
X586427Y126391D01*
X586466Y126487D01*
X586509Y126581D01*
X586511Y126601D01*
X586519Y126619D01*
X586537Y126786D01*
X586537Y189070D01*
X587736Y191965D01*
X589421Y193650D01*
X589489Y193744D01*
X589559Y193838D01*
X589561Y193844D01*
X589565Y193850D01*
X589599Y193961D01*
X589635Y194072D01*
X589635Y194079D01*
X589637Y194085D01*
X589634Y194201D01*
X589633Y194318D01*
X589631Y194326D01*
X589631Y194330D01*
X589624Y194348D01*
X589586Y194479D01*
X588263Y197673D01*
X588263Y201615D01*
X589771Y205256D01*
X592558Y208043D01*
X596199Y209551D01*
X616905Y209551D01*
X620546Y208043D01*
X623333Y205256D01*
X624841Y201615D01*
X624841Y197673D01*
X623333Y194032D01*
X620546Y191245D01*
X616905Y189737D01*
X608097Y189737D01*
X608007Y189723D01*
X607916Y189715D01*
X607886Y189703D01*
X607854Y189698D01*
X607774Y189655D01*
X607690Y189619D01*
X607658Y189593D01*
X607637Y189582D01*
X607615Y189559D01*
X607559Y189514D01*
X602510Y184465D01*
X602457Y184391D01*
X602397Y184322D01*
X602385Y184292D01*
X602366Y184265D01*
X602339Y184178D01*
X602305Y184094D01*
X602301Y184053D01*
X602294Y184030D01*
X602295Y183998D01*
X602287Y183927D01*
X602287Y126786D01*
X602290Y126766D01*
X602288Y126747D01*
X602310Y126645D01*
X602326Y126543D01*
X602336Y126526D01*
X602340Y126506D01*
X602393Y126417D01*
X602442Y126326D01*
X602456Y126312D01*
X602466Y126295D01*
X602545Y126228D01*
X602620Y126156D01*
X602638Y126148D01*
X602653Y126135D01*
X602749Y126096D01*
X602843Y126053D01*
X602863Y126051D01*
X602881Y126043D01*
X603048Y126025D01*
X605544Y126025D01*
X606437Y125132D01*
X606437Y102868D01*
X605544Y101975D01*
X583280Y101975D01*
G37*
%LPD*%
%LPC*%
G36*
X778301Y198373D02*
X778301Y198373D01*
X771517Y200191D01*
X765436Y203702D01*
X760470Y208668D01*
X756959Y214749D01*
X755141Y221533D01*
X755141Y228555D01*
X756959Y235339D01*
X760470Y241420D01*
X765436Y246386D01*
X771517Y249897D01*
X778301Y251715D01*
X785323Y251715D01*
X792107Y249897D01*
X798188Y246386D01*
X803154Y241420D01*
X806665Y235339D01*
X808483Y228555D01*
X808483Y221533D01*
X806665Y214749D01*
X803154Y208668D01*
X798188Y203702D01*
X792107Y200191D01*
X785323Y198373D01*
X778301Y198373D01*
G37*
%LPD*%
%LPC*%
G36*
X229574Y233425D02*
X229574Y233425D01*
X226679Y234624D01*
X224464Y236839D01*
X223265Y239734D01*
X223265Y243882D01*
X224464Y246777D01*
X267238Y289551D01*
X267291Y289625D01*
X267351Y289694D01*
X267363Y289724D01*
X267382Y289751D01*
X267409Y289838D01*
X267443Y289922D01*
X267447Y289963D01*
X267454Y289986D01*
X267453Y290018D01*
X267461Y290089D01*
X267461Y300990D01*
X267458Y301010D01*
X267460Y301029D01*
X267438Y301131D01*
X267422Y301233D01*
X267412Y301250D01*
X267408Y301270D01*
X267355Y301359D01*
X267306Y301450D01*
X267292Y301464D01*
X267282Y301481D01*
X267203Y301548D01*
X267128Y301620D01*
X267110Y301628D01*
X267095Y301641D01*
X266999Y301680D01*
X266905Y301723D01*
X266885Y301725D01*
X266867Y301733D01*
X266700Y301751D01*
X266506Y301751D01*
X263332Y303066D01*
X260902Y305496D01*
X259587Y308670D01*
X259587Y312106D01*
X260902Y315280D01*
X263332Y317710D01*
X266506Y319025D01*
X284166Y319025D01*
X287340Y317710D01*
X289770Y315280D01*
X291085Y312106D01*
X291085Y308670D01*
X289770Y305496D01*
X287340Y303066D01*
X284166Y301751D01*
X283972Y301751D01*
X283952Y301748D01*
X283933Y301750D01*
X283831Y301728D01*
X283729Y301712D01*
X283712Y301702D01*
X283692Y301698D01*
X283603Y301645D01*
X283512Y301596D01*
X283498Y301582D01*
X283481Y301572D01*
X283414Y301493D01*
X283342Y301418D01*
X283334Y301400D01*
X283321Y301385D01*
X283282Y301289D01*
X283239Y301195D01*
X283237Y301175D01*
X283229Y301157D01*
X283211Y300990D01*
X283211Y284946D01*
X282012Y282051D01*
X238641Y238681D01*
X238603Y238628D01*
X238557Y238581D01*
X238517Y238508D01*
X238498Y238481D01*
X238492Y238463D01*
X238476Y238434D01*
X237816Y236839D01*
X235601Y234624D01*
X232706Y233425D01*
X229574Y233425D01*
G37*
%LPD*%
%LPC*%
G36*
X351738Y465743D02*
X351738Y465743D01*
X350845Y466636D01*
X350845Y480600D01*
X351738Y481493D01*
X354033Y481493D01*
X354053Y481496D01*
X354073Y481494D01*
X354174Y481516D01*
X354276Y481532D01*
X354294Y481542D01*
X354313Y481546D01*
X354402Y481599D01*
X354493Y481648D01*
X354507Y481662D01*
X354524Y481672D01*
X354592Y481751D01*
X354663Y481826D01*
X354671Y481844D01*
X354684Y481859D01*
X354723Y481955D01*
X354766Y482049D01*
X354769Y482069D01*
X354776Y482087D01*
X354795Y482254D01*
X354795Y483270D01*
X354780Y483360D01*
X354773Y483451D01*
X354760Y483480D01*
X354755Y483512D01*
X354712Y483593D01*
X354676Y483677D01*
X354651Y483709D01*
X354640Y483730D01*
X354616Y483752D01*
X354572Y483808D01*
X318157Y520222D01*
X318083Y520275D01*
X318014Y520335D01*
X317984Y520347D01*
X317957Y520366D01*
X317870Y520393D01*
X317786Y520427D01*
X317745Y520431D01*
X317722Y520438D01*
X317690Y520437D01*
X317619Y520445D01*
X316584Y520445D01*
X312756Y522031D01*
X309827Y524960D01*
X308241Y528788D01*
X308241Y532932D01*
X309827Y536760D01*
X312756Y539689D01*
X316584Y541275D01*
X320728Y541275D01*
X324556Y539689D01*
X327485Y536760D01*
X329071Y532932D01*
X329071Y531897D01*
X329086Y531807D01*
X329093Y531716D01*
X329105Y531686D01*
X329110Y531654D01*
X329153Y531574D01*
X329189Y531490D01*
X329215Y531458D01*
X329226Y531437D01*
X329249Y531415D01*
X329294Y531359D01*
X369345Y491307D01*
X370544Y488413D01*
X370544Y482254D01*
X370547Y482234D01*
X370545Y482215D01*
X370567Y482113D01*
X370584Y482011D01*
X370593Y481994D01*
X370597Y481974D01*
X370651Y481885D01*
X370699Y481794D01*
X370713Y481780D01*
X370724Y481763D01*
X370802Y481696D01*
X370877Y481624D01*
X370895Y481616D01*
X370910Y481603D01*
X371007Y481564D01*
X371100Y481521D01*
X371120Y481519D01*
X371139Y481511D01*
X371305Y481493D01*
X373601Y481493D01*
X374494Y480600D01*
X374494Y466636D01*
X373601Y465743D01*
X351738Y465743D01*
G37*
%LPD*%
%LPC*%
G36*
X236407Y640841D02*
X236407Y640841D01*
X228845Y643974D01*
X223058Y649761D01*
X219925Y657323D01*
X219925Y665509D01*
X223058Y673071D01*
X228845Y678858D01*
X236407Y681991D01*
X244593Y681991D01*
X252155Y678858D01*
X257942Y673071D01*
X261075Y665509D01*
X261075Y657323D01*
X257942Y649761D01*
X252155Y643974D01*
X244593Y640841D01*
X236407Y640841D01*
G37*
%LPD*%
%LPC*%
G36*
X64628Y487679D02*
X64628Y487679D01*
X61080Y489149D01*
X58365Y491864D01*
X56895Y495412D01*
X56895Y495533D01*
X56881Y495623D01*
X56873Y495714D01*
X56861Y495744D01*
X56856Y495776D01*
X56813Y495856D01*
X56777Y495940D01*
X56751Y495972D01*
X56740Y495993D01*
X56717Y496015D01*
X56672Y496071D01*
X51248Y501495D01*
X48926Y503817D01*
X47727Y506712D01*
X47727Y553476D01*
X48620Y554369D01*
X62584Y554369D01*
X63477Y553476D01*
X63477Y511855D01*
X63491Y511765D01*
X63499Y511674D01*
X63511Y511644D01*
X63516Y511612D01*
X63559Y511532D01*
X63595Y511448D01*
X63621Y511416D01*
X63632Y511395D01*
X63655Y511373D01*
X63700Y511317D01*
X67809Y507208D01*
X67883Y507155D01*
X67952Y507095D01*
X67982Y507083D01*
X68009Y507064D01*
X68096Y507037D01*
X68180Y507003D01*
X68221Y506999D01*
X68244Y506992D01*
X68276Y506993D01*
X68347Y506985D01*
X68468Y506985D01*
X72016Y505515D01*
X74731Y502800D01*
X76201Y499252D01*
X76201Y495412D01*
X74731Y491864D01*
X72016Y489149D01*
X68468Y487679D01*
X64628Y487679D01*
G37*
%LPD*%
%LPC*%
G36*
X90028Y487679D02*
X90028Y487679D01*
X86480Y489149D01*
X83765Y491864D01*
X82295Y495412D01*
X82295Y499252D01*
X83765Y502800D01*
X83850Y502885D01*
X83903Y502959D01*
X83963Y503029D01*
X83975Y503059D01*
X83994Y503085D01*
X84021Y503172D01*
X84055Y503257D01*
X84059Y503298D01*
X84066Y503320D01*
X84065Y503352D01*
X84073Y503424D01*
X84073Y530051D01*
X84059Y530141D01*
X84051Y530232D01*
X84039Y530262D01*
X84034Y530294D01*
X83991Y530375D01*
X83955Y530458D01*
X83929Y530491D01*
X83918Y530511D01*
X83895Y530533D01*
X83850Y530589D01*
X82827Y531612D01*
X82827Y553476D01*
X83720Y554369D01*
X97684Y554369D01*
X98577Y553476D01*
X98577Y546024D01*
X98587Y545959D01*
X98588Y545894D01*
X98611Y545814D01*
X98616Y545781D01*
X98626Y545764D01*
X98635Y545733D01*
X99823Y542864D01*
X99823Y503424D01*
X99837Y503334D01*
X99845Y503243D01*
X99857Y503213D01*
X99862Y503181D01*
X99905Y503100D01*
X99941Y503016D01*
X99967Y502984D01*
X99978Y502963D01*
X100001Y502941D01*
X100046Y502885D01*
X100131Y502800D01*
X101601Y499252D01*
X101601Y495412D01*
X100131Y491864D01*
X97416Y489149D01*
X93868Y487679D01*
X90028Y487679D01*
G37*
%LPD*%
%LPC*%
G36*
X512420Y584642D02*
X512420Y584642D01*
X511441Y586740D01*
X512232Y588916D01*
X514330Y589895D01*
X514830Y589713D01*
X514851Y589709D01*
X514870Y589700D01*
X514972Y589687D01*
X515072Y589668D01*
X515093Y589671D01*
X515114Y589668D01*
X515214Y589687D01*
X515315Y589702D01*
X515335Y589711D01*
X515356Y589715D01*
X515444Y589766D01*
X515536Y589811D01*
X515551Y589827D01*
X515569Y589837D01*
X515637Y589913D01*
X515709Y589986D01*
X515719Y590005D01*
X515733Y590021D01*
X515773Y590115D01*
X515818Y590206D01*
X515821Y590227D01*
X515830Y590247D01*
X515838Y590349D01*
X515851Y590450D01*
X515847Y590471D01*
X515849Y590492D01*
X515824Y590591D01*
X515805Y590691D01*
X515794Y590710D01*
X515789Y590731D01*
X515706Y590876D01*
X513079Y594488D01*
X513079Y598323D01*
X514679Y601093D01*
X517449Y602693D01*
X518006Y602693D01*
X518079Y602705D01*
X518154Y602708D01*
X518200Y602725D01*
X518249Y602733D01*
X518314Y602768D01*
X518384Y602794D01*
X518422Y602825D01*
X518466Y602848D01*
X518517Y602902D01*
X518575Y602949D01*
X518601Y602990D01*
X518635Y603026D01*
X518667Y603094D01*
X518706Y603157D01*
X518718Y603205D01*
X518739Y603249D01*
X518747Y603323D01*
X518765Y603396D01*
X518761Y603445D01*
X518766Y603494D01*
X518750Y603566D01*
X518744Y603641D01*
X518724Y603686D01*
X518714Y603734D01*
X518676Y603798D01*
X518646Y603866D01*
X518613Y603903D01*
X518588Y603945D01*
X518531Y603994D01*
X518481Y604049D01*
X518425Y604085D01*
X518401Y604105D01*
X518377Y604114D01*
X518339Y604139D01*
X516611Y604981D01*
X516581Y604990D01*
X516524Y605017D01*
X515093Y605508D01*
X513079Y608327D01*
X513079Y611791D01*
X515093Y614610D01*
X516524Y615101D01*
X516551Y615115D01*
X516611Y615137D01*
X516967Y615310D01*
X517035Y615359D01*
X517109Y615400D01*
X517145Y615437D01*
X517167Y615452D01*
X517185Y615477D01*
X517228Y615519D01*
X517237Y615531D01*
X517342Y615543D01*
X517387Y615555D01*
X517434Y615559D01*
X517560Y615604D01*
X517579Y615609D01*
X517584Y615612D01*
X517592Y615615D01*
X518391Y616005D01*
X518455Y616050D01*
X518524Y616088D01*
X518555Y616121D01*
X518592Y616147D01*
X518638Y616210D01*
X518692Y616268D01*
X518710Y616309D01*
X518737Y616345D01*
X518760Y616421D01*
X518793Y616492D01*
X518797Y616537D01*
X518811Y616580D01*
X518809Y616659D01*
X518817Y616737D01*
X518807Y616781D01*
X518806Y616826D01*
X518780Y616900D01*
X518762Y616977D01*
X518738Y617015D01*
X518723Y617058D01*
X518675Y617119D01*
X518633Y617187D01*
X518599Y617215D01*
X518571Y617251D01*
X518505Y617294D01*
X518445Y617344D01*
X518390Y617369D01*
X518365Y617385D01*
X518339Y617392D01*
X518292Y617413D01*
X517835Y617561D01*
X515709Y618250D01*
X513079Y621865D01*
X513079Y625700D01*
X514679Y628470D01*
X517414Y630050D01*
X517455Y630083D01*
X517501Y630108D01*
X517549Y630160D01*
X517605Y630206D01*
X517632Y630250D01*
X517668Y630288D01*
X517697Y630353D01*
X517735Y630414D01*
X517747Y630465D01*
X517769Y630512D01*
X517776Y630583D01*
X517793Y630653D01*
X517788Y630705D01*
X517793Y630757D01*
X517777Y630827D01*
X517771Y630898D01*
X517750Y630946D01*
X517738Y630997D01*
X517701Y631058D01*
X517672Y631123D01*
X517637Y631162D01*
X517610Y631206D01*
X517555Y631252D01*
X517507Y631305D01*
X517461Y631331D01*
X517421Y631364D01*
X517316Y631412D01*
X517292Y631425D01*
X517282Y631427D01*
X517268Y631433D01*
X515709Y631938D01*
X513079Y635554D01*
X513079Y639388D01*
X514679Y642159D01*
X517449Y643759D01*
X520323Y643759D01*
X522398Y642869D01*
X522399Y642869D01*
X522401Y642868D01*
X522664Y642755D01*
X523413Y641969D01*
X523435Y641952D01*
X523471Y641914D01*
X524525Y641018D01*
X524560Y640997D01*
X524590Y640968D01*
X524665Y640934D01*
X524736Y640891D01*
X524776Y640882D01*
X524813Y640865D01*
X524895Y640856D01*
X524976Y640838D01*
X525017Y640842D01*
X525057Y640838D01*
X525138Y640855D01*
X525220Y640864D01*
X525258Y640881D01*
X525298Y640890D01*
X525369Y640932D01*
X525444Y640967D01*
X525474Y640995D01*
X525509Y641016D01*
X525563Y641079D01*
X525623Y641136D01*
X525642Y641172D01*
X525669Y641203D01*
X525700Y641280D01*
X525739Y641353D01*
X525745Y641393D01*
X525761Y641431D01*
X525778Y641590D01*
X525779Y641595D01*
X525779Y641596D01*
X525779Y641598D01*
X525779Y642122D01*
X527416Y643759D01*
X529732Y643759D01*
X531369Y642122D01*
X531369Y634052D01*
X531372Y634030D01*
X531371Y633991D01*
X531456Y632940D01*
X531456Y632938D01*
X531423Y632884D01*
X531412Y632834D01*
X531397Y632802D01*
X531395Y632788D01*
X531388Y632770D01*
X530652Y632034D01*
X530639Y632016D01*
X530610Y631989D01*
X529780Y631012D01*
X529722Y630915D01*
X529661Y630821D01*
X529659Y630810D01*
X529653Y630801D01*
X529628Y630691D01*
X529601Y630583D01*
X529602Y630572D01*
X529600Y630561D01*
X529612Y630449D01*
X529620Y630338D01*
X529625Y630327D01*
X529626Y630316D01*
X529673Y630214D01*
X529717Y630111D01*
X529725Y630101D01*
X529729Y630093D01*
X529747Y630074D01*
X529821Y629980D01*
X531369Y628433D01*
X531369Y620364D01*
X531372Y620341D01*
X531371Y620302D01*
X531456Y619251D01*
X531456Y619249D01*
X531423Y619195D01*
X531410Y619136D01*
X531388Y619081D01*
X530652Y618345D01*
X530639Y618327D01*
X530610Y618300D01*
X529927Y617497D01*
X529925Y617496D01*
X529864Y617481D01*
X529813Y617448D01*
X529759Y617425D01*
X528718Y617425D01*
X528696Y617421D01*
X528656Y617423D01*
X527605Y617337D01*
X527603Y617338D01*
X527549Y617371D01*
X527490Y617384D01*
X527436Y617406D01*
X526700Y618142D01*
X526681Y618155D01*
X526654Y618184D01*
X522880Y621392D01*
X522797Y621442D01*
X522717Y621498D01*
X522692Y621505D01*
X522669Y621519D01*
X522574Y621540D01*
X522482Y621567D01*
X522455Y621566D01*
X522429Y621572D01*
X522332Y621562D01*
X522236Y621558D01*
X522211Y621549D01*
X522184Y621546D01*
X522096Y621505D01*
X522006Y621471D01*
X521985Y621454D01*
X521961Y621443D01*
X521890Y621377D01*
X521815Y621315D01*
X521801Y621293D01*
X521782Y621274D01*
X521736Y621189D01*
X521685Y621107D01*
X521679Y621081D01*
X521666Y621057D01*
X521650Y620962D01*
X521627Y620868D01*
X521630Y620841D01*
X521625Y620815D01*
X521641Y620719D01*
X521649Y620623D01*
X521661Y620591D01*
X521664Y620572D01*
X521680Y620543D01*
X521709Y620466D01*
X521712Y620460D01*
X520998Y618257D01*
X520143Y617821D01*
X520089Y617781D01*
X520029Y617749D01*
X519991Y617708D01*
X519945Y617675D01*
X519906Y617620D01*
X519860Y617571D01*
X519836Y617520D01*
X519804Y617474D01*
X519785Y617409D01*
X519756Y617348D01*
X519750Y617292D01*
X519734Y617238D01*
X519737Y617170D01*
X519729Y617103D01*
X519741Y617048D01*
X519743Y616992D01*
X519767Y616929D01*
X519782Y616863D01*
X519810Y616815D01*
X519830Y616762D01*
X519873Y616710D01*
X519908Y616652D01*
X519951Y616615D01*
X519986Y616572D01*
X520043Y616536D01*
X520095Y616492D01*
X520147Y616471D01*
X520195Y616441D01*
X520260Y616425D01*
X520323Y616400D01*
X520402Y616391D01*
X520434Y616384D01*
X520455Y616385D01*
X520490Y616382D01*
X525284Y616382D01*
X527838Y615137D01*
X527867Y615128D01*
X527924Y615101D01*
X529355Y614610D01*
X531369Y611791D01*
X531369Y608327D01*
X529355Y605508D01*
X527924Y605017D01*
X527897Y605003D01*
X527838Y604981D01*
X527481Y604808D01*
X527413Y604759D01*
X527339Y604718D01*
X527303Y604681D01*
X527281Y604666D01*
X527263Y604642D01*
X527220Y604599D01*
X527211Y604587D01*
X527106Y604575D01*
X527061Y604563D01*
X527014Y604559D01*
X526888Y604514D01*
X526869Y604509D01*
X526864Y604506D01*
X526856Y604503D01*
X525284Y603737D01*
X521596Y603737D01*
X521505Y603722D01*
X521412Y603714D01*
X521384Y603702D01*
X521354Y603697D01*
X521272Y603653D01*
X521186Y603617D01*
X521163Y603596D01*
X521136Y603582D01*
X521072Y603515D01*
X521003Y603453D01*
X520988Y603426D01*
X520967Y603403D01*
X520928Y603319D01*
X520882Y603238D01*
X520876Y603208D01*
X520863Y603180D01*
X520853Y603088D01*
X520835Y602997D01*
X520840Y602966D01*
X520836Y602936D01*
X520856Y602845D01*
X520868Y602753D01*
X520882Y602726D01*
X520888Y602695D01*
X520936Y602616D01*
X520977Y602533D01*
X520999Y602511D01*
X521015Y602484D01*
X521085Y602424D01*
X521151Y602358D01*
X521184Y602339D01*
X521202Y602324D01*
X521232Y602312D01*
X521297Y602276D01*
X522398Y601804D01*
X522399Y601803D01*
X522401Y601802D01*
X522664Y601690D01*
X523413Y600903D01*
X523435Y600886D01*
X523471Y600848D01*
X524525Y599952D01*
X524560Y599931D01*
X524590Y599903D01*
X524665Y599868D01*
X524736Y599825D01*
X524776Y599817D01*
X524813Y599799D01*
X524895Y599790D01*
X524976Y599772D01*
X525017Y599777D01*
X525057Y599772D01*
X525138Y599790D01*
X525220Y599799D01*
X525258Y599816D01*
X525298Y599824D01*
X525369Y599867D01*
X525444Y599901D01*
X525474Y599929D01*
X525509Y599951D01*
X525563Y600013D01*
X525623Y600070D01*
X525642Y600106D01*
X525669Y600137D01*
X525700Y600214D01*
X525739Y600287D01*
X525745Y600327D01*
X525761Y600366D01*
X525778Y600524D01*
X525779Y600530D01*
X525779Y600531D01*
X525779Y600532D01*
X525779Y601056D01*
X527416Y602693D01*
X529732Y602693D01*
X531369Y601056D01*
X531369Y592987D01*
X531370Y592977D01*
X531370Y592972D01*
X531372Y592961D01*
X531371Y592925D01*
X531456Y591874D01*
X531456Y591872D01*
X531423Y591818D01*
X531410Y591759D01*
X531388Y591704D01*
X530652Y590968D01*
X530639Y590950D01*
X530610Y590923D01*
X529927Y590120D01*
X529925Y590119D01*
X529864Y590104D01*
X529813Y590071D01*
X529759Y590048D01*
X528718Y590048D01*
X528696Y590044D01*
X528656Y590046D01*
X527605Y589960D01*
X527603Y589961D01*
X527549Y589994D01*
X527490Y590007D01*
X527436Y590029D01*
X526700Y590765D01*
X526681Y590778D01*
X526654Y590807D01*
X522880Y594015D01*
X522797Y594065D01*
X522718Y594121D01*
X522692Y594128D01*
X522669Y594142D01*
X522574Y594163D01*
X522482Y594190D01*
X522455Y594189D01*
X522429Y594195D01*
X522333Y594185D01*
X522236Y594181D01*
X522211Y594172D01*
X522184Y594169D01*
X522097Y594128D01*
X522006Y594094D01*
X521985Y594077D01*
X521961Y594066D01*
X521891Y594000D01*
X521816Y593938D01*
X521801Y593915D01*
X521782Y593897D01*
X521736Y593812D01*
X521685Y593730D01*
X521679Y593704D01*
X521666Y593680D01*
X521650Y593585D01*
X521628Y593491D01*
X521630Y593464D01*
X521625Y593438D01*
X521641Y593342D01*
X521649Y593246D01*
X521661Y593214D01*
X521664Y593195D01*
X521680Y593165D01*
X521709Y593089D01*
X521712Y593083D01*
X520998Y590880D01*
X518656Y589684D01*
X518609Y589650D01*
X518557Y589624D01*
X518511Y589577D01*
X518458Y589538D01*
X518425Y589491D01*
X518383Y589449D01*
X518354Y589391D01*
X518317Y589337D01*
X518300Y589281D01*
X518274Y589229D01*
X518266Y589164D01*
X518247Y589101D01*
X518249Y589043D01*
X518241Y588985D01*
X518254Y588921D01*
X518256Y588855D01*
X518277Y588801D01*
X518288Y588744D01*
X518320Y588687D01*
X518343Y588625D01*
X518380Y588580D01*
X518409Y588529D01*
X518458Y588486D01*
X518499Y588435D01*
X518548Y588404D01*
X518592Y588365D01*
X518681Y588321D01*
X518707Y588304D01*
X518722Y588301D01*
X518742Y588291D01*
X532028Y583460D01*
X533007Y581361D01*
X532216Y579186D01*
X530118Y578207D01*
X512420Y584642D01*
G37*
%LPD*%
%LPC*%
G36*
X470366Y680465D02*
X470366Y680465D01*
X467471Y681664D01*
X465256Y683879D01*
X464057Y686774D01*
X464057Y689906D01*
X465256Y692801D01*
X467471Y695016D01*
X470366Y696215D01*
X513122Y696215D01*
X516017Y695016D01*
X518232Y692801D01*
X519431Y689906D01*
X519431Y686774D01*
X518232Y683879D01*
X516017Y681664D01*
X513122Y680465D01*
X470366Y680465D01*
G37*
%LPD*%
%LPC*%
G36*
X406226Y226517D02*
X406226Y226517D01*
X405333Y227410D01*
X405333Y254174D01*
X406226Y255067D01*
X432990Y255067D01*
X433883Y254174D01*
X433883Y227410D01*
X432990Y226517D01*
X406226Y226517D01*
G37*
%LPD*%
%LPC*%
G36*
X346226Y368517D02*
X346226Y368517D01*
X345333Y369410D01*
X345333Y396174D01*
X346226Y397067D01*
X372990Y397067D01*
X373883Y396174D01*
X373883Y369410D01*
X372990Y368517D01*
X346226Y368517D01*
G37*
%LPD*%
%LPC*%
G36*
X409300Y124827D02*
X409300Y124827D01*
X408407Y125720D01*
X408407Y127508D01*
X408404Y127528D01*
X408406Y127547D01*
X408384Y127649D01*
X408368Y127751D01*
X408358Y127768D01*
X408354Y127788D01*
X408301Y127877D01*
X408252Y127968D01*
X408238Y127982D01*
X408228Y127999D01*
X408149Y128066D01*
X408074Y128138D01*
X408056Y128146D01*
X408041Y128159D01*
X407945Y128198D01*
X407851Y128241D01*
X407831Y128243D01*
X407813Y128251D01*
X407646Y128269D01*
X390610Y128269D01*
X387715Y129468D01*
X385500Y131683D01*
X384301Y134578D01*
X384301Y137710D01*
X385500Y140605D01*
X387715Y142820D01*
X390610Y144019D01*
X407646Y144019D01*
X407666Y144022D01*
X407685Y144020D01*
X407787Y144042D01*
X407889Y144058D01*
X407906Y144068D01*
X407926Y144072D01*
X408015Y144125D01*
X408106Y144174D01*
X408120Y144188D01*
X408137Y144198D01*
X408204Y144277D01*
X408276Y144352D01*
X408284Y144370D01*
X408297Y144385D01*
X408336Y144481D01*
X408379Y144575D01*
X408381Y144595D01*
X408389Y144613D01*
X408407Y144780D01*
X408407Y147584D01*
X409300Y148477D01*
X423264Y148477D01*
X424157Y147584D01*
X424157Y125720D01*
X423264Y124827D01*
X409300Y124827D01*
G37*
%LPD*%
%LPC*%
G36*
X523574Y466851D02*
X523574Y466851D01*
X523573Y466851D01*
X517347Y466851D01*
X514024Y469266D01*
X512754Y473174D01*
X514024Y477081D01*
X517348Y479496D01*
X517909Y479496D01*
X517950Y479503D01*
X517991Y479501D01*
X518070Y479523D01*
X518151Y479536D01*
X518188Y479555D01*
X518228Y479567D01*
X518296Y479613D01*
X518369Y479651D01*
X518397Y479681D01*
X518432Y479705D01*
X518482Y479770D01*
X518538Y479829D01*
X518556Y479867D01*
X518581Y479900D01*
X518607Y479978D01*
X518642Y480052D01*
X518646Y480094D01*
X518660Y480133D01*
X518660Y480215D01*
X518669Y480297D01*
X518660Y480338D01*
X518660Y480379D01*
X518634Y480457D01*
X518617Y480537D01*
X518595Y480573D01*
X518582Y480612D01*
X518533Y480678D01*
X518491Y480748D01*
X518459Y480775D01*
X518434Y480809D01*
X518309Y480903D01*
X518304Y480908D01*
X518302Y480909D01*
X518300Y480910D01*
X517677Y481284D01*
X517115Y483530D01*
X518306Y485516D01*
X519550Y485827D01*
X519632Y485862D01*
X519716Y485890D01*
X519744Y485910D01*
X519776Y485924D01*
X519842Y485983D01*
X519914Y486037D01*
X519933Y486065D01*
X519959Y486089D01*
X520003Y486166D01*
X520054Y486239D01*
X520063Y486272D01*
X520080Y486303D01*
X520097Y486390D01*
X520122Y486475D01*
X520120Y486510D01*
X520127Y486544D01*
X520115Y486632D01*
X520111Y486721D01*
X520097Y486763D01*
X520094Y486788D01*
X520080Y486816D01*
X520059Y486880D01*
X519886Y487260D01*
X519893Y487292D01*
X519884Y487358D01*
X519885Y487373D01*
X520059Y487757D01*
X520082Y487842D01*
X520113Y487926D01*
X520114Y487961D01*
X520123Y487994D01*
X520118Y488083D01*
X520121Y488172D01*
X520110Y488205D01*
X520108Y488240D01*
X520075Y488322D01*
X520049Y488407D01*
X520029Y488435D01*
X520016Y488468D01*
X519958Y488535D01*
X519907Y488607D01*
X519879Y488628D01*
X519856Y488654D01*
X519780Y488700D01*
X519708Y488752D01*
X519666Y488768D01*
X519645Y488780D01*
X519614Y488787D01*
X519550Y488810D01*
X518306Y489121D01*
X517115Y491107D01*
X517677Y493353D01*
X519759Y494602D01*
X519797Y494634D01*
X519840Y494658D01*
X519890Y494713D01*
X519947Y494761D01*
X519972Y494803D01*
X520006Y494840D01*
X520036Y494908D01*
X520074Y494972D01*
X520085Y495020D01*
X520105Y495065D01*
X520111Y495139D01*
X520128Y495212D01*
X520122Y495261D01*
X520127Y495310D01*
X520109Y495382D01*
X520102Y495456D01*
X520081Y495501D01*
X520069Y495549D01*
X520030Y495612D01*
X519999Y495680D01*
X519965Y495716D01*
X519939Y495758D01*
X519848Y495841D01*
X519831Y495859D01*
X519824Y495863D01*
X519815Y495871D01*
X518152Y497079D01*
X517024Y500551D01*
X518151Y504022D01*
X520703Y505876D01*
X520709Y505882D01*
X520716Y505886D01*
X520795Y505969D01*
X520877Y506051D01*
X520880Y506058D01*
X520886Y506064D01*
X520934Y506169D01*
X520985Y506272D01*
X520986Y506280D01*
X520989Y506287D01*
X521002Y506402D01*
X521017Y506516D01*
X521015Y506524D01*
X521016Y506532D01*
X520992Y506644D01*
X520970Y506757D01*
X520966Y506764D01*
X520964Y506772D01*
X520905Y506871D01*
X520848Y506971D01*
X520842Y506976D01*
X520838Y506983D01*
X520750Y507058D01*
X520664Y507135D01*
X520657Y507138D01*
X520651Y507143D01*
X520544Y507186D01*
X520438Y507231D01*
X520430Y507232D01*
X520423Y507235D01*
X520256Y507254D01*
X518950Y507254D01*
X517313Y508891D01*
X517313Y515610D01*
X520190Y518487D01*
X520751Y518487D01*
X522338Y518487D01*
X523697Y518487D01*
X529732Y518487D01*
X531369Y516850D01*
X531369Y514535D01*
X530242Y513409D01*
X530231Y513393D01*
X530215Y513380D01*
X530159Y513293D01*
X530099Y513209D01*
X530093Y513190D01*
X530082Y513173D01*
X530057Y513073D01*
X530027Y512974D01*
X530027Y512954D01*
X530022Y512935D01*
X530030Y512832D01*
X530033Y512728D01*
X530040Y512709D01*
X530041Y512689D01*
X530082Y512595D01*
X530117Y512497D01*
X530130Y512481D01*
X530138Y512463D01*
X530242Y512332D01*
X531369Y511206D01*
X531369Y508891D01*
X529727Y507249D01*
X529715Y507233D01*
X529700Y507220D01*
X529644Y507133D01*
X529583Y507049D01*
X529578Y507030D01*
X529567Y507013D01*
X529542Y506913D01*
X529511Y506814D01*
X529512Y506794D01*
X529507Y506775D01*
X529515Y506672D01*
X529517Y506568D01*
X529524Y506549D01*
X529526Y506530D01*
X529566Y506435D01*
X529602Y506337D01*
X529614Y506322D01*
X529622Y506303D01*
X529727Y506172D01*
X531369Y504531D01*
X531369Y497811D01*
X528492Y494934D01*
X526457Y494934D01*
X524985Y494934D01*
X524984Y494934D01*
X524286Y494934D01*
X524256Y494929D01*
X524226Y494931D01*
X524135Y494909D01*
X524043Y494894D01*
X524016Y494880D01*
X523987Y494873D01*
X523908Y494823D01*
X523826Y494779D01*
X523805Y494757D01*
X523779Y494741D01*
X523721Y494668D01*
X523657Y494601D01*
X523644Y494573D01*
X523625Y494549D01*
X523592Y494462D01*
X523553Y494378D01*
X523550Y494347D01*
X523539Y494319D01*
X523536Y494226D01*
X523526Y494133D01*
X523532Y494103D01*
X523531Y494073D01*
X523558Y493984D01*
X523578Y493893D01*
X523594Y493867D01*
X523603Y493837D01*
X523657Y493762D01*
X523704Y493682D01*
X523728Y493662D01*
X523745Y493637D01*
X523821Y493582D01*
X523891Y493522D01*
X523920Y493510D01*
X523944Y493492D01*
X524102Y493434D01*
X528178Y492415D01*
X528200Y492413D01*
X528221Y492406D01*
X528322Y492403D01*
X528423Y492395D01*
X528445Y492400D01*
X528467Y492400D01*
X528630Y492441D01*
X528677Y492459D01*
X529436Y492113D01*
X529464Y492106D01*
X529566Y492068D01*
X530375Y491866D01*
X530401Y491823D01*
X530415Y491806D01*
X530425Y491785D01*
X530494Y491712D01*
X530560Y491635D01*
X530579Y491623D01*
X530594Y491607D01*
X530739Y491521D01*
X530784Y491500D01*
X531077Y490720D01*
X531092Y490694D01*
X531137Y490595D01*
X531566Y489881D01*
X531554Y489832D01*
X531552Y489809D01*
X531544Y489788D01*
X531542Y489688D01*
X531534Y489587D01*
X531539Y489565D01*
X531538Y489542D01*
X531580Y489380D01*
X531597Y489333D01*
X531252Y488574D01*
X531244Y488545D01*
X531207Y488443D01*
X530972Y487503D01*
X530963Y487401D01*
X530949Y487300D01*
X530953Y487274D01*
X530951Y487258D01*
X530959Y487227D01*
X530972Y487134D01*
X531207Y486194D01*
X531219Y486167D01*
X531252Y486064D01*
X531597Y485305D01*
X531580Y485257D01*
X531575Y485235D01*
X531565Y485215D01*
X531551Y485115D01*
X531532Y485016D01*
X531534Y484994D01*
X531531Y484972D01*
X531554Y484805D01*
X531566Y484757D01*
X531137Y484042D01*
X531126Y484014D01*
X531077Y483917D01*
X530784Y483137D01*
X530739Y483116D01*
X530720Y483103D01*
X530699Y483096D01*
X530618Y483035D01*
X530534Y482979D01*
X530520Y482962D01*
X530502Y482948D01*
X530401Y482815D01*
X530375Y482771D01*
X529566Y482569D01*
X529539Y482557D01*
X529436Y482524D01*
X528677Y482179D01*
X528630Y482196D01*
X528607Y482201D01*
X528587Y482211D01*
X528488Y482225D01*
X528388Y482244D01*
X528366Y482241D01*
X528344Y482245D01*
X528178Y482222D01*
X523273Y480996D01*
X523245Y480984D01*
X523215Y480979D01*
X523133Y480936D01*
X523048Y480899D01*
X523025Y480878D01*
X522998Y480864D01*
X522934Y480796D01*
X522865Y480734D01*
X522850Y480708D01*
X522829Y480686D01*
X522789Y480601D01*
X522744Y480520D01*
X522738Y480490D01*
X522725Y480463D01*
X522715Y480370D01*
X522697Y480279D01*
X522701Y480248D01*
X522698Y480218D01*
X522718Y480127D01*
X522730Y480035D01*
X522744Y480008D01*
X522750Y479978D01*
X522798Y479898D01*
X522839Y479814D01*
X522861Y479793D01*
X522876Y479767D01*
X522947Y479706D01*
X523013Y479640D01*
X523040Y479627D01*
X523063Y479607D01*
X523150Y479572D01*
X523233Y479530D01*
X523263Y479526D01*
X523291Y479515D01*
X523458Y479496D01*
X527101Y479496D01*
X530424Y477081D01*
X531694Y473174D01*
X530425Y469266D01*
X527101Y466851D01*
X523574Y466851D01*
G37*
%LPD*%
%LPC*%
G36*
X407800Y464727D02*
X407800Y464727D01*
X406907Y465620D01*
X406907Y479584D01*
X407800Y480477D01*
X413906Y480477D01*
X413926Y480480D01*
X413945Y480478D01*
X414047Y480500D01*
X414149Y480516D01*
X414166Y480526D01*
X414186Y480530D01*
X414275Y480583D01*
X414366Y480632D01*
X414380Y480646D01*
X414397Y480656D01*
X414464Y480735D01*
X414535Y480810D01*
X414544Y480828D01*
X414557Y480843D01*
X414596Y480939D01*
X414639Y481033D01*
X414641Y481053D01*
X414649Y481071D01*
X414667Y481238D01*
X414667Y492714D01*
X414664Y492734D01*
X414666Y492753D01*
X414644Y492855D01*
X414627Y492957D01*
X414618Y492974D01*
X414614Y492994D01*
X414561Y493083D01*
X414512Y493174D01*
X414498Y493188D01*
X414488Y493205D01*
X414409Y493272D01*
X414334Y493344D01*
X414316Y493352D01*
X414301Y493365D01*
X414205Y493404D01*
X414111Y493447D01*
X414091Y493449D01*
X414073Y493457D01*
X413906Y493475D01*
X412608Y493475D01*
X411715Y494368D01*
X411715Y503632D01*
X412608Y504525D01*
X425872Y504525D01*
X426765Y503632D01*
X426765Y494368D01*
X425872Y493475D01*
X423558Y493475D01*
X423538Y493472D01*
X423518Y493474D01*
X423417Y493452D01*
X423315Y493436D01*
X423298Y493426D01*
X423278Y493422D01*
X423189Y493369D01*
X423098Y493320D01*
X423084Y493306D01*
X423067Y493296D01*
X423000Y493217D01*
X422928Y493142D01*
X422920Y493124D01*
X422907Y493109D01*
X422868Y493013D01*
X422825Y492919D01*
X422823Y492899D01*
X422815Y492881D01*
X422797Y492714D01*
X422797Y481238D01*
X422800Y481218D01*
X422798Y481199D01*
X422820Y481097D01*
X422836Y480995D01*
X422846Y480978D01*
X422850Y480958D01*
X422903Y480869D01*
X422952Y480778D01*
X422966Y480764D01*
X422976Y480747D01*
X423055Y480680D01*
X423130Y480608D01*
X423148Y480600D01*
X423163Y480587D01*
X423259Y480548D01*
X423353Y480505D01*
X423373Y480503D01*
X423391Y480495D01*
X423558Y480477D01*
X429664Y480477D01*
X430557Y479584D01*
X430557Y465620D01*
X429664Y464727D01*
X407800Y464727D01*
G37*
%LPD*%
%LPC*%
G36*
X491856Y466851D02*
X491856Y466851D01*
X490219Y468488D01*
X490219Y470804D01*
X492051Y472635D01*
X492063Y472652D01*
X492078Y472664D01*
X492134Y472751D01*
X492195Y472835D01*
X492201Y472854D01*
X492211Y472871D01*
X492237Y472971D01*
X492267Y473070D01*
X492267Y473090D01*
X492271Y473110D01*
X492263Y473213D01*
X492261Y473316D01*
X492254Y473335D01*
X492252Y473355D01*
X492212Y473450D01*
X492176Y473547D01*
X492164Y473563D01*
X492156Y473581D01*
X492051Y473712D01*
X490219Y475544D01*
X490219Y477859D01*
X491856Y479496D01*
X497681Y479496D01*
X497689Y479498D01*
X497697Y479496D01*
X497810Y479517D01*
X497924Y479536D01*
X497931Y479540D01*
X497939Y479541D01*
X498040Y479597D01*
X498141Y479651D01*
X498147Y479657D01*
X498154Y479661D01*
X498232Y479746D01*
X498310Y479829D01*
X498314Y479837D01*
X498319Y479843D01*
X498366Y479948D01*
X498414Y480053D01*
X498415Y480060D01*
X498418Y480068D01*
X498429Y480183D01*
X498441Y480297D01*
X498440Y480305D01*
X498440Y480313D01*
X498413Y480425D01*
X498389Y480537D01*
X498385Y480544D01*
X498383Y480552D01*
X498322Y480649D01*
X498263Y480748D01*
X498257Y480754D01*
X498252Y480760D01*
X498128Y480873D01*
X495292Y482935D01*
X494164Y486406D01*
X495291Y489877D01*
X498012Y491854D01*
X498017Y491859D01*
X498024Y491863D01*
X498104Y491947D01*
X498185Y492029D01*
X498188Y492036D01*
X498194Y492042D01*
X498242Y492146D01*
X498293Y492249D01*
X498294Y492257D01*
X498297Y492265D01*
X498310Y492379D01*
X498325Y492493D01*
X498324Y492501D01*
X498324Y492509D01*
X498300Y492622D01*
X498278Y492735D01*
X498274Y492742D01*
X498272Y492749D01*
X498213Y492848D01*
X498156Y492948D01*
X498150Y492954D01*
X498146Y492961D01*
X498058Y493035D01*
X497973Y493112D01*
X497965Y493115D01*
X497959Y493120D01*
X497852Y493164D01*
X497746Y493209D01*
X497738Y493209D01*
X497731Y493212D01*
X497564Y493231D01*
X496090Y493231D01*
X494453Y494868D01*
X494453Y501417D01*
X495370Y502334D01*
X495382Y502350D01*
X495397Y502363D01*
X495453Y502450D01*
X495513Y502534D01*
X495519Y502553D01*
X495530Y502569D01*
X495555Y502670D01*
X495586Y502769D01*
X495585Y502789D01*
X495590Y502808D01*
X495582Y502911D01*
X495579Y503015D01*
X495573Y503033D01*
X495571Y503053D01*
X495531Y503148D01*
X495495Y503246D01*
X495483Y503261D01*
X495475Y503280D01*
X495370Y503410D01*
X494453Y504328D01*
X494453Y511048D01*
X497330Y513925D01*
X497891Y513925D01*
X499468Y513925D01*
X500837Y513925D01*
X506872Y513925D01*
X508509Y512287D01*
X508509Y509972D01*
X507382Y508846D01*
X507371Y508830D01*
X507355Y508817D01*
X507299Y508730D01*
X507239Y508646D01*
X507233Y508627D01*
X507222Y508610D01*
X507197Y508510D01*
X507167Y508411D01*
X507167Y508391D01*
X507162Y508372D01*
X507170Y508269D01*
X507173Y508165D01*
X507180Y508146D01*
X507181Y508127D01*
X507222Y508031D01*
X507257Y507934D01*
X507270Y507919D01*
X507278Y507900D01*
X507382Y507769D01*
X508509Y506643D01*
X508509Y504328D01*
X506872Y502691D01*
X502017Y502691D01*
X501946Y502679D01*
X501874Y502677D01*
X501825Y502659D01*
X501774Y502651D01*
X501711Y502617D01*
X501643Y502593D01*
X501603Y502560D01*
X501557Y502536D01*
X501507Y502484D01*
X501451Y502439D01*
X501423Y502395D01*
X501387Y502357D01*
X501357Y502292D01*
X501318Y502232D01*
X501306Y502182D01*
X501284Y502134D01*
X501276Y502063D01*
X501258Y501994D01*
X501262Y501942D01*
X501257Y501890D01*
X501272Y501820D01*
X501277Y501748D01*
X501298Y501701D01*
X501309Y501650D01*
X501346Y501588D01*
X501374Y501522D01*
X501419Y501466D01*
X501435Y501438D01*
X501453Y501423D01*
X501453Y499582D01*
X501456Y499562D01*
X501454Y499542D01*
X501476Y499441D01*
X501493Y499339D01*
X501502Y499321D01*
X501506Y499302D01*
X501560Y499213D01*
X501608Y499121D01*
X501622Y499108D01*
X501633Y499091D01*
X501711Y499023D01*
X501786Y498952D01*
X501804Y498944D01*
X501820Y498931D01*
X501916Y498892D01*
X502009Y498848D01*
X502029Y498846D01*
X502048Y498839D01*
X502214Y498820D01*
X506872Y498820D01*
X508509Y497183D01*
X508509Y494868D01*
X506872Y493231D01*
X505397Y493231D01*
X505389Y493230D01*
X505381Y493231D01*
X505268Y493210D01*
X505154Y493191D01*
X505147Y493187D01*
X505139Y493186D01*
X505038Y493130D01*
X504937Y493076D01*
X504932Y493070D01*
X504924Y493066D01*
X504846Y492981D01*
X504768Y492898D01*
X504764Y492890D01*
X504759Y492885D01*
X504712Y492779D01*
X504664Y492675D01*
X504663Y492667D01*
X504660Y492659D01*
X504650Y492544D01*
X504637Y492430D01*
X504639Y492422D01*
X504638Y492414D01*
X504665Y492302D01*
X504689Y492190D01*
X504693Y492183D01*
X504695Y492175D01*
X504756Y492078D01*
X504815Y491979D01*
X504821Y491974D01*
X504826Y491967D01*
X504950Y491854D01*
X507670Y489877D01*
X508798Y486406D01*
X507670Y482935D01*
X504833Y480873D01*
X504827Y480868D01*
X504820Y480864D01*
X504741Y480780D01*
X504660Y480699D01*
X504656Y480691D01*
X504651Y480686D01*
X504602Y480581D01*
X504552Y480478D01*
X504551Y480470D01*
X504547Y480463D01*
X504535Y480348D01*
X504519Y480234D01*
X504521Y480226D01*
X504520Y480218D01*
X504545Y480106D01*
X504567Y479992D01*
X504571Y479986D01*
X504572Y479978D01*
X504631Y479879D01*
X504689Y479779D01*
X504695Y479773D01*
X504699Y479767D01*
X504786Y479692D01*
X504872Y479615D01*
X504879Y479612D01*
X504885Y479607D01*
X504993Y479563D01*
X505098Y479518D01*
X505106Y479518D01*
X505114Y479515D01*
X505280Y479496D01*
X506872Y479496D01*
X508509Y477859D01*
X508509Y475544D01*
X506677Y473712D01*
X506665Y473696D01*
X506650Y473683D01*
X506594Y473596D01*
X506533Y473512D01*
X506527Y473493D01*
X506517Y473477D01*
X506491Y473376D01*
X506461Y473277D01*
X506461Y473257D01*
X506457Y473238D01*
X506465Y473135D01*
X506467Y473031D01*
X506474Y473013D01*
X506476Y472993D01*
X506516Y472898D01*
X506552Y472800D01*
X506564Y472785D01*
X506572Y472766D01*
X506677Y472635D01*
X508509Y470804D01*
X508509Y468488D01*
X506872Y466851D01*
X491856Y466851D01*
G37*
%LPD*%
%LPC*%
G36*
X491856Y562982D02*
X491856Y562982D01*
X490219Y564619D01*
X490219Y571129D01*
X492365Y574082D01*
X495836Y575210D01*
X496832Y574887D01*
X496835Y574886D01*
X496839Y574884D01*
X496957Y574868D01*
X497075Y574850D01*
X497079Y574850D01*
X497083Y574850D01*
X497199Y574871D01*
X497317Y574892D01*
X497321Y574894D01*
X497324Y574895D01*
X497429Y574953D01*
X497533Y575009D01*
X497536Y575012D01*
X497539Y575014D01*
X497621Y575103D01*
X497701Y575189D01*
X497702Y575193D01*
X497705Y575196D01*
X497753Y575305D01*
X497802Y575413D01*
X497802Y575417D01*
X497804Y575421D01*
X497815Y575539D01*
X497827Y575658D01*
X497826Y575662D01*
X497826Y575666D01*
X497798Y575781D01*
X497772Y575898D01*
X497770Y575901D01*
X497769Y575905D01*
X497706Y576006D01*
X497643Y576108D01*
X497640Y576110D01*
X497638Y576114D01*
X497514Y576227D01*
X495292Y577842D01*
X494164Y581313D01*
X495291Y584785D01*
X498038Y586780D01*
X498043Y586786D01*
X498050Y586789D01*
X498130Y586873D01*
X498211Y586955D01*
X498214Y586962D01*
X498220Y586968D01*
X498268Y587072D01*
X498319Y587176D01*
X498320Y587183D01*
X498323Y587191D01*
X498336Y587305D01*
X498351Y587419D01*
X498350Y587427D01*
X498351Y587435D01*
X498326Y587548D01*
X498304Y587661D01*
X498300Y587668D01*
X498298Y587676D01*
X498239Y587774D01*
X498182Y587874D01*
X498176Y587880D01*
X498172Y587887D01*
X498085Y587962D01*
X497999Y588038D01*
X497991Y588041D01*
X497985Y588047D01*
X497878Y588090D01*
X497772Y588135D01*
X497764Y588135D01*
X497757Y588138D01*
X497590Y588157D01*
X496090Y588157D01*
X494453Y589794D01*
X494453Y592301D01*
X494453Y595090D01*
X495769Y597369D01*
X498048Y598685D01*
X506872Y598685D01*
X508509Y597048D01*
X508509Y591005D01*
X506498Y588238D01*
X505445Y587895D01*
X505434Y587890D01*
X505422Y587888D01*
X505325Y587834D01*
X505226Y587783D01*
X505218Y587774D01*
X505207Y587768D01*
X505132Y587686D01*
X505055Y587606D01*
X505050Y587595D01*
X505042Y587586D01*
X504997Y587485D01*
X504949Y587384D01*
X504947Y587372D01*
X504943Y587361D01*
X504933Y587250D01*
X504919Y587140D01*
X504922Y587128D01*
X504921Y587116D01*
X504947Y587008D01*
X504969Y586899D01*
X504975Y586889D01*
X504978Y586877D01*
X505037Y586782D01*
X505093Y586686D01*
X505102Y586679D01*
X505108Y586668D01*
X505232Y586555D01*
X507670Y584785D01*
X508798Y581313D01*
X507670Y577842D01*
X505387Y576183D01*
X505378Y576174D01*
X505368Y576169D01*
X505292Y576087D01*
X505214Y576008D01*
X505209Y575997D01*
X505200Y575989D01*
X505155Y575887D01*
X505106Y575787D01*
X505104Y575775D01*
X505099Y575765D01*
X505088Y575654D01*
X505074Y575543D01*
X505076Y575532D01*
X505075Y575520D01*
X505099Y575411D01*
X505121Y575302D01*
X505127Y575292D01*
X505129Y575280D01*
X505187Y575186D01*
X505243Y575088D01*
X505252Y575080D01*
X505258Y575070D01*
X505343Y574999D01*
X505426Y574925D01*
X505437Y574920D01*
X505446Y574912D01*
X505599Y574843D01*
X506094Y574682D01*
X508509Y571359D01*
X508509Y570777D01*
X508509Y564619D01*
X506872Y562982D01*
X491856Y562982D01*
G37*
%LPD*%
%LPC*%
G36*
X627531Y486013D02*
X627531Y486013D01*
X623517Y487676D01*
X620444Y490749D01*
X618781Y494763D01*
X618781Y499109D01*
X620444Y503123D01*
X623517Y506196D01*
X627531Y507859D01*
X631877Y507859D01*
X635891Y506196D01*
X638964Y503123D01*
X640627Y499109D01*
X640627Y494763D01*
X638964Y490749D01*
X635891Y487676D01*
X631877Y486013D01*
X627531Y486013D01*
G37*
%LPD*%
%LPC*%
G36*
X599591Y486013D02*
X599591Y486013D01*
X595577Y487676D01*
X592504Y490749D01*
X590841Y494763D01*
X590841Y499109D01*
X592504Y503123D01*
X595577Y506196D01*
X599591Y507859D01*
X603937Y507859D01*
X607951Y506196D01*
X611024Y503123D01*
X612687Y499109D01*
X612687Y494763D01*
X611024Y490749D01*
X607951Y487676D01*
X603937Y486013D01*
X599591Y486013D01*
G37*
%LPD*%
%LPC*%
G36*
X627531Y638413D02*
X627531Y638413D01*
X623517Y640076D01*
X620444Y643149D01*
X618781Y647163D01*
X618781Y651509D01*
X620444Y655523D01*
X623517Y658596D01*
X627531Y660259D01*
X631877Y660259D01*
X635891Y658596D01*
X638964Y655523D01*
X640627Y651509D01*
X640627Y647163D01*
X638964Y643149D01*
X635891Y640076D01*
X631877Y638413D01*
X627531Y638413D01*
G37*
%LPD*%
%LPC*%
G36*
X599591Y638413D02*
X599591Y638413D01*
X595577Y640076D01*
X592504Y643149D01*
X590841Y647163D01*
X590841Y651509D01*
X592504Y655523D01*
X595577Y658596D01*
X599591Y660259D01*
X603937Y660259D01*
X607951Y658596D01*
X611024Y655523D01*
X612687Y651509D01*
X612687Y647163D01*
X611024Y643149D01*
X607951Y640076D01*
X603937Y638413D01*
X599591Y638413D01*
G37*
%LPD*%
%LPC*%
G36*
X627531Y613013D02*
X627531Y613013D01*
X623517Y614676D01*
X620444Y617749D01*
X618781Y621763D01*
X618781Y626109D01*
X620444Y630123D01*
X623517Y633196D01*
X627531Y634859D01*
X631877Y634859D01*
X635891Y633196D01*
X638964Y630123D01*
X640627Y626109D01*
X640627Y621763D01*
X638964Y617749D01*
X635891Y614676D01*
X631877Y613013D01*
X627531Y613013D01*
G37*
%LPD*%
%LPC*%
G36*
X599591Y613013D02*
X599591Y613013D01*
X595577Y614676D01*
X592504Y617749D01*
X590841Y621763D01*
X590841Y626109D01*
X592504Y630123D01*
X595577Y633196D01*
X599591Y634859D01*
X603937Y634859D01*
X607951Y633196D01*
X611024Y630123D01*
X612687Y626109D01*
X612687Y621763D01*
X611024Y617749D01*
X607951Y614676D01*
X603937Y613013D01*
X599591Y613013D01*
G37*
%LPD*%
%LPC*%
G36*
X599591Y536813D02*
X599591Y536813D01*
X595577Y538476D01*
X592504Y541549D01*
X590841Y545563D01*
X590841Y549909D01*
X592504Y553923D01*
X595577Y556996D01*
X599591Y558659D01*
X603937Y558659D01*
X607951Y556996D01*
X611024Y553923D01*
X612687Y549909D01*
X612687Y545563D01*
X611024Y541549D01*
X607951Y538476D01*
X603937Y536813D01*
X599591Y536813D01*
G37*
%LPD*%
%LPC*%
G36*
X627531Y562213D02*
X627531Y562213D01*
X623517Y563876D01*
X620444Y566949D01*
X618781Y570963D01*
X618781Y575309D01*
X620444Y579323D01*
X623517Y582396D01*
X627531Y584059D01*
X631877Y584059D01*
X635891Y582396D01*
X638964Y579323D01*
X640627Y575309D01*
X640627Y570963D01*
X638964Y566949D01*
X635891Y563876D01*
X631877Y562213D01*
X627531Y562213D01*
G37*
%LPD*%
%LPC*%
G36*
X627531Y587613D02*
X627531Y587613D01*
X623517Y589276D01*
X620444Y592349D01*
X618781Y596363D01*
X618781Y600709D01*
X620444Y604723D01*
X623517Y607796D01*
X627531Y609459D01*
X631877Y609459D01*
X635891Y607796D01*
X638964Y604723D01*
X640627Y600709D01*
X640627Y596363D01*
X638964Y592349D01*
X635891Y589276D01*
X631877Y587613D01*
X627531Y587613D01*
G37*
%LPD*%
%LPC*%
G36*
X599591Y587613D02*
X599591Y587613D01*
X595577Y589276D01*
X592504Y592349D01*
X590841Y596363D01*
X590841Y600709D01*
X592504Y604723D01*
X595577Y607796D01*
X599591Y609459D01*
X603937Y609459D01*
X607951Y607796D01*
X611024Y604723D01*
X612687Y600709D01*
X612687Y596363D01*
X611024Y592349D01*
X607951Y589276D01*
X603937Y587613D01*
X599591Y587613D01*
G37*
%LPD*%
%LPC*%
G36*
X599591Y562213D02*
X599591Y562213D01*
X595577Y563876D01*
X592504Y566949D01*
X590841Y570963D01*
X590841Y575309D01*
X592504Y579323D01*
X595577Y582396D01*
X599591Y584059D01*
X603937Y584059D01*
X607951Y582396D01*
X611024Y579323D01*
X612687Y575309D01*
X612687Y570963D01*
X611024Y566949D01*
X607951Y563876D01*
X603937Y562213D01*
X599591Y562213D01*
G37*
%LPD*%
%LPC*%
G36*
X627531Y536813D02*
X627531Y536813D01*
X623517Y538476D01*
X620444Y541549D01*
X618781Y545563D01*
X618781Y549909D01*
X620444Y553923D01*
X623517Y556996D01*
X627531Y558659D01*
X631877Y558659D01*
X635891Y556996D01*
X638964Y553923D01*
X640627Y549909D01*
X640627Y545563D01*
X638964Y541549D01*
X635891Y538476D01*
X631877Y536813D01*
X627531Y536813D01*
G37*
%LPD*%
%LPC*%
G36*
X599591Y460613D02*
X599591Y460613D01*
X595577Y462276D01*
X592504Y465349D01*
X590841Y469363D01*
X590841Y473709D01*
X592504Y477723D01*
X595577Y480796D01*
X599591Y482459D01*
X603937Y482459D01*
X607951Y480796D01*
X611024Y477723D01*
X612687Y473709D01*
X612687Y469363D01*
X611024Y465349D01*
X607951Y462276D01*
X603937Y460613D01*
X599591Y460613D01*
G37*
%LPD*%
%LPC*%
G36*
X599591Y511413D02*
X599591Y511413D01*
X595577Y513076D01*
X592504Y516149D01*
X590841Y520163D01*
X590841Y524509D01*
X592504Y528523D01*
X595577Y531596D01*
X599591Y533259D01*
X603937Y533259D01*
X607951Y531596D01*
X611024Y528523D01*
X612687Y524509D01*
X612687Y520163D01*
X611024Y516149D01*
X607951Y513076D01*
X603937Y511413D01*
X599591Y511413D01*
G37*
%LPD*%
%LPC*%
G36*
X627531Y511413D02*
X627531Y511413D01*
X623517Y513076D01*
X620444Y516149D01*
X618781Y520163D01*
X618781Y524509D01*
X620444Y528523D01*
X623517Y531596D01*
X627531Y533259D01*
X631877Y533259D01*
X635891Y531596D01*
X638964Y528523D01*
X640627Y524509D01*
X640627Y520163D01*
X638964Y516149D01*
X635891Y513076D01*
X631877Y511413D01*
X627531Y511413D01*
G37*
%LPD*%
%LPC*%
G36*
X627531Y460613D02*
X627531Y460613D01*
X623517Y462276D01*
X620444Y465349D01*
X618781Y469363D01*
X618781Y473709D01*
X620444Y477723D01*
X623517Y480796D01*
X627531Y482459D01*
X631877Y482459D01*
X635891Y480796D01*
X638964Y477723D01*
X640627Y473709D01*
X640627Y469363D01*
X638964Y465349D01*
X635891Y462276D01*
X631877Y460613D01*
X627531Y460613D01*
G37*
%LPD*%
%LPC*%
G36*
X519164Y551720D02*
X519164Y551720D01*
X516611Y552965D01*
X516581Y552974D01*
X516524Y553001D01*
X515093Y553491D01*
X513079Y556310D01*
X513079Y559775D01*
X515093Y562594D01*
X516524Y563085D01*
X516551Y563099D01*
X516611Y563120D01*
X516967Y563294D01*
X517035Y563343D01*
X517109Y563384D01*
X517145Y563420D01*
X517167Y563436D01*
X517185Y563460D01*
X517228Y563503D01*
X517237Y563515D01*
X517342Y563526D01*
X517387Y563539D01*
X517434Y563542D01*
X517560Y563587D01*
X517579Y563593D01*
X517584Y563596D01*
X517592Y563599D01*
X518339Y563963D01*
X518400Y564006D01*
X518466Y564041D01*
X518500Y564077D01*
X518540Y564105D01*
X518584Y564165D01*
X518635Y564219D01*
X518656Y564264D01*
X518685Y564304D01*
X518708Y564375D01*
X518739Y564442D01*
X518744Y564491D01*
X518759Y564538D01*
X518758Y564613D01*
X518766Y564687D01*
X518755Y564735D01*
X518755Y564784D01*
X518730Y564854D01*
X518714Y564927D01*
X518688Y564970D01*
X518672Y565016D01*
X518626Y565074D01*
X518588Y565138D01*
X518550Y565170D01*
X518520Y565209D01*
X518457Y565250D01*
X518401Y565298D01*
X518355Y565317D01*
X518314Y565344D01*
X518242Y565362D01*
X518172Y565390D01*
X518106Y565398D01*
X518076Y565405D01*
X518051Y565404D01*
X518006Y565409D01*
X517347Y565409D01*
X514024Y567824D01*
X512754Y571731D01*
X514024Y575639D01*
X517348Y578054D01*
X517929Y578054D01*
X525191Y578054D01*
X529107Y575792D01*
X531369Y571876D01*
X531369Y568457D01*
X529732Y566820D01*
X527416Y566820D01*
X526057Y568180D01*
X525961Y568248D01*
X525864Y568319D01*
X525860Y568321D01*
X525857Y568323D01*
X525745Y568357D01*
X525630Y568394D01*
X525626Y568394D01*
X525622Y568395D01*
X525503Y568392D01*
X525384Y568391D01*
X525380Y568389D01*
X525376Y568389D01*
X525263Y568348D01*
X525152Y568309D01*
X525149Y568306D01*
X525145Y568305D01*
X525051Y568230D01*
X524958Y568157D01*
X524955Y568153D01*
X524953Y568151D01*
X524945Y568139D01*
X524859Y568022D01*
X524219Y566914D01*
X522265Y565786D01*
X522228Y565755D01*
X522186Y565733D01*
X522134Y565678D01*
X522075Y565630D01*
X522050Y565589D01*
X522016Y565554D01*
X521985Y565486D01*
X521944Y565422D01*
X521933Y565375D01*
X521913Y565331D01*
X521905Y565256D01*
X521887Y565182D01*
X521891Y565135D01*
X521886Y565087D01*
X521902Y565013D01*
X521909Y564937D01*
X521928Y564893D01*
X521938Y564847D01*
X521977Y564782D01*
X522007Y564712D01*
X522040Y564677D01*
X522064Y564635D01*
X522122Y564586D01*
X522173Y564530D01*
X522215Y564507D01*
X522251Y564476D01*
X522321Y564447D01*
X522388Y564410D01*
X522435Y564402D01*
X522479Y564384D01*
X522608Y564369D01*
X522629Y564365D01*
X522636Y564366D01*
X522646Y564365D01*
X525284Y564365D01*
X527838Y563120D01*
X527867Y563111D01*
X527924Y563084D01*
X529355Y562594D01*
X531369Y559775D01*
X531369Y556310D01*
X529355Y553491D01*
X527924Y553001D01*
X527897Y552986D01*
X527837Y552965D01*
X527481Y552791D01*
X527412Y552743D01*
X527339Y552701D01*
X527303Y552665D01*
X527281Y552649D01*
X527263Y552625D01*
X527220Y552583D01*
X527211Y552571D01*
X527106Y552559D01*
X527061Y552546D01*
X527014Y552543D01*
X526888Y552498D01*
X526869Y552493D01*
X526864Y552489D01*
X526856Y552487D01*
X525284Y551720D01*
X519164Y551720D01*
G37*
%LPD*%
%LPC*%
G36*
X291184Y520445D02*
X291184Y520445D01*
X287356Y522031D01*
X284427Y524960D01*
X282841Y528788D01*
X282841Y532932D01*
X284427Y536760D01*
X287356Y539689D01*
X291184Y541275D01*
X295328Y541275D01*
X299156Y539689D01*
X302085Y536760D01*
X303671Y532932D01*
X303671Y528788D01*
X302085Y524960D01*
X299156Y522031D01*
X295328Y520445D01*
X291184Y520445D01*
G37*
%LPD*%
%LPC*%
G36*
X90028Y411479D02*
X90028Y411479D01*
X86480Y412949D01*
X83765Y415664D01*
X82295Y419212D01*
X82295Y423052D01*
X83765Y426600D01*
X86480Y429315D01*
X90028Y430785D01*
X93868Y430785D01*
X97416Y429315D01*
X100131Y426600D01*
X101601Y423052D01*
X101601Y419212D01*
X100131Y415664D01*
X97416Y412949D01*
X93868Y411479D01*
X90028Y411479D01*
G37*
%LPD*%
%LPC*%
G36*
X115428Y487679D02*
X115428Y487679D01*
X111880Y489149D01*
X109165Y491864D01*
X107695Y495412D01*
X107695Y499252D01*
X109165Y502800D01*
X111880Y505515D01*
X115428Y506985D01*
X119268Y506985D01*
X122816Y505515D01*
X125531Y502800D01*
X127001Y499252D01*
X127001Y495412D01*
X125531Y491864D01*
X122816Y489149D01*
X119268Y487679D01*
X115428Y487679D01*
G37*
%LPD*%
%LPC*%
G36*
X140828Y487679D02*
X140828Y487679D01*
X137280Y489149D01*
X134565Y491864D01*
X133095Y495412D01*
X133095Y499252D01*
X134565Y502800D01*
X137280Y505515D01*
X140828Y506985D01*
X144668Y506985D01*
X148216Y505515D01*
X150931Y502800D01*
X152401Y499252D01*
X152401Y495412D01*
X150931Y491864D01*
X148216Y489149D01*
X144668Y487679D01*
X140828Y487679D01*
G37*
%LPD*%
%LPC*%
G36*
X64628Y411479D02*
X64628Y411479D01*
X61080Y412949D01*
X58365Y415664D01*
X56895Y419212D01*
X56895Y423052D01*
X58365Y426600D01*
X61080Y429315D01*
X64628Y430785D01*
X68468Y430785D01*
X72016Y429315D01*
X74731Y426600D01*
X76201Y423052D01*
X76201Y419212D01*
X74731Y415664D01*
X72016Y412949D01*
X68468Y411479D01*
X64628Y411479D01*
G37*
%LPD*%
%LPC*%
G36*
X140828Y411479D02*
X140828Y411479D01*
X137280Y412949D01*
X134565Y415664D01*
X133095Y419212D01*
X133095Y423052D01*
X134565Y426600D01*
X137280Y429315D01*
X140828Y430785D01*
X144668Y430785D01*
X148216Y429315D01*
X150931Y426600D01*
X152401Y423052D01*
X152401Y419212D01*
X150931Y415664D01*
X148216Y412949D01*
X144668Y411479D01*
X140828Y411479D01*
G37*
%LPD*%
%LPC*%
G36*
X496090Y600458D02*
X496090Y600458D01*
X494453Y602095D01*
X494453Y608643D01*
X495615Y609806D01*
X495641Y609842D01*
X495673Y609871D01*
X495712Y609941D01*
X495759Y610006D01*
X495772Y610048D01*
X495793Y610086D01*
X495808Y610164D01*
X495831Y610241D01*
X495830Y610285D01*
X495838Y610328D01*
X495827Y610407D01*
X495825Y610487D01*
X495810Y610528D01*
X495804Y610571D01*
X495745Y610704D01*
X495740Y610718D01*
X495738Y610720D01*
X495736Y610725D01*
X494453Y612948D01*
X494453Y614236D01*
X494449Y614256D01*
X494452Y614276D01*
X494430Y614377D01*
X494413Y614479D01*
X494404Y614497D01*
X494399Y614516D01*
X494346Y614605D01*
X494298Y614696D01*
X494283Y614710D01*
X494273Y614727D01*
X494194Y614795D01*
X494119Y614866D01*
X494101Y614874D01*
X494086Y614887D01*
X493990Y614926D01*
X493896Y614969D01*
X493877Y614972D01*
X493858Y614979D01*
X493691Y614998D01*
X491856Y614998D01*
X490219Y616635D01*
X490219Y618950D01*
X491856Y620587D01*
X506872Y620587D01*
X508509Y618950D01*
X508509Y612230D01*
X505632Y609353D01*
X503597Y609353D01*
X502214Y609353D01*
X502195Y609350D01*
X502175Y609352D01*
X502074Y609330D01*
X501972Y609313D01*
X501954Y609304D01*
X501935Y609300D01*
X501846Y609247D01*
X501754Y609198D01*
X501741Y609184D01*
X501724Y609174D01*
X501656Y609095D01*
X501585Y609020D01*
X501577Y609002D01*
X501564Y608987D01*
X501525Y608890D01*
X501481Y608797D01*
X501479Y608777D01*
X501472Y608758D01*
X501453Y608592D01*
X501453Y606808D01*
X501456Y606789D01*
X501454Y606769D01*
X501476Y606668D01*
X501493Y606566D01*
X501502Y606548D01*
X501506Y606529D01*
X501560Y606440D01*
X501608Y606348D01*
X501622Y606335D01*
X501633Y606317D01*
X501711Y606250D01*
X501786Y606179D01*
X501804Y606171D01*
X501820Y606158D01*
X501916Y606119D01*
X502009Y606075D01*
X502029Y606073D01*
X502048Y606066D01*
X502214Y606047D01*
X506872Y606047D01*
X508509Y604410D01*
X508509Y602095D01*
X506872Y600458D01*
X496090Y600458D01*
G37*
%LPD*%
%LPC*%
G36*
X513397Y527848D02*
X513397Y527848D01*
X512895Y530108D01*
X514138Y532061D01*
X517112Y532722D01*
X517167Y532744D01*
X517225Y532756D01*
X517280Y532789D01*
X517340Y532813D01*
X517385Y532852D01*
X517436Y532882D01*
X517478Y532931D01*
X517527Y532973D01*
X517558Y533024D01*
X517596Y533068D01*
X517621Y533128D01*
X517654Y533184D01*
X517667Y533241D01*
X517689Y533296D01*
X517693Y533361D01*
X517707Y533424D01*
X517701Y533483D01*
X517704Y533542D01*
X517684Y533637D01*
X517680Y533669D01*
X517674Y533682D01*
X517669Y533706D01*
X517536Y534105D01*
X517521Y534134D01*
X517495Y534205D01*
X517087Y535021D01*
X517087Y535025D01*
X517101Y535060D01*
X517107Y535146D01*
X517120Y535230D01*
X517114Y535268D01*
X517116Y535305D01*
X517088Y535439D01*
X517495Y536252D01*
X517504Y536283D01*
X517536Y536352D01*
X517669Y536751D01*
X517678Y536809D01*
X517697Y536865D01*
X517698Y536930D01*
X517708Y536994D01*
X517698Y537052D01*
X517699Y537111D01*
X517678Y537173D01*
X517668Y537236D01*
X517640Y537289D01*
X517621Y537345D01*
X517582Y537397D01*
X517552Y537454D01*
X517509Y537494D01*
X517473Y537541D01*
X517420Y537578D01*
X517373Y537622D01*
X517319Y537647D01*
X517271Y537681D01*
X517179Y537712D01*
X517150Y537725D01*
X517135Y537727D01*
X517112Y537735D01*
X515095Y538183D01*
X514138Y538396D01*
X512895Y540349D01*
X513397Y542609D01*
X515350Y543852D01*
X516715Y543549D01*
X516716Y543549D01*
X520141Y542788D01*
X520141Y542787D01*
X523567Y542026D01*
X526992Y541265D01*
X526993Y541265D01*
X528215Y540993D01*
X528219Y540992D01*
X528340Y540986D01*
X528461Y540978D01*
X528463Y540979D01*
X528464Y540979D01*
X528471Y540981D01*
X528625Y541013D01*
X528788Y541068D01*
X529432Y540746D01*
X529441Y540743D01*
X529449Y540738D01*
X529608Y540684D01*
X530310Y540528D01*
X530403Y540382D01*
X530485Y540290D01*
X530564Y540201D01*
X530566Y540200D01*
X530567Y540199D01*
X530573Y540195D01*
X530705Y540110D01*
X530859Y540033D01*
X531087Y539350D01*
X531091Y539341D01*
X531093Y539332D01*
X531167Y539182D01*
X531553Y538574D01*
X531516Y538406D01*
X531509Y538284D01*
X531502Y538164D01*
X531502Y538162D01*
X531502Y538160D01*
X531504Y538154D01*
X531537Y538000D01*
X531591Y537836D01*
X531269Y537192D01*
X531267Y537183D01*
X531261Y537176D01*
X531207Y537017D01*
X531051Y536314D01*
X530909Y536224D01*
X530908Y536224D01*
X530905Y536222D01*
X530815Y536141D01*
X530724Y536061D01*
X530723Y536059D01*
X530722Y536058D01*
X530718Y536051D01*
X530633Y535920D01*
X530458Y535569D01*
X530451Y535548D01*
X530439Y535529D01*
X530415Y535431D01*
X530385Y535334D01*
X530385Y535312D01*
X530380Y535291D01*
X530388Y535189D01*
X530390Y535088D01*
X530398Y535067D01*
X530400Y535045D01*
X530458Y534888D01*
X530633Y534537D01*
X530707Y534435D01*
X530775Y534340D01*
X530776Y534339D01*
X530777Y534338D01*
X530783Y534334D01*
X530905Y534235D01*
X531051Y534142D01*
X531207Y533440D01*
X531211Y533431D01*
X531211Y533422D01*
X531235Y533357D01*
X531236Y533354D01*
X531237Y533352D01*
X531269Y533264D01*
X531591Y532621D01*
X531537Y532457D01*
X531517Y532336D01*
X531498Y532218D01*
X531498Y532215D01*
X531498Y532214D01*
X531499Y532207D01*
X531516Y532051D01*
X531553Y531882D01*
X531167Y531275D01*
X531163Y531267D01*
X531157Y531259D01*
X531087Y531107D01*
X530859Y530424D01*
X530705Y530347D01*
X530606Y530276D01*
X530508Y530206D01*
X530507Y530204D01*
X530505Y530203D01*
X530501Y530197D01*
X530403Y530075D01*
X530310Y529929D01*
X529608Y529773D01*
X529599Y529769D01*
X529590Y529769D01*
X529432Y529711D01*
X528788Y529389D01*
X528625Y529443D01*
X528506Y529463D01*
X528386Y529482D01*
X528383Y529482D01*
X528382Y529482D01*
X528375Y529481D01*
X528219Y529464D01*
X515350Y526605D01*
X513397Y527848D01*
G37*
%LPD*%
%LPC*%
G36*
X491856Y515674D02*
X491856Y515674D01*
X490219Y517311D01*
X490219Y519626D01*
X492051Y521458D01*
X492063Y521474D01*
X492078Y521486D01*
X492134Y521574D01*
X492195Y521658D01*
X492201Y521677D01*
X492211Y521693D01*
X492237Y521794D01*
X492267Y521893D01*
X492267Y521913D01*
X492271Y521932D01*
X492263Y522035D01*
X492261Y522139D01*
X492254Y522157D01*
X492252Y522177D01*
X492212Y522272D01*
X492176Y522370D01*
X492164Y522385D01*
X492156Y522403D01*
X492051Y522534D01*
X490219Y524366D01*
X490219Y526682D01*
X491856Y528319D01*
X506872Y528319D01*
X508509Y526682D01*
X508509Y524366D01*
X506677Y522534D01*
X506665Y522518D01*
X506650Y522506D01*
X506594Y522419D01*
X506533Y522335D01*
X506527Y522316D01*
X506517Y522299D01*
X506491Y522198D01*
X506461Y522100D01*
X506461Y522080D01*
X506457Y522060D01*
X506465Y521957D01*
X506467Y521854D01*
X506474Y521835D01*
X506476Y521815D01*
X506516Y521720D01*
X506552Y521623D01*
X506564Y521607D01*
X506572Y521589D01*
X506677Y521458D01*
X508509Y519626D01*
X508509Y517311D01*
X506872Y515674D01*
X491856Y515674D01*
G37*
%LPD*%
%LPC*%
G36*
X491856Y542952D02*
X491856Y542952D01*
X490219Y544589D01*
X490219Y546904D01*
X491856Y548541D01*
X493691Y548541D01*
X493711Y548544D01*
X493731Y548542D01*
X493832Y548564D01*
X493934Y548581D01*
X493952Y548590D01*
X493971Y548595D01*
X494060Y548648D01*
X494151Y548696D01*
X494165Y548710D01*
X494182Y548721D01*
X494250Y548799D01*
X494321Y548874D01*
X494329Y548892D01*
X494342Y548908D01*
X494381Y549004D01*
X494424Y549097D01*
X494427Y549117D01*
X494434Y549136D01*
X494453Y549302D01*
X494453Y550590D01*
X495769Y552870D01*
X498048Y554186D01*
X502124Y554186D01*
X502125Y554186D01*
X503597Y554186D01*
X504623Y554186D01*
X505070Y554186D01*
X505632Y554186D01*
X508509Y551309D01*
X508509Y544589D01*
X506872Y542952D01*
X491856Y542952D01*
G37*
%LPD*%
%LPC*%
G36*
X496090Y530068D02*
X496090Y530068D01*
X494453Y531705D01*
X494453Y534020D01*
X495579Y535146D01*
X495591Y535163D01*
X495606Y535175D01*
X495662Y535262D01*
X495722Y535346D01*
X495728Y535365D01*
X495739Y535382D01*
X495764Y535482D01*
X495795Y535581D01*
X495794Y535601D01*
X495799Y535620D01*
X495791Y535723D01*
X495788Y535827D01*
X495782Y535846D01*
X495780Y535866D01*
X495740Y535960D01*
X495704Y536058D01*
X495691Y536074D01*
X495684Y536092D01*
X495579Y536223D01*
X494453Y537349D01*
X494453Y539665D01*
X496090Y541302D01*
X506872Y541302D01*
X508509Y539665D01*
X508509Y533663D01*
X507193Y531384D01*
X504913Y530068D01*
X496090Y530068D01*
G37*
%LPD*%
%LPC*%
G36*
X128731Y602615D02*
X128731Y602615D01*
X128731Y614133D01*
X138042Y614133D01*
X138689Y613960D01*
X139268Y613625D01*
X139741Y613152D01*
X140076Y612573D01*
X140249Y611926D01*
X140249Y602615D01*
X128731Y602615D01*
G37*
%LPD*%
%LPC*%
G36*
X334859Y116031D02*
X334859Y116031D01*
X334859Y127549D01*
X344170Y127549D01*
X344817Y127376D01*
X345396Y127041D01*
X345869Y126568D01*
X346204Y125989D01*
X346377Y125342D01*
X346377Y116031D01*
X334859Y116031D01*
G37*
%LPD*%
%LPC*%
G36*
X637335Y115523D02*
X637335Y115523D01*
X637335Y127041D01*
X646646Y127041D01*
X647293Y126868D01*
X647872Y126533D01*
X648345Y126060D01*
X648680Y125481D01*
X648853Y124834D01*
X648853Y115523D01*
X637335Y115523D01*
G37*
%LPD*%
%LPC*%
G36*
X320295Y116031D02*
X320295Y116031D01*
X320295Y125342D01*
X320468Y125989D01*
X320803Y126568D01*
X321276Y127041D01*
X321855Y127376D01*
X322502Y127549D01*
X331813Y127549D01*
X331813Y116031D01*
X320295Y116031D01*
G37*
%LPD*%
%LPC*%
G36*
X622771Y115523D02*
X622771Y115523D01*
X622771Y124834D01*
X622944Y125481D01*
X623279Y126060D01*
X623752Y126533D01*
X624331Y126868D01*
X624978Y127041D01*
X634289Y127041D01*
X634289Y115523D01*
X622771Y115523D01*
G37*
%LPD*%
%LPC*%
G36*
X114167Y602615D02*
X114167Y602615D01*
X114167Y611926D01*
X114340Y612573D01*
X114675Y613152D01*
X115148Y613625D01*
X115727Y613960D01*
X116374Y614133D01*
X125685Y614133D01*
X125685Y602615D01*
X114167Y602615D01*
G37*
%LPD*%
%LPC*%
G36*
X334859Y101467D02*
X334859Y101467D01*
X334859Y112985D01*
X346377Y112985D01*
X346377Y103674D01*
X346204Y103027D01*
X345869Y102448D01*
X345396Y101975D01*
X344817Y101640D01*
X344170Y101467D01*
X334859Y101467D01*
G37*
%LPD*%
%LPC*%
G36*
X637335Y100959D02*
X637335Y100959D01*
X637335Y112477D01*
X648853Y112477D01*
X648853Y103166D01*
X648680Y102519D01*
X648345Y101940D01*
X647872Y101467D01*
X647293Y101132D01*
X646646Y100959D01*
X637335Y100959D01*
G37*
%LPD*%
%LPC*%
G36*
X128731Y588051D02*
X128731Y588051D01*
X128731Y599569D01*
X140249Y599569D01*
X140249Y590258D01*
X140076Y589611D01*
X139741Y589032D01*
X139268Y588559D01*
X138689Y588224D01*
X138042Y588051D01*
X128731Y588051D01*
G37*
%LPD*%
%LPC*%
G36*
X116374Y588051D02*
X116374Y588051D01*
X115727Y588224D01*
X115148Y588559D01*
X114675Y589032D01*
X114340Y589611D01*
X114167Y590258D01*
X114167Y599569D01*
X125685Y599569D01*
X125685Y588051D01*
X116374Y588051D01*
G37*
%LPD*%
%LPC*%
G36*
X322502Y101467D02*
X322502Y101467D01*
X321855Y101640D01*
X321276Y101975D01*
X320803Y102448D01*
X320468Y103027D01*
X320295Y103674D01*
X320295Y112985D01*
X331813Y112985D01*
X331813Y101467D01*
X322502Y101467D01*
G37*
%LPD*%
%LPC*%
G36*
X624978Y100959D02*
X624978Y100959D01*
X624331Y101132D01*
X623752Y101467D01*
X623279Y101940D01*
X622944Y102519D01*
X622771Y103166D01*
X622771Y112477D01*
X634289Y112477D01*
X634289Y100959D01*
X624978Y100959D01*
G37*
%LPD*%
%LPC*%
G36*
X556667Y429711D02*
X556667Y429711D01*
X556667Y441729D01*
X564478Y441729D01*
X565125Y441556D01*
X565704Y441221D01*
X566177Y440748D01*
X566512Y440169D01*
X566685Y439522D01*
X566685Y429711D01*
X556667Y429711D01*
G37*
%LPD*%
%LPC*%
G36*
X556667Y414647D02*
X556667Y414647D01*
X556667Y426665D01*
X566685Y426665D01*
X566685Y416854D01*
X566512Y416207D01*
X566177Y415628D01*
X565704Y415155D01*
X565125Y414820D01*
X564478Y414647D01*
X556667Y414647D01*
G37*
%LPD*%
%LPC*%
G36*
X543603Y429711D02*
X543603Y429711D01*
X543603Y439522D01*
X543776Y440169D01*
X544111Y440748D01*
X544584Y441221D01*
X545163Y441556D01*
X545810Y441729D01*
X553621Y441729D01*
X553621Y429711D01*
X543603Y429711D01*
G37*
%LPD*%
%LPC*%
G36*
X545810Y414647D02*
X545810Y414647D01*
X545163Y414820D01*
X544584Y415155D01*
X544111Y415628D01*
X543776Y416207D01*
X543603Y416854D01*
X543603Y426665D01*
X553621Y426665D01*
X553621Y414647D01*
X545810Y414647D01*
G37*
%LPD*%
%LPC*%
G36*
X100623Y347215D02*
X100623Y347215D01*
X100623Y362383D01*
X102701Y362383D01*
X103781Y362168D01*
X104798Y361746D01*
X105714Y361135D01*
X106493Y360356D01*
X107104Y359440D01*
X107526Y358423D01*
X107741Y357343D01*
X107741Y347215D01*
X100623Y347215D01*
G37*
%LPD*%
%LPC*%
G36*
X100623Y329001D02*
X100623Y329001D01*
X100623Y344169D01*
X107741Y344169D01*
X107741Y334041D01*
X107526Y332961D01*
X107104Y331944D01*
X106493Y331028D01*
X105714Y330249D01*
X104798Y329638D01*
X103781Y329216D01*
X102701Y329001D01*
X100623Y329001D01*
G37*
%LPD*%
%LPC*%
G36*
X90459Y347215D02*
X90459Y347215D01*
X90459Y357343D01*
X90674Y358423D01*
X91096Y359440D01*
X91707Y360356D01*
X92486Y361135D01*
X93402Y361746D01*
X94419Y362168D01*
X95499Y362383D01*
X97577Y362383D01*
X97577Y347215D01*
X90459Y347215D01*
G37*
%LPD*%
%LPC*%
G36*
X95499Y329001D02*
X95499Y329001D01*
X94419Y329216D01*
X93402Y329638D01*
X92486Y330249D01*
X91707Y331028D01*
X91096Y331944D01*
X90674Y332961D01*
X90459Y334041D01*
X90459Y344169D01*
X97577Y344169D01*
X97577Y329001D01*
X95499Y329001D01*
G37*
%LPD*%
%LPC*%
G36*
X234022Y286793D02*
X234022Y286793D01*
X230913Y289902D01*
X230913Y294298D01*
X234022Y297407D01*
X238418Y297407D01*
X241527Y294298D01*
X241527Y289902D01*
X238418Y286793D01*
X234022Y286793D01*
G37*
%LPD*%
%LPC*%
G36*
X509358Y157761D02*
X509358Y157761D01*
X506249Y160870D01*
X506249Y165266D01*
X509358Y168375D01*
X513754Y168375D01*
X516863Y165266D01*
X516863Y160870D01*
X513754Y157761D01*
X509358Y157761D01*
G37*
%LPD*%
%LPC*%
G36*
X269582Y154713D02*
X269582Y154713D01*
X266473Y157822D01*
X266473Y162218D01*
X269582Y165327D01*
X273978Y165327D01*
X277087Y162218D01*
X277087Y157822D01*
X273978Y154713D01*
X269582Y154713D01*
G37*
%LPD*%
%LPC*%
G36*
X661250Y146585D02*
X661250Y146585D01*
X658141Y149694D01*
X658141Y154090D01*
X661250Y157199D01*
X665646Y157199D01*
X668755Y154090D01*
X668755Y149694D01*
X665646Y146585D01*
X661250Y146585D01*
G37*
%LPD*%
%LPC*%
G36*
X280758Y384837D02*
X280758Y384837D01*
X277649Y387946D01*
X277649Y392342D01*
X280758Y395451D01*
X285154Y395451D01*
X288263Y392342D01*
X288263Y387946D01*
X285154Y384837D01*
X280758Y384837D01*
G37*
%LPD*%
%LPC*%
G36*
X92798Y365025D02*
X92798Y365025D01*
X89689Y368134D01*
X89689Y372530D01*
X92798Y375639D01*
X97194Y375639D01*
X100303Y372530D01*
X100303Y368134D01*
X97194Y365025D01*
X92798Y365025D01*
G37*
%LPD*%
%LPC*%
G36*
X553554Y317781D02*
X553554Y317781D01*
X550445Y320890D01*
X550445Y325286D01*
X553554Y328395D01*
X557950Y328395D01*
X561059Y325286D01*
X561059Y320890D01*
X557950Y317781D01*
X553554Y317781D01*
G37*
%LPD*%
%LPC*%
G36*
X645502Y316765D02*
X645502Y316765D01*
X642393Y319874D01*
X642393Y324270D01*
X645502Y327379D01*
X649898Y327379D01*
X653007Y324270D01*
X653007Y319874D01*
X649898Y316765D01*
X645502Y316765D01*
G37*
%LPD*%
%LPC*%
G36*
X150202Y293397D02*
X150202Y293397D01*
X147093Y296506D01*
X147093Y300902D01*
X150202Y304011D01*
X154598Y304011D01*
X157707Y300902D01*
X157707Y296506D01*
X154598Y293397D01*
X150202Y293397D01*
G37*
%LPD*%
%LPC*%
G36*
X511390Y739421D02*
X511390Y739421D01*
X508281Y742530D01*
X508281Y746926D01*
X511390Y750035D01*
X515786Y750035D01*
X518895Y746926D01*
X518895Y742530D01*
X515786Y739421D01*
X511390Y739421D01*
G37*
%LPD*%
%LPC*%
G36*
X373722Y672365D02*
X373722Y672365D01*
X370613Y675474D01*
X370613Y679870D01*
X373722Y682979D01*
X378118Y682979D01*
X381227Y679870D01*
X381227Y675474D01*
X378118Y672365D01*
X373722Y672365D01*
G37*
%LPD*%
%LPC*%
G36*
X180174Y596165D02*
X180174Y596165D01*
X177065Y599274D01*
X177065Y603670D01*
X180174Y606779D01*
X184570Y606779D01*
X187679Y603670D01*
X187679Y599274D01*
X184570Y596165D01*
X180174Y596165D01*
G37*
%LPD*%
%LPC*%
G36*
X307682Y239549D02*
X307682Y239549D01*
X304573Y242658D01*
X304573Y247054D01*
X307682Y250163D01*
X312078Y250163D01*
X315187Y247054D01*
X315187Y242658D01*
X312078Y239549D01*
X307682Y239549D01*
G37*
%LPD*%
%LPC*%
G36*
X201510Y500153D02*
X201510Y500153D01*
X198401Y503262D01*
X198401Y507658D01*
X201510Y510767D01*
X205906Y510767D01*
X209015Y507658D01*
X209015Y503262D01*
X205906Y500153D01*
X201510Y500153D01*
G37*
%LPD*%
%LPC*%
G36*
X415378Y90705D02*
X415378Y90705D01*
X412269Y93814D01*
X412269Y98210D01*
X415378Y101319D01*
X419774Y101319D01*
X422883Y98210D01*
X422883Y93814D01*
X419774Y90705D01*
X415378Y90705D01*
G37*
%LPD*%
%LPC*%
G36*
X335622Y476785D02*
X335622Y476785D01*
X332513Y479894D01*
X332513Y484290D01*
X335622Y487399D01*
X340018Y487399D01*
X343127Y484290D01*
X343127Y479894D01*
X340018Y476785D01*
X335622Y476785D01*
G37*
%LPD*%
%LPC*%
G36*
X162394Y153697D02*
X162394Y153697D01*
X159285Y156806D01*
X159285Y161202D01*
X162394Y164311D01*
X166790Y164311D01*
X169899Y161202D01*
X169899Y156806D01*
X166790Y153697D01*
X162394Y153697D01*
G37*
%LPD*%
%LPC*%
G36*
X308130Y475141D02*
X308130Y475141D01*
X308130Y482509D01*
X317241Y482509D01*
X317887Y482336D01*
X318467Y482001D01*
X318940Y481528D01*
X319274Y480949D01*
X319447Y480302D01*
X319447Y475141D01*
X308130Y475141D01*
G37*
%LPD*%
%LPC*%
G36*
X252067Y475649D02*
X252067Y475649D01*
X252067Y483017D01*
X261178Y483017D01*
X261825Y482844D01*
X262404Y482509D01*
X262877Y482036D01*
X263212Y481457D01*
X263385Y480810D01*
X263385Y475649D01*
X252067Y475649D01*
G37*
%LPD*%
%LPC*%
G36*
X212113Y320915D02*
X212113Y320915D01*
X212113Y332233D01*
X217274Y332233D01*
X217921Y332060D01*
X218500Y331725D01*
X218973Y331252D01*
X219308Y330673D01*
X219481Y330026D01*
X219481Y320915D01*
X212113Y320915D01*
G37*
%LPD*%
%LPC*%
G36*
X212113Y267575D02*
X212113Y267575D01*
X212113Y278893D01*
X217274Y278893D01*
X217921Y278720D01*
X218500Y278385D01*
X218973Y277912D01*
X219308Y277333D01*
X219481Y276686D01*
X219481Y267575D01*
X212113Y267575D01*
G37*
%LPD*%
%LPC*%
G36*
X237703Y475649D02*
X237703Y475649D01*
X237703Y480810D01*
X237876Y481457D01*
X238211Y482036D01*
X238684Y482509D01*
X239263Y482844D01*
X239910Y483017D01*
X249021Y483017D01*
X249021Y475649D01*
X237703Y475649D01*
G37*
%LPD*%
%LPC*%
G36*
X293766Y475141D02*
X293766Y475141D01*
X293766Y480302D01*
X293939Y480949D01*
X294274Y481528D01*
X294747Y482001D01*
X295326Y482336D01*
X295972Y482509D01*
X305083Y482509D01*
X305083Y475141D01*
X293766Y475141D01*
G37*
%LPD*%
%LPC*%
G36*
X308130Y472095D02*
X308130Y472095D01*
X319447Y472095D01*
X319447Y466934D01*
X319274Y466287D01*
X318940Y465708D01*
X318467Y465235D01*
X317887Y464900D01*
X317241Y464727D01*
X308130Y464727D01*
X308130Y472095D01*
G37*
%LPD*%
%LPC*%
G36*
X201699Y267575D02*
X201699Y267575D01*
X201699Y276686D01*
X201872Y277333D01*
X202207Y277912D01*
X202680Y278385D01*
X203259Y278720D01*
X203906Y278893D01*
X209067Y278893D01*
X209067Y267575D01*
X201699Y267575D01*
G37*
%LPD*%
%LPC*%
G36*
X252067Y472603D02*
X252067Y472603D01*
X263385Y472603D01*
X263385Y467442D01*
X263212Y466795D01*
X262877Y466216D01*
X262404Y465743D01*
X261825Y465408D01*
X261178Y465235D01*
X252067Y465235D01*
X252067Y472603D01*
G37*
%LPD*%
%LPC*%
G36*
X201699Y320915D02*
X201699Y320915D01*
X201699Y330026D01*
X201872Y330673D01*
X202207Y331252D01*
X202680Y331725D01*
X203259Y332060D01*
X203906Y332233D01*
X209067Y332233D01*
X209067Y320915D01*
X201699Y320915D01*
G37*
%LPD*%
%LPC*%
G36*
X212113Y306551D02*
X212113Y306551D01*
X212113Y317869D01*
X219481Y317869D01*
X219481Y308758D01*
X219308Y308111D01*
X218973Y307532D01*
X218500Y307059D01*
X217921Y306724D01*
X217274Y306551D01*
X212113Y306551D01*
G37*
%LPD*%
%LPC*%
G36*
X212113Y253211D02*
X212113Y253211D01*
X212113Y264529D01*
X219481Y264529D01*
X219481Y255418D01*
X219308Y254771D01*
X218973Y254192D01*
X218500Y253719D01*
X217921Y253384D01*
X217274Y253211D01*
X212113Y253211D01*
G37*
%LPD*%
%LPC*%
G36*
X203906Y306551D02*
X203906Y306551D01*
X203259Y306724D01*
X202680Y307059D01*
X202207Y307532D01*
X201872Y308111D01*
X201699Y308758D01*
X201699Y317869D01*
X209067Y317869D01*
X209067Y306551D01*
X203906Y306551D01*
G37*
%LPD*%
%LPC*%
G36*
X203906Y253211D02*
X203906Y253211D01*
X203259Y253384D01*
X202680Y253719D01*
X202207Y254192D01*
X201872Y254771D01*
X201699Y255418D01*
X201699Y264529D01*
X209067Y264529D01*
X209067Y253211D01*
X203906Y253211D01*
G37*
%LPD*%
%LPC*%
G36*
X295972Y464727D02*
X295972Y464727D01*
X295326Y464900D01*
X294747Y465235D01*
X294274Y465708D01*
X293939Y466287D01*
X293766Y466934D01*
X293766Y472095D01*
X305083Y472095D01*
X305083Y464727D01*
X295972Y464727D01*
G37*
%LPD*%
%LPC*%
G36*
X239910Y465235D02*
X239910Y465235D01*
X239263Y465408D01*
X238684Y465743D01*
X238211Y466216D01*
X237876Y466795D01*
X237703Y467442D01*
X237703Y472603D01*
X249021Y472603D01*
X249021Y465235D01*
X239910Y465235D01*
G37*
%LPD*%
%LPC*%
G36*
X269379Y532383D02*
X269379Y532383D01*
X269379Y542192D01*
X270533Y542009D01*
X272244Y541453D01*
X273847Y540636D01*
X275303Y539579D01*
X276575Y538307D01*
X277632Y536851D01*
X278449Y535248D01*
X279005Y533537D01*
X279188Y532383D01*
X269379Y532383D01*
G37*
%LPD*%
%LPC*%
G36*
X269379Y529337D02*
X269379Y529337D01*
X279188Y529337D01*
X279005Y528183D01*
X278449Y526472D01*
X277632Y524869D01*
X276575Y523413D01*
X275303Y522141D01*
X273847Y521084D01*
X272244Y520267D01*
X270533Y519711D01*
X269379Y519528D01*
X269379Y529337D01*
G37*
%LPD*%
%LPC*%
G36*
X256524Y532383D02*
X256524Y532383D01*
X256707Y533537D01*
X257263Y535248D01*
X258080Y536851D01*
X259137Y538307D01*
X260409Y539579D01*
X261865Y540636D01*
X263468Y541453D01*
X265179Y542009D01*
X266333Y542192D01*
X266333Y532383D01*
X256524Y532383D01*
G37*
%LPD*%
%LPC*%
G36*
X265179Y519711D02*
X265179Y519711D01*
X263468Y520267D01*
X261865Y521084D01*
X260409Y522141D01*
X259137Y523413D01*
X258080Y524869D01*
X257263Y526472D01*
X256707Y528183D01*
X256524Y529337D01*
X266333Y529337D01*
X266333Y519528D01*
X265179Y519711D01*
G37*
%LPD*%
%LPC*%
G36*
X420763Y518523D02*
X420763Y518523D01*
X420763Y523541D01*
X425574Y523541D01*
X426221Y523368D01*
X426800Y523033D01*
X427273Y522560D01*
X427608Y521981D01*
X427781Y521334D01*
X427781Y518523D01*
X420763Y518523D01*
G37*
%LPD*%
%LPC*%
G36*
X410699Y518523D02*
X410699Y518523D01*
X410699Y521334D01*
X410872Y521981D01*
X411207Y522560D01*
X411680Y523033D01*
X412259Y523368D01*
X412906Y523541D01*
X417717Y523541D01*
X417717Y518523D01*
X410699Y518523D01*
G37*
%LPD*%
%LPC*%
G36*
X420763Y510459D02*
X420763Y510459D01*
X420763Y515477D01*
X427781Y515477D01*
X427781Y512666D01*
X427608Y512019D01*
X427273Y511440D01*
X426800Y510967D01*
X426221Y510632D01*
X425574Y510459D01*
X420763Y510459D01*
G37*
%LPD*%
%LPC*%
G36*
X412906Y510459D02*
X412906Y510459D01*
X412259Y510632D01*
X411680Y510967D01*
X411207Y511440D01*
X410872Y512019D01*
X410699Y512666D01*
X410699Y515477D01*
X417717Y515477D01*
X417717Y510459D01*
X412906Y510459D01*
G37*
%LPD*%
%LPC*%
G36*
X395101Y625513D02*
X395101Y625513D01*
X395101Y629057D01*
X399990Y629057D01*
X400637Y628884D01*
X401216Y628549D01*
X401689Y628076D01*
X402024Y627497D01*
X402197Y626850D01*
X402197Y625513D01*
X395101Y625513D01*
G37*
%LPD*%
%LPC*%
G36*
X386003Y625513D02*
X386003Y625513D01*
X386003Y626850D01*
X386176Y627497D01*
X386511Y628076D01*
X386984Y628549D01*
X387563Y628884D01*
X388210Y629057D01*
X393099Y629057D01*
X393099Y625513D01*
X386003Y625513D01*
G37*
%LPD*%
%LPC*%
G36*
X395101Y619967D02*
X395101Y619967D01*
X395101Y623511D01*
X402197Y623511D01*
X402197Y622173D01*
X402024Y621527D01*
X401689Y620948D01*
X401216Y620475D01*
X400637Y620140D01*
X399990Y619967D01*
X395101Y619967D01*
G37*
%LPD*%
%LPC*%
G36*
X388210Y619967D02*
X388210Y619967D01*
X387563Y620140D01*
X386984Y620475D01*
X386511Y620948D01*
X386176Y621527D01*
X386003Y622174D01*
X386003Y623511D01*
X393099Y623511D01*
X393099Y619967D01*
X388210Y619967D01*
G37*
%LPD*%
%LPC*%
G36*
X267855Y530859D02*
X267855Y530859D01*
X267855Y530861D01*
X267857Y530861D01*
X267857Y530859D01*
X267855Y530859D01*
G37*
%LPD*%
%LPC*%
G36*
X333335Y114507D02*
X333335Y114507D01*
X333335Y114509D01*
X333337Y114509D01*
X333337Y114507D01*
X333335Y114507D01*
G37*
%LPD*%
%LPC*%
G36*
X635811Y113999D02*
X635811Y113999D01*
X635811Y114001D01*
X635813Y114001D01*
X635813Y113999D01*
X635811Y113999D01*
G37*
%LPD*%
%LPC*%
G36*
X127207Y601091D02*
X127207Y601091D01*
X127207Y601093D01*
X127209Y601093D01*
X127209Y601091D01*
X127207Y601091D01*
G37*
%LPD*%
%LPC*%
G36*
X210589Y319391D02*
X210589Y319391D01*
X210589Y319393D01*
X210591Y319393D01*
X210591Y319391D01*
X210589Y319391D01*
G37*
%LPD*%
%LPC*%
G36*
X555143Y428187D02*
X555143Y428187D01*
X555143Y428189D01*
X555145Y428189D01*
X555145Y428187D01*
X555143Y428187D01*
G37*
%LPD*%
%LPC*%
G36*
X250543Y474125D02*
X250543Y474125D01*
X250543Y474127D01*
X250545Y474127D01*
X250545Y474125D01*
X250543Y474125D01*
G37*
%LPD*%
%LPC*%
G36*
X306606Y473617D02*
X306606Y473617D01*
X306606Y473619D01*
X306608Y473619D01*
X306608Y473617D01*
X306606Y473617D01*
G37*
%LPD*%
%LPC*%
G36*
X419239Y516999D02*
X419239Y516999D01*
X419239Y517001D01*
X419241Y517001D01*
X419241Y516999D01*
X419239Y516999D01*
G37*
%LPD*%
%LPC*%
G36*
X99099Y345691D02*
X99099Y345691D01*
X99099Y345693D01*
X99101Y345693D01*
X99101Y345691D01*
X99099Y345691D01*
G37*
%LPD*%
%LPC*%
G36*
X210589Y266051D02*
X210589Y266051D01*
X210589Y266053D01*
X210591Y266053D01*
X210591Y266051D01*
X210589Y266051D01*
G37*
%LPD*%
D10*
X508Y786792D02*
X-62992Y786792D01*
X-62992Y-13208D02*
X508Y-13208D01*
X-24892Y-11938D02*
X-24892Y785522D01*
X-31129Y735992D01*
X-18655Y735992D01*
X-24892Y785522D01*
X-27432Y735992D01*
X-22352Y735992D02*
X-24892Y785522D01*
X-29972Y735992D01*
X-19812Y735992D02*
X-24892Y785522D01*
X-31129Y37592D02*
X-24892Y-11938D01*
X-31129Y37592D02*
X-18655Y37592D01*
X-24892Y-11938D01*
X-27432Y37592D01*
X-22352Y37592D02*
X-24892Y-11938D01*
X-29972Y37592D01*
X-19812Y37592D02*
X-24892Y-11938D01*
D11*
X-37155Y355644D02*
X-37288Y355646D01*
X-37420Y355652D01*
X-37552Y355662D01*
X-37684Y355675D01*
X-37816Y355693D01*
X-37946Y355714D01*
X-38077Y355739D01*
X-38206Y355768D01*
X-38334Y355801D01*
X-38462Y355837D01*
X-38588Y355877D01*
X-38713Y355921D01*
X-38837Y355969D01*
X-38959Y356020D01*
X-39080Y356075D01*
X-39199Y356133D01*
X-39317Y356195D01*
X-39432Y356260D01*
X-39546Y356329D01*
X-39657Y356400D01*
X-39766Y356476D01*
X-39873Y356554D01*
X-39978Y356635D01*
X-40080Y356720D01*
X-40180Y356807D01*
X-40277Y356897D01*
X-40372Y356990D01*
X-40463Y357086D01*
X-40552Y357184D01*
X-40638Y357285D01*
X-40721Y357389D01*
X-40801Y357495D01*
X-40877Y357603D01*
X-40951Y357713D01*
X-41021Y357826D01*
X-41088Y357940D01*
X-41151Y358057D01*
X-41211Y358175D01*
X-41268Y358295D01*
X-41321Y358417D01*
X-41370Y358540D01*
X-41416Y358664D01*
X-41458Y358790D01*
X-41496Y358917D01*
X-41531Y359045D01*
X-41562Y359174D01*
X-41589Y359303D01*
X-41612Y359434D01*
X-41632Y359565D01*
X-41647Y359697D01*
X-41659Y359829D01*
X-41667Y359961D01*
X-41671Y360094D01*
X-41671Y360226D01*
X-41667Y360359D01*
X-41659Y360491D01*
X-41647Y360623D01*
X-41632Y360755D01*
X-41612Y360886D01*
X-41589Y361017D01*
X-41562Y361146D01*
X-41531Y361275D01*
X-41496Y361403D01*
X-41458Y361530D01*
X-41416Y361656D01*
X-41370Y361780D01*
X-41321Y361903D01*
X-41268Y362025D01*
X-41211Y362145D01*
X-41151Y362263D01*
X-41088Y362380D01*
X-41021Y362494D01*
X-40951Y362607D01*
X-40877Y362717D01*
X-40801Y362825D01*
X-40721Y362931D01*
X-40638Y363035D01*
X-40552Y363136D01*
X-40463Y363234D01*
X-40372Y363330D01*
X-40277Y363423D01*
X-40180Y363513D01*
X-40080Y363600D01*
X-39978Y363685D01*
X-39873Y363766D01*
X-39766Y363844D01*
X-39657Y363920D01*
X-39546Y363991D01*
X-39432Y364060D01*
X-39317Y364125D01*
X-39199Y364187D01*
X-39080Y364245D01*
X-38959Y364300D01*
X-38837Y364351D01*
X-38713Y364399D01*
X-38588Y364443D01*
X-38462Y364483D01*
X-38334Y364519D01*
X-38206Y364552D01*
X-38077Y364581D01*
X-37946Y364606D01*
X-37816Y364627D01*
X-37684Y364645D01*
X-37552Y364658D01*
X-37420Y364668D01*
X-37288Y364674D01*
X-37155Y364676D01*
X-37022Y364674D01*
X-36890Y364668D01*
X-36758Y364658D01*
X-36626Y364645D01*
X-36494Y364627D01*
X-36364Y364606D01*
X-36233Y364581D01*
X-36104Y364552D01*
X-35976Y364519D01*
X-35848Y364483D01*
X-35722Y364443D01*
X-35597Y364399D01*
X-35473Y364351D01*
X-35351Y364300D01*
X-35230Y364245D01*
X-35111Y364187D01*
X-34993Y364125D01*
X-34878Y364060D01*
X-34764Y363991D01*
X-34653Y363920D01*
X-34544Y363844D01*
X-34437Y363766D01*
X-34332Y363685D01*
X-34230Y363600D01*
X-34130Y363513D01*
X-34033Y363423D01*
X-33938Y363330D01*
X-33847Y363234D01*
X-33758Y363136D01*
X-33672Y363035D01*
X-33589Y362931D01*
X-33509Y362825D01*
X-33433Y362717D01*
X-33359Y362607D01*
X-33289Y362494D01*
X-33222Y362380D01*
X-33159Y362263D01*
X-33099Y362145D01*
X-33042Y362025D01*
X-32989Y361903D01*
X-32940Y361780D01*
X-32894Y361656D01*
X-32852Y361530D01*
X-32814Y361403D01*
X-32779Y361275D01*
X-32748Y361146D01*
X-32721Y361017D01*
X-32698Y360886D01*
X-32678Y360755D01*
X-32663Y360623D01*
X-32651Y360491D01*
X-32643Y360359D01*
X-32639Y360226D01*
X-32639Y360094D01*
X-32643Y359961D01*
X-32651Y359829D01*
X-32663Y359697D01*
X-32678Y359565D01*
X-32698Y359434D01*
X-32721Y359303D01*
X-32748Y359174D01*
X-32779Y359045D01*
X-32814Y358917D01*
X-32852Y358790D01*
X-32894Y358664D01*
X-32940Y358540D01*
X-32989Y358417D01*
X-33042Y358295D01*
X-33099Y358175D01*
X-33159Y358057D01*
X-33222Y357940D01*
X-33289Y357826D01*
X-33359Y357713D01*
X-33433Y357603D01*
X-33509Y357495D01*
X-33589Y357389D01*
X-33672Y357285D01*
X-33758Y357184D01*
X-33847Y357086D01*
X-33938Y356990D01*
X-34033Y356897D01*
X-34130Y356807D01*
X-34230Y356720D01*
X-34332Y356635D01*
X-34437Y356554D01*
X-34544Y356476D01*
X-34653Y356400D01*
X-34764Y356329D01*
X-34878Y356260D01*
X-34993Y356195D01*
X-35111Y356133D01*
X-35230Y356075D01*
X-35351Y356020D01*
X-35473Y355969D01*
X-35597Y355921D01*
X-35722Y355877D01*
X-35848Y355837D01*
X-35976Y355801D01*
X-36104Y355768D01*
X-36233Y355739D01*
X-36364Y355714D01*
X-36494Y355693D01*
X-36626Y355675D01*
X-36758Y355662D01*
X-36890Y355652D01*
X-37022Y355646D01*
X-37155Y355644D01*
X-45283Y356548D02*
X-45402Y356550D01*
X-45522Y356556D01*
X-45641Y356566D01*
X-45759Y356580D01*
X-45878Y356597D01*
X-45995Y356619D01*
X-46112Y356644D01*
X-46227Y356674D01*
X-46342Y356707D01*
X-46456Y356744D01*
X-46568Y356784D01*
X-46679Y356829D01*
X-46788Y356877D01*
X-46896Y356928D01*
X-47002Y356983D01*
X-47106Y357042D01*
X-47208Y357104D01*
X-47308Y357169D01*
X-47406Y357238D01*
X-47502Y357310D01*
X-47595Y357385D01*
X-47685Y357462D01*
X-47773Y357543D01*
X-47858Y357627D01*
X-47940Y357714D01*
X-48020Y357803D01*
X-48096Y357895D01*
X-48170Y357989D01*
X-48240Y358086D01*
X-48307Y358184D01*
X-48371Y358285D01*
X-48431Y358389D01*
X-48488Y358494D01*
X-48541Y358601D01*
X-48591Y358709D01*
X-48637Y358819D01*
X-48679Y358931D01*
X-48718Y359044D01*
X-48753Y359158D01*
X-48784Y359273D01*
X-48812Y359390D01*
X-48835Y359507D01*
X-48855Y359624D01*
X-48871Y359743D01*
X-48883Y359862D01*
X-48891Y359981D01*
X-48895Y360100D01*
X-48895Y360220D01*
X-48891Y360339D01*
X-48883Y360458D01*
X-48871Y360577D01*
X-48855Y360696D01*
X-48835Y360813D01*
X-48812Y360930D01*
X-48784Y361047D01*
X-48753Y361162D01*
X-48718Y361276D01*
X-48679Y361389D01*
X-48637Y361501D01*
X-48591Y361611D01*
X-48541Y361719D01*
X-48488Y361826D01*
X-48431Y361931D01*
X-48371Y362035D01*
X-48307Y362136D01*
X-48240Y362234D01*
X-48170Y362331D01*
X-48096Y362425D01*
X-48020Y362517D01*
X-47940Y362606D01*
X-47858Y362693D01*
X-47773Y362777D01*
X-47685Y362858D01*
X-47595Y362935D01*
X-47502Y363010D01*
X-47406Y363082D01*
X-47308Y363151D01*
X-47208Y363216D01*
X-47106Y363278D01*
X-47002Y363337D01*
X-46896Y363392D01*
X-46788Y363443D01*
X-46679Y363491D01*
X-46568Y363536D01*
X-46456Y363576D01*
X-46342Y363613D01*
X-46227Y363646D01*
X-46112Y363676D01*
X-45995Y363701D01*
X-45878Y363723D01*
X-45759Y363740D01*
X-45641Y363754D01*
X-45522Y363764D01*
X-45402Y363770D01*
X-45283Y363772D01*
X-45164Y363770D01*
X-45044Y363764D01*
X-44925Y363754D01*
X-44807Y363740D01*
X-44688Y363723D01*
X-44571Y363701D01*
X-44454Y363676D01*
X-44339Y363646D01*
X-44224Y363613D01*
X-44110Y363576D01*
X-43998Y363536D01*
X-43887Y363491D01*
X-43778Y363443D01*
X-43670Y363392D01*
X-43564Y363337D01*
X-43460Y363278D01*
X-43358Y363216D01*
X-43258Y363151D01*
X-43160Y363082D01*
X-43064Y363010D01*
X-42971Y362935D01*
X-42881Y362858D01*
X-42793Y362777D01*
X-42708Y362693D01*
X-42626Y362606D01*
X-42546Y362517D01*
X-42470Y362425D01*
X-42396Y362331D01*
X-42326Y362234D01*
X-42259Y362136D01*
X-42195Y362035D01*
X-42135Y361931D01*
X-42078Y361826D01*
X-42025Y361719D01*
X-41975Y361611D01*
X-41929Y361501D01*
X-41887Y361389D01*
X-41848Y361276D01*
X-41813Y361162D01*
X-41782Y361047D01*
X-41754Y360930D01*
X-41731Y360813D01*
X-41711Y360696D01*
X-41695Y360577D01*
X-41683Y360458D01*
X-41675Y360339D01*
X-41671Y360220D01*
X-41671Y360100D01*
X-41675Y359981D01*
X-41683Y359862D01*
X-41695Y359743D01*
X-41711Y359624D01*
X-41731Y359507D01*
X-41754Y359390D01*
X-41782Y359273D01*
X-41813Y359158D01*
X-41848Y359044D01*
X-41887Y358931D01*
X-41929Y358819D01*
X-41975Y358709D01*
X-42025Y358601D01*
X-42078Y358494D01*
X-42135Y358389D01*
X-42195Y358285D01*
X-42259Y358184D01*
X-42326Y358086D01*
X-42396Y357989D01*
X-42470Y357895D01*
X-42546Y357803D01*
X-42626Y357714D01*
X-42708Y357627D01*
X-42793Y357543D01*
X-42881Y357462D01*
X-42971Y357385D01*
X-43064Y357310D01*
X-43160Y357238D01*
X-43258Y357169D01*
X-43358Y357104D01*
X-43460Y357042D01*
X-43564Y356983D01*
X-43670Y356928D01*
X-43778Y356877D01*
X-43887Y356829D01*
X-43998Y356784D01*
X-44110Y356744D01*
X-44224Y356707D01*
X-44339Y356674D01*
X-44454Y356644D01*
X-44571Y356619D01*
X-44688Y356597D01*
X-44807Y356580D01*
X-44925Y356566D01*
X-45044Y356556D01*
X-45164Y356550D01*
X-45283Y356548D01*
X-40767Y371275D02*
X-41087Y371279D01*
X-41406Y371290D01*
X-41726Y371309D01*
X-42044Y371336D01*
X-42362Y371370D01*
X-42679Y371412D01*
X-42995Y371462D01*
X-43310Y371519D01*
X-43623Y371583D01*
X-43935Y371655D01*
X-44245Y371734D01*
X-44552Y371821D01*
X-44858Y371915D01*
X-45161Y372016D01*
X-45462Y372125D01*
X-45760Y372240D01*
X-46056Y372363D01*
X-46348Y372493D01*
X-46637Y372630D01*
X-46638Y372630D02*
X-46746Y372669D01*
X-46853Y372712D01*
X-46958Y372758D01*
X-47062Y372809D01*
X-47164Y372862D01*
X-47264Y372919D01*
X-47362Y372980D01*
X-47457Y373044D01*
X-47551Y373111D01*
X-47642Y373182D01*
X-47731Y373255D01*
X-47817Y373332D01*
X-47900Y373411D01*
X-47981Y373493D01*
X-48059Y373578D01*
X-48133Y373666D01*
X-48205Y373756D01*
X-48273Y373848D01*
X-48339Y373943D01*
X-48401Y374040D01*
X-48459Y374139D01*
X-48515Y374241D01*
X-48566Y374343D01*
X-48614Y374448D01*
X-48659Y374554D01*
X-48700Y374662D01*
X-48737Y374771D01*
X-48770Y374881D01*
X-48799Y374993D01*
X-48825Y375105D01*
X-48847Y375218D01*
X-48864Y375332D01*
X-48878Y375446D01*
X-48888Y375561D01*
X-48894Y375676D01*
X-48896Y375791D01*
X-48895Y375791D02*
X-48893Y375906D01*
X-48887Y376021D01*
X-48877Y376136D01*
X-48863Y376250D01*
X-48846Y376364D01*
X-48824Y376477D01*
X-48798Y376589D01*
X-48769Y376701D01*
X-48736Y376811D01*
X-48699Y376920D01*
X-48658Y377028D01*
X-48613Y377134D01*
X-48565Y377239D01*
X-48514Y377341D01*
X-48458Y377442D01*
X-48400Y377542D01*
X-48338Y377639D01*
X-48273Y377733D01*
X-48204Y377826D01*
X-48132Y377916D01*
X-48058Y378004D01*
X-47980Y378089D01*
X-47899Y378171D01*
X-47816Y378250D01*
X-47730Y378327D01*
X-47641Y378400D01*
X-47550Y378471D01*
X-47456Y378538D01*
X-47361Y378602D01*
X-47263Y378663D01*
X-47163Y378720D01*
X-47061Y378773D01*
X-46957Y378824D01*
X-46852Y378870D01*
X-46745Y378913D01*
X-46637Y378952D01*
X-46637Y378951D02*
X-46348Y379088D01*
X-46056Y379218D01*
X-45760Y379341D01*
X-45462Y379456D01*
X-45161Y379565D01*
X-44858Y379666D01*
X-44552Y379760D01*
X-44245Y379847D01*
X-43935Y379926D01*
X-43623Y379998D01*
X-43310Y380062D01*
X-42995Y380119D01*
X-42679Y380169D01*
X-42362Y380211D01*
X-42044Y380245D01*
X-41726Y380272D01*
X-41406Y380291D01*
X-41087Y380302D01*
X-40767Y380306D01*
X-40767Y371276D02*
X-40447Y371280D01*
X-40128Y371291D01*
X-39808Y371310D01*
X-39490Y371337D01*
X-39172Y371371D01*
X-38855Y371413D01*
X-38539Y371463D01*
X-38224Y371520D01*
X-37911Y371584D01*
X-37599Y371656D01*
X-37289Y371735D01*
X-36982Y371822D01*
X-36676Y371916D01*
X-36373Y372017D01*
X-36072Y372126D01*
X-35774Y372241D01*
X-35478Y372364D01*
X-35186Y372494D01*
X-34897Y372631D01*
X-34897Y372630D02*
X-34789Y372669D01*
X-34682Y372712D01*
X-34577Y372758D01*
X-34473Y372809D01*
X-34371Y372862D01*
X-34271Y372919D01*
X-34173Y372980D01*
X-34078Y373044D01*
X-33984Y373111D01*
X-33893Y373182D01*
X-33804Y373255D01*
X-33718Y373332D01*
X-33635Y373411D01*
X-33554Y373493D01*
X-33476Y373578D01*
X-33402Y373666D01*
X-33330Y373756D01*
X-33261Y373849D01*
X-33196Y373943D01*
X-33134Y374040D01*
X-33076Y374140D01*
X-33020Y374241D01*
X-32969Y374343D01*
X-32921Y374448D01*
X-32876Y374554D01*
X-32835Y374662D01*
X-32798Y374771D01*
X-32765Y374881D01*
X-32736Y374993D01*
X-32710Y375105D01*
X-32688Y375218D01*
X-32671Y375332D01*
X-32657Y375446D01*
X-32647Y375561D01*
X-32641Y375676D01*
X-32639Y375791D01*
X-34897Y378951D02*
X-35186Y379088D01*
X-35478Y379218D01*
X-35774Y379341D01*
X-36072Y379456D01*
X-36373Y379565D01*
X-36676Y379666D01*
X-36982Y379760D01*
X-37289Y379847D01*
X-37599Y379926D01*
X-37911Y379998D01*
X-38224Y380062D01*
X-38539Y380119D01*
X-38855Y380169D01*
X-39172Y380211D01*
X-39490Y380245D01*
X-39808Y380272D01*
X-40128Y380291D01*
X-40447Y380302D01*
X-40767Y380306D01*
X-34897Y378952D02*
X-34789Y378913D01*
X-34682Y378870D01*
X-34577Y378824D01*
X-34473Y378773D01*
X-34371Y378720D01*
X-34271Y378663D01*
X-34173Y378602D01*
X-34078Y378538D01*
X-33984Y378471D01*
X-33893Y378400D01*
X-33804Y378327D01*
X-33718Y378250D01*
X-33635Y378171D01*
X-33554Y378089D01*
X-33476Y378004D01*
X-33402Y377916D01*
X-33330Y377826D01*
X-33261Y377733D01*
X-33196Y377639D01*
X-33134Y377542D01*
X-33076Y377442D01*
X-33020Y377341D01*
X-32969Y377238D01*
X-32921Y377134D01*
X-32876Y377028D01*
X-32835Y376920D01*
X-32798Y376811D01*
X-32765Y376701D01*
X-32736Y376589D01*
X-32710Y376477D01*
X-32688Y376364D01*
X-32671Y376250D01*
X-32657Y376136D01*
X-32647Y376021D01*
X-32641Y375906D01*
X-32639Y375791D01*
X-36251Y372178D02*
X-45283Y379403D01*
X-33542Y386281D02*
X-32639Y386281D01*
X-33542Y386281D02*
X-33542Y387184D01*
X-32639Y387184D01*
X-32639Y386281D01*
X-40767Y393159D02*
X-41087Y393163D01*
X-41406Y393174D01*
X-41726Y393193D01*
X-42044Y393220D01*
X-42362Y393254D01*
X-42679Y393296D01*
X-42995Y393346D01*
X-43310Y393403D01*
X-43623Y393467D01*
X-43935Y393539D01*
X-44245Y393618D01*
X-44552Y393705D01*
X-44858Y393799D01*
X-45161Y393900D01*
X-45462Y394009D01*
X-45760Y394124D01*
X-46056Y394247D01*
X-46348Y394377D01*
X-46637Y394514D01*
X-46638Y394513D02*
X-46746Y394552D01*
X-46853Y394595D01*
X-46958Y394641D01*
X-47062Y394692D01*
X-47164Y394745D01*
X-47264Y394802D01*
X-47362Y394863D01*
X-47457Y394927D01*
X-47551Y394994D01*
X-47642Y395065D01*
X-47731Y395138D01*
X-47817Y395215D01*
X-47900Y395294D01*
X-47981Y395376D01*
X-48059Y395461D01*
X-48133Y395549D01*
X-48205Y395639D01*
X-48273Y395731D01*
X-48339Y395826D01*
X-48401Y395923D01*
X-48459Y396022D01*
X-48515Y396124D01*
X-48566Y396226D01*
X-48614Y396331D01*
X-48659Y396437D01*
X-48700Y396545D01*
X-48737Y396654D01*
X-48770Y396764D01*
X-48799Y396876D01*
X-48825Y396988D01*
X-48847Y397101D01*
X-48864Y397215D01*
X-48878Y397329D01*
X-48888Y397444D01*
X-48894Y397559D01*
X-48896Y397674D01*
X-48895Y397674D02*
X-48893Y397789D01*
X-48887Y397904D01*
X-48877Y398019D01*
X-48863Y398133D01*
X-48846Y398247D01*
X-48824Y398360D01*
X-48798Y398472D01*
X-48769Y398584D01*
X-48736Y398694D01*
X-48699Y398803D01*
X-48658Y398911D01*
X-48613Y399017D01*
X-48565Y399122D01*
X-48514Y399224D01*
X-48458Y399325D01*
X-48400Y399425D01*
X-48338Y399522D01*
X-48273Y399616D01*
X-48204Y399709D01*
X-48132Y399799D01*
X-48058Y399887D01*
X-47980Y399972D01*
X-47899Y400054D01*
X-47816Y400133D01*
X-47730Y400210D01*
X-47641Y400283D01*
X-47550Y400354D01*
X-47456Y400421D01*
X-47361Y400485D01*
X-47263Y400546D01*
X-47163Y400603D01*
X-47061Y400656D01*
X-46957Y400707D01*
X-46852Y400753D01*
X-46745Y400796D01*
X-46637Y400835D01*
X-46348Y400972D01*
X-46056Y401102D01*
X-45760Y401225D01*
X-45462Y401340D01*
X-45161Y401449D01*
X-44858Y401550D01*
X-44552Y401644D01*
X-44245Y401731D01*
X-43935Y401810D01*
X-43623Y401882D01*
X-43310Y401946D01*
X-42995Y402003D01*
X-42679Y402053D01*
X-42362Y402095D01*
X-42044Y402129D01*
X-41726Y402156D01*
X-41406Y402175D01*
X-41087Y402186D01*
X-40767Y402190D01*
X-40767Y393159D02*
X-40447Y393163D01*
X-40128Y393174D01*
X-39808Y393193D01*
X-39490Y393220D01*
X-39172Y393254D01*
X-38855Y393296D01*
X-38539Y393346D01*
X-38224Y393403D01*
X-37911Y393467D01*
X-37599Y393539D01*
X-37289Y393618D01*
X-36982Y393705D01*
X-36676Y393799D01*
X-36373Y393900D01*
X-36072Y394009D01*
X-35774Y394124D01*
X-35478Y394247D01*
X-35186Y394377D01*
X-34897Y394514D01*
X-34897Y394513D02*
X-34789Y394552D01*
X-34682Y394595D01*
X-34577Y394641D01*
X-34473Y394692D01*
X-34371Y394745D01*
X-34271Y394802D01*
X-34173Y394863D01*
X-34078Y394927D01*
X-33984Y394994D01*
X-33893Y395065D01*
X-33804Y395138D01*
X-33718Y395215D01*
X-33635Y395294D01*
X-33554Y395376D01*
X-33476Y395461D01*
X-33402Y395549D01*
X-33330Y395639D01*
X-33261Y395732D01*
X-33196Y395826D01*
X-33134Y395923D01*
X-33076Y396023D01*
X-33020Y396124D01*
X-32969Y396226D01*
X-32921Y396331D01*
X-32876Y396437D01*
X-32835Y396545D01*
X-32798Y396654D01*
X-32765Y396764D01*
X-32736Y396876D01*
X-32710Y396988D01*
X-32688Y397101D01*
X-32671Y397215D01*
X-32657Y397329D01*
X-32647Y397444D01*
X-32641Y397559D01*
X-32639Y397674D01*
X-34897Y400835D02*
X-35186Y400972D01*
X-35478Y401102D01*
X-35774Y401225D01*
X-36072Y401340D01*
X-36373Y401449D01*
X-36676Y401550D01*
X-36982Y401644D01*
X-37289Y401731D01*
X-37599Y401810D01*
X-37911Y401882D01*
X-38224Y401946D01*
X-38539Y402003D01*
X-38855Y402053D01*
X-39172Y402095D01*
X-39490Y402129D01*
X-39808Y402156D01*
X-40128Y402175D01*
X-40447Y402186D01*
X-40767Y402190D01*
X-34897Y400835D02*
X-34789Y400796D01*
X-34682Y400753D01*
X-34577Y400707D01*
X-34473Y400656D01*
X-34371Y400603D01*
X-34271Y400546D01*
X-34173Y400485D01*
X-34078Y400421D01*
X-33984Y400354D01*
X-33893Y400283D01*
X-33804Y400210D01*
X-33718Y400133D01*
X-33635Y400054D01*
X-33554Y399972D01*
X-33476Y399887D01*
X-33402Y399799D01*
X-33330Y399709D01*
X-33261Y399616D01*
X-33196Y399522D01*
X-33134Y399425D01*
X-33076Y399325D01*
X-33020Y399224D01*
X-32969Y399121D01*
X-32921Y399017D01*
X-32876Y398911D01*
X-32835Y398803D01*
X-32798Y398694D01*
X-32765Y398584D01*
X-32736Y398472D01*
X-32710Y398360D01*
X-32688Y398247D01*
X-32671Y398133D01*
X-32657Y398019D01*
X-32647Y397904D01*
X-32641Y397789D01*
X-32639Y397674D01*
X-36251Y394062D02*
X-45283Y401287D01*
X-40767Y408790D02*
X-41087Y408794D01*
X-41406Y408805D01*
X-41726Y408824D01*
X-42044Y408851D01*
X-42362Y408885D01*
X-42679Y408927D01*
X-42995Y408977D01*
X-43310Y409034D01*
X-43623Y409098D01*
X-43935Y409170D01*
X-44245Y409249D01*
X-44552Y409336D01*
X-44858Y409430D01*
X-45161Y409531D01*
X-45462Y409640D01*
X-45760Y409755D01*
X-46056Y409878D01*
X-46348Y410008D01*
X-46637Y410145D01*
X-46638Y410145D02*
X-46746Y410184D01*
X-46853Y410227D01*
X-46958Y410273D01*
X-47062Y410324D01*
X-47164Y410377D01*
X-47264Y410434D01*
X-47362Y410495D01*
X-47457Y410559D01*
X-47551Y410626D01*
X-47642Y410697D01*
X-47731Y410770D01*
X-47817Y410847D01*
X-47900Y410926D01*
X-47981Y411008D01*
X-48059Y411093D01*
X-48133Y411181D01*
X-48205Y411271D01*
X-48273Y411363D01*
X-48339Y411458D01*
X-48401Y411555D01*
X-48459Y411654D01*
X-48515Y411756D01*
X-48566Y411858D01*
X-48614Y411963D01*
X-48659Y412069D01*
X-48700Y412177D01*
X-48737Y412286D01*
X-48770Y412396D01*
X-48799Y412508D01*
X-48825Y412620D01*
X-48847Y412733D01*
X-48864Y412847D01*
X-48878Y412961D01*
X-48888Y413076D01*
X-48894Y413191D01*
X-48896Y413306D01*
X-48895Y413306D02*
X-48893Y413421D01*
X-48887Y413536D01*
X-48877Y413651D01*
X-48863Y413765D01*
X-48846Y413879D01*
X-48824Y413992D01*
X-48798Y414104D01*
X-48769Y414216D01*
X-48736Y414326D01*
X-48699Y414435D01*
X-48658Y414543D01*
X-48613Y414649D01*
X-48565Y414754D01*
X-48514Y414856D01*
X-48458Y414957D01*
X-48400Y415057D01*
X-48338Y415154D01*
X-48273Y415248D01*
X-48204Y415341D01*
X-48132Y415431D01*
X-48058Y415519D01*
X-47980Y415604D01*
X-47899Y415686D01*
X-47816Y415765D01*
X-47730Y415842D01*
X-47641Y415915D01*
X-47550Y415986D01*
X-47456Y416053D01*
X-47361Y416117D01*
X-47263Y416178D01*
X-47163Y416235D01*
X-47061Y416288D01*
X-46957Y416339D01*
X-46852Y416385D01*
X-46745Y416428D01*
X-46637Y416467D01*
X-46637Y416466D02*
X-46348Y416603D01*
X-46056Y416733D01*
X-45760Y416856D01*
X-45462Y416971D01*
X-45161Y417080D01*
X-44858Y417181D01*
X-44552Y417275D01*
X-44245Y417362D01*
X-43935Y417441D01*
X-43623Y417513D01*
X-43310Y417577D01*
X-42995Y417634D01*
X-42679Y417684D01*
X-42362Y417726D01*
X-42044Y417760D01*
X-41726Y417787D01*
X-41406Y417806D01*
X-41087Y417817D01*
X-40767Y417821D01*
X-40767Y408790D02*
X-40447Y408794D01*
X-40128Y408805D01*
X-39808Y408824D01*
X-39490Y408851D01*
X-39172Y408885D01*
X-38855Y408927D01*
X-38539Y408977D01*
X-38224Y409034D01*
X-37911Y409098D01*
X-37599Y409170D01*
X-37289Y409249D01*
X-36982Y409336D01*
X-36676Y409430D01*
X-36373Y409531D01*
X-36072Y409640D01*
X-35774Y409755D01*
X-35478Y409878D01*
X-35186Y410008D01*
X-34897Y410145D01*
X-34789Y410184D01*
X-34682Y410227D01*
X-34577Y410273D01*
X-34473Y410324D01*
X-34371Y410377D01*
X-34271Y410434D01*
X-34173Y410495D01*
X-34078Y410559D01*
X-33984Y410626D01*
X-33893Y410697D01*
X-33804Y410770D01*
X-33718Y410847D01*
X-33635Y410926D01*
X-33554Y411008D01*
X-33476Y411093D01*
X-33402Y411181D01*
X-33330Y411271D01*
X-33261Y411364D01*
X-33196Y411458D01*
X-33134Y411555D01*
X-33076Y411655D01*
X-33020Y411756D01*
X-32969Y411858D01*
X-32921Y411963D01*
X-32876Y412069D01*
X-32835Y412177D01*
X-32798Y412286D01*
X-32765Y412396D01*
X-32736Y412508D01*
X-32710Y412620D01*
X-32688Y412733D01*
X-32671Y412847D01*
X-32657Y412961D01*
X-32647Y413076D01*
X-32641Y413191D01*
X-32639Y413306D01*
X-34897Y416466D02*
X-35186Y416603D01*
X-35478Y416733D01*
X-35774Y416856D01*
X-36072Y416971D01*
X-36373Y417080D01*
X-36676Y417181D01*
X-36982Y417275D01*
X-37289Y417362D01*
X-37599Y417441D01*
X-37911Y417513D01*
X-38224Y417577D01*
X-38539Y417634D01*
X-38855Y417684D01*
X-39172Y417726D01*
X-39490Y417760D01*
X-39808Y417787D01*
X-40128Y417806D01*
X-40447Y417817D01*
X-40767Y417821D01*
X-34897Y416467D02*
X-34789Y416428D01*
X-34682Y416385D01*
X-34577Y416339D01*
X-34473Y416288D01*
X-34371Y416235D01*
X-34271Y416178D01*
X-34173Y416117D01*
X-34078Y416053D01*
X-33984Y415986D01*
X-33893Y415915D01*
X-33804Y415842D01*
X-33718Y415765D01*
X-33635Y415686D01*
X-33554Y415604D01*
X-33476Y415519D01*
X-33402Y415431D01*
X-33330Y415341D01*
X-33261Y415248D01*
X-33196Y415154D01*
X-33134Y415057D01*
X-33076Y414957D01*
X-33020Y414856D01*
X-32969Y414753D01*
X-32921Y414649D01*
X-32876Y414543D01*
X-32835Y414435D01*
X-32798Y414326D01*
X-32765Y414216D01*
X-32736Y414104D01*
X-32710Y413992D01*
X-32688Y413879D01*
X-32671Y413765D01*
X-32657Y413651D01*
X-32647Y413536D01*
X-32641Y413421D01*
X-32639Y413306D01*
X-36251Y409693D02*
X-45283Y416918D01*
D10*
X493014Y469646D02*
X505714Y469646D01*
X498658Y469646D02*
X498658Y476702D01*
X493014Y476702D02*
X505714Y476702D01*
X502892Y483584D02*
X500070Y483584D01*
X499964Y483586D01*
X499859Y483592D01*
X499754Y483602D01*
X499649Y483616D01*
X499545Y483633D01*
X499442Y483655D01*
X499340Y483680D01*
X499238Y483709D01*
X499138Y483742D01*
X499039Y483779D01*
X498942Y483819D01*
X498846Y483863D01*
X498751Y483911D01*
X498659Y483962D01*
X498569Y484017D01*
X498480Y484074D01*
X498394Y484135D01*
X498311Y484200D01*
X498229Y484267D01*
X498151Y484337D01*
X498075Y484411D01*
X498001Y484487D01*
X497931Y484565D01*
X497864Y484647D01*
X497799Y484730D01*
X497738Y484816D01*
X497681Y484905D01*
X497626Y484995D01*
X497575Y485087D01*
X497527Y485182D01*
X497483Y485278D01*
X497443Y485375D01*
X497406Y485474D01*
X497373Y485574D01*
X497344Y485676D01*
X497319Y485778D01*
X497297Y485881D01*
X497280Y485985D01*
X497266Y486090D01*
X497256Y486195D01*
X497250Y486300D01*
X497248Y486406D01*
X497250Y486512D01*
X497256Y486617D01*
X497266Y486722D01*
X497280Y486827D01*
X497297Y486931D01*
X497319Y487034D01*
X497344Y487136D01*
X497373Y487238D01*
X497406Y487338D01*
X497443Y487437D01*
X497483Y487534D01*
X497527Y487630D01*
X497575Y487725D01*
X497626Y487817D01*
X497681Y487907D01*
X497738Y487996D01*
X497799Y488082D01*
X497864Y488165D01*
X497931Y488247D01*
X498001Y488325D01*
X498075Y488401D01*
X498151Y488475D01*
X498229Y488545D01*
X498311Y488612D01*
X498394Y488677D01*
X498480Y488738D01*
X498569Y488795D01*
X498659Y488850D01*
X498751Y488901D01*
X498846Y488949D01*
X498942Y488993D01*
X499039Y489033D01*
X499138Y489070D01*
X499238Y489103D01*
X499340Y489132D01*
X499442Y489157D01*
X499545Y489179D01*
X499649Y489196D01*
X499754Y489210D01*
X499859Y489220D01*
X499964Y489226D01*
X500070Y489228D01*
X502892Y489228D01*
X502998Y489226D01*
X503103Y489220D01*
X503208Y489210D01*
X503313Y489196D01*
X503417Y489179D01*
X503520Y489157D01*
X503622Y489132D01*
X503724Y489103D01*
X503824Y489070D01*
X503923Y489033D01*
X504020Y488993D01*
X504116Y488949D01*
X504211Y488901D01*
X504303Y488850D01*
X504393Y488795D01*
X504482Y488738D01*
X504568Y488677D01*
X504651Y488612D01*
X504733Y488545D01*
X504811Y488475D01*
X504887Y488401D01*
X504961Y488325D01*
X505031Y488247D01*
X505098Y488165D01*
X505163Y488082D01*
X505224Y487996D01*
X505281Y487907D01*
X505336Y487817D01*
X505387Y487725D01*
X505435Y487630D01*
X505479Y487534D01*
X505519Y487437D01*
X505556Y487338D01*
X505589Y487238D01*
X505618Y487136D01*
X505643Y487034D01*
X505665Y486931D01*
X505682Y486827D01*
X505696Y486722D01*
X505706Y486617D01*
X505712Y486512D01*
X505714Y486406D01*
X505712Y486300D01*
X505706Y486195D01*
X505696Y486090D01*
X505682Y485985D01*
X505665Y485881D01*
X505643Y485778D01*
X505618Y485676D01*
X505589Y485574D01*
X505556Y485474D01*
X505519Y485375D01*
X505479Y485278D01*
X505435Y485182D01*
X505387Y485087D01*
X505336Y484995D01*
X505281Y484905D01*
X505224Y484816D01*
X505163Y484730D01*
X505098Y484647D01*
X505031Y484565D01*
X504961Y484487D01*
X504887Y484411D01*
X504811Y484337D01*
X504733Y484267D01*
X504651Y484200D01*
X504568Y484135D01*
X504482Y484074D01*
X504393Y484017D01*
X504303Y483962D01*
X504211Y483911D01*
X504116Y483863D01*
X504020Y483819D01*
X503923Y483779D01*
X503824Y483742D01*
X503724Y483709D01*
X503622Y483680D01*
X503520Y483655D01*
X503417Y483633D01*
X503313Y483616D01*
X503208Y483602D01*
X503103Y483592D01*
X502998Y483586D01*
X502892Y483584D01*
X505714Y496026D02*
X497247Y496026D01*
X497247Y500259D01*
X498658Y500259D01*
X497247Y505485D02*
X505714Y505485D01*
X497247Y505485D02*
X497247Y509013D01*
X497249Y509103D01*
X497255Y509193D01*
X497264Y509282D01*
X497277Y509371D01*
X497295Y509459D01*
X497315Y509546D01*
X497340Y509633D01*
X497368Y509718D01*
X497400Y509802D01*
X497435Y509885D01*
X497474Y509966D01*
X497516Y510045D01*
X497561Y510123D01*
X497610Y510198D01*
X497662Y510272D01*
X497717Y510343D01*
X497775Y510412D01*
X497836Y510478D01*
X497899Y510541D01*
X497965Y510602D01*
X498034Y510660D01*
X498105Y510715D01*
X498179Y510767D01*
X498254Y510816D01*
X498332Y510861D01*
X498411Y510903D01*
X498492Y510942D01*
X498575Y510977D01*
X498659Y511009D01*
X498744Y511037D01*
X498831Y511062D01*
X498918Y511082D01*
X499006Y511100D01*
X499095Y511113D01*
X499184Y511122D01*
X499274Y511128D01*
X499364Y511130D01*
X505714Y511130D01*
X505714Y518468D02*
X493014Y518468D01*
X498658Y518468D02*
X498658Y525524D01*
X493014Y525524D02*
X505714Y525524D01*
X503597Y532862D02*
X497247Y532862D01*
X503597Y532862D02*
X503687Y532864D01*
X503777Y532870D01*
X503866Y532879D01*
X503955Y532892D01*
X504043Y532910D01*
X504130Y532930D01*
X504217Y532955D01*
X504302Y532983D01*
X504386Y533015D01*
X504469Y533050D01*
X504550Y533089D01*
X504629Y533131D01*
X504707Y533176D01*
X504782Y533225D01*
X504856Y533277D01*
X504927Y533332D01*
X504996Y533390D01*
X505062Y533451D01*
X505125Y533514D01*
X505186Y533580D01*
X505244Y533649D01*
X505299Y533720D01*
X505351Y533794D01*
X505400Y533869D01*
X505445Y533947D01*
X505487Y534026D01*
X505526Y534107D01*
X505561Y534190D01*
X505593Y534274D01*
X505621Y534359D01*
X505646Y534446D01*
X505666Y534533D01*
X505684Y534621D01*
X505697Y534710D01*
X505706Y534799D01*
X505712Y534889D01*
X505714Y534979D01*
X505714Y538507D01*
X497247Y538507D01*
X493014Y545747D02*
X505714Y545747D01*
X505714Y549274D01*
X505712Y549364D01*
X505706Y549454D01*
X505697Y549543D01*
X505684Y549632D01*
X505666Y549720D01*
X505646Y549807D01*
X505621Y549894D01*
X505593Y549979D01*
X505561Y550063D01*
X505526Y550146D01*
X505487Y550227D01*
X505445Y550306D01*
X505400Y550384D01*
X505351Y550459D01*
X505299Y550533D01*
X505244Y550604D01*
X505186Y550673D01*
X505125Y550739D01*
X505062Y550802D01*
X504996Y550863D01*
X504927Y550921D01*
X504856Y550976D01*
X504782Y551028D01*
X504707Y551077D01*
X504629Y551122D01*
X504550Y551164D01*
X504469Y551203D01*
X504386Y551238D01*
X504302Y551270D01*
X504217Y551298D01*
X504130Y551323D01*
X504043Y551343D01*
X503955Y551361D01*
X503866Y551374D01*
X503777Y551383D01*
X503687Y551389D01*
X503597Y551391D01*
X499364Y551391D01*
X499274Y551389D01*
X499184Y551383D01*
X499095Y551374D01*
X499006Y551361D01*
X498918Y551343D01*
X498831Y551323D01*
X498744Y551298D01*
X498659Y551270D01*
X498575Y551238D01*
X498492Y551203D01*
X498411Y551164D01*
X498332Y551122D01*
X498254Y551077D01*
X498179Y551028D01*
X498105Y550976D01*
X498034Y550921D01*
X497965Y550863D01*
X497899Y550802D01*
X497836Y550739D01*
X497775Y550673D01*
X497717Y550604D01*
X497662Y550533D01*
X497610Y550459D01*
X497561Y550384D01*
X497516Y550306D01*
X497474Y550227D01*
X497435Y550146D01*
X497400Y550063D01*
X497368Y549979D01*
X497340Y549894D01*
X497315Y549807D01*
X497295Y549720D01*
X497277Y549632D01*
X497264Y549543D01*
X497255Y549454D01*
X497249Y549364D01*
X497247Y549274D01*
X497247Y545747D01*
X498658Y565777D02*
X498658Y569304D01*
X498660Y569422D01*
X498666Y569540D01*
X498676Y569657D01*
X498689Y569774D01*
X498707Y569891D01*
X498729Y570007D01*
X498754Y570122D01*
X498783Y570236D01*
X498816Y570349D01*
X498853Y570461D01*
X498894Y570572D01*
X498938Y570681D01*
X498986Y570789D01*
X499037Y570895D01*
X499092Y570999D01*
X499151Y571102D01*
X499212Y571202D01*
X499277Y571301D01*
X499346Y571397D01*
X499417Y571490D01*
X499492Y571582D01*
X499569Y571671D01*
X499650Y571757D01*
X499733Y571840D01*
X499819Y571921D01*
X499908Y571998D01*
X500000Y572073D01*
X500093Y572144D01*
X500189Y572213D01*
X500288Y572278D01*
X500388Y572339D01*
X500491Y572398D01*
X500595Y572453D01*
X500701Y572504D01*
X500809Y572552D01*
X500918Y572596D01*
X501029Y572637D01*
X501141Y572674D01*
X501254Y572707D01*
X501368Y572736D01*
X501483Y572761D01*
X501599Y572783D01*
X501716Y572801D01*
X501833Y572814D01*
X501950Y572824D01*
X502068Y572830D01*
X502186Y572832D01*
X502304Y572830D01*
X502422Y572824D01*
X502539Y572814D01*
X502656Y572801D01*
X502773Y572783D01*
X502889Y572761D01*
X503004Y572736D01*
X503118Y572707D01*
X503231Y572674D01*
X503343Y572637D01*
X503454Y572596D01*
X503563Y572552D01*
X503671Y572504D01*
X503777Y572453D01*
X503881Y572398D01*
X503984Y572339D01*
X504084Y572278D01*
X504183Y572213D01*
X504279Y572144D01*
X504372Y572073D01*
X504464Y571998D01*
X504553Y571921D01*
X504639Y571840D01*
X504722Y571757D01*
X504803Y571671D01*
X504880Y571582D01*
X504955Y571490D01*
X505026Y571397D01*
X505095Y571301D01*
X505160Y571202D01*
X505221Y571102D01*
X505280Y570999D01*
X505335Y570895D01*
X505386Y570789D01*
X505434Y570681D01*
X505478Y570572D01*
X505519Y570461D01*
X505556Y570349D01*
X505589Y570236D01*
X505618Y570122D01*
X505643Y570007D01*
X505665Y569891D01*
X505683Y569774D01*
X505696Y569657D01*
X505706Y569540D01*
X505712Y569422D01*
X505714Y569304D01*
X505714Y565777D01*
X493014Y565777D01*
X493014Y569304D01*
X493016Y569410D01*
X493022Y569515D01*
X493032Y569620D01*
X493046Y569725D01*
X493063Y569829D01*
X493085Y569932D01*
X493110Y570034D01*
X493139Y570136D01*
X493172Y570236D01*
X493209Y570335D01*
X493249Y570432D01*
X493293Y570528D01*
X493341Y570623D01*
X493392Y570715D01*
X493447Y570805D01*
X493504Y570894D01*
X493565Y570980D01*
X493630Y571063D01*
X493697Y571145D01*
X493767Y571223D01*
X493841Y571299D01*
X493917Y571373D01*
X493995Y571443D01*
X494077Y571510D01*
X494160Y571575D01*
X494246Y571636D01*
X494335Y571693D01*
X494425Y571748D01*
X494517Y571799D01*
X494612Y571847D01*
X494708Y571891D01*
X494805Y571931D01*
X494904Y571968D01*
X495004Y572001D01*
X495106Y572030D01*
X495208Y572055D01*
X495311Y572077D01*
X495415Y572094D01*
X495520Y572108D01*
X495625Y572118D01*
X495730Y572124D01*
X495836Y572126D01*
X495942Y572124D01*
X496047Y572118D01*
X496152Y572108D01*
X496257Y572094D01*
X496361Y572077D01*
X496464Y572055D01*
X496566Y572030D01*
X496668Y572001D01*
X496768Y571968D01*
X496867Y571931D01*
X496964Y571891D01*
X497060Y571847D01*
X497155Y571799D01*
X497247Y571748D01*
X497337Y571693D01*
X497426Y571636D01*
X497512Y571575D01*
X497595Y571510D01*
X497677Y571443D01*
X497755Y571373D01*
X497831Y571299D01*
X497905Y571223D01*
X497975Y571145D01*
X498042Y571063D01*
X498107Y570980D01*
X498168Y570894D01*
X498225Y570805D01*
X498280Y570715D01*
X498331Y570623D01*
X498379Y570528D01*
X498423Y570432D01*
X498463Y570335D01*
X498500Y570236D01*
X498533Y570136D01*
X498562Y570034D01*
X498587Y569932D01*
X498609Y569829D01*
X498626Y569725D01*
X498640Y569620D01*
X498650Y569515D01*
X498656Y569410D01*
X498658Y569304D01*
X500070Y578491D02*
X502892Y578491D01*
X500070Y578491D02*
X499964Y578493D01*
X499859Y578499D01*
X499754Y578509D01*
X499649Y578523D01*
X499545Y578540D01*
X499442Y578562D01*
X499340Y578587D01*
X499238Y578616D01*
X499138Y578649D01*
X499039Y578686D01*
X498942Y578726D01*
X498846Y578770D01*
X498751Y578818D01*
X498659Y578869D01*
X498569Y578924D01*
X498480Y578981D01*
X498394Y579042D01*
X498311Y579107D01*
X498229Y579174D01*
X498151Y579244D01*
X498075Y579318D01*
X498001Y579394D01*
X497931Y579472D01*
X497864Y579554D01*
X497799Y579637D01*
X497738Y579723D01*
X497681Y579812D01*
X497626Y579902D01*
X497575Y579994D01*
X497527Y580089D01*
X497483Y580185D01*
X497443Y580282D01*
X497406Y580381D01*
X497373Y580481D01*
X497344Y580583D01*
X497319Y580685D01*
X497297Y580788D01*
X497280Y580892D01*
X497266Y580997D01*
X497256Y581102D01*
X497250Y581207D01*
X497248Y581313D01*
X497250Y581419D01*
X497256Y581524D01*
X497266Y581629D01*
X497280Y581734D01*
X497297Y581838D01*
X497319Y581941D01*
X497344Y582043D01*
X497373Y582145D01*
X497406Y582245D01*
X497443Y582344D01*
X497483Y582441D01*
X497527Y582537D01*
X497575Y582632D01*
X497626Y582724D01*
X497681Y582814D01*
X497738Y582903D01*
X497799Y582989D01*
X497864Y583072D01*
X497931Y583154D01*
X498001Y583232D01*
X498075Y583308D01*
X498151Y583382D01*
X498229Y583452D01*
X498311Y583519D01*
X498394Y583584D01*
X498480Y583645D01*
X498569Y583702D01*
X498659Y583757D01*
X498751Y583808D01*
X498846Y583856D01*
X498942Y583900D01*
X499039Y583940D01*
X499138Y583977D01*
X499238Y584010D01*
X499340Y584039D01*
X499442Y584064D01*
X499545Y584086D01*
X499649Y584103D01*
X499754Y584117D01*
X499859Y584127D01*
X499964Y584133D01*
X500070Y584135D01*
X502892Y584135D01*
X502998Y584133D01*
X503103Y584127D01*
X503208Y584117D01*
X503313Y584103D01*
X503417Y584086D01*
X503520Y584064D01*
X503622Y584039D01*
X503724Y584010D01*
X503824Y583977D01*
X503923Y583940D01*
X504020Y583900D01*
X504116Y583856D01*
X504211Y583808D01*
X504303Y583757D01*
X504393Y583702D01*
X504482Y583645D01*
X504568Y583584D01*
X504651Y583519D01*
X504733Y583452D01*
X504811Y583382D01*
X504887Y583308D01*
X504961Y583232D01*
X505031Y583154D01*
X505098Y583072D01*
X505163Y582989D01*
X505224Y582903D01*
X505281Y582814D01*
X505336Y582724D01*
X505387Y582632D01*
X505435Y582537D01*
X505479Y582441D01*
X505519Y582344D01*
X505556Y582245D01*
X505589Y582145D01*
X505618Y582043D01*
X505643Y581941D01*
X505665Y581838D01*
X505682Y581734D01*
X505696Y581629D01*
X505706Y581524D01*
X505712Y581419D01*
X505714Y581313D01*
X505712Y581207D01*
X505706Y581102D01*
X505696Y580997D01*
X505682Y580892D01*
X505665Y580788D01*
X505643Y580685D01*
X505618Y580583D01*
X505589Y580481D01*
X505556Y580381D01*
X505519Y580282D01*
X505479Y580185D01*
X505435Y580089D01*
X505387Y579994D01*
X505336Y579902D01*
X505281Y579812D01*
X505224Y579723D01*
X505163Y579637D01*
X505098Y579554D01*
X505031Y579472D01*
X504961Y579394D01*
X504887Y579318D01*
X504811Y579244D01*
X504733Y579174D01*
X504651Y579107D01*
X504568Y579042D01*
X504482Y578981D01*
X504393Y578924D01*
X504303Y578869D01*
X504211Y578818D01*
X504116Y578770D01*
X504020Y578726D01*
X503923Y578686D01*
X503824Y578649D01*
X503724Y578616D01*
X503622Y578587D01*
X503520Y578562D01*
X503417Y578540D01*
X503313Y578523D01*
X503208Y578509D01*
X503103Y578499D01*
X502998Y578493D01*
X502892Y578491D01*
X500775Y592716D02*
X500775Y595891D01*
X500776Y592716D02*
X500778Y592618D01*
X500784Y592520D01*
X500794Y592422D01*
X500807Y592325D01*
X500825Y592228D01*
X500846Y592132D01*
X500871Y592038D01*
X500900Y591944D01*
X500932Y591851D01*
X500969Y591760D01*
X501008Y591670D01*
X501052Y591582D01*
X501099Y591496D01*
X501149Y591411D01*
X501202Y591329D01*
X501259Y591249D01*
X501319Y591171D01*
X501382Y591096D01*
X501448Y591023D01*
X501517Y590953D01*
X501588Y590886D01*
X501662Y590821D01*
X501739Y590760D01*
X501818Y590701D01*
X501899Y590646D01*
X501982Y590594D01*
X502068Y590546D01*
X502155Y590501D01*
X502244Y590459D01*
X502334Y590421D01*
X502426Y590387D01*
X502519Y590356D01*
X502614Y590329D01*
X502709Y590306D01*
X502806Y590286D01*
X502902Y590271D01*
X503000Y590259D01*
X503098Y590251D01*
X503196Y590247D01*
X503294Y590247D01*
X503392Y590251D01*
X503490Y590259D01*
X503588Y590271D01*
X503684Y590286D01*
X503781Y590306D01*
X503876Y590329D01*
X503971Y590356D01*
X504064Y590387D01*
X504156Y590421D01*
X504246Y590459D01*
X504335Y590501D01*
X504422Y590546D01*
X504508Y590594D01*
X504591Y590646D01*
X504672Y590701D01*
X504751Y590760D01*
X504828Y590821D01*
X504902Y590886D01*
X504973Y590953D01*
X505042Y591023D01*
X505108Y591096D01*
X505171Y591171D01*
X505231Y591249D01*
X505288Y591329D01*
X505341Y591411D01*
X505391Y591496D01*
X505438Y591582D01*
X505482Y591670D01*
X505521Y591760D01*
X505558Y591851D01*
X505590Y591944D01*
X505619Y592038D01*
X505644Y592132D01*
X505665Y592228D01*
X505683Y592325D01*
X505696Y592422D01*
X505706Y592520D01*
X505712Y592618D01*
X505714Y592716D01*
X505714Y595891D01*
X499364Y595891D01*
X499274Y595889D01*
X499184Y595883D01*
X499095Y595874D01*
X499006Y595861D01*
X498918Y595843D01*
X498831Y595823D01*
X498744Y595798D01*
X498659Y595770D01*
X498575Y595738D01*
X498492Y595703D01*
X498411Y595664D01*
X498332Y595622D01*
X498254Y595577D01*
X498179Y595528D01*
X498105Y595476D01*
X498034Y595421D01*
X497965Y595363D01*
X497899Y595302D01*
X497836Y595239D01*
X497775Y595173D01*
X497717Y595104D01*
X497662Y595033D01*
X497610Y594959D01*
X497561Y594884D01*
X497516Y594806D01*
X497474Y594727D01*
X497435Y594646D01*
X497400Y594563D01*
X497368Y594479D01*
X497340Y594394D01*
X497315Y594307D01*
X497295Y594220D01*
X497277Y594132D01*
X497264Y594043D01*
X497255Y593954D01*
X497249Y593864D01*
X497247Y593774D01*
X497247Y590952D01*
X497247Y603252D02*
X505714Y603252D01*
X497247Y603252D02*
X497247Y607486D01*
X498658Y607486D01*
X493014Y617792D02*
X505714Y617792D01*
X505714Y614264D01*
X505712Y614174D01*
X505706Y614084D01*
X505697Y613995D01*
X505684Y613906D01*
X505666Y613818D01*
X505646Y613731D01*
X505621Y613644D01*
X505593Y613559D01*
X505561Y613475D01*
X505526Y613392D01*
X505487Y613311D01*
X505445Y613232D01*
X505400Y613154D01*
X505351Y613079D01*
X505299Y613005D01*
X505244Y612934D01*
X505186Y612865D01*
X505125Y612799D01*
X505062Y612736D01*
X504996Y612675D01*
X504927Y612617D01*
X504856Y612562D01*
X504782Y612510D01*
X504707Y612461D01*
X504629Y612416D01*
X504550Y612374D01*
X504469Y612335D01*
X504386Y612300D01*
X504302Y612268D01*
X504217Y612240D01*
X504130Y612215D01*
X504043Y612195D01*
X503955Y612177D01*
X503866Y612164D01*
X503777Y612155D01*
X503687Y612149D01*
X503597Y612147D01*
X503597Y612148D02*
X499364Y612148D01*
X499364Y612147D02*
X499274Y612149D01*
X499184Y612155D01*
X499095Y612164D01*
X499006Y612177D01*
X498918Y612195D01*
X498831Y612215D01*
X498744Y612240D01*
X498659Y612268D01*
X498575Y612300D01*
X498492Y612335D01*
X498411Y612374D01*
X498332Y612416D01*
X498254Y612461D01*
X498179Y612510D01*
X498105Y612562D01*
X498034Y612617D01*
X497965Y612675D01*
X497899Y612736D01*
X497836Y612799D01*
X497775Y612865D01*
X497717Y612934D01*
X497662Y613005D01*
X497610Y613079D01*
X497561Y613154D01*
X497516Y613232D01*
X497474Y613311D01*
X497435Y613392D01*
X497400Y613475D01*
X497368Y613559D01*
X497340Y613644D01*
X497315Y613731D01*
X497295Y613818D01*
X497277Y613906D01*
X497264Y613995D01*
X497255Y614084D01*
X497249Y614174D01*
X497247Y614264D01*
X497247Y617792D01*
X519402Y469646D02*
X525046Y469646D01*
X519402Y469646D02*
X519284Y469648D01*
X519166Y469654D01*
X519049Y469664D01*
X518932Y469677D01*
X518815Y469695D01*
X518699Y469717D01*
X518584Y469742D01*
X518470Y469771D01*
X518357Y469804D01*
X518245Y469841D01*
X518134Y469882D01*
X518025Y469926D01*
X517917Y469974D01*
X517811Y470025D01*
X517707Y470080D01*
X517604Y470139D01*
X517504Y470200D01*
X517405Y470265D01*
X517309Y470334D01*
X517216Y470405D01*
X517124Y470480D01*
X517035Y470557D01*
X516949Y470638D01*
X516866Y470721D01*
X516785Y470807D01*
X516708Y470896D01*
X516633Y470988D01*
X516562Y471081D01*
X516493Y471177D01*
X516428Y471276D01*
X516367Y471376D01*
X516308Y471479D01*
X516253Y471583D01*
X516202Y471689D01*
X516154Y471797D01*
X516110Y471906D01*
X516069Y472017D01*
X516032Y472129D01*
X515999Y472242D01*
X515970Y472356D01*
X515945Y472471D01*
X515923Y472587D01*
X515905Y472704D01*
X515892Y472821D01*
X515882Y472938D01*
X515876Y473056D01*
X515874Y473174D01*
X515876Y473292D01*
X515882Y473410D01*
X515892Y473527D01*
X515905Y473644D01*
X515923Y473761D01*
X515945Y473877D01*
X515970Y473992D01*
X515999Y474106D01*
X516032Y474219D01*
X516069Y474331D01*
X516110Y474442D01*
X516154Y474551D01*
X516202Y474659D01*
X516253Y474765D01*
X516308Y474869D01*
X516367Y474972D01*
X516428Y475072D01*
X516493Y475171D01*
X516562Y475267D01*
X516633Y475360D01*
X516708Y475452D01*
X516785Y475541D01*
X516866Y475627D01*
X516949Y475710D01*
X517035Y475791D01*
X517124Y475868D01*
X517216Y475943D01*
X517309Y476014D01*
X517405Y476083D01*
X517504Y476148D01*
X517604Y476209D01*
X517707Y476268D01*
X517811Y476323D01*
X517917Y476374D01*
X518025Y476422D01*
X518134Y476466D01*
X518245Y476507D01*
X518357Y476544D01*
X518470Y476577D01*
X518584Y476606D01*
X518699Y476631D01*
X518815Y476653D01*
X518932Y476671D01*
X519049Y476684D01*
X519166Y476694D01*
X519284Y476700D01*
X519402Y476702D01*
X525046Y476702D01*
X525164Y476700D01*
X525282Y476694D01*
X525399Y476684D01*
X525516Y476671D01*
X525633Y476653D01*
X525749Y476631D01*
X525864Y476606D01*
X525978Y476577D01*
X526091Y476544D01*
X526203Y476507D01*
X526314Y476466D01*
X526423Y476422D01*
X526531Y476374D01*
X526637Y476323D01*
X526741Y476268D01*
X526844Y476209D01*
X526944Y476148D01*
X527043Y476083D01*
X527139Y476014D01*
X527232Y475943D01*
X527324Y475868D01*
X527413Y475791D01*
X527499Y475710D01*
X527582Y475627D01*
X527663Y475541D01*
X527740Y475452D01*
X527815Y475360D01*
X527886Y475267D01*
X527955Y475171D01*
X528020Y475072D01*
X528081Y474972D01*
X528140Y474869D01*
X528195Y474765D01*
X528246Y474659D01*
X528294Y474551D01*
X528338Y474442D01*
X528379Y474331D01*
X528416Y474219D01*
X528449Y474106D01*
X528478Y473992D01*
X528503Y473877D01*
X528525Y473761D01*
X528543Y473644D01*
X528556Y473527D01*
X528566Y473410D01*
X528572Y473292D01*
X528574Y473174D01*
X528572Y473056D01*
X528566Y472938D01*
X528556Y472821D01*
X528543Y472704D01*
X528525Y472587D01*
X528503Y472471D01*
X528478Y472356D01*
X528449Y472242D01*
X528416Y472129D01*
X528379Y472017D01*
X528338Y471906D01*
X528294Y471797D01*
X528246Y471689D01*
X528195Y471583D01*
X528140Y471479D01*
X528081Y471376D01*
X528020Y471276D01*
X527955Y471177D01*
X527886Y471081D01*
X527815Y470988D01*
X527740Y470896D01*
X527663Y470807D01*
X527582Y470721D01*
X527499Y470638D01*
X527413Y470557D01*
X527324Y470480D01*
X527232Y470405D01*
X527139Y470334D01*
X527043Y470265D01*
X526944Y470200D01*
X526844Y470139D01*
X526741Y470080D01*
X526637Y470025D01*
X526531Y469974D01*
X526423Y469926D01*
X526314Y469882D01*
X526203Y469841D01*
X526091Y469804D01*
X525978Y469771D01*
X525864Y469742D01*
X525749Y469717D01*
X525633Y469695D01*
X525516Y469677D01*
X525399Y469664D01*
X525282Y469654D01*
X525164Y469648D01*
X525046Y469646D01*
X520107Y483085D02*
X528574Y485202D01*
X522930Y487319D01*
X528574Y489435D01*
X520107Y491552D01*
X528574Y499845D02*
X528574Y503373D01*
X528574Y499845D02*
X528572Y499755D01*
X528566Y499665D01*
X528557Y499576D01*
X528544Y499487D01*
X528526Y499399D01*
X528506Y499312D01*
X528481Y499225D01*
X528453Y499140D01*
X528421Y499056D01*
X528386Y498973D01*
X528347Y498892D01*
X528305Y498813D01*
X528260Y498735D01*
X528211Y498660D01*
X528159Y498586D01*
X528104Y498515D01*
X528046Y498446D01*
X527985Y498380D01*
X527922Y498317D01*
X527856Y498256D01*
X527787Y498198D01*
X527716Y498143D01*
X527642Y498091D01*
X527567Y498042D01*
X527489Y497997D01*
X527410Y497955D01*
X527329Y497916D01*
X527246Y497881D01*
X527162Y497849D01*
X527077Y497821D01*
X526990Y497796D01*
X526903Y497776D01*
X526815Y497758D01*
X526726Y497745D01*
X526637Y497736D01*
X526547Y497730D01*
X526457Y497728D01*
X526457Y497729D02*
X522930Y497729D01*
X522824Y497731D01*
X522719Y497737D01*
X522614Y497747D01*
X522509Y497761D01*
X522405Y497778D01*
X522302Y497800D01*
X522200Y497825D01*
X522098Y497854D01*
X521998Y497887D01*
X521899Y497924D01*
X521802Y497964D01*
X521706Y498008D01*
X521611Y498056D01*
X521519Y498107D01*
X521429Y498162D01*
X521340Y498219D01*
X521254Y498280D01*
X521171Y498345D01*
X521089Y498412D01*
X521011Y498482D01*
X520935Y498556D01*
X520861Y498632D01*
X520791Y498710D01*
X520724Y498792D01*
X520659Y498875D01*
X520598Y498961D01*
X520541Y499050D01*
X520486Y499140D01*
X520435Y499232D01*
X520387Y499327D01*
X520343Y499423D01*
X520303Y499520D01*
X520266Y499619D01*
X520233Y499719D01*
X520204Y499821D01*
X520179Y499923D01*
X520157Y500026D01*
X520140Y500130D01*
X520126Y500235D01*
X520116Y500340D01*
X520110Y500445D01*
X520108Y500551D01*
X520110Y500657D01*
X520116Y500762D01*
X520126Y500867D01*
X520140Y500972D01*
X520157Y501076D01*
X520179Y501179D01*
X520204Y501281D01*
X520233Y501383D01*
X520266Y501483D01*
X520303Y501582D01*
X520343Y501679D01*
X520387Y501775D01*
X520435Y501870D01*
X520486Y501962D01*
X520541Y502052D01*
X520598Y502141D01*
X520659Y502227D01*
X520724Y502310D01*
X520791Y502392D01*
X520861Y502470D01*
X520935Y502546D01*
X521011Y502620D01*
X521089Y502690D01*
X521171Y502757D01*
X521254Y502822D01*
X521340Y502883D01*
X521429Y502940D01*
X521519Y502995D01*
X521611Y503046D01*
X521706Y503094D01*
X521802Y503138D01*
X521899Y503178D01*
X521998Y503215D01*
X522098Y503248D01*
X522200Y503277D01*
X522302Y503302D01*
X522405Y503324D01*
X522509Y503341D01*
X522614Y503355D01*
X522719Y503365D01*
X522824Y503371D01*
X522930Y503373D01*
X524341Y503373D01*
X524341Y497729D01*
X528574Y510048D02*
X520107Y510048D01*
X520107Y513576D01*
X520109Y513666D01*
X520115Y513756D01*
X520124Y513845D01*
X520137Y513934D01*
X520155Y514022D01*
X520175Y514109D01*
X520200Y514196D01*
X520228Y514281D01*
X520260Y514365D01*
X520295Y514448D01*
X520334Y514529D01*
X520376Y514608D01*
X520421Y514686D01*
X520470Y514761D01*
X520522Y514835D01*
X520577Y514906D01*
X520635Y514975D01*
X520696Y515041D01*
X520759Y515104D01*
X520825Y515165D01*
X520894Y515223D01*
X520965Y515278D01*
X521039Y515330D01*
X521114Y515379D01*
X521192Y515424D01*
X521271Y515466D01*
X521352Y515505D01*
X521435Y515540D01*
X521519Y515572D01*
X521604Y515600D01*
X521691Y515625D01*
X521778Y515645D01*
X521866Y515663D01*
X521955Y515676D01*
X522044Y515685D01*
X522134Y515691D01*
X522224Y515693D01*
X528574Y515693D01*
X528574Y532406D02*
X515874Y529584D01*
X520107Y535228D02*
X528574Y532406D01*
X528574Y538051D02*
X520107Y535228D01*
X515874Y540873D02*
X528574Y538051D01*
X522224Y554515D02*
X521974Y554518D01*
X521724Y554527D01*
X521475Y554542D01*
X521226Y554563D01*
X520978Y554589D01*
X520730Y554622D01*
X520483Y554661D01*
X520237Y554705D01*
X519993Y554756D01*
X519749Y554812D01*
X519507Y554874D01*
X519267Y554942D01*
X519028Y555015D01*
X518791Y555094D01*
X518556Y555179D01*
X518323Y555269D01*
X518092Y555365D01*
X517864Y555467D01*
X517638Y555573D01*
X517543Y555608D01*
X517449Y555646D01*
X517357Y555688D01*
X517267Y555734D01*
X517178Y555782D01*
X517092Y555835D01*
X517007Y555890D01*
X516925Y555949D01*
X516845Y556011D01*
X516767Y556076D01*
X516692Y556145D01*
X516620Y556215D01*
X516551Y556289D01*
X516484Y556365D01*
X516421Y556444D01*
X516360Y556525D01*
X516303Y556609D01*
X516249Y556694D01*
X516199Y556782D01*
X516151Y556872D01*
X516108Y556963D01*
X516068Y557056D01*
X516031Y557150D01*
X515999Y557246D01*
X515970Y557343D01*
X515944Y557441D01*
X515923Y557540D01*
X515905Y557640D01*
X515892Y557740D01*
X515882Y557841D01*
X515876Y557942D01*
X515874Y558043D01*
X515876Y558144D01*
X515882Y558245D01*
X515892Y558346D01*
X515905Y558446D01*
X515923Y558546D01*
X515944Y558645D01*
X515970Y558743D01*
X515999Y558840D01*
X516031Y558936D01*
X516068Y559030D01*
X516108Y559123D01*
X516151Y559214D01*
X516199Y559304D01*
X516249Y559392D01*
X516303Y559477D01*
X516360Y559561D01*
X516421Y559642D01*
X516484Y559721D01*
X516551Y559797D01*
X516620Y559871D01*
X516692Y559941D01*
X516767Y560010D01*
X516845Y560075D01*
X516925Y560137D01*
X517007Y560196D01*
X517092Y560251D01*
X517178Y560304D01*
X517267Y560352D01*
X517357Y560398D01*
X517449Y560440D01*
X517543Y560478D01*
X517638Y560513D01*
X517864Y560619D01*
X518092Y560721D01*
X518323Y560817D01*
X518556Y560907D01*
X518791Y560992D01*
X519028Y561071D01*
X519267Y561144D01*
X519507Y561212D01*
X519749Y561274D01*
X519993Y561330D01*
X520237Y561381D01*
X520483Y561425D01*
X520730Y561464D01*
X520978Y561497D01*
X521226Y561523D01*
X521475Y561544D01*
X521724Y561559D01*
X521974Y561568D01*
X522224Y561571D01*
X522224Y554515D02*
X522474Y554518D01*
X522724Y554527D01*
X522973Y554542D01*
X523222Y554563D01*
X523470Y554589D01*
X523718Y554622D01*
X523965Y554661D01*
X524211Y554705D01*
X524455Y554756D01*
X524699Y554812D01*
X524941Y554874D01*
X525181Y554942D01*
X525420Y555015D01*
X525657Y555094D01*
X525892Y555179D01*
X526125Y555269D01*
X526356Y555365D01*
X526584Y555467D01*
X526810Y555573D01*
X526905Y555608D01*
X526999Y555646D01*
X527091Y555688D01*
X527181Y555734D01*
X527270Y555783D01*
X527356Y555835D01*
X527441Y555891D01*
X527523Y555949D01*
X527603Y556011D01*
X527681Y556077D01*
X527756Y556145D01*
X527828Y556215D01*
X527897Y556289D01*
X527964Y556365D01*
X528027Y556444D01*
X528088Y556525D01*
X528145Y556609D01*
X528199Y556695D01*
X528249Y556782D01*
X528297Y556872D01*
X528340Y556963D01*
X528380Y557056D01*
X528417Y557150D01*
X528449Y557246D01*
X528478Y557343D01*
X528504Y557441D01*
X528525Y557540D01*
X528543Y557640D01*
X528556Y557740D01*
X528566Y557841D01*
X528572Y557942D01*
X528574Y558043D01*
X526810Y560512D02*
X526584Y560618D01*
X526356Y560720D01*
X526125Y560816D01*
X525892Y560906D01*
X525657Y560991D01*
X525420Y561070D01*
X525181Y561143D01*
X524941Y561211D01*
X524699Y561273D01*
X524455Y561329D01*
X524211Y561380D01*
X523965Y561424D01*
X523718Y561463D01*
X523470Y561496D01*
X523222Y561522D01*
X522973Y561543D01*
X522724Y561558D01*
X522474Y561567D01*
X522224Y561570D01*
X526810Y560513D02*
X526905Y560478D01*
X526999Y560440D01*
X527091Y560398D01*
X527181Y560352D01*
X527270Y560303D01*
X527356Y560251D01*
X527441Y560196D01*
X527523Y560137D01*
X527603Y560075D01*
X527681Y560009D01*
X527756Y559941D01*
X527828Y559871D01*
X527897Y559797D01*
X527964Y559721D01*
X528027Y559642D01*
X528088Y559561D01*
X528145Y559477D01*
X528199Y559391D01*
X528249Y559304D01*
X528297Y559214D01*
X528340Y559123D01*
X528380Y559030D01*
X528417Y558936D01*
X528449Y558840D01*
X528478Y558743D01*
X528504Y558645D01*
X528525Y558546D01*
X528543Y558446D01*
X528556Y558346D01*
X528566Y558245D01*
X528572Y558144D01*
X528574Y558043D01*
X525752Y555220D02*
X518696Y560865D01*
X522930Y571026D02*
X522930Y575259D01*
X522929Y571026D02*
X522927Y570920D01*
X522921Y570815D01*
X522911Y570710D01*
X522897Y570605D01*
X522880Y570501D01*
X522858Y570398D01*
X522833Y570296D01*
X522804Y570194D01*
X522771Y570094D01*
X522734Y569995D01*
X522694Y569898D01*
X522650Y569802D01*
X522602Y569707D01*
X522551Y569615D01*
X522496Y569525D01*
X522439Y569436D01*
X522378Y569350D01*
X522313Y569267D01*
X522246Y569185D01*
X522176Y569107D01*
X522102Y569031D01*
X522026Y568957D01*
X521948Y568887D01*
X521867Y568820D01*
X521783Y568755D01*
X521697Y568694D01*
X521608Y568637D01*
X521518Y568582D01*
X521426Y568531D01*
X521331Y568483D01*
X521236Y568439D01*
X521138Y568399D01*
X521039Y568362D01*
X520939Y568329D01*
X520837Y568300D01*
X520735Y568275D01*
X520632Y568253D01*
X520528Y568236D01*
X520423Y568222D01*
X520318Y568212D01*
X520213Y568206D01*
X520107Y568204D01*
X520107Y568203D02*
X519402Y568203D01*
X519284Y568205D01*
X519166Y568211D01*
X519049Y568221D01*
X518932Y568234D01*
X518815Y568252D01*
X518699Y568274D01*
X518584Y568299D01*
X518470Y568328D01*
X518357Y568361D01*
X518245Y568398D01*
X518134Y568439D01*
X518025Y568483D01*
X517917Y568531D01*
X517811Y568582D01*
X517707Y568637D01*
X517604Y568696D01*
X517504Y568757D01*
X517405Y568822D01*
X517309Y568891D01*
X517216Y568962D01*
X517124Y569037D01*
X517035Y569114D01*
X516949Y569195D01*
X516866Y569278D01*
X516785Y569364D01*
X516708Y569453D01*
X516633Y569545D01*
X516562Y569638D01*
X516493Y569734D01*
X516428Y569833D01*
X516367Y569933D01*
X516308Y570036D01*
X516253Y570140D01*
X516202Y570246D01*
X516154Y570354D01*
X516110Y570463D01*
X516069Y570574D01*
X516032Y570686D01*
X515999Y570799D01*
X515970Y570913D01*
X515945Y571028D01*
X515923Y571144D01*
X515905Y571261D01*
X515892Y571378D01*
X515882Y571495D01*
X515876Y571613D01*
X515874Y571731D01*
X515876Y571849D01*
X515882Y571967D01*
X515892Y572084D01*
X515905Y572201D01*
X515923Y572318D01*
X515945Y572434D01*
X515970Y572549D01*
X515999Y572663D01*
X516032Y572776D01*
X516069Y572888D01*
X516110Y572999D01*
X516154Y573108D01*
X516202Y573216D01*
X516253Y573322D01*
X516308Y573426D01*
X516367Y573529D01*
X516428Y573629D01*
X516493Y573728D01*
X516562Y573824D01*
X516633Y573917D01*
X516708Y574009D01*
X516785Y574098D01*
X516866Y574184D01*
X516949Y574267D01*
X517035Y574348D01*
X517124Y574425D01*
X517216Y574500D01*
X517309Y574571D01*
X517405Y574640D01*
X517504Y574705D01*
X517604Y574766D01*
X517707Y574825D01*
X517811Y574880D01*
X517917Y574931D01*
X518025Y574979D01*
X518134Y575023D01*
X518245Y575064D01*
X518357Y575101D01*
X518470Y575134D01*
X518584Y575163D01*
X518699Y575188D01*
X518815Y575210D01*
X518932Y575228D01*
X519049Y575241D01*
X519166Y575251D01*
X519284Y575257D01*
X519402Y575259D01*
X522930Y575259D01*
X523078Y575257D01*
X523225Y575251D01*
X523373Y575242D01*
X523520Y575228D01*
X523667Y575211D01*
X523813Y575190D01*
X523959Y575164D01*
X524103Y575136D01*
X524248Y575103D01*
X524391Y575067D01*
X524533Y575027D01*
X524674Y574983D01*
X524814Y574935D01*
X524953Y574884D01*
X525090Y574829D01*
X525226Y574771D01*
X525360Y574709D01*
X525492Y574644D01*
X525623Y574575D01*
X525752Y574503D01*
X525879Y574427D01*
X526004Y574348D01*
X526127Y574266D01*
X526247Y574181D01*
X526366Y574093D01*
X526482Y574001D01*
X526595Y573907D01*
X526707Y573809D01*
X526815Y573709D01*
X526921Y573606D01*
X527024Y573500D01*
X527124Y573392D01*
X527222Y573280D01*
X527316Y573167D01*
X527408Y573051D01*
X527496Y572932D01*
X527581Y572812D01*
X527663Y572689D01*
X527742Y572564D01*
X527818Y572437D01*
X527890Y572308D01*
X527959Y572177D01*
X528024Y572045D01*
X528086Y571911D01*
X528144Y571775D01*
X528199Y571638D01*
X528250Y571499D01*
X528298Y571359D01*
X528342Y571218D01*
X528382Y571076D01*
X528418Y570933D01*
X528451Y570788D01*
X528479Y570644D01*
X528505Y570498D01*
X528526Y570352D01*
X528543Y570205D01*
X528557Y570058D01*
X528566Y569910D01*
X528572Y569763D01*
X528574Y569615D01*
X529985Y581229D02*
X514463Y586873D01*
X515874Y596723D02*
X515876Y596834D01*
X515882Y596944D01*
X515891Y597055D01*
X515905Y597165D01*
X515922Y597274D01*
X515943Y597383D01*
X515968Y597491D01*
X515997Y597598D01*
X516029Y597704D01*
X516065Y597809D01*
X516105Y597912D01*
X516148Y598014D01*
X516195Y598115D01*
X516246Y598214D01*
X516299Y598311D01*
X516356Y598405D01*
X516417Y598498D01*
X516480Y598589D01*
X516547Y598678D01*
X516617Y598764D01*
X516690Y598847D01*
X516765Y598929D01*
X516843Y599007D01*
X516925Y599082D01*
X517008Y599155D01*
X517094Y599225D01*
X517183Y599292D01*
X517274Y599355D01*
X517367Y599416D01*
X517462Y599473D01*
X517558Y599526D01*
X517657Y599577D01*
X517758Y599624D01*
X517860Y599667D01*
X517963Y599707D01*
X518068Y599743D01*
X518174Y599775D01*
X518281Y599804D01*
X518389Y599829D01*
X518498Y599850D01*
X518607Y599867D01*
X518717Y599881D01*
X518828Y599890D01*
X518938Y599896D01*
X519049Y599898D01*
X515874Y596723D02*
X515876Y596598D01*
X515882Y596473D01*
X515891Y596348D01*
X515905Y596224D01*
X515922Y596100D01*
X515943Y595977D01*
X515968Y595854D01*
X515996Y595732D01*
X516028Y595611D01*
X516064Y595491D01*
X516104Y595373D01*
X516147Y595255D01*
X516194Y595139D01*
X516244Y595025D01*
X516298Y594912D01*
X516355Y594801D01*
X516416Y594691D01*
X516480Y594584D01*
X516547Y594478D01*
X516618Y594375D01*
X516691Y594274D01*
X516768Y594175D01*
X516848Y594078D01*
X516930Y593984D01*
X517016Y593893D01*
X517104Y593804D01*
X517195Y593718D01*
X517288Y593635D01*
X517384Y593555D01*
X517482Y593477D01*
X517583Y593403D01*
X517686Y593332D01*
X517791Y593264D01*
X517898Y593199D01*
X518007Y593138D01*
X518118Y593080D01*
X518231Y593025D01*
X518345Y592974D01*
X518461Y592927D01*
X518578Y592883D01*
X518696Y592842D01*
X521518Y598840D02*
X521438Y598922D01*
X521354Y599001D01*
X521268Y599077D01*
X521179Y599151D01*
X521088Y599221D01*
X520995Y599288D01*
X520899Y599352D01*
X520802Y599413D01*
X520702Y599471D01*
X520601Y599525D01*
X520497Y599575D01*
X520392Y599622D01*
X520286Y599666D01*
X520178Y599706D01*
X520069Y599742D01*
X519958Y599775D01*
X519847Y599803D01*
X519735Y599828D01*
X519622Y599850D01*
X519508Y599867D01*
X519394Y599881D01*
X519279Y599890D01*
X519164Y599896D01*
X519049Y599898D01*
X521518Y598840D02*
X528574Y592843D01*
X528574Y599898D01*
X522224Y606531D02*
X521974Y606534D01*
X521724Y606543D01*
X521475Y606558D01*
X521226Y606579D01*
X520978Y606605D01*
X520730Y606638D01*
X520483Y606677D01*
X520237Y606721D01*
X519993Y606772D01*
X519749Y606828D01*
X519507Y606890D01*
X519267Y606958D01*
X519028Y607031D01*
X518791Y607110D01*
X518556Y607195D01*
X518323Y607285D01*
X518092Y607381D01*
X517864Y607483D01*
X517638Y607589D01*
X517543Y607624D01*
X517449Y607662D01*
X517357Y607704D01*
X517267Y607750D01*
X517178Y607798D01*
X517092Y607851D01*
X517007Y607906D01*
X516925Y607965D01*
X516845Y608027D01*
X516767Y608092D01*
X516692Y608161D01*
X516620Y608231D01*
X516551Y608305D01*
X516484Y608381D01*
X516421Y608460D01*
X516360Y608541D01*
X516303Y608625D01*
X516249Y608710D01*
X516199Y608798D01*
X516151Y608888D01*
X516108Y608979D01*
X516068Y609072D01*
X516031Y609166D01*
X515999Y609262D01*
X515970Y609359D01*
X515944Y609457D01*
X515923Y609556D01*
X515905Y609656D01*
X515892Y609756D01*
X515882Y609857D01*
X515876Y609958D01*
X515874Y610059D01*
X515876Y610160D01*
X515882Y610261D01*
X515892Y610362D01*
X515905Y610462D01*
X515923Y610562D01*
X515944Y610661D01*
X515970Y610759D01*
X515999Y610856D01*
X516031Y610952D01*
X516068Y611046D01*
X516108Y611139D01*
X516151Y611230D01*
X516199Y611320D01*
X516249Y611408D01*
X516303Y611493D01*
X516360Y611577D01*
X516421Y611658D01*
X516484Y611737D01*
X516551Y611813D01*
X516620Y611887D01*
X516692Y611957D01*
X516767Y612026D01*
X516845Y612091D01*
X516925Y612153D01*
X517007Y612212D01*
X517092Y612267D01*
X517178Y612320D01*
X517267Y612368D01*
X517357Y612414D01*
X517449Y612456D01*
X517543Y612494D01*
X517638Y612529D01*
X517864Y612635D01*
X518092Y612737D01*
X518323Y612833D01*
X518556Y612923D01*
X518791Y613008D01*
X519028Y613087D01*
X519267Y613160D01*
X519507Y613228D01*
X519749Y613290D01*
X519993Y613346D01*
X520237Y613397D01*
X520483Y613441D01*
X520730Y613480D01*
X520978Y613513D01*
X521226Y613539D01*
X521475Y613560D01*
X521724Y613575D01*
X521974Y613584D01*
X522224Y613587D01*
X522224Y606531D02*
X522474Y606534D01*
X522724Y606543D01*
X522973Y606558D01*
X523222Y606579D01*
X523470Y606605D01*
X523718Y606638D01*
X523965Y606677D01*
X524211Y606721D01*
X524455Y606772D01*
X524699Y606828D01*
X524941Y606890D01*
X525181Y606958D01*
X525420Y607031D01*
X525657Y607110D01*
X525892Y607195D01*
X526125Y607285D01*
X526356Y607381D01*
X526584Y607483D01*
X526810Y607589D01*
X526905Y607624D01*
X526999Y607662D01*
X527091Y607704D01*
X527181Y607750D01*
X527270Y607799D01*
X527356Y607851D01*
X527441Y607907D01*
X527523Y607965D01*
X527603Y608027D01*
X527681Y608093D01*
X527756Y608161D01*
X527828Y608231D01*
X527897Y608305D01*
X527964Y608381D01*
X528027Y608460D01*
X528088Y608541D01*
X528145Y608625D01*
X528199Y608711D01*
X528249Y608798D01*
X528297Y608888D01*
X528340Y608979D01*
X528380Y609072D01*
X528417Y609166D01*
X528449Y609262D01*
X528478Y609359D01*
X528504Y609457D01*
X528525Y609556D01*
X528543Y609656D01*
X528556Y609756D01*
X528566Y609857D01*
X528572Y609958D01*
X528574Y610059D01*
X526810Y612529D02*
X526584Y612635D01*
X526356Y612737D01*
X526125Y612833D01*
X525892Y612923D01*
X525657Y613008D01*
X525420Y613087D01*
X525181Y613160D01*
X524941Y613228D01*
X524699Y613290D01*
X524455Y613346D01*
X524211Y613397D01*
X523965Y613441D01*
X523718Y613480D01*
X523470Y613513D01*
X523222Y613539D01*
X522973Y613560D01*
X522724Y613575D01*
X522474Y613584D01*
X522224Y613587D01*
X526810Y612529D02*
X526905Y612494D01*
X526999Y612456D01*
X527091Y612414D01*
X527181Y612368D01*
X527270Y612319D01*
X527356Y612267D01*
X527441Y612212D01*
X527523Y612153D01*
X527603Y612091D01*
X527681Y612025D01*
X527756Y611957D01*
X527828Y611887D01*
X527897Y611813D01*
X527964Y611737D01*
X528027Y611658D01*
X528088Y611577D01*
X528145Y611493D01*
X528199Y611407D01*
X528249Y611320D01*
X528297Y611230D01*
X528340Y611139D01*
X528380Y611046D01*
X528417Y610952D01*
X528449Y610856D01*
X528478Y610759D01*
X528504Y610661D01*
X528525Y610562D01*
X528543Y610462D01*
X528556Y610362D01*
X528566Y610261D01*
X528572Y610160D01*
X528574Y610059D01*
X525752Y607237D02*
X518696Y612881D01*
X515874Y624100D02*
X515876Y624211D01*
X515882Y624321D01*
X515891Y624432D01*
X515905Y624542D01*
X515922Y624651D01*
X515943Y624760D01*
X515968Y624868D01*
X515997Y624975D01*
X516029Y625081D01*
X516065Y625186D01*
X516105Y625289D01*
X516148Y625391D01*
X516195Y625492D01*
X516246Y625591D01*
X516299Y625688D01*
X516356Y625782D01*
X516417Y625875D01*
X516480Y625966D01*
X516547Y626055D01*
X516617Y626141D01*
X516690Y626224D01*
X516765Y626306D01*
X516843Y626384D01*
X516925Y626459D01*
X517008Y626532D01*
X517094Y626602D01*
X517183Y626669D01*
X517274Y626732D01*
X517367Y626793D01*
X517462Y626850D01*
X517558Y626903D01*
X517657Y626954D01*
X517758Y627001D01*
X517860Y627044D01*
X517963Y627084D01*
X518068Y627120D01*
X518174Y627152D01*
X518281Y627181D01*
X518389Y627206D01*
X518498Y627227D01*
X518607Y627244D01*
X518717Y627258D01*
X518828Y627267D01*
X518938Y627273D01*
X519049Y627275D01*
X515874Y624100D02*
X515876Y623975D01*
X515882Y623850D01*
X515891Y623725D01*
X515905Y623601D01*
X515922Y623477D01*
X515943Y623354D01*
X515968Y623231D01*
X515996Y623109D01*
X516028Y622988D01*
X516064Y622868D01*
X516104Y622750D01*
X516147Y622632D01*
X516194Y622516D01*
X516244Y622402D01*
X516298Y622289D01*
X516355Y622178D01*
X516416Y622068D01*
X516480Y621961D01*
X516547Y621855D01*
X516618Y621752D01*
X516691Y621651D01*
X516768Y621552D01*
X516848Y621455D01*
X516930Y621361D01*
X517016Y621270D01*
X517104Y621181D01*
X517195Y621095D01*
X517288Y621012D01*
X517384Y620932D01*
X517482Y620854D01*
X517583Y620780D01*
X517686Y620709D01*
X517791Y620641D01*
X517898Y620576D01*
X518007Y620515D01*
X518118Y620457D01*
X518231Y620402D01*
X518345Y620351D01*
X518461Y620304D01*
X518578Y620260D01*
X518696Y620219D01*
X521518Y626217D02*
X521438Y626299D01*
X521354Y626378D01*
X521268Y626454D01*
X521179Y626528D01*
X521088Y626598D01*
X520995Y626665D01*
X520899Y626729D01*
X520802Y626790D01*
X520702Y626848D01*
X520601Y626902D01*
X520497Y626952D01*
X520392Y626999D01*
X520286Y627043D01*
X520178Y627083D01*
X520069Y627119D01*
X519958Y627152D01*
X519847Y627180D01*
X519735Y627205D01*
X519622Y627227D01*
X519508Y627244D01*
X519394Y627258D01*
X519279Y627267D01*
X519164Y627273D01*
X519049Y627275D01*
X521518Y626217D02*
X528574Y620220D01*
X528574Y627275D01*
X515874Y637789D02*
X515876Y637900D01*
X515882Y638010D01*
X515891Y638121D01*
X515905Y638231D01*
X515922Y638340D01*
X515943Y638449D01*
X515968Y638557D01*
X515997Y638664D01*
X516029Y638770D01*
X516065Y638875D01*
X516105Y638978D01*
X516148Y639080D01*
X516195Y639181D01*
X516246Y639280D01*
X516299Y639377D01*
X516356Y639471D01*
X516417Y639564D01*
X516480Y639655D01*
X516547Y639744D01*
X516617Y639830D01*
X516690Y639913D01*
X516765Y639995D01*
X516843Y640073D01*
X516925Y640148D01*
X517008Y640221D01*
X517094Y640291D01*
X517183Y640358D01*
X517274Y640421D01*
X517367Y640482D01*
X517462Y640539D01*
X517558Y640592D01*
X517657Y640643D01*
X517758Y640690D01*
X517860Y640733D01*
X517963Y640773D01*
X518068Y640809D01*
X518174Y640841D01*
X518281Y640870D01*
X518389Y640895D01*
X518498Y640916D01*
X518607Y640933D01*
X518717Y640947D01*
X518828Y640956D01*
X518938Y640962D01*
X519049Y640964D01*
X515874Y637789D02*
X515876Y637664D01*
X515882Y637539D01*
X515891Y637414D01*
X515905Y637290D01*
X515922Y637166D01*
X515943Y637043D01*
X515968Y636920D01*
X515996Y636798D01*
X516028Y636677D01*
X516064Y636557D01*
X516104Y636439D01*
X516147Y636321D01*
X516194Y636205D01*
X516244Y636091D01*
X516298Y635978D01*
X516355Y635867D01*
X516416Y635757D01*
X516480Y635650D01*
X516547Y635544D01*
X516618Y635441D01*
X516691Y635340D01*
X516768Y635241D01*
X516848Y635144D01*
X516930Y635050D01*
X517016Y634959D01*
X517104Y634870D01*
X517195Y634784D01*
X517288Y634701D01*
X517384Y634621D01*
X517482Y634543D01*
X517583Y634469D01*
X517686Y634398D01*
X517791Y634330D01*
X517898Y634265D01*
X518007Y634204D01*
X518118Y634146D01*
X518231Y634091D01*
X518345Y634040D01*
X518461Y633993D01*
X518578Y633949D01*
X518696Y633908D01*
X521518Y639906D02*
X521438Y639988D01*
X521354Y640067D01*
X521268Y640143D01*
X521179Y640217D01*
X521088Y640287D01*
X520995Y640354D01*
X520899Y640418D01*
X520802Y640479D01*
X520702Y640537D01*
X520601Y640591D01*
X520497Y640641D01*
X520392Y640688D01*
X520286Y640732D01*
X520178Y640772D01*
X520069Y640808D01*
X519958Y640841D01*
X519847Y640869D01*
X519735Y640894D01*
X519622Y640916D01*
X519508Y640933D01*
X519394Y640947D01*
X519279Y640956D01*
X519164Y640962D01*
X519049Y640964D01*
X521518Y639906D02*
X528574Y633908D01*
X528574Y640964D01*
D12*
X306607Y438518D03*
X306607Y473618D03*
X250544Y439026D03*
X250544Y474126D03*
D13*
X175490Y319392D03*
X210590Y319392D03*
X175490Y266052D03*
X210590Y266052D03*
X90702Y542544D03*
X55602Y542544D03*
D14*
X291936Y114508D03*
X333336Y114508D03*
X594412Y114000D03*
X635812Y114000D03*
D15*
X629704Y471536D03*
X629704Y496936D03*
X629704Y522336D03*
X629704Y547736D03*
X629704Y573136D03*
X629704Y598536D03*
X629704Y623936D03*
X629704Y649336D03*
X601764Y471536D03*
X601764Y496936D03*
X601764Y522336D03*
X601764Y547736D03*
X601764Y573136D03*
X601764Y598536D03*
X601764Y623936D03*
X601764Y649336D03*
D16*
X371100Y624512D03*
X394100Y624512D03*
D17*
X455268Y177292D03*
X404268Y177292D03*
X606144Y428188D03*
X555144Y428188D03*
D18*
X316700Y623316D03*
X316700Y699516D03*
D19*
X142748Y497332D03*
X117348Y497332D03*
X117348Y421132D03*
X142748Y421132D03*
X91948Y497332D03*
X66548Y497332D03*
X91948Y421132D03*
X66548Y421132D03*
D20*
X268224Y186436D02*
X282448Y186436D01*
X282448Y211836D02*
X268224Y211836D01*
X268224Y335788D02*
X282448Y335788D01*
X282448Y310388D02*
X268224Y310388D01*
D21*
X419240Y499000D03*
X419240Y517000D03*
D14*
X127208Y667892D03*
X127208Y601092D03*
D22*
X102150Y356792D02*
X96050Y356792D01*
X102150Y356792D02*
X102150Y334592D01*
X96050Y334592D01*
X96050Y356792D01*
X96050Y340387D02*
X102150Y340387D01*
X102150Y346182D02*
X96050Y346182D01*
X96050Y351977D02*
X102150Y351977D01*
X56350Y356792D02*
X50250Y356792D01*
X56350Y356792D02*
X56350Y334592D01*
X50250Y334592D01*
X50250Y356792D01*
X50250Y340387D02*
X56350Y340387D01*
X56350Y346182D02*
X50250Y346182D01*
X50250Y351977D02*
X56350Y351977D01*
D23*
X50865Y306877D02*
X101535Y306877D01*
X101535Y251507D01*
X50865Y251507D01*
X50865Y306877D01*
X50865Y256855D02*
X101535Y256855D01*
X101535Y262203D02*
X50865Y262203D01*
X50865Y267551D02*
X101535Y267551D01*
X101535Y272899D02*
X50865Y272899D01*
X50865Y278247D02*
X101535Y278247D01*
X101535Y283595D02*
X50865Y283595D01*
X50865Y288943D02*
X101535Y288943D01*
X101535Y294291D02*
X50865Y294291D01*
X50865Y299639D02*
X101535Y299639D01*
X101535Y304987D02*
X50865Y304987D01*
D22*
X83350Y197280D02*
X89450Y197280D01*
X89450Y175080D01*
X83350Y175080D01*
X83350Y197280D01*
X83350Y180875D02*
X89450Y180875D01*
X89450Y186670D02*
X83350Y186670D01*
X83350Y192465D02*
X89450Y192465D01*
X43650Y197280D02*
X37550Y197280D01*
X43650Y197280D02*
X43650Y175080D01*
X37550Y175080D01*
X37550Y197280D01*
X37550Y180875D02*
X43650Y180875D01*
X43650Y186670D02*
X37550Y186670D01*
X37550Y192465D02*
X43650Y192465D01*
D23*
X38165Y147365D02*
X88835Y147365D01*
X88835Y91995D01*
X38165Y91995D01*
X38165Y147365D01*
X38165Y97343D02*
X88835Y97343D01*
X88835Y102691D02*
X38165Y102691D01*
X38165Y108039D02*
X88835Y108039D01*
X88835Y113387D02*
X38165Y113387D01*
X38165Y118735D02*
X88835Y118735D01*
X88835Y124083D02*
X38165Y124083D01*
X38165Y129431D02*
X88835Y129431D01*
X88835Y134779D02*
X38165Y134779D01*
X38165Y140127D02*
X88835Y140127D01*
X88835Y145475D02*
X38165Y145475D01*
D12*
X418732Y472602D03*
X418732Y437502D03*
X362669Y473618D03*
X362669Y438518D03*
D24*
X267856Y530860D03*
X293256Y530860D03*
X318656Y530860D03*
D12*
X134112Y137438D03*
X134112Y102338D03*
D13*
X451382Y136652D03*
X416282Y136652D03*
X605814Y383540D03*
X570714Y383540D03*
D25*
X419608Y240792D03*
D26*
X479608Y260792D03*
D25*
X479608Y382792D03*
X359608Y382792D03*
D26*
X359608Y260792D03*
D27*
X598170Y250444D02*
X614934Y250444D01*
X614934Y225044D02*
X598170Y225044D01*
X598170Y199644D02*
X614934Y199644D01*
D28*
X316700Y623316D02*
X238252Y623316D01*
X369904Y623316D02*
X371100Y624512D01*
X369904Y623316D02*
X316700Y623316D01*
X238252Y623316D02*
X171704Y556768D01*
X171704Y374696D01*
X76200Y279192D01*
X250544Y439026D02*
X306099Y439026D01*
X306607Y438518D01*
X362669Y438518D01*
X417716Y438518D01*
X418732Y437502D01*
D29*
X217932Y381000D03*
D28*
X228346Y370586D01*
X263144Y335788D01*
X275336Y335788D01*
X175490Y338558D02*
X175490Y319392D01*
X175490Y338558D02*
X207518Y370586D01*
X217932Y381000D01*
X228346Y391414D01*
X250544Y413612D01*
X250544Y439026D01*
X175490Y319392D02*
X175490Y266052D01*
X207518Y370586D02*
X228346Y370586D01*
X228346Y391414D01*
X53300Y372832D02*
X53300Y345692D01*
X53300Y372832D02*
X72644Y392176D01*
X117348Y403860D02*
X117348Y421132D01*
X117348Y403860D02*
X105664Y392176D01*
X72644Y392176D01*
X91948Y541298D02*
X90702Y542544D01*
X91948Y541298D02*
X91948Y497332D01*
D30*
X362161Y473110D02*
X362669Y473618D01*
D28*
X362669Y486847D01*
X318656Y530860D01*
D29*
X134112Y186436D03*
D28*
X134112Y175260D01*
X134112Y137438D01*
X122936Y186180D02*
X86400Y186180D01*
X122936Y186180D02*
X133856Y186180D01*
X134112Y186436D01*
X145032Y186436D01*
X275336Y186436D01*
X133856Y175260D02*
X122936Y186180D01*
X133856Y175260D02*
X134112Y175260D01*
X133856Y175260D02*
X145032Y186436D01*
D30*
X415379Y137555D02*
X416282Y136652D01*
D28*
X66764Y212344D02*
X40600Y186180D01*
D29*
X316738Y211582D03*
D28*
X275590Y211582D01*
X275336Y211836D01*
X274828Y212344D02*
X66764Y212344D01*
X274828Y212344D02*
X275336Y211836D01*
D29*
X392176Y136144D03*
D28*
X413968Y136144D01*
X415379Y137555D01*
D29*
X172212Y101600D03*
D28*
X134850Y101600D01*
X134112Y102338D01*
X231140Y241300D02*
X231140Y242316D01*
D29*
X231140Y241300D03*
D28*
X231140Y242316D02*
X275336Y286512D01*
X116770Y119680D02*
X63500Y119680D01*
X116770Y119680D02*
X134112Y102338D01*
X275336Y286512D02*
X275336Y310388D01*
D30*
X451382Y136652D02*
X453529Y138799D01*
D28*
X455268Y177292D02*
X479044Y201068D01*
X479044Y260228D02*
X479608Y260792D01*
X479044Y260228D02*
X479044Y201068D01*
X455268Y177292D02*
X455268Y140538D01*
X453529Y138799D01*
D31*
X404268Y170258D02*
X404268Y177292D01*
D28*
X291936Y145124D02*
X291936Y114508D01*
X403760Y177800D02*
X404268Y177292D01*
X359608Y211780D02*
X359608Y260792D01*
X359608Y211780D02*
X394096Y177292D01*
X404268Y177292D01*
X358592Y211780D02*
X291936Y145124D01*
X358592Y211780D02*
X359608Y211780D01*
X479608Y382792D02*
X502854Y382792D01*
X527266Y367792D02*
X527266Y270683D01*
X527266Y367792D02*
X527266Y382994D01*
X527304Y383032D01*
X542506Y383032D01*
X570206Y383032D01*
X570714Y383540D01*
X527266Y382994D02*
X512064Y382994D01*
X479810Y382994D01*
X479608Y382792D01*
X512064Y382994D02*
X527266Y367792D01*
X542506Y383032D01*
X527266Y270683D02*
X572905Y225044D01*
X606552Y225044D01*
X606552Y250444D02*
X606552Y383818D01*
X605814Y383540D02*
X607160Y382194D01*
X605814Y383540D02*
X606322Y384048D01*
X606552Y383818D01*
X606144Y383870D02*
X606144Y428188D01*
X606144Y383870D02*
X605814Y383540D01*
X606552Y199644D02*
X594412Y187504D01*
X594412Y114000D01*
D30*
X418732Y498492D02*
X419240Y499000D01*
X418732Y498492D02*
X418732Y472602D01*
D28*
X158832Y699516D02*
X127208Y667892D01*
X158832Y699516D02*
X316700Y699516D01*
X66548Y497332D02*
X55602Y508278D01*
X55602Y542544D01*
D29*
X513588Y744728D03*
X511556Y688340D03*
D28*
X471932Y688340D01*
D29*
X375920Y677672D03*
X182372Y601472D03*
X203708Y505460D03*
X337820Y482092D03*
X282956Y390144D03*
X94996Y370332D03*
X152400Y298704D03*
X236220Y292100D03*
X309880Y244856D03*
X271780Y160020D03*
X164592Y159004D03*
X417576Y96012D03*
X511556Y163068D03*
X663448Y151892D03*
X647700Y322072D03*
X555752Y323088D03*
M02*
