M48
;GenerationSoftware,Autodesk,EAGLE,9.6.2*%
;CreationDate,2022-10-08T20:15:33Z*%
FMAT,2
ICI,OFF
METRIC,TZ,000.000
T12C0.350
T11C0.813
T10C0.914
T9C1.000
T8C1.016
T7C1.118
T6C1.270
T5C1.400
T4C1.500
T3C2.083
T2C3.302
T1C4.000
%
G90
M71
T1
X61511Y4060
X31264Y4111
X5381Y63449
T2
X78181Y22504
X3861Y74879
X82601Y2489
X3124Y1702
X82601Y74879
T3
X24050Y66142
T4
X35961Y26079
X35961Y38279
X47961Y38279
X47961Y26079
X41961Y24079
T5
X12721Y60109
X12721Y66789
X29194Y11451
X33334Y11451
X59441Y11400
X63581Y11400
T6
X31670Y69952
X31670Y62332
T7
X60655Y19964
X60655Y22504
X60655Y25044
T8
X60176Y49694
X60176Y52234
X60176Y54774
X60176Y57314
X60176Y59854
X60176Y62394
X60176Y64934
X62970Y54774
X62970Y62394
X62970Y59854
X62970Y57314
X60176Y47154
X62970Y47154
X62970Y49694
X62970Y52234
X62970Y64934
T9
X29326Y53086
X31866Y53086
X26786Y53086
T10
X27534Y31039
X27534Y33579
X27534Y21184
X27534Y18644
T11
X6655Y42113
X14275Y49733
X11735Y49733
X11735Y42113
X14275Y42113
X6655Y49733
X9195Y42113
X9195Y49733
T12
X41758Y9601
X16459Y15900
X27178Y16002
X30988Y24486
X23622Y29210
X15240Y29870
X9500Y37033
X37592Y67767
X18237Y60147
X33782Y48209
X28296Y39014
X51156Y68834
X51359Y74473
X20371Y50546
X55575Y32309
X64770Y32207
X23114Y24130
X17221Y10160
X39218Y13614
X31674Y21158
X13411Y18644
X21793Y38100
X66345Y15189
X51156Y16307
M30