G04 EAGLE Gerber RS-274X export*
G75*
%MOMM*%
%FSLAX34Y34*%
%LPD*%
%INBottom Copper*%
%IPPOS*%
%AMOC8*
5,1,8,0,0,1.08239X$1,22.5*%
G01*
%ADD10R,2.100000X2.100000*%
%ADD11C,1.879600*%
%ADD12R,1.905000X1.905000*%
%ADD13C,1.625600*%
%ADD14C,1.422400*%
%ADD15C,1.778000*%
%ADD16R,2.550000X2.550000*%
%ADD17C,2.550000*%
%ADD18C,1.676400*%
%ADD19C,1.270000*%
%ADD20C,0.756400*%
%ADD21C,0.508000*%
%ADD22C,0.812800*%

G36*
X806535Y-3039D02*
X806535Y-3039D01*
X806650Y-3041D01*
X806818Y-3019D01*
X806988Y-3007D01*
X807101Y-2983D01*
X807215Y-2969D01*
X807379Y-2924D01*
X807545Y-2888D01*
X807653Y-2849D01*
X807765Y-2818D01*
X807921Y-2751D01*
X808080Y-2692D01*
X808182Y-2638D01*
X808288Y-2592D01*
X808433Y-2504D01*
X808583Y-2424D01*
X808676Y-2356D01*
X808774Y-2296D01*
X808905Y-2188D01*
X809043Y-2087D01*
X809125Y-2007D01*
X809214Y-1934D01*
X809329Y-1808D01*
X809451Y-1690D01*
X809521Y-1599D01*
X809599Y-1514D01*
X809696Y-1374D01*
X809800Y-1239D01*
X809857Y-1139D01*
X809922Y-1044D01*
X809998Y-892D01*
X810082Y-744D01*
X810124Y-637D01*
X810176Y-534D01*
X810229Y-373D01*
X810292Y-215D01*
X810319Y-102D01*
X810356Y7D01*
X810386Y174D01*
X810426Y339D01*
X810437Y454D01*
X810458Y567D01*
X810465Y737D01*
X810481Y906D01*
X810476Y1021D01*
X810481Y1137D01*
X810464Y1306D01*
X810457Y1476D01*
X810436Y1589D01*
X810424Y1703D01*
X810384Y1869D01*
X810353Y2036D01*
X810316Y2145D01*
X810289Y2257D01*
X810226Y2415D01*
X810172Y2576D01*
X810120Y2679D01*
X810077Y2786D01*
X809993Y2933D01*
X809916Y3085D01*
X809851Y3180D01*
X809794Y3280D01*
X809720Y3369D01*
X809593Y3554D01*
X809368Y3798D01*
X809293Y3889D01*
X804666Y8516D01*
X801155Y14597D01*
X799337Y21381D01*
X799337Y28403D01*
X801155Y35187D01*
X804666Y41268D01*
X809632Y46234D01*
X815713Y49745D01*
X822497Y51563D01*
X829519Y51563D01*
X836303Y49745D01*
X842384Y46234D01*
X844511Y44107D01*
X844598Y44032D01*
X844678Y43949D01*
X844813Y43845D01*
X844941Y43734D01*
X845038Y43671D01*
X845129Y43600D01*
X845276Y43516D01*
X845419Y43424D01*
X845524Y43375D01*
X845624Y43318D01*
X845782Y43255D01*
X845936Y43184D01*
X846046Y43150D01*
X846153Y43108D01*
X846319Y43068D01*
X846481Y43019D01*
X846595Y43001D01*
X846707Y42974D01*
X846877Y42957D01*
X847044Y42931D01*
X847159Y42930D01*
X847274Y42919D01*
X847444Y42926D01*
X847614Y42924D01*
X847728Y42938D01*
X847844Y42943D01*
X848011Y42974D01*
X848179Y42996D01*
X848291Y43026D01*
X848404Y43047D01*
X848565Y43101D01*
X848729Y43146D01*
X848835Y43192D01*
X848944Y43228D01*
X849096Y43305D01*
X849252Y43372D01*
X849350Y43432D01*
X849453Y43484D01*
X849593Y43580D01*
X849738Y43669D01*
X849827Y43742D01*
X849922Y43807D01*
X850047Y43923D01*
X850179Y44031D01*
X850256Y44116D01*
X850341Y44194D01*
X850449Y44325D01*
X850564Y44451D01*
X850629Y44545D01*
X850702Y44635D01*
X850790Y44780D01*
X850886Y44920D01*
X850938Y45024D01*
X850997Y45122D01*
X851064Y45278D01*
X851140Y45430D01*
X851176Y45540D01*
X851222Y45646D01*
X851266Y45810D01*
X851320Y45971D01*
X851341Y46084D01*
X851371Y46196D01*
X851382Y46310D01*
X851422Y46532D01*
X851436Y46863D01*
X851447Y46980D01*
X851447Y726704D01*
X851439Y726819D01*
X851441Y726934D01*
X851419Y727102D01*
X851407Y727272D01*
X851383Y727385D01*
X851369Y727499D01*
X851324Y727663D01*
X851288Y727829D01*
X851249Y727937D01*
X851218Y728049D01*
X851151Y728205D01*
X851092Y728364D01*
X851038Y728466D01*
X850992Y728572D01*
X850904Y728717D01*
X850824Y728867D01*
X850756Y728960D01*
X850696Y729058D01*
X850588Y729189D01*
X850487Y729327D01*
X850407Y729409D01*
X850334Y729498D01*
X850208Y729613D01*
X850090Y729735D01*
X849999Y729805D01*
X849914Y729883D01*
X849773Y729980D01*
X849639Y730084D01*
X849539Y730141D01*
X849444Y730206D01*
X849292Y730282D01*
X849144Y730366D01*
X849037Y730408D01*
X848934Y730460D01*
X848773Y730513D01*
X848615Y730576D01*
X848502Y730603D01*
X848393Y730640D01*
X848226Y730670D01*
X848061Y730710D01*
X847946Y730721D01*
X847833Y730742D01*
X847663Y730749D01*
X847494Y730765D01*
X847379Y730760D01*
X847263Y730765D01*
X847094Y730748D01*
X846924Y730741D01*
X846811Y730720D01*
X846696Y730708D01*
X846531Y730668D01*
X846364Y730637D01*
X846255Y730600D01*
X846143Y730573D01*
X845985Y730510D01*
X845824Y730456D01*
X845721Y730404D01*
X845614Y730361D01*
X845467Y730277D01*
X845315Y730200D01*
X845220Y730135D01*
X845120Y730078D01*
X845031Y730004D01*
X844846Y729877D01*
X844602Y729651D01*
X844511Y729577D01*
X842384Y727450D01*
X836303Y723939D01*
X829519Y722121D01*
X822497Y722121D01*
X815713Y723939D01*
X809632Y727450D01*
X804666Y732416D01*
X801155Y738497D01*
X799337Y745281D01*
X799337Y752303D01*
X801155Y759087D01*
X804666Y765168D01*
X809193Y769695D01*
X809268Y769782D01*
X809351Y769862D01*
X809455Y769997D01*
X809566Y770125D01*
X809629Y770222D01*
X809700Y770313D01*
X809784Y770460D01*
X809876Y770603D01*
X809925Y770708D01*
X809982Y770808D01*
X810045Y770966D01*
X810116Y771120D01*
X810150Y771230D01*
X810192Y771337D01*
X810232Y771503D01*
X810281Y771665D01*
X810299Y771779D01*
X810326Y771891D01*
X810343Y772061D01*
X810369Y772228D01*
X810370Y772343D01*
X810381Y772458D01*
X810374Y772628D01*
X810376Y772798D01*
X810362Y772912D01*
X810357Y773028D01*
X810326Y773195D01*
X810304Y773363D01*
X810274Y773475D01*
X810253Y773588D01*
X810199Y773749D01*
X810154Y773913D01*
X810108Y774019D01*
X810072Y774128D01*
X809995Y774280D01*
X809928Y774436D01*
X809868Y774534D01*
X809816Y774637D01*
X809720Y774777D01*
X809631Y774922D01*
X809558Y775011D01*
X809493Y775106D01*
X809377Y775231D01*
X809269Y775363D01*
X809184Y775440D01*
X809106Y775525D01*
X808974Y775633D01*
X808849Y775748D01*
X808755Y775813D01*
X808665Y775886D01*
X808520Y775974D01*
X808380Y776070D01*
X808277Y776122D01*
X808178Y776181D01*
X808022Y776248D01*
X807870Y776324D01*
X807760Y776360D01*
X807654Y776406D01*
X807490Y776450D01*
X807329Y776504D01*
X807216Y776525D01*
X807104Y776555D01*
X806990Y776566D01*
X806768Y776606D01*
X806437Y776620D01*
X806320Y776631D01*
X58296Y776631D01*
X58181Y776623D01*
X58066Y776625D01*
X57898Y776603D01*
X57728Y776591D01*
X57615Y776567D01*
X57501Y776553D01*
X57337Y776508D01*
X57171Y776472D01*
X57063Y776433D01*
X56951Y776402D01*
X56795Y776335D01*
X56636Y776276D01*
X56534Y776222D01*
X56428Y776176D01*
X56283Y776088D01*
X56133Y776008D01*
X56040Y775940D01*
X55942Y775880D01*
X55811Y775772D01*
X55673Y775671D01*
X55591Y775591D01*
X55502Y775518D01*
X55387Y775392D01*
X55265Y775274D01*
X55195Y775183D01*
X55117Y775098D01*
X55020Y774958D01*
X54916Y774823D01*
X54859Y774723D01*
X54794Y774628D01*
X54718Y774476D01*
X54634Y774328D01*
X54592Y774221D01*
X54540Y774118D01*
X54487Y773957D01*
X54424Y773799D01*
X54397Y773686D01*
X54360Y773577D01*
X54330Y773410D01*
X54290Y773245D01*
X54279Y773130D01*
X54258Y773017D01*
X54251Y772847D01*
X54235Y772678D01*
X54240Y772563D01*
X54235Y772447D01*
X54252Y772278D01*
X54259Y772108D01*
X54280Y771995D01*
X54292Y771881D01*
X54332Y771715D01*
X54363Y771548D01*
X54400Y771439D01*
X54427Y771327D01*
X54490Y771169D01*
X54544Y771008D01*
X54596Y770905D01*
X54639Y770798D01*
X54723Y770651D01*
X54800Y770499D01*
X54865Y770404D01*
X54922Y770304D01*
X54996Y770215D01*
X55123Y770030D01*
X55348Y769786D01*
X55423Y769695D01*
X59950Y765168D01*
X63461Y759087D01*
X65279Y752303D01*
X65279Y745281D01*
X63461Y738497D01*
X59950Y732416D01*
X54984Y727450D01*
X48903Y723939D01*
X42119Y722121D01*
X35097Y722121D01*
X28313Y723939D01*
X22232Y727450D01*
X17605Y732077D01*
X17518Y732152D01*
X17438Y732235D01*
X17303Y732339D01*
X17175Y732450D01*
X17078Y732513D01*
X16987Y732584D01*
X16840Y732668D01*
X16697Y732760D01*
X16592Y732809D01*
X16492Y732866D01*
X16334Y732929D01*
X16180Y733000D01*
X16070Y733034D01*
X15963Y733076D01*
X15797Y733116D01*
X15635Y733165D01*
X15521Y733183D01*
X15409Y733210D01*
X15239Y733227D01*
X15072Y733253D01*
X14957Y733254D01*
X14842Y733265D01*
X14672Y733258D01*
X14502Y733260D01*
X14388Y733246D01*
X14272Y733241D01*
X14105Y733210D01*
X13937Y733188D01*
X13825Y733158D01*
X13712Y733137D01*
X13551Y733083D01*
X13387Y733038D01*
X13281Y732992D01*
X13172Y732956D01*
X13020Y732879D01*
X12864Y732812D01*
X12766Y732752D01*
X12663Y732700D01*
X12523Y732604D01*
X12378Y732515D01*
X12289Y732442D01*
X12194Y732377D01*
X12069Y732261D01*
X11937Y732153D01*
X11860Y732068D01*
X11775Y731990D01*
X11667Y731858D01*
X11552Y731733D01*
X11487Y731639D01*
X11414Y731549D01*
X11326Y731404D01*
X11230Y731264D01*
X11178Y731161D01*
X11119Y731062D01*
X11052Y730906D01*
X10976Y730754D01*
X10940Y730644D01*
X10894Y730538D01*
X10850Y730374D01*
X10796Y730213D01*
X10775Y730100D01*
X10745Y729988D01*
X10734Y729874D01*
X10694Y729652D01*
X10680Y729321D01*
X10669Y729204D01*
X10669Y42974D01*
X10680Y42821D01*
X10680Y42668D01*
X10699Y42537D01*
X10709Y42406D01*
X10741Y42256D01*
X10763Y42104D01*
X10800Y41977D01*
X10828Y41849D01*
X10881Y41705D01*
X10924Y41557D01*
X10978Y41438D01*
X11024Y41314D01*
X11096Y41178D01*
X11160Y41039D01*
X11230Y40927D01*
X11292Y40811D01*
X11383Y40687D01*
X11465Y40558D01*
X11551Y40458D01*
X11629Y40351D01*
X11736Y40242D01*
X11836Y40125D01*
X11934Y40038D01*
X12026Y39943D01*
X12148Y39849D01*
X12263Y39748D01*
X12373Y39675D01*
X12477Y39594D01*
X12610Y39518D01*
X12738Y39434D01*
X12857Y39378D01*
X12972Y39312D01*
X13115Y39256D01*
X13253Y39190D01*
X13379Y39151D01*
X13501Y39102D01*
X13651Y39066D01*
X13797Y39020D01*
X13927Y38999D01*
X14055Y38968D01*
X14208Y38953D01*
X14360Y38928D01*
X14491Y38925D01*
X14622Y38913D01*
X14776Y38919D01*
X14929Y38916D01*
X15060Y38932D01*
X15192Y38937D01*
X15342Y38965D01*
X15495Y38983D01*
X15622Y39017D01*
X15752Y39041D01*
X15897Y39090D01*
X16046Y39129D01*
X16134Y39170D01*
X16292Y39223D01*
X16695Y39425D01*
X16764Y39456D01*
X20947Y41871D01*
X27731Y43689D01*
X34753Y43689D01*
X41537Y41871D01*
X47618Y38360D01*
X52584Y33394D01*
X56095Y27313D01*
X57913Y20529D01*
X57913Y13507D01*
X56095Y6723D01*
X53973Y3048D01*
X53906Y2910D01*
X53830Y2776D01*
X53781Y2654D01*
X53723Y2535D01*
X53676Y2389D01*
X53619Y2247D01*
X53588Y2119D01*
X53548Y1993D01*
X53521Y1842D01*
X53485Y1693D01*
X53472Y1562D01*
X53450Y1432D01*
X53445Y1279D01*
X53430Y1126D01*
X53436Y994D01*
X53431Y863D01*
X53448Y710D01*
X53455Y556D01*
X53479Y427D01*
X53493Y296D01*
X53531Y147D01*
X53559Y-4D01*
X53600Y-129D01*
X53633Y-256D01*
X53691Y-398D01*
X53740Y-544D01*
X53799Y-662D01*
X53849Y-784D01*
X53926Y-916D01*
X53995Y-1053D01*
X54070Y-1162D01*
X54136Y-1275D01*
X54232Y-1396D01*
X54319Y-1522D01*
X54408Y-1619D01*
X54490Y-1722D01*
X54601Y-1828D01*
X54705Y-1941D01*
X54807Y-2025D01*
X54902Y-2115D01*
X55027Y-2204D01*
X55146Y-2302D01*
X55259Y-2370D01*
X55366Y-2447D01*
X55502Y-2518D01*
X55633Y-2597D01*
X55754Y-2649D01*
X55871Y-2710D01*
X56016Y-2761D01*
X56157Y-2822D01*
X56284Y-2856D01*
X56408Y-2900D01*
X56559Y-2931D01*
X56707Y-2971D01*
X56804Y-2980D01*
X56967Y-3013D01*
X57417Y-3040D01*
X57492Y-3047D01*
X806420Y-3047D01*
X806535Y-3039D01*
G37*
%LPC*%
G36*
X132546Y178561D02*
X132546Y178561D01*
X129651Y179760D01*
X127436Y181975D01*
X126237Y184870D01*
X126237Y374023D01*
X126233Y374083D01*
X126235Y374144D01*
X126213Y374367D01*
X126197Y374591D01*
X126185Y374651D01*
X126179Y374711D01*
X126125Y374929D01*
X126078Y375149D01*
X126058Y375205D01*
X126043Y375264D01*
X125960Y375473D01*
X125882Y375684D01*
X125854Y375737D01*
X125832Y375793D01*
X125720Y375988D01*
X125614Y376186D01*
X125578Y376235D01*
X125548Y376287D01*
X125473Y376378D01*
X125277Y376646D01*
X125120Y376807D01*
X125047Y376896D01*
X91344Y410599D01*
X91255Y410677D01*
X91173Y410761D01*
X91040Y410863D01*
X90914Y410973D01*
X90815Y411037D01*
X90722Y411109D01*
X90621Y411163D01*
X90436Y411283D01*
X90129Y411425D01*
X90026Y411480D01*
X86480Y412949D01*
X83765Y415664D01*
X83002Y417506D01*
X82950Y417609D01*
X82908Y417716D01*
X82824Y417863D01*
X82748Y418016D01*
X82682Y418111D01*
X82625Y418211D01*
X82521Y418345D01*
X82424Y418485D01*
X82346Y418570D01*
X82276Y418661D01*
X82154Y418779D01*
X82039Y418904D01*
X81950Y418977D01*
X81867Y419058D01*
X81730Y419158D01*
X81598Y419266D01*
X81499Y419326D01*
X81407Y419393D01*
X81257Y419473D01*
X81111Y419562D01*
X81005Y419607D01*
X80904Y419662D01*
X80744Y419720D01*
X80588Y419787D01*
X80476Y419817D01*
X80368Y419857D01*
X80202Y419892D01*
X80038Y419937D01*
X79924Y419951D01*
X79811Y419975D01*
X79641Y419987D01*
X79473Y420008D01*
X79358Y420006D01*
X79243Y420014D01*
X79073Y420002D01*
X78903Y420000D01*
X78789Y419982D01*
X78674Y419973D01*
X78508Y419938D01*
X78340Y419911D01*
X78230Y419878D01*
X78117Y419854D01*
X77958Y419795D01*
X77795Y419745D01*
X77691Y419697D01*
X77582Y419657D01*
X77433Y419577D01*
X77279Y419505D01*
X77182Y419442D01*
X77080Y419388D01*
X76943Y419287D01*
X76801Y419194D01*
X76714Y419119D01*
X76621Y419051D01*
X76499Y418932D01*
X76371Y418820D01*
X76296Y418733D01*
X76213Y418653D01*
X76109Y418518D01*
X75998Y418390D01*
X75935Y418293D01*
X75865Y418202D01*
X75811Y418100D01*
X75689Y417911D01*
X75550Y417610D01*
X75494Y417506D01*
X74731Y415664D01*
X72016Y412949D01*
X68468Y411479D01*
X64628Y411479D01*
X61080Y412949D01*
X58365Y415664D01*
X56895Y419212D01*
X56895Y423052D01*
X58365Y426600D01*
X61080Y429315D01*
X64628Y430785D01*
X68468Y430785D01*
X72016Y429315D01*
X74731Y426600D01*
X75494Y424758D01*
X75545Y424655D01*
X75588Y424548D01*
X75673Y424400D01*
X75748Y424248D01*
X75814Y424153D01*
X75871Y424053D01*
X75975Y423919D01*
X76072Y423779D01*
X76150Y423694D01*
X76220Y423603D01*
X76342Y423485D01*
X76457Y423360D01*
X76546Y423287D01*
X76629Y423206D01*
X76767Y423106D01*
X76898Y422998D01*
X76996Y422938D01*
X77090Y422871D01*
X77240Y422791D01*
X77385Y422702D01*
X77491Y422657D01*
X77592Y422602D01*
X77752Y422544D01*
X77908Y422477D01*
X78019Y422447D01*
X78128Y422407D01*
X78294Y422372D01*
X78458Y422327D01*
X78572Y422313D01*
X78685Y422289D01*
X78855Y422277D01*
X79023Y422256D01*
X79138Y422258D01*
X79253Y422250D01*
X79423Y422262D01*
X79593Y422265D01*
X79707Y422282D01*
X79822Y422291D01*
X79988Y422326D01*
X80156Y422353D01*
X80266Y422386D01*
X80379Y422410D01*
X80539Y422469D01*
X80701Y422519D01*
X80805Y422567D01*
X80914Y422607D01*
X81064Y422687D01*
X81218Y422759D01*
X81314Y422822D01*
X81416Y422876D01*
X81553Y422977D01*
X81695Y423070D01*
X81782Y423145D01*
X81875Y423213D01*
X81997Y423332D01*
X82125Y423444D01*
X82201Y423531D01*
X82283Y423611D01*
X82387Y423746D01*
X82498Y423874D01*
X82561Y423971D01*
X82631Y424062D01*
X82685Y424164D01*
X82807Y424353D01*
X82947Y424654D01*
X83002Y424758D01*
X83765Y426600D01*
X86480Y429315D01*
X90028Y430785D01*
X93868Y430785D01*
X97416Y429315D01*
X100131Y426600D01*
X100894Y424758D01*
X100945Y424655D01*
X100988Y424548D01*
X101073Y424400D01*
X101148Y424248D01*
X101214Y424153D01*
X101271Y424053D01*
X101375Y423919D01*
X101472Y423779D01*
X101550Y423694D01*
X101620Y423603D01*
X101742Y423485D01*
X101857Y423360D01*
X101946Y423287D01*
X102029Y423206D01*
X102167Y423106D01*
X102298Y422998D01*
X102396Y422938D01*
X102490Y422871D01*
X102640Y422791D01*
X102785Y422702D01*
X102891Y422657D01*
X102992Y422602D01*
X103152Y422544D01*
X103308Y422477D01*
X103419Y422447D01*
X103528Y422407D01*
X103694Y422372D01*
X103858Y422327D01*
X103972Y422313D01*
X104085Y422289D01*
X104255Y422277D01*
X104423Y422256D01*
X104538Y422258D01*
X104653Y422250D01*
X104823Y422262D01*
X104993Y422265D01*
X105107Y422282D01*
X105222Y422291D01*
X105388Y422326D01*
X105556Y422353D01*
X105666Y422386D01*
X105779Y422410D01*
X105939Y422469D01*
X106101Y422519D01*
X106205Y422567D01*
X106314Y422607D01*
X106464Y422687D01*
X106618Y422759D01*
X106714Y422822D01*
X106816Y422876D01*
X106953Y422977D01*
X107095Y423070D01*
X107182Y423145D01*
X107275Y423213D01*
X107397Y423332D01*
X107525Y423444D01*
X107601Y423531D01*
X107683Y423611D01*
X107787Y423746D01*
X107898Y423874D01*
X107961Y423971D01*
X108031Y424062D01*
X108085Y424164D01*
X108207Y424353D01*
X108347Y424654D01*
X108402Y424758D01*
X109165Y426600D01*
X111880Y429315D01*
X115428Y430785D01*
X119268Y430785D01*
X122816Y429315D01*
X125531Y426600D01*
X126294Y424758D01*
X126346Y424655D01*
X126388Y424548D01*
X126472Y424401D01*
X126548Y424248D01*
X126614Y424153D01*
X126671Y424053D01*
X126775Y423919D01*
X126872Y423779D01*
X126950Y423694D01*
X127020Y423603D01*
X127142Y423485D01*
X127257Y423360D01*
X127346Y423287D01*
X127429Y423206D01*
X127566Y423106D01*
X127698Y422998D01*
X127797Y422938D01*
X127889Y422871D01*
X128039Y422791D01*
X128185Y422702D01*
X128291Y422657D01*
X128392Y422602D01*
X128552Y422544D01*
X128708Y422477D01*
X128819Y422447D01*
X128928Y422407D01*
X129094Y422372D01*
X129258Y422327D01*
X129372Y422313D01*
X129485Y422289D01*
X129655Y422277D01*
X129823Y422256D01*
X129938Y422258D01*
X130053Y422250D01*
X130223Y422262D01*
X130393Y422264D01*
X130507Y422282D01*
X130622Y422291D01*
X130788Y422326D01*
X130956Y422353D01*
X131066Y422386D01*
X131179Y422410D01*
X131338Y422469D01*
X131501Y422519D01*
X131605Y422567D01*
X131714Y422607D01*
X131864Y422687D01*
X132017Y422759D01*
X132114Y422822D01*
X132216Y422876D01*
X132353Y422977D01*
X132495Y423070D01*
X132582Y423145D01*
X132675Y423213D01*
X132797Y423332D01*
X132925Y423444D01*
X133001Y423531D01*
X133083Y423611D01*
X133186Y423746D01*
X133298Y423874D01*
X133361Y423971D01*
X133431Y424062D01*
X133485Y424164D01*
X133607Y424353D01*
X133747Y424654D01*
X133802Y424758D01*
X134564Y426598D01*
X134601Y426710D01*
X134648Y426818D01*
X134692Y426979D01*
X134745Y427138D01*
X134766Y427254D01*
X134797Y427368D01*
X134808Y427482D01*
X134848Y427699D01*
X134862Y428037D01*
X134873Y428153D01*
X134873Y449900D01*
X134869Y449960D01*
X134871Y450021D01*
X134849Y450244D01*
X134833Y450468D01*
X134821Y450528D01*
X134815Y450588D01*
X134761Y450806D01*
X134714Y451026D01*
X134694Y451082D01*
X134679Y451141D01*
X134596Y451350D01*
X134518Y451561D01*
X134490Y451614D01*
X134468Y451670D01*
X134356Y451865D01*
X134250Y452063D01*
X134214Y452112D01*
X134184Y452164D01*
X134109Y452255D01*
X133913Y452523D01*
X133756Y452684D01*
X133683Y452773D01*
X125247Y461210D01*
X99259Y487197D01*
X99257Y487199D01*
X99255Y487201D01*
X99042Y487386D01*
X98829Y487571D01*
X98827Y487572D01*
X98825Y487574D01*
X98584Y487730D01*
X98351Y487881D01*
X98348Y487882D01*
X98346Y487883D01*
X98089Y488002D01*
X97834Y488121D01*
X97831Y488121D01*
X97829Y488123D01*
X97561Y488203D01*
X97289Y488286D01*
X97286Y488286D01*
X97283Y488287D01*
X96998Y488331D01*
X96725Y488373D01*
X96723Y488373D01*
X96720Y488374D01*
X96432Y488377D01*
X96156Y488381D01*
X96153Y488381D01*
X96150Y488381D01*
X95878Y488345D01*
X95591Y488309D01*
X95588Y488308D01*
X95585Y488308D01*
X95573Y488304D01*
X95041Y488158D01*
X94913Y488103D01*
X94831Y488078D01*
X93868Y487679D01*
X90028Y487679D01*
X86480Y489149D01*
X83765Y491864D01*
X83002Y493706D01*
X82950Y493809D01*
X82908Y493916D01*
X82824Y494063D01*
X82748Y494216D01*
X82682Y494311D01*
X82625Y494411D01*
X82521Y494545D01*
X82424Y494685D01*
X82346Y494770D01*
X82276Y494861D01*
X82154Y494979D01*
X82039Y495104D01*
X81950Y495177D01*
X81867Y495258D01*
X81730Y495358D01*
X81598Y495466D01*
X81499Y495526D01*
X81407Y495593D01*
X81257Y495673D01*
X81111Y495762D01*
X81005Y495807D01*
X80904Y495862D01*
X80744Y495920D01*
X80588Y495987D01*
X80476Y496017D01*
X80368Y496057D01*
X80202Y496092D01*
X80038Y496137D01*
X79924Y496151D01*
X79811Y496175D01*
X79641Y496187D01*
X79473Y496208D01*
X79358Y496206D01*
X79243Y496214D01*
X79073Y496202D01*
X78903Y496200D01*
X78789Y496182D01*
X78674Y496173D01*
X78508Y496138D01*
X78340Y496111D01*
X78230Y496078D01*
X78117Y496054D01*
X77958Y495995D01*
X77795Y495945D01*
X77691Y495897D01*
X77582Y495857D01*
X77433Y495777D01*
X77279Y495705D01*
X77182Y495642D01*
X77080Y495588D01*
X76943Y495487D01*
X76801Y495394D01*
X76714Y495319D01*
X76621Y495251D01*
X76499Y495132D01*
X76371Y495020D01*
X76296Y494933D01*
X76213Y494853D01*
X76109Y494718D01*
X75998Y494590D01*
X75935Y494493D01*
X75865Y494402D01*
X75811Y494300D01*
X75689Y494111D01*
X75550Y493810D01*
X75494Y493706D01*
X74731Y491864D01*
X72016Y489149D01*
X68468Y487679D01*
X64628Y487679D01*
X61080Y489149D01*
X58365Y491864D01*
X56895Y495412D01*
X56895Y499252D01*
X58365Y502800D01*
X61080Y505515D01*
X64628Y506985D01*
X68468Y506985D01*
X72016Y505515D01*
X74731Y502800D01*
X75494Y500958D01*
X75545Y500855D01*
X75588Y500748D01*
X75673Y500600D01*
X75748Y500448D01*
X75814Y500353D01*
X75871Y500253D01*
X75975Y500119D01*
X76072Y499979D01*
X76150Y499894D01*
X76220Y499803D01*
X76342Y499685D01*
X76457Y499560D01*
X76546Y499487D01*
X76629Y499406D01*
X76767Y499306D01*
X76898Y499198D01*
X76996Y499138D01*
X77090Y499071D01*
X77240Y498991D01*
X77385Y498902D01*
X77491Y498857D01*
X77592Y498802D01*
X77752Y498744D01*
X77908Y498677D01*
X78019Y498647D01*
X78128Y498607D01*
X78294Y498572D01*
X78458Y498527D01*
X78572Y498513D01*
X78685Y498489D01*
X78855Y498477D01*
X79023Y498456D01*
X79138Y498458D01*
X79253Y498450D01*
X79423Y498462D01*
X79593Y498465D01*
X79707Y498482D01*
X79822Y498491D01*
X79988Y498526D01*
X80156Y498553D01*
X80266Y498586D01*
X80379Y498610D01*
X80539Y498669D01*
X80701Y498719D01*
X80805Y498767D01*
X80914Y498807D01*
X81064Y498887D01*
X81218Y498959D01*
X81314Y499022D01*
X81416Y499076D01*
X81553Y499177D01*
X81695Y499270D01*
X81782Y499345D01*
X81875Y499413D01*
X81997Y499532D01*
X82125Y499644D01*
X82201Y499731D01*
X82283Y499811D01*
X82387Y499946D01*
X82498Y500074D01*
X82561Y500171D01*
X82631Y500262D01*
X82685Y500364D01*
X82807Y500553D01*
X82947Y500854D01*
X83002Y500958D01*
X83765Y502800D01*
X86480Y505515D01*
X90028Y506985D01*
X93868Y506985D01*
X97416Y505515D01*
X100131Y502800D01*
X100294Y502407D01*
X100346Y502302D01*
X100390Y502192D01*
X100474Y502047D01*
X100548Y501897D01*
X100615Y501800D01*
X100674Y501698D01*
X100746Y501610D01*
X100871Y501428D01*
X101101Y501179D01*
X101175Y501089D01*
X102023Y500240D01*
X102154Y500127D01*
X102278Y500007D01*
X102369Y499940D01*
X102454Y499867D01*
X102599Y499773D01*
X102738Y499671D01*
X102838Y499618D01*
X102932Y499557D01*
X103088Y499484D01*
X103241Y499403D01*
X103347Y499364D01*
X103449Y499317D01*
X103614Y499267D01*
X103776Y499208D01*
X103886Y499184D01*
X103994Y499152D01*
X104165Y499125D01*
X104334Y499089D01*
X104446Y499082D01*
X104557Y499064D01*
X104730Y499062D01*
X104902Y499050D01*
X105014Y499058D01*
X105127Y499057D01*
X105298Y499078D01*
X105470Y499091D01*
X105580Y499114D01*
X105692Y499129D01*
X105859Y499174D01*
X106027Y499211D01*
X106133Y499249D01*
X106242Y499279D01*
X106400Y499348D01*
X106562Y499407D01*
X106661Y499460D01*
X106765Y499505D01*
X106912Y499595D01*
X107064Y499677D01*
X107155Y499743D01*
X107251Y499802D01*
X107384Y499911D01*
X107524Y500014D01*
X107604Y500092D01*
X107691Y500164D01*
X107808Y500291D01*
X107932Y500412D01*
X108000Y500501D01*
X108076Y500584D01*
X108174Y500726D01*
X108280Y500863D01*
X108320Y500938D01*
X108399Y501053D01*
X108644Y501547D01*
X108651Y501558D01*
X109165Y502800D01*
X110569Y504204D01*
X110609Y504250D01*
X110653Y504291D01*
X110795Y504465D01*
X110943Y504634D01*
X110976Y504685D01*
X111014Y504732D01*
X111131Y504924D01*
X111253Y505113D01*
X111278Y505167D01*
X111309Y505219D01*
X111398Y505425D01*
X111493Y505629D01*
X111510Y505687D01*
X111534Y505743D01*
X111592Y505959D01*
X111658Y506175D01*
X111667Y506234D01*
X111683Y506293D01*
X111694Y506410D01*
X111745Y506738D01*
X111748Y506963D01*
X111759Y507077D01*
X111759Y536036D01*
X112610Y538090D01*
X132470Y557950D01*
X134524Y558801D01*
X272016Y558801D01*
X274070Y557950D01*
X289555Y542465D01*
X289600Y542425D01*
X289641Y542381D01*
X289815Y542239D01*
X289985Y542091D01*
X290036Y542058D01*
X290082Y542020D01*
X290275Y541903D01*
X290463Y541781D01*
X290518Y541756D01*
X290570Y541725D01*
X290776Y541636D01*
X290980Y541541D01*
X291038Y541524D01*
X291093Y541500D01*
X291310Y541442D01*
X291525Y541376D01*
X291585Y541367D01*
X291643Y541351D01*
X291760Y541340D01*
X292088Y541289D01*
X292313Y541286D01*
X292428Y541275D01*
X295328Y541275D01*
X299156Y539689D01*
X301206Y537639D01*
X301251Y537599D01*
X301292Y537555D01*
X301466Y537413D01*
X301636Y537265D01*
X301687Y537232D01*
X301733Y537194D01*
X301926Y537077D01*
X302114Y536955D01*
X302169Y536930D01*
X302221Y536899D01*
X302427Y536810D01*
X302631Y536715D01*
X302689Y536698D01*
X302744Y536674D01*
X302961Y536616D01*
X303176Y536550D01*
X303236Y536541D01*
X303294Y536525D01*
X303411Y536514D01*
X303739Y536463D01*
X303964Y536460D01*
X304079Y536449D01*
X307833Y536449D01*
X307893Y536453D01*
X307954Y536451D01*
X308177Y536473D01*
X308401Y536489D01*
X308461Y536501D01*
X308520Y536507D01*
X308739Y536561D01*
X308959Y536608D01*
X309015Y536628D01*
X309074Y536643D01*
X309283Y536726D01*
X309494Y536804D01*
X309547Y536832D01*
X309603Y536854D01*
X309798Y536966D01*
X309996Y537072D01*
X310045Y537108D01*
X310097Y537138D01*
X310188Y537213D01*
X310456Y537409D01*
X310617Y537566D01*
X310706Y537639D01*
X312756Y539689D01*
X316584Y541275D01*
X320728Y541275D01*
X324556Y539689D01*
X327485Y536760D01*
X329071Y532932D01*
X329071Y528788D01*
X327485Y524960D01*
X324556Y522031D01*
X320728Y520445D01*
X316584Y520445D01*
X312756Y522031D01*
X310706Y524081D01*
X310661Y524121D01*
X310620Y524165D01*
X310446Y524307D01*
X310276Y524455D01*
X310225Y524488D01*
X310179Y524526D01*
X309986Y524643D01*
X309798Y524765D01*
X309743Y524790D01*
X309691Y524821D01*
X309485Y524910D01*
X309281Y525005D01*
X309223Y525022D01*
X309168Y525046D01*
X308951Y525104D01*
X308736Y525170D01*
X308676Y525179D01*
X308618Y525195D01*
X308501Y525206D01*
X308173Y525257D01*
X307948Y525260D01*
X307833Y525271D01*
X304079Y525271D01*
X304019Y525267D01*
X303958Y525269D01*
X303735Y525247D01*
X303511Y525231D01*
X303451Y525219D01*
X303392Y525213D01*
X303173Y525159D01*
X302953Y525112D01*
X302897Y525092D01*
X302838Y525077D01*
X302629Y524994D01*
X302418Y524916D01*
X302365Y524888D01*
X302309Y524866D01*
X302114Y524754D01*
X301916Y524648D01*
X301867Y524612D01*
X301815Y524582D01*
X301724Y524507D01*
X301456Y524311D01*
X301295Y524154D01*
X301206Y524081D01*
X299156Y522031D01*
X295328Y520445D01*
X291184Y520445D01*
X287356Y522031D01*
X284427Y524960D01*
X282841Y528788D01*
X282841Y531688D01*
X282837Y531748D01*
X282839Y531809D01*
X282817Y532032D01*
X282801Y532256D01*
X282789Y532316D01*
X282783Y532376D01*
X282729Y532594D01*
X282682Y532814D01*
X282662Y532870D01*
X282647Y532929D01*
X282564Y533138D01*
X282486Y533349D01*
X282458Y533402D01*
X282436Y533458D01*
X282324Y533653D01*
X282218Y533851D01*
X282182Y533900D01*
X282152Y533952D01*
X282077Y534043D01*
X281881Y534311D01*
X281724Y534472D01*
X281651Y534561D01*
X269779Y546433D01*
X269734Y546473D01*
X269693Y546517D01*
X269519Y546659D01*
X269349Y546807D01*
X269298Y546840D01*
X269252Y546878D01*
X269059Y546995D01*
X268871Y547117D01*
X268816Y547142D01*
X268764Y547173D01*
X268558Y547262D01*
X268354Y547357D01*
X268296Y547374D01*
X268241Y547398D01*
X268024Y547456D01*
X267809Y547522D01*
X267749Y547531D01*
X267691Y547547D01*
X267574Y547558D01*
X267246Y547609D01*
X267021Y547612D01*
X266906Y547623D01*
X139634Y547623D01*
X139574Y547619D01*
X139513Y547621D01*
X139290Y547599D01*
X139066Y547583D01*
X139006Y547571D01*
X138946Y547565D01*
X138728Y547511D01*
X138508Y547464D01*
X138452Y547444D01*
X138393Y547429D01*
X138184Y547346D01*
X137973Y547268D01*
X137920Y547240D01*
X137864Y547218D01*
X137669Y547106D01*
X137471Y547000D01*
X137422Y546964D01*
X137370Y546934D01*
X137279Y546859D01*
X137011Y546663D01*
X136850Y546506D01*
X136761Y546433D01*
X124127Y533799D01*
X124087Y533754D01*
X124043Y533713D01*
X123901Y533539D01*
X123753Y533369D01*
X123720Y533318D01*
X123682Y533272D01*
X123565Y533079D01*
X123443Y532891D01*
X123418Y532836D01*
X123387Y532784D01*
X123298Y532578D01*
X123203Y532374D01*
X123186Y532316D01*
X123162Y532261D01*
X123103Y532043D01*
X123038Y531829D01*
X123029Y531769D01*
X123013Y531711D01*
X123002Y531594D01*
X122951Y531266D01*
X122948Y531041D01*
X122937Y530926D01*
X122937Y507077D01*
X122941Y507017D01*
X122939Y506957D01*
X122961Y506733D01*
X122977Y506509D01*
X122989Y506450D01*
X122995Y506390D01*
X123049Y506172D01*
X123096Y505952D01*
X123116Y505895D01*
X123131Y505836D01*
X123214Y505628D01*
X123292Y505417D01*
X123320Y505363D01*
X123342Y505307D01*
X123454Y505112D01*
X123560Y504914D01*
X123596Y504866D01*
X123626Y504813D01*
X123701Y504722D01*
X123897Y504454D01*
X124054Y504293D01*
X124127Y504204D01*
X125531Y502800D01*
X126294Y500958D01*
X126345Y500855D01*
X126388Y500748D01*
X126473Y500600D01*
X126548Y500448D01*
X126614Y500353D01*
X126671Y500253D01*
X126775Y500119D01*
X126872Y499979D01*
X126950Y499894D01*
X127020Y499803D01*
X127142Y499685D01*
X127257Y499560D01*
X127346Y499487D01*
X127429Y499406D01*
X127567Y499306D01*
X127698Y499198D01*
X127796Y499138D01*
X127890Y499071D01*
X128040Y498991D01*
X128185Y498902D01*
X128291Y498857D01*
X128392Y498802D01*
X128552Y498744D01*
X128708Y498677D01*
X128819Y498647D01*
X128928Y498607D01*
X129094Y498572D01*
X129258Y498527D01*
X129372Y498513D01*
X129485Y498489D01*
X129655Y498477D01*
X129823Y498456D01*
X129938Y498458D01*
X130053Y498450D01*
X130223Y498462D01*
X130393Y498465D01*
X130507Y498482D01*
X130622Y498491D01*
X130788Y498526D01*
X130956Y498553D01*
X131066Y498586D01*
X131179Y498610D01*
X131339Y498669D01*
X131501Y498719D01*
X131605Y498767D01*
X131714Y498807D01*
X131864Y498887D01*
X132018Y498959D01*
X132114Y499022D01*
X132216Y499076D01*
X132353Y499177D01*
X132495Y499270D01*
X132582Y499345D01*
X132675Y499413D01*
X132797Y499532D01*
X132925Y499644D01*
X133001Y499731D01*
X133083Y499811D01*
X133187Y499946D01*
X133298Y500074D01*
X133361Y500171D01*
X133431Y500262D01*
X133485Y500364D01*
X133607Y500553D01*
X133747Y500854D01*
X133802Y500958D01*
X134565Y502800D01*
X137280Y505515D01*
X140828Y506985D01*
X144668Y506985D01*
X148216Y505515D01*
X150931Y502800D01*
X152401Y499252D01*
X152401Y495412D01*
X150932Y491866D01*
X150895Y491754D01*
X150848Y491646D01*
X150805Y491485D01*
X150751Y491326D01*
X150730Y491210D01*
X150699Y491096D01*
X150688Y490982D01*
X150648Y490765D01*
X150634Y490427D01*
X150623Y490311D01*
X150623Y428153D01*
X150631Y428035D01*
X150630Y427917D01*
X150651Y427751D01*
X150663Y427584D01*
X150687Y427469D01*
X150702Y427352D01*
X150736Y427243D01*
X150782Y427027D01*
X150898Y426709D01*
X150932Y426598D01*
X152401Y423052D01*
X152401Y419212D01*
X150931Y415664D01*
X148216Y412949D01*
X145668Y411894D01*
X145514Y411817D01*
X145355Y411748D01*
X145259Y411689D01*
X145158Y411639D01*
X145016Y411541D01*
X144869Y411451D01*
X144782Y411380D01*
X144689Y411316D01*
X144562Y411199D01*
X144429Y411089D01*
X144353Y411006D01*
X144270Y410930D01*
X144160Y410797D01*
X144044Y410669D01*
X143980Y410577D01*
X143909Y410490D01*
X143819Y410342D01*
X143721Y410200D01*
X143671Y410099D01*
X143612Y410003D01*
X143544Y409844D01*
X143467Y409690D01*
X143432Y409583D01*
X143387Y409479D01*
X143342Y409313D01*
X143287Y409149D01*
X143267Y409038D01*
X143238Y408930D01*
X143216Y408759D01*
X143185Y408588D01*
X143180Y408476D01*
X143166Y408364D01*
X143169Y408192D01*
X143162Y408019D01*
X143173Y407907D01*
X143175Y407795D01*
X143201Y407624D01*
X143219Y407452D01*
X143245Y407343D01*
X143263Y407232D01*
X143313Y407066D01*
X143354Y406899D01*
X143396Y406794D01*
X143429Y406687D01*
X143501Y406530D01*
X143566Y406370D01*
X143622Y406272D01*
X143669Y406170D01*
X143763Y406025D01*
X143849Y405875D01*
X143904Y405809D01*
X143980Y405692D01*
X144341Y405277D01*
X144350Y405266D01*
X160568Y389049D01*
X160613Y389009D01*
X160654Y388965D01*
X160828Y388823D01*
X160998Y388675D01*
X161049Y388642D01*
X161095Y388604D01*
X161288Y388487D01*
X161476Y388365D01*
X161531Y388340D01*
X161582Y388309D01*
X161789Y388220D01*
X161993Y388125D01*
X162051Y388108D01*
X162106Y388084D01*
X162323Y388026D01*
X162538Y387960D01*
X162598Y387951D01*
X162656Y387935D01*
X162773Y387924D01*
X163101Y387873D01*
X163326Y387870D01*
X163441Y387859D01*
X213105Y387859D01*
X213222Y387867D01*
X213340Y387866D01*
X213506Y387887D01*
X213673Y387899D01*
X213788Y387923D01*
X213905Y387938D01*
X214015Y387972D01*
X214230Y388018D01*
X214548Y388134D01*
X214659Y388168D01*
X216366Y388875D01*
X219498Y388875D01*
X222393Y387676D01*
X224608Y385461D01*
X225807Y382566D01*
X225807Y378418D01*
X224608Y375523D01*
X222393Y373308D01*
X219498Y372109D01*
X156930Y372109D01*
X154035Y373308D01*
X148923Y378420D01*
X148836Y378496D01*
X148756Y378578D01*
X148621Y378682D01*
X148493Y378794D01*
X148396Y378857D01*
X148305Y378927D01*
X148158Y379011D01*
X148015Y379104D01*
X147910Y379152D01*
X147810Y379209D01*
X147652Y379272D01*
X147498Y379344D01*
X147388Y379377D01*
X147281Y379420D01*
X147115Y379460D01*
X146953Y379509D01*
X146839Y379527D01*
X146727Y379554D01*
X146557Y379570D01*
X146390Y379596D01*
X146275Y379598D01*
X146160Y379609D01*
X145990Y379602D01*
X145820Y379604D01*
X145706Y379589D01*
X145590Y379584D01*
X145423Y379553D01*
X145255Y379532D01*
X145143Y379501D01*
X145030Y379480D01*
X144869Y379426D01*
X144705Y379381D01*
X144599Y379336D01*
X144490Y379299D01*
X144338Y379223D01*
X144182Y379156D01*
X144084Y379096D01*
X143981Y379044D01*
X143841Y378947D01*
X143696Y378859D01*
X143607Y378786D01*
X143512Y378720D01*
X143387Y378605D01*
X143255Y378497D01*
X143178Y378412D01*
X143093Y378334D01*
X142985Y378202D01*
X142870Y378077D01*
X142805Y377982D01*
X142732Y377893D01*
X142644Y377747D01*
X142548Y377607D01*
X142496Y377504D01*
X142437Y377406D01*
X142370Y377250D01*
X142294Y377097D01*
X142258Y376988D01*
X142212Y376882D01*
X142168Y376718D01*
X142114Y376556D01*
X142093Y376443D01*
X142063Y376332D01*
X142052Y376217D01*
X142012Y375996D01*
X141998Y375664D01*
X141987Y375547D01*
X141987Y305605D01*
X141995Y305490D01*
X141993Y305375D01*
X142015Y305207D01*
X142027Y305037D01*
X142051Y304924D01*
X142065Y304810D01*
X142110Y304646D01*
X142146Y304480D01*
X142185Y304371D01*
X142216Y304260D01*
X142283Y304104D01*
X142342Y303944D01*
X142396Y303843D01*
X142442Y303737D01*
X142530Y303592D01*
X142610Y303442D01*
X142678Y303349D01*
X142738Y303251D01*
X142846Y303119D01*
X142947Y302982D01*
X143027Y302900D01*
X143100Y302811D01*
X143226Y302696D01*
X143344Y302574D01*
X143435Y302503D01*
X143520Y302425D01*
X143661Y302329D01*
X143795Y302225D01*
X143895Y302168D01*
X143990Y302103D01*
X144142Y302027D01*
X144290Y301943D01*
X144397Y301900D01*
X144500Y301849D01*
X144661Y301795D01*
X144819Y301733D01*
X144931Y301706D01*
X145041Y301669D01*
X145208Y301639D01*
X145373Y301599D01*
X145488Y301587D01*
X145601Y301567D01*
X145771Y301560D01*
X145940Y301543D01*
X146055Y301548D01*
X146171Y301544D01*
X146340Y301561D01*
X146510Y301568D01*
X146623Y301589D01*
X146738Y301600D01*
X146903Y301641D01*
X147070Y301672D01*
X147179Y301709D01*
X147291Y301736D01*
X147449Y301799D01*
X147610Y301853D01*
X147713Y301905D01*
X147820Y301948D01*
X147967Y302032D01*
X148119Y302108D01*
X148214Y302174D01*
X148314Y302231D01*
X148403Y302304D01*
X148588Y302432D01*
X148833Y302657D01*
X148923Y302732D01*
X149394Y303203D01*
X151344Y304011D01*
X153456Y304011D01*
X155406Y303203D01*
X156899Y301710D01*
X157707Y299760D01*
X157707Y297648D01*
X156899Y295698D01*
X155406Y294205D01*
X153456Y293397D01*
X151344Y293397D01*
X149394Y294205D01*
X148923Y294676D01*
X148836Y294751D01*
X148756Y294834D01*
X148621Y294938D01*
X148493Y295050D01*
X148396Y295112D01*
X148305Y295183D01*
X148157Y295267D01*
X148015Y295359D01*
X147910Y295408D01*
X147810Y295465D01*
X147652Y295528D01*
X147498Y295599D01*
X147388Y295633D01*
X147281Y295675D01*
X147115Y295715D01*
X146953Y295765D01*
X146839Y295782D01*
X146727Y295809D01*
X146558Y295826D01*
X146390Y295852D01*
X146275Y295853D01*
X146160Y295865D01*
X145990Y295857D01*
X145820Y295860D01*
X145706Y295845D01*
X145590Y295840D01*
X145423Y295809D01*
X145255Y295788D01*
X145143Y295757D01*
X145030Y295736D01*
X144869Y295682D01*
X144705Y295637D01*
X144599Y295591D01*
X144490Y295555D01*
X144338Y295479D01*
X144182Y295411D01*
X144084Y295351D01*
X143981Y295300D01*
X143841Y295203D01*
X143696Y295115D01*
X143607Y295041D01*
X143512Y294976D01*
X143387Y294861D01*
X143255Y294753D01*
X143178Y294668D01*
X143093Y294590D01*
X142985Y294458D01*
X142870Y294333D01*
X142805Y294238D01*
X142732Y294148D01*
X142644Y294003D01*
X142548Y293863D01*
X142496Y293760D01*
X142437Y293661D01*
X142370Y293505D01*
X142294Y293353D01*
X142258Y293243D01*
X142212Y293138D01*
X142168Y292974D01*
X142114Y292812D01*
X142093Y292699D01*
X142063Y292588D01*
X142052Y292473D01*
X142012Y292252D01*
X141998Y291920D01*
X141987Y291803D01*
X141987Y184870D01*
X140788Y181975D01*
X138573Y179760D01*
X135678Y178561D01*
X132546Y178561D01*
G37*
%LPD*%
%LPC*%
G36*
X599591Y460613D02*
X599591Y460613D01*
X595577Y462276D01*
X592504Y465349D01*
X590841Y469363D01*
X590841Y473709D01*
X592504Y477723D01*
X596144Y481363D01*
X596295Y481537D01*
X596450Y481706D01*
X596481Y481752D01*
X596517Y481793D01*
X596643Y481986D01*
X596773Y482176D01*
X596797Y482225D01*
X596827Y482271D01*
X596924Y482480D01*
X597027Y482686D01*
X597044Y482738D01*
X597067Y482788D01*
X597134Y483008D01*
X597207Y483227D01*
X597216Y483281D01*
X597232Y483333D01*
X597268Y483560D01*
X597309Y483787D01*
X597311Y483842D01*
X597320Y483896D01*
X597323Y484126D01*
X597332Y484357D01*
X597327Y484411D01*
X597327Y484466D01*
X597298Y484694D01*
X597275Y484923D01*
X597262Y484977D01*
X597255Y485031D01*
X597194Y485254D01*
X597140Y485477D01*
X597119Y485528D01*
X597105Y485581D01*
X597014Y485792D01*
X596928Y486006D01*
X596901Y486054D01*
X596879Y486104D01*
X596759Y486300D01*
X596645Y486500D01*
X596616Y486534D01*
X596582Y486590D01*
X596220Y487031D01*
X596172Y487075D01*
X596144Y487109D01*
X592504Y490749D01*
X590841Y494763D01*
X590841Y499109D01*
X592504Y503123D01*
X596144Y506763D01*
X596295Y506937D01*
X596450Y507106D01*
X596481Y507152D01*
X596517Y507193D01*
X596643Y507386D01*
X596773Y507576D01*
X596797Y507625D01*
X596827Y507671D01*
X596924Y507880D01*
X597027Y508086D01*
X597044Y508138D01*
X597067Y508188D01*
X597134Y508408D01*
X597207Y508627D01*
X597216Y508681D01*
X597232Y508733D01*
X597268Y508960D01*
X597309Y509187D01*
X597311Y509242D01*
X597320Y509296D01*
X597323Y509526D01*
X597332Y509757D01*
X597327Y509811D01*
X597327Y509866D01*
X597298Y510094D01*
X597275Y510323D01*
X597262Y510377D01*
X597255Y510431D01*
X597194Y510654D01*
X597140Y510877D01*
X597119Y510928D01*
X597105Y510981D01*
X597014Y511192D01*
X596928Y511406D01*
X596901Y511454D01*
X596879Y511504D01*
X596759Y511700D01*
X596645Y511900D01*
X596616Y511934D01*
X596582Y511990D01*
X596220Y512431D01*
X596172Y512475D01*
X596144Y512509D01*
X592504Y516149D01*
X590841Y520163D01*
X590841Y524509D01*
X592504Y528523D01*
X596144Y532163D01*
X596295Y532337D01*
X596450Y532506D01*
X596481Y532552D01*
X596517Y532593D01*
X596643Y532786D01*
X596773Y532976D01*
X596797Y533025D01*
X596827Y533071D01*
X596924Y533280D01*
X597027Y533486D01*
X597044Y533538D01*
X597067Y533588D01*
X597134Y533808D01*
X597207Y534027D01*
X597216Y534081D01*
X597232Y534133D01*
X597268Y534360D01*
X597309Y534587D01*
X597311Y534642D01*
X597320Y534696D01*
X597323Y534926D01*
X597332Y535157D01*
X597327Y535211D01*
X597327Y535266D01*
X597298Y535494D01*
X597275Y535723D01*
X597262Y535777D01*
X597255Y535831D01*
X597194Y536054D01*
X597140Y536277D01*
X597119Y536328D01*
X597105Y536381D01*
X597014Y536592D01*
X596928Y536806D01*
X596901Y536854D01*
X596879Y536904D01*
X596759Y537100D01*
X596645Y537300D01*
X596616Y537334D01*
X596582Y537390D01*
X596220Y537831D01*
X596172Y537875D01*
X596144Y537909D01*
X592504Y541549D01*
X590841Y545563D01*
X590841Y549909D01*
X592504Y553923D01*
X596144Y557563D01*
X596295Y557737D01*
X596450Y557906D01*
X596481Y557952D01*
X596517Y557993D01*
X596643Y558186D01*
X596773Y558376D01*
X596797Y558425D01*
X596827Y558471D01*
X596924Y558680D01*
X597027Y558886D01*
X597044Y558938D01*
X597067Y558988D01*
X597134Y559208D01*
X597207Y559427D01*
X597216Y559481D01*
X597232Y559533D01*
X597268Y559760D01*
X597309Y559987D01*
X597311Y560042D01*
X597320Y560096D01*
X597323Y560326D01*
X597332Y560557D01*
X597327Y560611D01*
X597327Y560666D01*
X597298Y560894D01*
X597275Y561123D01*
X597262Y561177D01*
X597255Y561231D01*
X597194Y561454D01*
X597140Y561677D01*
X597119Y561728D01*
X597105Y561781D01*
X597014Y561992D01*
X596928Y562206D01*
X596901Y562254D01*
X596879Y562304D01*
X596759Y562500D01*
X596645Y562700D01*
X596616Y562734D01*
X596582Y562790D01*
X596220Y563231D01*
X596172Y563275D01*
X596144Y563309D01*
X592504Y566949D01*
X590841Y570963D01*
X590841Y575309D01*
X592504Y579323D01*
X596144Y582963D01*
X596295Y583137D01*
X596450Y583306D01*
X596481Y583352D01*
X596517Y583393D01*
X596643Y583586D01*
X596773Y583776D01*
X596797Y583825D01*
X596827Y583871D01*
X596924Y584080D01*
X597027Y584286D01*
X597044Y584338D01*
X597067Y584388D01*
X597134Y584608D01*
X597207Y584827D01*
X597216Y584881D01*
X597232Y584933D01*
X597268Y585160D01*
X597309Y585387D01*
X597311Y585442D01*
X597320Y585496D01*
X597323Y585726D01*
X597332Y585957D01*
X597327Y586011D01*
X597327Y586066D01*
X597298Y586294D01*
X597275Y586523D01*
X597262Y586577D01*
X597255Y586631D01*
X597194Y586854D01*
X597140Y587077D01*
X597119Y587128D01*
X597105Y587181D01*
X597014Y587392D01*
X596928Y587606D01*
X596901Y587654D01*
X596879Y587704D01*
X596759Y587900D01*
X596645Y588100D01*
X596616Y588134D01*
X596582Y588190D01*
X596220Y588631D01*
X596172Y588675D01*
X596144Y588709D01*
X592504Y592349D01*
X590841Y596363D01*
X590841Y600709D01*
X592504Y604723D01*
X596144Y608363D01*
X596295Y608537D01*
X596450Y608706D01*
X596481Y608752D01*
X596517Y608793D01*
X596643Y608986D01*
X596773Y609176D01*
X596797Y609225D01*
X596827Y609271D01*
X596924Y609480D01*
X597027Y609686D01*
X597044Y609738D01*
X597067Y609788D01*
X597134Y610008D01*
X597207Y610227D01*
X597216Y610281D01*
X597232Y610333D01*
X597268Y610560D01*
X597309Y610787D01*
X597311Y610842D01*
X597320Y610896D01*
X597323Y611126D01*
X597332Y611357D01*
X597327Y611411D01*
X597327Y611466D01*
X597298Y611694D01*
X597275Y611923D01*
X597262Y611977D01*
X597255Y612031D01*
X597194Y612254D01*
X597140Y612477D01*
X597119Y612528D01*
X597105Y612581D01*
X597014Y612792D01*
X596928Y613006D01*
X596901Y613054D01*
X596879Y613104D01*
X596759Y613300D01*
X596645Y613500D01*
X596616Y613534D01*
X596582Y613590D01*
X596220Y614031D01*
X596172Y614075D01*
X596144Y614109D01*
X592504Y617749D01*
X590841Y621763D01*
X590841Y626109D01*
X592504Y630123D01*
X596144Y633763D01*
X596295Y633937D01*
X596450Y634106D01*
X596481Y634152D01*
X596517Y634193D01*
X596643Y634386D01*
X596773Y634576D01*
X596797Y634625D01*
X596827Y634671D01*
X596924Y634880D01*
X597027Y635086D01*
X597044Y635138D01*
X597067Y635188D01*
X597134Y635408D01*
X597207Y635627D01*
X597216Y635681D01*
X597232Y635733D01*
X597268Y635960D01*
X597309Y636187D01*
X597311Y636242D01*
X597320Y636296D01*
X597323Y636526D01*
X597332Y636757D01*
X597327Y636811D01*
X597327Y636866D01*
X597298Y637094D01*
X597275Y637323D01*
X597262Y637377D01*
X597255Y637431D01*
X597194Y637654D01*
X597140Y637877D01*
X597119Y637928D01*
X597105Y637981D01*
X597014Y638192D01*
X596928Y638406D01*
X596901Y638454D01*
X596879Y638504D01*
X596759Y638700D01*
X596645Y638900D01*
X596616Y638934D01*
X596582Y638990D01*
X596220Y639431D01*
X596172Y639475D01*
X596144Y639509D01*
X592504Y643149D01*
X590841Y647163D01*
X590841Y651509D01*
X592504Y655523D01*
X595577Y658596D01*
X599591Y660259D01*
X603937Y660259D01*
X607951Y658596D01*
X611024Y655523D01*
X611980Y653215D01*
X612032Y653112D01*
X612074Y653005D01*
X612159Y652857D01*
X612234Y652705D01*
X612300Y652610D01*
X612357Y652510D01*
X612461Y652376D01*
X612558Y652236D01*
X612636Y652151D01*
X612706Y652060D01*
X612828Y651941D01*
X612943Y651816D01*
X613032Y651743D01*
X613115Y651663D01*
X613253Y651563D01*
X613384Y651455D01*
X613482Y651395D01*
X613576Y651327D01*
X613725Y651247D01*
X613871Y651159D01*
X613977Y651113D01*
X614078Y651059D01*
X614238Y651001D01*
X614394Y650934D01*
X614505Y650903D01*
X614614Y650864D01*
X614780Y650829D01*
X614944Y650784D01*
X615058Y650770D01*
X615171Y650746D01*
X615341Y650734D01*
X615509Y650713D01*
X615624Y650714D01*
X615739Y650706D01*
X615909Y650719D01*
X616079Y650721D01*
X616193Y650739D01*
X616308Y650747D01*
X616474Y650783D01*
X616642Y650809D01*
X616752Y650843D01*
X616865Y650867D01*
X617025Y650926D01*
X617187Y650975D01*
X617291Y651024D01*
X617400Y651064D01*
X617550Y651144D01*
X617704Y651216D01*
X617800Y651278D01*
X617902Y651333D01*
X618039Y651434D01*
X618181Y651526D01*
X618268Y651602D01*
X618361Y651670D01*
X618483Y651789D01*
X618611Y651900D01*
X618687Y651988D01*
X618769Y652068D01*
X618873Y652203D01*
X618984Y652331D01*
X619047Y652428D01*
X619117Y652519D01*
X619171Y652621D01*
X619293Y652810D01*
X619433Y653111D01*
X619488Y653215D01*
X620444Y655523D01*
X623517Y658596D01*
X627531Y660259D01*
X631877Y660259D01*
X635891Y658596D01*
X638964Y655523D01*
X640627Y651509D01*
X640627Y647163D01*
X638964Y643149D01*
X635324Y639509D01*
X635173Y639335D01*
X635018Y639166D01*
X634987Y639120D01*
X634951Y639079D01*
X634825Y638886D01*
X634695Y638696D01*
X634671Y638647D01*
X634641Y638601D01*
X634544Y638392D01*
X634441Y638186D01*
X634424Y638134D01*
X634401Y638084D01*
X634334Y637863D01*
X634261Y637645D01*
X634252Y637591D01*
X634236Y637539D01*
X634200Y637311D01*
X634159Y637085D01*
X634157Y637030D01*
X634148Y636976D01*
X634145Y636746D01*
X634136Y636515D01*
X634141Y636461D01*
X634141Y636406D01*
X634170Y636177D01*
X634193Y635948D01*
X634206Y635895D01*
X634213Y635841D01*
X634274Y635618D01*
X634328Y635395D01*
X634349Y635344D01*
X634363Y635291D01*
X634455Y635079D01*
X634540Y634866D01*
X634567Y634819D01*
X634589Y634768D01*
X634709Y634571D01*
X634823Y634372D01*
X634852Y634338D01*
X634886Y634282D01*
X635248Y633841D01*
X635296Y633797D01*
X635324Y633763D01*
X638964Y630123D01*
X640627Y626109D01*
X640627Y621763D01*
X638964Y617749D01*
X635324Y614109D01*
X635173Y613935D01*
X635018Y613766D01*
X634987Y613720D01*
X634951Y613679D01*
X634825Y613486D01*
X634695Y613296D01*
X634671Y613247D01*
X634641Y613201D01*
X634544Y612992D01*
X634441Y612786D01*
X634424Y612734D01*
X634401Y612684D01*
X634334Y612463D01*
X634261Y612245D01*
X634252Y612191D01*
X634236Y612139D01*
X634200Y611911D01*
X634159Y611685D01*
X634157Y611630D01*
X634148Y611576D01*
X634145Y611346D01*
X634136Y611115D01*
X634141Y611061D01*
X634141Y611006D01*
X634170Y610777D01*
X634193Y610548D01*
X634206Y610495D01*
X634213Y610441D01*
X634274Y610218D01*
X634328Y609995D01*
X634349Y609944D01*
X634363Y609891D01*
X634455Y609679D01*
X634540Y609466D01*
X634567Y609419D01*
X634589Y609368D01*
X634709Y609171D01*
X634823Y608972D01*
X634852Y608938D01*
X634886Y608882D01*
X635248Y608441D01*
X635296Y608397D01*
X635324Y608363D01*
X638964Y604723D01*
X640627Y600709D01*
X640627Y596363D01*
X638964Y592349D01*
X635324Y588709D01*
X635173Y588535D01*
X635018Y588366D01*
X634987Y588320D01*
X634951Y588279D01*
X634825Y588086D01*
X634695Y587896D01*
X634671Y587847D01*
X634641Y587801D01*
X634544Y587592D01*
X634441Y587386D01*
X634424Y587334D01*
X634401Y587284D01*
X634334Y587063D01*
X634261Y586845D01*
X634252Y586791D01*
X634236Y586739D01*
X634200Y586511D01*
X634159Y586285D01*
X634157Y586230D01*
X634148Y586176D01*
X634145Y585946D01*
X634136Y585715D01*
X634141Y585661D01*
X634141Y585606D01*
X634170Y585377D01*
X634193Y585148D01*
X634206Y585095D01*
X634213Y585041D01*
X634274Y584818D01*
X634328Y584595D01*
X634349Y584544D01*
X634363Y584491D01*
X634455Y584279D01*
X634540Y584066D01*
X634567Y584019D01*
X634589Y583968D01*
X634709Y583771D01*
X634823Y583572D01*
X634852Y583538D01*
X634886Y583482D01*
X635248Y583041D01*
X635296Y582997D01*
X635324Y582963D01*
X638964Y579323D01*
X640627Y575309D01*
X640627Y570963D01*
X638964Y566949D01*
X635324Y563309D01*
X635173Y563135D01*
X635018Y562966D01*
X634987Y562920D01*
X634951Y562879D01*
X634825Y562686D01*
X634695Y562496D01*
X634671Y562447D01*
X634641Y562401D01*
X634544Y562192D01*
X634441Y561986D01*
X634424Y561934D01*
X634401Y561884D01*
X634334Y561663D01*
X634261Y561445D01*
X634252Y561391D01*
X634236Y561339D01*
X634200Y561111D01*
X634159Y560885D01*
X634157Y560830D01*
X634148Y560776D01*
X634145Y560546D01*
X634136Y560315D01*
X634141Y560261D01*
X634141Y560206D01*
X634170Y559977D01*
X634193Y559748D01*
X634206Y559695D01*
X634213Y559641D01*
X634274Y559418D01*
X634328Y559195D01*
X634349Y559144D01*
X634363Y559091D01*
X634455Y558879D01*
X634540Y558666D01*
X634567Y558619D01*
X634589Y558568D01*
X634709Y558371D01*
X634823Y558172D01*
X634852Y558138D01*
X634886Y558082D01*
X635248Y557641D01*
X635296Y557597D01*
X635324Y557563D01*
X638964Y553923D01*
X640627Y549909D01*
X640627Y545563D01*
X638964Y541549D01*
X635324Y537909D01*
X635173Y537735D01*
X635018Y537566D01*
X634987Y537520D01*
X634951Y537479D01*
X634825Y537286D01*
X634695Y537096D01*
X634671Y537047D01*
X634641Y537001D01*
X634544Y536792D01*
X634441Y536586D01*
X634424Y536534D01*
X634401Y536484D01*
X634334Y536263D01*
X634261Y536045D01*
X634252Y535991D01*
X634236Y535939D01*
X634200Y535711D01*
X634159Y535485D01*
X634157Y535430D01*
X634148Y535376D01*
X634145Y535146D01*
X634136Y534915D01*
X634141Y534861D01*
X634141Y534806D01*
X634170Y534577D01*
X634193Y534348D01*
X634206Y534295D01*
X634213Y534241D01*
X634274Y534018D01*
X634328Y533795D01*
X634349Y533744D01*
X634363Y533691D01*
X634455Y533479D01*
X634540Y533266D01*
X634567Y533219D01*
X634589Y533168D01*
X634709Y532971D01*
X634823Y532772D01*
X634852Y532738D01*
X634886Y532682D01*
X635248Y532241D01*
X635296Y532197D01*
X635324Y532163D01*
X638964Y528523D01*
X640627Y524509D01*
X640627Y520163D01*
X638964Y516149D01*
X635324Y512509D01*
X635173Y512335D01*
X635018Y512166D01*
X634987Y512120D01*
X634951Y512079D01*
X634825Y511886D01*
X634695Y511696D01*
X634671Y511647D01*
X634641Y511601D01*
X634544Y511392D01*
X634441Y511186D01*
X634424Y511134D01*
X634401Y511084D01*
X634334Y510863D01*
X634261Y510645D01*
X634252Y510591D01*
X634236Y510539D01*
X634200Y510311D01*
X634159Y510085D01*
X634157Y510030D01*
X634148Y509976D01*
X634145Y509746D01*
X634136Y509515D01*
X634141Y509461D01*
X634141Y509406D01*
X634170Y509177D01*
X634193Y508948D01*
X634206Y508895D01*
X634213Y508841D01*
X634274Y508618D01*
X634328Y508395D01*
X634349Y508344D01*
X634363Y508291D01*
X634455Y508079D01*
X634540Y507866D01*
X634567Y507819D01*
X634589Y507768D01*
X634709Y507571D01*
X634823Y507372D01*
X634852Y507338D01*
X634886Y507282D01*
X635248Y506841D01*
X635296Y506797D01*
X635324Y506763D01*
X638964Y503123D01*
X640627Y499109D01*
X640627Y494763D01*
X638964Y490749D01*
X635324Y487109D01*
X635173Y486935D01*
X635018Y486766D01*
X634987Y486720D01*
X634951Y486679D01*
X634825Y486486D01*
X634695Y486296D01*
X634671Y486247D01*
X634641Y486201D01*
X634544Y485992D01*
X634441Y485786D01*
X634424Y485734D01*
X634401Y485684D01*
X634334Y485463D01*
X634261Y485245D01*
X634252Y485191D01*
X634236Y485139D01*
X634200Y484911D01*
X634159Y484685D01*
X634157Y484630D01*
X634148Y484576D01*
X634145Y484346D01*
X634136Y484115D01*
X634141Y484061D01*
X634141Y484006D01*
X634170Y483777D01*
X634193Y483548D01*
X634206Y483495D01*
X634213Y483441D01*
X634274Y483218D01*
X634328Y482995D01*
X634349Y482944D01*
X634363Y482891D01*
X634455Y482679D01*
X634540Y482466D01*
X634567Y482419D01*
X634589Y482368D01*
X634709Y482171D01*
X634823Y481972D01*
X634852Y481938D01*
X634886Y481882D01*
X635248Y481441D01*
X635296Y481397D01*
X635324Y481363D01*
X638964Y477723D01*
X640627Y473709D01*
X640627Y469363D01*
X638964Y465349D01*
X635891Y462276D01*
X631877Y460613D01*
X627531Y460613D01*
X623517Y462276D01*
X620444Y465349D01*
X619488Y467657D01*
X619436Y467760D01*
X619394Y467867D01*
X619310Y468015D01*
X619234Y468167D01*
X619168Y468262D01*
X619111Y468362D01*
X619007Y468496D01*
X618910Y468636D01*
X618832Y468721D01*
X618762Y468812D01*
X618640Y468930D01*
X618525Y469056D01*
X618435Y469129D01*
X618353Y469209D01*
X618216Y469309D01*
X618084Y469417D01*
X617985Y469477D01*
X617893Y469545D01*
X617743Y469625D01*
X617597Y469713D01*
X617491Y469759D01*
X617390Y469813D01*
X617230Y469871D01*
X617074Y469938D01*
X616962Y469969D01*
X616854Y470008D01*
X616688Y470043D01*
X616524Y470088D01*
X616410Y470102D01*
X616297Y470126D01*
X616127Y470138D01*
X615959Y470159D01*
X615844Y470158D01*
X615729Y470166D01*
X615559Y470153D01*
X615389Y470151D01*
X615275Y470133D01*
X615160Y470125D01*
X614994Y470089D01*
X614826Y470063D01*
X614716Y470029D01*
X614603Y470005D01*
X614444Y469946D01*
X614281Y469897D01*
X614177Y469848D01*
X614068Y469808D01*
X613919Y469728D01*
X613765Y469656D01*
X613668Y469594D01*
X613566Y469539D01*
X613429Y469439D01*
X613287Y469346D01*
X613200Y469270D01*
X613107Y469202D01*
X612985Y469083D01*
X612857Y468972D01*
X612782Y468885D01*
X612699Y468804D01*
X612595Y468669D01*
X612484Y468541D01*
X612421Y468444D01*
X612351Y468353D01*
X612297Y468251D01*
X612175Y468062D01*
X612036Y467762D01*
X611980Y467657D01*
X611024Y465349D01*
X607951Y462276D01*
X603937Y460613D01*
X599591Y460613D01*
G37*
%LPD*%
%LPC*%
G36*
X776294Y183133D02*
X776294Y183133D01*
X765635Y185989D01*
X756078Y191507D01*
X748275Y199310D01*
X742757Y208867D01*
X739901Y219526D01*
X739901Y230562D01*
X742757Y241221D01*
X748275Y250778D01*
X756078Y258581D01*
X765635Y264099D01*
X776294Y266955D01*
X787330Y266955D01*
X797989Y264099D01*
X807546Y258581D01*
X815349Y250778D01*
X820867Y241221D01*
X823723Y230562D01*
X823723Y219526D01*
X820867Y208867D01*
X815349Y199310D01*
X807546Y191507D01*
X797989Y185989D01*
X787330Y183133D01*
X776294Y183133D01*
G37*
%LPD*%
%LPC*%
G36*
X308665Y10947D02*
X308665Y10947D01*
X300994Y13003D01*
X294117Y16973D01*
X288501Y22589D01*
X284531Y29466D01*
X282475Y37137D01*
X282475Y45079D01*
X284531Y52750D01*
X288501Y59627D01*
X294117Y65243D01*
X300994Y69213D01*
X308665Y71269D01*
X316607Y71269D01*
X324278Y69213D01*
X331155Y65243D01*
X336771Y59627D01*
X340741Y52750D01*
X342797Y45079D01*
X342797Y37137D01*
X340741Y29466D01*
X336771Y22589D01*
X331155Y16973D01*
X324278Y13003D01*
X316607Y10947D01*
X308665Y10947D01*
G37*
%LPD*%
%LPC*%
G36*
X611141Y10439D02*
X611141Y10439D01*
X603470Y12495D01*
X596593Y16465D01*
X590977Y22081D01*
X587007Y28958D01*
X584951Y36629D01*
X584951Y44571D01*
X587007Y52242D01*
X590977Y59119D01*
X596593Y64735D01*
X603470Y68705D01*
X611141Y70761D01*
X619083Y70761D01*
X626754Y68705D01*
X633631Y64735D01*
X639247Y59119D01*
X643217Y52242D01*
X645273Y44571D01*
X645273Y36629D01*
X643217Y28958D01*
X639247Y22081D01*
X633631Y16465D01*
X626754Y12495D01*
X619083Y10439D01*
X611141Y10439D01*
G37*
%LPD*%
%LPC*%
G36*
X49837Y604331D02*
X49837Y604331D01*
X42166Y606387D01*
X35289Y610357D01*
X29673Y615973D01*
X25703Y622850D01*
X23647Y630521D01*
X23647Y638463D01*
X25703Y646134D01*
X29673Y653011D01*
X35289Y658627D01*
X42166Y662597D01*
X49837Y664653D01*
X57779Y664653D01*
X65450Y662597D01*
X72327Y658627D01*
X77943Y653011D01*
X81913Y646134D01*
X83969Y638463D01*
X83969Y630521D01*
X81913Y622850D01*
X77943Y615973D01*
X72327Y610357D01*
X65450Y606387D01*
X57779Y604331D01*
X49837Y604331D01*
G37*
%LPD*%
%LPC*%
G36*
X170646Y93725D02*
X170646Y93725D01*
X167751Y94924D01*
X165028Y97647D01*
X163829Y100542D01*
X163829Y103674D01*
X165028Y106569D01*
X222075Y163616D01*
X222115Y163661D01*
X222159Y163702D01*
X222301Y163876D01*
X222449Y164046D01*
X222482Y164097D01*
X222520Y164143D01*
X222637Y164336D01*
X222759Y164524D01*
X222784Y164579D01*
X222815Y164630D01*
X222904Y164837D01*
X222999Y165041D01*
X223016Y165099D01*
X223040Y165154D01*
X223098Y165371D01*
X223164Y165586D01*
X223173Y165646D01*
X223189Y165704D01*
X223200Y165821D01*
X223251Y166149D01*
X223254Y166374D01*
X223265Y166489D01*
X223265Y242866D01*
X224464Y245761D01*
X226679Y247976D01*
X229574Y249175D01*
X232706Y249175D01*
X235601Y247976D01*
X237816Y245761D01*
X239015Y242866D01*
X239015Y159978D01*
X237816Y157083D01*
X180178Y99445D01*
X180100Y99356D01*
X180016Y99274D01*
X179914Y99141D01*
X179804Y99015D01*
X179740Y98916D01*
X179668Y98823D01*
X179614Y98722D01*
X179494Y98537D01*
X179352Y98230D01*
X179297Y98127D01*
X178888Y97139D01*
X176673Y94924D01*
X173778Y93725D01*
X170646Y93725D01*
G37*
%LPD*%
%LPC*%
G36*
X596199Y189737D02*
X596199Y189737D01*
X592558Y191245D01*
X589771Y194032D01*
X588263Y197673D01*
X588263Y201615D01*
X589771Y205256D01*
X592558Y208043D01*
X593880Y208590D01*
X593983Y208641D01*
X594090Y208684D01*
X594238Y208769D01*
X594390Y208844D01*
X594485Y208910D01*
X594585Y208967D01*
X594719Y209071D01*
X594859Y209168D01*
X594944Y209246D01*
X595035Y209316D01*
X595153Y209438D01*
X595279Y209553D01*
X595352Y209643D01*
X595432Y209725D01*
X595532Y209863D01*
X595640Y209994D01*
X595700Y210092D01*
X595768Y210186D01*
X595848Y210336D01*
X595936Y210481D01*
X595982Y210587D01*
X596036Y210688D01*
X596094Y210848D01*
X596161Y211004D01*
X596192Y211115D01*
X596231Y211224D01*
X596266Y211390D01*
X596311Y211554D01*
X596325Y211668D01*
X596349Y211781D01*
X596361Y211951D01*
X596382Y212119D01*
X596381Y212234D01*
X596388Y212349D01*
X596376Y212519D01*
X596374Y212689D01*
X596356Y212803D01*
X596348Y212918D01*
X596312Y213084D01*
X596286Y213252D01*
X596252Y213362D01*
X596228Y213475D01*
X596169Y213635D01*
X596120Y213797D01*
X596071Y213902D01*
X596031Y214010D01*
X595951Y214159D01*
X595879Y214314D01*
X595816Y214410D01*
X595762Y214512D01*
X595661Y214649D01*
X595569Y214791D01*
X595493Y214878D01*
X595425Y214971D01*
X595306Y215093D01*
X595195Y215221D01*
X595107Y215296D01*
X595027Y215379D01*
X594893Y215483D01*
X594764Y215594D01*
X594667Y215657D01*
X594576Y215727D01*
X594474Y215781D01*
X594285Y215903D01*
X593984Y216043D01*
X593880Y216098D01*
X592558Y216645D01*
X589771Y219432D01*
X588263Y223073D01*
X588263Y227015D01*
X589771Y230656D01*
X592558Y233443D01*
X593880Y233990D01*
X593983Y234041D01*
X594090Y234084D01*
X594238Y234169D01*
X594390Y234244D01*
X594485Y234310D01*
X594585Y234367D01*
X594719Y234471D01*
X594859Y234568D01*
X594944Y234646D01*
X595035Y234716D01*
X595153Y234838D01*
X595279Y234953D01*
X595352Y235043D01*
X595432Y235125D01*
X595532Y235263D01*
X595640Y235394D01*
X595700Y235492D01*
X595768Y235586D01*
X595848Y235736D01*
X595936Y235881D01*
X595982Y235987D01*
X596036Y236088D01*
X596094Y236248D01*
X596161Y236404D01*
X596192Y236515D01*
X596231Y236624D01*
X596266Y236790D01*
X596311Y236954D01*
X596325Y237068D01*
X596349Y237181D01*
X596361Y237351D01*
X596382Y237519D01*
X596381Y237634D01*
X596388Y237749D01*
X596376Y237919D01*
X596374Y238089D01*
X596356Y238203D01*
X596348Y238318D01*
X596312Y238484D01*
X596286Y238652D01*
X596252Y238762D01*
X596228Y238875D01*
X596169Y239035D01*
X596120Y239197D01*
X596071Y239302D01*
X596031Y239410D01*
X595951Y239559D01*
X595879Y239714D01*
X595816Y239810D01*
X595762Y239912D01*
X595661Y240049D01*
X595569Y240191D01*
X595493Y240278D01*
X595425Y240371D01*
X595306Y240493D01*
X595195Y240621D01*
X595107Y240696D01*
X595027Y240779D01*
X594893Y240883D01*
X594764Y240994D01*
X594667Y241057D01*
X594576Y241127D01*
X594474Y241181D01*
X594285Y241303D01*
X593984Y241443D01*
X593880Y241498D01*
X592558Y242045D01*
X589771Y244832D01*
X589134Y246371D01*
X588263Y248473D01*
X588263Y252415D01*
X589771Y256056D01*
X592558Y258843D01*
X596199Y260351D01*
X616905Y260351D01*
X620546Y258843D01*
X623333Y256056D01*
X624841Y252415D01*
X624841Y248473D01*
X623333Y244832D01*
X620546Y242045D01*
X619224Y241498D01*
X619121Y241446D01*
X619014Y241404D01*
X618866Y241320D01*
X618714Y241244D01*
X618619Y241178D01*
X618519Y241121D01*
X618385Y241017D01*
X618245Y240920D01*
X618160Y240842D01*
X618069Y240772D01*
X617951Y240650D01*
X617825Y240535D01*
X617752Y240446D01*
X617672Y240363D01*
X617572Y240225D01*
X617464Y240094D01*
X617404Y239996D01*
X617336Y239903D01*
X617256Y239753D01*
X617168Y239607D01*
X617122Y239501D01*
X617068Y239400D01*
X617010Y239240D01*
X616943Y239084D01*
X616912Y238972D01*
X616873Y238864D01*
X616838Y238698D01*
X616793Y238534D01*
X616779Y238420D01*
X616755Y238307D01*
X616743Y238137D01*
X616722Y237969D01*
X616723Y237854D01*
X616716Y237739D01*
X616728Y237569D01*
X616730Y237399D01*
X616748Y237285D01*
X616756Y237170D01*
X616792Y237004D01*
X616818Y236836D01*
X616852Y236726D01*
X616876Y236613D01*
X616935Y236454D01*
X616984Y236291D01*
X617033Y236186D01*
X617073Y236078D01*
X617153Y235929D01*
X617225Y235775D01*
X617287Y235678D01*
X617342Y235576D01*
X617443Y235439D01*
X617535Y235297D01*
X617611Y235210D01*
X617679Y235117D01*
X617798Y234995D01*
X617909Y234867D01*
X617997Y234791D01*
X618077Y234709D01*
X618211Y234606D01*
X618340Y234494D01*
X618437Y234431D01*
X618528Y234361D01*
X618630Y234307D01*
X618819Y234185D01*
X619120Y234045D01*
X619224Y233990D01*
X620546Y233443D01*
X623333Y230656D01*
X624841Y227015D01*
X624841Y223073D01*
X623333Y219432D01*
X620546Y216645D01*
X619224Y216098D01*
X619121Y216046D01*
X619014Y216004D01*
X618866Y215920D01*
X618714Y215844D01*
X618619Y215778D01*
X618519Y215721D01*
X618385Y215617D01*
X618245Y215520D01*
X618160Y215442D01*
X618069Y215372D01*
X617951Y215250D01*
X617825Y215135D01*
X617752Y215046D01*
X617672Y214963D01*
X617572Y214825D01*
X617464Y214694D01*
X617404Y214596D01*
X617336Y214503D01*
X617256Y214353D01*
X617168Y214207D01*
X617122Y214101D01*
X617068Y214000D01*
X617010Y213840D01*
X616943Y213684D01*
X616912Y213572D01*
X616873Y213464D01*
X616838Y213298D01*
X616793Y213134D01*
X616779Y213020D01*
X616755Y212907D01*
X616743Y212737D01*
X616722Y212569D01*
X616723Y212454D01*
X616716Y212339D01*
X616728Y212169D01*
X616730Y211999D01*
X616748Y211885D01*
X616756Y211770D01*
X616792Y211604D01*
X616818Y211436D01*
X616852Y211326D01*
X616876Y211213D01*
X616935Y211054D01*
X616984Y210891D01*
X617033Y210786D01*
X617073Y210678D01*
X617153Y210529D01*
X617225Y210375D01*
X617287Y210278D01*
X617342Y210176D01*
X617443Y210039D01*
X617535Y209897D01*
X617611Y209810D01*
X617679Y209717D01*
X617798Y209595D01*
X617909Y209467D01*
X617997Y209391D01*
X618077Y209309D01*
X618211Y209206D01*
X618340Y209094D01*
X618437Y209031D01*
X618528Y208961D01*
X618630Y208907D01*
X618819Y208785D01*
X618997Y208702D01*
X619015Y208692D01*
X619089Y208660D01*
X619120Y208645D01*
X619224Y208590D01*
X620546Y208043D01*
X623333Y205256D01*
X624425Y202619D01*
X624425Y202618D01*
X624841Y201615D01*
X624841Y197673D01*
X623333Y194032D01*
X620546Y191245D01*
X616905Y189737D01*
X596199Y189737D01*
G37*
%LPD*%
%LPC*%
G36*
X390610Y128269D02*
X390610Y128269D01*
X387715Y129468D01*
X310062Y207121D01*
X308863Y210016D01*
X308863Y213148D01*
X310062Y216043D01*
X312277Y218258D01*
X315172Y219457D01*
X318304Y219457D01*
X321199Y218258D01*
X398852Y140605D01*
X400051Y137710D01*
X400051Y134578D01*
X398852Y131683D01*
X396637Y129468D01*
X393742Y128269D01*
X390610Y128269D01*
G37*
%LPD*%
%LPC*%
G36*
X236407Y640841D02*
X236407Y640841D01*
X228845Y643974D01*
X223058Y649761D01*
X219925Y657323D01*
X219925Y665509D01*
X223058Y673071D01*
X228845Y678858D01*
X236407Y681991D01*
X244593Y681991D01*
X252155Y678858D01*
X257942Y673071D01*
X261075Y665509D01*
X261075Y657323D01*
X257942Y649761D01*
X252155Y643974D01*
X244593Y640841D01*
X236407Y640841D01*
G37*
%LPD*%
%LPC*%
G36*
X466226Y368517D02*
X466226Y368517D01*
X465333Y369410D01*
X465333Y396174D01*
X466226Y397067D01*
X492990Y397067D01*
X493883Y396174D01*
X493883Y369410D01*
X492990Y368517D01*
X466226Y368517D01*
G37*
%LPD*%
%LPC*%
G36*
X346226Y368517D02*
X346226Y368517D01*
X345333Y369410D01*
X345333Y396174D01*
X346226Y397067D01*
X372990Y397067D01*
X373883Y396174D01*
X373883Y369410D01*
X372990Y368517D01*
X346226Y368517D01*
G37*
%LPD*%
%LPC*%
G36*
X406226Y226517D02*
X406226Y226517D01*
X405333Y227410D01*
X405333Y254174D01*
X406226Y255067D01*
X432990Y255067D01*
X433883Y254174D01*
X433883Y227410D01*
X432990Y226517D01*
X406226Y226517D01*
G37*
%LPD*%
%LPC*%
G36*
X476462Y735837D02*
X476462Y735837D01*
X473567Y737036D01*
X471352Y739251D01*
X470153Y742146D01*
X470153Y745278D01*
X471352Y748173D01*
X474583Y751404D01*
X477478Y752603D01*
X515154Y752603D01*
X518049Y751404D01*
X520264Y749189D01*
X521463Y746294D01*
X521463Y743162D01*
X520264Y740267D01*
X518049Y738052D01*
X515154Y736853D01*
X482855Y736853D01*
X482738Y736845D01*
X482620Y736846D01*
X482454Y736825D01*
X482287Y736813D01*
X482172Y736789D01*
X482055Y736774D01*
X481945Y736740D01*
X481730Y736694D01*
X481412Y736578D01*
X481301Y736544D01*
X479594Y735837D01*
X476462Y735837D01*
G37*
%LPD*%
%LPC*%
G36*
X356769Y246517D02*
X356769Y246517D01*
X351522Y248690D01*
X347506Y252706D01*
X345333Y257953D01*
X345333Y263631D01*
X347506Y268878D01*
X351522Y272894D01*
X356769Y275067D01*
X362447Y275067D01*
X367694Y272894D01*
X371710Y268878D01*
X373883Y263631D01*
X373883Y257953D01*
X371710Y252706D01*
X367694Y248690D01*
X362447Y246517D01*
X356769Y246517D01*
G37*
%LPD*%
%LPC*%
G36*
X476769Y246517D02*
X476769Y246517D01*
X471522Y248690D01*
X467506Y252706D01*
X465333Y257953D01*
X465333Y263631D01*
X467506Y268878D01*
X471522Y272894D01*
X476769Y275067D01*
X482447Y275067D01*
X487694Y272894D01*
X491710Y268878D01*
X493883Y263631D01*
X493883Y257953D01*
X491710Y252706D01*
X487694Y248690D01*
X482447Y246517D01*
X476769Y246517D01*
G37*
%LPD*%
%LPC*%
G36*
X116076Y655867D02*
X116076Y655867D01*
X115183Y656760D01*
X115183Y679024D01*
X116076Y679917D01*
X138340Y679917D01*
X139233Y679024D01*
X139233Y656760D01*
X138340Y655867D01*
X116076Y655867D01*
G37*
%LPD*%
%LPC*%
G36*
X280804Y102483D02*
X280804Y102483D01*
X279911Y103376D01*
X279911Y125640D01*
X280804Y126533D01*
X303068Y126533D01*
X303961Y125640D01*
X303961Y103376D01*
X303068Y102483D01*
X280804Y102483D01*
G37*
%LPD*%
%LPC*%
G36*
X583280Y101975D02*
X583280Y101975D01*
X582387Y102868D01*
X582387Y125132D01*
X583280Y126025D01*
X605544Y126025D01*
X606437Y125132D01*
X606437Y102868D01*
X605544Y101975D01*
X583280Y101975D01*
G37*
%LPD*%
%LPC*%
G36*
X306543Y688466D02*
X306543Y688466D01*
X305650Y689359D01*
X305650Y709673D01*
X306543Y710566D01*
X326857Y710566D01*
X327750Y709673D01*
X327750Y689359D01*
X326857Y688466D01*
X306543Y688466D01*
G37*
%LPD*%
%LPC*%
G36*
X306543Y612266D02*
X306543Y612266D01*
X305650Y613159D01*
X305650Y633473D01*
X306543Y634366D01*
X326857Y634366D01*
X327750Y633473D01*
X327750Y613159D01*
X326857Y612266D01*
X306543Y612266D01*
G37*
%LPD*%
%LPC*%
G36*
X266506Y327151D02*
X266506Y327151D01*
X263332Y328466D01*
X260902Y330896D01*
X259587Y334070D01*
X259587Y337506D01*
X260902Y340680D01*
X263332Y343110D01*
X266506Y344425D01*
X284166Y344425D01*
X287340Y343110D01*
X289770Y340680D01*
X291085Y337506D01*
X291085Y334070D01*
X289770Y330896D01*
X287340Y328466D01*
X284166Y327151D01*
X266506Y327151D01*
G37*
%LPD*%
%LPC*%
G36*
X266506Y177799D02*
X266506Y177799D01*
X263332Y179114D01*
X260902Y181544D01*
X259587Y184718D01*
X259587Y188154D01*
X260902Y191328D01*
X263332Y193758D01*
X266506Y195073D01*
X284166Y195073D01*
X287340Y193758D01*
X289770Y191328D01*
X291085Y188154D01*
X291085Y184718D01*
X289770Y181544D01*
X287340Y179114D01*
X284166Y177799D01*
X266506Y177799D01*
G37*
%LPD*%
%LPC*%
G36*
X266506Y301751D02*
X266506Y301751D01*
X263332Y303066D01*
X260902Y305496D01*
X259587Y308670D01*
X259587Y312106D01*
X260902Y315280D01*
X263332Y317710D01*
X266506Y319025D01*
X284166Y319025D01*
X287340Y317710D01*
X289770Y315280D01*
X290993Y312326D01*
X290994Y312326D01*
X291085Y312106D01*
X291085Y308670D01*
X289770Y305496D01*
X287340Y303066D01*
X284166Y301751D01*
X266506Y301751D01*
G37*
%LPD*%
%LPC*%
G36*
X266506Y203199D02*
X266506Y203199D01*
X263332Y204514D01*
X260902Y206944D01*
X259718Y209801D01*
X259718Y209802D01*
X259587Y210118D01*
X259587Y213554D01*
X260902Y216728D01*
X263332Y219158D01*
X266506Y220473D01*
X284166Y220473D01*
X287340Y219158D01*
X289770Y216728D01*
X291085Y213554D01*
X291085Y210118D01*
X289770Y206944D01*
X287340Y204514D01*
X284166Y203199D01*
X266506Y203199D01*
G37*
%LPD*%
%LPC*%
G36*
X510500Y683033D02*
X510500Y683033D01*
X508550Y683841D01*
X507057Y685334D01*
X506249Y687284D01*
X506249Y689396D01*
X507057Y691346D01*
X508550Y692839D01*
X510500Y693647D01*
X512612Y693647D01*
X514562Y692839D01*
X516055Y691346D01*
X516863Y689396D01*
X516863Y687284D01*
X516055Y685334D01*
X514562Y683841D01*
X512612Y683033D01*
X510500Y683033D01*
G37*
%LPD*%
%LPC*%
G36*
X374864Y672365D02*
X374864Y672365D01*
X372914Y673173D01*
X371421Y674666D01*
X370613Y676616D01*
X370613Y678728D01*
X371421Y680678D01*
X372914Y682171D01*
X374864Y682979D01*
X376976Y682979D01*
X378926Y682171D01*
X380419Y680678D01*
X381227Y678728D01*
X381227Y676616D01*
X380419Y674666D01*
X378926Y673173D01*
X376976Y672365D01*
X374864Y672365D01*
G37*
%LPD*%
%LPC*%
G36*
X181316Y596165D02*
X181316Y596165D01*
X179366Y596973D01*
X177873Y598466D01*
X177065Y600416D01*
X177065Y602528D01*
X177873Y604478D01*
X179366Y605971D01*
X181316Y606779D01*
X183428Y606779D01*
X185378Y605971D01*
X186871Y604478D01*
X187679Y602528D01*
X187679Y600416D01*
X186871Y598466D01*
X185378Y596973D01*
X183428Y596165D01*
X181316Y596165D01*
G37*
%LPD*%
%LPC*%
G36*
X202652Y500153D02*
X202652Y500153D01*
X200702Y500961D01*
X199209Y502454D01*
X198401Y504404D01*
X198401Y506516D01*
X199209Y508466D01*
X200702Y509959D01*
X202652Y510767D01*
X204764Y510767D01*
X206714Y509959D01*
X208207Y508466D01*
X209015Y506516D01*
X209015Y504404D01*
X208207Y502454D01*
X206714Y500961D01*
X204764Y500153D01*
X202652Y500153D01*
G37*
%LPD*%
%LPC*%
G36*
X336764Y476785D02*
X336764Y476785D01*
X334814Y477593D01*
X333321Y479086D01*
X332513Y481036D01*
X332513Y483148D01*
X333321Y485098D01*
X334814Y486591D01*
X336764Y487399D01*
X338876Y487399D01*
X340826Y486591D01*
X342319Y485098D01*
X343127Y483148D01*
X343127Y481036D01*
X342319Y479086D01*
X340826Y477593D01*
X338876Y476785D01*
X336764Y476785D01*
G37*
%LPD*%
%LPC*%
G36*
X235164Y286793D02*
X235164Y286793D01*
X233214Y287601D01*
X231721Y289094D01*
X230913Y291044D01*
X230913Y293156D01*
X231721Y295106D01*
X233214Y296599D01*
X235164Y297407D01*
X237276Y297407D01*
X239226Y296599D01*
X240719Y295106D01*
X241527Y293156D01*
X241527Y291044D01*
X240719Y289094D01*
X239226Y287601D01*
X237276Y286793D01*
X235164Y286793D01*
G37*
%LPD*%
%LPC*%
G36*
X646644Y316765D02*
X646644Y316765D01*
X644694Y317573D01*
X643201Y319066D01*
X642393Y321016D01*
X642393Y323128D01*
X643201Y325078D01*
X644694Y326571D01*
X646644Y327379D01*
X648756Y327379D01*
X650706Y326571D01*
X652199Y325078D01*
X653007Y323128D01*
X653007Y321016D01*
X652199Y319066D01*
X650706Y317573D01*
X648756Y316765D01*
X646644Y316765D01*
G37*
%LPD*%
%LPC*%
G36*
X281900Y384837D02*
X281900Y384837D01*
X279950Y385645D01*
X278457Y387138D01*
X277649Y389088D01*
X277649Y391200D01*
X278457Y393150D01*
X279950Y394643D01*
X281900Y395451D01*
X284012Y395451D01*
X285962Y394643D01*
X287455Y393150D01*
X288263Y391200D01*
X288263Y389088D01*
X287455Y387138D01*
X285962Y385645D01*
X284012Y384837D01*
X281900Y384837D01*
G37*
%LPD*%
%LPC*%
G36*
X308824Y239549D02*
X308824Y239549D01*
X306874Y240357D01*
X305381Y241850D01*
X304573Y243800D01*
X304573Y245912D01*
X305381Y247862D01*
X306874Y249355D01*
X308824Y250163D01*
X310936Y250163D01*
X312886Y249355D01*
X314379Y247862D01*
X315187Y245912D01*
X315187Y243800D01*
X314379Y241850D01*
X312886Y240357D01*
X310936Y239549D01*
X308824Y239549D01*
G37*
%LPD*%
%LPC*%
G36*
X554696Y317781D02*
X554696Y317781D01*
X552746Y318589D01*
X551253Y320082D01*
X550445Y322032D01*
X550445Y324144D01*
X551253Y326094D01*
X552746Y327587D01*
X554696Y328395D01*
X556808Y328395D01*
X558758Y327587D01*
X560251Y326094D01*
X561059Y324144D01*
X561059Y322032D01*
X560251Y320082D01*
X558758Y318589D01*
X556808Y317781D01*
X554696Y317781D01*
G37*
%LPD*%
%LPC*%
G36*
X510500Y157761D02*
X510500Y157761D01*
X508550Y158569D01*
X507057Y160062D01*
X506249Y162012D01*
X506249Y164124D01*
X507057Y166074D01*
X508550Y167567D01*
X510500Y168375D01*
X512612Y168375D01*
X514562Y167567D01*
X516055Y166074D01*
X516863Y164124D01*
X516863Y162012D01*
X516055Y160062D01*
X514562Y158569D01*
X512612Y157761D01*
X510500Y157761D01*
G37*
%LPD*%
%LPC*%
G36*
X270724Y154713D02*
X270724Y154713D01*
X268774Y155521D01*
X267281Y157014D01*
X266473Y158964D01*
X266473Y161076D01*
X267281Y163026D01*
X268774Y164519D01*
X270724Y165327D01*
X272836Y165327D01*
X274786Y164519D01*
X276279Y163026D01*
X277087Y161076D01*
X277087Y158964D01*
X276279Y157014D01*
X274786Y155521D01*
X272836Y154713D01*
X270724Y154713D01*
G37*
%LPD*%
%LPC*%
G36*
X163536Y153697D02*
X163536Y153697D01*
X161586Y154505D01*
X160093Y155998D01*
X159285Y157948D01*
X159285Y160060D01*
X160093Y162010D01*
X161586Y163503D01*
X163536Y164311D01*
X165648Y164311D01*
X167598Y163503D01*
X169091Y162010D01*
X169899Y160060D01*
X169899Y157948D01*
X169091Y155998D01*
X167598Y154505D01*
X165648Y153697D01*
X163536Y153697D01*
G37*
%LPD*%
%LPC*%
G36*
X416520Y90705D02*
X416520Y90705D01*
X414570Y91513D01*
X413077Y93006D01*
X412269Y94956D01*
X412269Y97068D01*
X413077Y99018D01*
X414570Y100511D01*
X416520Y101319D01*
X418632Y101319D01*
X420582Y100511D01*
X422075Y99018D01*
X422883Y97068D01*
X422883Y94956D01*
X422075Y93006D01*
X420582Y91513D01*
X418632Y90705D01*
X416520Y90705D01*
G37*
%LPD*%
%LPC*%
G36*
X93940Y365025D02*
X93940Y365025D01*
X91990Y365833D01*
X90497Y367326D01*
X89689Y369276D01*
X89689Y371388D01*
X90497Y373338D01*
X91990Y374831D01*
X93940Y375639D01*
X96052Y375639D01*
X98002Y374831D01*
X99495Y373338D01*
X100303Y371388D01*
X100303Y369276D01*
X99495Y367326D01*
X98002Y365833D01*
X96052Y365025D01*
X93940Y365025D01*
G37*
%LPD*%
%LPC*%
G36*
X662392Y146585D02*
X662392Y146585D01*
X660442Y147393D01*
X658949Y148886D01*
X658141Y150836D01*
X658141Y152948D01*
X658949Y154898D01*
X660442Y156391D01*
X662392Y157199D01*
X664504Y157199D01*
X666454Y156391D01*
X667947Y154898D01*
X668755Y152948D01*
X668755Y150836D01*
X667947Y148886D01*
X666454Y147393D01*
X664504Y146585D01*
X662392Y146585D01*
G37*
%LPD*%
D10*
X291936Y114508D03*
X333336Y114508D03*
X594412Y114000D03*
X635812Y114000D03*
D11*
X629704Y471536D03*
X629704Y496936D03*
X629704Y522336D03*
X629704Y547736D03*
X629704Y573136D03*
X629704Y598536D03*
X629704Y623936D03*
X629704Y649336D03*
X601764Y471536D03*
X601764Y496936D03*
X601764Y522336D03*
X601764Y547736D03*
X601764Y573136D03*
X601764Y598536D03*
X601764Y623936D03*
X601764Y649336D03*
D12*
X316700Y623316D03*
X316700Y699516D03*
D13*
X142748Y497332D03*
X117348Y497332D03*
X117348Y421132D03*
X142748Y421132D03*
X91948Y497332D03*
X66548Y497332D03*
X91948Y421132D03*
X66548Y421132D03*
D14*
X268224Y186436D02*
X282448Y186436D01*
X282448Y211836D02*
X268224Y211836D01*
X268224Y335788D02*
X282448Y335788D01*
X282448Y310388D02*
X268224Y310388D01*
D10*
X127208Y667892D03*
X127208Y601092D03*
D15*
X267856Y530860D03*
X293256Y530860D03*
X318656Y530860D03*
D16*
X419608Y240792D03*
D17*
X479608Y260792D03*
D16*
X479608Y382792D03*
X359608Y382792D03*
D17*
X359608Y260792D03*
D18*
X598170Y250444D02*
X614934Y250444D01*
X614934Y225044D02*
X598170Y225044D01*
X598170Y199644D02*
X614934Y199644D01*
D19*
X217932Y379984D02*
X158496Y379984D01*
X217932Y379984D02*
X217932Y381000D01*
D20*
X217932Y381000D03*
D19*
X158496Y379984D02*
X117348Y421132D01*
D21*
X141224Y464312D02*
X141224Y476504D01*
X141224Y464312D02*
X141224Y453136D01*
D22*
X130556Y463804D02*
X97028Y497332D01*
X91948Y497332D01*
X130556Y464312D02*
X141224Y464312D01*
X142748Y478028D02*
X142748Y497332D01*
X142748Y478028D02*
X141224Y476504D01*
X141224Y453136D01*
X142748Y451612D02*
X142748Y421132D01*
X130556Y463804D02*
X130556Y464312D01*
X130556Y463804D02*
X141224Y453136D01*
X142748Y451612D01*
D19*
X142748Y421132D02*
X142748Y497332D01*
D22*
X117348Y497332D02*
X117348Y534924D01*
X135636Y553212D01*
X270904Y553212D01*
X293256Y530860D01*
X318656Y530860D01*
X134112Y235204D02*
X134112Y231009D01*
D20*
X134112Y186436D03*
D19*
X134112Y231009D01*
X134112Y235204D02*
X134112Y378968D01*
X91948Y421132D01*
X316738Y211582D02*
X392176Y136144D01*
D20*
X316738Y211582D03*
X392176Y136144D03*
D19*
X172212Y101600D02*
X171704Y102108D01*
D20*
X172212Y101600D03*
X231140Y241300D03*
D19*
X231140Y161544D01*
X171704Y102108D01*
D20*
X513588Y744728D03*
D19*
X479044Y744728D01*
X478028Y743712D01*
D20*
X511556Y688340D03*
X375920Y677672D03*
X182372Y601472D03*
X203708Y505460D03*
X337820Y482092D03*
X282956Y390144D03*
X94996Y370332D03*
X152400Y298704D03*
X236220Y292100D03*
X309880Y244856D03*
X271780Y160020D03*
X164592Y159004D03*
X417576Y96012D03*
X511556Y163068D03*
X663448Y151892D03*
X647700Y322072D03*
X555752Y323088D03*
M02*
