%TF.GenerationSoftware,KiCad,Pcbnew,7.0.5*%
%TF.CreationDate,2023-07-23T12:45:18-06:00*%
%TF.ProjectId,CAN-USB RF Module,43414e2d-5553-4422-9052-46204d6f6475,rev?*%
%TF.SameCoordinates,Original*%
%TF.FileFunction,Paste,Top*%
%TF.FilePolarity,Positive*%
%FSLAX46Y46*%
G04 Gerber Fmt 4.6, Leading zero omitted, Abs format (unit mm)*
G04 Created by KiCad (PCBNEW 7.0.5) date 2023-07-23 12:45:18*
%MOMM*%
%LPD*%
G01*
G04 APERTURE LIST*
G04 Aperture macros list*
%AMRoundRect*
0 Rectangle with rounded corners*
0 $1 Rounding radius*
0 $2 $3 $4 $5 $6 $7 $8 $9 X,Y pos of 4 corners*
0 Add a 4 corners polygon primitive as box body*
4,1,4,$2,$3,$4,$5,$6,$7,$8,$9,$2,$3,0*
0 Add four circle primitives for the rounded corners*
1,1,$1+$1,$2,$3*
1,1,$1+$1,$4,$5*
1,1,$1+$1,$6,$7*
1,1,$1+$1,$8,$9*
0 Add four rect primitives between the rounded corners*
20,1,$1+$1,$2,$3,$4,$5,0*
20,1,$1+$1,$4,$5,$6,$7,0*
20,1,$1+$1,$6,$7,$8,$9,0*
20,1,$1+$1,$8,$9,$2,$3,0*%
G04 Aperture macros list end*
%ADD10RoundRect,0.135000X0.135000X0.185000X-0.135000X0.185000X-0.135000X-0.185000X0.135000X-0.185000X0*%
%ADD11RoundRect,0.140000X-0.170000X0.140000X-0.170000X-0.140000X0.170000X-0.140000X0.170000X0.140000X0*%
%ADD12RoundRect,0.218750X0.218750X0.256250X-0.218750X0.256250X-0.218750X-0.256250X0.218750X-0.256250X0*%
%ADD13RoundRect,0.135000X-0.185000X0.135000X-0.185000X-0.135000X0.185000X-0.135000X0.185000X0.135000X0*%
%ADD14RoundRect,0.147500X-0.147500X-0.172500X0.147500X-0.172500X0.147500X0.172500X-0.147500X0.172500X0*%
%ADD15RoundRect,0.140000X0.170000X-0.140000X0.170000X0.140000X-0.170000X0.140000X-0.170000X-0.140000X0*%
%ADD16RoundRect,0.200000X0.200000X0.275000X-0.200000X0.275000X-0.200000X-0.275000X0.200000X-0.275000X0*%
%ADD17RoundRect,0.140000X-0.140000X-0.170000X0.140000X-0.170000X0.140000X0.170000X-0.140000X0.170000X0*%
%ADD18RoundRect,0.140000X0.140000X0.170000X-0.140000X0.170000X-0.140000X-0.170000X0.140000X-0.170000X0*%
%ADD19RoundRect,0.200000X0.275000X-0.200000X0.275000X0.200000X-0.275000X0.200000X-0.275000X-0.200000X0*%
%ADD20R,0.600000X0.420000*%
%ADD21RoundRect,0.200000X-0.200000X-0.275000X0.200000X-0.275000X0.200000X0.275000X-0.200000X0.275000X0*%
%ADD22RoundRect,0.200000X-0.275000X0.200000X-0.275000X-0.200000X0.275000X-0.200000X0.275000X0.200000X0*%
%ADD23RoundRect,0.135000X-0.135000X-0.185000X0.135000X-0.185000X0.135000X0.185000X-0.135000X0.185000X0*%
%ADD24R,0.510000X0.400000*%
%ADD25RoundRect,0.147500X-0.172500X0.147500X-0.172500X-0.147500X0.172500X-0.147500X0.172500X0.147500X0*%
%ADD26RoundRect,0.225000X-0.250000X0.225000X-0.250000X-0.225000X0.250000X-0.225000X0.250000X0.225000X0*%
%ADD27RoundRect,0.225000X-0.225000X-0.250000X0.225000X-0.250000X0.225000X0.250000X-0.225000X0.250000X0*%
%ADD28RoundRect,0.225000X0.250000X-0.225000X0.250000X0.225000X-0.250000X0.225000X-0.250000X-0.225000X0*%
%ADD29RoundRect,0.225000X0.225000X0.250000X-0.225000X0.250000X-0.225000X-0.250000X0.225000X-0.250000X0*%
%ADD30O,0.890000X1.550000*%
%ADD31O,1.250000X0.950000*%
%ADD32R,0.400000X1.350000*%
%ADD33R,1.200000X1.550000*%
%ADD34R,1.500000X1.550000*%
%ADD35R,0.807999X0.305600*%
%ADD36R,1.752600X2.489200*%
%ADD37R,2.200000X2.150000*%
%ADD38R,1.000000X0.800000*%
%ADD39R,0.700000X1.500000*%
%ADD40R,1.450000X0.450000*%
%ADD41R,1.100000X1.400000*%
%ADD42R,1.200000X0.400000*%
%ADD43RoundRect,0.218750X-0.218750X-0.256250X0.218750X-0.256250X0.218750X0.256250X-0.218750X0.256250X0*%
%ADD44R,4.560000X0.850000*%
%ADD45R,4.560000X1.000000*%
%ADD46RoundRect,0.250000X-0.850000X-0.350000X0.850000X-0.350000X0.850000X0.350000X-0.850000X0.350000X0*%
%ADD47RoundRect,0.250000X-1.275000X-1.125000X1.275000X-1.125000X1.275000X1.125000X-1.275000X1.125000X0*%
%ADD48R,1.200000X0.600000*%
%ADD49R,0.600000X1.000000*%
%ADD50R,0.650000X0.350000*%
%ADD51RoundRect,0.232500X-0.232500X-0.232500X0.232500X-0.232500X0.232500X0.232500X-0.232500X0.232500X0*%
%ADD52RoundRect,0.062500X-0.375000X-0.062500X0.375000X-0.062500X0.375000X0.062500X-0.375000X0.062500X0*%
%ADD53RoundRect,0.062500X-0.062500X-0.375000X0.062500X-0.375000X0.062500X0.375000X-0.062500X0.375000X0*%
%ADD54R,1.391400X0.710400*%
%ADD55R,0.300000X0.750000*%
%ADD56R,0.750000X0.300000*%
%ADD57R,4.800000X4.800000*%
%ADD58R,1.800000X1.400000*%
%ADD59R,0.250000X0.650000*%
%ADD60R,2.500000X1.700000*%
G04 APERTURE END LIST*
D10*
%TO.C,R16*%
X102730000Y-109290000D03*
X101710000Y-109290000D03*
%TD*%
D11*
%TO.C,C20*%
X161055600Y-101628000D03*
X161055600Y-102588000D03*
%TD*%
D12*
%TO.C,D7*%
X121691500Y-110814000D03*
X120116500Y-110814000D03*
%TD*%
D13*
%TO.C,R7*%
X182152600Y-103503000D03*
X182152600Y-104523000D03*
%TD*%
D14*
%TO.C,L5*%
X169610600Y-100330000D03*
X170580600Y-100330000D03*
%TD*%
D15*
%TO.C,C15*%
X154606600Y-97523000D03*
X154606600Y-96563000D03*
%TD*%
D11*
%TO.C,C25*%
X163789000Y-106318718D03*
X163789000Y-107278718D03*
%TD*%
D13*
%TO.C,R6*%
X181121600Y-103503000D03*
X181121600Y-104523000D03*
%TD*%
D16*
%TO.C,R3*%
X93535000Y-92278500D03*
X91885000Y-92278500D03*
%TD*%
D11*
%TO.C,C58*%
X143129000Y-114300000D03*
X143129000Y-115260000D03*
%TD*%
D17*
%TO.C,C28*%
X164967800Y-106334800D03*
X165927800Y-106334800D03*
%TD*%
D15*
%TO.C,C16*%
X153590600Y-97015000D03*
X153590600Y-96055000D03*
%TD*%
D18*
%TO.C,C34*%
X180077600Y-99641000D03*
X179117600Y-99641000D03*
%TD*%
D15*
%TO.C,C31*%
X159023600Y-100302000D03*
X159023600Y-99342000D03*
%TD*%
D19*
%TO.C,R13*%
X115382999Y-113060001D03*
X115382999Y-111410001D03*
%TD*%
D15*
%TO.C,C37*%
X183661600Y-102588000D03*
X183661600Y-101628000D03*
%TD*%
D20*
%TO.C,U6*%
X178200600Y-100950000D03*
X178200600Y-101600000D03*
X178200600Y-102250000D03*
X180100600Y-102250000D03*
X180100600Y-101600000D03*
X180100600Y-100950000D03*
%TD*%
D21*
%TO.C,R21*%
X116968000Y-110814000D03*
X118618000Y-110814000D03*
%TD*%
D22*
%TO.C,R11*%
X91059000Y-104528000D03*
X91059000Y-106178000D03*
%TD*%
D16*
%TO.C,FB1*%
X126967500Y-103604000D03*
X125317500Y-103604000D03*
%TD*%
D11*
%TO.C,C1*%
X118547101Y-116403000D03*
X118547101Y-117363000D03*
%TD*%
D23*
%TO.C,R9*%
X177546000Y-113284000D03*
X178566000Y-113284000D03*
%TD*%
D15*
%TO.C,C12*%
X90632000Y-95425500D03*
X90632000Y-94465500D03*
%TD*%
D22*
%TO.C,R18*%
X96139000Y-106687000D03*
X96139000Y-108337000D03*
%TD*%
D17*
%TO.C,C14*%
X156285600Y-97551000D03*
X157245600Y-97551000D03*
%TD*%
D24*
%TO.C,Q2*%
X104115000Y-110441000D03*
X104115000Y-111441000D03*
X105405000Y-110941000D03*
%TD*%
D19*
%TO.C,R12*%
X113858999Y-114711001D03*
X113858999Y-113061001D03*
%TD*%
D13*
%TO.C,R15*%
X100569000Y-110431000D03*
X100569000Y-111451000D03*
%TD*%
D25*
%TO.C,L2*%
X162175600Y-100353000D03*
X162175600Y-101323000D03*
%TD*%
D26*
%TO.C,C44*%
X115382999Y-114762001D03*
X115382999Y-116312001D03*
%TD*%
D21*
%TO.C,R30*%
X116967000Y-109290000D03*
X118617000Y-109290000D03*
%TD*%
D27*
%TO.C,C9*%
X96380000Y-97358500D03*
X97930000Y-97358500D03*
%TD*%
D23*
%TO.C,R5*%
X167046000Y-106334800D03*
X168066000Y-106334800D03*
%TD*%
D15*
%TO.C,C38*%
X186709600Y-102547600D03*
X186709600Y-101587600D03*
%TD*%
D12*
%TO.C,D9*%
X132677500Y-109220000D03*
X131102500Y-109220000D03*
%TD*%
D11*
%TO.C,C30*%
X171850600Y-99342000D03*
X171850600Y-100302000D03*
%TD*%
D19*
%TO.C,R19*%
X96139000Y-104019000D03*
X96139000Y-102369000D03*
%TD*%
D15*
%TO.C,C8*%
X96901000Y-90218500D03*
X96901000Y-89258500D03*
%TD*%
%TO.C,C43*%
X116652999Y-114493001D03*
X116652999Y-113533001D03*
%TD*%
D12*
%TO.C,D4*%
X132677500Y-110744000D03*
X131102500Y-110744000D03*
%TD*%
D28*
%TO.C,C52*%
X109855000Y-105296000D03*
X109855000Y-103746000D03*
%TD*%
D11*
%TO.C,C24*%
X164588600Y-101374000D03*
X164588600Y-102334000D03*
%TD*%
%TO.C,C22*%
X160614000Y-106346718D03*
X160614000Y-107306718D03*
%TD*%
D18*
%TO.C,C39*%
X84760500Y-100294000D03*
X83800500Y-100294000D03*
%TD*%
%TO.C,C50*%
X146196600Y-97536000D03*
X145236600Y-97536000D03*
%TD*%
D28*
%TO.C,C41*%
X107442000Y-103956000D03*
X107442000Y-102406000D03*
%TD*%
D11*
%TO.C,C51*%
X175152600Y-99342000D03*
X175152600Y-100302000D03*
%TD*%
D17*
%TO.C,C10*%
X96393000Y-96088500D03*
X97353000Y-96088500D03*
%TD*%
D28*
%TO.C,C48*%
X97663000Y-103969000D03*
X97663000Y-102419000D03*
%TD*%
D18*
%TO.C,C29*%
X170552600Y-99273600D03*
X169592600Y-99273600D03*
%TD*%
D29*
%TO.C,C42*%
X107885499Y-112743001D03*
X106335499Y-112743001D03*
%TD*%
D30*
%TO.C,J2*%
X83296000Y-87597000D03*
D31*
X82296000Y-90297000D03*
X77296000Y-90297000D03*
D30*
X76296000Y-87597000D03*
D32*
X81096000Y-90297000D03*
X80446000Y-90297000D03*
X79796000Y-90297000D03*
X79146000Y-90297000D03*
X78496000Y-90297000D03*
D33*
X82696000Y-87597000D03*
D34*
X80796000Y-87597000D03*
X78796000Y-87597000D03*
D33*
X76896000Y-87597000D03*
%TD*%
D35*
%TO.C,U9*%
X112304799Y-114692999D03*
X112304799Y-114043001D03*
X112304799Y-113392999D03*
X112304799Y-112743001D03*
X109413999Y-112743001D03*
X109413999Y-113392999D03*
X109413999Y-114043001D03*
X109413999Y-114692999D03*
D36*
X110859399Y-113718000D03*
%TD*%
D18*
%TO.C,C40*%
X80696500Y-98319000D03*
X79736500Y-98319000D03*
%TD*%
D37*
%TO.C,D1*%
X132166000Y-88519000D03*
X136566000Y-88519000D03*
%TD*%
D18*
%TO.C,C17*%
X149498600Y-103774000D03*
X148538600Y-103774000D03*
%TD*%
D14*
%TO.C,L7*%
X184700600Y-101600000D03*
X185670600Y-101600000D03*
%TD*%
%TO.C,L4*%
X166562600Y-100330000D03*
X167532600Y-100330000D03*
%TD*%
D17*
%TO.C,C19*%
X157790000Y-103378000D03*
X158750000Y-103378000D03*
%TD*%
D16*
%TO.C,R4*%
X93535000Y-94564500D03*
X91885000Y-94564500D03*
%TD*%
D38*
%TO.C,SW2*%
X126525000Y-115298000D03*
X126525000Y-117508000D03*
X133825000Y-115298000D03*
X133825000Y-117508000D03*
D39*
X127925000Y-114648000D03*
X130925000Y-114648000D03*
X132425000Y-114648000D03*
%TD*%
D22*
%TO.C,R22*%
X92583000Y-106179000D03*
X92583000Y-107829000D03*
%TD*%
D40*
%TO.C,U8*%
X99698000Y-103892000D03*
X99698000Y-104542000D03*
X99698000Y-105192000D03*
X99698000Y-105842000D03*
X99698000Y-106492000D03*
X99698000Y-107142000D03*
X99698000Y-107792000D03*
X105598000Y-107792000D03*
X105598000Y-107142000D03*
X105598000Y-106492000D03*
X105598000Y-105842000D03*
X105598000Y-105192000D03*
X105598000Y-104542000D03*
X105598000Y-103892000D03*
D41*
X101898000Y-104942000D03*
X101898000Y-106742000D03*
X103398000Y-104942000D03*
X103398000Y-106742000D03*
%TD*%
D16*
%TO.C,R26*%
X129667000Y-107696000D03*
X128017000Y-107696000D03*
%TD*%
D42*
%TO.C,IC1*%
X116012000Y-89931000D03*
X116012000Y-89281000D03*
X116012000Y-88631000D03*
X114112000Y-88631000D03*
X114112000Y-89931000D03*
%TD*%
D17*
%TO.C,C32*%
X169412800Y-106334800D03*
X170372800Y-106334800D03*
%TD*%
D43*
%TO.C,D2*%
X101828500Y-95072500D03*
X103403500Y-95072500D03*
%TD*%
D11*
%TO.C,C55*%
X144145000Y-114300000D03*
X144145000Y-115260000D03*
%TD*%
D26*
%TO.C,C56*%
X140906500Y-114259000D03*
X140906500Y-115809000D03*
%TD*%
D44*
%TO.C,J3*%
X190359500Y-101470250D03*
D45*
X190359500Y-104240250D03*
X190359500Y-98700250D03*
%TD*%
D16*
%TO.C,R28*%
X129667000Y-110744000D03*
X128017000Y-110744000D03*
%TD*%
D28*
%TO.C,C53*%
X109855000Y-100597000D03*
X109855000Y-99047000D03*
%TD*%
D46*
%TO.C,U2*%
X112014000Y-100717000D03*
X112014000Y-102997000D03*
D47*
X116639000Y-101472000D03*
X116639000Y-104522000D03*
X119989000Y-101472000D03*
X119989000Y-104522000D03*
D46*
X112014000Y-105277000D03*
%TD*%
D15*
%TO.C,C21*%
X163237600Y-100302000D03*
X163237600Y-99342000D03*
%TD*%
D12*
%TO.C,D10*%
X132677500Y-107696000D03*
X131102500Y-107696000D03*
%TD*%
D27*
%TO.C,C2*%
X136512000Y-104521000D03*
X138062000Y-104521000D03*
%TD*%
D48*
%TO.C,D3*%
X89242000Y-94371500D03*
X89242000Y-93421500D03*
X89242000Y-92471500D03*
X86942000Y-92471500D03*
X86942000Y-93421500D03*
X86942000Y-94371500D03*
%TD*%
D16*
%TO.C,R27*%
X129667000Y-109220000D03*
X128017000Y-109220000D03*
%TD*%
D15*
%TO.C,C3*%
X128936500Y-99131000D03*
X128936500Y-98171000D03*
%TD*%
D22*
%TO.C,R10*%
X94615000Y-104973000D03*
X94615000Y-106623000D03*
%TD*%
D11*
%TO.C,C7*%
X125253500Y-104775000D03*
X125253500Y-105735000D03*
%TD*%
D14*
%TO.C,L3*%
X161757000Y-106318718D03*
X162727000Y-106318718D03*
%TD*%
%TO.C,L6*%
X173016600Y-100330000D03*
X173986600Y-100330000D03*
%TD*%
%TO.C,L1*%
X160062600Y-100330000D03*
X161032600Y-100330000D03*
%TD*%
D49*
%TO.C,U3*%
X81521000Y-101217500D03*
X81521000Y-100017500D03*
X80746000Y-101217500D03*
X80746000Y-100017500D03*
D50*
X82683500Y-101592500D03*
X82683500Y-100942500D03*
X82683500Y-100292500D03*
X82683500Y-99642500D03*
X79583500Y-99642500D03*
X79583500Y-100292500D03*
X79583500Y-100942500D03*
X79583500Y-101592500D03*
%TD*%
D15*
%TO.C,C49*%
X152066600Y-93825000D03*
X152066600Y-92865000D03*
%TD*%
D11*
%TO.C,C13*%
X88138000Y-90147500D03*
X88138000Y-91107500D03*
%TD*%
D51*
%TO.C,U1*%
X131445000Y-100196000D03*
X131445000Y-101346000D03*
X131445000Y-102496000D03*
X132595000Y-100196000D03*
X132595000Y-101346000D03*
X132595000Y-102496000D03*
X133745000Y-100196000D03*
X133745000Y-101346000D03*
X133745000Y-102496000D03*
D52*
X130157500Y-99596000D03*
X130157500Y-100096000D03*
X130157500Y-100596000D03*
X130157500Y-101096000D03*
X130157500Y-101596000D03*
X130157500Y-102096000D03*
X130157500Y-102596000D03*
X130157500Y-103096000D03*
D53*
X130845000Y-103783500D03*
X131345000Y-103783500D03*
X131845000Y-103783500D03*
X132345000Y-103783500D03*
X132845000Y-103783500D03*
X133345000Y-103783500D03*
X133845000Y-103783500D03*
X134345000Y-103783500D03*
D52*
X135032500Y-103096000D03*
X135032500Y-102596000D03*
X135032500Y-102096000D03*
X135032500Y-101596000D03*
X135032500Y-101096000D03*
X135032500Y-100596000D03*
X135032500Y-100096000D03*
X135032500Y-99596000D03*
D53*
X134345000Y-98908500D03*
X133845000Y-98908500D03*
X133345000Y-98908500D03*
X132845000Y-98908500D03*
X132345000Y-98908500D03*
X131845000Y-98908500D03*
X131345000Y-98908500D03*
X130845000Y-98908500D03*
%TD*%
D11*
%TO.C,C26*%
X163318600Y-101374000D03*
X163318600Y-102334000D03*
%TD*%
D43*
%TO.C,D5*%
X93065500Y-102432000D03*
X94640500Y-102432000D03*
%TD*%
D54*
%TO.C,SW1*%
X119972303Y-115275000D03*
X124487899Y-115275000D03*
X119972303Y-117475000D03*
X124487899Y-117475000D03*
%TD*%
D23*
%TO.C,R8*%
X179832000Y-113284000D03*
X180852000Y-113284000D03*
%TD*%
D24*
%TO.C,Q1*%
X101702000Y-110441000D03*
X101702000Y-111441000D03*
X102992000Y-110941000D03*
%TD*%
D55*
%TO.C,U5*%
X155540600Y-98640000D03*
X154890600Y-98640000D03*
X154240600Y-98640000D03*
X153590600Y-98640000D03*
X152940600Y-98640000D03*
X152290600Y-98640000D03*
X151640600Y-98640000D03*
D56*
X150615600Y-99665000D03*
X150615600Y-100315000D03*
X150615600Y-100965000D03*
X150615600Y-101615000D03*
X150615600Y-102265000D03*
X150615600Y-102915000D03*
X150615600Y-103565000D03*
D55*
X151640600Y-104590000D03*
X152290600Y-104590000D03*
X152940600Y-104590000D03*
X153590600Y-104590000D03*
X154240600Y-104590000D03*
X154890600Y-104590000D03*
X155540600Y-104590000D03*
D56*
X156565600Y-103565000D03*
X156565600Y-102915000D03*
X156565600Y-102265000D03*
X156565600Y-101615000D03*
X156565600Y-100965000D03*
X156565600Y-100315000D03*
X156565600Y-99665000D03*
D57*
X153590600Y-101615000D03*
%TD*%
D11*
%TO.C,C27*%
X168548600Y-99342000D03*
X168548600Y-100302000D03*
%TD*%
%TO.C,C6*%
X127031500Y-104775000D03*
X127031500Y-105735000D03*
%TD*%
D17*
%TO.C,C23*%
X164258600Y-100330000D03*
X165218600Y-100330000D03*
%TD*%
D11*
%TO.C,C57*%
X142176500Y-114300000D03*
X142176500Y-115260000D03*
%TD*%
D18*
%TO.C,C33*%
X173981600Y-99273600D03*
X173021600Y-99273600D03*
%TD*%
%TO.C,C5*%
X127003500Y-102334000D03*
X126043500Y-102334000D03*
%TD*%
D58*
%TO.C,Y1*%
X145817600Y-95885000D03*
X150217600Y-95885000D03*
X150217600Y-93485000D03*
X145817600Y-93485000D03*
%TD*%
D28*
%TO.C,C54*%
X108331000Y-100597000D03*
X108331000Y-99047000D03*
%TD*%
D11*
%TO.C,C11*%
X90632000Y-91443500D03*
X90632000Y-92403500D03*
%TD*%
D21*
%TO.C,R23*%
X116968000Y-107766000D03*
X118618000Y-107766000D03*
%TD*%
D17*
%TO.C,C36*%
X181657600Y-101600000D03*
X182617600Y-101600000D03*
%TD*%
D10*
%TO.C,R1*%
X131953000Y-113157000D03*
X130933000Y-113157000D03*
%TD*%
D59*
%TO.C,U4*%
X95014000Y-94971500D03*
X95464000Y-94971500D03*
X95914000Y-94971500D03*
X96364000Y-94971500D03*
X96814000Y-94971500D03*
X97264000Y-94971500D03*
X97264000Y-91871500D03*
X96814000Y-91871500D03*
X96364000Y-91871500D03*
X95914000Y-91871500D03*
X95464000Y-91871500D03*
X95014000Y-91871500D03*
D60*
X96139000Y-93421500D03*
%TD*%
D18*
%TO.C,C35*%
X180120600Y-103505000D03*
X179160600Y-103505000D03*
%TD*%
D21*
%TO.C,R2*%
X98680000Y-95072500D03*
X100330000Y-95072500D03*
%TD*%
D12*
%TO.C,D8*%
X121691500Y-107766000D03*
X120116500Y-107766000D03*
%TD*%
D17*
%TO.C,C4*%
X136299000Y-103251000D03*
X137259000Y-103251000D03*
%TD*%
D12*
%TO.C,D11*%
X121691500Y-109290000D03*
X120116500Y-109290000D03*
%TD*%
D22*
%TO.C,R24*%
X97790000Y-107703000D03*
X97790000Y-109353000D03*
%TD*%
D17*
%TO.C,C18*%
X157747000Y-102282600D03*
X158707000Y-102282600D03*
%TD*%
M02*
