%TF.GenerationSoftware,KiCad,Pcbnew,7.0.5*%
%TF.CreationDate,2023-07-23T12:45:18-06:00*%
%TF.ProjectId,CAN-USB RF Module,43414e2d-5553-4422-9052-46204d6f6475,rev?*%
%TF.SameCoordinates,Original*%
%TF.FileFunction,Copper,L4,Bot*%
%TF.FilePolarity,Positive*%
%FSLAX46Y46*%
G04 Gerber Fmt 4.6, Leading zero omitted, Abs format (unit mm)*
G04 Created by KiCad (PCBNEW 7.0.5) date 2023-07-23 12:45:18*
%MOMM*%
%LPD*%
G01*
G04 APERTURE LIST*
G04 Aperture macros list*
%AMRoundRect*
0 Rectangle with rounded corners*
0 $1 Rounding radius*
0 $2 $3 $4 $5 $6 $7 $8 $9 X,Y pos of 4 corners*
0 Add a 4 corners polygon primitive as box body*
4,1,4,$2,$3,$4,$5,$6,$7,$8,$9,$2,$3,0*
0 Add four circle primitives for the rounded corners*
1,1,$1+$1,$2,$3*
1,1,$1+$1,$4,$5*
1,1,$1+$1,$6,$7*
1,1,$1+$1,$8,$9*
0 Add four rect primitives between the rounded corners*
20,1,$1+$1,$2,$3,$4,$5,0*
20,1,$1+$1,$4,$5,$6,$7,0*
20,1,$1+$1,$6,$7,$8,$9,0*
20,1,$1+$1,$8,$9,$2,$3,0*%
G04 Aperture macros list end*
%TA.AperFunction,ComponentPad*%
%ADD10R,1.000000X1.000000*%
%TD*%
%TA.AperFunction,ComponentPad*%
%ADD11O,1.000000X1.000000*%
%TD*%
%TA.AperFunction,ComponentPad*%
%ADD12C,4.000000*%
%TD*%
%TA.AperFunction,ComponentPad*%
%ADD13R,1.600000X1.600000*%
%TD*%
%TA.AperFunction,ComponentPad*%
%ADD14C,1.600000*%
%TD*%
%TA.AperFunction,ComponentPad*%
%ADD15O,0.890000X1.550000*%
%TD*%
%TA.AperFunction,ComponentPad*%
%ADD16O,1.250000X0.950000*%
%TD*%
%TA.AperFunction,ComponentPad*%
%ADD17RoundRect,0.250001X0.499999X0.499999X-0.499999X0.499999X-0.499999X-0.499999X0.499999X-0.499999X0*%
%TD*%
%TA.AperFunction,ComponentPad*%
%ADD18C,1.500000*%
%TD*%
%TA.AperFunction,ComponentPad*%
%ADD19C,3.410000*%
%TD*%
%TA.AperFunction,SMDPad,CuDef*%
%ADD20R,4.560000X1.000000*%
%TD*%
%TA.AperFunction,ComponentPad*%
%ADD21C,1.440000*%
%TD*%
%TA.AperFunction,ComponentPad*%
%ADD22R,1.700000X1.700000*%
%TD*%
%TA.AperFunction,ComponentPad*%
%ADD23O,1.700000X1.700000*%
%TD*%
%TA.AperFunction,ViaPad*%
%ADD24C,0.800000*%
%TD*%
%TA.AperFunction,ViaPad*%
%ADD25C,0.700000*%
%TD*%
%TA.AperFunction,Conductor*%
%ADD26C,0.250000*%
%TD*%
%TA.AperFunction,Conductor*%
%ADD27C,0.267200*%
%TD*%
G04 APERTURE END LIST*
D10*
%TO.P,J1,1,Pin_1*%
%TO.N,+5V*%
X110010000Y-110687000D03*
D11*
%TO.P,J1,2,Pin_2*%
%TO.N,/Power Regulator/5V*%
X108740000Y-110687000D03*
%TO.P,J1,3,Pin_3*%
%TO.N,/Power Regulator/12V*%
X110010000Y-109417000D03*
%TO.P,J1,4,Pin_4*%
%TO.N,/Power Regulator/FUSE_OUT*%
X108740000Y-109417000D03*
%TD*%
D12*
%TO.P,J7,0*%
%TO.N,N/C*%
X70381000Y-89771000D03*
X70381000Y-114771000D03*
D13*
%TO.P,J7,1,Pin_1*%
%TO.N,unconnected-(J7-Pin_1-Pad1)*%
X71801000Y-107811000D03*
D14*
%TO.P,J7,2,Pin_2*%
%TO.N,/CAN Tranciever/CD-*%
X71801000Y-105041000D03*
%TO.P,J7,3,Pin_3*%
%TO.N,unconnected-(J7-Pin_3-Pad3)*%
X71801000Y-102271000D03*
%TO.P,J7,4,Pin_4*%
%TO.N,unconnected-(J7-Pin_4-Pad4)*%
X71801000Y-99501000D03*
%TO.P,J7,5,Pin_5*%
%TO.N,unconnected-(J7-Pin_5-Pad5)*%
X71801000Y-96731000D03*
%TO.P,J7,6,Pin_6*%
%TO.N,unconnected-(J7-Pin_6-Pad6)*%
X68961000Y-106426000D03*
%TO.P,J7,7,Pin_7*%
%TO.N,/CAN Tranciever/CD+*%
X68961000Y-103656000D03*
%TO.P,J7,8,Pin_8*%
%TO.N,unconnected-(J7-Pin_8-Pad8)*%
X68961000Y-100886000D03*
%TO.P,J7,9,Pin_9*%
%TO.N,unconnected-(J7-Pin_9-Pad9)*%
X68961000Y-98116000D03*
%TD*%
D15*
%TO.P,J2,6,Shield*%
%TO.N,unconnected-(J2-Shield-Pad6)*%
X83296000Y-87597000D03*
D16*
X82296000Y-90297000D03*
X77296000Y-90297000D03*
D15*
X76296000Y-87597000D03*
%TD*%
D17*
%TO.P,J6,1,Pin_1*%
%TO.N,+12V*%
X85423000Y-111585000D03*
D18*
%TO.P,J6,2,Pin_2*%
%TO.N,GND*%
X82423000Y-111585000D03*
%TO.P,J6,3,Pin_3*%
%TO.N,unconnected-(J6-Pin_3-Pad3)*%
X79423000Y-111585000D03*
%TO.P,J6,4,Pin_4*%
%TO.N,+12V*%
X85423000Y-108585000D03*
%TO.P,J6,5,Pin_5*%
%TO.N,GND*%
X82423000Y-108585000D03*
%TO.P,J6,6,Pin_6*%
%TO.N,unconnected-(J6-Pin_6-Pad6)*%
X79423000Y-108585000D03*
D19*
%TO.P,J6,MP*%
%TO.N,N/C*%
X87573000Y-115905000D03*
X77273000Y-115905000D03*
%TD*%
D20*
%TO.P,J3,2,Ext*%
%TO.N,GND*%
X190359500Y-104240250D03*
X190359500Y-98700250D03*
%TD*%
D21*
%TO.P,RV1,1,1*%
%TO.N,unconnected-(RV1-Pad1)*%
X97437000Y-115132000D03*
%TO.P,RV1,2,2*%
%TO.N,Net-(R24-Pad2)*%
X94897000Y-112592000D03*
%TO.P,RV1,3,3*%
%TO.N,GND*%
X92357000Y-115132000D03*
%TD*%
D22*
%TO.P,J5,1,Pin_1*%
%TO.N,+3V3*%
X128905000Y-87884000D03*
D23*
%TO.P,J5,2,Pin_2*%
%TO.N,/DEBUG_SWDIO*%
X128905000Y-90424000D03*
%TO.P,J5,3,Pin_3*%
%TO.N,GND*%
X126365000Y-87884000D03*
%TO.P,J5,4,Pin_4*%
%TO.N,/DEBUG_SWCLK*%
X126365000Y-90424000D03*
%TO.P,J5,5,Pin_5*%
%TO.N,GND*%
X123825000Y-87884000D03*
%TO.P,J5,6,Pin_6*%
%TO.N,/DEBUG_SWO*%
X123825000Y-90424000D03*
%TO.P,J5,7,Pin_7*%
%TO.N,unconnected-(J5-Pin_7-Pad7)*%
X121285000Y-87884000D03*
%TO.P,J5,8,Pin_8*%
%TO.N,unconnected-(J5-Pin_8-Pad8)*%
X121285000Y-90424000D03*
%TO.P,J5,9,Pin_9*%
%TO.N,GND*%
X118745000Y-87884000D03*
%TO.P,J5,10,Pin_10*%
%TO.N,/NRST*%
X118745000Y-90424000D03*
%TD*%
D10*
%TO.P,JP2,1,A*%
%TO.N,VBUS_UP*%
X88265000Y-103321000D03*
D11*
%TO.P,JP2,2,C*%
%TO.N,/Power Regulator/FUSE_IN*%
X88265000Y-104591000D03*
%TO.P,JP2,3,B*%
%TO.N,+12V*%
X88265000Y-105861000D03*
%TD*%
D24*
%TO.N,GND*%
X142922600Y-88773000D03*
X94869000Y-108401000D03*
X116586000Y-105410000D03*
X125603000Y-102362000D03*
X90124000Y-93487500D03*
X154559000Y-112141000D03*
X152066600Y-101615000D03*
X142795600Y-110871000D03*
X186944000Y-112141000D03*
X147621600Y-112141000D03*
X182499000Y-88773000D03*
X101854000Y-106750000D03*
X175802600Y-99387000D03*
X175514000Y-88773000D03*
X118491000Y-102489000D03*
X142748000Y-109728000D03*
X113411000Y-102997000D03*
X158750000Y-112141000D03*
X144573600Y-97536000D03*
X120269000Y-102489000D03*
X154682800Y-95925400D03*
X155956000Y-112141000D03*
X174244000Y-112141000D03*
X103378000Y-106750000D03*
X151995600Y-92075000D03*
X90632000Y-90881500D03*
X105649000Y-110179000D03*
X161544000Y-112141000D03*
X147113600Y-93599000D03*
X135005210Y-104020062D03*
X161309600Y-107401600D03*
X137033000Y-88900000D03*
X92456000Y-102432000D03*
X153895400Y-95392000D03*
X172720000Y-112141000D03*
X154559000Y-88773000D03*
X171323000Y-112141000D03*
X192532000Y-108204000D03*
X116586000Y-103886000D03*
X109728000Y-103124000D03*
X116586000Y-102489000D03*
X175641000Y-112141000D03*
X111350506Y-112850688D03*
X185547000Y-112141000D03*
X188515600Y-88773000D03*
X192532000Y-96774000D03*
X153162000Y-112141000D03*
X124841000Y-88519000D03*
X161544000Y-88773000D03*
X101854000Y-104845000D03*
X190500000Y-88773000D03*
X129032000Y-97663000D03*
X192532000Y-90170000D03*
X186690000Y-88773000D03*
X178308000Y-88773000D03*
X178330800Y-99654600D03*
X78359000Y-91186000D03*
X131476500Y-100175000D03*
X81534000Y-100584000D03*
X142922600Y-94234000D03*
X131476500Y-102588000D03*
X155114600Y-103139000D03*
X96139000Y-93853000D03*
X157353000Y-88773000D03*
X120269000Y-103886000D03*
X185293000Y-88773000D03*
X153162000Y-88773000D03*
X122329000Y-110814000D03*
X105791000Y-108655000D03*
X116586000Y-100965000D03*
X192532000Y-109474000D03*
X142922600Y-96853400D03*
X176911000Y-88773000D03*
X163102600Y-98625000D03*
X85344000Y-100367000D03*
X93853000Y-107893000D03*
X146431000Y-112141000D03*
X145208600Y-112141000D03*
X147748600Y-88773000D03*
X143938600Y-88773000D03*
X118491000Y-105410000D03*
X164338000Y-112141000D03*
X160147000Y-112141000D03*
X179104600Y-101546000D03*
X155114600Y-100091000D03*
X155114600Y-101615000D03*
X188468000Y-112141000D03*
X142922600Y-92916400D03*
X145002200Y-88773000D03*
X142922600Y-91567000D03*
X182753000Y-112141000D03*
X119055101Y-115359000D03*
X152066600Y-100091000D03*
X109254845Y-99625547D03*
X164338000Y-88773000D03*
X178435000Y-112141000D03*
X189738000Y-112141000D03*
X148764600Y-112141000D03*
X96901000Y-88265000D03*
X132520500Y-101445000D03*
X185820600Y-102575600D03*
X168529000Y-88773000D03*
X157781600Y-97551000D03*
X90632000Y-96088500D03*
X192532000Y-91567000D03*
X122329000Y-109290000D03*
X167928600Y-99260000D03*
X179959000Y-112141000D03*
X142922600Y-98171000D03*
X158750000Y-88773000D03*
X171865600Y-98752000D03*
X116078000Y-116332000D03*
X162941000Y-88773000D03*
X131496500Y-101420500D03*
X125984000Y-88773000D03*
X93881000Y-115132000D03*
X162467600Y-102435000D03*
X133635500Y-102588000D03*
X147748600Y-103901000D03*
X181356000Y-112141000D03*
X118039101Y-116375000D03*
X153590600Y-101615000D03*
X105504499Y-112807001D03*
X165735000Y-88773000D03*
X174117000Y-88773000D03*
X120269000Y-105410000D03*
X136017000Y-87884000D03*
X132492500Y-102588000D03*
X153590600Y-103139000D03*
X179705000Y-88773000D03*
X114221997Y-111390999D03*
X120269000Y-100965000D03*
X127000000Y-106172000D03*
X119761000Y-88392000D03*
X184150000Y-112141000D03*
X169926000Y-88773000D03*
X118491000Y-103886000D03*
X80899000Y-101346000D03*
X151765000Y-112141000D03*
X95377000Y-93091000D03*
X192532000Y-88773000D03*
X172720000Y-88773000D03*
X80899000Y-99822000D03*
X137795000Y-103312213D03*
X177038000Y-112141000D03*
X160147000Y-88773000D03*
X165735000Y-112141000D03*
X81280000Y-98298000D03*
X159673600Y-99387000D03*
X152066600Y-103139000D03*
X192532000Y-110744000D03*
X157353000Y-112141000D03*
X103378000Y-104845000D03*
X161070600Y-103324000D03*
X111346499Y-114521001D03*
X130302000Y-98561500D03*
X133635500Y-100175000D03*
X183896000Y-88773000D03*
X171323000Y-88773000D03*
X192532000Y-92837000D03*
X191008000Y-112141000D03*
X142922600Y-95504000D03*
X125222000Y-106172000D03*
X153590600Y-100091000D03*
X179231600Y-104213000D03*
X110429999Y-114521001D03*
X99949000Y-108782000D03*
X192579600Y-106934000D03*
X118491000Y-100965000D03*
X149145600Y-88773000D03*
X142922600Y-90170000D03*
X146351600Y-88773000D03*
X138684000Y-104521000D03*
X169926000Y-112141000D03*
X165388600Y-102435000D03*
X96901000Y-93091000D03*
X192532000Y-112141000D03*
X167132000Y-88773000D03*
X151765000Y-88773000D03*
X98298000Y-102419000D03*
X103109000Y-110179000D03*
X148764600Y-95885000D03*
X184550600Y-102588000D03*
X168529000Y-112141000D03*
X132492500Y-100175000D03*
X192532000Y-94234000D03*
X107343000Y-101543000D03*
X192532000Y-95504000D03*
X181102000Y-88773000D03*
X162960600Y-107401600D03*
X143938600Y-112141000D03*
X142795600Y-112141000D03*
X110429999Y-112870001D03*
X167132000Y-112141000D03*
X112715999Y-111981001D03*
X133655500Y-101420500D03*
X162941000Y-112141000D03*
X107889963Y-99569936D03*
X150415600Y-88773000D03*
X110859399Y-113718000D03*
D25*
%TO.N,/NRST*%
X124567250Y-100984750D03*
X124460000Y-116840000D03*
X123152500Y-106426000D03*
X117983000Y-94488000D03*
X120332500Y-96710500D03*
D24*
%TO.N,+3V3*%
X113919000Y-116205000D03*
X155609367Y-96704619D03*
X97409000Y-90373500D03*
X141224000Y-113665000D03*
X137003943Y-104151153D03*
X116967000Y-111506000D03*
X104140000Y-95199500D03*
X144145000Y-113792000D03*
X133096000Y-114300000D03*
X124742564Y-104939162D03*
X79756000Y-97663000D03*
X149225000Y-104521000D03*
X133858000Y-88646000D03*
X128253870Y-98843984D03*
X180867600Y-99654600D03*
X157734000Y-104140000D03*
%TO.N,+5V*%
X111379000Y-109125500D03*
X109855000Y-101600000D03*
X83820000Y-100890500D03*
D25*
%TO.N,/USB Interface/USB_D-*%
X85979000Y-94361000D03*
X84642100Y-93024100D03*
%TO.N,Net-(D8-K)*%
X122329000Y-107766000D03*
D24*
X104084185Y-109727377D03*
D25*
%TO.N,/BOOT0*%
X140792500Y-109132500D03*
X129921000Y-94908500D03*
%TO.N,/UART2_USB_CTS*%
X128484500Y-104735500D03*
X95123000Y-90812917D03*
%TO.N,/UART2_USB_RTS*%
X128524000Y-106045000D03*
X115697000Y-95099000D03*
%TO.N,/UART2_USB_TX*%
X122364500Y-96329500D03*
X130048000Y-103886000D03*
%TO.N,/UART2_USB_RX*%
X96011500Y-90170000D03*
X130556000Y-104902000D03*
%TO.N,/SPI1_MISO*%
X150923600Y-106314000D03*
X152053711Y-107254999D03*
%TO.N,/SPI1_MOSI*%
X153566100Y-106707100D03*
X151050600Y-105298000D03*
%TO.N,/DIO0*%
X145904487Y-103589310D03*
X149352000Y-99640500D03*
%TO.N,/DIO1*%
X145004985Y-103589501D03*
X147768306Y-100270306D03*
%TO.N,/CAN_TX*%
X117094000Y-98385500D03*
X83312000Y-101727000D03*
%TO.N,/SW_RXTX*%
X133468330Y-96290129D03*
X179199000Y-113284000D03*
X181121600Y-105156000D03*
%TO.N,/SX_RESET*%
X140970000Y-96520000D03*
X132682507Y-95852423D03*
%TO.N,/DIO2*%
X138056150Y-94299779D03*
X131748294Y-95135111D03*
%TO.N,/DIO3*%
X130834092Y-95883802D03*
X136525000Y-93432500D03*
%TO.N,/LoRa Tranciever/RXTX_SX*%
X179364856Y-105958856D03*
X154915100Y-105664000D03*
%TO.N,/DEBUG_SWO*%
X124841000Y-89662000D03*
X134185085Y-96833606D03*
%TO.N,/DEBUG_SWCLK*%
X114173000Y-88265000D03*
X124206000Y-91941146D03*
X135128000Y-98611500D03*
%TO.N,/DEBUG_SWDIO*%
X114862642Y-89960808D03*
X127919358Y-95854642D03*
%TO.N,/Power Regulator/FUSE_IN*%
X104849755Y-108779947D03*
X116360000Y-107766000D03*
D24*
%TO.N,VBUS_UP*%
X81198317Y-91205128D03*
X87249000Y-91186000D03*
X81026000Y-89154000D03*
D25*
%TO.N,Net-(U1-PA10)*%
X138291580Y-100861737D03*
X128717500Y-107696000D03*
%TO.N,Net-(U1-PA9)*%
X128717500Y-109220000D03*
X138336135Y-101760135D03*
%TO.N,Net-(U1-PA8)*%
X138938000Y-102489000D03*
X128717500Y-110744000D03*
%TO.N,/DIO4*%
X139152500Y-97312702D03*
X134747000Y-97536000D03*
%TO.N,/DIO5*%
X139443500Y-100330000D03*
X127260169Y-99528500D03*
%TD*%
D26*
%TO.N,/NRST*%
X118110000Y-94488000D02*
X117983000Y-94488000D01*
X123063000Y-106515500D02*
X123063000Y-115443000D01*
X123063000Y-115443000D02*
X124460000Y-116840000D01*
X120332500Y-96710500D02*
X124567250Y-100945250D01*
X120332500Y-96710500D02*
X118110000Y-94488000D01*
X123152500Y-106426000D02*
X123063000Y-106515500D01*
X124567250Y-100945250D02*
X124567250Y-100984750D01*
D27*
%TO.N,/USB Interface/USB_D-*%
X84642100Y-93024100D02*
X85979000Y-94361000D01*
D26*
%TO.N,Net-(D8-K)*%
X104356615Y-109454947D02*
X104084185Y-109727377D01*
X115556488Y-109454500D02*
X114502988Y-108401000D01*
X106016358Y-109454947D02*
X104356615Y-109454947D01*
X107070305Y-108401000D02*
X106016358Y-109454947D01*
X122329000Y-107766000D02*
X120640500Y-109454500D01*
X120640500Y-109454500D02*
X115556488Y-109454500D01*
X114502988Y-108401000D02*
X107070305Y-108401000D01*
%TO.N,/BOOT0*%
X138350500Y-92757500D02*
X132072000Y-92757500D01*
X141732000Y-108193000D02*
X141732000Y-96139000D01*
X141732000Y-96139000D02*
X138350500Y-92757500D01*
X140792500Y-109132500D02*
X141732000Y-108193000D01*
X132072000Y-92757500D02*
X129921000Y-94908500D01*
%TO.N,/UART2_USB_CTS*%
X95765917Y-90812917D02*
X99377500Y-94424500D01*
X95123000Y-90812917D02*
X95765917Y-90812917D01*
X126833500Y-104735500D02*
X128484500Y-104735500D01*
X116522500Y-94424500D02*
X126833500Y-104735500D01*
X99377500Y-94424500D02*
X116522500Y-94424500D01*
%TO.N,/UART2_USB_RTS*%
X115927000Y-95099000D02*
X126275000Y-105447000D01*
X127926000Y-105447000D02*
X128524000Y-106045000D01*
X115697000Y-95099000D02*
X115927000Y-95099000D01*
X126275000Y-105447000D02*
X127926000Y-105447000D01*
%TO.N,/UART2_USB_TX*%
X129921000Y-103886000D02*
X130048000Y-103886000D01*
X122364500Y-96329500D02*
X129921000Y-103886000D01*
%TO.N,/UART2_USB_RX*%
X118269798Y-93566202D02*
X129605595Y-104902000D01*
X99407702Y-93566202D02*
X118269798Y-93566202D01*
X129605595Y-104902000D02*
X130556000Y-104902000D01*
X96011500Y-90170000D02*
X99407702Y-93566202D01*
%TO.N,/SPI1_MISO*%
X152053711Y-107254999D02*
X151864599Y-107254999D01*
X151864599Y-107254999D02*
X150923600Y-106314000D01*
%TO.N,/SPI1_MOSI*%
X152459700Y-106707100D02*
X151050600Y-105298000D01*
X153566100Y-106707100D02*
X152459700Y-106707100D01*
%TO.N,/DIO0*%
X145904487Y-103088013D02*
X145904487Y-103589310D01*
X149352000Y-99640500D02*
X145904487Y-103088013D01*
%TO.N,/DIO1*%
X145004985Y-103033627D02*
X147768306Y-100270306D01*
X145004985Y-103589501D02*
X145004985Y-103033627D01*
%TO.N,/CAN_TX*%
X85852000Y-101727000D02*
X86106000Y-101473000D01*
X107227500Y-98385500D02*
X117094000Y-98385500D01*
X86106000Y-101473000D02*
X104140000Y-101473000D01*
X83312000Y-101727000D02*
X85852000Y-101727000D01*
X104140000Y-101473000D02*
X107227500Y-98385500D01*
%TO.N,/SW_RXTX*%
X140118000Y-113829000D02*
X141351000Y-115062000D01*
X178308000Y-115062000D02*
X179199000Y-114171000D01*
X179197000Y-107080600D02*
X181121600Y-105156000D01*
X140118000Y-97319000D02*
X140118000Y-113829000D01*
X141351000Y-115062000D02*
X178308000Y-115062000D01*
X179197000Y-113282000D02*
X179197000Y-107080600D01*
X134254459Y-95504000D02*
X138303000Y-95504000D01*
X138303000Y-95504000D02*
X140118000Y-97319000D01*
X133468330Y-96290129D02*
X134254459Y-95504000D01*
X179199000Y-114171000D02*
X179199000Y-113284000D01*
X179199000Y-113284000D02*
X179197000Y-113282000D01*
%TO.N,/SX_RESET*%
X140970000Y-96520000D02*
X139446000Y-94996000D01*
X139446000Y-94996000D02*
X133538930Y-94996000D01*
X133538930Y-94996000D02*
X132682507Y-95852423D01*
%TO.N,/DIO2*%
X138056150Y-94299779D02*
X137863371Y-94107000D01*
X132776405Y-94107000D02*
X131748294Y-95135111D01*
X137863371Y-94107000D02*
X132776405Y-94107000D01*
%TO.N,/DIO3*%
X132496310Y-93432500D02*
X130834092Y-95094718D01*
X136525000Y-93432500D02*
X132496310Y-93432500D01*
X130834092Y-95094718D02*
X130834092Y-95883802D01*
%TO.N,/LoRa Tranciever/RXTX_SX*%
X176230712Y-109093000D02*
X179364856Y-105958856D01*
X158344100Y-109093000D02*
X176230712Y-109093000D01*
X154915100Y-105664000D02*
X158344100Y-109093000D01*
%TO.N,/DEBUG_SWO*%
X125190000Y-90011000D02*
X125190000Y-91535000D01*
X125190000Y-91535000D02*
X131318000Y-97663000D01*
X131318000Y-97663000D02*
X133355691Y-97663000D01*
X124841000Y-89662000D02*
X125190000Y-90011000D01*
X133355691Y-97663000D02*
X134185085Y-96833606D01*
%TO.N,/DEBUG_SWCLK*%
X124206000Y-91941146D02*
X124959750Y-91941146D01*
X124206000Y-91941146D02*
X118172644Y-91941146D01*
X131630104Y-98611500D02*
X135128000Y-98611500D01*
X118172644Y-91941146D02*
X114496498Y-88265000D01*
X114496498Y-88265000D02*
X114173000Y-88265000D01*
X124959750Y-91941146D02*
X131630104Y-98611500D01*
%TO.N,/DEBUG_SWDIO*%
X114862642Y-89960808D02*
X115487808Y-89960808D01*
X115487808Y-89960808D02*
X118364000Y-92837000D01*
X114922450Y-89901000D02*
X114862642Y-89960808D01*
X118364000Y-92837000D02*
X124968000Y-92837000D01*
X127919358Y-95788358D02*
X124968000Y-92837000D01*
X127919358Y-95854642D02*
X127919358Y-95788358D01*
%TO.N,/Power Regulator/FUSE_IN*%
X104849755Y-108570940D02*
X104849755Y-108779947D01*
X116233000Y-107893000D02*
X105527695Y-107893000D01*
X105527695Y-107893000D02*
X104849755Y-108570940D01*
X116360000Y-107766000D02*
X116233000Y-107893000D01*
%TO.N,Net-(U1-PA10)*%
X138291580Y-100861737D02*
X138279938Y-100861737D01*
X137541675Y-101600000D02*
X136398000Y-101600000D01*
X138279938Y-100861737D02*
X137541675Y-101600000D01*
X136398000Y-101600000D02*
X130302000Y-107696000D01*
X130302000Y-107696000D02*
X128717500Y-107696000D01*
%TO.N,Net-(U1-PA9)*%
X130861908Y-109220000D02*
X128717500Y-109220000D01*
X138321773Y-101760135D02*
X130861908Y-109220000D01*
X138336135Y-101760135D02*
X138321773Y-101760135D01*
%TO.N,Net-(U1-PA8)*%
X131435695Y-110744000D02*
X128717500Y-110744000D01*
X138938000Y-103241695D02*
X131435695Y-110744000D01*
X138938000Y-102489000D02*
X138938000Y-103241695D01*
%TO.N,/DIO4*%
X134747000Y-97536000D02*
X135041000Y-97242000D01*
X139081798Y-97242000D02*
X139152500Y-97312702D01*
X135041000Y-97242000D02*
X139081798Y-97242000D01*
%TO.N,/DIO5*%
X138563500Y-99450000D02*
X139443500Y-100330000D01*
X127260169Y-99528500D02*
X127680669Y-99949000D01*
X130302000Y-99949000D02*
X130801000Y-99450000D01*
X127680669Y-99949000D02*
X130302000Y-99949000D01*
X130801000Y-99450000D02*
X138563500Y-99450000D01*
%TD*%
M02*
