%TF.GenerationSoftware,KiCad,Pcbnew,7.0.5*%
%TF.CreationDate,2023-07-23T12:45:19-06:00*%
%TF.ProjectId,CAN-USB RF Module,43414e2d-5553-4422-9052-46204d6f6475,rev?*%
%TF.SameCoordinates,Original*%
%TF.FileFunction,Soldermask,Bot*%
%TF.FilePolarity,Negative*%
%FSLAX46Y46*%
G04 Gerber Fmt 4.6, Leading zero omitted, Abs format (unit mm)*
G04 Created by KiCad (PCBNEW 7.0.5) date 2023-07-23 12:45:19*
%MOMM*%
%LPD*%
G01*
G04 APERTURE LIST*
G04 Aperture macros list*
%AMRoundRect*
0 Rectangle with rounded corners*
0 $1 Rounding radius*
0 $2 $3 $4 $5 $6 $7 $8 $9 X,Y pos of 4 corners*
0 Add a 4 corners polygon primitive as box body*
4,1,4,$2,$3,$4,$5,$6,$7,$8,$9,$2,$3,0*
0 Add four circle primitives for the rounded corners*
1,1,$1+$1,$2,$3*
1,1,$1+$1,$4,$5*
1,1,$1+$1,$6,$7*
1,1,$1+$1,$8,$9*
0 Add four rect primitives between the rounded corners*
20,1,$1+$1,$2,$3,$4,$5,0*
20,1,$1+$1,$4,$5,$6,$7,0*
20,1,$1+$1,$6,$7,$8,$9,0*
20,1,$1+$1,$8,$9,$2,$3,0*%
G04 Aperture macros list end*
%ADD10R,1.000000X1.000000*%
%ADD11O,1.000000X1.000000*%
%ADD12C,4.000000*%
%ADD13R,1.600000X1.600000*%
%ADD14C,1.600000*%
%ADD15O,0.890000X1.550000*%
%ADD16O,1.250000X0.950000*%
%ADD17C,0.900000*%
%ADD18RoundRect,0.250001X0.499999X0.499999X-0.499999X0.499999X-0.499999X-0.499999X0.499999X-0.499999X0*%
%ADD19C,1.500000*%
%ADD20C,3.410000*%
%ADD21R,4.560000X1.000000*%
%ADD22C,1.440000*%
%ADD23R,1.700000X1.700000*%
%ADD24O,1.700000X1.700000*%
G04 APERTURE END LIST*
D10*
%TO.C,J1*%
X110010000Y-110687000D03*
D11*
X108740000Y-110687000D03*
X110010000Y-109417000D03*
X108740000Y-109417000D03*
%TD*%
D12*
%TO.C,J7*%
X70381000Y-89771000D03*
X70381000Y-114771000D03*
D13*
X71801000Y-107811000D03*
D14*
X71801000Y-105041000D03*
X71801000Y-102271000D03*
X71801000Y-99501000D03*
X71801000Y-96731000D03*
X68961000Y-106426000D03*
X68961000Y-103656000D03*
X68961000Y-100886000D03*
X68961000Y-98116000D03*
%TD*%
D15*
%TO.C,J2*%
X83296000Y-87597000D03*
D16*
X82296000Y-90297000D03*
X77296000Y-90297000D03*
D15*
X76296000Y-87597000D03*
%TD*%
D17*
%TO.C,SW2*%
X128675000Y-116408000D03*
X131675000Y-116408000D03*
%TD*%
D18*
%TO.C,J6*%
X85423000Y-111585000D03*
D19*
X82423000Y-111585000D03*
X79423000Y-111585000D03*
X85423000Y-108585000D03*
X82423000Y-108585000D03*
X79423000Y-108585000D03*
D20*
X87573000Y-115905000D03*
X77273000Y-115905000D03*
%TD*%
D21*
%TO.C,J3*%
X190359500Y-104240250D03*
X190359500Y-98700250D03*
%TD*%
D22*
%TO.C,RV1*%
X97437000Y-115132000D03*
X94897000Y-112592000D03*
X92357000Y-115132000D03*
%TD*%
D23*
%TO.C,J5*%
X128905000Y-87884000D03*
D24*
X128905000Y-90424000D03*
X126365000Y-87884000D03*
X126365000Y-90424000D03*
X123825000Y-87884000D03*
X123825000Y-90424000D03*
X121285000Y-87884000D03*
X121285000Y-90424000D03*
X118745000Y-87884000D03*
X118745000Y-90424000D03*
%TD*%
D10*
%TO.C,JP2*%
X88265000Y-103321000D03*
D11*
X88265000Y-104591000D03*
X88265000Y-105861000D03*
%TD*%
M02*
