%TF.GenerationSoftware,KiCad,Pcbnew,7.0.5*%
%TF.CreationDate,2023-07-23T12:45:19-06:00*%
%TF.ProjectId,CAN-USB RF Module,43414e2d-5553-4422-9052-46204d6f6475,rev?*%
%TF.SameCoordinates,Original*%
%TF.FileFunction,Legend,Bot*%
%TF.FilePolarity,Positive*%
%FSLAX46Y46*%
G04 Gerber Fmt 4.6, Leading zero omitted, Abs format (unit mm)*
G04 Created by KiCad (PCBNEW 7.0.5) date 2023-07-23 12:45:19*
%MOMM*%
%LPD*%
G01*
G04 APERTURE LIST*
%ADD10C,0.300000*%
%ADD11C,0.150000*%
G04 APERTURE END LIST*
D10*
G36*
X155564777Y-116157542D02*
G01*
X155371350Y-116157542D01*
X155341518Y-116152042D01*
X155328095Y-116157542D01*
X155178758Y-116157542D01*
X155089344Y-116112835D01*
X155052339Y-116075830D01*
X155007634Y-115986417D01*
X155007634Y-115842951D01*
X155052340Y-115753538D01*
X155089344Y-115716534D01*
X155178758Y-115671828D01*
X155564777Y-115671828D01*
X155564777Y-116157542D01*
G37*
G36*
X148268781Y-115716535D02*
G01*
X148305785Y-115753539D01*
X148358962Y-115859893D01*
X148421920Y-116111724D01*
X148421920Y-116431935D01*
X148358964Y-116683758D01*
X148305785Y-116790116D01*
X148268780Y-116827122D01*
X148179368Y-116871828D01*
X148107330Y-116871828D01*
X148017915Y-116827120D01*
X147980913Y-116790118D01*
X147927734Y-116683762D01*
X147864777Y-116431934D01*
X147864777Y-116111722D01*
X147927732Y-115859899D01*
X147980913Y-115753538D01*
X148017917Y-115716534D01*
X148107330Y-115671828D01*
X148179367Y-115671828D01*
X148268781Y-115716535D01*
G37*
G36*
X154102973Y-116205060D02*
G01*
X154136205Y-116271524D01*
X154136205Y-116338857D01*
X153728975Y-116257411D01*
X153755151Y-116205059D01*
X153821615Y-116171828D01*
X154036509Y-116171828D01*
X154102973Y-116205060D01*
G37*
G36*
X158031544Y-116205060D02*
G01*
X158064776Y-116271524D01*
X158064776Y-116338857D01*
X157657546Y-116257411D01*
X157683722Y-116205059D01*
X157750186Y-116171828D01*
X157965080Y-116171828D01*
X158031544Y-116205060D01*
G37*
G36*
X161483066Y-116216535D02*
G01*
X161520069Y-116253538D01*
X161564776Y-116342952D01*
X161564776Y-116700703D01*
X161520069Y-116790117D01*
X161483064Y-116827122D01*
X161393652Y-116871828D01*
X161178758Y-116871828D01*
X161150491Y-116857694D01*
X161150491Y-116185961D01*
X161178758Y-116171828D01*
X161393651Y-116171828D01*
X161483066Y-116216535D01*
G37*
G36*
X162840209Y-116216535D02*
G01*
X162877212Y-116253538D01*
X162921919Y-116342952D01*
X162921919Y-116700704D01*
X162877212Y-116790117D01*
X162840207Y-116827122D01*
X162750795Y-116871828D01*
X162607329Y-116871828D01*
X162517914Y-116827120D01*
X162480912Y-116790118D01*
X162436205Y-116700704D01*
X162436205Y-116342953D01*
X162480911Y-116253539D01*
X162517916Y-116216534D01*
X162607329Y-116171828D01*
X162750794Y-116171828D01*
X162840209Y-116216535D01*
G37*
G36*
X169960115Y-116205060D02*
G01*
X169993347Y-116271524D01*
X169993347Y-116338857D01*
X169586117Y-116257411D01*
X169612293Y-116205059D01*
X169678757Y-116171828D01*
X169893651Y-116171828D01*
X169960115Y-116205060D01*
G37*
G36*
X173245829Y-116205060D02*
G01*
X173279061Y-116271524D01*
X173279061Y-116338857D01*
X172871831Y-116257411D01*
X172898007Y-116205059D01*
X172964471Y-116171828D01*
X173179365Y-116171828D01*
X173245829Y-116205060D01*
G37*
G36*
X175317257Y-116205060D02*
G01*
X175350488Y-116271524D01*
X175350489Y-116338857D01*
X174943259Y-116257411D01*
X174969435Y-116205059D01*
X175035899Y-116171828D01*
X175250793Y-116171828D01*
X175317257Y-116205060D01*
G37*
G36*
X179888685Y-116633631D02*
G01*
X179921917Y-116700095D01*
X179921917Y-116772132D01*
X179888685Y-116838596D01*
X179822222Y-116871828D01*
X179535899Y-116871828D01*
X179507632Y-116857694D01*
X179507632Y-116604095D01*
X179517270Y-116605830D01*
X179530362Y-116600400D01*
X179822222Y-116600400D01*
X179888685Y-116633631D01*
G37*
G36*
X182697350Y-116216535D02*
G01*
X182734353Y-116253538D01*
X182779060Y-116342952D01*
X182779060Y-116700703D01*
X182734353Y-116790117D01*
X182697348Y-116827122D01*
X182607936Y-116871828D01*
X182464470Y-116871828D01*
X182375055Y-116827120D01*
X182338053Y-116790118D01*
X182293346Y-116700704D01*
X182293346Y-116342952D01*
X182338053Y-116253538D01*
X182375057Y-116216534D01*
X182464470Y-116171828D01*
X182607935Y-116171828D01*
X182697350Y-116216535D01*
G37*
G36*
X186719286Y-117885286D02*
G01*
X146512146Y-117885286D01*
X146512146Y-116444052D01*
X147558573Y-116444052D01*
X147564777Y-116468867D01*
X147564777Y-116471968D01*
X147569995Y-116489739D01*
X147634204Y-116746574D01*
X147632345Y-116763802D01*
X147644678Y-116788469D01*
X147645916Y-116793418D01*
X147654290Y-116807692D01*
X147715060Y-116929230D01*
X147720425Y-116953892D01*
X147749631Y-116983098D01*
X147777802Y-117013384D01*
X147780642Y-117014110D01*
X147809697Y-117043166D01*
X147822587Y-117064867D01*
X147859545Y-117083346D01*
X147895831Y-117103160D01*
X147898755Y-117102950D01*
X147997614Y-117152380D01*
X148027876Y-117171828D01*
X148058528Y-117171828D01*
X148088702Y-117177258D01*
X148101794Y-117171828D01*
X148206704Y-117171828D01*
X148242464Y-117175689D01*
X148269879Y-117161981D01*
X148299297Y-117153344D01*
X148308578Y-117142632D01*
X148407897Y-117092974D01*
X148432558Y-117087609D01*
X148461756Y-117058410D01*
X148492048Y-117030234D01*
X148492774Y-117027390D01*
X148521827Y-116998337D01*
X148543530Y-116985448D01*
X148562017Y-116948473D01*
X148567054Y-116939248D01*
X148987414Y-116939248D01*
X148994495Y-116971800D01*
X148996873Y-117005032D01*
X149003713Y-117014170D01*
X149006140Y-117025323D01*
X149029692Y-117048875D01*
X149049662Y-117075552D01*
X149060359Y-117079542D01*
X149081639Y-117100820D01*
X149083262Y-117106348D01*
X149104359Y-117124629D01*
X149121091Y-117146980D01*
X149137004Y-117152915D01*
X149149835Y-117164033D01*
X149166642Y-117166449D01*
X149181548Y-117174589D01*
X149192931Y-117173774D01*
X149203625Y-117177763D01*
X149220218Y-117174153D01*
X149237027Y-117176570D01*
X149252476Y-117169514D01*
X149269411Y-117168303D01*
X149278546Y-117161464D01*
X149289700Y-117159038D01*
X149301706Y-117147031D01*
X149317154Y-117139977D01*
X149326335Y-117125690D01*
X149339930Y-117115514D01*
X149343918Y-117104819D01*
X149384685Y-117064052D01*
X149411357Y-117044087D01*
X149411361Y-117044077D01*
X149702892Y-117044077D01*
X149739485Y-117124204D01*
X149813590Y-117171828D01*
X150275475Y-117171828D01*
X150308455Y-117176570D01*
X150318838Y-117171828D01*
X150736345Y-117171828D01*
X150799297Y-117153344D01*
X150856982Y-117086771D01*
X150869519Y-116999579D01*
X150832926Y-116919452D01*
X150758821Y-116871828D01*
X150436206Y-116871828D01*
X150436206Y-115955389D01*
X150452553Y-115971736D01*
X150465443Y-115993438D01*
X150502413Y-116011923D01*
X150538689Y-116031731D01*
X150541611Y-116031522D01*
X150666985Y-116094209D01*
X150731558Y-116105830D01*
X150812925Y-116072083D01*
X150841561Y-116030800D01*
X152201559Y-116030800D01*
X152563276Y-117043609D01*
X152562496Y-117057190D01*
X152577834Y-117084369D01*
X152580770Y-117092590D01*
X152588382Y-117103060D01*
X152605789Y-117133906D01*
X152613932Y-117138206D01*
X152619350Y-117145658D01*
X152652362Y-117158499D01*
X152683684Y-117175038D01*
X152692863Y-117174252D01*
X152701446Y-117177591D01*
X152736153Y-117170547D01*
X152771451Y-117167527D01*
X152778747Y-117161903D01*
X152787775Y-117160072D01*
X152813170Y-117135376D01*
X152841225Y-117113757D01*
X152844322Y-117105083D01*
X152850927Y-117098661D01*
X152858939Y-117064156D01*
X153106694Y-116370441D01*
X153415820Y-116370441D01*
X153421920Y-116396375D01*
X153421920Y-116400539D01*
X153426841Y-116417300D01*
X153435988Y-116456188D01*
X153439160Y-116459255D01*
X153440404Y-116463491D01*
X153470601Y-116489656D01*
X153499314Y-116517420D01*
X153503641Y-116518285D01*
X153506977Y-116521176D01*
X153546529Y-116526863D01*
X154136205Y-116644798D01*
X154136205Y-116772132D01*
X154102973Y-116838596D01*
X154036510Y-116871828D01*
X153821615Y-116871828D01*
X153691139Y-116806590D01*
X153626566Y-116794970D01*
X153545199Y-116828717D01*
X153494992Y-116901098D01*
X153491888Y-116989130D01*
X153536872Y-117064867D01*
X153711899Y-117152380D01*
X153742161Y-117171828D01*
X153772813Y-117171828D01*
X153802987Y-117177258D01*
X153816079Y-117171828D01*
X154063844Y-117171828D01*
X154099607Y-117175689D01*
X154127021Y-117161981D01*
X154156440Y-117153344D01*
X154165721Y-117142632D01*
X154247680Y-117101653D01*
X154253508Y-117101859D01*
X154286712Y-117082137D01*
X154301150Y-117074919D01*
X154305183Y-117071166D01*
X154329245Y-117056876D01*
X154336807Y-117041751D01*
X154349190Y-117030233D01*
X154352919Y-117015650D01*
X154701423Y-117015650D01*
X154722881Y-117101085D01*
X154787122Y-117161357D01*
X154873750Y-117177328D01*
X154955261Y-117143930D01*
X155435732Y-116457542D01*
X155564777Y-116457542D01*
X155564777Y-117043396D01*
X155583261Y-117106348D01*
X155649834Y-117164033D01*
X155737026Y-117176570D01*
X155817153Y-117139977D01*
X155864777Y-117065872D01*
X155864777Y-116370441D01*
X157344391Y-116370441D01*
X157350491Y-116396375D01*
X157350491Y-116400539D01*
X157355412Y-116417300D01*
X157364559Y-116456188D01*
X157367731Y-116459255D01*
X157368975Y-116463491D01*
X157399172Y-116489656D01*
X157427885Y-116517420D01*
X157432212Y-116518285D01*
X157435548Y-116521176D01*
X157475100Y-116526863D01*
X158064776Y-116644798D01*
X158064776Y-116772132D01*
X158031544Y-116838596D01*
X157965081Y-116871828D01*
X157750186Y-116871828D01*
X157619710Y-116806590D01*
X157555137Y-116794970D01*
X157473770Y-116828717D01*
X157423563Y-116901098D01*
X157420459Y-116989130D01*
X157465443Y-117064867D01*
X157640470Y-117152380D01*
X157670732Y-117171828D01*
X157701384Y-117171828D01*
X157731558Y-117177258D01*
X157744650Y-117171828D01*
X157992415Y-117171828D01*
X158028178Y-117175689D01*
X158055592Y-117161981D01*
X158085011Y-117153344D01*
X158094292Y-117142632D01*
X158176251Y-117101653D01*
X158182079Y-117101859D01*
X158215283Y-117082137D01*
X158229721Y-117074919D01*
X158233754Y-117071166D01*
X158257816Y-117056876D01*
X158265378Y-117041751D01*
X158277761Y-117030233D01*
X158278501Y-117027337D01*
X158558541Y-117027337D01*
X158586320Y-117110930D01*
X158654884Y-117166234D01*
X158742463Y-117175689D01*
X158890534Y-117101654D01*
X158896363Y-117101860D01*
X158929567Y-117082137D01*
X158944006Y-117074919D01*
X158948040Y-117071166D01*
X158972100Y-117056876D01*
X158979661Y-117041752D01*
X158992046Y-117030233D01*
X158998980Y-117003115D01*
X159059616Y-116881844D01*
X159068631Y-116867817D01*
X159487413Y-116867817D01*
X159493348Y-116895098D01*
X159493348Y-117043396D01*
X159511832Y-117106348D01*
X159578405Y-117164033D01*
X159665597Y-117176570D01*
X159745724Y-117139977D01*
X159748835Y-117135134D01*
X159783327Y-117152380D01*
X159813589Y-117171828D01*
X159844241Y-117171828D01*
X159874415Y-117177258D01*
X159887507Y-117171828D01*
X160063843Y-117171828D01*
X160099606Y-117175689D01*
X160127020Y-117161981D01*
X160156439Y-117153344D01*
X160165720Y-117142632D01*
X160247677Y-117101654D01*
X160253506Y-117101860D01*
X160286710Y-117082137D01*
X160301149Y-117074919D01*
X160305183Y-117071166D01*
X160329243Y-117056876D01*
X160336804Y-117041752D01*
X160349189Y-117030233D01*
X160356123Y-117003115D01*
X160416759Y-116881844D01*
X160436205Y-116851586D01*
X160436205Y-116820935D01*
X160441635Y-116790761D01*
X160436205Y-116777668D01*
X160436205Y-116098767D01*
X160844256Y-116098767D01*
X160850491Y-116117528D01*
X160850491Y-116947723D01*
X160849031Y-116989130D01*
X160850491Y-116991588D01*
X160850491Y-117043396D01*
X160868975Y-117106348D01*
X160935548Y-117164033D01*
X161022740Y-117176570D01*
X161071811Y-117154159D01*
X161099304Y-117171828D01*
X161129956Y-117171828D01*
X161160130Y-117177258D01*
X161173222Y-117171828D01*
X161420986Y-117171828D01*
X161456749Y-117175689D01*
X161484163Y-117161981D01*
X161513582Y-117153344D01*
X161522863Y-117142632D01*
X161622179Y-117092974D01*
X161646841Y-117087610D01*
X161676052Y-117058398D01*
X161706332Y-117030233D01*
X161707058Y-117027392D01*
X161736115Y-116998335D01*
X161757815Y-116985447D01*
X161776289Y-116948497D01*
X161796109Y-116912202D01*
X161795899Y-116909277D01*
X161845328Y-116810419D01*
X161864776Y-116780158D01*
X161864776Y-116749506D01*
X161870206Y-116719332D01*
X161864776Y-116706239D01*
X161864776Y-116324323D01*
X162130775Y-116324323D01*
X162136205Y-116337415D01*
X162136205Y-116728038D01*
X162132344Y-116763802D01*
X162146051Y-116791216D01*
X162154689Y-116820634D01*
X162165401Y-116829916D01*
X162215059Y-116929230D01*
X162220424Y-116953892D01*
X162249630Y-116983098D01*
X162277801Y-117013384D01*
X162280641Y-117014110D01*
X162309696Y-117043166D01*
X162322586Y-117064867D01*
X162359544Y-117083346D01*
X162395830Y-117103160D01*
X162398754Y-117102950D01*
X162497613Y-117152380D01*
X162527875Y-117171828D01*
X162558527Y-117171828D01*
X162588701Y-117177258D01*
X162601793Y-117171828D01*
X162778129Y-117171828D01*
X162813892Y-117175689D01*
X162841306Y-117161981D01*
X162870725Y-117153344D01*
X162880006Y-117142632D01*
X162979322Y-117092974D01*
X163003984Y-117087610D01*
X163033195Y-117058398D01*
X163063475Y-117030233D01*
X163064201Y-117027392D01*
X163093258Y-116998335D01*
X163114958Y-116985447D01*
X163133432Y-116948497D01*
X163153252Y-116912202D01*
X163153042Y-116909277D01*
X163202471Y-116810419D01*
X163221919Y-116780158D01*
X163221919Y-116749506D01*
X163227349Y-116719332D01*
X163221919Y-116706239D01*
X163221919Y-116315618D01*
X163225780Y-116279855D01*
X163212072Y-116252440D01*
X163203435Y-116223022D01*
X163192723Y-116213740D01*
X163143065Y-116114422D01*
X163137700Y-116089762D01*
X163108492Y-116060554D01*
X163080324Y-116030272D01*
X163077483Y-116029545D01*
X163048425Y-116000488D01*
X163035538Y-115978790D01*
X162998588Y-115960315D01*
X162962292Y-115940496D01*
X162959368Y-115940705D01*
X162860514Y-115891278D01*
X162830249Y-115871828D01*
X162799596Y-115871828D01*
X162769424Y-115866398D01*
X162756332Y-115871828D01*
X162579994Y-115871828D01*
X162544230Y-115867967D01*
X162516814Y-115881675D01*
X162487399Y-115890312D01*
X162478117Y-115901023D01*
X162378802Y-115950681D01*
X162354139Y-115956047D01*
X162324908Y-115985277D01*
X162294649Y-116013424D01*
X162293922Y-116016263D01*
X162264865Y-116045321D01*
X162243167Y-116058209D01*
X162224691Y-116095160D01*
X162204873Y-116131454D01*
X162205082Y-116134378D01*
X162155655Y-116233232D01*
X162136205Y-116263498D01*
X162136205Y-116294151D01*
X162130775Y-116324323D01*
X161864776Y-116324323D01*
X161864776Y-116315618D01*
X161868637Y-116279855D01*
X161854929Y-116252440D01*
X161846292Y-116223022D01*
X161835580Y-116213740D01*
X161785922Y-116114422D01*
X161780557Y-116089762D01*
X161751349Y-116060554D01*
X161723181Y-116030272D01*
X161720340Y-116029545D01*
X161691282Y-116000488D01*
X161678395Y-115978790D01*
X161641445Y-115960315D01*
X161605149Y-115940496D01*
X161602225Y-115940705D01*
X161503371Y-115891278D01*
X161473106Y-115871828D01*
X161442453Y-115871828D01*
X161412281Y-115866398D01*
X161399189Y-115871828D01*
X161151423Y-115871828D01*
X161150491Y-115871727D01*
X161150491Y-115545349D01*
X163560224Y-115545349D01*
X163564777Y-115555105D01*
X163564777Y-117043396D01*
X163583261Y-117106348D01*
X163649834Y-117164033D01*
X163737026Y-117176570D01*
X163817153Y-117139977D01*
X163864777Y-117065872D01*
X163864777Y-116197963D01*
X164078331Y-116655581D01*
X164095790Y-116694657D01*
X164115648Y-116707651D01*
X164131342Y-116725464D01*
X164151749Y-116731274D01*
X164169501Y-116742890D01*
X164193234Y-116743085D01*
X164216063Y-116749585D01*
X164236370Y-116743440D01*
X164257585Y-116743615D01*
X164277656Y-116730947D01*
X164300377Y-116724073D01*
X164314139Y-116707923D01*
X164332079Y-116696602D01*
X164342114Y-116675096D01*
X164357512Y-116657029D01*
X164360358Y-116636002D01*
X164564777Y-116197962D01*
X164564777Y-117043396D01*
X164583261Y-117106348D01*
X164649834Y-117164033D01*
X164737026Y-117176570D01*
X164817153Y-117139977D01*
X164864777Y-117065872D01*
X164864777Y-116030800D01*
X166272987Y-116030800D01*
X166631151Y-117033660D01*
X166630576Y-117036643D01*
X166634536Y-117046543D01*
X166633924Y-117057190D01*
X166649262Y-117084369D01*
X166652198Y-117092590D01*
X166653880Y-117094904D01*
X166785146Y-117423068D01*
X166791852Y-117453893D01*
X166816658Y-117478699D01*
X166838342Y-117506290D01*
X166847379Y-117509420D01*
X166881126Y-117543167D01*
X166894015Y-117564867D01*
X166930964Y-117583341D01*
X166967260Y-117603161D01*
X166970184Y-117602951D01*
X167095558Y-117665638D01*
X167160130Y-117677258D01*
X167241497Y-117643511D01*
X167291704Y-117571130D01*
X167294808Y-117483098D01*
X167249824Y-117407361D01*
X167089344Y-117327120D01*
X167056898Y-117294675D01*
X166946557Y-117018823D01*
X167291863Y-116051967D01*
X167292317Y-116044077D01*
X167345748Y-116044077D01*
X167382341Y-116124204D01*
X167456446Y-116171828D01*
X167607937Y-116171828D01*
X167697351Y-116216535D01*
X167734355Y-116253539D01*
X167779062Y-116342951D01*
X167779062Y-117043396D01*
X167797546Y-117106348D01*
X167864119Y-117164033D01*
X167951311Y-117176570D01*
X168031438Y-117139977D01*
X168079062Y-117065872D01*
X168079062Y-117044077D01*
X168274320Y-117044077D01*
X168310913Y-117124204D01*
X168385018Y-117171828D01*
X168563843Y-117171828D01*
X168599606Y-117175689D01*
X168627020Y-117161981D01*
X168656439Y-117153344D01*
X168665720Y-117142632D01*
X168747677Y-117101654D01*
X168753506Y-117101860D01*
X168786710Y-117082137D01*
X168801149Y-117074919D01*
X168805183Y-117071166D01*
X168829243Y-117056876D01*
X168836804Y-117041752D01*
X168849189Y-117030233D01*
X168856123Y-117003115D01*
X168916759Y-116881844D01*
X168936205Y-116851586D01*
X168936205Y-116820935D01*
X168941635Y-116790761D01*
X168936205Y-116777668D01*
X168936205Y-116370441D01*
X169272962Y-116370441D01*
X169279062Y-116396375D01*
X169279062Y-116400539D01*
X169283983Y-116417300D01*
X169293130Y-116456188D01*
X169296302Y-116459255D01*
X169297546Y-116463491D01*
X169327743Y-116489656D01*
X169356456Y-116517420D01*
X169360783Y-116518285D01*
X169364119Y-116521176D01*
X169403671Y-116526863D01*
X169993347Y-116644798D01*
X169993347Y-116772132D01*
X169960115Y-116838596D01*
X169893652Y-116871828D01*
X169678757Y-116871828D01*
X169548281Y-116806590D01*
X169483708Y-116794970D01*
X169402341Y-116828717D01*
X169352134Y-116901098D01*
X169349030Y-116989130D01*
X169394014Y-117064867D01*
X169569041Y-117152380D01*
X169599303Y-117171828D01*
X169629955Y-117171828D01*
X169660129Y-117177258D01*
X169673221Y-117171828D01*
X169920986Y-117171828D01*
X169956749Y-117175689D01*
X169984163Y-117161981D01*
X170013582Y-117153344D01*
X170022863Y-117142632D01*
X170104822Y-117101653D01*
X170110650Y-117101859D01*
X170143854Y-117082137D01*
X170158292Y-117074919D01*
X170162325Y-117071166D01*
X170186387Y-117056876D01*
X170193949Y-117041751D01*
X170206332Y-117030233D01*
X170213265Y-117003117D01*
X170273900Y-116881845D01*
X170293347Y-116851586D01*
X170293347Y-116820934D01*
X170298777Y-116790760D01*
X170293347Y-116777668D01*
X170293347Y-116547594D01*
X170299448Y-116530359D01*
X170293347Y-116504419D01*
X170293347Y-116252895D01*
X170630774Y-116252895D01*
X170636204Y-116265987D01*
X170636204Y-117043396D01*
X170654688Y-117106348D01*
X170721261Y-117164033D01*
X170808453Y-117176570D01*
X170888580Y-117139977D01*
X170936204Y-117065872D01*
X170936204Y-116271525D01*
X170969436Y-116205059D01*
X171035900Y-116171828D01*
X171179365Y-116171828D01*
X171245830Y-116205060D01*
X171279062Y-116271523D01*
X171279062Y-117043396D01*
X171297546Y-117106348D01*
X171364119Y-117164033D01*
X171451311Y-117176570D01*
X171531438Y-117139977D01*
X171579062Y-117065872D01*
X171579062Y-116271523D01*
X171612293Y-116205059D01*
X171678757Y-116171828D01*
X171822222Y-116171828D01*
X171911637Y-116216535D01*
X171921919Y-116226817D01*
X171921919Y-117043396D01*
X171940403Y-117106348D01*
X172006976Y-117164033D01*
X172094168Y-117176570D01*
X172174295Y-117139977D01*
X172221919Y-117065872D01*
X172221919Y-116370441D01*
X172558676Y-116370441D01*
X172564775Y-116396375D01*
X172564776Y-116400539D01*
X172569697Y-116417300D01*
X172578844Y-116456188D01*
X172582016Y-116459255D01*
X172583260Y-116463491D01*
X172613457Y-116489656D01*
X172642170Y-116517420D01*
X172646497Y-116518285D01*
X172649833Y-116521176D01*
X172689385Y-116526863D01*
X173279061Y-116644798D01*
X173279061Y-116772132D01*
X173245829Y-116838596D01*
X173179366Y-116871828D01*
X172964471Y-116871828D01*
X172833995Y-116806590D01*
X172769422Y-116794970D01*
X172688055Y-116828717D01*
X172637848Y-116901098D01*
X172634744Y-116989130D01*
X172679728Y-117064867D01*
X172854755Y-117152380D01*
X172885017Y-117171828D01*
X172915669Y-117171828D01*
X172945843Y-117177258D01*
X172958935Y-117171828D01*
X173206700Y-117171828D01*
X173242463Y-117175689D01*
X173269877Y-117161981D01*
X173299296Y-117153344D01*
X173308577Y-117142632D01*
X173390536Y-117101653D01*
X173396364Y-117101859D01*
X173429568Y-117082137D01*
X173444006Y-117074919D01*
X173448039Y-117071166D01*
X173472101Y-117056876D01*
X173479663Y-117041751D01*
X173492046Y-117030233D01*
X173492786Y-117027337D01*
X173772826Y-117027337D01*
X173800605Y-117110930D01*
X173869169Y-117166234D01*
X173956748Y-117175689D01*
X174104819Y-117101654D01*
X174110648Y-117101860D01*
X174143852Y-117082137D01*
X174158291Y-117074919D01*
X174162325Y-117071166D01*
X174186385Y-117056876D01*
X174193946Y-117041752D01*
X174206331Y-117030233D01*
X174213265Y-117003115D01*
X174273901Y-116881844D01*
X174293347Y-116851586D01*
X174293347Y-116820935D01*
X174298777Y-116790761D01*
X174293347Y-116777668D01*
X174293347Y-116370441D01*
X174630104Y-116370441D01*
X174636204Y-116396375D01*
X174636204Y-116400539D01*
X174641125Y-116417300D01*
X174650272Y-116456188D01*
X174653444Y-116459255D01*
X174654688Y-116463491D01*
X174684885Y-116489656D01*
X174713598Y-116517420D01*
X174717925Y-116518285D01*
X174721261Y-116521176D01*
X174760813Y-116526863D01*
X175350489Y-116644798D01*
X175350489Y-116772132D01*
X175317257Y-116838596D01*
X175250794Y-116871828D01*
X175035899Y-116871828D01*
X174905423Y-116806590D01*
X174840850Y-116794970D01*
X174759483Y-116828717D01*
X174709276Y-116901098D01*
X174706172Y-116989130D01*
X174751156Y-117064867D01*
X174926183Y-117152380D01*
X174956445Y-117171828D01*
X174987097Y-117171828D01*
X175017271Y-117177258D01*
X175030363Y-117171828D01*
X175278128Y-117171828D01*
X175313891Y-117175689D01*
X175341305Y-117161981D01*
X175370724Y-117153344D01*
X175380005Y-117142632D01*
X175461964Y-117101653D01*
X175467792Y-117101859D01*
X175500996Y-117082137D01*
X175515434Y-117074919D01*
X175519467Y-117071166D01*
X175543529Y-117056876D01*
X175551091Y-117041751D01*
X175563474Y-117030233D01*
X175570407Y-117003117D01*
X175631042Y-116881845D01*
X175650489Y-116851586D01*
X175650489Y-116820934D01*
X175655919Y-116790760D01*
X175650489Y-116777668D01*
X175650489Y-116547594D01*
X175656590Y-116530359D01*
X175650489Y-116504419D01*
X175650489Y-116244190D01*
X175654350Y-116208427D01*
X175640642Y-116181012D01*
X175632005Y-116151594D01*
X175621293Y-116142312D01*
X175580315Y-116060355D01*
X175580521Y-116054527D01*
X175560798Y-116021322D01*
X175553580Y-116006884D01*
X175549827Y-116002849D01*
X175535537Y-115978790D01*
X175520413Y-115971228D01*
X175508894Y-115958844D01*
X175481777Y-115951910D01*
X175360513Y-115891278D01*
X175330248Y-115871828D01*
X175299595Y-115871828D01*
X175269423Y-115866398D01*
X175256331Y-115871828D01*
X175008564Y-115871828D01*
X174972800Y-115867967D01*
X174945384Y-115881675D01*
X174915969Y-115890312D01*
X174906687Y-115901023D01*
X174824731Y-115942002D01*
X174818902Y-115941797D01*
X174785688Y-115961524D01*
X174771259Y-115968739D01*
X174767227Y-115972489D01*
X174743165Y-115986781D01*
X174735603Y-116001904D01*
X174723219Y-116013424D01*
X174716285Y-116040539D01*
X174655649Y-116161811D01*
X174636204Y-116192070D01*
X174636204Y-116222721D01*
X174630774Y-116252896D01*
X174636204Y-116265988D01*
X174636204Y-116353207D01*
X174630104Y-116370441D01*
X174293347Y-116370441D01*
X174293347Y-115544077D01*
X175774319Y-115544077D01*
X175810912Y-115624204D01*
X175885017Y-115671828D01*
X176207632Y-115671828D01*
X176207632Y-117043396D01*
X176226116Y-117106348D01*
X176292689Y-117164033D01*
X176379881Y-117176570D01*
X176460008Y-117139977D01*
X176507632Y-117065872D01*
X176507632Y-116044077D01*
X178060032Y-116044077D01*
X178096625Y-116124204D01*
X178170730Y-116171828D01*
X178322221Y-116171828D01*
X178411635Y-116216535D01*
X178448639Y-116253539D01*
X178493346Y-116342951D01*
X178493346Y-117043396D01*
X178511830Y-117106348D01*
X178578403Y-117164033D01*
X178665595Y-117176570D01*
X178745722Y-117139977D01*
X178793346Y-117065872D01*
X178793346Y-116315616D01*
X178797207Y-116279853D01*
X178793346Y-116272131D01*
X178793346Y-116252896D01*
X179202202Y-116252896D01*
X179207632Y-116265988D01*
X179207632Y-116376307D01*
X179206172Y-116417701D01*
X179207632Y-116420159D01*
X179207632Y-116947723D01*
X179206172Y-116989130D01*
X179207632Y-116991588D01*
X179207632Y-117043396D01*
X179226116Y-117106348D01*
X179292689Y-117164033D01*
X179379881Y-117176570D01*
X179428952Y-117154159D01*
X179456445Y-117171828D01*
X179487097Y-117171828D01*
X179517271Y-117177258D01*
X179530363Y-117171828D01*
X179849556Y-117171828D01*
X179885319Y-117175689D01*
X179912733Y-117161981D01*
X179942152Y-117153344D01*
X179951433Y-117142632D01*
X180033392Y-117101653D01*
X180039220Y-117101859D01*
X180072424Y-117082137D01*
X180086862Y-117074919D01*
X180090895Y-117071166D01*
X180114957Y-117056876D01*
X180122519Y-117041751D01*
X180134902Y-117030233D01*
X180141835Y-117003117D01*
X180202470Y-116881845D01*
X180211486Y-116867817D01*
X180487411Y-116867817D01*
X180506136Y-116953892D01*
X180602994Y-117050751D01*
X180625556Y-117078775D01*
X180654637Y-117088468D01*
X180681542Y-117103160D01*
X180695678Y-117102148D01*
X180863785Y-117158183D01*
X180885016Y-117171828D01*
X180926339Y-117171828D01*
X180967654Y-117173322D01*
X180970175Y-117171828D01*
X181053112Y-117171828D01*
X181077567Y-117178058D01*
X181116755Y-117164995D01*
X181156437Y-117153344D01*
X181158356Y-117151128D01*
X181325970Y-117095257D01*
X181361126Y-117087610D01*
X181382802Y-117065933D01*
X181407974Y-117048440D01*
X181413391Y-117035343D01*
X181521826Y-116926907D01*
X181543527Y-116914019D01*
X181562008Y-116877056D01*
X181581821Y-116840773D01*
X181581611Y-116837849D01*
X181622704Y-116755663D01*
X181635328Y-116743794D01*
X181642016Y-116717040D01*
X181644298Y-116712477D01*
X181647229Y-116696186D01*
X181711450Y-116439301D01*
X181721917Y-116423015D01*
X181721917Y-116397435D01*
X181722669Y-116394427D01*
X181721917Y-116375921D01*
X181721917Y-116324323D01*
X181987916Y-116324323D01*
X181993346Y-116337415D01*
X181993346Y-116728038D01*
X181989485Y-116763802D01*
X182003192Y-116791216D01*
X182011830Y-116820634D01*
X182022542Y-116829916D01*
X182072200Y-116929230D01*
X182077565Y-116953892D01*
X182106771Y-116983098D01*
X182134942Y-117013384D01*
X182137782Y-117014110D01*
X182166837Y-117043166D01*
X182179727Y-117064867D01*
X182216685Y-117083346D01*
X182252971Y-117103160D01*
X182255895Y-117102950D01*
X182354754Y-117152380D01*
X182385016Y-117171828D01*
X182415668Y-117171828D01*
X182445842Y-117177258D01*
X182458934Y-117171828D01*
X182635270Y-117171828D01*
X182671033Y-117175689D01*
X182698447Y-117161981D01*
X182727866Y-117153344D01*
X182737147Y-117142632D01*
X182836463Y-117092974D01*
X182861125Y-117087610D01*
X182890336Y-117058398D01*
X182920616Y-117030233D01*
X182921342Y-117027392D01*
X182950399Y-116998335D01*
X182972099Y-116985447D01*
X182990573Y-116948497D01*
X183010393Y-116912202D01*
X183010183Y-116909277D01*
X183059612Y-116810419D01*
X183079060Y-116780158D01*
X183079060Y-116749506D01*
X183084490Y-116719332D01*
X183079060Y-116706239D01*
X183079060Y-116315618D01*
X183082921Y-116279855D01*
X183069213Y-116252440D01*
X183060576Y-116223022D01*
X183049864Y-116213740D01*
X183000206Y-116114422D01*
X182996800Y-116098767D01*
X183344254Y-116098767D01*
X183372034Y-116182360D01*
X183440598Y-116237663D01*
X183528177Y-116247118D01*
X183678756Y-116171828D01*
X183893649Y-116171828D01*
X183983064Y-116216535D01*
X184020067Y-116253538D01*
X184064774Y-116342952D01*
X184064774Y-116700704D01*
X184020067Y-116790117D01*
X183983062Y-116827122D01*
X183893650Y-116871828D01*
X183678756Y-116871828D01*
X183548280Y-116806590D01*
X183483707Y-116794970D01*
X183402340Y-116828717D01*
X183352133Y-116901098D01*
X183349029Y-116989130D01*
X183394013Y-117064867D01*
X183569040Y-117152380D01*
X183599302Y-117171828D01*
X183629954Y-117171828D01*
X183660128Y-117177258D01*
X183673220Y-117171828D01*
X183920984Y-117171828D01*
X183956747Y-117175689D01*
X183984161Y-117161981D01*
X184013580Y-117153344D01*
X184022861Y-117142632D01*
X184122177Y-117092974D01*
X184146839Y-117087610D01*
X184176050Y-117058398D01*
X184191446Y-117044077D01*
X184631461Y-117044077D01*
X184668054Y-117124204D01*
X184742159Y-117171828D01*
X185489758Y-117171828D01*
X185522738Y-117176570D01*
X185553044Y-117162729D01*
X185585009Y-117153344D01*
X185592483Y-117144718D01*
X185602865Y-117139977D01*
X185620877Y-117111949D01*
X185642694Y-117086771D01*
X185644318Y-117075473D01*
X185650489Y-117065872D01*
X185650489Y-117032558D01*
X185655231Y-116999579D01*
X185650489Y-116989195D01*
X185650489Y-116246844D01*
X185655231Y-116213865D01*
X185650489Y-116203481D01*
X185650489Y-115532558D01*
X185655231Y-115499579D01*
X185641390Y-115469272D01*
X185632005Y-115437308D01*
X185623379Y-115429833D01*
X185618638Y-115419452D01*
X185590610Y-115401439D01*
X185565432Y-115379623D01*
X185554134Y-115377998D01*
X185544533Y-115371828D01*
X185511220Y-115371828D01*
X185478240Y-115367086D01*
X185467857Y-115371828D01*
X184764635Y-115371828D01*
X184701683Y-115390312D01*
X184643998Y-115456885D01*
X184631461Y-115544077D01*
X184668054Y-115624204D01*
X184742159Y-115671828D01*
X185350489Y-115671828D01*
X185350489Y-116086114D01*
X184978921Y-116086114D01*
X184915969Y-116104598D01*
X184858284Y-116171171D01*
X184845747Y-116258363D01*
X184882340Y-116338490D01*
X184956445Y-116386114D01*
X185350489Y-116386114D01*
X185350489Y-116871828D01*
X184764635Y-116871828D01*
X184701683Y-116890312D01*
X184643998Y-116956885D01*
X184631461Y-117044077D01*
X184191446Y-117044077D01*
X184206330Y-117030233D01*
X184207056Y-117027392D01*
X184236113Y-116998335D01*
X184257813Y-116985447D01*
X184276287Y-116948497D01*
X184296107Y-116912202D01*
X184295897Y-116909277D01*
X184345326Y-116810419D01*
X184364774Y-116780158D01*
X184364774Y-116749506D01*
X184370204Y-116719332D01*
X184364774Y-116706239D01*
X184364774Y-116315618D01*
X184368635Y-116279855D01*
X184354927Y-116252440D01*
X184346290Y-116223022D01*
X184335578Y-116213740D01*
X184285920Y-116114422D01*
X184280555Y-116089762D01*
X184251347Y-116060554D01*
X184223179Y-116030272D01*
X184220338Y-116029545D01*
X184191280Y-116000488D01*
X184178393Y-115978790D01*
X184141443Y-115960315D01*
X184105147Y-115940496D01*
X184102223Y-115940705D01*
X184003369Y-115891278D01*
X183973104Y-115871828D01*
X183942451Y-115871828D01*
X183912279Y-115866398D01*
X183899187Y-115871828D01*
X183651421Y-115871828D01*
X183615657Y-115867967D01*
X183588241Y-115881675D01*
X183558826Y-115890312D01*
X183549544Y-115901023D01*
X183414116Y-115968739D01*
X183366076Y-116013424D01*
X183344254Y-116098767D01*
X182996800Y-116098767D01*
X182994841Y-116089762D01*
X182965633Y-116060554D01*
X182937465Y-116030272D01*
X182934624Y-116029545D01*
X182905566Y-116000488D01*
X182892679Y-115978790D01*
X182855729Y-115960315D01*
X182819433Y-115940496D01*
X182816509Y-115940705D01*
X182717655Y-115891278D01*
X182687390Y-115871828D01*
X182656737Y-115871828D01*
X182626565Y-115866398D01*
X182613473Y-115871828D01*
X182437135Y-115871828D01*
X182401371Y-115867967D01*
X182373955Y-115881675D01*
X182344540Y-115890312D01*
X182335258Y-115901023D01*
X182235943Y-115950681D01*
X182211280Y-115956047D01*
X182182049Y-115985277D01*
X182151790Y-116013424D01*
X182151063Y-116016263D01*
X182122006Y-116045321D01*
X182100308Y-116058209D01*
X182081832Y-116095160D01*
X182062014Y-116131454D01*
X182062223Y-116134378D01*
X182012796Y-116233232D01*
X181993346Y-116263498D01*
X181993346Y-116294151D01*
X181987916Y-116324323D01*
X181721917Y-116324323D01*
X181721917Y-116189371D01*
X181728121Y-116171034D01*
X181721917Y-116146218D01*
X181721917Y-116143117D01*
X181716698Y-116125343D01*
X181652489Y-115868510D01*
X181654350Y-115851282D01*
X181642015Y-115826613D01*
X181640779Y-115821667D01*
X181632407Y-115807397D01*
X181571635Y-115685854D01*
X181566270Y-115661192D01*
X181537049Y-115631971D01*
X181508893Y-115601701D01*
X181506052Y-115600974D01*
X181397979Y-115492901D01*
X181375421Y-115464882D01*
X181346340Y-115455188D01*
X181319434Y-115440496D01*
X181305296Y-115441507D01*
X181137192Y-115385472D01*
X181115961Y-115371828D01*
X181074648Y-115371828D01*
X181033324Y-115370333D01*
X181030802Y-115371828D01*
X180947864Y-115371828D01*
X180923409Y-115365598D01*
X180884216Y-115378662D01*
X180844540Y-115390312D01*
X180842620Y-115392527D01*
X180674999Y-115448401D01*
X180639851Y-115456047D01*
X180618175Y-115477723D01*
X180593002Y-115495218D01*
X180587584Y-115508313D01*
X180522029Y-115573870D01*
X180490585Y-115631454D01*
X180496870Y-115719317D01*
X180549659Y-115789837D01*
X180632193Y-115820620D01*
X180718268Y-115801895D01*
X180795801Y-115724361D01*
X180953401Y-115671828D01*
X181047576Y-115671828D01*
X181205176Y-115724362D01*
X181305782Y-115824968D01*
X181358960Y-115931322D01*
X181421917Y-116183149D01*
X181421917Y-116360506D01*
X181358961Y-116612329D01*
X181305783Y-116718686D01*
X181205174Y-116819295D01*
X181047576Y-116871828D01*
X180953402Y-116871828D01*
X180795800Y-116819294D01*
X180734162Y-116757655D01*
X180676578Y-116726211D01*
X180588715Y-116732495D01*
X180518195Y-116785283D01*
X180487411Y-116867817D01*
X180211486Y-116867817D01*
X180221917Y-116851586D01*
X180221917Y-116820934D01*
X180227347Y-116790760D01*
X180221917Y-116777668D01*
X180221917Y-116672761D01*
X180225778Y-116636998D01*
X180212070Y-116609583D01*
X180203433Y-116580165D01*
X180192721Y-116570883D01*
X180151743Y-116488926D01*
X180151949Y-116483098D01*
X180132226Y-116449893D01*
X180125008Y-116435455D01*
X180121255Y-116431420D01*
X180106965Y-116407361D01*
X180091841Y-116399799D01*
X180080322Y-116387415D01*
X180053205Y-116380481D01*
X179931934Y-116319845D01*
X179901676Y-116300400D01*
X179871025Y-116300400D01*
X179840850Y-116294970D01*
X179827758Y-116300400D01*
X179535899Y-116300400D01*
X179507632Y-116286266D01*
X179507632Y-116271523D01*
X179540863Y-116205059D01*
X179607327Y-116171828D01*
X179822221Y-116171828D01*
X179952697Y-116237066D01*
X180017270Y-116248687D01*
X180098637Y-116214940D01*
X180148844Y-116142560D01*
X180151949Y-116054527D01*
X180106965Y-115978790D01*
X179931941Y-115891278D01*
X179901676Y-115871828D01*
X179871023Y-115871828D01*
X179840851Y-115866398D01*
X179827759Y-115871828D01*
X179579992Y-115871828D01*
X179544228Y-115867967D01*
X179516812Y-115881675D01*
X179487397Y-115890312D01*
X179478115Y-115901023D01*
X179396159Y-115942002D01*
X179390330Y-115941797D01*
X179357116Y-115961524D01*
X179342687Y-115968739D01*
X179338655Y-115972489D01*
X179314593Y-115986781D01*
X179307031Y-116001904D01*
X179294647Y-116013424D01*
X179287713Y-116040539D01*
X179227077Y-116161811D01*
X179207632Y-116192070D01*
X179207632Y-116222721D01*
X179202202Y-116252896D01*
X178793346Y-116252896D01*
X178793346Y-116000260D01*
X178774862Y-115937308D01*
X178708289Y-115879623D01*
X178621097Y-115867086D01*
X178540970Y-115903679D01*
X178520487Y-115935550D01*
X178431933Y-115891273D01*
X178401675Y-115871828D01*
X178371024Y-115871828D01*
X178340850Y-115866398D01*
X178327758Y-115871828D01*
X178193206Y-115871828D01*
X178130254Y-115890312D01*
X178072569Y-115956885D01*
X178060032Y-116044077D01*
X176507632Y-116044077D01*
X176507632Y-115671828D01*
X176807771Y-115671828D01*
X176870723Y-115653344D01*
X176928408Y-115586771D01*
X176940945Y-115499579D01*
X176904352Y-115419452D01*
X176830247Y-115371828D01*
X176368363Y-115371828D01*
X176335383Y-115367086D01*
X176325000Y-115371828D01*
X175907493Y-115371828D01*
X175844541Y-115390312D01*
X175786856Y-115456885D01*
X175774319Y-115544077D01*
X174293347Y-115544077D01*
X174293347Y-115500260D01*
X174274863Y-115437308D01*
X174208290Y-115379623D01*
X174121098Y-115367086D01*
X174040971Y-115403679D01*
X173993347Y-115477784D01*
X173993347Y-116772131D01*
X173960114Y-116838596D01*
X173842688Y-116897309D01*
X173794648Y-116941995D01*
X173772826Y-117027337D01*
X173492786Y-117027337D01*
X173498979Y-117003117D01*
X173559614Y-116881845D01*
X173579061Y-116851586D01*
X173579061Y-116820934D01*
X173584491Y-116790760D01*
X173579061Y-116777668D01*
X173579061Y-116547594D01*
X173585162Y-116530359D01*
X173579061Y-116504419D01*
X173579061Y-116244190D01*
X173582922Y-116208427D01*
X173569214Y-116181012D01*
X173560577Y-116151594D01*
X173549865Y-116142312D01*
X173508887Y-116060355D01*
X173509093Y-116054527D01*
X173489370Y-116021322D01*
X173482152Y-116006884D01*
X173478399Y-116002849D01*
X173464109Y-115978790D01*
X173448985Y-115971228D01*
X173437466Y-115958844D01*
X173410349Y-115951910D01*
X173289085Y-115891278D01*
X173258820Y-115871828D01*
X173228167Y-115871828D01*
X173197995Y-115866398D01*
X173184903Y-115871828D01*
X172937136Y-115871828D01*
X172901372Y-115867967D01*
X172873956Y-115881675D01*
X172844541Y-115890312D01*
X172835259Y-115901023D01*
X172753303Y-115942002D01*
X172747474Y-115941797D01*
X172714260Y-115961524D01*
X172699831Y-115968739D01*
X172695799Y-115972489D01*
X172671737Y-115986781D01*
X172664175Y-116001904D01*
X172651791Y-116013424D01*
X172644857Y-116040539D01*
X172584221Y-116161811D01*
X172564776Y-116192070D01*
X172564776Y-116222721D01*
X172559346Y-116252896D01*
X172564776Y-116265988D01*
X172564776Y-116353207D01*
X172558676Y-116370441D01*
X172221919Y-116370441D01*
X172221919Y-116191749D01*
X172227854Y-116175837D01*
X172221919Y-116148556D01*
X172221919Y-116000260D01*
X172203435Y-115937308D01*
X172136862Y-115879623D01*
X172049670Y-115867086D01*
X171969543Y-115903679D01*
X171966430Y-115908522D01*
X171931942Y-115891278D01*
X171901677Y-115871828D01*
X171871024Y-115871828D01*
X171840852Y-115866398D01*
X171827760Y-115871828D01*
X171651422Y-115871828D01*
X171615658Y-115867967D01*
X171588242Y-115881675D01*
X171558827Y-115890312D01*
X171549545Y-115901023D01*
X171467589Y-115942002D01*
X171461760Y-115941797D01*
X171434385Y-115958056D01*
X171410350Y-115951910D01*
X171289085Y-115891278D01*
X171258820Y-115871828D01*
X171228167Y-115871828D01*
X171197995Y-115866398D01*
X171184903Y-115871828D01*
X171008565Y-115871828D01*
X170972801Y-115867967D01*
X170945385Y-115881675D01*
X170915970Y-115890312D01*
X170906688Y-115901023D01*
X170824732Y-115942002D01*
X170818903Y-115941797D01*
X170785689Y-115961524D01*
X170771260Y-115968739D01*
X170767228Y-115972489D01*
X170743166Y-115986781D01*
X170735604Y-116001904D01*
X170723220Y-116013424D01*
X170716286Y-116040539D01*
X170655654Y-116161804D01*
X170636204Y-116192070D01*
X170636204Y-116222723D01*
X170630774Y-116252895D01*
X170293347Y-116252895D01*
X170293347Y-116244190D01*
X170297208Y-116208427D01*
X170283500Y-116181012D01*
X170274863Y-116151594D01*
X170264151Y-116142312D01*
X170223173Y-116060355D01*
X170223379Y-116054527D01*
X170203656Y-116021322D01*
X170196438Y-116006884D01*
X170192685Y-116002849D01*
X170178395Y-115978790D01*
X170163271Y-115971228D01*
X170151752Y-115958844D01*
X170124635Y-115951910D01*
X170003371Y-115891278D01*
X169973106Y-115871828D01*
X169942453Y-115871828D01*
X169912281Y-115866398D01*
X169899189Y-115871828D01*
X169651422Y-115871828D01*
X169615658Y-115867967D01*
X169588242Y-115881675D01*
X169558827Y-115890312D01*
X169549545Y-115901023D01*
X169467589Y-115942002D01*
X169461760Y-115941797D01*
X169428546Y-115961524D01*
X169414117Y-115968739D01*
X169410085Y-115972489D01*
X169386023Y-115986781D01*
X169378461Y-116001904D01*
X169366077Y-116013424D01*
X169359143Y-116040539D01*
X169298507Y-116161811D01*
X169279062Y-116192070D01*
X169279062Y-116222721D01*
X169273632Y-116252896D01*
X169279062Y-116265988D01*
X169279062Y-116353207D01*
X169272962Y-116370441D01*
X168936205Y-116370441D01*
X168936205Y-116171828D01*
X169022058Y-116171828D01*
X169085010Y-116153344D01*
X169142695Y-116086771D01*
X169155232Y-115999579D01*
X169118639Y-115919452D01*
X169044534Y-115871828D01*
X168936205Y-115871828D01*
X168936205Y-115500260D01*
X168917721Y-115437308D01*
X168851148Y-115379623D01*
X168763956Y-115367086D01*
X168683829Y-115403679D01*
X168636205Y-115477784D01*
X168636205Y-115871828D01*
X168407494Y-115871828D01*
X168344542Y-115890312D01*
X168286857Y-115956885D01*
X168274320Y-116044077D01*
X168310913Y-116124204D01*
X168385018Y-116171828D01*
X168636205Y-116171828D01*
X168636205Y-116772131D01*
X168602972Y-116838596D01*
X168536509Y-116871828D01*
X168407494Y-116871828D01*
X168344542Y-116890312D01*
X168286857Y-116956885D01*
X168274320Y-117044077D01*
X168079062Y-117044077D01*
X168079062Y-116315616D01*
X168082923Y-116279853D01*
X168079062Y-116272131D01*
X168079062Y-116000260D01*
X168060578Y-115937308D01*
X167994005Y-115879623D01*
X167906813Y-115867086D01*
X167826686Y-115903679D01*
X167806203Y-115935550D01*
X167717649Y-115891273D01*
X167687391Y-115871828D01*
X167656740Y-115871828D01*
X167626566Y-115866398D01*
X167613474Y-115871828D01*
X167478922Y-115871828D01*
X167415970Y-115890312D01*
X167358285Y-115956885D01*
X167345748Y-116044077D01*
X167292317Y-116044077D01*
X167295629Y-115986466D01*
X167252336Y-115909750D01*
X167174441Y-115868618D01*
X167086674Y-115876129D01*
X167016900Y-115929900D01*
X166786205Y-116575846D01*
X166563069Y-115951066D01*
X166524489Y-115897998D01*
X166442393Y-115866065D01*
X166356064Y-115883584D01*
X166292912Y-115944995D01*
X166272987Y-116030800D01*
X164864777Y-116030800D01*
X164864777Y-115533179D01*
X164869697Y-115500853D01*
X164855853Y-115469867D01*
X164846293Y-115437308D01*
X164838156Y-115430257D01*
X164833764Y-115420427D01*
X164805363Y-115401842D01*
X164779720Y-115379623D01*
X164769065Y-115378091D01*
X164760054Y-115372194D01*
X164726112Y-115371915D01*
X164692528Y-115367086D01*
X164682734Y-115371558D01*
X164671969Y-115371470D01*
X164643272Y-115389580D01*
X164612401Y-115403679D01*
X164606579Y-115412736D01*
X164597475Y-115418483D01*
X164583123Y-115449235D01*
X164564777Y-115477784D01*
X164564777Y-115488550D01*
X164214777Y-116238551D01*
X163855504Y-115468681D01*
X163846293Y-115437308D01*
X163820646Y-115415085D01*
X163798212Y-115389621D01*
X163787855Y-115386672D01*
X163779720Y-115379623D01*
X163746129Y-115374793D01*
X163713491Y-115365501D01*
X163703187Y-115368618D01*
X163692528Y-115367086D01*
X163661656Y-115381184D01*
X163629177Y-115391012D01*
X163622193Y-115399206D01*
X163612401Y-115403679D01*
X163594055Y-115432224D01*
X163572042Y-115458057D01*
X163570597Y-115468727D01*
X163564777Y-115477784D01*
X163564777Y-115511718D01*
X163560224Y-115545349D01*
X161150491Y-115545349D01*
X161150491Y-115500260D01*
X161132007Y-115437308D01*
X161065434Y-115379623D01*
X160978242Y-115367086D01*
X160898115Y-115403679D01*
X160850491Y-115477784D01*
X160850491Y-116074382D01*
X160844256Y-116098767D01*
X160436205Y-116098767D01*
X160436205Y-116000260D01*
X160417721Y-115937308D01*
X160351148Y-115879623D01*
X160263956Y-115867086D01*
X160183829Y-115903679D01*
X160136205Y-115977784D01*
X160136205Y-116772131D01*
X160102972Y-116838596D01*
X160036509Y-116871828D01*
X159893043Y-116871828D01*
X159803628Y-116827120D01*
X159793348Y-116816840D01*
X159793348Y-116000260D01*
X159774864Y-115937308D01*
X159708291Y-115879623D01*
X159621099Y-115867086D01*
X159540972Y-115903679D01*
X159493348Y-115977784D01*
X159493348Y-116851904D01*
X159487413Y-116867817D01*
X159068631Y-116867817D01*
X159079062Y-116851586D01*
X159079062Y-116820935D01*
X159084492Y-116790761D01*
X159079062Y-116777668D01*
X159079062Y-115500260D01*
X159060578Y-115437308D01*
X158994005Y-115379623D01*
X158906813Y-115367086D01*
X158826686Y-115403679D01*
X158779062Y-115477784D01*
X158779062Y-116772131D01*
X158745829Y-116838596D01*
X158628403Y-116897309D01*
X158580363Y-116941995D01*
X158558541Y-117027337D01*
X158278501Y-117027337D01*
X158284694Y-117003117D01*
X158345329Y-116881845D01*
X158364776Y-116851586D01*
X158364776Y-116820934D01*
X158370206Y-116790760D01*
X158364776Y-116777668D01*
X158364776Y-116547594D01*
X158370877Y-116530359D01*
X158364776Y-116504419D01*
X158364776Y-116244190D01*
X158368637Y-116208427D01*
X158354929Y-116181012D01*
X158346292Y-116151594D01*
X158335580Y-116142312D01*
X158294602Y-116060355D01*
X158294808Y-116054527D01*
X158275085Y-116021322D01*
X158267867Y-116006884D01*
X158264114Y-116002849D01*
X158249824Y-115978790D01*
X158234700Y-115971228D01*
X158223181Y-115958844D01*
X158196064Y-115951910D01*
X158074800Y-115891278D01*
X158044535Y-115871828D01*
X158013882Y-115871828D01*
X157983710Y-115866398D01*
X157970618Y-115871828D01*
X157722851Y-115871828D01*
X157687087Y-115867967D01*
X157659671Y-115881675D01*
X157630256Y-115890312D01*
X157620974Y-115901023D01*
X157539018Y-115942002D01*
X157533189Y-115941797D01*
X157499975Y-115961524D01*
X157485546Y-115968739D01*
X157481514Y-115972489D01*
X157457452Y-115986781D01*
X157449890Y-116001904D01*
X157437506Y-116013424D01*
X157430572Y-116040539D01*
X157369936Y-116161811D01*
X157350491Y-116192070D01*
X157350491Y-116222721D01*
X157345061Y-116252896D01*
X157350491Y-116265988D01*
X157350491Y-116353207D01*
X157344391Y-116370441D01*
X155864777Y-116370441D01*
X155864777Y-116318272D01*
X155869519Y-116285293D01*
X155864777Y-116274909D01*
X155864777Y-115532558D01*
X155869519Y-115499579D01*
X155855678Y-115469272D01*
X155846293Y-115437308D01*
X155837667Y-115429833D01*
X155832926Y-115419452D01*
X155804898Y-115401439D01*
X155779720Y-115379623D01*
X155768422Y-115377998D01*
X155758821Y-115371828D01*
X155725508Y-115371828D01*
X155692528Y-115367086D01*
X155682145Y-115371828D01*
X155151423Y-115371828D01*
X155115659Y-115367967D01*
X155088243Y-115381675D01*
X155058828Y-115390312D01*
X155049546Y-115401023D01*
X154950231Y-115450682D01*
X154925570Y-115456047D01*
X154896355Y-115485261D01*
X154866078Y-115513424D01*
X154865351Y-115516264D01*
X154836295Y-115545319D01*
X154814595Y-115558209D01*
X154796114Y-115595169D01*
X154776302Y-115631453D01*
X154776511Y-115634376D01*
X154727079Y-115733239D01*
X154707634Y-115763498D01*
X154707634Y-115794149D01*
X154702204Y-115824324D01*
X154707634Y-115837416D01*
X154707634Y-116013751D01*
X154703773Y-116049515D01*
X154717480Y-116076929D01*
X154726118Y-116106348D01*
X154736829Y-116115629D01*
X154786487Y-116214945D01*
X154791852Y-116239607D01*
X154821057Y-116268812D01*
X154849229Y-116299098D01*
X154852069Y-116299824D01*
X154881126Y-116328881D01*
X154894015Y-116350581D01*
X154930964Y-116369055D01*
X154967260Y-116388875D01*
X154970184Y-116388665D01*
X155069042Y-116438094D01*
X155078772Y-116444347D01*
X154722381Y-116953478D01*
X154701423Y-117015650D01*
X154352919Y-117015650D01*
X154356123Y-117003117D01*
X154416758Y-116881845D01*
X154436205Y-116851586D01*
X154436205Y-116820934D01*
X154441635Y-116790760D01*
X154436205Y-116777668D01*
X154436205Y-116547594D01*
X154442306Y-116530359D01*
X154436205Y-116504419D01*
X154436205Y-116244190D01*
X154440066Y-116208427D01*
X154426358Y-116181012D01*
X154417721Y-116151594D01*
X154407009Y-116142312D01*
X154366031Y-116060355D01*
X154366237Y-116054527D01*
X154346514Y-116021322D01*
X154339296Y-116006884D01*
X154335543Y-116002849D01*
X154321253Y-115978790D01*
X154306129Y-115971228D01*
X154294610Y-115958844D01*
X154267493Y-115951910D01*
X154146229Y-115891278D01*
X154115964Y-115871828D01*
X154085311Y-115871828D01*
X154055139Y-115866398D01*
X154042047Y-115871828D01*
X153794280Y-115871828D01*
X153758516Y-115867967D01*
X153731100Y-115881675D01*
X153701685Y-115890312D01*
X153692403Y-115901023D01*
X153610447Y-115942002D01*
X153604618Y-115941797D01*
X153571404Y-115961524D01*
X153556975Y-115968739D01*
X153552943Y-115972489D01*
X153528881Y-115986781D01*
X153521319Y-116001904D01*
X153508935Y-116013424D01*
X153502001Y-116040539D01*
X153441365Y-116161811D01*
X153421920Y-116192070D01*
X153421920Y-116222721D01*
X153416490Y-116252896D01*
X153421920Y-116265988D01*
X153421920Y-116353207D01*
X153415820Y-116370441D01*
X153106694Y-116370441D01*
X153220435Y-116051967D01*
X153224201Y-115986466D01*
X153180908Y-115909750D01*
X153103013Y-115868618D01*
X153015246Y-115876129D01*
X152945472Y-115929900D01*
X152714777Y-116575846D01*
X152491641Y-115951066D01*
X152453061Y-115897998D01*
X152370965Y-115866065D01*
X152284636Y-115883584D01*
X152221484Y-115944995D01*
X152201559Y-116030800D01*
X150841561Y-116030800D01*
X150863132Y-115999703D01*
X150866237Y-115911670D01*
X150821253Y-115835933D01*
X150660775Y-115755694D01*
X150545632Y-115640551D01*
X150423691Y-115457639D01*
X150417722Y-115437308D01*
X150399763Y-115421746D01*
X150399050Y-115420677D01*
X150383458Y-115407618D01*
X150351149Y-115379623D01*
X150349799Y-115379428D01*
X150348751Y-115378551D01*
X150306284Y-115373172D01*
X150263957Y-115367086D01*
X150262714Y-115367653D01*
X150261361Y-115367482D01*
X150222754Y-115385902D01*
X150183830Y-115403679D01*
X150183092Y-115404827D01*
X150181858Y-115405416D01*
X150159313Y-115441828D01*
X150136206Y-115477784D01*
X150136206Y-115479148D01*
X150135487Y-115480310D01*
X150136206Y-115523098D01*
X150136206Y-116871828D01*
X149836066Y-116871828D01*
X149773114Y-116890312D01*
X149715429Y-116956885D01*
X149702892Y-117044077D01*
X149411361Y-117044077D01*
X149423000Y-117012870D01*
X149438966Y-116983632D01*
X149438151Y-116972249D01*
X149442141Y-116961554D01*
X149435057Y-116928993D01*
X149432681Y-116895768D01*
X149425842Y-116886632D01*
X149423416Y-116875479D01*
X149399857Y-116851919D01*
X149379892Y-116825249D01*
X149369198Y-116821260D01*
X149347917Y-116799978D01*
X149346294Y-116794451D01*
X149325196Y-116776170D01*
X149308465Y-116753819D01*
X149292551Y-116747883D01*
X149279721Y-116736766D01*
X149262913Y-116734349D01*
X149248010Y-116726211D01*
X149236626Y-116727025D01*
X149225931Y-116723036D01*
X149209337Y-116726645D01*
X149192529Y-116724229D01*
X149177081Y-116731283D01*
X149160147Y-116732495D01*
X149151010Y-116739334D01*
X149139856Y-116741761D01*
X149127849Y-116753767D01*
X149112402Y-116760822D01*
X149103222Y-116775106D01*
X149089627Y-116785283D01*
X149085637Y-116795979D01*
X149044870Y-116836746D01*
X149018197Y-116856714D01*
X149006554Y-116887929D01*
X148990588Y-116917169D01*
X148991402Y-116928554D01*
X148987414Y-116939248D01*
X148567054Y-116939248D01*
X148581824Y-116912201D01*
X148581614Y-116909278D01*
X148622707Y-116827092D01*
X148635331Y-116815223D01*
X148642019Y-116788469D01*
X148644301Y-116783906D01*
X148647232Y-116767615D01*
X148711453Y-116510730D01*
X148721920Y-116494444D01*
X148721920Y-116468864D01*
X148722672Y-116465856D01*
X148721920Y-116447350D01*
X148721920Y-116117943D01*
X148728124Y-116099606D01*
X148721920Y-116074789D01*
X148721920Y-116071689D01*
X148716702Y-116053919D01*
X148652493Y-115797079D01*
X148654353Y-115779853D01*
X148642020Y-115755188D01*
X148640783Y-115750238D01*
X148632406Y-115735961D01*
X148571638Y-115614425D01*
X148566273Y-115589762D01*
X148537042Y-115560531D01*
X148508896Y-115530272D01*
X148506056Y-115529545D01*
X148476998Y-115500488D01*
X148464111Y-115478790D01*
X148427157Y-115460313D01*
X148390866Y-115440496D01*
X148387941Y-115440705D01*
X148289079Y-115391273D01*
X148258821Y-115371828D01*
X148228170Y-115371828D01*
X148197996Y-115366398D01*
X148184904Y-115371828D01*
X148079995Y-115371828D01*
X148044231Y-115367967D01*
X148016815Y-115381675D01*
X147987400Y-115390312D01*
X147978118Y-115401023D01*
X147878803Y-115450681D01*
X147854140Y-115456047D01*
X147824909Y-115485277D01*
X147794650Y-115513424D01*
X147793923Y-115516263D01*
X147764866Y-115545321D01*
X147743168Y-115558209D01*
X147724692Y-115595160D01*
X147704874Y-115631454D01*
X147705083Y-115634378D01*
X147663991Y-115716562D01*
X147651367Y-115728433D01*
X147644677Y-115755189D01*
X147642397Y-115759751D01*
X147639466Y-115776036D01*
X147575243Y-116032926D01*
X147564777Y-116049213D01*
X147564777Y-116074793D01*
X147564025Y-116077801D01*
X147564777Y-116096306D01*
X147564777Y-116425713D01*
X147558573Y-116444052D01*
X146512146Y-116444052D01*
X146512146Y-114306714D01*
X186719286Y-114306714D01*
X186719286Y-117885286D01*
G37*
D11*
%TO.C,J1*%
X112855333Y-109690819D02*
X112855333Y-110405104D01*
X112855333Y-110405104D02*
X112902952Y-110547961D01*
X112902952Y-110547961D02*
X112998190Y-110643200D01*
X112998190Y-110643200D02*
X113141047Y-110690819D01*
X113141047Y-110690819D02*
X113236285Y-110690819D01*
X111855333Y-110690819D02*
X112426761Y-110690819D01*
X112141047Y-110690819D02*
X112141047Y-109690819D01*
X112141047Y-109690819D02*
X112236285Y-109833676D01*
X112236285Y-109833676D02*
X112331523Y-109928914D01*
X112331523Y-109928914D02*
X112426761Y-109976533D01*
%TO.C,J7*%
X74055819Y-101937666D02*
X74770104Y-101937666D01*
X74770104Y-101937666D02*
X74912961Y-101890047D01*
X74912961Y-101890047D02*
X75008200Y-101794809D01*
X75008200Y-101794809D02*
X75055819Y-101651952D01*
X75055819Y-101651952D02*
X75055819Y-101556714D01*
X74055819Y-102318619D02*
X74055819Y-102985285D01*
X74055819Y-102985285D02*
X75055819Y-102556714D01*
%TO.C,SW2*%
X131608332Y-115365200D02*
X131465475Y-115412819D01*
X131465475Y-115412819D02*
X131227380Y-115412819D01*
X131227380Y-115412819D02*
X131132142Y-115365200D01*
X131132142Y-115365200D02*
X131084523Y-115317580D01*
X131084523Y-115317580D02*
X131036904Y-115222342D01*
X131036904Y-115222342D02*
X131036904Y-115127104D01*
X131036904Y-115127104D02*
X131084523Y-115031866D01*
X131084523Y-115031866D02*
X131132142Y-114984247D01*
X131132142Y-114984247D02*
X131227380Y-114936628D01*
X131227380Y-114936628D02*
X131417856Y-114889009D01*
X131417856Y-114889009D02*
X131513094Y-114841390D01*
X131513094Y-114841390D02*
X131560713Y-114793771D01*
X131560713Y-114793771D02*
X131608332Y-114698533D01*
X131608332Y-114698533D02*
X131608332Y-114603295D01*
X131608332Y-114603295D02*
X131560713Y-114508057D01*
X131560713Y-114508057D02*
X131513094Y-114460438D01*
X131513094Y-114460438D02*
X131417856Y-114412819D01*
X131417856Y-114412819D02*
X131179761Y-114412819D01*
X131179761Y-114412819D02*
X131036904Y-114460438D01*
X130703570Y-114412819D02*
X130465475Y-115412819D01*
X130465475Y-115412819D02*
X130274999Y-114698533D01*
X130274999Y-114698533D02*
X130084523Y-115412819D01*
X130084523Y-115412819D02*
X129846428Y-114412819D01*
X129513094Y-114508057D02*
X129465475Y-114460438D01*
X129465475Y-114460438D02*
X129370237Y-114412819D01*
X129370237Y-114412819D02*
X129132142Y-114412819D01*
X129132142Y-114412819D02*
X129036904Y-114460438D01*
X129036904Y-114460438D02*
X128989285Y-114508057D01*
X128989285Y-114508057D02*
X128941666Y-114603295D01*
X128941666Y-114603295D02*
X128941666Y-114698533D01*
X128941666Y-114698533D02*
X128989285Y-114841390D01*
X128989285Y-114841390D02*
X129560713Y-115412819D01*
X129560713Y-115412819D02*
X128941666Y-115412819D01*
%TO.C,J6*%
X82248333Y-115275819D02*
X82248333Y-115990104D01*
X82248333Y-115990104D02*
X82295952Y-116132961D01*
X82295952Y-116132961D02*
X82391190Y-116228200D01*
X82391190Y-116228200D02*
X82534047Y-116275819D01*
X82534047Y-116275819D02*
X82629285Y-116275819D01*
X81343571Y-115275819D02*
X81534047Y-115275819D01*
X81534047Y-115275819D02*
X81629285Y-115323438D01*
X81629285Y-115323438D02*
X81676904Y-115371057D01*
X81676904Y-115371057D02*
X81772142Y-115513914D01*
X81772142Y-115513914D02*
X81819761Y-115704390D01*
X81819761Y-115704390D02*
X81819761Y-116085342D01*
X81819761Y-116085342D02*
X81772142Y-116180580D01*
X81772142Y-116180580D02*
X81724523Y-116228200D01*
X81724523Y-116228200D02*
X81629285Y-116275819D01*
X81629285Y-116275819D02*
X81438809Y-116275819D01*
X81438809Y-116275819D02*
X81343571Y-116228200D01*
X81343571Y-116228200D02*
X81295952Y-116180580D01*
X81295952Y-116180580D02*
X81248333Y-116085342D01*
X81248333Y-116085342D02*
X81248333Y-115847247D01*
X81248333Y-115847247D02*
X81295952Y-115752009D01*
X81295952Y-115752009D02*
X81343571Y-115704390D01*
X81343571Y-115704390D02*
X81438809Y-115656771D01*
X81438809Y-115656771D02*
X81629285Y-115656771D01*
X81629285Y-115656771D02*
X81724523Y-115704390D01*
X81724523Y-115704390D02*
X81772142Y-115752009D01*
X81772142Y-115752009D02*
X81819761Y-115847247D01*
%TO.C,J3*%
X185965092Y-101271736D02*
X186680064Y-101271736D01*
X186680064Y-101271736D02*
X186823059Y-101224072D01*
X186823059Y-101224072D02*
X186918389Y-101128742D01*
X186918389Y-101128742D02*
X186966053Y-100985748D01*
X186966053Y-100985748D02*
X186966053Y-100890418D01*
X185965092Y-101653055D02*
X185965092Y-102272697D01*
X185965092Y-102272697D02*
X186346411Y-101939044D01*
X186346411Y-101939044D02*
X186346411Y-102082038D01*
X186346411Y-102082038D02*
X186394076Y-102177368D01*
X186394076Y-102177368D02*
X186441740Y-102225033D01*
X186441740Y-102225033D02*
X186537070Y-102272697D01*
X186537070Y-102272697D02*
X186775394Y-102272697D01*
X186775394Y-102272697D02*
X186870724Y-102225033D01*
X186870724Y-102225033D02*
X186918389Y-102177368D01*
X186918389Y-102177368D02*
X186966053Y-102082038D01*
X186966053Y-102082038D02*
X186966053Y-101796049D01*
X186966053Y-101796049D02*
X186918389Y-101700720D01*
X186918389Y-101700720D02*
X186870724Y-101653055D01*
%TO.C,RV1*%
X95577819Y-114593761D02*
X95101628Y-114260428D01*
X95577819Y-114022333D02*
X94577819Y-114022333D01*
X94577819Y-114022333D02*
X94577819Y-114403285D01*
X94577819Y-114403285D02*
X94625438Y-114498523D01*
X94625438Y-114498523D02*
X94673057Y-114546142D01*
X94673057Y-114546142D02*
X94768295Y-114593761D01*
X94768295Y-114593761D02*
X94911152Y-114593761D01*
X94911152Y-114593761D02*
X95006390Y-114546142D01*
X95006390Y-114546142D02*
X95054009Y-114498523D01*
X95054009Y-114498523D02*
X95101628Y-114403285D01*
X95101628Y-114403285D02*
X95101628Y-114022333D01*
X94577819Y-114879476D02*
X95577819Y-115212809D01*
X95577819Y-115212809D02*
X94577819Y-115546142D01*
X95577819Y-116403285D02*
X95577819Y-115831857D01*
X95577819Y-116117571D02*
X94577819Y-116117571D01*
X94577819Y-116117571D02*
X94720676Y-116022333D01*
X94720676Y-116022333D02*
X94815914Y-115927095D01*
X94815914Y-115927095D02*
X94863533Y-115831857D01*
%TO.C,SW1*%
X123563433Y-116782200D02*
X123420576Y-116829819D01*
X123420576Y-116829819D02*
X123182481Y-116829819D01*
X123182481Y-116829819D02*
X123087243Y-116782200D01*
X123087243Y-116782200D02*
X123039624Y-116734580D01*
X123039624Y-116734580D02*
X122992005Y-116639342D01*
X122992005Y-116639342D02*
X122992005Y-116544104D01*
X122992005Y-116544104D02*
X123039624Y-116448866D01*
X123039624Y-116448866D02*
X123087243Y-116401247D01*
X123087243Y-116401247D02*
X123182481Y-116353628D01*
X123182481Y-116353628D02*
X123372957Y-116306009D01*
X123372957Y-116306009D02*
X123468195Y-116258390D01*
X123468195Y-116258390D02*
X123515814Y-116210771D01*
X123515814Y-116210771D02*
X123563433Y-116115533D01*
X123563433Y-116115533D02*
X123563433Y-116020295D01*
X123563433Y-116020295D02*
X123515814Y-115925057D01*
X123515814Y-115925057D02*
X123468195Y-115877438D01*
X123468195Y-115877438D02*
X123372957Y-115829819D01*
X123372957Y-115829819D02*
X123134862Y-115829819D01*
X123134862Y-115829819D02*
X122992005Y-115877438D01*
X122658671Y-115829819D02*
X122420576Y-116829819D01*
X122420576Y-116829819D02*
X122230100Y-116115533D01*
X122230100Y-116115533D02*
X122039624Y-116829819D01*
X122039624Y-116829819D02*
X121801529Y-115829819D01*
X120896767Y-116829819D02*
X121468195Y-116829819D01*
X121182481Y-116829819D02*
X121182481Y-115829819D01*
X121182481Y-115829819D02*
X121277719Y-115972676D01*
X121277719Y-115972676D02*
X121372957Y-116067914D01*
X121372957Y-116067914D02*
X121468195Y-116115533D01*
%TO.C,JP2*%
X86304333Y-104045819D02*
X86304333Y-104760104D01*
X86304333Y-104760104D02*
X86351952Y-104902961D01*
X86351952Y-104902961D02*
X86447190Y-104998200D01*
X86447190Y-104998200D02*
X86590047Y-105045819D01*
X86590047Y-105045819D02*
X86685285Y-105045819D01*
X85828142Y-105045819D02*
X85828142Y-104045819D01*
X85828142Y-104045819D02*
X85447190Y-104045819D01*
X85447190Y-104045819D02*
X85351952Y-104093438D01*
X85351952Y-104093438D02*
X85304333Y-104141057D01*
X85304333Y-104141057D02*
X85256714Y-104236295D01*
X85256714Y-104236295D02*
X85256714Y-104379152D01*
X85256714Y-104379152D02*
X85304333Y-104474390D01*
X85304333Y-104474390D02*
X85351952Y-104522009D01*
X85351952Y-104522009D02*
X85447190Y-104569628D01*
X85447190Y-104569628D02*
X85828142Y-104569628D01*
X84875761Y-104141057D02*
X84828142Y-104093438D01*
X84828142Y-104093438D02*
X84732904Y-104045819D01*
X84732904Y-104045819D02*
X84494809Y-104045819D01*
X84494809Y-104045819D02*
X84399571Y-104093438D01*
X84399571Y-104093438D02*
X84351952Y-104141057D01*
X84351952Y-104141057D02*
X84304333Y-104236295D01*
X84304333Y-104236295D02*
X84304333Y-104331533D01*
X84304333Y-104331533D02*
X84351952Y-104474390D01*
X84351952Y-104474390D02*
X84923380Y-105045819D01*
X84923380Y-105045819D02*
X84304333Y-105045819D01*
%TD*%
M02*
