%TF.GenerationSoftware,KiCad,Pcbnew,7.0.6*%
%TF.CreationDate,2023-11-26T00:53:47-07:00*%
%TF.ProjectId,H2 Sensor Board Lucy Rev 1,48322053-656e-4736-9f72-20426f617264,rev?*%
%TF.SameCoordinates,Original*%
%TF.FileFunction,Legend,Top*%
%TF.FilePolarity,Positive*%
%FSLAX46Y46*%
G04 Gerber Fmt 4.6, Leading zero omitted, Abs format (unit mm)*
G04 Created by KiCad (PCBNEW 7.0.6) date 2023-11-26 00:53:47*
%MOMM*%
%LPD*%
G01*
G04 APERTURE LIST*
%ADD10C,0.125000*%
%ADD11C,0.150000*%
%ADD12C,0.100000*%
%ADD13C,0.120000*%
G04 APERTURE END LIST*
D10*
X112784712Y-106455880D02*
X112731140Y-106503500D01*
X112731140Y-106503500D02*
X112582331Y-106551119D01*
X112582331Y-106551119D02*
X112487093Y-106551119D01*
X112487093Y-106551119D02*
X112350188Y-106503500D01*
X112350188Y-106503500D02*
X112266855Y-106408261D01*
X112266855Y-106408261D02*
X112231140Y-106313023D01*
X112231140Y-106313023D02*
X112207331Y-106122547D01*
X112207331Y-106122547D02*
X112225188Y-105979690D01*
X112225188Y-105979690D02*
X112296616Y-105789214D01*
X112296616Y-105789214D02*
X112356140Y-105693976D01*
X112356140Y-105693976D02*
X112463283Y-105598738D01*
X112463283Y-105598738D02*
X112612093Y-105551119D01*
X112612093Y-105551119D02*
X112707331Y-105551119D01*
X112707331Y-105551119D02*
X112844236Y-105598738D01*
X112844236Y-105598738D02*
X112885902Y-105646357D01*
X113677569Y-106551119D02*
X113201378Y-106551119D01*
X113201378Y-106551119D02*
X113326378Y-105551119D01*
X114010902Y-106551119D02*
X114135902Y-105551119D01*
X114582331Y-106551119D02*
X114225188Y-105979690D01*
X114707331Y-105551119D02*
X114064474Y-106122547D01*
X114760902Y-106646357D02*
X115522807Y-106646357D01*
X115754950Y-105551119D02*
X116326379Y-105551119D01*
X115915665Y-106551119D02*
X116040665Y-105551119D01*
X116600189Y-106027309D02*
X116933522Y-106027309D01*
X117010903Y-106551119D02*
X116534712Y-106551119D01*
X116534712Y-106551119D02*
X116659712Y-105551119D01*
X116659712Y-105551119D02*
X117135903Y-105551119D01*
X117397808Y-106503500D02*
X117534712Y-106551119D01*
X117534712Y-106551119D02*
X117772808Y-106551119D01*
X117772808Y-106551119D02*
X117873998Y-106503500D01*
X117873998Y-106503500D02*
X117927570Y-106455880D01*
X117927570Y-106455880D02*
X117987093Y-106360642D01*
X117987093Y-106360642D02*
X117998998Y-106265404D01*
X117998998Y-106265404D02*
X117963284Y-106170166D01*
X117963284Y-106170166D02*
X117921617Y-106122547D01*
X117921617Y-106122547D02*
X117832332Y-106074928D01*
X117832332Y-106074928D02*
X117647808Y-106027309D01*
X117647808Y-106027309D02*
X117558522Y-105979690D01*
X117558522Y-105979690D02*
X117516855Y-105932071D01*
X117516855Y-105932071D02*
X117481141Y-105836833D01*
X117481141Y-105836833D02*
X117493046Y-105741595D01*
X117493046Y-105741595D02*
X117552570Y-105646357D01*
X117552570Y-105646357D02*
X117606141Y-105598738D01*
X117606141Y-105598738D02*
X117707332Y-105551119D01*
X117707332Y-105551119D02*
X117945427Y-105551119D01*
X117945427Y-105551119D02*
X118082332Y-105598738D01*
X118373998Y-105551119D02*
X118945427Y-105551119D01*
X118534713Y-106551119D02*
X118659713Y-105551119D01*
D11*
X84121819Y-132667333D02*
X84836104Y-132667333D01*
X84836104Y-132667333D02*
X84978961Y-132714952D01*
X84978961Y-132714952D02*
X85074200Y-132810190D01*
X85074200Y-132810190D02*
X85121819Y-132953047D01*
X85121819Y-132953047D02*
X85121819Y-133048285D01*
X84217057Y-132238761D02*
X84169438Y-132191142D01*
X84169438Y-132191142D02*
X84121819Y-132095904D01*
X84121819Y-132095904D02*
X84121819Y-131857809D01*
X84121819Y-131857809D02*
X84169438Y-131762571D01*
X84169438Y-131762571D02*
X84217057Y-131714952D01*
X84217057Y-131714952D02*
X84312295Y-131667333D01*
X84312295Y-131667333D02*
X84407533Y-131667333D01*
X84407533Y-131667333D02*
X84550390Y-131714952D01*
X84550390Y-131714952D02*
X85121819Y-132286380D01*
X85121819Y-132286380D02*
X85121819Y-131667333D01*
X120356333Y-107149580D02*
X120308714Y-107197200D01*
X120308714Y-107197200D02*
X120165857Y-107244819D01*
X120165857Y-107244819D02*
X120070619Y-107244819D01*
X120070619Y-107244819D02*
X119927762Y-107197200D01*
X119927762Y-107197200D02*
X119832524Y-107101961D01*
X119832524Y-107101961D02*
X119784905Y-107006723D01*
X119784905Y-107006723D02*
X119737286Y-106816247D01*
X119737286Y-106816247D02*
X119737286Y-106673390D01*
X119737286Y-106673390D02*
X119784905Y-106482914D01*
X119784905Y-106482914D02*
X119832524Y-106387676D01*
X119832524Y-106387676D02*
X119927762Y-106292438D01*
X119927762Y-106292438D02*
X120070619Y-106244819D01*
X120070619Y-106244819D02*
X120165857Y-106244819D01*
X120165857Y-106244819D02*
X120308714Y-106292438D01*
X120308714Y-106292438D02*
X120356333Y-106340057D01*
X120689667Y-106244819D02*
X121356333Y-106244819D01*
X121356333Y-106244819D02*
X120927762Y-107244819D01*
X145785095Y-121374819D02*
X145785095Y-122184342D01*
X145785095Y-122184342D02*
X145832714Y-122279580D01*
X145832714Y-122279580D02*
X145880333Y-122327200D01*
X145880333Y-122327200D02*
X145975571Y-122374819D01*
X145975571Y-122374819D02*
X146166047Y-122374819D01*
X146166047Y-122374819D02*
X146261285Y-122327200D01*
X146261285Y-122327200D02*
X146308904Y-122279580D01*
X146308904Y-122279580D02*
X146356523Y-122184342D01*
X146356523Y-122184342D02*
X146356523Y-121374819D01*
X146975571Y-121803390D02*
X146880333Y-121755771D01*
X146880333Y-121755771D02*
X146832714Y-121708152D01*
X146832714Y-121708152D02*
X146785095Y-121612914D01*
X146785095Y-121612914D02*
X146785095Y-121565295D01*
X146785095Y-121565295D02*
X146832714Y-121470057D01*
X146832714Y-121470057D02*
X146880333Y-121422438D01*
X146880333Y-121422438D02*
X146975571Y-121374819D01*
X146975571Y-121374819D02*
X147166047Y-121374819D01*
X147166047Y-121374819D02*
X147261285Y-121422438D01*
X147261285Y-121422438D02*
X147308904Y-121470057D01*
X147308904Y-121470057D02*
X147356523Y-121565295D01*
X147356523Y-121565295D02*
X147356523Y-121612914D01*
X147356523Y-121612914D02*
X147308904Y-121708152D01*
X147308904Y-121708152D02*
X147261285Y-121755771D01*
X147261285Y-121755771D02*
X147166047Y-121803390D01*
X147166047Y-121803390D02*
X146975571Y-121803390D01*
X146975571Y-121803390D02*
X146880333Y-121851009D01*
X146880333Y-121851009D02*
X146832714Y-121898628D01*
X146832714Y-121898628D02*
X146785095Y-121993866D01*
X146785095Y-121993866D02*
X146785095Y-122184342D01*
X146785095Y-122184342D02*
X146832714Y-122279580D01*
X146832714Y-122279580D02*
X146880333Y-122327200D01*
X146880333Y-122327200D02*
X146975571Y-122374819D01*
X146975571Y-122374819D02*
X147166047Y-122374819D01*
X147166047Y-122374819D02*
X147261285Y-122327200D01*
X147261285Y-122327200D02*
X147308904Y-122279580D01*
X147308904Y-122279580D02*
X147356523Y-122184342D01*
X147356523Y-122184342D02*
X147356523Y-121993866D01*
X147356523Y-121993866D02*
X147308904Y-121898628D01*
X147308904Y-121898628D02*
X147261285Y-121851009D01*
X147261285Y-121851009D02*
X147166047Y-121803390D01*
X125595142Y-97387580D02*
X125547523Y-97435200D01*
X125547523Y-97435200D02*
X125404666Y-97482819D01*
X125404666Y-97482819D02*
X125309428Y-97482819D01*
X125309428Y-97482819D02*
X125166571Y-97435200D01*
X125166571Y-97435200D02*
X125071333Y-97339961D01*
X125071333Y-97339961D02*
X125023714Y-97244723D01*
X125023714Y-97244723D02*
X124976095Y-97054247D01*
X124976095Y-97054247D02*
X124976095Y-96911390D01*
X124976095Y-96911390D02*
X125023714Y-96720914D01*
X125023714Y-96720914D02*
X125071333Y-96625676D01*
X125071333Y-96625676D02*
X125166571Y-96530438D01*
X125166571Y-96530438D02*
X125309428Y-96482819D01*
X125309428Y-96482819D02*
X125404666Y-96482819D01*
X125404666Y-96482819D02*
X125547523Y-96530438D01*
X125547523Y-96530438D02*
X125595142Y-96578057D01*
X125976095Y-96578057D02*
X126023714Y-96530438D01*
X126023714Y-96530438D02*
X126118952Y-96482819D01*
X126118952Y-96482819D02*
X126357047Y-96482819D01*
X126357047Y-96482819D02*
X126452285Y-96530438D01*
X126452285Y-96530438D02*
X126499904Y-96578057D01*
X126499904Y-96578057D02*
X126547523Y-96673295D01*
X126547523Y-96673295D02*
X126547523Y-96768533D01*
X126547523Y-96768533D02*
X126499904Y-96911390D01*
X126499904Y-96911390D02*
X125928476Y-97482819D01*
X125928476Y-97482819D02*
X126547523Y-97482819D01*
X127023714Y-97482819D02*
X127214190Y-97482819D01*
X127214190Y-97482819D02*
X127309428Y-97435200D01*
X127309428Y-97435200D02*
X127357047Y-97387580D01*
X127357047Y-97387580D02*
X127452285Y-97244723D01*
X127452285Y-97244723D02*
X127499904Y-97054247D01*
X127499904Y-97054247D02*
X127499904Y-96673295D01*
X127499904Y-96673295D02*
X127452285Y-96578057D01*
X127452285Y-96578057D02*
X127404666Y-96530438D01*
X127404666Y-96530438D02*
X127309428Y-96482819D01*
X127309428Y-96482819D02*
X127118952Y-96482819D01*
X127118952Y-96482819D02*
X127023714Y-96530438D01*
X127023714Y-96530438D02*
X126976095Y-96578057D01*
X126976095Y-96578057D02*
X126928476Y-96673295D01*
X126928476Y-96673295D02*
X126928476Y-96911390D01*
X126928476Y-96911390D02*
X126976095Y-97006628D01*
X126976095Y-97006628D02*
X127023714Y-97054247D01*
X127023714Y-97054247D02*
X127118952Y-97101866D01*
X127118952Y-97101866D02*
X127309428Y-97101866D01*
X127309428Y-97101866D02*
X127404666Y-97054247D01*
X127404666Y-97054247D02*
X127452285Y-97006628D01*
X127452285Y-97006628D02*
X127499904Y-96911390D01*
X157204580Y-130182857D02*
X157252200Y-130230476D01*
X157252200Y-130230476D02*
X157299819Y-130373333D01*
X157299819Y-130373333D02*
X157299819Y-130468571D01*
X157299819Y-130468571D02*
X157252200Y-130611428D01*
X157252200Y-130611428D02*
X157156961Y-130706666D01*
X157156961Y-130706666D02*
X157061723Y-130754285D01*
X157061723Y-130754285D02*
X156871247Y-130801904D01*
X156871247Y-130801904D02*
X156728390Y-130801904D01*
X156728390Y-130801904D02*
X156537914Y-130754285D01*
X156537914Y-130754285D02*
X156442676Y-130706666D01*
X156442676Y-130706666D02*
X156347438Y-130611428D01*
X156347438Y-130611428D02*
X156299819Y-130468571D01*
X156299819Y-130468571D02*
X156299819Y-130373333D01*
X156299819Y-130373333D02*
X156347438Y-130230476D01*
X156347438Y-130230476D02*
X156395057Y-130182857D01*
X156395057Y-129801904D02*
X156347438Y-129754285D01*
X156347438Y-129754285D02*
X156299819Y-129659047D01*
X156299819Y-129659047D02*
X156299819Y-129420952D01*
X156299819Y-129420952D02*
X156347438Y-129325714D01*
X156347438Y-129325714D02*
X156395057Y-129278095D01*
X156395057Y-129278095D02*
X156490295Y-129230476D01*
X156490295Y-129230476D02*
X156585533Y-129230476D01*
X156585533Y-129230476D02*
X156728390Y-129278095D01*
X156728390Y-129278095D02*
X157299819Y-129849523D01*
X157299819Y-129849523D02*
X157299819Y-129230476D01*
X156395057Y-128849523D02*
X156347438Y-128801904D01*
X156347438Y-128801904D02*
X156299819Y-128706666D01*
X156299819Y-128706666D02*
X156299819Y-128468571D01*
X156299819Y-128468571D02*
X156347438Y-128373333D01*
X156347438Y-128373333D02*
X156395057Y-128325714D01*
X156395057Y-128325714D02*
X156490295Y-128278095D01*
X156490295Y-128278095D02*
X156585533Y-128278095D01*
X156585533Y-128278095D02*
X156728390Y-128325714D01*
X156728390Y-128325714D02*
X157299819Y-128897142D01*
X157299819Y-128897142D02*
X157299819Y-128278095D01*
X130611580Y-145422857D02*
X130659200Y-145470476D01*
X130659200Y-145470476D02*
X130706819Y-145613333D01*
X130706819Y-145613333D02*
X130706819Y-145708571D01*
X130706819Y-145708571D02*
X130659200Y-145851428D01*
X130659200Y-145851428D02*
X130563961Y-145946666D01*
X130563961Y-145946666D02*
X130468723Y-145994285D01*
X130468723Y-145994285D02*
X130278247Y-146041904D01*
X130278247Y-146041904D02*
X130135390Y-146041904D01*
X130135390Y-146041904D02*
X129944914Y-145994285D01*
X129944914Y-145994285D02*
X129849676Y-145946666D01*
X129849676Y-145946666D02*
X129754438Y-145851428D01*
X129754438Y-145851428D02*
X129706819Y-145708571D01*
X129706819Y-145708571D02*
X129706819Y-145613333D01*
X129706819Y-145613333D02*
X129754438Y-145470476D01*
X129754438Y-145470476D02*
X129802057Y-145422857D01*
X130706819Y-144470476D02*
X130706819Y-145041904D01*
X130706819Y-144756190D02*
X129706819Y-144756190D01*
X129706819Y-144756190D02*
X129849676Y-144851428D01*
X129849676Y-144851428D02*
X129944914Y-144946666D01*
X129944914Y-144946666D02*
X129992533Y-145041904D01*
X130135390Y-143899047D02*
X130087771Y-143994285D01*
X130087771Y-143994285D02*
X130040152Y-144041904D01*
X130040152Y-144041904D02*
X129944914Y-144089523D01*
X129944914Y-144089523D02*
X129897295Y-144089523D01*
X129897295Y-144089523D02*
X129802057Y-144041904D01*
X129802057Y-144041904D02*
X129754438Y-143994285D01*
X129754438Y-143994285D02*
X129706819Y-143899047D01*
X129706819Y-143899047D02*
X129706819Y-143708571D01*
X129706819Y-143708571D02*
X129754438Y-143613333D01*
X129754438Y-143613333D02*
X129802057Y-143565714D01*
X129802057Y-143565714D02*
X129897295Y-143518095D01*
X129897295Y-143518095D02*
X129944914Y-143518095D01*
X129944914Y-143518095D02*
X130040152Y-143565714D01*
X130040152Y-143565714D02*
X130087771Y-143613333D01*
X130087771Y-143613333D02*
X130135390Y-143708571D01*
X130135390Y-143708571D02*
X130135390Y-143899047D01*
X130135390Y-143899047D02*
X130183009Y-143994285D01*
X130183009Y-143994285D02*
X130230628Y-144041904D01*
X130230628Y-144041904D02*
X130325866Y-144089523D01*
X130325866Y-144089523D02*
X130516342Y-144089523D01*
X130516342Y-144089523D02*
X130611580Y-144041904D01*
X130611580Y-144041904D02*
X130659200Y-143994285D01*
X130659200Y-143994285D02*
X130706819Y-143899047D01*
X130706819Y-143899047D02*
X130706819Y-143708571D01*
X130706819Y-143708571D02*
X130659200Y-143613333D01*
X130659200Y-143613333D02*
X130611580Y-143565714D01*
X130611580Y-143565714D02*
X130516342Y-143518095D01*
X130516342Y-143518095D02*
X130325866Y-143518095D01*
X130325866Y-143518095D02*
X130230628Y-143565714D01*
X130230628Y-143565714D02*
X130183009Y-143613333D01*
X130183009Y-143613333D02*
X130135390Y-143708571D01*
X158982580Y-141739857D02*
X159030200Y-141787476D01*
X159030200Y-141787476D02*
X159077819Y-141930333D01*
X159077819Y-141930333D02*
X159077819Y-142025571D01*
X159077819Y-142025571D02*
X159030200Y-142168428D01*
X159030200Y-142168428D02*
X158934961Y-142263666D01*
X158934961Y-142263666D02*
X158839723Y-142311285D01*
X158839723Y-142311285D02*
X158649247Y-142358904D01*
X158649247Y-142358904D02*
X158506390Y-142358904D01*
X158506390Y-142358904D02*
X158315914Y-142311285D01*
X158315914Y-142311285D02*
X158220676Y-142263666D01*
X158220676Y-142263666D02*
X158125438Y-142168428D01*
X158125438Y-142168428D02*
X158077819Y-142025571D01*
X158077819Y-142025571D02*
X158077819Y-141930333D01*
X158077819Y-141930333D02*
X158125438Y-141787476D01*
X158125438Y-141787476D02*
X158173057Y-141739857D01*
X158173057Y-141358904D02*
X158125438Y-141311285D01*
X158125438Y-141311285D02*
X158077819Y-141216047D01*
X158077819Y-141216047D02*
X158077819Y-140977952D01*
X158077819Y-140977952D02*
X158125438Y-140882714D01*
X158125438Y-140882714D02*
X158173057Y-140835095D01*
X158173057Y-140835095D02*
X158268295Y-140787476D01*
X158268295Y-140787476D02*
X158363533Y-140787476D01*
X158363533Y-140787476D02*
X158506390Y-140835095D01*
X158506390Y-140835095D02*
X159077819Y-141406523D01*
X159077819Y-141406523D02*
X159077819Y-140787476D01*
X158077819Y-140454142D02*
X158077819Y-139835095D01*
X158077819Y-139835095D02*
X158458771Y-140168428D01*
X158458771Y-140168428D02*
X158458771Y-140025571D01*
X158458771Y-140025571D02*
X158506390Y-139930333D01*
X158506390Y-139930333D02*
X158554009Y-139882714D01*
X158554009Y-139882714D02*
X158649247Y-139835095D01*
X158649247Y-139835095D02*
X158887342Y-139835095D01*
X158887342Y-139835095D02*
X158982580Y-139882714D01*
X158982580Y-139882714D02*
X159030200Y-139930333D01*
X159030200Y-139930333D02*
X159077819Y-140025571D01*
X159077819Y-140025571D02*
X159077819Y-140311285D01*
X159077819Y-140311285D02*
X159030200Y-140406523D01*
X159030200Y-140406523D02*
X158982580Y-140454142D01*
X120229333Y-135074819D02*
X119896000Y-134598628D01*
X119657905Y-135074819D02*
X119657905Y-134074819D01*
X119657905Y-134074819D02*
X120038857Y-134074819D01*
X120038857Y-134074819D02*
X120134095Y-134122438D01*
X120134095Y-134122438D02*
X120181714Y-134170057D01*
X120181714Y-134170057D02*
X120229333Y-134265295D01*
X120229333Y-134265295D02*
X120229333Y-134408152D01*
X120229333Y-134408152D02*
X120181714Y-134503390D01*
X120181714Y-134503390D02*
X120134095Y-134551009D01*
X120134095Y-134551009D02*
X120038857Y-134598628D01*
X120038857Y-134598628D02*
X119657905Y-134598628D01*
X120562667Y-134074819D02*
X121181714Y-134074819D01*
X121181714Y-134074819D02*
X120848381Y-134455771D01*
X120848381Y-134455771D02*
X120991238Y-134455771D01*
X120991238Y-134455771D02*
X121086476Y-134503390D01*
X121086476Y-134503390D02*
X121134095Y-134551009D01*
X121134095Y-134551009D02*
X121181714Y-134646247D01*
X121181714Y-134646247D02*
X121181714Y-134884342D01*
X121181714Y-134884342D02*
X121134095Y-134979580D01*
X121134095Y-134979580D02*
X121086476Y-135027200D01*
X121086476Y-135027200D02*
X120991238Y-135074819D01*
X120991238Y-135074819D02*
X120705524Y-135074819D01*
X120705524Y-135074819D02*
X120610286Y-135027200D01*
X120610286Y-135027200D02*
X120562667Y-134979580D01*
X100248819Y-123015333D02*
X100963104Y-123015333D01*
X100963104Y-123015333D02*
X101105961Y-123062952D01*
X101105961Y-123062952D02*
X101201200Y-123158190D01*
X101201200Y-123158190D02*
X101248819Y-123301047D01*
X101248819Y-123301047D02*
X101248819Y-123396285D01*
X101248819Y-122015333D02*
X101248819Y-122586761D01*
X101248819Y-122301047D02*
X100248819Y-122301047D01*
X100248819Y-122301047D02*
X100391676Y-122396285D01*
X100391676Y-122396285D02*
X100486914Y-122491523D01*
X100486914Y-122491523D02*
X100534533Y-122586761D01*
X124428819Y-132240166D02*
X123952628Y-132573499D01*
X124428819Y-132811594D02*
X123428819Y-132811594D01*
X123428819Y-132811594D02*
X123428819Y-132430642D01*
X123428819Y-132430642D02*
X123476438Y-132335404D01*
X123476438Y-132335404D02*
X123524057Y-132287785D01*
X123524057Y-132287785D02*
X123619295Y-132240166D01*
X123619295Y-132240166D02*
X123762152Y-132240166D01*
X123762152Y-132240166D02*
X123857390Y-132287785D01*
X123857390Y-132287785D02*
X123905009Y-132335404D01*
X123905009Y-132335404D02*
X123952628Y-132430642D01*
X123952628Y-132430642D02*
X123952628Y-132811594D01*
X123524057Y-131859213D02*
X123476438Y-131811594D01*
X123476438Y-131811594D02*
X123428819Y-131716356D01*
X123428819Y-131716356D02*
X123428819Y-131478261D01*
X123428819Y-131478261D02*
X123476438Y-131383023D01*
X123476438Y-131383023D02*
X123524057Y-131335404D01*
X123524057Y-131335404D02*
X123619295Y-131287785D01*
X123619295Y-131287785D02*
X123714533Y-131287785D01*
X123714533Y-131287785D02*
X123857390Y-131335404D01*
X123857390Y-131335404D02*
X124428819Y-131906832D01*
X124428819Y-131906832D02*
X124428819Y-131287785D01*
X103324819Y-133516666D02*
X102848628Y-133849999D01*
X103324819Y-134088094D02*
X102324819Y-134088094D01*
X102324819Y-134088094D02*
X102324819Y-133707142D01*
X102324819Y-133707142D02*
X102372438Y-133611904D01*
X102372438Y-133611904D02*
X102420057Y-133564285D01*
X102420057Y-133564285D02*
X102515295Y-133516666D01*
X102515295Y-133516666D02*
X102658152Y-133516666D01*
X102658152Y-133516666D02*
X102753390Y-133564285D01*
X102753390Y-133564285D02*
X102801009Y-133611904D01*
X102801009Y-133611904D02*
X102848628Y-133707142D01*
X102848628Y-133707142D02*
X102848628Y-134088094D01*
X102324819Y-132611904D02*
X102324819Y-133088094D01*
X102324819Y-133088094D02*
X102801009Y-133135713D01*
X102801009Y-133135713D02*
X102753390Y-133088094D01*
X102753390Y-133088094D02*
X102705771Y-132992856D01*
X102705771Y-132992856D02*
X102705771Y-132754761D01*
X102705771Y-132754761D02*
X102753390Y-132659523D01*
X102753390Y-132659523D02*
X102801009Y-132611904D01*
X102801009Y-132611904D02*
X102896247Y-132564285D01*
X102896247Y-132564285D02*
X103134342Y-132564285D01*
X103134342Y-132564285D02*
X103229580Y-132611904D01*
X103229580Y-132611904D02*
X103277200Y-132659523D01*
X103277200Y-132659523D02*
X103324819Y-132754761D01*
X103324819Y-132754761D02*
X103324819Y-132992856D01*
X103324819Y-132992856D02*
X103277200Y-133088094D01*
X103277200Y-133088094D02*
X103229580Y-133135713D01*
X131042580Y-136278857D02*
X131090200Y-136326476D01*
X131090200Y-136326476D02*
X131137819Y-136469333D01*
X131137819Y-136469333D02*
X131137819Y-136564571D01*
X131137819Y-136564571D02*
X131090200Y-136707428D01*
X131090200Y-136707428D02*
X130994961Y-136802666D01*
X130994961Y-136802666D02*
X130899723Y-136850285D01*
X130899723Y-136850285D02*
X130709247Y-136897904D01*
X130709247Y-136897904D02*
X130566390Y-136897904D01*
X130566390Y-136897904D02*
X130375914Y-136850285D01*
X130375914Y-136850285D02*
X130280676Y-136802666D01*
X130280676Y-136802666D02*
X130185438Y-136707428D01*
X130185438Y-136707428D02*
X130137819Y-136564571D01*
X130137819Y-136564571D02*
X130137819Y-136469333D01*
X130137819Y-136469333D02*
X130185438Y-136326476D01*
X130185438Y-136326476D02*
X130233057Y-136278857D01*
X131137819Y-135326476D02*
X131137819Y-135897904D01*
X131137819Y-135612190D02*
X130137819Y-135612190D01*
X130137819Y-135612190D02*
X130280676Y-135707428D01*
X130280676Y-135707428D02*
X130375914Y-135802666D01*
X130375914Y-135802666D02*
X130423533Y-135897904D01*
X130137819Y-134421714D02*
X130137819Y-134897904D01*
X130137819Y-134897904D02*
X130614009Y-134945523D01*
X130614009Y-134945523D02*
X130566390Y-134897904D01*
X130566390Y-134897904D02*
X130518771Y-134802666D01*
X130518771Y-134802666D02*
X130518771Y-134564571D01*
X130518771Y-134564571D02*
X130566390Y-134469333D01*
X130566390Y-134469333D02*
X130614009Y-134421714D01*
X130614009Y-134421714D02*
X130709247Y-134374095D01*
X130709247Y-134374095D02*
X130947342Y-134374095D01*
X130947342Y-134374095D02*
X131042580Y-134421714D01*
X131042580Y-134421714D02*
X131090200Y-134469333D01*
X131090200Y-134469333D02*
X131137819Y-134564571D01*
X131137819Y-134564571D02*
X131137819Y-134802666D01*
X131137819Y-134802666D02*
X131090200Y-134897904D01*
X131090200Y-134897904D02*
X131042580Y-134945523D01*
X157204580Y-144787857D02*
X157252200Y-144835476D01*
X157252200Y-144835476D02*
X157299819Y-144978333D01*
X157299819Y-144978333D02*
X157299819Y-145073571D01*
X157299819Y-145073571D02*
X157252200Y-145216428D01*
X157252200Y-145216428D02*
X157156961Y-145311666D01*
X157156961Y-145311666D02*
X157061723Y-145359285D01*
X157061723Y-145359285D02*
X156871247Y-145406904D01*
X156871247Y-145406904D02*
X156728390Y-145406904D01*
X156728390Y-145406904D02*
X156537914Y-145359285D01*
X156537914Y-145359285D02*
X156442676Y-145311666D01*
X156442676Y-145311666D02*
X156347438Y-145216428D01*
X156347438Y-145216428D02*
X156299819Y-145073571D01*
X156299819Y-145073571D02*
X156299819Y-144978333D01*
X156299819Y-144978333D02*
X156347438Y-144835476D01*
X156347438Y-144835476D02*
X156395057Y-144787857D01*
X156395057Y-144406904D02*
X156347438Y-144359285D01*
X156347438Y-144359285D02*
X156299819Y-144264047D01*
X156299819Y-144264047D02*
X156299819Y-144025952D01*
X156299819Y-144025952D02*
X156347438Y-143930714D01*
X156347438Y-143930714D02*
X156395057Y-143883095D01*
X156395057Y-143883095D02*
X156490295Y-143835476D01*
X156490295Y-143835476D02*
X156585533Y-143835476D01*
X156585533Y-143835476D02*
X156728390Y-143883095D01*
X156728390Y-143883095D02*
X157299819Y-144454523D01*
X157299819Y-144454523D02*
X157299819Y-143835476D01*
X156633152Y-142978333D02*
X157299819Y-142978333D01*
X156252200Y-143216428D02*
X156966485Y-143454523D01*
X156966485Y-143454523D02*
X156966485Y-142835476D01*
X149979142Y-113643580D02*
X149931523Y-113691200D01*
X149931523Y-113691200D02*
X149788666Y-113738819D01*
X149788666Y-113738819D02*
X149693428Y-113738819D01*
X149693428Y-113738819D02*
X149550571Y-113691200D01*
X149550571Y-113691200D02*
X149455333Y-113595961D01*
X149455333Y-113595961D02*
X149407714Y-113500723D01*
X149407714Y-113500723D02*
X149360095Y-113310247D01*
X149360095Y-113310247D02*
X149360095Y-113167390D01*
X149360095Y-113167390D02*
X149407714Y-112976914D01*
X149407714Y-112976914D02*
X149455333Y-112881676D01*
X149455333Y-112881676D02*
X149550571Y-112786438D01*
X149550571Y-112786438D02*
X149693428Y-112738819D01*
X149693428Y-112738819D02*
X149788666Y-112738819D01*
X149788666Y-112738819D02*
X149931523Y-112786438D01*
X149931523Y-112786438D02*
X149979142Y-112834057D01*
X150931523Y-113738819D02*
X150360095Y-113738819D01*
X150645809Y-113738819D02*
X150645809Y-112738819D01*
X150645809Y-112738819D02*
X150550571Y-112881676D01*
X150550571Y-112881676D02*
X150455333Y-112976914D01*
X150455333Y-112976914D02*
X150360095Y-113024533D01*
X151264857Y-112738819D02*
X151883904Y-112738819D01*
X151883904Y-112738819D02*
X151550571Y-113119771D01*
X151550571Y-113119771D02*
X151693428Y-113119771D01*
X151693428Y-113119771D02*
X151788666Y-113167390D01*
X151788666Y-113167390D02*
X151836285Y-113215009D01*
X151836285Y-113215009D02*
X151883904Y-113310247D01*
X151883904Y-113310247D02*
X151883904Y-113548342D01*
X151883904Y-113548342D02*
X151836285Y-113643580D01*
X151836285Y-113643580D02*
X151788666Y-113691200D01*
X151788666Y-113691200D02*
X151693428Y-113738819D01*
X151693428Y-113738819D02*
X151407714Y-113738819D01*
X151407714Y-113738819D02*
X151312476Y-113691200D01*
X151312476Y-113691200D02*
X151264857Y-113643580D01*
X116967095Y-111087819D02*
X116967095Y-111897342D01*
X116967095Y-111897342D02*
X117014714Y-111992580D01*
X117014714Y-111992580D02*
X117062333Y-112040200D01*
X117062333Y-112040200D02*
X117157571Y-112087819D01*
X117157571Y-112087819D02*
X117348047Y-112087819D01*
X117348047Y-112087819D02*
X117443285Y-112040200D01*
X117443285Y-112040200D02*
X117490904Y-111992580D01*
X117490904Y-111992580D02*
X117538523Y-111897342D01*
X117538523Y-111897342D02*
X117538523Y-111087819D01*
X118538523Y-112087819D02*
X117967095Y-112087819D01*
X118252809Y-112087819D02*
X118252809Y-111087819D01*
X118252809Y-111087819D02*
X118157571Y-111230676D01*
X118157571Y-111230676D02*
X118062333Y-111325914D01*
X118062333Y-111325914D02*
X117967095Y-111373533D01*
X165354095Y-142567819D02*
X165354095Y-141567819D01*
X165354095Y-142044009D02*
X165925523Y-142044009D01*
X165925523Y-142567819D02*
X165925523Y-141567819D01*
X166306476Y-141567819D02*
X166925523Y-141567819D01*
X166925523Y-141567819D02*
X166592190Y-141948771D01*
X166592190Y-141948771D02*
X166735047Y-141948771D01*
X166735047Y-141948771D02*
X166830285Y-141996390D01*
X166830285Y-141996390D02*
X166877904Y-142044009D01*
X166877904Y-142044009D02*
X166925523Y-142139247D01*
X166925523Y-142139247D02*
X166925523Y-142377342D01*
X166925523Y-142377342D02*
X166877904Y-142472580D01*
X166877904Y-142472580D02*
X166830285Y-142520200D01*
X166830285Y-142520200D02*
X166735047Y-142567819D01*
X166735047Y-142567819D02*
X166449333Y-142567819D01*
X166449333Y-142567819D02*
X166354095Y-142520200D01*
X166354095Y-142520200D02*
X166306476Y-142472580D01*
X115516819Y-84335857D02*
X115040628Y-84669190D01*
X115516819Y-84907285D02*
X114516819Y-84907285D01*
X114516819Y-84907285D02*
X114516819Y-84526333D01*
X114516819Y-84526333D02*
X114564438Y-84431095D01*
X114564438Y-84431095D02*
X114612057Y-84383476D01*
X114612057Y-84383476D02*
X114707295Y-84335857D01*
X114707295Y-84335857D02*
X114850152Y-84335857D01*
X114850152Y-84335857D02*
X114945390Y-84383476D01*
X114945390Y-84383476D02*
X114993009Y-84431095D01*
X114993009Y-84431095D02*
X115040628Y-84526333D01*
X115040628Y-84526333D02*
X115040628Y-84907285D01*
X114612057Y-83954904D02*
X114564438Y-83907285D01*
X114564438Y-83907285D02*
X114516819Y-83812047D01*
X114516819Y-83812047D02*
X114516819Y-83573952D01*
X114516819Y-83573952D02*
X114564438Y-83478714D01*
X114564438Y-83478714D02*
X114612057Y-83431095D01*
X114612057Y-83431095D02*
X114707295Y-83383476D01*
X114707295Y-83383476D02*
X114802533Y-83383476D01*
X114802533Y-83383476D02*
X114945390Y-83431095D01*
X114945390Y-83431095D02*
X115516819Y-84002523D01*
X115516819Y-84002523D02*
X115516819Y-83383476D01*
X114850152Y-82526333D02*
X115516819Y-82526333D01*
X114469200Y-82764428D02*
X115183485Y-83002523D01*
X115183485Y-83002523D02*
X115183485Y-82383476D01*
X100425819Y-108676333D02*
X101140104Y-108676333D01*
X101140104Y-108676333D02*
X101282961Y-108723952D01*
X101282961Y-108723952D02*
X101378200Y-108819190D01*
X101378200Y-108819190D02*
X101425819Y-108962047D01*
X101425819Y-108962047D02*
X101425819Y-109057285D01*
X100425819Y-108295380D02*
X100425819Y-107676333D01*
X100425819Y-107676333D02*
X100806771Y-108009666D01*
X100806771Y-108009666D02*
X100806771Y-107866809D01*
X100806771Y-107866809D02*
X100854390Y-107771571D01*
X100854390Y-107771571D02*
X100902009Y-107723952D01*
X100902009Y-107723952D02*
X100997247Y-107676333D01*
X100997247Y-107676333D02*
X101235342Y-107676333D01*
X101235342Y-107676333D02*
X101330580Y-107723952D01*
X101330580Y-107723952D02*
X101378200Y-107771571D01*
X101378200Y-107771571D02*
X101425819Y-107866809D01*
X101425819Y-107866809D02*
X101425819Y-108152523D01*
X101425819Y-108152523D02*
X101378200Y-108247761D01*
X101378200Y-108247761D02*
X101330580Y-108295380D01*
X127581819Y-79509857D02*
X127105628Y-79843190D01*
X127581819Y-80081285D02*
X126581819Y-80081285D01*
X126581819Y-80081285D02*
X126581819Y-79700333D01*
X126581819Y-79700333D02*
X126629438Y-79605095D01*
X126629438Y-79605095D02*
X126677057Y-79557476D01*
X126677057Y-79557476D02*
X126772295Y-79509857D01*
X126772295Y-79509857D02*
X126915152Y-79509857D01*
X126915152Y-79509857D02*
X127010390Y-79557476D01*
X127010390Y-79557476D02*
X127058009Y-79605095D01*
X127058009Y-79605095D02*
X127105628Y-79700333D01*
X127105628Y-79700333D02*
X127105628Y-80081285D01*
X126677057Y-79128904D02*
X126629438Y-79081285D01*
X126629438Y-79081285D02*
X126581819Y-78986047D01*
X126581819Y-78986047D02*
X126581819Y-78747952D01*
X126581819Y-78747952D02*
X126629438Y-78652714D01*
X126629438Y-78652714D02*
X126677057Y-78605095D01*
X126677057Y-78605095D02*
X126772295Y-78557476D01*
X126772295Y-78557476D02*
X126867533Y-78557476D01*
X126867533Y-78557476D02*
X127010390Y-78605095D01*
X127010390Y-78605095D02*
X127581819Y-79176523D01*
X127581819Y-79176523D02*
X127581819Y-78557476D01*
X126581819Y-77652714D02*
X126581819Y-78128904D01*
X126581819Y-78128904D02*
X127058009Y-78176523D01*
X127058009Y-78176523D02*
X127010390Y-78128904D01*
X127010390Y-78128904D02*
X126962771Y-78033666D01*
X126962771Y-78033666D02*
X126962771Y-77795571D01*
X126962771Y-77795571D02*
X127010390Y-77700333D01*
X127010390Y-77700333D02*
X127058009Y-77652714D01*
X127058009Y-77652714D02*
X127153247Y-77605095D01*
X127153247Y-77605095D02*
X127391342Y-77605095D01*
X127391342Y-77605095D02*
X127486580Y-77652714D01*
X127486580Y-77652714D02*
X127534200Y-77700333D01*
X127534200Y-77700333D02*
X127581819Y-77795571D01*
X127581819Y-77795571D02*
X127581819Y-78033666D01*
X127581819Y-78033666D02*
X127534200Y-78128904D01*
X127534200Y-78128904D02*
X127486580Y-78176523D01*
X122801142Y-135741580D02*
X122753523Y-135789200D01*
X122753523Y-135789200D02*
X122610666Y-135836819D01*
X122610666Y-135836819D02*
X122515428Y-135836819D01*
X122515428Y-135836819D02*
X122372571Y-135789200D01*
X122372571Y-135789200D02*
X122277333Y-135693961D01*
X122277333Y-135693961D02*
X122229714Y-135598723D01*
X122229714Y-135598723D02*
X122182095Y-135408247D01*
X122182095Y-135408247D02*
X122182095Y-135265390D01*
X122182095Y-135265390D02*
X122229714Y-135074914D01*
X122229714Y-135074914D02*
X122277333Y-134979676D01*
X122277333Y-134979676D02*
X122372571Y-134884438D01*
X122372571Y-134884438D02*
X122515428Y-134836819D01*
X122515428Y-134836819D02*
X122610666Y-134836819D01*
X122610666Y-134836819D02*
X122753523Y-134884438D01*
X122753523Y-134884438D02*
X122801142Y-134932057D01*
X123182095Y-134932057D02*
X123229714Y-134884438D01*
X123229714Y-134884438D02*
X123324952Y-134836819D01*
X123324952Y-134836819D02*
X123563047Y-134836819D01*
X123563047Y-134836819D02*
X123658285Y-134884438D01*
X123658285Y-134884438D02*
X123705904Y-134932057D01*
X123705904Y-134932057D02*
X123753523Y-135027295D01*
X123753523Y-135027295D02*
X123753523Y-135122533D01*
X123753523Y-135122533D02*
X123705904Y-135265390D01*
X123705904Y-135265390D02*
X123134476Y-135836819D01*
X123134476Y-135836819D02*
X123753523Y-135836819D01*
X124324952Y-135265390D02*
X124229714Y-135217771D01*
X124229714Y-135217771D02*
X124182095Y-135170152D01*
X124182095Y-135170152D02*
X124134476Y-135074914D01*
X124134476Y-135074914D02*
X124134476Y-135027295D01*
X124134476Y-135027295D02*
X124182095Y-134932057D01*
X124182095Y-134932057D02*
X124229714Y-134884438D01*
X124229714Y-134884438D02*
X124324952Y-134836819D01*
X124324952Y-134836819D02*
X124515428Y-134836819D01*
X124515428Y-134836819D02*
X124610666Y-134884438D01*
X124610666Y-134884438D02*
X124658285Y-134932057D01*
X124658285Y-134932057D02*
X124705904Y-135027295D01*
X124705904Y-135027295D02*
X124705904Y-135074914D01*
X124705904Y-135074914D02*
X124658285Y-135170152D01*
X124658285Y-135170152D02*
X124610666Y-135217771D01*
X124610666Y-135217771D02*
X124515428Y-135265390D01*
X124515428Y-135265390D02*
X124324952Y-135265390D01*
X124324952Y-135265390D02*
X124229714Y-135313009D01*
X124229714Y-135313009D02*
X124182095Y-135360628D01*
X124182095Y-135360628D02*
X124134476Y-135455866D01*
X124134476Y-135455866D02*
X124134476Y-135646342D01*
X124134476Y-135646342D02*
X124182095Y-135741580D01*
X124182095Y-135741580D02*
X124229714Y-135789200D01*
X124229714Y-135789200D02*
X124324952Y-135836819D01*
X124324952Y-135836819D02*
X124515428Y-135836819D01*
X124515428Y-135836819D02*
X124610666Y-135789200D01*
X124610666Y-135789200D02*
X124658285Y-135741580D01*
X124658285Y-135741580D02*
X124705904Y-135646342D01*
X124705904Y-135646342D02*
X124705904Y-135455866D01*
X124705904Y-135455866D02*
X124658285Y-135360628D01*
X124658285Y-135360628D02*
X124610666Y-135313009D01*
X124610666Y-135313009D02*
X124515428Y-135265390D01*
X100603819Y-133595166D02*
X100127628Y-133928499D01*
X100603819Y-134166594D02*
X99603819Y-134166594D01*
X99603819Y-134166594D02*
X99603819Y-133785642D01*
X99603819Y-133785642D02*
X99651438Y-133690404D01*
X99651438Y-133690404D02*
X99699057Y-133642785D01*
X99699057Y-133642785D02*
X99794295Y-133595166D01*
X99794295Y-133595166D02*
X99937152Y-133595166D01*
X99937152Y-133595166D02*
X100032390Y-133642785D01*
X100032390Y-133642785D02*
X100080009Y-133690404D01*
X100080009Y-133690404D02*
X100127628Y-133785642D01*
X100127628Y-133785642D02*
X100127628Y-134166594D01*
X99603819Y-133261832D02*
X99603819Y-132595166D01*
X99603819Y-132595166D02*
X100603819Y-133023737D01*
X105029095Y-114614819D02*
X105029095Y-115424342D01*
X105029095Y-115424342D02*
X105076714Y-115519580D01*
X105076714Y-115519580D02*
X105124333Y-115567200D01*
X105124333Y-115567200D02*
X105219571Y-115614819D01*
X105219571Y-115614819D02*
X105410047Y-115614819D01*
X105410047Y-115614819D02*
X105505285Y-115567200D01*
X105505285Y-115567200D02*
X105552904Y-115519580D01*
X105552904Y-115519580D02*
X105600523Y-115424342D01*
X105600523Y-115424342D02*
X105600523Y-114614819D01*
X105981476Y-114614819D02*
X106648142Y-114614819D01*
X106648142Y-114614819D02*
X106219571Y-115614819D01*
X132516666Y-105118819D02*
X132516666Y-105833104D01*
X132516666Y-105833104D02*
X132469047Y-105975961D01*
X132469047Y-105975961D02*
X132373809Y-106071200D01*
X132373809Y-106071200D02*
X132230952Y-106118819D01*
X132230952Y-106118819D02*
X132135714Y-106118819D01*
X132992857Y-106118819D02*
X132992857Y-105118819D01*
X132992857Y-105118819D02*
X133373809Y-105118819D01*
X133373809Y-105118819D02*
X133469047Y-105166438D01*
X133469047Y-105166438D02*
X133516666Y-105214057D01*
X133516666Y-105214057D02*
X133564285Y-105309295D01*
X133564285Y-105309295D02*
X133564285Y-105452152D01*
X133564285Y-105452152D02*
X133516666Y-105547390D01*
X133516666Y-105547390D02*
X133469047Y-105595009D01*
X133469047Y-105595009D02*
X133373809Y-105642628D01*
X133373809Y-105642628D02*
X132992857Y-105642628D01*
X134516666Y-106118819D02*
X133945238Y-106118819D01*
X134230952Y-106118819D02*
X134230952Y-105118819D01*
X134230952Y-105118819D02*
X134135714Y-105261676D01*
X134135714Y-105261676D02*
X134040476Y-105356914D01*
X134040476Y-105356914D02*
X133945238Y-105404533D01*
X137977666Y-109913009D02*
X137644333Y-109913009D01*
X137644333Y-110436819D02*
X137644333Y-109436819D01*
X137644333Y-109436819D02*
X138120523Y-109436819D01*
X138834809Y-109913009D02*
X138977666Y-109960628D01*
X138977666Y-109960628D02*
X139025285Y-110008247D01*
X139025285Y-110008247D02*
X139072904Y-110103485D01*
X139072904Y-110103485D02*
X139072904Y-110246342D01*
X139072904Y-110246342D02*
X139025285Y-110341580D01*
X139025285Y-110341580D02*
X138977666Y-110389200D01*
X138977666Y-110389200D02*
X138882428Y-110436819D01*
X138882428Y-110436819D02*
X138501476Y-110436819D01*
X138501476Y-110436819D02*
X138501476Y-109436819D01*
X138501476Y-109436819D02*
X138834809Y-109436819D01*
X138834809Y-109436819D02*
X138930047Y-109484438D01*
X138930047Y-109484438D02*
X138977666Y-109532057D01*
X138977666Y-109532057D02*
X139025285Y-109627295D01*
X139025285Y-109627295D02*
X139025285Y-109722533D01*
X139025285Y-109722533D02*
X138977666Y-109817771D01*
X138977666Y-109817771D02*
X138930047Y-109865390D01*
X138930047Y-109865390D02*
X138834809Y-109913009D01*
X138834809Y-109913009D02*
X138501476Y-109913009D01*
X140025285Y-110436819D02*
X139453857Y-110436819D01*
X139739571Y-110436819D02*
X139739571Y-109436819D01*
X139739571Y-109436819D02*
X139644333Y-109579676D01*
X139644333Y-109579676D02*
X139549095Y-109674914D01*
X139549095Y-109674914D02*
X139453857Y-109722533D01*
X122769333Y-115929580D02*
X122721714Y-115977200D01*
X122721714Y-115977200D02*
X122578857Y-116024819D01*
X122578857Y-116024819D02*
X122483619Y-116024819D01*
X122483619Y-116024819D02*
X122340762Y-115977200D01*
X122340762Y-115977200D02*
X122245524Y-115881961D01*
X122245524Y-115881961D02*
X122197905Y-115786723D01*
X122197905Y-115786723D02*
X122150286Y-115596247D01*
X122150286Y-115596247D02*
X122150286Y-115453390D01*
X122150286Y-115453390D02*
X122197905Y-115262914D01*
X122197905Y-115262914D02*
X122245524Y-115167676D01*
X122245524Y-115167676D02*
X122340762Y-115072438D01*
X122340762Y-115072438D02*
X122483619Y-115024819D01*
X122483619Y-115024819D02*
X122578857Y-115024819D01*
X122578857Y-115024819D02*
X122721714Y-115072438D01*
X122721714Y-115072438D02*
X122769333Y-115120057D01*
X123340762Y-115453390D02*
X123245524Y-115405771D01*
X123245524Y-115405771D02*
X123197905Y-115358152D01*
X123197905Y-115358152D02*
X123150286Y-115262914D01*
X123150286Y-115262914D02*
X123150286Y-115215295D01*
X123150286Y-115215295D02*
X123197905Y-115120057D01*
X123197905Y-115120057D02*
X123245524Y-115072438D01*
X123245524Y-115072438D02*
X123340762Y-115024819D01*
X123340762Y-115024819D02*
X123531238Y-115024819D01*
X123531238Y-115024819D02*
X123626476Y-115072438D01*
X123626476Y-115072438D02*
X123674095Y-115120057D01*
X123674095Y-115120057D02*
X123721714Y-115215295D01*
X123721714Y-115215295D02*
X123721714Y-115262914D01*
X123721714Y-115262914D02*
X123674095Y-115358152D01*
X123674095Y-115358152D02*
X123626476Y-115405771D01*
X123626476Y-115405771D02*
X123531238Y-115453390D01*
X123531238Y-115453390D02*
X123340762Y-115453390D01*
X123340762Y-115453390D02*
X123245524Y-115501009D01*
X123245524Y-115501009D02*
X123197905Y-115548628D01*
X123197905Y-115548628D02*
X123150286Y-115643866D01*
X123150286Y-115643866D02*
X123150286Y-115834342D01*
X123150286Y-115834342D02*
X123197905Y-115929580D01*
X123197905Y-115929580D02*
X123245524Y-115977200D01*
X123245524Y-115977200D02*
X123340762Y-116024819D01*
X123340762Y-116024819D02*
X123531238Y-116024819D01*
X123531238Y-116024819D02*
X123626476Y-115977200D01*
X123626476Y-115977200D02*
X123674095Y-115929580D01*
X123674095Y-115929580D02*
X123721714Y-115834342D01*
X123721714Y-115834342D02*
X123721714Y-115643866D01*
X123721714Y-115643866D02*
X123674095Y-115548628D01*
X123674095Y-115548628D02*
X123626476Y-115501009D01*
X123626476Y-115501009D02*
X123531238Y-115453390D01*
X104848819Y-136183666D02*
X104372628Y-136516999D01*
X104848819Y-136755094D02*
X103848819Y-136755094D01*
X103848819Y-136755094D02*
X103848819Y-136374142D01*
X103848819Y-136374142D02*
X103896438Y-136278904D01*
X103896438Y-136278904D02*
X103944057Y-136231285D01*
X103944057Y-136231285D02*
X104039295Y-136183666D01*
X104039295Y-136183666D02*
X104182152Y-136183666D01*
X104182152Y-136183666D02*
X104277390Y-136231285D01*
X104277390Y-136231285D02*
X104325009Y-136278904D01*
X104325009Y-136278904D02*
X104372628Y-136374142D01*
X104372628Y-136374142D02*
X104372628Y-136755094D01*
X103848819Y-135326523D02*
X103848819Y-135516999D01*
X103848819Y-135516999D02*
X103896438Y-135612237D01*
X103896438Y-135612237D02*
X103944057Y-135659856D01*
X103944057Y-135659856D02*
X104086914Y-135755094D01*
X104086914Y-135755094D02*
X104277390Y-135802713D01*
X104277390Y-135802713D02*
X104658342Y-135802713D01*
X104658342Y-135802713D02*
X104753580Y-135755094D01*
X104753580Y-135755094D02*
X104801200Y-135707475D01*
X104801200Y-135707475D02*
X104848819Y-135612237D01*
X104848819Y-135612237D02*
X104848819Y-135421761D01*
X104848819Y-135421761D02*
X104801200Y-135326523D01*
X104801200Y-135326523D02*
X104753580Y-135278904D01*
X104753580Y-135278904D02*
X104658342Y-135231285D01*
X104658342Y-135231285D02*
X104420247Y-135231285D01*
X104420247Y-135231285D02*
X104325009Y-135278904D01*
X104325009Y-135278904D02*
X104277390Y-135326523D01*
X104277390Y-135326523D02*
X104229771Y-135421761D01*
X104229771Y-135421761D02*
X104229771Y-135612237D01*
X104229771Y-135612237D02*
X104277390Y-135707475D01*
X104277390Y-135707475D02*
X104325009Y-135755094D01*
X104325009Y-135755094D02*
X104420247Y-135802713D01*
X148282819Y-114688857D02*
X147806628Y-115022190D01*
X148282819Y-115260285D02*
X147282819Y-115260285D01*
X147282819Y-115260285D02*
X147282819Y-114879333D01*
X147282819Y-114879333D02*
X147330438Y-114784095D01*
X147330438Y-114784095D02*
X147378057Y-114736476D01*
X147378057Y-114736476D02*
X147473295Y-114688857D01*
X147473295Y-114688857D02*
X147616152Y-114688857D01*
X147616152Y-114688857D02*
X147711390Y-114736476D01*
X147711390Y-114736476D02*
X147759009Y-114784095D01*
X147759009Y-114784095D02*
X147806628Y-114879333D01*
X147806628Y-114879333D02*
X147806628Y-115260285D01*
X148282819Y-113736476D02*
X148282819Y-114307904D01*
X148282819Y-114022190D02*
X147282819Y-114022190D01*
X147282819Y-114022190D02*
X147425676Y-114117428D01*
X147425676Y-114117428D02*
X147520914Y-114212666D01*
X147520914Y-114212666D02*
X147568533Y-114307904D01*
X147282819Y-112879333D02*
X147282819Y-113069809D01*
X147282819Y-113069809D02*
X147330438Y-113165047D01*
X147330438Y-113165047D02*
X147378057Y-113212666D01*
X147378057Y-113212666D02*
X147520914Y-113307904D01*
X147520914Y-113307904D02*
X147711390Y-113355523D01*
X147711390Y-113355523D02*
X148092342Y-113355523D01*
X148092342Y-113355523D02*
X148187580Y-113307904D01*
X148187580Y-113307904D02*
X148235200Y-113260285D01*
X148235200Y-113260285D02*
X148282819Y-113165047D01*
X148282819Y-113165047D02*
X148282819Y-112974571D01*
X148282819Y-112974571D02*
X148235200Y-112879333D01*
X148235200Y-112879333D02*
X148187580Y-112831714D01*
X148187580Y-112831714D02*
X148092342Y-112784095D01*
X148092342Y-112784095D02*
X147854247Y-112784095D01*
X147854247Y-112784095D02*
X147759009Y-112831714D01*
X147759009Y-112831714D02*
X147711390Y-112879333D01*
X147711390Y-112879333D02*
X147663771Y-112974571D01*
X147663771Y-112974571D02*
X147663771Y-113165047D01*
X147663771Y-113165047D02*
X147711390Y-113260285D01*
X147711390Y-113260285D02*
X147759009Y-113307904D01*
X147759009Y-113307904D02*
X147854247Y-113355523D01*
X110722095Y-130384819D02*
X110722095Y-131194342D01*
X110722095Y-131194342D02*
X110769714Y-131289580D01*
X110769714Y-131289580D02*
X110817333Y-131337200D01*
X110817333Y-131337200D02*
X110912571Y-131384819D01*
X110912571Y-131384819D02*
X111103047Y-131384819D01*
X111103047Y-131384819D02*
X111198285Y-131337200D01*
X111198285Y-131337200D02*
X111245904Y-131289580D01*
X111245904Y-131289580D02*
X111293523Y-131194342D01*
X111293523Y-131194342D02*
X111293523Y-130384819D01*
X112198285Y-130718152D02*
X112198285Y-131384819D01*
X111960190Y-130337200D02*
X111722095Y-131051485D01*
X111722095Y-131051485D02*
X112341142Y-131051485D01*
X134979580Y-74080666D02*
X135027200Y-74128285D01*
X135027200Y-74128285D02*
X135074819Y-74271142D01*
X135074819Y-74271142D02*
X135074819Y-74366380D01*
X135074819Y-74366380D02*
X135027200Y-74509237D01*
X135027200Y-74509237D02*
X134931961Y-74604475D01*
X134931961Y-74604475D02*
X134836723Y-74652094D01*
X134836723Y-74652094D02*
X134646247Y-74699713D01*
X134646247Y-74699713D02*
X134503390Y-74699713D01*
X134503390Y-74699713D02*
X134312914Y-74652094D01*
X134312914Y-74652094D02*
X134217676Y-74604475D01*
X134217676Y-74604475D02*
X134122438Y-74509237D01*
X134122438Y-74509237D02*
X134074819Y-74366380D01*
X134074819Y-74366380D02*
X134074819Y-74271142D01*
X134074819Y-74271142D02*
X134122438Y-74128285D01*
X134122438Y-74128285D02*
X134170057Y-74080666D01*
X134074819Y-73747332D02*
X134074819Y-73128285D01*
X134074819Y-73128285D02*
X134455771Y-73461618D01*
X134455771Y-73461618D02*
X134455771Y-73318761D01*
X134455771Y-73318761D02*
X134503390Y-73223523D01*
X134503390Y-73223523D02*
X134551009Y-73175904D01*
X134551009Y-73175904D02*
X134646247Y-73128285D01*
X134646247Y-73128285D02*
X134884342Y-73128285D01*
X134884342Y-73128285D02*
X134979580Y-73175904D01*
X134979580Y-73175904D02*
X135027200Y-73223523D01*
X135027200Y-73223523D02*
X135074819Y-73318761D01*
X135074819Y-73318761D02*
X135074819Y-73604475D01*
X135074819Y-73604475D02*
X135027200Y-73699713D01*
X135027200Y-73699713D02*
X134979580Y-73747332D01*
X103447002Y-106531580D02*
X103399383Y-106579200D01*
X103399383Y-106579200D02*
X103256526Y-106626819D01*
X103256526Y-106626819D02*
X103161288Y-106626819D01*
X103161288Y-106626819D02*
X103018431Y-106579200D01*
X103018431Y-106579200D02*
X102923193Y-106483961D01*
X102923193Y-106483961D02*
X102875574Y-106388723D01*
X102875574Y-106388723D02*
X102827955Y-106198247D01*
X102827955Y-106198247D02*
X102827955Y-106055390D01*
X102827955Y-106055390D02*
X102875574Y-105864914D01*
X102875574Y-105864914D02*
X102923193Y-105769676D01*
X102923193Y-105769676D02*
X103018431Y-105674438D01*
X103018431Y-105674438D02*
X103161288Y-105626819D01*
X103161288Y-105626819D02*
X103256526Y-105626819D01*
X103256526Y-105626819D02*
X103399383Y-105674438D01*
X103399383Y-105674438D02*
X103447002Y-105722057D01*
X104351764Y-105626819D02*
X103875574Y-105626819D01*
X103875574Y-105626819D02*
X103827955Y-106103009D01*
X103827955Y-106103009D02*
X103875574Y-106055390D01*
X103875574Y-106055390D02*
X103970812Y-106007771D01*
X103970812Y-106007771D02*
X104208907Y-106007771D01*
X104208907Y-106007771D02*
X104304145Y-106055390D01*
X104304145Y-106055390D02*
X104351764Y-106103009D01*
X104351764Y-106103009D02*
X104399383Y-106198247D01*
X104399383Y-106198247D02*
X104399383Y-106436342D01*
X104399383Y-106436342D02*
X104351764Y-106531580D01*
X104351764Y-106531580D02*
X104304145Y-106579200D01*
X104304145Y-106579200D02*
X104208907Y-106626819D01*
X104208907Y-106626819D02*
X103970812Y-106626819D01*
X103970812Y-106626819D02*
X103875574Y-106579200D01*
X103875574Y-106579200D02*
X103827955Y-106531580D01*
X163187142Y-115929580D02*
X163139523Y-115977200D01*
X163139523Y-115977200D02*
X162996666Y-116024819D01*
X162996666Y-116024819D02*
X162901428Y-116024819D01*
X162901428Y-116024819D02*
X162758571Y-115977200D01*
X162758571Y-115977200D02*
X162663333Y-115881961D01*
X162663333Y-115881961D02*
X162615714Y-115786723D01*
X162615714Y-115786723D02*
X162568095Y-115596247D01*
X162568095Y-115596247D02*
X162568095Y-115453390D01*
X162568095Y-115453390D02*
X162615714Y-115262914D01*
X162615714Y-115262914D02*
X162663333Y-115167676D01*
X162663333Y-115167676D02*
X162758571Y-115072438D01*
X162758571Y-115072438D02*
X162901428Y-115024819D01*
X162901428Y-115024819D02*
X162996666Y-115024819D01*
X162996666Y-115024819D02*
X163139523Y-115072438D01*
X163139523Y-115072438D02*
X163187142Y-115120057D01*
X163568095Y-115120057D02*
X163615714Y-115072438D01*
X163615714Y-115072438D02*
X163710952Y-115024819D01*
X163710952Y-115024819D02*
X163949047Y-115024819D01*
X163949047Y-115024819D02*
X164044285Y-115072438D01*
X164044285Y-115072438D02*
X164091904Y-115120057D01*
X164091904Y-115120057D02*
X164139523Y-115215295D01*
X164139523Y-115215295D02*
X164139523Y-115310533D01*
X164139523Y-115310533D02*
X164091904Y-115453390D01*
X164091904Y-115453390D02*
X163520476Y-116024819D01*
X163520476Y-116024819D02*
X164139523Y-116024819D01*
X164996666Y-115024819D02*
X164806190Y-115024819D01*
X164806190Y-115024819D02*
X164710952Y-115072438D01*
X164710952Y-115072438D02*
X164663333Y-115120057D01*
X164663333Y-115120057D02*
X164568095Y-115262914D01*
X164568095Y-115262914D02*
X164520476Y-115453390D01*
X164520476Y-115453390D02*
X164520476Y-115834342D01*
X164520476Y-115834342D02*
X164568095Y-115929580D01*
X164568095Y-115929580D02*
X164615714Y-115977200D01*
X164615714Y-115977200D02*
X164710952Y-116024819D01*
X164710952Y-116024819D02*
X164901428Y-116024819D01*
X164901428Y-116024819D02*
X164996666Y-115977200D01*
X164996666Y-115977200D02*
X165044285Y-115929580D01*
X165044285Y-115929580D02*
X165091904Y-115834342D01*
X165091904Y-115834342D02*
X165091904Y-115596247D01*
X165091904Y-115596247D02*
X165044285Y-115501009D01*
X165044285Y-115501009D02*
X164996666Y-115453390D01*
X164996666Y-115453390D02*
X164901428Y-115405771D01*
X164901428Y-115405771D02*
X164710952Y-115405771D01*
X164710952Y-115405771D02*
X164615714Y-115453390D01*
X164615714Y-115453390D02*
X164568095Y-115501009D01*
X164568095Y-115501009D02*
X164520476Y-115596247D01*
X132842095Y-95720819D02*
X132842095Y-96530342D01*
X132842095Y-96530342D02*
X132889714Y-96625580D01*
X132889714Y-96625580D02*
X132937333Y-96673200D01*
X132937333Y-96673200D02*
X133032571Y-96720819D01*
X133032571Y-96720819D02*
X133223047Y-96720819D01*
X133223047Y-96720819D02*
X133318285Y-96673200D01*
X133318285Y-96673200D02*
X133365904Y-96625580D01*
X133365904Y-96625580D02*
X133413523Y-96530342D01*
X133413523Y-96530342D02*
X133413523Y-95720819D01*
X133937333Y-96720819D02*
X134127809Y-96720819D01*
X134127809Y-96720819D02*
X134223047Y-96673200D01*
X134223047Y-96673200D02*
X134270666Y-96625580D01*
X134270666Y-96625580D02*
X134365904Y-96482723D01*
X134365904Y-96482723D02*
X134413523Y-96292247D01*
X134413523Y-96292247D02*
X134413523Y-95911295D01*
X134413523Y-95911295D02*
X134365904Y-95816057D01*
X134365904Y-95816057D02*
X134318285Y-95768438D01*
X134318285Y-95768438D02*
X134223047Y-95720819D01*
X134223047Y-95720819D02*
X134032571Y-95720819D01*
X134032571Y-95720819D02*
X133937333Y-95768438D01*
X133937333Y-95768438D02*
X133889714Y-95816057D01*
X133889714Y-95816057D02*
X133842095Y-95911295D01*
X133842095Y-95911295D02*
X133842095Y-96149390D01*
X133842095Y-96149390D02*
X133889714Y-96244628D01*
X133889714Y-96244628D02*
X133937333Y-96292247D01*
X133937333Y-96292247D02*
X134032571Y-96339866D01*
X134032571Y-96339866D02*
X134223047Y-96339866D01*
X134223047Y-96339866D02*
X134318285Y-96292247D01*
X134318285Y-96292247D02*
X134365904Y-96244628D01*
X134365904Y-96244628D02*
X134413523Y-96149390D01*
X153281142Y-112214819D02*
X152947809Y-111738628D01*
X152709714Y-112214819D02*
X152709714Y-111214819D01*
X152709714Y-111214819D02*
X153090666Y-111214819D01*
X153090666Y-111214819D02*
X153185904Y-111262438D01*
X153185904Y-111262438D02*
X153233523Y-111310057D01*
X153233523Y-111310057D02*
X153281142Y-111405295D01*
X153281142Y-111405295D02*
X153281142Y-111548152D01*
X153281142Y-111548152D02*
X153233523Y-111643390D01*
X153233523Y-111643390D02*
X153185904Y-111691009D01*
X153185904Y-111691009D02*
X153090666Y-111738628D01*
X153090666Y-111738628D02*
X152709714Y-111738628D01*
X154233523Y-112214819D02*
X153662095Y-112214819D01*
X153947809Y-112214819D02*
X153947809Y-111214819D01*
X153947809Y-111214819D02*
X153852571Y-111357676D01*
X153852571Y-111357676D02*
X153757333Y-111452914D01*
X153757333Y-111452914D02*
X153662095Y-111500533D01*
X154709714Y-112214819D02*
X154900190Y-112214819D01*
X154900190Y-112214819D02*
X154995428Y-112167200D01*
X154995428Y-112167200D02*
X155043047Y-112119580D01*
X155043047Y-112119580D02*
X155138285Y-111976723D01*
X155138285Y-111976723D02*
X155185904Y-111786247D01*
X155185904Y-111786247D02*
X155185904Y-111405295D01*
X155185904Y-111405295D02*
X155138285Y-111310057D01*
X155138285Y-111310057D02*
X155090666Y-111262438D01*
X155090666Y-111262438D02*
X154995428Y-111214819D01*
X154995428Y-111214819D02*
X154804952Y-111214819D01*
X154804952Y-111214819D02*
X154709714Y-111262438D01*
X154709714Y-111262438D02*
X154662095Y-111310057D01*
X154662095Y-111310057D02*
X154614476Y-111405295D01*
X154614476Y-111405295D02*
X154614476Y-111643390D01*
X154614476Y-111643390D02*
X154662095Y-111738628D01*
X154662095Y-111738628D02*
X154709714Y-111786247D01*
X154709714Y-111786247D02*
X154804952Y-111833866D01*
X154804952Y-111833866D02*
X154995428Y-111833866D01*
X154995428Y-111833866D02*
X155090666Y-111786247D01*
X155090666Y-111786247D02*
X155138285Y-111738628D01*
X155138285Y-111738628D02*
X155185904Y-111643390D01*
X164973095Y-79129819D02*
X164973095Y-78129819D01*
X164973095Y-78606009D02*
X165544523Y-78606009D01*
X165544523Y-79129819D02*
X165544523Y-78129819D01*
X165973095Y-78225057D02*
X166020714Y-78177438D01*
X166020714Y-78177438D02*
X166115952Y-78129819D01*
X166115952Y-78129819D02*
X166354047Y-78129819D01*
X166354047Y-78129819D02*
X166449285Y-78177438D01*
X166449285Y-78177438D02*
X166496904Y-78225057D01*
X166496904Y-78225057D02*
X166544523Y-78320295D01*
X166544523Y-78320295D02*
X166544523Y-78415533D01*
X166544523Y-78415533D02*
X166496904Y-78558390D01*
X166496904Y-78558390D02*
X165925476Y-79129819D01*
X165925476Y-79129819D02*
X166544523Y-79129819D01*
X119816666Y-125797819D02*
X119816666Y-126512104D01*
X119816666Y-126512104D02*
X119769047Y-126654961D01*
X119769047Y-126654961D02*
X119673809Y-126750200D01*
X119673809Y-126750200D02*
X119530952Y-126797819D01*
X119530952Y-126797819D02*
X119435714Y-126797819D01*
X120292857Y-126797819D02*
X120292857Y-125797819D01*
X120292857Y-125797819D02*
X120673809Y-125797819D01*
X120673809Y-125797819D02*
X120769047Y-125845438D01*
X120769047Y-125845438D02*
X120816666Y-125893057D01*
X120816666Y-125893057D02*
X120864285Y-125988295D01*
X120864285Y-125988295D02*
X120864285Y-126131152D01*
X120864285Y-126131152D02*
X120816666Y-126226390D01*
X120816666Y-126226390D02*
X120769047Y-126274009D01*
X120769047Y-126274009D02*
X120673809Y-126321628D01*
X120673809Y-126321628D02*
X120292857Y-126321628D01*
X121197619Y-125797819D02*
X121816666Y-125797819D01*
X121816666Y-125797819D02*
X121483333Y-126178771D01*
X121483333Y-126178771D02*
X121626190Y-126178771D01*
X121626190Y-126178771D02*
X121721428Y-126226390D01*
X121721428Y-126226390D02*
X121769047Y-126274009D01*
X121769047Y-126274009D02*
X121816666Y-126369247D01*
X121816666Y-126369247D02*
X121816666Y-126607342D01*
X121816666Y-126607342D02*
X121769047Y-126702580D01*
X121769047Y-126702580D02*
X121721428Y-126750200D01*
X121721428Y-126750200D02*
X121626190Y-126797819D01*
X121626190Y-126797819D02*
X121340476Y-126797819D01*
X121340476Y-126797819D02*
X121245238Y-126750200D01*
X121245238Y-126750200D02*
X121197619Y-126702580D01*
X149756905Y-125930819D02*
X149756905Y-124930819D01*
X149756905Y-124930819D02*
X149995000Y-124930819D01*
X149995000Y-124930819D02*
X150137857Y-124978438D01*
X150137857Y-124978438D02*
X150233095Y-125073676D01*
X150233095Y-125073676D02*
X150280714Y-125168914D01*
X150280714Y-125168914D02*
X150328333Y-125359390D01*
X150328333Y-125359390D02*
X150328333Y-125502247D01*
X150328333Y-125502247D02*
X150280714Y-125692723D01*
X150280714Y-125692723D02*
X150233095Y-125787961D01*
X150233095Y-125787961D02*
X150137857Y-125883200D01*
X150137857Y-125883200D02*
X149995000Y-125930819D01*
X149995000Y-125930819D02*
X149756905Y-125930819D01*
X150709286Y-125026057D02*
X150756905Y-124978438D01*
X150756905Y-124978438D02*
X150852143Y-124930819D01*
X150852143Y-124930819D02*
X151090238Y-124930819D01*
X151090238Y-124930819D02*
X151185476Y-124978438D01*
X151185476Y-124978438D02*
X151233095Y-125026057D01*
X151233095Y-125026057D02*
X151280714Y-125121295D01*
X151280714Y-125121295D02*
X151280714Y-125216533D01*
X151280714Y-125216533D02*
X151233095Y-125359390D01*
X151233095Y-125359390D02*
X150661667Y-125930819D01*
X150661667Y-125930819D02*
X151280714Y-125930819D01*
X125962580Y-79509857D02*
X126010200Y-79557476D01*
X126010200Y-79557476D02*
X126057819Y-79700333D01*
X126057819Y-79700333D02*
X126057819Y-79795571D01*
X126057819Y-79795571D02*
X126010200Y-79938428D01*
X126010200Y-79938428D02*
X125914961Y-80033666D01*
X125914961Y-80033666D02*
X125819723Y-80081285D01*
X125819723Y-80081285D02*
X125629247Y-80128904D01*
X125629247Y-80128904D02*
X125486390Y-80128904D01*
X125486390Y-80128904D02*
X125295914Y-80081285D01*
X125295914Y-80081285D02*
X125200676Y-80033666D01*
X125200676Y-80033666D02*
X125105438Y-79938428D01*
X125105438Y-79938428D02*
X125057819Y-79795571D01*
X125057819Y-79795571D02*
X125057819Y-79700333D01*
X125057819Y-79700333D02*
X125105438Y-79557476D01*
X125105438Y-79557476D02*
X125153057Y-79509857D01*
X125057819Y-79176523D02*
X125057819Y-78557476D01*
X125057819Y-78557476D02*
X125438771Y-78890809D01*
X125438771Y-78890809D02*
X125438771Y-78747952D01*
X125438771Y-78747952D02*
X125486390Y-78652714D01*
X125486390Y-78652714D02*
X125534009Y-78605095D01*
X125534009Y-78605095D02*
X125629247Y-78557476D01*
X125629247Y-78557476D02*
X125867342Y-78557476D01*
X125867342Y-78557476D02*
X125962580Y-78605095D01*
X125962580Y-78605095D02*
X126010200Y-78652714D01*
X126010200Y-78652714D02*
X126057819Y-78747952D01*
X126057819Y-78747952D02*
X126057819Y-79033666D01*
X126057819Y-79033666D02*
X126010200Y-79128904D01*
X126010200Y-79128904D02*
X125962580Y-79176523D01*
X126057819Y-77605095D02*
X126057819Y-78176523D01*
X126057819Y-77890809D02*
X125057819Y-77890809D01*
X125057819Y-77890809D02*
X125200676Y-77986047D01*
X125200676Y-77986047D02*
X125295914Y-78081285D01*
X125295914Y-78081285D02*
X125343533Y-78176523D01*
X156646714Y-125041819D02*
X156646714Y-124041819D01*
X156646714Y-124041819D02*
X156884809Y-124041819D01*
X156884809Y-124041819D02*
X157027666Y-124089438D01*
X157027666Y-124089438D02*
X157122904Y-124184676D01*
X157122904Y-124184676D02*
X157170523Y-124279914D01*
X157170523Y-124279914D02*
X157218142Y-124470390D01*
X157218142Y-124470390D02*
X157218142Y-124613247D01*
X157218142Y-124613247D02*
X157170523Y-124803723D01*
X157170523Y-124803723D02*
X157122904Y-124898961D01*
X157122904Y-124898961D02*
X157027666Y-124994200D01*
X157027666Y-124994200D02*
X156884809Y-125041819D01*
X156884809Y-125041819D02*
X156646714Y-125041819D01*
X158170523Y-125041819D02*
X157599095Y-125041819D01*
X157884809Y-125041819D02*
X157884809Y-124041819D01*
X157884809Y-124041819D02*
X157789571Y-124184676D01*
X157789571Y-124184676D02*
X157694333Y-124279914D01*
X157694333Y-124279914D02*
X157599095Y-124327533D01*
X158503857Y-124041819D02*
X159122904Y-124041819D01*
X159122904Y-124041819D02*
X158789571Y-124422771D01*
X158789571Y-124422771D02*
X158932428Y-124422771D01*
X158932428Y-124422771D02*
X159027666Y-124470390D01*
X159027666Y-124470390D02*
X159075285Y-124518009D01*
X159075285Y-124518009D02*
X159122904Y-124613247D01*
X159122904Y-124613247D02*
X159122904Y-124851342D01*
X159122904Y-124851342D02*
X159075285Y-124946580D01*
X159075285Y-124946580D02*
X159027666Y-124994200D01*
X159027666Y-124994200D02*
X158932428Y-125041819D01*
X158932428Y-125041819D02*
X158646714Y-125041819D01*
X158646714Y-125041819D02*
X158551476Y-124994200D01*
X158551476Y-124994200D02*
X158503857Y-124946580D01*
X113563319Y-86240857D02*
X113087128Y-86574190D01*
X113563319Y-86812285D02*
X112563319Y-86812285D01*
X112563319Y-86812285D02*
X112563319Y-86431333D01*
X112563319Y-86431333D02*
X112610938Y-86336095D01*
X112610938Y-86336095D02*
X112658557Y-86288476D01*
X112658557Y-86288476D02*
X112753795Y-86240857D01*
X112753795Y-86240857D02*
X112896652Y-86240857D01*
X112896652Y-86240857D02*
X112991890Y-86288476D01*
X112991890Y-86288476D02*
X113039509Y-86336095D01*
X113039509Y-86336095D02*
X113087128Y-86431333D01*
X113087128Y-86431333D02*
X113087128Y-86812285D01*
X112658557Y-85859904D02*
X112610938Y-85812285D01*
X112610938Y-85812285D02*
X112563319Y-85717047D01*
X112563319Y-85717047D02*
X112563319Y-85478952D01*
X112563319Y-85478952D02*
X112610938Y-85383714D01*
X112610938Y-85383714D02*
X112658557Y-85336095D01*
X112658557Y-85336095D02*
X112753795Y-85288476D01*
X112753795Y-85288476D02*
X112849033Y-85288476D01*
X112849033Y-85288476D02*
X112991890Y-85336095D01*
X112991890Y-85336095D02*
X113563319Y-85907523D01*
X113563319Y-85907523D02*
X113563319Y-85288476D01*
X112563319Y-84955142D02*
X112563319Y-84336095D01*
X112563319Y-84336095D02*
X112944271Y-84669428D01*
X112944271Y-84669428D02*
X112944271Y-84526571D01*
X112944271Y-84526571D02*
X112991890Y-84431333D01*
X112991890Y-84431333D02*
X113039509Y-84383714D01*
X113039509Y-84383714D02*
X113134747Y-84336095D01*
X113134747Y-84336095D02*
X113372842Y-84336095D01*
X113372842Y-84336095D02*
X113468080Y-84383714D01*
X113468080Y-84383714D02*
X113515700Y-84431333D01*
X113515700Y-84431333D02*
X113563319Y-84526571D01*
X113563319Y-84526571D02*
X113563319Y-84812285D01*
X113563319Y-84812285D02*
X113515700Y-84907523D01*
X113515700Y-84907523D02*
X113468080Y-84955142D01*
X159821714Y-110690819D02*
X159821714Y-109690819D01*
X159821714Y-109690819D02*
X160059809Y-109690819D01*
X160059809Y-109690819D02*
X160202666Y-109738438D01*
X160202666Y-109738438D02*
X160297904Y-109833676D01*
X160297904Y-109833676D02*
X160345523Y-109928914D01*
X160345523Y-109928914D02*
X160393142Y-110119390D01*
X160393142Y-110119390D02*
X160393142Y-110262247D01*
X160393142Y-110262247D02*
X160345523Y-110452723D01*
X160345523Y-110452723D02*
X160297904Y-110547961D01*
X160297904Y-110547961D02*
X160202666Y-110643200D01*
X160202666Y-110643200D02*
X160059809Y-110690819D01*
X160059809Y-110690819D02*
X159821714Y-110690819D01*
X161345523Y-110690819D02*
X160774095Y-110690819D01*
X161059809Y-110690819D02*
X161059809Y-109690819D01*
X161059809Y-109690819D02*
X160964571Y-109833676D01*
X160964571Y-109833676D02*
X160869333Y-109928914D01*
X160869333Y-109928914D02*
X160774095Y-109976533D01*
X162297904Y-110690819D02*
X161726476Y-110690819D01*
X162012190Y-110690819D02*
X162012190Y-109690819D01*
X162012190Y-109690819D02*
X161916952Y-109833676D01*
X161916952Y-109833676D02*
X161821714Y-109928914D01*
X161821714Y-109928914D02*
X161726476Y-109976533D01*
X123340819Y-143930666D02*
X122864628Y-144263999D01*
X123340819Y-144502094D02*
X122340819Y-144502094D01*
X122340819Y-144502094D02*
X122340819Y-144121142D01*
X122340819Y-144121142D02*
X122388438Y-144025904D01*
X122388438Y-144025904D02*
X122436057Y-143978285D01*
X122436057Y-143978285D02*
X122531295Y-143930666D01*
X122531295Y-143930666D02*
X122674152Y-143930666D01*
X122674152Y-143930666D02*
X122769390Y-143978285D01*
X122769390Y-143978285D02*
X122817009Y-144025904D01*
X122817009Y-144025904D02*
X122864628Y-144121142D01*
X122864628Y-144121142D02*
X122864628Y-144502094D01*
X123340819Y-143454475D02*
X123340819Y-143263999D01*
X123340819Y-143263999D02*
X123293200Y-143168761D01*
X123293200Y-143168761D02*
X123245580Y-143121142D01*
X123245580Y-143121142D02*
X123102723Y-143025904D01*
X123102723Y-143025904D02*
X122912247Y-142978285D01*
X122912247Y-142978285D02*
X122531295Y-142978285D01*
X122531295Y-142978285D02*
X122436057Y-143025904D01*
X122436057Y-143025904D02*
X122388438Y-143073523D01*
X122388438Y-143073523D02*
X122340819Y-143168761D01*
X122340819Y-143168761D02*
X122340819Y-143359237D01*
X122340819Y-143359237D02*
X122388438Y-143454475D01*
X122388438Y-143454475D02*
X122436057Y-143502094D01*
X122436057Y-143502094D02*
X122531295Y-143549713D01*
X122531295Y-143549713D02*
X122769390Y-143549713D01*
X122769390Y-143549713D02*
X122864628Y-143502094D01*
X122864628Y-143502094D02*
X122912247Y-143454475D01*
X122912247Y-143454475D02*
X122959866Y-143359237D01*
X122959866Y-143359237D02*
X122959866Y-143168761D01*
X122959866Y-143168761D02*
X122912247Y-143073523D01*
X122912247Y-143073523D02*
X122864628Y-143025904D01*
X122864628Y-143025904D02*
X122769390Y-142978285D01*
X152709714Y-113738819D02*
X152709714Y-112738819D01*
X152709714Y-112738819D02*
X152947809Y-112738819D01*
X152947809Y-112738819D02*
X153090666Y-112786438D01*
X153090666Y-112786438D02*
X153185904Y-112881676D01*
X153185904Y-112881676D02*
X153233523Y-112976914D01*
X153233523Y-112976914D02*
X153281142Y-113167390D01*
X153281142Y-113167390D02*
X153281142Y-113310247D01*
X153281142Y-113310247D02*
X153233523Y-113500723D01*
X153233523Y-113500723D02*
X153185904Y-113595961D01*
X153185904Y-113595961D02*
X153090666Y-113691200D01*
X153090666Y-113691200D02*
X152947809Y-113738819D01*
X152947809Y-113738819D02*
X152709714Y-113738819D01*
X154233523Y-113738819D02*
X153662095Y-113738819D01*
X153947809Y-113738819D02*
X153947809Y-112738819D01*
X153947809Y-112738819D02*
X153852571Y-112881676D01*
X153852571Y-112881676D02*
X153757333Y-112976914D01*
X153757333Y-112976914D02*
X153662095Y-113024533D01*
X155090666Y-113072152D02*
X155090666Y-113738819D01*
X154852571Y-112691200D02*
X154614476Y-113405485D01*
X154614476Y-113405485D02*
X155233523Y-113405485D01*
X149518019Y-96065933D02*
X150232304Y-96065933D01*
X150232304Y-96065933D02*
X150375161Y-96113552D01*
X150375161Y-96113552D02*
X150470400Y-96208790D01*
X150470400Y-96208790D02*
X150518019Y-96351647D01*
X150518019Y-96351647D02*
X150518019Y-96446885D01*
X149946590Y-95446885D02*
X149898971Y-95542123D01*
X149898971Y-95542123D02*
X149851352Y-95589742D01*
X149851352Y-95589742D02*
X149756114Y-95637361D01*
X149756114Y-95637361D02*
X149708495Y-95637361D01*
X149708495Y-95637361D02*
X149613257Y-95589742D01*
X149613257Y-95589742D02*
X149565638Y-95542123D01*
X149565638Y-95542123D02*
X149518019Y-95446885D01*
X149518019Y-95446885D02*
X149518019Y-95256409D01*
X149518019Y-95256409D02*
X149565638Y-95161171D01*
X149565638Y-95161171D02*
X149613257Y-95113552D01*
X149613257Y-95113552D02*
X149708495Y-95065933D01*
X149708495Y-95065933D02*
X149756114Y-95065933D01*
X149756114Y-95065933D02*
X149851352Y-95113552D01*
X149851352Y-95113552D02*
X149898971Y-95161171D01*
X149898971Y-95161171D02*
X149946590Y-95256409D01*
X149946590Y-95256409D02*
X149946590Y-95446885D01*
X149946590Y-95446885D02*
X149994209Y-95542123D01*
X149994209Y-95542123D02*
X150041828Y-95589742D01*
X150041828Y-95589742D02*
X150137066Y-95637361D01*
X150137066Y-95637361D02*
X150327542Y-95637361D01*
X150327542Y-95637361D02*
X150422780Y-95589742D01*
X150422780Y-95589742D02*
X150470400Y-95542123D01*
X150470400Y-95542123D02*
X150518019Y-95446885D01*
X150518019Y-95446885D02*
X150518019Y-95256409D01*
X150518019Y-95256409D02*
X150470400Y-95161171D01*
X150470400Y-95161171D02*
X150422780Y-95113552D01*
X150422780Y-95113552D02*
X150327542Y-95065933D01*
X150327542Y-95065933D02*
X150137066Y-95065933D01*
X150137066Y-95065933D02*
X150041828Y-95113552D01*
X150041828Y-95113552D02*
X149994209Y-95161171D01*
X149994209Y-95161171D02*
X149946590Y-95256409D01*
X141758200Y-95067333D02*
X141805819Y-94967333D01*
X141805819Y-94967333D02*
X141805819Y-94800667D01*
X141805819Y-94800667D02*
X141758200Y-94734000D01*
X141758200Y-94734000D02*
X141710580Y-94700667D01*
X141710580Y-94700667D02*
X141615342Y-94667333D01*
X141615342Y-94667333D02*
X141520104Y-94667333D01*
X141520104Y-94667333D02*
X141424866Y-94700667D01*
X141424866Y-94700667D02*
X141377247Y-94734000D01*
X141377247Y-94734000D02*
X141329628Y-94800667D01*
X141329628Y-94800667D02*
X141282009Y-94934000D01*
X141282009Y-94934000D02*
X141234390Y-95000667D01*
X141234390Y-95000667D02*
X141186771Y-95034000D01*
X141186771Y-95034000D02*
X141091533Y-95067333D01*
X141091533Y-95067333D02*
X140996295Y-95067333D01*
X140996295Y-95067333D02*
X140901057Y-95034000D01*
X140901057Y-95034000D02*
X140853438Y-95000667D01*
X140853438Y-95000667D02*
X140805819Y-94934000D01*
X140805819Y-94934000D02*
X140805819Y-94767333D01*
X140805819Y-94767333D02*
X140853438Y-94667333D01*
X141710580Y-93967333D02*
X141758200Y-94000666D01*
X141758200Y-94000666D02*
X141805819Y-94100666D01*
X141805819Y-94100666D02*
X141805819Y-94167333D01*
X141805819Y-94167333D02*
X141758200Y-94267333D01*
X141758200Y-94267333D02*
X141662961Y-94334000D01*
X141662961Y-94334000D02*
X141567723Y-94367333D01*
X141567723Y-94367333D02*
X141377247Y-94400666D01*
X141377247Y-94400666D02*
X141234390Y-94400666D01*
X141234390Y-94400666D02*
X141043914Y-94367333D01*
X141043914Y-94367333D02*
X140948676Y-94334000D01*
X140948676Y-94334000D02*
X140853438Y-94267333D01*
X140853438Y-94267333D02*
X140805819Y-94167333D01*
X140805819Y-94167333D02*
X140805819Y-94100666D01*
X140805819Y-94100666D02*
X140853438Y-94000666D01*
X140853438Y-94000666D02*
X140901057Y-93967333D01*
X141805819Y-93334000D02*
X141805819Y-93667333D01*
X141805819Y-93667333D02*
X140805819Y-93667333D01*
X140805819Y-97707333D02*
X141805819Y-97474000D01*
X141805819Y-97474000D02*
X140805819Y-97240666D01*
X141805819Y-97007333D02*
X140805819Y-97007333D01*
X140805819Y-97007333D02*
X140805819Y-96840666D01*
X140805819Y-96840666D02*
X140853438Y-96740666D01*
X140853438Y-96740666D02*
X140948676Y-96674000D01*
X140948676Y-96674000D02*
X141043914Y-96640666D01*
X141043914Y-96640666D02*
X141234390Y-96607333D01*
X141234390Y-96607333D02*
X141377247Y-96607333D01*
X141377247Y-96607333D02*
X141567723Y-96640666D01*
X141567723Y-96640666D02*
X141662961Y-96674000D01*
X141662961Y-96674000D02*
X141758200Y-96740666D01*
X141758200Y-96740666D02*
X141805819Y-96840666D01*
X141805819Y-96840666D02*
X141805819Y-97007333D01*
X141805819Y-96307333D02*
X140805819Y-96307333D01*
X140805819Y-96307333D02*
X140805819Y-96140666D01*
X140805819Y-96140666D02*
X140853438Y-96040666D01*
X140853438Y-96040666D02*
X140948676Y-95974000D01*
X140948676Y-95974000D02*
X141043914Y-95940666D01*
X141043914Y-95940666D02*
X141234390Y-95907333D01*
X141234390Y-95907333D02*
X141377247Y-95907333D01*
X141377247Y-95907333D02*
X141567723Y-95940666D01*
X141567723Y-95940666D02*
X141662961Y-95974000D01*
X141662961Y-95974000D02*
X141758200Y-96040666D01*
X141758200Y-96040666D02*
X141805819Y-96140666D01*
X141805819Y-96140666D02*
X141805819Y-96307333D01*
X140853438Y-99847332D02*
X140805819Y-99913999D01*
X140805819Y-99913999D02*
X140805819Y-100013999D01*
X140805819Y-100013999D02*
X140853438Y-100113999D01*
X140853438Y-100113999D02*
X140948676Y-100180666D01*
X140948676Y-100180666D02*
X141043914Y-100213999D01*
X141043914Y-100213999D02*
X141234390Y-100247332D01*
X141234390Y-100247332D02*
X141377247Y-100247332D01*
X141377247Y-100247332D02*
X141567723Y-100213999D01*
X141567723Y-100213999D02*
X141662961Y-100180666D01*
X141662961Y-100180666D02*
X141758200Y-100113999D01*
X141758200Y-100113999D02*
X141805819Y-100013999D01*
X141805819Y-100013999D02*
X141805819Y-99947332D01*
X141805819Y-99947332D02*
X141758200Y-99847332D01*
X141758200Y-99847332D02*
X141710580Y-99813999D01*
X141710580Y-99813999D02*
X141377247Y-99813999D01*
X141377247Y-99813999D02*
X141377247Y-99947332D01*
X141805819Y-99513999D02*
X140805819Y-99513999D01*
X140805819Y-99513999D02*
X141805819Y-99113999D01*
X141805819Y-99113999D02*
X140805819Y-99113999D01*
X141805819Y-98780666D02*
X140805819Y-98780666D01*
X140805819Y-98780666D02*
X140805819Y-98613999D01*
X140805819Y-98613999D02*
X140853438Y-98513999D01*
X140853438Y-98513999D02*
X140948676Y-98447333D01*
X140948676Y-98447333D02*
X141043914Y-98413999D01*
X141043914Y-98413999D02*
X141234390Y-98380666D01*
X141234390Y-98380666D02*
X141377247Y-98380666D01*
X141377247Y-98380666D02*
X141567723Y-98413999D01*
X141567723Y-98413999D02*
X141662961Y-98447333D01*
X141662961Y-98447333D02*
X141758200Y-98513999D01*
X141758200Y-98513999D02*
X141805819Y-98613999D01*
X141805819Y-98613999D02*
X141805819Y-98780666D01*
X141758200Y-92416999D02*
X141805819Y-92316999D01*
X141805819Y-92316999D02*
X141805819Y-92150333D01*
X141805819Y-92150333D02*
X141758200Y-92083666D01*
X141758200Y-92083666D02*
X141710580Y-92050333D01*
X141710580Y-92050333D02*
X141615342Y-92016999D01*
X141615342Y-92016999D02*
X141520104Y-92016999D01*
X141520104Y-92016999D02*
X141424866Y-92050333D01*
X141424866Y-92050333D02*
X141377247Y-92083666D01*
X141377247Y-92083666D02*
X141329628Y-92150333D01*
X141329628Y-92150333D02*
X141282009Y-92283666D01*
X141282009Y-92283666D02*
X141234390Y-92350333D01*
X141234390Y-92350333D02*
X141186771Y-92383666D01*
X141186771Y-92383666D02*
X141091533Y-92416999D01*
X141091533Y-92416999D02*
X140996295Y-92416999D01*
X140996295Y-92416999D02*
X140901057Y-92383666D01*
X140901057Y-92383666D02*
X140853438Y-92350333D01*
X140853438Y-92350333D02*
X140805819Y-92283666D01*
X140805819Y-92283666D02*
X140805819Y-92116999D01*
X140805819Y-92116999D02*
X140853438Y-92016999D01*
X141805819Y-91716999D02*
X140805819Y-91716999D01*
X140805819Y-91716999D02*
X140805819Y-91550332D01*
X140805819Y-91550332D02*
X140853438Y-91450332D01*
X140853438Y-91450332D02*
X140948676Y-91383666D01*
X140948676Y-91383666D02*
X141043914Y-91350332D01*
X141043914Y-91350332D02*
X141234390Y-91316999D01*
X141234390Y-91316999D02*
X141377247Y-91316999D01*
X141377247Y-91316999D02*
X141567723Y-91350332D01*
X141567723Y-91350332D02*
X141662961Y-91383666D01*
X141662961Y-91383666D02*
X141758200Y-91450332D01*
X141758200Y-91450332D02*
X141805819Y-91550332D01*
X141805819Y-91550332D02*
X141805819Y-91716999D01*
X141520104Y-91050332D02*
X141520104Y-90716999D01*
X141805819Y-91116999D02*
X140805819Y-90883666D01*
X140805819Y-90883666D02*
X141805819Y-90650332D01*
X133192080Y-116466857D02*
X133239700Y-116514476D01*
X133239700Y-116514476D02*
X133287319Y-116657333D01*
X133287319Y-116657333D02*
X133287319Y-116752571D01*
X133287319Y-116752571D02*
X133239700Y-116895428D01*
X133239700Y-116895428D02*
X133144461Y-116990666D01*
X133144461Y-116990666D02*
X133049223Y-117038285D01*
X133049223Y-117038285D02*
X132858747Y-117085904D01*
X132858747Y-117085904D02*
X132715890Y-117085904D01*
X132715890Y-117085904D02*
X132525414Y-117038285D01*
X132525414Y-117038285D02*
X132430176Y-116990666D01*
X132430176Y-116990666D02*
X132334938Y-116895428D01*
X132334938Y-116895428D02*
X132287319Y-116752571D01*
X132287319Y-116752571D02*
X132287319Y-116657333D01*
X132287319Y-116657333D02*
X132334938Y-116514476D01*
X132334938Y-116514476D02*
X132382557Y-116466857D01*
X133287319Y-115514476D02*
X133287319Y-116085904D01*
X133287319Y-115800190D02*
X132287319Y-115800190D01*
X132287319Y-115800190D02*
X132430176Y-115895428D01*
X132430176Y-115895428D02*
X132525414Y-115990666D01*
X132525414Y-115990666D02*
X132573033Y-116085904D01*
X132287319Y-114895428D02*
X132287319Y-114800190D01*
X132287319Y-114800190D02*
X132334938Y-114704952D01*
X132334938Y-114704952D02*
X132382557Y-114657333D01*
X132382557Y-114657333D02*
X132477795Y-114609714D01*
X132477795Y-114609714D02*
X132668271Y-114562095D01*
X132668271Y-114562095D02*
X132906366Y-114562095D01*
X132906366Y-114562095D02*
X133096842Y-114609714D01*
X133096842Y-114609714D02*
X133192080Y-114657333D01*
X133192080Y-114657333D02*
X133239700Y-114704952D01*
X133239700Y-114704952D02*
X133287319Y-114800190D01*
X133287319Y-114800190D02*
X133287319Y-114895428D01*
X133287319Y-114895428D02*
X133239700Y-114990666D01*
X133239700Y-114990666D02*
X133192080Y-115038285D01*
X133192080Y-115038285D02*
X133096842Y-115085904D01*
X133096842Y-115085904D02*
X132906366Y-115133523D01*
X132906366Y-115133523D02*
X132668271Y-115133523D01*
X132668271Y-115133523D02*
X132477795Y-115085904D01*
X132477795Y-115085904D02*
X132382557Y-115038285D01*
X132382557Y-115038285D02*
X132334938Y-114990666D01*
X132334938Y-114990666D02*
X132287319Y-114895428D01*
X138930142Y-102816819D02*
X138596809Y-102340628D01*
X138358714Y-102816819D02*
X138358714Y-101816819D01*
X138358714Y-101816819D02*
X138739666Y-101816819D01*
X138739666Y-101816819D02*
X138834904Y-101864438D01*
X138834904Y-101864438D02*
X138882523Y-101912057D01*
X138882523Y-101912057D02*
X138930142Y-102007295D01*
X138930142Y-102007295D02*
X138930142Y-102150152D01*
X138930142Y-102150152D02*
X138882523Y-102245390D01*
X138882523Y-102245390D02*
X138834904Y-102293009D01*
X138834904Y-102293009D02*
X138739666Y-102340628D01*
X138739666Y-102340628D02*
X138358714Y-102340628D01*
X139311095Y-101912057D02*
X139358714Y-101864438D01*
X139358714Y-101864438D02*
X139453952Y-101816819D01*
X139453952Y-101816819D02*
X139692047Y-101816819D01*
X139692047Y-101816819D02*
X139787285Y-101864438D01*
X139787285Y-101864438D02*
X139834904Y-101912057D01*
X139834904Y-101912057D02*
X139882523Y-102007295D01*
X139882523Y-102007295D02*
X139882523Y-102102533D01*
X139882523Y-102102533D02*
X139834904Y-102245390D01*
X139834904Y-102245390D02*
X139263476Y-102816819D01*
X139263476Y-102816819D02*
X139882523Y-102816819D01*
X140834904Y-102816819D02*
X140263476Y-102816819D01*
X140549190Y-102816819D02*
X140549190Y-101816819D01*
X140549190Y-101816819D02*
X140453952Y-101959676D01*
X140453952Y-101959676D02*
X140358714Y-102054914D01*
X140358714Y-102054914D02*
X140263476Y-102102533D01*
X150887667Y-79020200D02*
X151030524Y-79067819D01*
X151030524Y-79067819D02*
X151268619Y-79067819D01*
X151268619Y-79067819D02*
X151363857Y-79020200D01*
X151363857Y-79020200D02*
X151411476Y-78972580D01*
X151411476Y-78972580D02*
X151459095Y-78877342D01*
X151459095Y-78877342D02*
X151459095Y-78782104D01*
X151459095Y-78782104D02*
X151411476Y-78686866D01*
X151411476Y-78686866D02*
X151363857Y-78639247D01*
X151363857Y-78639247D02*
X151268619Y-78591628D01*
X151268619Y-78591628D02*
X151078143Y-78544009D01*
X151078143Y-78544009D02*
X150982905Y-78496390D01*
X150982905Y-78496390D02*
X150935286Y-78448771D01*
X150935286Y-78448771D02*
X150887667Y-78353533D01*
X150887667Y-78353533D02*
X150887667Y-78258295D01*
X150887667Y-78258295D02*
X150935286Y-78163057D01*
X150935286Y-78163057D02*
X150982905Y-78115438D01*
X150982905Y-78115438D02*
X151078143Y-78067819D01*
X151078143Y-78067819D02*
X151316238Y-78067819D01*
X151316238Y-78067819D02*
X151459095Y-78115438D01*
X151792429Y-78067819D02*
X152030524Y-79067819D01*
X152030524Y-79067819D02*
X152221000Y-78353533D01*
X152221000Y-78353533D02*
X152411476Y-79067819D01*
X152411476Y-79067819D02*
X152649572Y-78067819D01*
X152982905Y-78163057D02*
X153030524Y-78115438D01*
X153030524Y-78115438D02*
X153125762Y-78067819D01*
X153125762Y-78067819D02*
X153363857Y-78067819D01*
X153363857Y-78067819D02*
X153459095Y-78115438D01*
X153459095Y-78115438D02*
X153506714Y-78163057D01*
X153506714Y-78163057D02*
X153554333Y-78258295D01*
X153554333Y-78258295D02*
X153554333Y-78353533D01*
X153554333Y-78353533D02*
X153506714Y-78496390D01*
X153506714Y-78496390D02*
X152935286Y-79067819D01*
X152935286Y-79067819D02*
X153554333Y-79067819D01*
X133469142Y-129137580D02*
X133421523Y-129185200D01*
X133421523Y-129185200D02*
X133278666Y-129232819D01*
X133278666Y-129232819D02*
X133183428Y-129232819D01*
X133183428Y-129232819D02*
X133040571Y-129185200D01*
X133040571Y-129185200D02*
X132945333Y-129089961D01*
X132945333Y-129089961D02*
X132897714Y-128994723D01*
X132897714Y-128994723D02*
X132850095Y-128804247D01*
X132850095Y-128804247D02*
X132850095Y-128661390D01*
X132850095Y-128661390D02*
X132897714Y-128470914D01*
X132897714Y-128470914D02*
X132945333Y-128375676D01*
X132945333Y-128375676D02*
X133040571Y-128280438D01*
X133040571Y-128280438D02*
X133183428Y-128232819D01*
X133183428Y-128232819D02*
X133278666Y-128232819D01*
X133278666Y-128232819D02*
X133421523Y-128280438D01*
X133421523Y-128280438D02*
X133469142Y-128328057D01*
X134421523Y-129232819D02*
X133850095Y-129232819D01*
X134135809Y-129232819D02*
X134135809Y-128232819D01*
X134135809Y-128232819D02*
X134040571Y-128375676D01*
X134040571Y-128375676D02*
X133945333Y-128470914D01*
X133945333Y-128470914D02*
X133850095Y-128518533D01*
X135278666Y-128232819D02*
X135088190Y-128232819D01*
X135088190Y-128232819D02*
X134992952Y-128280438D01*
X134992952Y-128280438D02*
X134945333Y-128328057D01*
X134945333Y-128328057D02*
X134850095Y-128470914D01*
X134850095Y-128470914D02*
X134802476Y-128661390D01*
X134802476Y-128661390D02*
X134802476Y-129042342D01*
X134802476Y-129042342D02*
X134850095Y-129137580D01*
X134850095Y-129137580D02*
X134897714Y-129185200D01*
X134897714Y-129185200D02*
X134992952Y-129232819D01*
X134992952Y-129232819D02*
X135183428Y-129232819D01*
X135183428Y-129232819D02*
X135278666Y-129185200D01*
X135278666Y-129185200D02*
X135326285Y-129137580D01*
X135326285Y-129137580D02*
X135373904Y-129042342D01*
X135373904Y-129042342D02*
X135373904Y-128804247D01*
X135373904Y-128804247D02*
X135326285Y-128709009D01*
X135326285Y-128709009D02*
X135278666Y-128661390D01*
X135278666Y-128661390D02*
X135183428Y-128613771D01*
X135183428Y-128613771D02*
X134992952Y-128613771D01*
X134992952Y-128613771D02*
X134897714Y-128661390D01*
X134897714Y-128661390D02*
X134850095Y-128709009D01*
X134850095Y-128709009D02*
X134802476Y-128804247D01*
X88434666Y-79845819D02*
X88434666Y-80560104D01*
X88434666Y-80560104D02*
X88387047Y-80702961D01*
X88387047Y-80702961D02*
X88291809Y-80798200D01*
X88291809Y-80798200D02*
X88148952Y-80845819D01*
X88148952Y-80845819D02*
X88053714Y-80845819D01*
X89339428Y-80179152D02*
X89339428Y-80845819D01*
X89101333Y-79798200D02*
X88863238Y-80512485D01*
X88863238Y-80512485D02*
X89482285Y-80512485D01*
X109965261Y-80306057D02*
X109870023Y-80258438D01*
X109870023Y-80258438D02*
X109774785Y-80163200D01*
X109774785Y-80163200D02*
X109631928Y-80020342D01*
X109631928Y-80020342D02*
X109536690Y-79972723D01*
X109536690Y-79972723D02*
X109441452Y-79972723D01*
X109489071Y-80210819D02*
X109393833Y-80163200D01*
X109393833Y-80163200D02*
X109298595Y-80067961D01*
X109298595Y-80067961D02*
X109250976Y-79877485D01*
X109250976Y-79877485D02*
X109250976Y-79544152D01*
X109250976Y-79544152D02*
X109298595Y-79353676D01*
X109298595Y-79353676D02*
X109393833Y-79258438D01*
X109393833Y-79258438D02*
X109489071Y-79210819D01*
X109489071Y-79210819D02*
X109679547Y-79210819D01*
X109679547Y-79210819D02*
X109774785Y-79258438D01*
X109774785Y-79258438D02*
X109870023Y-79353676D01*
X109870023Y-79353676D02*
X109917642Y-79544152D01*
X109917642Y-79544152D02*
X109917642Y-79877485D01*
X109917642Y-79877485D02*
X109870023Y-80067961D01*
X109870023Y-80067961D02*
X109774785Y-80163200D01*
X109774785Y-80163200D02*
X109679547Y-80210819D01*
X109679547Y-80210819D02*
X109489071Y-80210819D01*
X110298595Y-79306057D02*
X110346214Y-79258438D01*
X110346214Y-79258438D02*
X110441452Y-79210819D01*
X110441452Y-79210819D02*
X110679547Y-79210819D01*
X110679547Y-79210819D02*
X110774785Y-79258438D01*
X110774785Y-79258438D02*
X110822404Y-79306057D01*
X110822404Y-79306057D02*
X110870023Y-79401295D01*
X110870023Y-79401295D02*
X110870023Y-79496533D01*
X110870023Y-79496533D02*
X110822404Y-79639390D01*
X110822404Y-79639390D02*
X110250976Y-80210819D01*
X110250976Y-80210819D02*
X110870023Y-80210819D01*
X128851819Y-120276857D02*
X128375628Y-120610190D01*
X128851819Y-120848285D02*
X127851819Y-120848285D01*
X127851819Y-120848285D02*
X127851819Y-120467333D01*
X127851819Y-120467333D02*
X127899438Y-120372095D01*
X127899438Y-120372095D02*
X127947057Y-120324476D01*
X127947057Y-120324476D02*
X128042295Y-120276857D01*
X128042295Y-120276857D02*
X128185152Y-120276857D01*
X128185152Y-120276857D02*
X128280390Y-120324476D01*
X128280390Y-120324476D02*
X128328009Y-120372095D01*
X128328009Y-120372095D02*
X128375628Y-120467333D01*
X128375628Y-120467333D02*
X128375628Y-120848285D01*
X128851819Y-119324476D02*
X128851819Y-119895904D01*
X128851819Y-119610190D02*
X127851819Y-119610190D01*
X127851819Y-119610190D02*
X127994676Y-119705428D01*
X127994676Y-119705428D02*
X128089914Y-119800666D01*
X128089914Y-119800666D02*
X128137533Y-119895904D01*
X127851819Y-118419714D02*
X127851819Y-118895904D01*
X127851819Y-118895904D02*
X128328009Y-118943523D01*
X128328009Y-118943523D02*
X128280390Y-118895904D01*
X128280390Y-118895904D02*
X128232771Y-118800666D01*
X128232771Y-118800666D02*
X128232771Y-118562571D01*
X128232771Y-118562571D02*
X128280390Y-118467333D01*
X128280390Y-118467333D02*
X128328009Y-118419714D01*
X128328009Y-118419714D02*
X128423247Y-118372095D01*
X128423247Y-118372095D02*
X128661342Y-118372095D01*
X128661342Y-118372095D02*
X128756580Y-118419714D01*
X128756580Y-118419714D02*
X128804200Y-118467333D01*
X128804200Y-118467333D02*
X128851819Y-118562571D01*
X128851819Y-118562571D02*
X128851819Y-118800666D01*
X128851819Y-118800666D02*
X128804200Y-118895904D01*
X128804200Y-118895904D02*
X128756580Y-118943523D01*
X111085333Y-109579580D02*
X111037714Y-109627200D01*
X111037714Y-109627200D02*
X110894857Y-109674819D01*
X110894857Y-109674819D02*
X110799619Y-109674819D01*
X110799619Y-109674819D02*
X110656762Y-109627200D01*
X110656762Y-109627200D02*
X110561524Y-109531961D01*
X110561524Y-109531961D02*
X110513905Y-109436723D01*
X110513905Y-109436723D02*
X110466286Y-109246247D01*
X110466286Y-109246247D02*
X110466286Y-109103390D01*
X110466286Y-109103390D02*
X110513905Y-108912914D01*
X110513905Y-108912914D02*
X110561524Y-108817676D01*
X110561524Y-108817676D02*
X110656762Y-108722438D01*
X110656762Y-108722438D02*
X110799619Y-108674819D01*
X110799619Y-108674819D02*
X110894857Y-108674819D01*
X110894857Y-108674819D02*
X111037714Y-108722438D01*
X111037714Y-108722438D02*
X111085333Y-108770057D01*
X111942476Y-109008152D02*
X111942476Y-109674819D01*
X111704381Y-108627200D02*
X111466286Y-109341485D01*
X111466286Y-109341485D02*
X112085333Y-109341485D01*
X103624142Y-138281580D02*
X103576523Y-138329200D01*
X103576523Y-138329200D02*
X103433666Y-138376819D01*
X103433666Y-138376819D02*
X103338428Y-138376819D01*
X103338428Y-138376819D02*
X103195571Y-138329200D01*
X103195571Y-138329200D02*
X103100333Y-138233961D01*
X103100333Y-138233961D02*
X103052714Y-138138723D01*
X103052714Y-138138723D02*
X103005095Y-137948247D01*
X103005095Y-137948247D02*
X103005095Y-137805390D01*
X103005095Y-137805390D02*
X103052714Y-137614914D01*
X103052714Y-137614914D02*
X103100333Y-137519676D01*
X103100333Y-137519676D02*
X103195571Y-137424438D01*
X103195571Y-137424438D02*
X103338428Y-137376819D01*
X103338428Y-137376819D02*
X103433666Y-137376819D01*
X103433666Y-137376819D02*
X103576523Y-137424438D01*
X103576523Y-137424438D02*
X103624142Y-137472057D01*
X104005095Y-137472057D02*
X104052714Y-137424438D01*
X104052714Y-137424438D02*
X104147952Y-137376819D01*
X104147952Y-137376819D02*
X104386047Y-137376819D01*
X104386047Y-137376819D02*
X104481285Y-137424438D01*
X104481285Y-137424438D02*
X104528904Y-137472057D01*
X104528904Y-137472057D02*
X104576523Y-137567295D01*
X104576523Y-137567295D02*
X104576523Y-137662533D01*
X104576523Y-137662533D02*
X104528904Y-137805390D01*
X104528904Y-137805390D02*
X103957476Y-138376819D01*
X103957476Y-138376819D02*
X104576523Y-138376819D01*
X105481285Y-137376819D02*
X105005095Y-137376819D01*
X105005095Y-137376819D02*
X104957476Y-137853009D01*
X104957476Y-137853009D02*
X105005095Y-137805390D01*
X105005095Y-137805390D02*
X105100333Y-137757771D01*
X105100333Y-137757771D02*
X105338428Y-137757771D01*
X105338428Y-137757771D02*
X105433666Y-137805390D01*
X105433666Y-137805390D02*
X105481285Y-137853009D01*
X105481285Y-137853009D02*
X105528904Y-137948247D01*
X105528904Y-137948247D02*
X105528904Y-138186342D01*
X105528904Y-138186342D02*
X105481285Y-138281580D01*
X105481285Y-138281580D02*
X105433666Y-138329200D01*
X105433666Y-138329200D02*
X105338428Y-138376819D01*
X105338428Y-138376819D02*
X105100333Y-138376819D01*
X105100333Y-138376819D02*
X105005095Y-138329200D01*
X105005095Y-138329200D02*
X104957476Y-138281580D01*
X119066080Y-142567857D02*
X119113700Y-142615476D01*
X119113700Y-142615476D02*
X119161319Y-142758333D01*
X119161319Y-142758333D02*
X119161319Y-142853571D01*
X119161319Y-142853571D02*
X119113700Y-142996428D01*
X119113700Y-142996428D02*
X119018461Y-143091666D01*
X119018461Y-143091666D02*
X118923223Y-143139285D01*
X118923223Y-143139285D02*
X118732747Y-143186904D01*
X118732747Y-143186904D02*
X118589890Y-143186904D01*
X118589890Y-143186904D02*
X118399414Y-143139285D01*
X118399414Y-143139285D02*
X118304176Y-143091666D01*
X118304176Y-143091666D02*
X118208938Y-142996428D01*
X118208938Y-142996428D02*
X118161319Y-142853571D01*
X118161319Y-142853571D02*
X118161319Y-142758333D01*
X118161319Y-142758333D02*
X118208938Y-142615476D01*
X118208938Y-142615476D02*
X118256557Y-142567857D01*
X118256557Y-142186904D02*
X118208938Y-142139285D01*
X118208938Y-142139285D02*
X118161319Y-142044047D01*
X118161319Y-142044047D02*
X118161319Y-141805952D01*
X118161319Y-141805952D02*
X118208938Y-141710714D01*
X118208938Y-141710714D02*
X118256557Y-141663095D01*
X118256557Y-141663095D02*
X118351795Y-141615476D01*
X118351795Y-141615476D02*
X118447033Y-141615476D01*
X118447033Y-141615476D02*
X118589890Y-141663095D01*
X118589890Y-141663095D02*
X119161319Y-142234523D01*
X119161319Y-142234523D02*
X119161319Y-141615476D01*
X118161319Y-140996428D02*
X118161319Y-140901190D01*
X118161319Y-140901190D02*
X118208938Y-140805952D01*
X118208938Y-140805952D02*
X118256557Y-140758333D01*
X118256557Y-140758333D02*
X118351795Y-140710714D01*
X118351795Y-140710714D02*
X118542271Y-140663095D01*
X118542271Y-140663095D02*
X118780366Y-140663095D01*
X118780366Y-140663095D02*
X118970842Y-140710714D01*
X118970842Y-140710714D02*
X119066080Y-140758333D01*
X119066080Y-140758333D02*
X119113700Y-140805952D01*
X119113700Y-140805952D02*
X119161319Y-140901190D01*
X119161319Y-140901190D02*
X119161319Y-140996428D01*
X119161319Y-140996428D02*
X119113700Y-141091666D01*
X119113700Y-141091666D02*
X119066080Y-141139285D01*
X119066080Y-141139285D02*
X118970842Y-141186904D01*
X118970842Y-141186904D02*
X118780366Y-141234523D01*
X118780366Y-141234523D02*
X118542271Y-141234523D01*
X118542271Y-141234523D02*
X118351795Y-141186904D01*
X118351795Y-141186904D02*
X118256557Y-141139285D01*
X118256557Y-141139285D02*
X118208938Y-141091666D01*
X118208938Y-141091666D02*
X118161319Y-140996428D01*
X92202095Y-71184819D02*
X92202095Y-70184819D01*
X92202095Y-70661009D02*
X92773523Y-70661009D01*
X92773523Y-71184819D02*
X92773523Y-70184819D01*
X93773523Y-71184819D02*
X93202095Y-71184819D01*
X93487809Y-71184819D02*
X93487809Y-70184819D01*
X93487809Y-70184819D02*
X93392571Y-70327676D01*
X93392571Y-70327676D02*
X93297333Y-70422914D01*
X93297333Y-70422914D02*
X93202095Y-70470533D01*
X149187142Y-146504819D02*
X148853809Y-146028628D01*
X148615714Y-146504819D02*
X148615714Y-145504819D01*
X148615714Y-145504819D02*
X148996666Y-145504819D01*
X148996666Y-145504819D02*
X149091904Y-145552438D01*
X149091904Y-145552438D02*
X149139523Y-145600057D01*
X149139523Y-145600057D02*
X149187142Y-145695295D01*
X149187142Y-145695295D02*
X149187142Y-145838152D01*
X149187142Y-145838152D02*
X149139523Y-145933390D01*
X149139523Y-145933390D02*
X149091904Y-145981009D01*
X149091904Y-145981009D02*
X148996666Y-146028628D01*
X148996666Y-146028628D02*
X148615714Y-146028628D01*
X150139523Y-146504819D02*
X149568095Y-146504819D01*
X149853809Y-146504819D02*
X149853809Y-145504819D01*
X149853809Y-145504819D02*
X149758571Y-145647676D01*
X149758571Y-145647676D02*
X149663333Y-145742914D01*
X149663333Y-145742914D02*
X149568095Y-145790533D01*
X151091904Y-146504819D02*
X150520476Y-146504819D01*
X150806190Y-146504819D02*
X150806190Y-145504819D01*
X150806190Y-145504819D02*
X150710952Y-145647676D01*
X150710952Y-145647676D02*
X150615714Y-145742914D01*
X150615714Y-145742914D02*
X150520476Y-145790533D01*
X128851819Y-124182094D02*
X127851819Y-124182094D01*
X127851819Y-124182094D02*
X127851819Y-123943999D01*
X127851819Y-123943999D02*
X127899438Y-123801142D01*
X127899438Y-123801142D02*
X127994676Y-123705904D01*
X127994676Y-123705904D02*
X128089914Y-123658285D01*
X128089914Y-123658285D02*
X128280390Y-123610666D01*
X128280390Y-123610666D02*
X128423247Y-123610666D01*
X128423247Y-123610666D02*
X128613723Y-123658285D01*
X128613723Y-123658285D02*
X128708961Y-123705904D01*
X128708961Y-123705904D02*
X128804200Y-123801142D01*
X128804200Y-123801142D02*
X128851819Y-123943999D01*
X128851819Y-123943999D02*
X128851819Y-124182094D01*
X128280390Y-123039237D02*
X128232771Y-123134475D01*
X128232771Y-123134475D02*
X128185152Y-123182094D01*
X128185152Y-123182094D02*
X128089914Y-123229713D01*
X128089914Y-123229713D02*
X128042295Y-123229713D01*
X128042295Y-123229713D02*
X127947057Y-123182094D01*
X127947057Y-123182094D02*
X127899438Y-123134475D01*
X127899438Y-123134475D02*
X127851819Y-123039237D01*
X127851819Y-123039237D02*
X127851819Y-122848761D01*
X127851819Y-122848761D02*
X127899438Y-122753523D01*
X127899438Y-122753523D02*
X127947057Y-122705904D01*
X127947057Y-122705904D02*
X128042295Y-122658285D01*
X128042295Y-122658285D02*
X128089914Y-122658285D01*
X128089914Y-122658285D02*
X128185152Y-122705904D01*
X128185152Y-122705904D02*
X128232771Y-122753523D01*
X128232771Y-122753523D02*
X128280390Y-122848761D01*
X128280390Y-122848761D02*
X128280390Y-123039237D01*
X128280390Y-123039237D02*
X128328009Y-123134475D01*
X128328009Y-123134475D02*
X128375628Y-123182094D01*
X128375628Y-123182094D02*
X128470866Y-123229713D01*
X128470866Y-123229713D02*
X128661342Y-123229713D01*
X128661342Y-123229713D02*
X128756580Y-123182094D01*
X128756580Y-123182094D02*
X128804200Y-123134475D01*
X128804200Y-123134475D02*
X128851819Y-123039237D01*
X128851819Y-123039237D02*
X128851819Y-122848761D01*
X128851819Y-122848761D02*
X128804200Y-122753523D01*
X128804200Y-122753523D02*
X128756580Y-122705904D01*
X128756580Y-122705904D02*
X128661342Y-122658285D01*
X128661342Y-122658285D02*
X128470866Y-122658285D01*
X128470866Y-122658285D02*
X128375628Y-122705904D01*
X128375628Y-122705904D02*
X128328009Y-122753523D01*
X128328009Y-122753523D02*
X128280390Y-122848761D01*
X157091142Y-127581819D02*
X156757809Y-127105628D01*
X156519714Y-127581819D02*
X156519714Y-126581819D01*
X156519714Y-126581819D02*
X156900666Y-126581819D01*
X156900666Y-126581819D02*
X156995904Y-126629438D01*
X156995904Y-126629438D02*
X157043523Y-126677057D01*
X157043523Y-126677057D02*
X157091142Y-126772295D01*
X157091142Y-126772295D02*
X157091142Y-126915152D01*
X157091142Y-126915152D02*
X157043523Y-127010390D01*
X157043523Y-127010390D02*
X156995904Y-127058009D01*
X156995904Y-127058009D02*
X156900666Y-127105628D01*
X156900666Y-127105628D02*
X156519714Y-127105628D01*
X158043523Y-127581819D02*
X157472095Y-127581819D01*
X157757809Y-127581819D02*
X157757809Y-126581819D01*
X157757809Y-126581819D02*
X157662571Y-126724676D01*
X157662571Y-126724676D02*
X157567333Y-126819914D01*
X157567333Y-126819914D02*
X157472095Y-126867533D01*
X158662571Y-126581819D02*
X158757809Y-126581819D01*
X158757809Y-126581819D02*
X158853047Y-126629438D01*
X158853047Y-126629438D02*
X158900666Y-126677057D01*
X158900666Y-126677057D02*
X158948285Y-126772295D01*
X158948285Y-126772295D02*
X158995904Y-126962771D01*
X158995904Y-126962771D02*
X158995904Y-127200866D01*
X158995904Y-127200866D02*
X158948285Y-127391342D01*
X158948285Y-127391342D02*
X158900666Y-127486580D01*
X158900666Y-127486580D02*
X158853047Y-127534200D01*
X158853047Y-127534200D02*
X158757809Y-127581819D01*
X158757809Y-127581819D02*
X158662571Y-127581819D01*
X158662571Y-127581819D02*
X158567333Y-127534200D01*
X158567333Y-127534200D02*
X158519714Y-127486580D01*
X158519714Y-127486580D02*
X158472095Y-127391342D01*
X158472095Y-127391342D02*
X158424476Y-127200866D01*
X158424476Y-127200866D02*
X158424476Y-126962771D01*
X158424476Y-126962771D02*
X158472095Y-126772295D01*
X158472095Y-126772295D02*
X158519714Y-126677057D01*
X158519714Y-126677057D02*
X158567333Y-126629438D01*
X158567333Y-126629438D02*
X158662571Y-126581819D01*
X133818333Y-107801580D02*
X133770714Y-107849200D01*
X133770714Y-107849200D02*
X133627857Y-107896819D01*
X133627857Y-107896819D02*
X133532619Y-107896819D01*
X133532619Y-107896819D02*
X133389762Y-107849200D01*
X133389762Y-107849200D02*
X133294524Y-107753961D01*
X133294524Y-107753961D02*
X133246905Y-107658723D01*
X133246905Y-107658723D02*
X133199286Y-107468247D01*
X133199286Y-107468247D02*
X133199286Y-107325390D01*
X133199286Y-107325390D02*
X133246905Y-107134914D01*
X133246905Y-107134914D02*
X133294524Y-107039676D01*
X133294524Y-107039676D02*
X133389762Y-106944438D01*
X133389762Y-106944438D02*
X133532619Y-106896819D01*
X133532619Y-106896819D02*
X133627857Y-106896819D01*
X133627857Y-106896819D02*
X133770714Y-106944438D01*
X133770714Y-106944438D02*
X133818333Y-106992057D01*
X134770714Y-107896819D02*
X134199286Y-107896819D01*
X134485000Y-107896819D02*
X134485000Y-106896819D01*
X134485000Y-106896819D02*
X134389762Y-107039676D01*
X134389762Y-107039676D02*
X134294524Y-107134914D01*
X134294524Y-107134914D02*
X134199286Y-107182533D01*
X149979142Y-115167580D02*
X149931523Y-115215200D01*
X149931523Y-115215200D02*
X149788666Y-115262819D01*
X149788666Y-115262819D02*
X149693428Y-115262819D01*
X149693428Y-115262819D02*
X149550571Y-115215200D01*
X149550571Y-115215200D02*
X149455333Y-115119961D01*
X149455333Y-115119961D02*
X149407714Y-115024723D01*
X149407714Y-115024723D02*
X149360095Y-114834247D01*
X149360095Y-114834247D02*
X149360095Y-114691390D01*
X149360095Y-114691390D02*
X149407714Y-114500914D01*
X149407714Y-114500914D02*
X149455333Y-114405676D01*
X149455333Y-114405676D02*
X149550571Y-114310438D01*
X149550571Y-114310438D02*
X149693428Y-114262819D01*
X149693428Y-114262819D02*
X149788666Y-114262819D01*
X149788666Y-114262819D02*
X149931523Y-114310438D01*
X149931523Y-114310438D02*
X149979142Y-114358057D01*
X150931523Y-115262819D02*
X150360095Y-115262819D01*
X150645809Y-115262819D02*
X150645809Y-114262819D01*
X150645809Y-114262819D02*
X150550571Y-114405676D01*
X150550571Y-114405676D02*
X150455333Y-114500914D01*
X150455333Y-114500914D02*
X150360095Y-114548533D01*
X151788666Y-114596152D02*
X151788666Y-115262819D01*
X151550571Y-114215200D02*
X151312476Y-114929485D01*
X151312476Y-114929485D02*
X151931523Y-114929485D01*
X123634667Y-75972200D02*
X123777524Y-76019819D01*
X123777524Y-76019819D02*
X124015619Y-76019819D01*
X124015619Y-76019819D02*
X124110857Y-75972200D01*
X124110857Y-75972200D02*
X124158476Y-75924580D01*
X124158476Y-75924580D02*
X124206095Y-75829342D01*
X124206095Y-75829342D02*
X124206095Y-75734104D01*
X124206095Y-75734104D02*
X124158476Y-75638866D01*
X124158476Y-75638866D02*
X124110857Y-75591247D01*
X124110857Y-75591247D02*
X124015619Y-75543628D01*
X124015619Y-75543628D02*
X123825143Y-75496009D01*
X123825143Y-75496009D02*
X123729905Y-75448390D01*
X123729905Y-75448390D02*
X123682286Y-75400771D01*
X123682286Y-75400771D02*
X123634667Y-75305533D01*
X123634667Y-75305533D02*
X123634667Y-75210295D01*
X123634667Y-75210295D02*
X123682286Y-75115057D01*
X123682286Y-75115057D02*
X123729905Y-75067438D01*
X123729905Y-75067438D02*
X123825143Y-75019819D01*
X123825143Y-75019819D02*
X124063238Y-75019819D01*
X124063238Y-75019819D02*
X124206095Y-75067438D01*
X124539429Y-75019819D02*
X124777524Y-76019819D01*
X124777524Y-76019819D02*
X124968000Y-75305533D01*
X124968000Y-75305533D02*
X125158476Y-76019819D01*
X125158476Y-76019819D02*
X125396572Y-75019819D01*
X126301333Y-76019819D02*
X125729905Y-76019819D01*
X126015619Y-76019819D02*
X126015619Y-75019819D01*
X126015619Y-75019819D02*
X125920381Y-75162676D01*
X125920381Y-75162676D02*
X125825143Y-75257914D01*
X125825143Y-75257914D02*
X125729905Y-75305533D01*
X125087142Y-86719580D02*
X125039523Y-86767200D01*
X125039523Y-86767200D02*
X124896666Y-86814819D01*
X124896666Y-86814819D02*
X124801428Y-86814819D01*
X124801428Y-86814819D02*
X124658571Y-86767200D01*
X124658571Y-86767200D02*
X124563333Y-86671961D01*
X124563333Y-86671961D02*
X124515714Y-86576723D01*
X124515714Y-86576723D02*
X124468095Y-86386247D01*
X124468095Y-86386247D02*
X124468095Y-86243390D01*
X124468095Y-86243390D02*
X124515714Y-86052914D01*
X124515714Y-86052914D02*
X124563333Y-85957676D01*
X124563333Y-85957676D02*
X124658571Y-85862438D01*
X124658571Y-85862438D02*
X124801428Y-85814819D01*
X124801428Y-85814819D02*
X124896666Y-85814819D01*
X124896666Y-85814819D02*
X125039523Y-85862438D01*
X125039523Y-85862438D02*
X125087142Y-85910057D01*
X125420476Y-85814819D02*
X126039523Y-85814819D01*
X126039523Y-85814819D02*
X125706190Y-86195771D01*
X125706190Y-86195771D02*
X125849047Y-86195771D01*
X125849047Y-86195771D02*
X125944285Y-86243390D01*
X125944285Y-86243390D02*
X125991904Y-86291009D01*
X125991904Y-86291009D02*
X126039523Y-86386247D01*
X126039523Y-86386247D02*
X126039523Y-86624342D01*
X126039523Y-86624342D02*
X125991904Y-86719580D01*
X125991904Y-86719580D02*
X125944285Y-86767200D01*
X125944285Y-86767200D02*
X125849047Y-86814819D01*
X125849047Y-86814819D02*
X125563333Y-86814819D01*
X125563333Y-86814819D02*
X125468095Y-86767200D01*
X125468095Y-86767200D02*
X125420476Y-86719580D01*
X126944285Y-85814819D02*
X126468095Y-85814819D01*
X126468095Y-85814819D02*
X126420476Y-86291009D01*
X126420476Y-86291009D02*
X126468095Y-86243390D01*
X126468095Y-86243390D02*
X126563333Y-86195771D01*
X126563333Y-86195771D02*
X126801428Y-86195771D01*
X126801428Y-86195771D02*
X126896666Y-86243390D01*
X126896666Y-86243390D02*
X126944285Y-86291009D01*
X126944285Y-86291009D02*
X126991904Y-86386247D01*
X126991904Y-86386247D02*
X126991904Y-86624342D01*
X126991904Y-86624342D02*
X126944285Y-86719580D01*
X126944285Y-86719580D02*
X126896666Y-86767200D01*
X126896666Y-86767200D02*
X126801428Y-86814819D01*
X126801428Y-86814819D02*
X126563333Y-86814819D01*
X126563333Y-86814819D02*
X126468095Y-86767200D01*
X126468095Y-86767200D02*
X126420476Y-86719580D01*
X162734666Y-113593009D02*
X162401333Y-113593009D01*
X162401333Y-114116819D02*
X162401333Y-113116819D01*
X162401333Y-113116819D02*
X162877523Y-113116819D01*
X163782285Y-114116819D02*
X163210857Y-114116819D01*
X163496571Y-114116819D02*
X163496571Y-113116819D01*
X163496571Y-113116819D02*
X163401333Y-113259676D01*
X163401333Y-113259676D02*
X163306095Y-113354914D01*
X163306095Y-113354914D02*
X163210857Y-113402533D01*
X145774580Y-130563857D02*
X145822200Y-130611476D01*
X145822200Y-130611476D02*
X145869819Y-130754333D01*
X145869819Y-130754333D02*
X145869819Y-130849571D01*
X145869819Y-130849571D02*
X145822200Y-130992428D01*
X145822200Y-130992428D02*
X145726961Y-131087666D01*
X145726961Y-131087666D02*
X145631723Y-131135285D01*
X145631723Y-131135285D02*
X145441247Y-131182904D01*
X145441247Y-131182904D02*
X145298390Y-131182904D01*
X145298390Y-131182904D02*
X145107914Y-131135285D01*
X145107914Y-131135285D02*
X145012676Y-131087666D01*
X145012676Y-131087666D02*
X144917438Y-130992428D01*
X144917438Y-130992428D02*
X144869819Y-130849571D01*
X144869819Y-130849571D02*
X144869819Y-130754333D01*
X144869819Y-130754333D02*
X144917438Y-130611476D01*
X144917438Y-130611476D02*
X144965057Y-130563857D01*
X144965057Y-130182904D02*
X144917438Y-130135285D01*
X144917438Y-130135285D02*
X144869819Y-130040047D01*
X144869819Y-130040047D02*
X144869819Y-129801952D01*
X144869819Y-129801952D02*
X144917438Y-129706714D01*
X144917438Y-129706714D02*
X144965057Y-129659095D01*
X144965057Y-129659095D02*
X145060295Y-129611476D01*
X145060295Y-129611476D02*
X145155533Y-129611476D01*
X145155533Y-129611476D02*
X145298390Y-129659095D01*
X145298390Y-129659095D02*
X145869819Y-130230523D01*
X145869819Y-130230523D02*
X145869819Y-129611476D01*
X145869819Y-128659095D02*
X145869819Y-129230523D01*
X145869819Y-128944809D02*
X144869819Y-128944809D01*
X144869819Y-128944809D02*
X145012676Y-129040047D01*
X145012676Y-129040047D02*
X145107914Y-129135285D01*
X145107914Y-129135285D02*
X145155533Y-129230523D01*
X140398667Y-79020200D02*
X140541524Y-79067819D01*
X140541524Y-79067819D02*
X140779619Y-79067819D01*
X140779619Y-79067819D02*
X140874857Y-79020200D01*
X140874857Y-79020200D02*
X140922476Y-78972580D01*
X140922476Y-78972580D02*
X140970095Y-78877342D01*
X140970095Y-78877342D02*
X140970095Y-78782104D01*
X140970095Y-78782104D02*
X140922476Y-78686866D01*
X140922476Y-78686866D02*
X140874857Y-78639247D01*
X140874857Y-78639247D02*
X140779619Y-78591628D01*
X140779619Y-78591628D02*
X140589143Y-78544009D01*
X140589143Y-78544009D02*
X140493905Y-78496390D01*
X140493905Y-78496390D02*
X140446286Y-78448771D01*
X140446286Y-78448771D02*
X140398667Y-78353533D01*
X140398667Y-78353533D02*
X140398667Y-78258295D01*
X140398667Y-78258295D02*
X140446286Y-78163057D01*
X140446286Y-78163057D02*
X140493905Y-78115438D01*
X140493905Y-78115438D02*
X140589143Y-78067819D01*
X140589143Y-78067819D02*
X140827238Y-78067819D01*
X140827238Y-78067819D02*
X140970095Y-78115438D01*
X141303429Y-78067819D02*
X141541524Y-79067819D01*
X141541524Y-79067819D02*
X141732000Y-78353533D01*
X141732000Y-78353533D02*
X141922476Y-79067819D01*
X141922476Y-79067819D02*
X142160572Y-78067819D01*
X142446286Y-78067819D02*
X143065333Y-78067819D01*
X143065333Y-78067819D02*
X142732000Y-78448771D01*
X142732000Y-78448771D02*
X142874857Y-78448771D01*
X142874857Y-78448771D02*
X142970095Y-78496390D01*
X142970095Y-78496390D02*
X143017714Y-78544009D01*
X143017714Y-78544009D02*
X143065333Y-78639247D01*
X143065333Y-78639247D02*
X143065333Y-78877342D01*
X143065333Y-78877342D02*
X143017714Y-78972580D01*
X143017714Y-78972580D02*
X142970095Y-79020200D01*
X142970095Y-79020200D02*
X142874857Y-79067819D01*
X142874857Y-79067819D02*
X142589143Y-79067819D01*
X142589143Y-79067819D02*
X142493905Y-79020200D01*
X142493905Y-79020200D02*
X142446286Y-78972580D01*
X163187142Y-117199580D02*
X163139523Y-117247200D01*
X163139523Y-117247200D02*
X162996666Y-117294819D01*
X162996666Y-117294819D02*
X162901428Y-117294819D01*
X162901428Y-117294819D02*
X162758571Y-117247200D01*
X162758571Y-117247200D02*
X162663333Y-117151961D01*
X162663333Y-117151961D02*
X162615714Y-117056723D01*
X162615714Y-117056723D02*
X162568095Y-116866247D01*
X162568095Y-116866247D02*
X162568095Y-116723390D01*
X162568095Y-116723390D02*
X162615714Y-116532914D01*
X162615714Y-116532914D02*
X162663333Y-116437676D01*
X162663333Y-116437676D02*
X162758571Y-116342438D01*
X162758571Y-116342438D02*
X162901428Y-116294819D01*
X162901428Y-116294819D02*
X162996666Y-116294819D01*
X162996666Y-116294819D02*
X163139523Y-116342438D01*
X163139523Y-116342438D02*
X163187142Y-116390057D01*
X163568095Y-116390057D02*
X163615714Y-116342438D01*
X163615714Y-116342438D02*
X163710952Y-116294819D01*
X163710952Y-116294819D02*
X163949047Y-116294819D01*
X163949047Y-116294819D02*
X164044285Y-116342438D01*
X164044285Y-116342438D02*
X164091904Y-116390057D01*
X164091904Y-116390057D02*
X164139523Y-116485295D01*
X164139523Y-116485295D02*
X164139523Y-116580533D01*
X164139523Y-116580533D02*
X164091904Y-116723390D01*
X164091904Y-116723390D02*
X163520476Y-117294819D01*
X163520476Y-117294819D02*
X164139523Y-117294819D01*
X164472857Y-116294819D02*
X165139523Y-116294819D01*
X165139523Y-116294819D02*
X164710952Y-117294819D01*
X97028095Y-145268819D02*
X97028095Y-144268819D01*
X97028095Y-144745009D02*
X97599523Y-144745009D01*
X97599523Y-145268819D02*
X97599523Y-144268819D01*
X98504285Y-144602152D02*
X98504285Y-145268819D01*
X98266190Y-144221200D02*
X98028095Y-144935485D01*
X98028095Y-144935485D02*
X98647142Y-144935485D01*
X125305595Y-106896819D02*
X125305595Y-107706342D01*
X125305595Y-107706342D02*
X125353214Y-107801580D01*
X125353214Y-107801580D02*
X125400833Y-107849200D01*
X125400833Y-107849200D02*
X125496071Y-107896819D01*
X125496071Y-107896819D02*
X125686547Y-107896819D01*
X125686547Y-107896819D02*
X125781785Y-107849200D01*
X125781785Y-107849200D02*
X125829404Y-107801580D01*
X125829404Y-107801580D02*
X125877023Y-107706342D01*
X125877023Y-107706342D02*
X125877023Y-106896819D01*
X126305595Y-106992057D02*
X126353214Y-106944438D01*
X126353214Y-106944438D02*
X126448452Y-106896819D01*
X126448452Y-106896819D02*
X126686547Y-106896819D01*
X126686547Y-106896819D02*
X126781785Y-106944438D01*
X126781785Y-106944438D02*
X126829404Y-106992057D01*
X126829404Y-106992057D02*
X126877023Y-107087295D01*
X126877023Y-107087295D02*
X126877023Y-107182533D01*
X126877023Y-107182533D02*
X126829404Y-107325390D01*
X126829404Y-107325390D02*
X126257976Y-107896819D01*
X126257976Y-107896819D02*
X126877023Y-107896819D01*
X106867047Y-92245009D02*
X107009904Y-92292628D01*
X107009904Y-92292628D02*
X107057523Y-92340247D01*
X107057523Y-92340247D02*
X107105142Y-92435485D01*
X107105142Y-92435485D02*
X107105142Y-92578342D01*
X107105142Y-92578342D02*
X107057523Y-92673580D01*
X107057523Y-92673580D02*
X107009904Y-92721200D01*
X107009904Y-92721200D02*
X106914666Y-92768819D01*
X106914666Y-92768819D02*
X106533714Y-92768819D01*
X106533714Y-92768819D02*
X106533714Y-91768819D01*
X106533714Y-91768819D02*
X106867047Y-91768819D01*
X106867047Y-91768819D02*
X106962285Y-91816438D01*
X106962285Y-91816438D02*
X107009904Y-91864057D01*
X107009904Y-91864057D02*
X107057523Y-91959295D01*
X107057523Y-91959295D02*
X107057523Y-92054533D01*
X107057523Y-92054533D02*
X107009904Y-92149771D01*
X107009904Y-92149771D02*
X106962285Y-92197390D01*
X106962285Y-92197390D02*
X106867047Y-92245009D01*
X106867047Y-92245009D02*
X106533714Y-92245009D01*
X107438476Y-91768819D02*
X108105142Y-91768819D01*
X108105142Y-91768819D02*
X107438476Y-92768819D01*
X107438476Y-92768819D02*
X108105142Y-92768819D01*
X109009904Y-92768819D02*
X108438476Y-92768819D01*
X108724190Y-92768819D02*
X108724190Y-91768819D01*
X108724190Y-91768819D02*
X108628952Y-91911676D01*
X108628952Y-91911676D02*
X108533714Y-92006914D01*
X108533714Y-92006914D02*
X108438476Y-92054533D01*
X104117048Y-97587866D02*
X104878953Y-97587866D01*
X104498000Y-97968819D02*
X104498000Y-97206914D01*
X152569405Y-146504819D02*
X152569405Y-145504819D01*
X152569405Y-145504819D02*
X152807500Y-145504819D01*
X152807500Y-145504819D02*
X152950357Y-145552438D01*
X152950357Y-145552438D02*
X153045595Y-145647676D01*
X153045595Y-145647676D02*
X153093214Y-145742914D01*
X153093214Y-145742914D02*
X153140833Y-145933390D01*
X153140833Y-145933390D02*
X153140833Y-146076247D01*
X153140833Y-146076247D02*
X153093214Y-146266723D01*
X153093214Y-146266723D02*
X153045595Y-146361961D01*
X153045595Y-146361961D02*
X152950357Y-146457200D01*
X152950357Y-146457200D02*
X152807500Y-146504819D01*
X152807500Y-146504819D02*
X152569405Y-146504819D01*
X153474167Y-145504819D02*
X154093214Y-145504819D01*
X154093214Y-145504819D02*
X153759881Y-145885771D01*
X153759881Y-145885771D02*
X153902738Y-145885771D01*
X153902738Y-145885771D02*
X153997976Y-145933390D01*
X153997976Y-145933390D02*
X154045595Y-145981009D01*
X154045595Y-145981009D02*
X154093214Y-146076247D01*
X154093214Y-146076247D02*
X154093214Y-146314342D01*
X154093214Y-146314342D02*
X154045595Y-146409580D01*
X154045595Y-146409580D02*
X153997976Y-146457200D01*
X153997976Y-146457200D02*
X153902738Y-146504819D01*
X153902738Y-146504819D02*
X153617024Y-146504819D01*
X153617024Y-146504819D02*
X153521786Y-146457200D01*
X153521786Y-146457200D02*
X153474167Y-146409580D01*
X134716080Y-116466857D02*
X134763700Y-116514476D01*
X134763700Y-116514476D02*
X134811319Y-116657333D01*
X134811319Y-116657333D02*
X134811319Y-116752571D01*
X134811319Y-116752571D02*
X134763700Y-116895428D01*
X134763700Y-116895428D02*
X134668461Y-116990666D01*
X134668461Y-116990666D02*
X134573223Y-117038285D01*
X134573223Y-117038285D02*
X134382747Y-117085904D01*
X134382747Y-117085904D02*
X134239890Y-117085904D01*
X134239890Y-117085904D02*
X134049414Y-117038285D01*
X134049414Y-117038285D02*
X133954176Y-116990666D01*
X133954176Y-116990666D02*
X133858938Y-116895428D01*
X133858938Y-116895428D02*
X133811319Y-116752571D01*
X133811319Y-116752571D02*
X133811319Y-116657333D01*
X133811319Y-116657333D02*
X133858938Y-116514476D01*
X133858938Y-116514476D02*
X133906557Y-116466857D01*
X134811319Y-115514476D02*
X134811319Y-116085904D01*
X134811319Y-115800190D02*
X133811319Y-115800190D01*
X133811319Y-115800190D02*
X133954176Y-115895428D01*
X133954176Y-115895428D02*
X134049414Y-115990666D01*
X134049414Y-115990666D02*
X134097033Y-116085904D01*
X134811319Y-114562095D02*
X134811319Y-115133523D01*
X134811319Y-114847809D02*
X133811319Y-114847809D01*
X133811319Y-114847809D02*
X133954176Y-114943047D01*
X133954176Y-114943047D02*
X134049414Y-115038285D01*
X134049414Y-115038285D02*
X134097033Y-115133523D01*
X145288095Y-126962819D02*
X145288095Y-127772342D01*
X145288095Y-127772342D02*
X145335714Y-127867580D01*
X145335714Y-127867580D02*
X145383333Y-127915200D01*
X145383333Y-127915200D02*
X145478571Y-127962819D01*
X145478571Y-127962819D02*
X145669047Y-127962819D01*
X145669047Y-127962819D02*
X145764285Y-127915200D01*
X145764285Y-127915200D02*
X145811904Y-127867580D01*
X145811904Y-127867580D02*
X145859523Y-127772342D01*
X145859523Y-127772342D02*
X145859523Y-126962819D01*
X146240476Y-126962819D02*
X146859523Y-126962819D01*
X146859523Y-126962819D02*
X146526190Y-127343771D01*
X146526190Y-127343771D02*
X146669047Y-127343771D01*
X146669047Y-127343771D02*
X146764285Y-127391390D01*
X146764285Y-127391390D02*
X146811904Y-127439009D01*
X146811904Y-127439009D02*
X146859523Y-127534247D01*
X146859523Y-127534247D02*
X146859523Y-127772342D01*
X146859523Y-127772342D02*
X146811904Y-127867580D01*
X146811904Y-127867580D02*
X146764285Y-127915200D01*
X146764285Y-127915200D02*
X146669047Y-127962819D01*
X146669047Y-127962819D02*
X146383333Y-127962819D01*
X146383333Y-127962819D02*
X146288095Y-127915200D01*
X146288095Y-127915200D02*
X146240476Y-127867580D01*
X104182057Y-143859238D02*
X104134438Y-143954476D01*
X104134438Y-143954476D02*
X104039200Y-144049714D01*
X104039200Y-144049714D02*
X103896342Y-144192571D01*
X103896342Y-144192571D02*
X103848723Y-144287809D01*
X103848723Y-144287809D02*
X103848723Y-144383047D01*
X104086819Y-144335428D02*
X104039200Y-144430666D01*
X104039200Y-144430666D02*
X103943961Y-144525904D01*
X103943961Y-144525904D02*
X103753485Y-144573523D01*
X103753485Y-144573523D02*
X103420152Y-144573523D01*
X103420152Y-144573523D02*
X103229676Y-144525904D01*
X103229676Y-144525904D02*
X103134438Y-144430666D01*
X103134438Y-144430666D02*
X103086819Y-144335428D01*
X103086819Y-144335428D02*
X103086819Y-144144952D01*
X103086819Y-144144952D02*
X103134438Y-144049714D01*
X103134438Y-144049714D02*
X103229676Y-143954476D01*
X103229676Y-143954476D02*
X103420152Y-143906857D01*
X103420152Y-143906857D02*
X103753485Y-143906857D01*
X103753485Y-143906857D02*
X103943961Y-143954476D01*
X103943961Y-143954476D02*
X104039200Y-144049714D01*
X104039200Y-144049714D02*
X104086819Y-144144952D01*
X104086819Y-144144952D02*
X104086819Y-144335428D01*
X104086819Y-142954476D02*
X104086819Y-143525904D01*
X104086819Y-143240190D02*
X103086819Y-143240190D01*
X103086819Y-143240190D02*
X103229676Y-143335428D01*
X103229676Y-143335428D02*
X103324914Y-143430666D01*
X103324914Y-143430666D02*
X103372533Y-143525904D01*
X146409580Y-125642666D02*
X146457200Y-125690285D01*
X146457200Y-125690285D02*
X146504819Y-125833142D01*
X146504819Y-125833142D02*
X146504819Y-125928380D01*
X146504819Y-125928380D02*
X146457200Y-126071237D01*
X146457200Y-126071237D02*
X146361961Y-126166475D01*
X146361961Y-126166475D02*
X146266723Y-126214094D01*
X146266723Y-126214094D02*
X146076247Y-126261713D01*
X146076247Y-126261713D02*
X145933390Y-126261713D01*
X145933390Y-126261713D02*
X145742914Y-126214094D01*
X145742914Y-126214094D02*
X145647676Y-126166475D01*
X145647676Y-126166475D02*
X145552438Y-126071237D01*
X145552438Y-126071237D02*
X145504819Y-125928380D01*
X145504819Y-125928380D02*
X145504819Y-125833142D01*
X145504819Y-125833142D02*
X145552438Y-125690285D01*
X145552438Y-125690285D02*
X145600057Y-125642666D01*
X145504819Y-124785523D02*
X145504819Y-124975999D01*
X145504819Y-124975999D02*
X145552438Y-125071237D01*
X145552438Y-125071237D02*
X145600057Y-125118856D01*
X145600057Y-125118856D02*
X145742914Y-125214094D01*
X145742914Y-125214094D02*
X145933390Y-125261713D01*
X145933390Y-125261713D02*
X146314342Y-125261713D01*
X146314342Y-125261713D02*
X146409580Y-125214094D01*
X146409580Y-125214094D02*
X146457200Y-125166475D01*
X146457200Y-125166475D02*
X146504819Y-125071237D01*
X146504819Y-125071237D02*
X146504819Y-124880761D01*
X146504819Y-124880761D02*
X146457200Y-124785523D01*
X146457200Y-124785523D02*
X146409580Y-124737904D01*
X146409580Y-124737904D02*
X146314342Y-124690285D01*
X146314342Y-124690285D02*
X146076247Y-124690285D01*
X146076247Y-124690285D02*
X145981009Y-124737904D01*
X145981009Y-124737904D02*
X145933390Y-124785523D01*
X145933390Y-124785523D02*
X145885771Y-124880761D01*
X145885771Y-124880761D02*
X145885771Y-125071237D01*
X145885771Y-125071237D02*
X145933390Y-125166475D01*
X145933390Y-125166475D02*
X145981009Y-125214094D01*
X145981009Y-125214094D02*
X146076247Y-125261713D01*
X160027580Y-71860666D02*
X160075200Y-71908285D01*
X160075200Y-71908285D02*
X160122819Y-72051142D01*
X160122819Y-72051142D02*
X160122819Y-72146380D01*
X160122819Y-72146380D02*
X160075200Y-72289237D01*
X160075200Y-72289237D02*
X159979961Y-72384475D01*
X159979961Y-72384475D02*
X159884723Y-72432094D01*
X159884723Y-72432094D02*
X159694247Y-72479713D01*
X159694247Y-72479713D02*
X159551390Y-72479713D01*
X159551390Y-72479713D02*
X159360914Y-72432094D01*
X159360914Y-72432094D02*
X159265676Y-72384475D01*
X159265676Y-72384475D02*
X159170438Y-72289237D01*
X159170438Y-72289237D02*
X159122819Y-72146380D01*
X159122819Y-72146380D02*
X159122819Y-72051142D01*
X159122819Y-72051142D02*
X159170438Y-71908285D01*
X159170438Y-71908285D02*
X159218057Y-71860666D01*
X159218057Y-71479713D02*
X159170438Y-71432094D01*
X159170438Y-71432094D02*
X159122819Y-71336856D01*
X159122819Y-71336856D02*
X159122819Y-71098761D01*
X159122819Y-71098761D02*
X159170438Y-71003523D01*
X159170438Y-71003523D02*
X159218057Y-70955904D01*
X159218057Y-70955904D02*
X159313295Y-70908285D01*
X159313295Y-70908285D02*
X159408533Y-70908285D01*
X159408533Y-70908285D02*
X159551390Y-70955904D01*
X159551390Y-70955904D02*
X160122819Y-71527332D01*
X160122819Y-71527332D02*
X160122819Y-70908285D01*
X143121142Y-121612819D02*
X142787809Y-121136628D01*
X142549714Y-121612819D02*
X142549714Y-120612819D01*
X142549714Y-120612819D02*
X142930666Y-120612819D01*
X142930666Y-120612819D02*
X143025904Y-120660438D01*
X143025904Y-120660438D02*
X143073523Y-120708057D01*
X143073523Y-120708057D02*
X143121142Y-120803295D01*
X143121142Y-120803295D02*
X143121142Y-120946152D01*
X143121142Y-120946152D02*
X143073523Y-121041390D01*
X143073523Y-121041390D02*
X143025904Y-121089009D01*
X143025904Y-121089009D02*
X142930666Y-121136628D01*
X142930666Y-121136628D02*
X142549714Y-121136628D01*
X144073523Y-121612819D02*
X143502095Y-121612819D01*
X143787809Y-121612819D02*
X143787809Y-120612819D01*
X143787809Y-120612819D02*
X143692571Y-120755676D01*
X143692571Y-120755676D02*
X143597333Y-120850914D01*
X143597333Y-120850914D02*
X143502095Y-120898533D01*
X144644952Y-121041390D02*
X144549714Y-120993771D01*
X144549714Y-120993771D02*
X144502095Y-120946152D01*
X144502095Y-120946152D02*
X144454476Y-120850914D01*
X144454476Y-120850914D02*
X144454476Y-120803295D01*
X144454476Y-120803295D02*
X144502095Y-120708057D01*
X144502095Y-120708057D02*
X144549714Y-120660438D01*
X144549714Y-120660438D02*
X144644952Y-120612819D01*
X144644952Y-120612819D02*
X144835428Y-120612819D01*
X144835428Y-120612819D02*
X144930666Y-120660438D01*
X144930666Y-120660438D02*
X144978285Y-120708057D01*
X144978285Y-120708057D02*
X145025904Y-120803295D01*
X145025904Y-120803295D02*
X145025904Y-120850914D01*
X145025904Y-120850914D02*
X144978285Y-120946152D01*
X144978285Y-120946152D02*
X144930666Y-120993771D01*
X144930666Y-120993771D02*
X144835428Y-121041390D01*
X144835428Y-121041390D02*
X144644952Y-121041390D01*
X144644952Y-121041390D02*
X144549714Y-121089009D01*
X144549714Y-121089009D02*
X144502095Y-121136628D01*
X144502095Y-121136628D02*
X144454476Y-121231866D01*
X144454476Y-121231866D02*
X144454476Y-121422342D01*
X144454476Y-121422342D02*
X144502095Y-121517580D01*
X144502095Y-121517580D02*
X144549714Y-121565200D01*
X144549714Y-121565200D02*
X144644952Y-121612819D01*
X144644952Y-121612819D02*
X144835428Y-121612819D01*
X144835428Y-121612819D02*
X144930666Y-121565200D01*
X144930666Y-121565200D02*
X144978285Y-121517580D01*
X144978285Y-121517580D02*
X145025904Y-121422342D01*
X145025904Y-121422342D02*
X145025904Y-121231866D01*
X145025904Y-121231866D02*
X144978285Y-121136628D01*
X144978285Y-121136628D02*
X144930666Y-121089009D01*
X144930666Y-121089009D02*
X144835428Y-121041390D01*
X131899819Y-120276857D02*
X131423628Y-120610190D01*
X131899819Y-120848285D02*
X130899819Y-120848285D01*
X130899819Y-120848285D02*
X130899819Y-120467333D01*
X130899819Y-120467333D02*
X130947438Y-120372095D01*
X130947438Y-120372095D02*
X130995057Y-120324476D01*
X130995057Y-120324476D02*
X131090295Y-120276857D01*
X131090295Y-120276857D02*
X131233152Y-120276857D01*
X131233152Y-120276857D02*
X131328390Y-120324476D01*
X131328390Y-120324476D02*
X131376009Y-120372095D01*
X131376009Y-120372095D02*
X131423628Y-120467333D01*
X131423628Y-120467333D02*
X131423628Y-120848285D01*
X131899819Y-119324476D02*
X131899819Y-119895904D01*
X131899819Y-119610190D02*
X130899819Y-119610190D01*
X130899819Y-119610190D02*
X131042676Y-119705428D01*
X131042676Y-119705428D02*
X131137914Y-119800666D01*
X131137914Y-119800666D02*
X131185533Y-119895904D01*
X130899819Y-118991142D02*
X130899819Y-118372095D01*
X130899819Y-118372095D02*
X131280771Y-118705428D01*
X131280771Y-118705428D02*
X131280771Y-118562571D01*
X131280771Y-118562571D02*
X131328390Y-118467333D01*
X131328390Y-118467333D02*
X131376009Y-118419714D01*
X131376009Y-118419714D02*
X131471247Y-118372095D01*
X131471247Y-118372095D02*
X131709342Y-118372095D01*
X131709342Y-118372095D02*
X131804580Y-118419714D01*
X131804580Y-118419714D02*
X131852200Y-118467333D01*
X131852200Y-118467333D02*
X131899819Y-118562571D01*
X131899819Y-118562571D02*
X131899819Y-118848285D01*
X131899819Y-118848285D02*
X131852200Y-118943523D01*
X131852200Y-118943523D02*
X131804580Y-118991142D01*
X131532333Y-76273819D02*
X131199000Y-75797628D01*
X130960905Y-76273819D02*
X130960905Y-75273819D01*
X130960905Y-75273819D02*
X131341857Y-75273819D01*
X131341857Y-75273819D02*
X131437095Y-75321438D01*
X131437095Y-75321438D02*
X131484714Y-75369057D01*
X131484714Y-75369057D02*
X131532333Y-75464295D01*
X131532333Y-75464295D02*
X131532333Y-75607152D01*
X131532333Y-75607152D02*
X131484714Y-75702390D01*
X131484714Y-75702390D02*
X131437095Y-75750009D01*
X131437095Y-75750009D02*
X131341857Y-75797628D01*
X131341857Y-75797628D02*
X130960905Y-75797628D01*
X132484714Y-76273819D02*
X131913286Y-76273819D01*
X132199000Y-76273819D02*
X132199000Y-75273819D01*
X132199000Y-75273819D02*
X132103762Y-75416676D01*
X132103762Y-75416676D02*
X132008524Y-75511914D01*
X132008524Y-75511914D02*
X131913286Y-75559533D01*
X125595142Y-100181580D02*
X125547523Y-100229200D01*
X125547523Y-100229200D02*
X125404666Y-100276819D01*
X125404666Y-100276819D02*
X125309428Y-100276819D01*
X125309428Y-100276819D02*
X125166571Y-100229200D01*
X125166571Y-100229200D02*
X125071333Y-100133961D01*
X125071333Y-100133961D02*
X125023714Y-100038723D01*
X125023714Y-100038723D02*
X124976095Y-99848247D01*
X124976095Y-99848247D02*
X124976095Y-99705390D01*
X124976095Y-99705390D02*
X125023714Y-99514914D01*
X125023714Y-99514914D02*
X125071333Y-99419676D01*
X125071333Y-99419676D02*
X125166571Y-99324438D01*
X125166571Y-99324438D02*
X125309428Y-99276819D01*
X125309428Y-99276819D02*
X125404666Y-99276819D01*
X125404666Y-99276819D02*
X125547523Y-99324438D01*
X125547523Y-99324438D02*
X125595142Y-99372057D01*
X125928476Y-99276819D02*
X126547523Y-99276819D01*
X126547523Y-99276819D02*
X126214190Y-99657771D01*
X126214190Y-99657771D02*
X126357047Y-99657771D01*
X126357047Y-99657771D02*
X126452285Y-99705390D01*
X126452285Y-99705390D02*
X126499904Y-99753009D01*
X126499904Y-99753009D02*
X126547523Y-99848247D01*
X126547523Y-99848247D02*
X126547523Y-100086342D01*
X126547523Y-100086342D02*
X126499904Y-100181580D01*
X126499904Y-100181580D02*
X126452285Y-100229200D01*
X126452285Y-100229200D02*
X126357047Y-100276819D01*
X126357047Y-100276819D02*
X126071333Y-100276819D01*
X126071333Y-100276819D02*
X125976095Y-100229200D01*
X125976095Y-100229200D02*
X125928476Y-100181580D01*
X127166571Y-99276819D02*
X127261809Y-99276819D01*
X127261809Y-99276819D02*
X127357047Y-99324438D01*
X127357047Y-99324438D02*
X127404666Y-99372057D01*
X127404666Y-99372057D02*
X127452285Y-99467295D01*
X127452285Y-99467295D02*
X127499904Y-99657771D01*
X127499904Y-99657771D02*
X127499904Y-99895866D01*
X127499904Y-99895866D02*
X127452285Y-100086342D01*
X127452285Y-100086342D02*
X127404666Y-100181580D01*
X127404666Y-100181580D02*
X127357047Y-100229200D01*
X127357047Y-100229200D02*
X127261809Y-100276819D01*
X127261809Y-100276819D02*
X127166571Y-100276819D01*
X127166571Y-100276819D02*
X127071333Y-100229200D01*
X127071333Y-100229200D02*
X127023714Y-100181580D01*
X127023714Y-100181580D02*
X126976095Y-100086342D01*
X126976095Y-100086342D02*
X126928476Y-99895866D01*
X126928476Y-99895866D02*
X126928476Y-99657771D01*
X126928476Y-99657771D02*
X126976095Y-99467295D01*
X126976095Y-99467295D02*
X127023714Y-99372057D01*
X127023714Y-99372057D02*
X127071333Y-99324438D01*
X127071333Y-99324438D02*
X127166571Y-99276819D01*
X129722666Y-105118819D02*
X129722666Y-105833104D01*
X129722666Y-105833104D02*
X129675047Y-105975961D01*
X129675047Y-105975961D02*
X129579809Y-106071200D01*
X129579809Y-106071200D02*
X129436952Y-106118819D01*
X129436952Y-106118819D02*
X129341714Y-106118819D01*
X130198857Y-106118819D02*
X130198857Y-105118819D01*
X130198857Y-105118819D02*
X130579809Y-105118819D01*
X130579809Y-105118819D02*
X130675047Y-105166438D01*
X130675047Y-105166438D02*
X130722666Y-105214057D01*
X130722666Y-105214057D02*
X130770285Y-105309295D01*
X130770285Y-105309295D02*
X130770285Y-105452152D01*
X130770285Y-105452152D02*
X130722666Y-105547390D01*
X130722666Y-105547390D02*
X130675047Y-105595009D01*
X130675047Y-105595009D02*
X130579809Y-105642628D01*
X130579809Y-105642628D02*
X130198857Y-105642628D01*
X131151238Y-105214057D02*
X131198857Y-105166438D01*
X131198857Y-105166438D02*
X131294095Y-105118819D01*
X131294095Y-105118819D02*
X131532190Y-105118819D01*
X131532190Y-105118819D02*
X131627428Y-105166438D01*
X131627428Y-105166438D02*
X131675047Y-105214057D01*
X131675047Y-105214057D02*
X131722666Y-105309295D01*
X131722666Y-105309295D02*
X131722666Y-105404533D01*
X131722666Y-105404533D02*
X131675047Y-105547390D01*
X131675047Y-105547390D02*
X131103619Y-106118819D01*
X131103619Y-106118819D02*
X131722666Y-106118819D01*
X114500819Y-130341666D02*
X114024628Y-130674999D01*
X114500819Y-130913094D02*
X113500819Y-130913094D01*
X113500819Y-130913094D02*
X113500819Y-130532142D01*
X113500819Y-130532142D02*
X113548438Y-130436904D01*
X113548438Y-130436904D02*
X113596057Y-130389285D01*
X113596057Y-130389285D02*
X113691295Y-130341666D01*
X113691295Y-130341666D02*
X113834152Y-130341666D01*
X113834152Y-130341666D02*
X113929390Y-130389285D01*
X113929390Y-130389285D02*
X113977009Y-130436904D01*
X113977009Y-130436904D02*
X114024628Y-130532142D01*
X114024628Y-130532142D02*
X114024628Y-130913094D01*
X113834152Y-129484523D02*
X114500819Y-129484523D01*
X113453200Y-129722618D02*
X114167485Y-129960713D01*
X114167485Y-129960713D02*
X114167485Y-129341666D01*
X107446319Y-143038094D02*
X106446319Y-143038094D01*
X106446319Y-143038094D02*
X106446319Y-142799999D01*
X106446319Y-142799999D02*
X106493938Y-142657142D01*
X106493938Y-142657142D02*
X106589176Y-142561904D01*
X106589176Y-142561904D02*
X106684414Y-142514285D01*
X106684414Y-142514285D02*
X106874890Y-142466666D01*
X106874890Y-142466666D02*
X107017747Y-142466666D01*
X107017747Y-142466666D02*
X107208223Y-142514285D01*
X107208223Y-142514285D02*
X107303461Y-142561904D01*
X107303461Y-142561904D02*
X107398700Y-142657142D01*
X107398700Y-142657142D02*
X107446319Y-142799999D01*
X107446319Y-142799999D02*
X107446319Y-143038094D01*
X106779652Y-141609523D02*
X107446319Y-141609523D01*
X106398700Y-141847618D02*
X107112985Y-142085713D01*
X107112985Y-142085713D02*
X107112985Y-141466666D01*
X152265142Y-125581580D02*
X152217523Y-125629200D01*
X152217523Y-125629200D02*
X152074666Y-125676819D01*
X152074666Y-125676819D02*
X151979428Y-125676819D01*
X151979428Y-125676819D02*
X151836571Y-125629200D01*
X151836571Y-125629200D02*
X151741333Y-125533961D01*
X151741333Y-125533961D02*
X151693714Y-125438723D01*
X151693714Y-125438723D02*
X151646095Y-125248247D01*
X151646095Y-125248247D02*
X151646095Y-125105390D01*
X151646095Y-125105390D02*
X151693714Y-124914914D01*
X151693714Y-124914914D02*
X151741333Y-124819676D01*
X151741333Y-124819676D02*
X151836571Y-124724438D01*
X151836571Y-124724438D02*
X151979428Y-124676819D01*
X151979428Y-124676819D02*
X152074666Y-124676819D01*
X152074666Y-124676819D02*
X152217523Y-124724438D01*
X152217523Y-124724438D02*
X152265142Y-124772057D01*
X153217523Y-125676819D02*
X152646095Y-125676819D01*
X152931809Y-125676819D02*
X152931809Y-124676819D01*
X152931809Y-124676819D02*
X152836571Y-124819676D01*
X152836571Y-124819676D02*
X152741333Y-124914914D01*
X152741333Y-124914914D02*
X152646095Y-124962533D01*
X153693714Y-125676819D02*
X153884190Y-125676819D01*
X153884190Y-125676819D02*
X153979428Y-125629200D01*
X153979428Y-125629200D02*
X154027047Y-125581580D01*
X154027047Y-125581580D02*
X154122285Y-125438723D01*
X154122285Y-125438723D02*
X154169904Y-125248247D01*
X154169904Y-125248247D02*
X154169904Y-124867295D01*
X154169904Y-124867295D02*
X154122285Y-124772057D01*
X154122285Y-124772057D02*
X154074666Y-124724438D01*
X154074666Y-124724438D02*
X153979428Y-124676819D01*
X153979428Y-124676819D02*
X153788952Y-124676819D01*
X153788952Y-124676819D02*
X153693714Y-124724438D01*
X153693714Y-124724438D02*
X153646095Y-124772057D01*
X153646095Y-124772057D02*
X153598476Y-124867295D01*
X153598476Y-124867295D02*
X153598476Y-125105390D01*
X153598476Y-125105390D02*
X153646095Y-125200628D01*
X153646095Y-125200628D02*
X153693714Y-125248247D01*
X153693714Y-125248247D02*
X153788952Y-125295866D01*
X153788952Y-125295866D02*
X153979428Y-125295866D01*
X153979428Y-125295866D02*
X154074666Y-125248247D01*
X154074666Y-125248247D02*
X154122285Y-125200628D01*
X154122285Y-125200628D02*
X154169904Y-125105390D01*
X138930142Y-104340819D02*
X138596809Y-103864628D01*
X138358714Y-104340819D02*
X138358714Y-103340819D01*
X138358714Y-103340819D02*
X138739666Y-103340819D01*
X138739666Y-103340819D02*
X138834904Y-103388438D01*
X138834904Y-103388438D02*
X138882523Y-103436057D01*
X138882523Y-103436057D02*
X138930142Y-103531295D01*
X138930142Y-103531295D02*
X138930142Y-103674152D01*
X138930142Y-103674152D02*
X138882523Y-103769390D01*
X138882523Y-103769390D02*
X138834904Y-103817009D01*
X138834904Y-103817009D02*
X138739666Y-103864628D01*
X138739666Y-103864628D02*
X138358714Y-103864628D01*
X139311095Y-103436057D02*
X139358714Y-103388438D01*
X139358714Y-103388438D02*
X139453952Y-103340819D01*
X139453952Y-103340819D02*
X139692047Y-103340819D01*
X139692047Y-103340819D02*
X139787285Y-103388438D01*
X139787285Y-103388438D02*
X139834904Y-103436057D01*
X139834904Y-103436057D02*
X139882523Y-103531295D01*
X139882523Y-103531295D02*
X139882523Y-103626533D01*
X139882523Y-103626533D02*
X139834904Y-103769390D01*
X139834904Y-103769390D02*
X139263476Y-104340819D01*
X139263476Y-104340819D02*
X139882523Y-104340819D01*
X140263476Y-103436057D02*
X140311095Y-103388438D01*
X140311095Y-103388438D02*
X140406333Y-103340819D01*
X140406333Y-103340819D02*
X140644428Y-103340819D01*
X140644428Y-103340819D02*
X140739666Y-103388438D01*
X140739666Y-103388438D02*
X140787285Y-103436057D01*
X140787285Y-103436057D02*
X140834904Y-103531295D01*
X140834904Y-103531295D02*
X140834904Y-103626533D01*
X140834904Y-103626533D02*
X140787285Y-103769390D01*
X140787285Y-103769390D02*
X140215857Y-104340819D01*
X140215857Y-104340819D02*
X140834904Y-104340819D01*
X146250819Y-115260285D02*
X145250819Y-115260285D01*
X145250819Y-115260285D02*
X145250819Y-115022190D01*
X145250819Y-115022190D02*
X145298438Y-114879333D01*
X145298438Y-114879333D02*
X145393676Y-114784095D01*
X145393676Y-114784095D02*
X145488914Y-114736476D01*
X145488914Y-114736476D02*
X145679390Y-114688857D01*
X145679390Y-114688857D02*
X145822247Y-114688857D01*
X145822247Y-114688857D02*
X146012723Y-114736476D01*
X146012723Y-114736476D02*
X146107961Y-114784095D01*
X146107961Y-114784095D02*
X146203200Y-114879333D01*
X146203200Y-114879333D02*
X146250819Y-115022190D01*
X146250819Y-115022190D02*
X146250819Y-115260285D01*
X146250819Y-113736476D02*
X146250819Y-114307904D01*
X146250819Y-114022190D02*
X145250819Y-114022190D01*
X145250819Y-114022190D02*
X145393676Y-114117428D01*
X145393676Y-114117428D02*
X145488914Y-114212666D01*
X145488914Y-114212666D02*
X145536533Y-114307904D01*
X145346057Y-113355523D02*
X145298438Y-113307904D01*
X145298438Y-113307904D02*
X145250819Y-113212666D01*
X145250819Y-113212666D02*
X145250819Y-112974571D01*
X145250819Y-112974571D02*
X145298438Y-112879333D01*
X145298438Y-112879333D02*
X145346057Y-112831714D01*
X145346057Y-112831714D02*
X145441295Y-112784095D01*
X145441295Y-112784095D02*
X145536533Y-112784095D01*
X145536533Y-112784095D02*
X145679390Y-112831714D01*
X145679390Y-112831714D02*
X146250819Y-113403142D01*
X146250819Y-113403142D02*
X146250819Y-112784095D01*
X112895142Y-126677819D02*
X112561809Y-126201628D01*
X112323714Y-126677819D02*
X112323714Y-125677819D01*
X112323714Y-125677819D02*
X112704666Y-125677819D01*
X112704666Y-125677819D02*
X112799904Y-125725438D01*
X112799904Y-125725438D02*
X112847523Y-125773057D01*
X112847523Y-125773057D02*
X112895142Y-125868295D01*
X112895142Y-125868295D02*
X112895142Y-126011152D01*
X112895142Y-126011152D02*
X112847523Y-126106390D01*
X112847523Y-126106390D02*
X112799904Y-126154009D01*
X112799904Y-126154009D02*
X112704666Y-126201628D01*
X112704666Y-126201628D02*
X112323714Y-126201628D01*
X113276095Y-125773057D02*
X113323714Y-125725438D01*
X113323714Y-125725438D02*
X113418952Y-125677819D01*
X113418952Y-125677819D02*
X113657047Y-125677819D01*
X113657047Y-125677819D02*
X113752285Y-125725438D01*
X113752285Y-125725438D02*
X113799904Y-125773057D01*
X113799904Y-125773057D02*
X113847523Y-125868295D01*
X113847523Y-125868295D02*
X113847523Y-125963533D01*
X113847523Y-125963533D02*
X113799904Y-126106390D01*
X113799904Y-126106390D02*
X113228476Y-126677819D01*
X113228476Y-126677819D02*
X113847523Y-126677819D01*
X114466571Y-125677819D02*
X114561809Y-125677819D01*
X114561809Y-125677819D02*
X114657047Y-125725438D01*
X114657047Y-125725438D02*
X114704666Y-125773057D01*
X114704666Y-125773057D02*
X114752285Y-125868295D01*
X114752285Y-125868295D02*
X114799904Y-126058771D01*
X114799904Y-126058771D02*
X114799904Y-126296866D01*
X114799904Y-126296866D02*
X114752285Y-126487342D01*
X114752285Y-126487342D02*
X114704666Y-126582580D01*
X114704666Y-126582580D02*
X114657047Y-126630200D01*
X114657047Y-126630200D02*
X114561809Y-126677819D01*
X114561809Y-126677819D02*
X114466571Y-126677819D01*
X114466571Y-126677819D02*
X114371333Y-126630200D01*
X114371333Y-126630200D02*
X114323714Y-126582580D01*
X114323714Y-126582580D02*
X114276095Y-126487342D01*
X114276095Y-126487342D02*
X114228476Y-126296866D01*
X114228476Y-126296866D02*
X114228476Y-126058771D01*
X114228476Y-126058771D02*
X114276095Y-125868295D01*
X114276095Y-125868295D02*
X114323714Y-125773057D01*
X114323714Y-125773057D02*
X114371333Y-125725438D01*
X114371333Y-125725438D02*
X114466571Y-125677819D01*
X127849333Y-111738580D02*
X127801714Y-111786200D01*
X127801714Y-111786200D02*
X127658857Y-111833819D01*
X127658857Y-111833819D02*
X127563619Y-111833819D01*
X127563619Y-111833819D02*
X127420762Y-111786200D01*
X127420762Y-111786200D02*
X127325524Y-111690961D01*
X127325524Y-111690961D02*
X127277905Y-111595723D01*
X127277905Y-111595723D02*
X127230286Y-111405247D01*
X127230286Y-111405247D02*
X127230286Y-111262390D01*
X127230286Y-111262390D02*
X127277905Y-111071914D01*
X127277905Y-111071914D02*
X127325524Y-110976676D01*
X127325524Y-110976676D02*
X127420762Y-110881438D01*
X127420762Y-110881438D02*
X127563619Y-110833819D01*
X127563619Y-110833819D02*
X127658857Y-110833819D01*
X127658857Y-110833819D02*
X127801714Y-110881438D01*
X127801714Y-110881438D02*
X127849333Y-110929057D01*
X128325524Y-111833819D02*
X128516000Y-111833819D01*
X128516000Y-111833819D02*
X128611238Y-111786200D01*
X128611238Y-111786200D02*
X128658857Y-111738580D01*
X128658857Y-111738580D02*
X128754095Y-111595723D01*
X128754095Y-111595723D02*
X128801714Y-111405247D01*
X128801714Y-111405247D02*
X128801714Y-111024295D01*
X128801714Y-111024295D02*
X128754095Y-110929057D01*
X128754095Y-110929057D02*
X128706476Y-110881438D01*
X128706476Y-110881438D02*
X128611238Y-110833819D01*
X128611238Y-110833819D02*
X128420762Y-110833819D01*
X128420762Y-110833819D02*
X128325524Y-110881438D01*
X128325524Y-110881438D02*
X128277905Y-110929057D01*
X128277905Y-110929057D02*
X128230286Y-111024295D01*
X128230286Y-111024295D02*
X128230286Y-111262390D01*
X128230286Y-111262390D02*
X128277905Y-111357628D01*
X128277905Y-111357628D02*
X128325524Y-111405247D01*
X128325524Y-111405247D02*
X128420762Y-111452866D01*
X128420762Y-111452866D02*
X128611238Y-111452866D01*
X128611238Y-111452866D02*
X128706476Y-111405247D01*
X128706476Y-111405247D02*
X128754095Y-111357628D01*
X128754095Y-111357628D02*
X128801714Y-111262390D01*
X118056819Y-84177094D02*
X117056819Y-84177094D01*
X117056819Y-84177094D02*
X117056819Y-83938999D01*
X117056819Y-83938999D02*
X117104438Y-83796142D01*
X117104438Y-83796142D02*
X117199676Y-83700904D01*
X117199676Y-83700904D02*
X117294914Y-83653285D01*
X117294914Y-83653285D02*
X117485390Y-83605666D01*
X117485390Y-83605666D02*
X117628247Y-83605666D01*
X117628247Y-83605666D02*
X117818723Y-83653285D01*
X117818723Y-83653285D02*
X117913961Y-83700904D01*
X117913961Y-83700904D02*
X118009200Y-83796142D01*
X118009200Y-83796142D02*
X118056819Y-83938999D01*
X118056819Y-83938999D02*
X118056819Y-84177094D01*
X117056819Y-82700904D02*
X117056819Y-83177094D01*
X117056819Y-83177094D02*
X117533009Y-83224713D01*
X117533009Y-83224713D02*
X117485390Y-83177094D01*
X117485390Y-83177094D02*
X117437771Y-83081856D01*
X117437771Y-83081856D02*
X117437771Y-82843761D01*
X117437771Y-82843761D02*
X117485390Y-82748523D01*
X117485390Y-82748523D02*
X117533009Y-82700904D01*
X117533009Y-82700904D02*
X117628247Y-82653285D01*
X117628247Y-82653285D02*
X117866342Y-82653285D01*
X117866342Y-82653285D02*
X117961580Y-82700904D01*
X117961580Y-82700904D02*
X118009200Y-82748523D01*
X118009200Y-82748523D02*
X118056819Y-82843761D01*
X118056819Y-82843761D02*
X118056819Y-83081856D01*
X118056819Y-83081856D02*
X118009200Y-83177094D01*
X118009200Y-83177094D02*
X117961580Y-83224713D01*
X158982580Y-134119857D02*
X159030200Y-134167476D01*
X159030200Y-134167476D02*
X159077819Y-134310333D01*
X159077819Y-134310333D02*
X159077819Y-134405571D01*
X159077819Y-134405571D02*
X159030200Y-134548428D01*
X159030200Y-134548428D02*
X158934961Y-134643666D01*
X158934961Y-134643666D02*
X158839723Y-134691285D01*
X158839723Y-134691285D02*
X158649247Y-134738904D01*
X158649247Y-134738904D02*
X158506390Y-134738904D01*
X158506390Y-134738904D02*
X158315914Y-134691285D01*
X158315914Y-134691285D02*
X158220676Y-134643666D01*
X158220676Y-134643666D02*
X158125438Y-134548428D01*
X158125438Y-134548428D02*
X158077819Y-134405571D01*
X158077819Y-134405571D02*
X158077819Y-134310333D01*
X158077819Y-134310333D02*
X158125438Y-134167476D01*
X158125438Y-134167476D02*
X158173057Y-134119857D01*
X158077819Y-133786523D02*
X158077819Y-133167476D01*
X158077819Y-133167476D02*
X158458771Y-133500809D01*
X158458771Y-133500809D02*
X158458771Y-133357952D01*
X158458771Y-133357952D02*
X158506390Y-133262714D01*
X158506390Y-133262714D02*
X158554009Y-133215095D01*
X158554009Y-133215095D02*
X158649247Y-133167476D01*
X158649247Y-133167476D02*
X158887342Y-133167476D01*
X158887342Y-133167476D02*
X158982580Y-133215095D01*
X158982580Y-133215095D02*
X159030200Y-133262714D01*
X159030200Y-133262714D02*
X159077819Y-133357952D01*
X159077819Y-133357952D02*
X159077819Y-133643666D01*
X159077819Y-133643666D02*
X159030200Y-133738904D01*
X159030200Y-133738904D02*
X158982580Y-133786523D01*
X158411152Y-132310333D02*
X159077819Y-132310333D01*
X158030200Y-132548428D02*
X158744485Y-132786523D01*
X158744485Y-132786523D02*
X158744485Y-132167476D01*
X130375819Y-124182094D02*
X129375819Y-124182094D01*
X129375819Y-124182094D02*
X129375819Y-123943999D01*
X129375819Y-123943999D02*
X129423438Y-123801142D01*
X129423438Y-123801142D02*
X129518676Y-123705904D01*
X129518676Y-123705904D02*
X129613914Y-123658285D01*
X129613914Y-123658285D02*
X129804390Y-123610666D01*
X129804390Y-123610666D02*
X129947247Y-123610666D01*
X129947247Y-123610666D02*
X130137723Y-123658285D01*
X130137723Y-123658285D02*
X130232961Y-123705904D01*
X130232961Y-123705904D02*
X130328200Y-123801142D01*
X130328200Y-123801142D02*
X130375819Y-123943999D01*
X130375819Y-123943999D02*
X130375819Y-124182094D01*
X129375819Y-123277332D02*
X129375819Y-122610666D01*
X129375819Y-122610666D02*
X130375819Y-123039237D01*
X130375819Y-120276857D02*
X129899628Y-120610190D01*
X130375819Y-120848285D02*
X129375819Y-120848285D01*
X129375819Y-120848285D02*
X129375819Y-120467333D01*
X129375819Y-120467333D02*
X129423438Y-120372095D01*
X129423438Y-120372095D02*
X129471057Y-120324476D01*
X129471057Y-120324476D02*
X129566295Y-120276857D01*
X129566295Y-120276857D02*
X129709152Y-120276857D01*
X129709152Y-120276857D02*
X129804390Y-120324476D01*
X129804390Y-120324476D02*
X129852009Y-120372095D01*
X129852009Y-120372095D02*
X129899628Y-120467333D01*
X129899628Y-120467333D02*
X129899628Y-120848285D01*
X130375819Y-119324476D02*
X130375819Y-119895904D01*
X130375819Y-119610190D02*
X129375819Y-119610190D01*
X129375819Y-119610190D02*
X129518676Y-119705428D01*
X129518676Y-119705428D02*
X129613914Y-119800666D01*
X129613914Y-119800666D02*
X129661533Y-119895904D01*
X129709152Y-118467333D02*
X130375819Y-118467333D01*
X129328200Y-118705428D02*
X130042485Y-118943523D01*
X130042485Y-118943523D02*
X130042485Y-118324476D01*
X125372819Y-143930666D02*
X124896628Y-144263999D01*
X125372819Y-144502094D02*
X124372819Y-144502094D01*
X124372819Y-144502094D02*
X124372819Y-144121142D01*
X124372819Y-144121142D02*
X124420438Y-144025904D01*
X124420438Y-144025904D02*
X124468057Y-143978285D01*
X124468057Y-143978285D02*
X124563295Y-143930666D01*
X124563295Y-143930666D02*
X124706152Y-143930666D01*
X124706152Y-143930666D02*
X124801390Y-143978285D01*
X124801390Y-143978285D02*
X124849009Y-144025904D01*
X124849009Y-144025904D02*
X124896628Y-144121142D01*
X124896628Y-144121142D02*
X124896628Y-144502094D01*
X124801390Y-143359237D02*
X124753771Y-143454475D01*
X124753771Y-143454475D02*
X124706152Y-143502094D01*
X124706152Y-143502094D02*
X124610914Y-143549713D01*
X124610914Y-143549713D02*
X124563295Y-143549713D01*
X124563295Y-143549713D02*
X124468057Y-143502094D01*
X124468057Y-143502094D02*
X124420438Y-143454475D01*
X124420438Y-143454475D02*
X124372819Y-143359237D01*
X124372819Y-143359237D02*
X124372819Y-143168761D01*
X124372819Y-143168761D02*
X124420438Y-143073523D01*
X124420438Y-143073523D02*
X124468057Y-143025904D01*
X124468057Y-143025904D02*
X124563295Y-142978285D01*
X124563295Y-142978285D02*
X124610914Y-142978285D01*
X124610914Y-142978285D02*
X124706152Y-143025904D01*
X124706152Y-143025904D02*
X124753771Y-143073523D01*
X124753771Y-143073523D02*
X124801390Y-143168761D01*
X124801390Y-143168761D02*
X124801390Y-143359237D01*
X124801390Y-143359237D02*
X124849009Y-143454475D01*
X124849009Y-143454475D02*
X124896628Y-143502094D01*
X124896628Y-143502094D02*
X124991866Y-143549713D01*
X124991866Y-143549713D02*
X125182342Y-143549713D01*
X125182342Y-143549713D02*
X125277580Y-143502094D01*
X125277580Y-143502094D02*
X125325200Y-143454475D01*
X125325200Y-143454475D02*
X125372819Y-143359237D01*
X125372819Y-143359237D02*
X125372819Y-143168761D01*
X125372819Y-143168761D02*
X125325200Y-143073523D01*
X125325200Y-143073523D02*
X125277580Y-143025904D01*
X125277580Y-143025904D02*
X125182342Y-142978285D01*
X125182342Y-142978285D02*
X124991866Y-142978285D01*
X124991866Y-142978285D02*
X124896628Y-143025904D01*
X124896628Y-143025904D02*
X124849009Y-143073523D01*
X124849009Y-143073523D02*
X124801390Y-143168761D01*
X100603819Y-143564594D02*
X99603819Y-143564594D01*
X99603819Y-143564594D02*
X99603819Y-143326499D01*
X99603819Y-143326499D02*
X99651438Y-143183642D01*
X99651438Y-143183642D02*
X99746676Y-143088404D01*
X99746676Y-143088404D02*
X99841914Y-143040785D01*
X99841914Y-143040785D02*
X100032390Y-142993166D01*
X100032390Y-142993166D02*
X100175247Y-142993166D01*
X100175247Y-142993166D02*
X100365723Y-143040785D01*
X100365723Y-143040785D02*
X100460961Y-143088404D01*
X100460961Y-143088404D02*
X100556200Y-143183642D01*
X100556200Y-143183642D02*
X100603819Y-143326499D01*
X100603819Y-143326499D02*
X100603819Y-143564594D01*
X100603819Y-142040785D02*
X100603819Y-142612213D01*
X100603819Y-142326499D02*
X99603819Y-142326499D01*
X99603819Y-142326499D02*
X99746676Y-142421737D01*
X99746676Y-142421737D02*
X99841914Y-142516975D01*
X99841914Y-142516975D02*
X99889533Y-142612213D01*
X104195714Y-87576819D02*
X104195714Y-86576819D01*
X104195714Y-86576819D02*
X104433809Y-86576819D01*
X104433809Y-86576819D02*
X104576666Y-86624438D01*
X104576666Y-86624438D02*
X104671904Y-86719676D01*
X104671904Y-86719676D02*
X104719523Y-86814914D01*
X104719523Y-86814914D02*
X104767142Y-87005390D01*
X104767142Y-87005390D02*
X104767142Y-87148247D01*
X104767142Y-87148247D02*
X104719523Y-87338723D01*
X104719523Y-87338723D02*
X104671904Y-87433961D01*
X104671904Y-87433961D02*
X104576666Y-87529200D01*
X104576666Y-87529200D02*
X104433809Y-87576819D01*
X104433809Y-87576819D02*
X104195714Y-87576819D01*
X105719523Y-87576819D02*
X105148095Y-87576819D01*
X105433809Y-87576819D02*
X105433809Y-86576819D01*
X105433809Y-86576819D02*
X105338571Y-86719676D01*
X105338571Y-86719676D02*
X105243333Y-86814914D01*
X105243333Y-86814914D02*
X105148095Y-86862533D01*
X106624285Y-86576819D02*
X106148095Y-86576819D01*
X106148095Y-86576819D02*
X106100476Y-87053009D01*
X106100476Y-87053009D02*
X106148095Y-87005390D01*
X106148095Y-87005390D02*
X106243333Y-86957771D01*
X106243333Y-86957771D02*
X106481428Y-86957771D01*
X106481428Y-86957771D02*
X106576666Y-87005390D01*
X106576666Y-87005390D02*
X106624285Y-87053009D01*
X106624285Y-87053009D02*
X106671904Y-87148247D01*
X106671904Y-87148247D02*
X106671904Y-87386342D01*
X106671904Y-87386342D02*
X106624285Y-87481580D01*
X106624285Y-87481580D02*
X106576666Y-87529200D01*
X106576666Y-87529200D02*
X106481428Y-87576819D01*
X106481428Y-87576819D02*
X106243333Y-87576819D01*
X106243333Y-87576819D02*
X106148095Y-87529200D01*
X106148095Y-87529200D02*
X106100476Y-87481580D01*
X110746319Y-139386857D02*
X110270128Y-139720190D01*
X110746319Y-139958285D02*
X109746319Y-139958285D01*
X109746319Y-139958285D02*
X109746319Y-139577333D01*
X109746319Y-139577333D02*
X109793938Y-139482095D01*
X109793938Y-139482095D02*
X109841557Y-139434476D01*
X109841557Y-139434476D02*
X109936795Y-139386857D01*
X109936795Y-139386857D02*
X110079652Y-139386857D01*
X110079652Y-139386857D02*
X110174890Y-139434476D01*
X110174890Y-139434476D02*
X110222509Y-139482095D01*
X110222509Y-139482095D02*
X110270128Y-139577333D01*
X110270128Y-139577333D02*
X110270128Y-139958285D01*
X110746319Y-138434476D02*
X110746319Y-139005904D01*
X110746319Y-138720190D02*
X109746319Y-138720190D01*
X109746319Y-138720190D02*
X109889176Y-138815428D01*
X109889176Y-138815428D02*
X109984414Y-138910666D01*
X109984414Y-138910666D02*
X110032033Y-139005904D01*
X109841557Y-138053523D02*
X109793938Y-138005904D01*
X109793938Y-138005904D02*
X109746319Y-137910666D01*
X109746319Y-137910666D02*
X109746319Y-137672571D01*
X109746319Y-137672571D02*
X109793938Y-137577333D01*
X109793938Y-137577333D02*
X109841557Y-137529714D01*
X109841557Y-137529714D02*
X109936795Y-137482095D01*
X109936795Y-137482095D02*
X110032033Y-137482095D01*
X110032033Y-137482095D02*
X110174890Y-137529714D01*
X110174890Y-137529714D02*
X110746319Y-138101142D01*
X110746319Y-138101142D02*
X110746319Y-137482095D01*
D12*
X128555905Y-77181419D02*
X128555905Y-77990942D01*
X128555905Y-77990942D02*
X128603524Y-78086180D01*
X128603524Y-78086180D02*
X128651143Y-78133800D01*
X128651143Y-78133800D02*
X128746381Y-78181419D01*
X128746381Y-78181419D02*
X128936857Y-78181419D01*
X128936857Y-78181419D02*
X129032095Y-78133800D01*
X129032095Y-78133800D02*
X129079714Y-78086180D01*
X129079714Y-78086180D02*
X129127333Y-77990942D01*
X129127333Y-77990942D02*
X129127333Y-77181419D01*
X130127333Y-78181419D02*
X129555905Y-78181419D01*
X129841619Y-78181419D02*
X129841619Y-77181419D01*
X129841619Y-77181419D02*
X129746381Y-77324276D01*
X129746381Y-77324276D02*
X129651143Y-77419514D01*
X129651143Y-77419514D02*
X129555905Y-77467133D01*
X130746381Y-77181419D02*
X130841619Y-77181419D01*
X130841619Y-77181419D02*
X130936857Y-77229038D01*
X130936857Y-77229038D02*
X130984476Y-77276657D01*
X130984476Y-77276657D02*
X131032095Y-77371895D01*
X131032095Y-77371895D02*
X131079714Y-77562371D01*
X131079714Y-77562371D02*
X131079714Y-77800466D01*
X131079714Y-77800466D02*
X131032095Y-77990942D01*
X131032095Y-77990942D02*
X130984476Y-78086180D01*
X130984476Y-78086180D02*
X130936857Y-78133800D01*
X130936857Y-78133800D02*
X130841619Y-78181419D01*
X130841619Y-78181419D02*
X130746381Y-78181419D01*
X130746381Y-78181419D02*
X130651143Y-78133800D01*
X130651143Y-78133800D02*
X130603524Y-78086180D01*
X130603524Y-78086180D02*
X130555905Y-77990942D01*
X130555905Y-77990942D02*
X130508286Y-77800466D01*
X130508286Y-77800466D02*
X130508286Y-77562371D01*
X130508286Y-77562371D02*
X130555905Y-77371895D01*
X130555905Y-77371895D02*
X130603524Y-77276657D01*
X130603524Y-77276657D02*
X130651143Y-77229038D01*
X130651143Y-77229038D02*
X130746381Y-77181419D01*
D11*
X159504142Y-126216580D02*
X159456523Y-126264200D01*
X159456523Y-126264200D02*
X159313666Y-126311819D01*
X159313666Y-126311819D02*
X159218428Y-126311819D01*
X159218428Y-126311819D02*
X159075571Y-126264200D01*
X159075571Y-126264200D02*
X158980333Y-126168961D01*
X158980333Y-126168961D02*
X158932714Y-126073723D01*
X158932714Y-126073723D02*
X158885095Y-125883247D01*
X158885095Y-125883247D02*
X158885095Y-125740390D01*
X158885095Y-125740390D02*
X158932714Y-125549914D01*
X158932714Y-125549914D02*
X158980333Y-125454676D01*
X158980333Y-125454676D02*
X159075571Y-125359438D01*
X159075571Y-125359438D02*
X159218428Y-125311819D01*
X159218428Y-125311819D02*
X159313666Y-125311819D01*
X159313666Y-125311819D02*
X159456523Y-125359438D01*
X159456523Y-125359438D02*
X159504142Y-125407057D01*
X159837476Y-125311819D02*
X160456523Y-125311819D01*
X160456523Y-125311819D02*
X160123190Y-125692771D01*
X160123190Y-125692771D02*
X160266047Y-125692771D01*
X160266047Y-125692771D02*
X160361285Y-125740390D01*
X160361285Y-125740390D02*
X160408904Y-125788009D01*
X160408904Y-125788009D02*
X160456523Y-125883247D01*
X160456523Y-125883247D02*
X160456523Y-126121342D01*
X160456523Y-126121342D02*
X160408904Y-126216580D01*
X160408904Y-126216580D02*
X160361285Y-126264200D01*
X160361285Y-126264200D02*
X160266047Y-126311819D01*
X160266047Y-126311819D02*
X159980333Y-126311819D01*
X159980333Y-126311819D02*
X159885095Y-126264200D01*
X159885095Y-126264200D02*
X159837476Y-126216580D01*
X160789857Y-125311819D02*
X161408904Y-125311819D01*
X161408904Y-125311819D02*
X161075571Y-125692771D01*
X161075571Y-125692771D02*
X161218428Y-125692771D01*
X161218428Y-125692771D02*
X161313666Y-125740390D01*
X161313666Y-125740390D02*
X161361285Y-125788009D01*
X161361285Y-125788009D02*
X161408904Y-125883247D01*
X161408904Y-125883247D02*
X161408904Y-126121342D01*
X161408904Y-126121342D02*
X161361285Y-126216580D01*
X161361285Y-126216580D02*
X161313666Y-126264200D01*
X161313666Y-126264200D02*
X161218428Y-126311819D01*
X161218428Y-126311819D02*
X160932714Y-126311819D01*
X160932714Y-126311819D02*
X160837476Y-126264200D01*
X160837476Y-126264200D02*
X160789857Y-126216580D01*
X121438405Y-80988819D02*
X121438405Y-81798342D01*
X121438405Y-81798342D02*
X121486024Y-81893580D01*
X121486024Y-81893580D02*
X121533643Y-81941200D01*
X121533643Y-81941200D02*
X121628881Y-81988819D01*
X121628881Y-81988819D02*
X121819357Y-81988819D01*
X121819357Y-81988819D02*
X121914595Y-81941200D01*
X121914595Y-81941200D02*
X121962214Y-81893580D01*
X121962214Y-81893580D02*
X122009833Y-81798342D01*
X122009833Y-81798342D02*
X122009833Y-80988819D01*
X123009833Y-81988819D02*
X122438405Y-81988819D01*
X122724119Y-81988819D02*
X122724119Y-80988819D01*
X122724119Y-80988819D02*
X122628881Y-81131676D01*
X122628881Y-81131676D02*
X122533643Y-81226914D01*
X122533643Y-81226914D02*
X122438405Y-81274533D01*
X123962214Y-81988819D02*
X123390786Y-81988819D01*
X123676500Y-81988819D02*
X123676500Y-80988819D01*
X123676500Y-80988819D02*
X123581262Y-81131676D01*
X123581262Y-81131676D02*
X123486024Y-81226914D01*
X123486024Y-81226914D02*
X123390786Y-81274533D01*
X131899819Y-124182094D02*
X130899819Y-124182094D01*
X130899819Y-124182094D02*
X130899819Y-123943999D01*
X130899819Y-123943999D02*
X130947438Y-123801142D01*
X130947438Y-123801142D02*
X131042676Y-123705904D01*
X131042676Y-123705904D02*
X131137914Y-123658285D01*
X131137914Y-123658285D02*
X131328390Y-123610666D01*
X131328390Y-123610666D02*
X131471247Y-123610666D01*
X131471247Y-123610666D02*
X131661723Y-123658285D01*
X131661723Y-123658285D02*
X131756961Y-123705904D01*
X131756961Y-123705904D02*
X131852200Y-123801142D01*
X131852200Y-123801142D02*
X131899819Y-123943999D01*
X131899819Y-123943999D02*
X131899819Y-124182094D01*
X130899819Y-122753523D02*
X130899819Y-122943999D01*
X130899819Y-122943999D02*
X130947438Y-123039237D01*
X130947438Y-123039237D02*
X130995057Y-123086856D01*
X130995057Y-123086856D02*
X131137914Y-123182094D01*
X131137914Y-123182094D02*
X131328390Y-123229713D01*
X131328390Y-123229713D02*
X131709342Y-123229713D01*
X131709342Y-123229713D02*
X131804580Y-123182094D01*
X131804580Y-123182094D02*
X131852200Y-123134475D01*
X131852200Y-123134475D02*
X131899819Y-123039237D01*
X131899819Y-123039237D02*
X131899819Y-122848761D01*
X131899819Y-122848761D02*
X131852200Y-122753523D01*
X131852200Y-122753523D02*
X131804580Y-122705904D01*
X131804580Y-122705904D02*
X131709342Y-122658285D01*
X131709342Y-122658285D02*
X131471247Y-122658285D01*
X131471247Y-122658285D02*
X131376009Y-122705904D01*
X131376009Y-122705904D02*
X131328390Y-122753523D01*
X131328390Y-122753523D02*
X131280771Y-122848761D01*
X131280771Y-122848761D02*
X131280771Y-123039237D01*
X131280771Y-123039237D02*
X131328390Y-123134475D01*
X131328390Y-123134475D02*
X131376009Y-123182094D01*
X131376009Y-123182094D02*
X131471247Y-123229713D01*
X133469142Y-132439580D02*
X133421523Y-132487200D01*
X133421523Y-132487200D02*
X133278666Y-132534819D01*
X133278666Y-132534819D02*
X133183428Y-132534819D01*
X133183428Y-132534819D02*
X133040571Y-132487200D01*
X133040571Y-132487200D02*
X132945333Y-132391961D01*
X132945333Y-132391961D02*
X132897714Y-132296723D01*
X132897714Y-132296723D02*
X132850095Y-132106247D01*
X132850095Y-132106247D02*
X132850095Y-131963390D01*
X132850095Y-131963390D02*
X132897714Y-131772914D01*
X132897714Y-131772914D02*
X132945333Y-131677676D01*
X132945333Y-131677676D02*
X133040571Y-131582438D01*
X133040571Y-131582438D02*
X133183428Y-131534819D01*
X133183428Y-131534819D02*
X133278666Y-131534819D01*
X133278666Y-131534819D02*
X133421523Y-131582438D01*
X133421523Y-131582438D02*
X133469142Y-131630057D01*
X134421523Y-132534819D02*
X133850095Y-132534819D01*
X134135809Y-132534819D02*
X134135809Y-131534819D01*
X134135809Y-131534819D02*
X134040571Y-131677676D01*
X134040571Y-131677676D02*
X133945333Y-131772914D01*
X133945333Y-131772914D02*
X133850095Y-131820533D01*
X134754857Y-131534819D02*
X135421523Y-131534819D01*
X135421523Y-131534819D02*
X134992952Y-132534819D01*
X147447095Y-146901819D02*
X147447095Y-147711342D01*
X147447095Y-147711342D02*
X147494714Y-147806580D01*
X147494714Y-147806580D02*
X147542333Y-147854200D01*
X147542333Y-147854200D02*
X147637571Y-147901819D01*
X147637571Y-147901819D02*
X147828047Y-147901819D01*
X147828047Y-147901819D02*
X147923285Y-147854200D01*
X147923285Y-147854200D02*
X147970904Y-147806580D01*
X147970904Y-147806580D02*
X148018523Y-147711342D01*
X148018523Y-147711342D02*
X148018523Y-146901819D01*
X148923285Y-146901819D02*
X148732809Y-146901819D01*
X148732809Y-146901819D02*
X148637571Y-146949438D01*
X148637571Y-146949438D02*
X148589952Y-146997057D01*
X148589952Y-146997057D02*
X148494714Y-147139914D01*
X148494714Y-147139914D02*
X148447095Y-147330390D01*
X148447095Y-147330390D02*
X148447095Y-147711342D01*
X148447095Y-147711342D02*
X148494714Y-147806580D01*
X148494714Y-147806580D02*
X148542333Y-147854200D01*
X148542333Y-147854200D02*
X148637571Y-147901819D01*
X148637571Y-147901819D02*
X148828047Y-147901819D01*
X148828047Y-147901819D02*
X148923285Y-147854200D01*
X148923285Y-147854200D02*
X148970904Y-147806580D01*
X148970904Y-147806580D02*
X149018523Y-147711342D01*
X149018523Y-147711342D02*
X149018523Y-147473247D01*
X149018523Y-147473247D02*
X148970904Y-147378009D01*
X148970904Y-147378009D02*
X148923285Y-147330390D01*
X148923285Y-147330390D02*
X148828047Y-147282771D01*
X148828047Y-147282771D02*
X148637571Y-147282771D01*
X148637571Y-147282771D02*
X148542333Y-147330390D01*
X148542333Y-147330390D02*
X148494714Y-147378009D01*
X148494714Y-147378009D02*
X148447095Y-147473247D01*
X116213095Y-107150819D02*
X116784523Y-107150819D01*
X116498809Y-108150819D02*
X116498809Y-107150819D01*
X117117857Y-108150819D02*
X117117857Y-107150819D01*
X117117857Y-107150819D02*
X117498809Y-107150819D01*
X117498809Y-107150819D02*
X117594047Y-107198438D01*
X117594047Y-107198438D02*
X117641666Y-107246057D01*
X117641666Y-107246057D02*
X117689285Y-107341295D01*
X117689285Y-107341295D02*
X117689285Y-107484152D01*
X117689285Y-107484152D02*
X117641666Y-107579390D01*
X117641666Y-107579390D02*
X117594047Y-107627009D01*
X117594047Y-107627009D02*
X117498809Y-107674628D01*
X117498809Y-107674628D02*
X117117857Y-107674628D01*
X118641666Y-108150819D02*
X118070238Y-108150819D01*
X118355952Y-108150819D02*
X118355952Y-107150819D01*
X118355952Y-107150819D02*
X118260714Y-107293676D01*
X118260714Y-107293676D02*
X118165476Y-107388914D01*
X118165476Y-107388914D02*
X118070238Y-107436533D01*
X143121142Y-123390819D02*
X142787809Y-122914628D01*
X142549714Y-123390819D02*
X142549714Y-122390819D01*
X142549714Y-122390819D02*
X142930666Y-122390819D01*
X142930666Y-122390819D02*
X143025904Y-122438438D01*
X143025904Y-122438438D02*
X143073523Y-122486057D01*
X143073523Y-122486057D02*
X143121142Y-122581295D01*
X143121142Y-122581295D02*
X143121142Y-122724152D01*
X143121142Y-122724152D02*
X143073523Y-122819390D01*
X143073523Y-122819390D02*
X143025904Y-122867009D01*
X143025904Y-122867009D02*
X142930666Y-122914628D01*
X142930666Y-122914628D02*
X142549714Y-122914628D01*
X144073523Y-123390819D02*
X143502095Y-123390819D01*
X143787809Y-123390819D02*
X143787809Y-122390819D01*
X143787809Y-122390819D02*
X143692571Y-122533676D01*
X143692571Y-122533676D02*
X143597333Y-122628914D01*
X143597333Y-122628914D02*
X143502095Y-122676533D01*
X144406857Y-122390819D02*
X145073523Y-122390819D01*
X145073523Y-122390819D02*
X144644952Y-123390819D01*
X137002080Y-116466857D02*
X137049700Y-116514476D01*
X137049700Y-116514476D02*
X137097319Y-116657333D01*
X137097319Y-116657333D02*
X137097319Y-116752571D01*
X137097319Y-116752571D02*
X137049700Y-116895428D01*
X137049700Y-116895428D02*
X136954461Y-116990666D01*
X136954461Y-116990666D02*
X136859223Y-117038285D01*
X136859223Y-117038285D02*
X136668747Y-117085904D01*
X136668747Y-117085904D02*
X136525890Y-117085904D01*
X136525890Y-117085904D02*
X136335414Y-117038285D01*
X136335414Y-117038285D02*
X136240176Y-116990666D01*
X136240176Y-116990666D02*
X136144938Y-116895428D01*
X136144938Y-116895428D02*
X136097319Y-116752571D01*
X136097319Y-116752571D02*
X136097319Y-116657333D01*
X136097319Y-116657333D02*
X136144938Y-116514476D01*
X136144938Y-116514476D02*
X136192557Y-116466857D01*
X137097319Y-115514476D02*
X137097319Y-116085904D01*
X137097319Y-115800190D02*
X136097319Y-115800190D01*
X136097319Y-115800190D02*
X136240176Y-115895428D01*
X136240176Y-115895428D02*
X136335414Y-115990666D01*
X136335414Y-115990666D02*
X136383033Y-116085904D01*
X136192557Y-115133523D02*
X136144938Y-115085904D01*
X136144938Y-115085904D02*
X136097319Y-114990666D01*
X136097319Y-114990666D02*
X136097319Y-114752571D01*
X136097319Y-114752571D02*
X136144938Y-114657333D01*
X136144938Y-114657333D02*
X136192557Y-114609714D01*
X136192557Y-114609714D02*
X136287795Y-114562095D01*
X136287795Y-114562095D02*
X136383033Y-114562095D01*
X136383033Y-114562095D02*
X136525890Y-114609714D01*
X136525890Y-114609714D02*
X137097319Y-115181142D01*
X137097319Y-115181142D02*
X137097319Y-114562095D01*
X127166819Y-144779904D02*
X127976342Y-144779904D01*
X127976342Y-144779904D02*
X128071580Y-144732285D01*
X128071580Y-144732285D02*
X128119200Y-144684666D01*
X128119200Y-144684666D02*
X128166819Y-144589428D01*
X128166819Y-144589428D02*
X128166819Y-144398952D01*
X128166819Y-144398952D02*
X128119200Y-144303714D01*
X128119200Y-144303714D02*
X128071580Y-144256095D01*
X128071580Y-144256095D02*
X127976342Y-144208476D01*
X127976342Y-144208476D02*
X127166819Y-144208476D01*
X127166819Y-143256095D02*
X127166819Y-143732285D01*
X127166819Y-143732285D02*
X127643009Y-143779904D01*
X127643009Y-143779904D02*
X127595390Y-143732285D01*
X127595390Y-143732285D02*
X127547771Y-143637047D01*
X127547771Y-143637047D02*
X127547771Y-143398952D01*
X127547771Y-143398952D02*
X127595390Y-143303714D01*
X127595390Y-143303714D02*
X127643009Y-143256095D01*
X127643009Y-143256095D02*
X127738247Y-143208476D01*
X127738247Y-143208476D02*
X127976342Y-143208476D01*
X127976342Y-143208476D02*
X128071580Y-143256095D01*
X128071580Y-143256095D02*
X128119200Y-143303714D01*
X128119200Y-143303714D02*
X128166819Y-143398952D01*
X128166819Y-143398952D02*
X128166819Y-143637047D01*
X128166819Y-143637047D02*
X128119200Y-143732285D01*
X128119200Y-143732285D02*
X128071580Y-143779904D01*
X101800819Y-116466857D02*
X101324628Y-116800190D01*
X101800819Y-117038285D02*
X100800819Y-117038285D01*
X100800819Y-117038285D02*
X100800819Y-116657333D01*
X100800819Y-116657333D02*
X100848438Y-116562095D01*
X100848438Y-116562095D02*
X100896057Y-116514476D01*
X100896057Y-116514476D02*
X100991295Y-116466857D01*
X100991295Y-116466857D02*
X101134152Y-116466857D01*
X101134152Y-116466857D02*
X101229390Y-116514476D01*
X101229390Y-116514476D02*
X101277009Y-116562095D01*
X101277009Y-116562095D02*
X101324628Y-116657333D01*
X101324628Y-116657333D02*
X101324628Y-117038285D01*
X100896057Y-116085904D02*
X100848438Y-116038285D01*
X100848438Y-116038285D02*
X100800819Y-115943047D01*
X100800819Y-115943047D02*
X100800819Y-115704952D01*
X100800819Y-115704952D02*
X100848438Y-115609714D01*
X100848438Y-115609714D02*
X100896057Y-115562095D01*
X100896057Y-115562095D02*
X100991295Y-115514476D01*
X100991295Y-115514476D02*
X101086533Y-115514476D01*
X101086533Y-115514476D02*
X101229390Y-115562095D01*
X101229390Y-115562095D02*
X101800819Y-116133523D01*
X101800819Y-116133523D02*
X101800819Y-115514476D01*
X100800819Y-114657333D02*
X100800819Y-114847809D01*
X100800819Y-114847809D02*
X100848438Y-114943047D01*
X100848438Y-114943047D02*
X100896057Y-114990666D01*
X100896057Y-114990666D02*
X101038914Y-115085904D01*
X101038914Y-115085904D02*
X101229390Y-115133523D01*
X101229390Y-115133523D02*
X101610342Y-115133523D01*
X101610342Y-115133523D02*
X101705580Y-115085904D01*
X101705580Y-115085904D02*
X101753200Y-115038285D01*
X101753200Y-115038285D02*
X101800819Y-114943047D01*
X101800819Y-114943047D02*
X101800819Y-114752571D01*
X101800819Y-114752571D02*
X101753200Y-114657333D01*
X101753200Y-114657333D02*
X101705580Y-114609714D01*
X101705580Y-114609714D02*
X101610342Y-114562095D01*
X101610342Y-114562095D02*
X101372247Y-114562095D01*
X101372247Y-114562095D02*
X101277009Y-114609714D01*
X101277009Y-114609714D02*
X101229390Y-114657333D01*
X101229390Y-114657333D02*
X101181771Y-114752571D01*
X101181771Y-114752571D02*
X101181771Y-114943047D01*
X101181771Y-114943047D02*
X101229390Y-115038285D01*
X101229390Y-115038285D02*
X101277009Y-115085904D01*
X101277009Y-115085904D02*
X101372247Y-115133523D01*
X159789905Y-117294819D02*
X159789905Y-116294819D01*
X159789905Y-116294819D02*
X160028000Y-116294819D01*
X160028000Y-116294819D02*
X160170857Y-116342438D01*
X160170857Y-116342438D02*
X160266095Y-116437676D01*
X160266095Y-116437676D02*
X160313714Y-116532914D01*
X160313714Y-116532914D02*
X160361333Y-116723390D01*
X160361333Y-116723390D02*
X160361333Y-116866247D01*
X160361333Y-116866247D02*
X160313714Y-117056723D01*
X160313714Y-117056723D02*
X160266095Y-117151961D01*
X160266095Y-117151961D02*
X160170857Y-117247200D01*
X160170857Y-117247200D02*
X160028000Y-117294819D01*
X160028000Y-117294819D02*
X159789905Y-117294819D01*
X160837524Y-117294819D02*
X161028000Y-117294819D01*
X161028000Y-117294819D02*
X161123238Y-117247200D01*
X161123238Y-117247200D02*
X161170857Y-117199580D01*
X161170857Y-117199580D02*
X161266095Y-117056723D01*
X161266095Y-117056723D02*
X161313714Y-116866247D01*
X161313714Y-116866247D02*
X161313714Y-116485295D01*
X161313714Y-116485295D02*
X161266095Y-116390057D01*
X161266095Y-116390057D02*
X161218476Y-116342438D01*
X161218476Y-116342438D02*
X161123238Y-116294819D01*
X161123238Y-116294819D02*
X160932762Y-116294819D01*
X160932762Y-116294819D02*
X160837524Y-116342438D01*
X160837524Y-116342438D02*
X160789905Y-116390057D01*
X160789905Y-116390057D02*
X160742286Y-116485295D01*
X160742286Y-116485295D02*
X160742286Y-116723390D01*
X160742286Y-116723390D02*
X160789905Y-116818628D01*
X160789905Y-116818628D02*
X160837524Y-116866247D01*
X160837524Y-116866247D02*
X160932762Y-116913866D01*
X160932762Y-116913866D02*
X161123238Y-116913866D01*
X161123238Y-116913866D02*
X161218476Y-116866247D01*
X161218476Y-116866247D02*
X161266095Y-116818628D01*
X161266095Y-116818628D02*
X161313714Y-116723390D01*
X137755333Y-133770819D02*
X137279143Y-133770819D01*
X137279143Y-133770819D02*
X137279143Y-132770819D01*
X138612476Y-133770819D02*
X138041048Y-133770819D01*
X138326762Y-133770819D02*
X138326762Y-132770819D01*
X138326762Y-132770819D02*
X138231524Y-132913676D01*
X138231524Y-132913676D02*
X138136286Y-133008914D01*
X138136286Y-133008914D02*
X138041048Y-133056533D01*
D13*
%TO.C,J2*%
X86757000Y-139019000D02*
X85757000Y-138019000D01*
X88872000Y-139019000D02*
X86757000Y-139019000D01*
X92062000Y-139019000D02*
X95887000Y-139019000D01*
X95887000Y-139019000D02*
X95887000Y-125649000D01*
X85757000Y-138019000D02*
X85757000Y-126649000D01*
X85757000Y-126649000D02*
X86757000Y-125649000D01*
X86757000Y-125649000D02*
X88872000Y-125649000D01*
X95887000Y-125649000D02*
X92062000Y-125649000D01*
%TO.C,C7*%
X120415164Y-107590000D02*
X120630836Y-107590000D01*
X120415164Y-108310000D02*
X120630836Y-108310000D01*
D12*
%TO.C,U8*%
X151079000Y-123459000D02*
X151079000Y-123159000D01*
X151079000Y-123459000D02*
X150779000Y-123459000D01*
X151079000Y-120959000D02*
X151079000Y-120584000D01*
X151079000Y-120584000D02*
X150779000Y-120284000D01*
X150779000Y-120284000D02*
X150779000Y-120009000D01*
X147879000Y-123459000D02*
X148179000Y-123459000D01*
X147879000Y-123459000D02*
X147879000Y-123159000D01*
X147879000Y-120259000D02*
X148179000Y-120259000D01*
X147879000Y-120259000D02*
X147879000Y-120559000D01*
D13*
%TO.C,C29*%
X131204580Y-97538000D02*
X130923420Y-97538000D01*
X131204580Y-96518000D02*
X130923420Y-96518000D01*
%TO.C,C22*%
X157580000Y-132453748D02*
X157580000Y-132976252D01*
X156110000Y-132453748D02*
X156110000Y-132976252D01*
%TO.C,C18*%
X130762000Y-141591420D02*
X130762000Y-141872580D01*
X129742000Y-141591420D02*
X129742000Y-141872580D01*
%TO.C,C23*%
X156110000Y-136532252D02*
X156110000Y-136009748D01*
X157580000Y-136532252D02*
X157580000Y-136009748D01*
%TO.C,R3*%
X116993936Y-133885000D02*
X117448064Y-133885000D01*
X116993936Y-135355000D02*
X117448064Y-135355000D01*
%TO.C,J1*%
X101794000Y-124012000D02*
X101794000Y-122682000D01*
X103124000Y-124012000D02*
X101794000Y-124012000D01*
X104394000Y-124012000D02*
X117154000Y-124012000D01*
X104394000Y-124012000D02*
X104394000Y-121352000D01*
X117154000Y-124012000D02*
X117154000Y-121352000D01*
X104394000Y-121352000D02*
X117154000Y-121352000D01*
%TO.C,R2*%
X119153000Y-132307064D02*
X119153000Y-131852936D01*
X120623000Y-132307064D02*
X120623000Y-131852936D01*
%TO.C,R5*%
X103659000Y-133577064D02*
X103659000Y-133122936D01*
X105129000Y-133577064D02*
X105129000Y-133122936D01*
%TO.C,C15*%
X127330420Y-137412000D02*
X127611580Y-137412000D01*
X127330420Y-138432000D02*
X127611580Y-138432000D01*
%TO.C,C24*%
X157580000Y-140082748D02*
X157580000Y-140605252D01*
X156110000Y-140082748D02*
X156110000Y-140605252D01*
%TO.C,C13*%
X150360748Y-115851000D02*
X150883252Y-115851000D01*
X150360748Y-117321000D02*
X150883252Y-117321000D01*
%TO.C,U1*%
X125741000Y-109013000D02*
X125741000Y-109488000D01*
X125266000Y-114233000D02*
X125741000Y-114233000D01*
X125266000Y-109013000D02*
X125741000Y-109013000D01*
X120996000Y-114233000D02*
X120521000Y-114233000D01*
X120996000Y-109013000D02*
X120521000Y-109013000D01*
X120521000Y-114233000D02*
X120521000Y-113758000D01*
X120521000Y-109013000D02*
X120521000Y-109488000D01*
%TO.C,R24*%
X114327000Y-80618064D02*
X114327000Y-80163936D01*
X115797000Y-80618064D02*
X115797000Y-80163936D01*
%TO.C,J3*%
X100031000Y-92858000D02*
X100031000Y-123828000D01*
X87691000Y-92858000D02*
X100031000Y-92858000D01*
X100925338Y-113633000D02*
X100925338Y-114133000D01*
X100492325Y-113883000D02*
X100925338Y-113633000D01*
X100925338Y-114133000D02*
X100492325Y-113883000D01*
X100031000Y-123828000D02*
X87691000Y-123828000D01*
%TO.C,R25*%
X126604500Y-83930258D02*
X126604500Y-83455742D01*
X127649500Y-83930258D02*
X127649500Y-83455742D01*
%TO.C,C28*%
X126542748Y-134022000D02*
X127965252Y-134022000D01*
X126542748Y-136742000D02*
X127965252Y-136742000D01*
%TO.C,R7*%
X100811000Y-136170936D02*
X100811000Y-136625064D01*
X99341000Y-136170936D02*
X99341000Y-136625064D01*
%TO.C,U7*%
X105791000Y-114320000D02*
X109241000Y-114320000D01*
X105791000Y-114320000D02*
X103841000Y-114320000D01*
X105791000Y-109200000D02*
X107741000Y-109200000D01*
X105791000Y-109200000D02*
X103841000Y-109200000D01*
%TO.C,JP1*%
X133050000Y-101470000D02*
X133650000Y-101470000D01*
X134350000Y-102170000D02*
X134350000Y-103570000D01*
X132350000Y-103570000D02*
X132350000Y-102170000D01*
X133650000Y-104270000D02*
X133050000Y-104270000D01*
X134350000Y-102170000D02*
G75*
G03*
X133650000Y-101470000I-699999J1D01*
G01*
X133050000Y-101470000D02*
G75*
G03*
X132350000Y-102170000I-1J-699999D01*
G01*
X133650000Y-104270000D02*
G75*
G03*
X134350000Y-103570000I0J700000D01*
G01*
X132350000Y-103570000D02*
G75*
G03*
X133050000Y-104270000I700000J0D01*
G01*
%TO.C,FB1*%
X135062878Y-109041000D02*
X135862122Y-109041000D01*
X135062878Y-110161000D02*
X135862122Y-110161000D01*
%TO.C,C8*%
X125710836Y-115676000D02*
X125495164Y-115676000D01*
X125710836Y-114956000D02*
X125495164Y-114956000D01*
%TO.C,R6*%
X107161000Y-135027936D02*
X107161000Y-135482064D01*
X105691000Y-135027936D02*
X105691000Y-135482064D01*
%TO.C,R16*%
X147093000Y-117575064D02*
X147093000Y-117120936D01*
X148563000Y-117575064D02*
X148563000Y-117120936D01*
D11*
%TO.C,U4*%
X109409000Y-131655000D02*
X109409000Y-131855000D01*
X109409000Y-131655000D02*
X113559000Y-131655000D01*
X109409000Y-131855000D02*
X108109000Y-131855000D01*
X109409000Y-136805000D02*
X109409000Y-136605000D01*
X109409000Y-136805000D02*
X113559000Y-136805000D01*
X113559000Y-131655000D02*
X113559000Y-131855000D01*
X113559000Y-136805000D02*
X113559000Y-136605000D01*
D13*
%TO.C,C3*%
X137044000Y-73665748D02*
X137044000Y-74188252D01*
X135574000Y-73665748D02*
X135574000Y-74188252D01*
%TO.C,C5*%
X103874921Y-108669000D02*
X103352417Y-108669000D01*
X103874921Y-107199000D02*
X103352417Y-107199000D01*
%TO.C,C26*%
X155697000Y-119305420D02*
X155697000Y-119586580D01*
X154677000Y-119305420D02*
X154677000Y-119586580D01*
D12*
%TO.C,U9*%
X134051000Y-97964000D02*
X134301000Y-97964000D01*
X131501000Y-97964000D02*
X131651000Y-97964000D01*
X131491000Y-97964000D02*
X131491000Y-98114000D01*
X134201000Y-100514000D02*
X134201000Y-100664000D01*
X134201000Y-100664000D02*
X134051000Y-100664000D01*
X131501000Y-100664000D02*
X131501000Y-100514000D01*
X131501000Y-100664000D02*
X131651000Y-100664000D01*
D13*
%TO.C,R19*%
X155929064Y-115667000D02*
X155474936Y-115667000D01*
X155929064Y-114197000D02*
X155474936Y-114197000D01*
%TO.C,JP3*%
X119250000Y-128443000D02*
X119250000Y-127843000D01*
X119950000Y-127143000D02*
X121350000Y-127143000D01*
X121350000Y-129143000D02*
X119950000Y-129143000D01*
X122050000Y-127843000D02*
X122050000Y-128443000D01*
X119950000Y-127143000D02*
G75*
G03*
X119250000Y-127843000I-1J-699999D01*
G01*
X119250000Y-128443000D02*
G75*
G03*
X119950000Y-129143000I699999J-1D01*
G01*
X122050000Y-127843000D02*
G75*
G03*
X121350000Y-127143000I-700000J0D01*
G01*
X121350000Y-129143000D02*
G75*
G03*
X122050000Y-128443000I0J700000D01*
G01*
%TO.C,D2*%
X149274500Y-126345000D02*
X149274500Y-128265000D01*
X149274500Y-128265000D02*
X151959500Y-128265000D01*
X151959500Y-126345000D02*
X149274500Y-126345000D01*
%TO.C,C31*%
X125093000Y-82182580D02*
X125093000Y-81901420D01*
X126113000Y-82182580D02*
X126113000Y-81901420D01*
D12*
%TO.C,D13*%
X157616000Y-123636000D02*
X157966000Y-123636000D01*
X159116000Y-123636000D02*
X159441000Y-123311000D01*
X159441000Y-123311000D02*
X160141000Y-123311000D01*
X157616000Y-123286000D02*
X157616000Y-123636000D01*
X157616000Y-120686000D02*
X157616000Y-120336000D01*
X157616000Y-120336000D02*
X157916000Y-120336000D01*
X159291000Y-120336000D02*
X159616000Y-120336000D01*
X159616000Y-120336000D02*
X159616000Y-120636000D01*
D13*
%TO.C,R23*%
X113843500Y-82068936D02*
X113843500Y-82523064D01*
X112373500Y-82068936D02*
X112373500Y-82523064D01*
%TO.C,D11*%
X156174000Y-111376000D02*
X156174000Y-113051000D01*
X156174000Y-111376000D02*
X156174000Y-110726000D01*
X159294000Y-111376000D02*
X159294000Y-112026000D01*
X159294000Y-111376000D02*
X159294000Y-110726000D01*
%TO.C,R9*%
X123621000Y-140742936D02*
X123621000Y-141197064D01*
X122151000Y-140742936D02*
X122151000Y-141197064D01*
%TO.C,D14*%
X157387000Y-117924000D02*
X157387000Y-116004000D01*
X157387000Y-116004000D02*
X154702000Y-116004000D01*
X154702000Y-117924000D02*
X157387000Y-117924000D01*
%TO.C,J8*%
X137795000Y-109220000D02*
X137795000Y-81788000D01*
X143002000Y-109220000D02*
X143002000Y-81788000D01*
X159893000Y-109220000D02*
X159893000Y-81788000D01*
X164973000Y-109220000D02*
X137795000Y-109093000D01*
X140522000Y-100644000D02*
X139192000Y-100644000D01*
X140522000Y-99314000D02*
X140522000Y-100644000D01*
X137862000Y-98044000D02*
X137862000Y-90364000D01*
X140522000Y-98044000D02*
X137862000Y-98044000D01*
X140522000Y-98044000D02*
X140522000Y-90364000D01*
X140522000Y-90364000D02*
X137862000Y-90364000D01*
X164973000Y-81788000D02*
X164973000Y-109220000D01*
X164973000Y-81788000D02*
X137795000Y-81788000D01*
%TO.C,C10*%
X132971000Y-111939420D02*
X132971000Y-112220580D01*
X131951000Y-111939420D02*
X131951000Y-112220580D01*
%TO.C,R21*%
X135904500Y-98251742D02*
X135904500Y-98726258D01*
X134859500Y-98251742D02*
X134859500Y-98726258D01*
%TO.C,SW2*%
X148594000Y-73164000D02*
X148594000Y-74664000D01*
X149844000Y-77164000D02*
X154344000Y-77164000D01*
X154344000Y-70664000D02*
X149844000Y-70664000D01*
X155594000Y-74664000D02*
X155594000Y-73164000D01*
%TO.C,C16*%
X130759252Y-130138000D02*
X129336748Y-130138000D01*
X130759252Y-127418000D02*
X129336748Y-127418000D01*
%TO.C,J4*%
X90232000Y-79061000D02*
X91562000Y-79061000D01*
X90232000Y-80391000D02*
X90232000Y-79061000D01*
X90232000Y-81661000D02*
X90232000Y-91881000D01*
X90232000Y-81661000D02*
X92832000Y-81661000D01*
X90232000Y-91881000D02*
X95432000Y-91881000D01*
X92832000Y-79061000D02*
X95432000Y-79061000D01*
X92832000Y-81661000D02*
X92832000Y-79061000D01*
X95432000Y-79061000D02*
X95432000Y-91881000D01*
%TO.C,Q2*%
X110060500Y-83856000D02*
X111735500Y-83856000D01*
X110060500Y-83856000D02*
X109410500Y-83856000D01*
X110060500Y-80736000D02*
X110710500Y-80736000D01*
X110060500Y-80736000D02*
X109410500Y-80736000D01*
%TO.C,R15*%
X121185000Y-119909564D02*
X121185000Y-119455436D01*
X122655000Y-119909564D02*
X122655000Y-119455436D01*
%TO.C,C4*%
X111513252Y-111733000D02*
X110990748Y-111733000D01*
X111513252Y-110263000D02*
X110990748Y-110263000D01*
%TO.C,C25*%
X107415000Y-138422748D02*
X107415000Y-138945252D01*
X105945000Y-138422748D02*
X105945000Y-138945252D01*
%TO.C,C20*%
X116204000Y-137487500D02*
X116204000Y-138275000D01*
X116597750Y-137881250D02*
X115810250Y-137881250D01*
X116702063Y-138515000D02*
X115416500Y-138515000D01*
X116702063Y-138515000D02*
X117766500Y-139579437D01*
X112010937Y-138515000D02*
X113296500Y-138515000D01*
X112010937Y-138515000D02*
X110946500Y-139579437D01*
X117766500Y-139579437D02*
X117766500Y-145335000D01*
X110946500Y-139579437D02*
X110946500Y-145335000D01*
X117766500Y-145335000D02*
X115416500Y-145335000D01*
X110946500Y-145335000D02*
X113296500Y-145335000D01*
%TO.C,R11*%
X149602936Y-143419000D02*
X150057064Y-143419000D01*
X149602936Y-144889000D02*
X150057064Y-144889000D01*
%TO.C,D8*%
X120960000Y-125050500D02*
X122880000Y-125050500D01*
X122880000Y-125050500D02*
X122880000Y-122365500D01*
X120960000Y-122365500D02*
X120960000Y-125050500D01*
%TO.C,R10*%
X154694064Y-128040000D02*
X154239936Y-128040000D01*
X154694064Y-126570000D02*
X154239936Y-126570000D01*
%TO.C,C1*%
X132590000Y-108190420D02*
X132590000Y-108471580D01*
X131570000Y-108190420D02*
X131570000Y-108471580D01*
%TO.C,C14*%
X150261420Y-117788000D02*
X150542580Y-117788000D01*
X150261420Y-118808000D02*
X150542580Y-118808000D01*
%TO.C,SW1*%
X131962000Y-72300000D02*
X131962000Y-71510000D01*
X131362000Y-70500000D02*
X125662000Y-70500000D01*
X130112000Y-73350000D02*
X128412000Y-73350000D01*
X129912000Y-70500000D02*
X129912000Y-69210000D01*
X129912000Y-69210000D02*
X129712000Y-69000000D01*
X129712000Y-69000000D02*
X128812000Y-69000000D01*
X128612000Y-69210000D02*
X128812000Y-69000000D01*
X128612000Y-69210000D02*
X128612000Y-70500000D01*
X127112000Y-73350000D02*
X126912000Y-73350000D01*
X125062000Y-71510000D02*
X125062000Y-72300000D01*
%TO.C,C35*%
X121906420Y-85850000D02*
X122187580Y-85850000D01*
X121906420Y-86870000D02*
X122187580Y-86870000D01*
%TO.C,F1*%
X159872000Y-114264064D02*
X159872000Y-113059936D01*
X161692000Y-114264064D02*
X161692000Y-113059936D01*
%TO.C,C21*%
X145188000Y-133484252D02*
X145188000Y-132961748D01*
X146658000Y-133484252D02*
X146658000Y-132961748D01*
%TO.C,SW3*%
X138994000Y-73164000D02*
X138994000Y-74664000D01*
X140244000Y-77164000D02*
X144744000Y-77164000D01*
X144744000Y-70664000D02*
X140244000Y-70664000D01*
X145994000Y-74664000D02*
X145994000Y-73164000D01*
%TO.C,C27*%
X159391580Y-119890000D02*
X159110420Y-119890000D01*
X159391580Y-118870000D02*
X159110420Y-118870000D01*
%TO.C,U2*%
X131159000Y-109854000D02*
X131159000Y-106554000D01*
X131159000Y-106554000D02*
X127159000Y-106554000D01*
%TO.C,BZ1*%
X113848000Y-99314000D02*
G75*
G03*
X113848000Y-99314000I-6100000J0D01*
G01*
%TO.C,J6*%
X163055000Y-125725000D02*
X163055000Y-125305000D01*
X165035000Y-125725000D02*
X163055000Y-125725000D01*
X167405000Y-125725000D02*
X167005000Y-125725000D01*
X162825000Y-123725000D02*
X162375000Y-123725000D01*
X162375000Y-123275000D02*
X162375000Y-123725000D01*
X163055000Y-118205000D02*
X163055000Y-118625000D01*
X165035000Y-118205000D02*
X163055000Y-118205000D01*
X167005000Y-118205000D02*
X167405000Y-118205000D01*
%TO.C,D3*%
X154992500Y-145114000D02*
X154992500Y-143194000D01*
X154992500Y-143194000D02*
X152307500Y-143194000D01*
X152307500Y-145114000D02*
X154992500Y-145114000D01*
%TO.C,C11*%
X135101000Y-112006748D02*
X135101000Y-112529252D01*
X133631000Y-112006748D02*
X133631000Y-112529252D01*
%TO.C,U3*%
X147284000Y-128543000D02*
X153294000Y-128543000D01*
X149534000Y-135363000D02*
X153294000Y-135363000D01*
X153294000Y-128543000D02*
X153294000Y-129803000D01*
X153294000Y-135363000D02*
X153294000Y-134103000D01*
%TO.C,Q1*%
X102072000Y-140891500D02*
X102072000Y-142566500D01*
X102072000Y-140891500D02*
X102072000Y-140241500D01*
X105192000Y-140891500D02*
X105192000Y-141541500D01*
X105192000Y-140891500D02*
X105192000Y-140241500D01*
%TO.C,C6*%
X148973000Y-125335420D02*
X148973000Y-125616580D01*
X147953000Y-125335420D02*
X147953000Y-125616580D01*
%TO.C,C2*%
X158723000Y-71620748D02*
X158723000Y-72143252D01*
X157253000Y-71620748D02*
X157253000Y-72143252D01*
%TO.C,R18*%
X152663742Y-119685500D02*
X153138258Y-119685500D01*
X152663742Y-120730500D02*
X153138258Y-120730500D01*
%TO.C,R13*%
X125249000Y-119909564D02*
X125249000Y-119455436D01*
X126719000Y-119909564D02*
X126719000Y-119455436D01*
%TO.C,R1*%
X128423936Y-75084000D02*
X128878064Y-75084000D01*
X128423936Y-76554000D02*
X128878064Y-76554000D01*
%TO.C,C30*%
X129680580Y-100332000D02*
X129399420Y-100332000D01*
X129680580Y-99312000D02*
X129399420Y-99312000D01*
%TO.C,JP2*%
X130256000Y-101470000D02*
X130856000Y-101470000D01*
X131556000Y-102170000D02*
X131556000Y-103570000D01*
X129556000Y-103570000D02*
X129556000Y-102170000D01*
X130856000Y-104270000D02*
X130256000Y-104270000D01*
X131556000Y-102170000D02*
G75*
G03*
X130856000Y-101470000I-699999J1D01*
G01*
X130256000Y-101470000D02*
G75*
G03*
X129556000Y-102170000I-1J-699999D01*
G01*
X130856000Y-104270000D02*
G75*
G03*
X131556000Y-103570000I0J700000D01*
G01*
X129556000Y-103570000D02*
G75*
G03*
X130256000Y-104270000I700000J0D01*
G01*
%TO.C,R4*%
X115851000Y-131291064D02*
X115851000Y-130836936D01*
X117321000Y-131291064D02*
X117321000Y-130836936D01*
%TO.C,D4*%
X107681500Y-143985000D02*
X109601500Y-143985000D01*
X109601500Y-143985000D02*
X109601500Y-141300000D01*
X107681500Y-141300000D02*
X107681500Y-143985000D01*
%TO.C,C19*%
X154677000Y-124412580D02*
X154677000Y-124131420D01*
X155697000Y-124412580D02*
X155697000Y-124131420D01*
%TO.C,R22*%
X135113500Y-101900258D02*
X135113500Y-101425742D01*
X136158500Y-101900258D02*
X136158500Y-101425742D01*
%TO.C,D12*%
X146756000Y-115663000D02*
X144836000Y-115663000D01*
X144836000Y-115663000D02*
X144836000Y-118348000D01*
X146756000Y-118348000D02*
X146756000Y-115663000D01*
%TO.C,R20*%
X110668000Y-128143000D02*
X111618000Y-128143000D01*
X111618000Y-127223000D02*
X111618000Y-129063000D01*
X111618000Y-129063000D02*
X115458000Y-129063000D01*
X115458000Y-127223000D02*
X111618000Y-127223000D01*
X115458000Y-129063000D02*
X115458000Y-127223000D01*
X116408000Y-128143000D02*
X115458000Y-128143000D01*
%TO.C,C9*%
X127748420Y-113536000D02*
X128029580Y-113536000D01*
X127748420Y-114556000D02*
X128029580Y-114556000D01*
%TO.C,D5*%
X120467000Y-82262000D02*
X118547000Y-82262000D01*
X118547000Y-82262000D02*
X118547000Y-84947000D01*
X120467000Y-84947000D02*
X120467000Y-82262000D01*
%TO.C,C34*%
X158249500Y-135439500D02*
X159037000Y-135439500D01*
X158643250Y-135045750D02*
X158643250Y-135833250D01*
X159277000Y-134941437D02*
X159277000Y-136227000D01*
X159277000Y-134941437D02*
X160341437Y-133877000D01*
X159277000Y-139632563D02*
X159277000Y-138347000D01*
X159277000Y-139632563D02*
X160341437Y-140697000D01*
X160341437Y-133877000D02*
X166097000Y-133877000D01*
X160341437Y-140697000D02*
X166097000Y-140697000D01*
X166097000Y-133877000D02*
X166097000Y-136227000D01*
X166097000Y-140697000D02*
X166097000Y-138347000D01*
%TO.C,D7*%
X122992000Y-125050500D02*
X124912000Y-125050500D01*
X124912000Y-125050500D02*
X124912000Y-122365500D01*
X122992000Y-122365500D02*
X122992000Y-125050500D01*
%TO.C,R14*%
X123217000Y-119909564D02*
X123217000Y-119455436D01*
X124687000Y-119909564D02*
X124687000Y-119455436D01*
%TO.C,R8*%
X125653000Y-140742936D02*
X125653000Y-141197064D01*
X124183000Y-140742936D02*
X124183000Y-141197064D01*
%TO.C,D1*%
X99116000Y-141639000D02*
X101036000Y-141639000D01*
X101036000Y-141639000D02*
X101036000Y-138954000D01*
X99116000Y-138954000D02*
X99116000Y-141639000D01*
%TO.C,D15*%
X107368000Y-84344000D02*
X107368000Y-86344000D01*
X107368000Y-84344000D02*
X111378000Y-84344000D01*
X107368000Y-86344000D02*
X111378000Y-86344000D01*
%TO.C,R12*%
X109376500Y-138516936D02*
X109376500Y-138971064D01*
X107906500Y-138516936D02*
X107906500Y-138971064D01*
%TO.C,C33*%
X158249500Y-128200500D02*
X159037000Y-128200500D01*
X158643250Y-127806750D02*
X158643250Y-128594250D01*
X159277000Y-127702437D02*
X159277000Y-128988000D01*
X159277000Y-127702437D02*
X160341437Y-126638000D01*
X159277000Y-132393563D02*
X159277000Y-131108000D01*
X159277000Y-132393563D02*
X160341437Y-133458000D01*
X160341437Y-126638000D02*
X166097000Y-126638000D01*
X160341437Y-133458000D02*
X166097000Y-133458000D01*
X166097000Y-126638000D02*
X166097000Y-128988000D01*
X166097000Y-133458000D02*
X166097000Y-131108000D01*
%TO.C,U11*%
X122676500Y-85441000D02*
X124476500Y-85441000D01*
X122676500Y-85441000D02*
X121876500Y-85441000D01*
X122676500Y-82321000D02*
X123476500Y-82321000D01*
X122676500Y-82321000D02*
X121876500Y-82321000D01*
%TO.C,D6*%
X125024000Y-125050500D02*
X126944000Y-125050500D01*
X126944000Y-125050500D02*
X126944000Y-122365500D01*
X125024000Y-122365500D02*
X125024000Y-125050500D01*
%TO.C,C17*%
X130759252Y-133440000D02*
X129336748Y-133440000D01*
X130759252Y-130720000D02*
X129336748Y-130720000D01*
%TO.C,U6*%
X155484000Y-142729000D02*
X149474000Y-142729000D01*
X153234000Y-135909000D02*
X149474000Y-135909000D01*
X149474000Y-142729000D02*
X149474000Y-141469000D01*
X149474000Y-135909000D02*
X149474000Y-137169000D01*
%TO.C,TP1*%
X119064000Y-109474000D02*
G75*
G03*
X119064000Y-109474000I-700000J0D01*
G01*
%TO.C,R17*%
X152663742Y-122987500D02*
X153138258Y-122987500D01*
X152663742Y-124032500D02*
X153138258Y-124032500D01*
%TO.C,C12*%
X137260000Y-112006748D02*
X137260000Y-112529252D01*
X135790000Y-112006748D02*
X135790000Y-112529252D01*
%TO.C,U5*%
X129272000Y-140716000D02*
X129272000Y-138916000D01*
X129272000Y-140716000D02*
X129272000Y-141516000D01*
X126152000Y-140716000D02*
X126152000Y-139916000D01*
X126152000Y-140716000D02*
X126152000Y-141516000D01*
%TO.C,R26*%
X100823500Y-111997258D02*
X100823500Y-111522742D01*
X101868500Y-111997258D02*
X101868500Y-111522742D01*
%TO.C,D9*%
X159456000Y-114263000D02*
X157536000Y-114263000D01*
X157536000Y-114263000D02*
X157536000Y-116948000D01*
X159456000Y-116948000D02*
X159456000Y-114263000D01*
%TO.C,L1*%
X131622000Y-134416000D02*
X144222000Y-134416000D01*
X131622000Y-137416000D02*
X131622000Y-134416000D01*
X131622000Y-147016000D02*
X131622000Y-144016000D01*
X144222000Y-134416000D02*
X144222000Y-137416000D01*
X144222000Y-144016000D02*
X144222000Y-147016000D01*
X144222000Y-147016000D02*
X131622000Y-147016000D01*
%TD*%
M02*
