%TF.GenerationSoftware,KiCad,Pcbnew,7.0.6*%
%TF.CreationDate,2023-11-26T00:53:46-07:00*%
%TF.ProjectId,H2 Sensor Board Lucy Rev 1,48322053-656e-4736-9f72-20426f617264,rev?*%
%TF.SameCoordinates,Original*%
%TF.FileFunction,Copper,L2,Bot*%
%TF.FilePolarity,Positive*%
%FSLAX46Y46*%
G04 Gerber Fmt 4.6, Leading zero omitted, Abs format (unit mm)*
G04 Created by KiCad (PCBNEW 7.0.6) date 2023-11-26 00:53:46*
%MOMM*%
%LPD*%
G01*
G04 APERTURE LIST*
G04 Aperture macros list*
%AMRoundRect*
0 Rectangle with rounded corners*
0 $1 Rounding radius*
0 $2 $3 $4 $5 $6 $7 $8 $9 X,Y pos of 4 corners*
0 Add a 4 corners polygon primitive as box body*
4,1,4,$2,$3,$4,$5,$6,$7,$8,$9,$2,$3,0*
0 Add four circle primitives for the rounded corners*
1,1,$1+$1,$2,$3*
1,1,$1+$1,$4,$5*
1,1,$1+$1,$6,$7*
1,1,$1+$1,$8,$9*
0 Add four rect primitives between the rounded corners*
20,1,$1+$1,$2,$3,$4,$5,0*
20,1,$1+$1,$4,$5,$6,$7,0*
20,1,$1+$1,$6,$7,$8,$9,0*
20,1,$1+$1,$8,$9,$2,$3,0*%
G04 Aperture macros list end*
%TA.AperFunction,ComponentPad*%
%ADD10RoundRect,0.250001X0.499999X-0.499999X0.499999X0.499999X-0.499999X0.499999X-0.499999X-0.499999X0*%
%TD*%
%TA.AperFunction,ComponentPad*%
%ADD11C,1.500000*%
%TD*%
%TA.AperFunction,ComponentPad*%
%ADD12C,3.410000*%
%TD*%
%TA.AperFunction,ComponentPad*%
%ADD13R,1.700000X1.700000*%
%TD*%
%TA.AperFunction,ComponentPad*%
%ADD14O,1.700000X1.700000*%
%TD*%
%TA.AperFunction,ComponentPad*%
%ADD15C,4.000000*%
%TD*%
%TA.AperFunction,ComponentPad*%
%ADD16R,1.600000X1.600000*%
%TD*%
%TA.AperFunction,ComponentPad*%
%ADD17C,1.600000*%
%TD*%
%TA.AperFunction,ComponentPad*%
%ADD18C,2.000000*%
%TD*%
%TA.AperFunction,ComponentPad*%
%ADD19O,1.550000X0.890000*%
%TD*%
%TA.AperFunction,ComponentPad*%
%ADD20O,0.950000X1.250000*%
%TD*%
%TA.AperFunction,ComponentPad*%
%ADD21C,1.400000*%
%TD*%
%TA.AperFunction,ComponentPad*%
%ADD22O,1.400000X1.400000*%
%TD*%
%TA.AperFunction,ComponentPad*%
%ADD23C,6.400000*%
%TD*%
%TA.AperFunction,SMDPad,CuDef*%
%ADD24C,2.000000*%
%TD*%
%TA.AperFunction,ViaPad*%
%ADD25C,0.800000*%
%TD*%
%TA.AperFunction,ViaPad*%
%ADD26C,0.700000*%
%TD*%
%TA.AperFunction,Conductor*%
%ADD27C,0.500000*%
%TD*%
%TA.AperFunction,Conductor*%
%ADD28C,0.250000*%
%TD*%
G04 APERTURE END LIST*
%TA.AperFunction,EtchedComponent*%
%TO.C,NT1*%
G36*
X120380000Y-80200000D02*
G01*
X118380000Y-80200000D01*
X118380000Y-76200000D01*
X120380000Y-76200000D01*
X120380000Y-80200000D01*
G37*
%TD.AperFunction*%
%TD*%
D10*
%TO.P,J2,1,Pin_1*%
%TO.N,/Power/12V_UP*%
X94787000Y-135334000D03*
D11*
%TO.P,J2,2,Pin_2*%
%TO.N,GND*%
X94787000Y-132334000D03*
%TO.P,J2,3,Pin_3*%
%TO.N,/Power/5V_UP*%
X94787000Y-129334000D03*
%TO.P,J2,4,Pin_4*%
%TO.N,/Power/12V_UP*%
X97787000Y-135334000D03*
%TO.P,J2,5,Pin_5*%
%TO.N,GND*%
X97787000Y-132334000D03*
%TO.P,J2,6,Pin_6*%
%TO.N,/Power/5V_UP*%
X97787000Y-129334000D03*
D12*
%TO.P,J2,MP*%
%TO.N,N/C*%
X90467000Y-137484000D03*
X90467000Y-127184000D03*
%TD*%
D13*
%TO.P,J1,1,Pin_1*%
%TO.N,+3V3*%
X103124000Y-122682000D03*
D14*
%TO.P,J1,2,Pin_2*%
%TO.N,/DEBUG_SWDIO*%
X105664000Y-122682000D03*
%TO.P,J1,3,Pin_3*%
%TO.N,/DEBUG_SWCLK*%
X108204000Y-122682000D03*
%TO.P,J1,4,Pin_4*%
%TO.N,/DEBUG_SWO*%
X110744000Y-122682000D03*
%TO.P,J1,5,Pin_5*%
%TO.N,/NRST*%
X113284000Y-122682000D03*
%TO.P,J1,6,Pin_6*%
%TO.N,GND*%
X115824000Y-122682000D03*
%TD*%
D15*
%TO.P,J3,0*%
%TO.N,N/C*%
X96751000Y-95843000D03*
X96751000Y-120843000D03*
D16*
%TO.P,J3,1,Pin_1*%
%TO.N,unconnected-(J3-Pin_1-Pad1)*%
X98171000Y-113883000D03*
D17*
%TO.P,J3,2,Pin_2*%
%TO.N,/CD-*%
X98171000Y-111113000D03*
%TO.P,J3,3,Pin_3*%
%TO.N,unconnected-(J3-Pin_3-Pad3)*%
X98171000Y-108343000D03*
%TO.P,J3,4,Pin_4*%
%TO.N,unconnected-(J3-Pin_4-Pad4)*%
X98171000Y-105573000D03*
%TO.P,J3,5,Pin_5*%
%TO.N,unconnected-(J3-Pin_5-Pad5)*%
X98171000Y-102803000D03*
%TO.P,J3,6,Pin_6*%
%TO.N,unconnected-(J3-Pin_6-Pad6)*%
X95331000Y-112498000D03*
%TO.P,J3,7,Pin_7*%
%TO.N,/CD+*%
X95331000Y-109728000D03*
%TO.P,J3,8,Pin_8*%
%TO.N,unconnected-(J3-Pin_8-Pad8)*%
X95331000Y-106958000D03*
%TO.P,J3,9,Pin_9*%
%TO.N,unconnected-(J3-Pin_9-Pad9)*%
X95331000Y-104188000D03*
%TD*%
D13*
%TO.P,J8,1,Pin_1*%
%TO.N,GND*%
X139192000Y-99314000D03*
D14*
%TO.P,J8,2,Pin_2*%
%TO.N,+5V*%
X139192000Y-96774000D03*
%TO.P,J8,3,Pin_3*%
%TO.N,/SCL*%
X139192000Y-94234000D03*
%TO.P,J8,4,Pin_4*%
%TO.N,/SDA*%
X139192000Y-91694000D03*
%TD*%
D18*
%TO.P,SW2,1,1*%
%TO.N,GND*%
X148844000Y-71664000D03*
X155344000Y-71664000D03*
%TO.P,SW2,2,2*%
%TO.N,/NRST*%
X148844000Y-76164000D03*
X155344000Y-76164000D03*
%TD*%
D13*
%TO.P,J4,1,Pin_1*%
%TO.N,+3V3*%
X91562000Y-80391000D03*
D14*
%TO.P,J4,2,Pin_2*%
%TO.N,GND*%
X94102000Y-80391000D03*
%TO.P,J4,3,Pin_3*%
%TO.N,/GPIO9*%
X91562000Y-82931000D03*
%TO.P,J4,4,Pin_4*%
%TO.N,unconnected-(J4-Pin_4-Pad4)*%
X94102000Y-82931000D03*
%TO.P,J4,5,Pin_5*%
%TO.N,/GPIO3*%
X91562000Y-85471000D03*
%TO.P,J4,6,Pin_6*%
%TO.N,/GPIO4*%
X94102000Y-85471000D03*
%TO.P,J4,7,Pin_7*%
%TO.N,/GPIO8*%
X91562000Y-88011000D03*
%TO.P,J4,8,Pin_8*%
%TO.N,/GPIO1*%
X94102000Y-88011000D03*
%TO.P,J4,9,Pin_9*%
%TO.N,/GPIO7*%
X91562000Y-90551000D03*
%TO.P,J4,10,Pin_10*%
%TO.N,/GPIO2*%
X94102000Y-90551000D03*
%TD*%
D18*
%TO.P,SW3,1,1*%
%TO.N,GND*%
X139244000Y-71664000D03*
X145744000Y-71664000D03*
%TO.P,SW3,2,2*%
%TO.N,/TARE*%
X139244000Y-76164000D03*
X145744000Y-76164000D03*
%TD*%
D16*
%TO.P,BZ1,1,-*%
%TO.N,+5V*%
X104498000Y-99314000D03*
D17*
%TO.P,BZ1,2,+*%
%TO.N,Net-(BZ1-+)*%
X110998000Y-99314000D03*
%TD*%
D19*
%TO.P,J6,6,Shield*%
%TO.N,GND*%
X166015000Y-125465000D03*
D20*
X163315000Y-124465000D03*
X163315000Y-119465000D03*
D19*
X166015000Y-118465000D03*
%TD*%
D21*
%TO.P,R20,1*%
%TO.N,GND*%
X109728000Y-128143000D03*
D22*
%TO.P,R20,2*%
%TO.N,Net-(JP3-A)*%
X117348000Y-128143000D03*
%TD*%
D23*
%TO.P,U10,*%
%TO.N,*%
X103886000Y-82804000D03*
D13*
%TO.P,U10,1,GND*%
%TO.N,GNDA*%
X129794000Y-85344000D03*
D14*
%TO.P,U10,2,V_SENSE*%
%TO.N,/Sensors/V_SENSE*%
X129794000Y-82804000D03*
%TO.P,U10,3,V_HEAT*%
%TO.N,Net-(U10-V_HEAT)*%
X129794000Y-80264000D03*
%TD*%
D24*
%TO.P,NT1,1,1*%
%TO.N,GNDA*%
X119380000Y-80200000D03*
%TO.P,NT1,2,2*%
%TO.N,GND*%
X119380000Y-76200000D03*
%TD*%
D25*
%TO.N,GND*%
X138811000Y-127762000D03*
X104872812Y-90267812D03*
X137658500Y-113157000D03*
X106945477Y-126271750D03*
X130810000Y-98552000D03*
X143002000Y-96520000D03*
X155956000Y-134366000D03*
X89165477Y-80551750D03*
X156210000Y-125222000D03*
X115951000Y-117983000D03*
X147701000Y-121412000D03*
X146050000Y-143002000D03*
X129540000Y-139446000D03*
X139965477Y-146591750D03*
X123952000Y-112522000D03*
X135128000Y-131318000D03*
X146050000Y-136144000D03*
X112025477Y-146591750D03*
X165365477Y-103411750D03*
X131572000Y-74168000D03*
X91705477Y-123731750D03*
X89165477Y-88171750D03*
X160285477Y-93251750D03*
X96266000Y-130810000D03*
X157745477Y-144051750D03*
X127762000Y-134620000D03*
X115316000Y-107696000D03*
X115570000Y-144780000D03*
X159766000Y-108966000D03*
X109601000Y-116205000D03*
X117983000Y-122682000D03*
X124333000Y-125603000D03*
X140208000Y-134112000D03*
X164973000Y-135636000D03*
X138557000Y-122301000D03*
X146050000Y-146304000D03*
X147701000Y-122301000D03*
X122809000Y-127127000D03*
X161029000Y-121986000D03*
X109220000Y-112522000D03*
X136398000Y-133223000D03*
X152146000Y-118364000D03*
X135509000Y-117221000D03*
X162825477Y-141511750D03*
X156845000Y-142240000D03*
X127762000Y-129032000D03*
X112025477Y-128811750D03*
X106945477Y-144051750D03*
X113030000Y-144780000D03*
X133477000Y-94234000D03*
X106945477Y-72931750D03*
X99325477Y-118651750D03*
X133142702Y-112232450D03*
X165365477Y-95791750D03*
X129486515Y-100633790D03*
X130302000Y-96012000D03*
X138557000Y-124587000D03*
X112903000Y-117983000D03*
X156210000Y-73152000D03*
X142367000Y-130048000D03*
X165365477Y-80551750D03*
X157734000Y-112268000D03*
X146050000Y-137414000D03*
X132080000Y-106680000D03*
X104405477Y-103411750D03*
X135382000Y-122301000D03*
X146050000Y-138938000D03*
X139192000Y-100711000D03*
X98806000Y-130810000D03*
X139954000Y-120523000D03*
X139192000Y-73025000D03*
X137541000Y-107442000D03*
X96785477Y-72931750D03*
X134620000Y-127000000D03*
X122174000Y-110744000D03*
X137425477Y-116111750D03*
X108204000Y-128143000D03*
X160285477Y-133891750D03*
X120811338Y-107390061D03*
X106807000Y-116205000D03*
X146050000Y-148082000D03*
X117105477Y-126271750D03*
X133858000Y-97536000D03*
X155702000Y-107442000D03*
X99325477Y-98331750D03*
X112025477Y-103411750D03*
X123952000Y-110744000D03*
X121285000Y-129921000D03*
X146050000Y-107442000D03*
X132715000Y-124587000D03*
X162049299Y-120711701D03*
X130429000Y-94234000D03*
X161544000Y-117602000D03*
X147828000Y-129286000D03*
X121285000Y-91567000D03*
X153670000Y-142240000D03*
X143510000Y-135636000D03*
X112903000Y-116205000D03*
X139965477Y-111031750D03*
X142875000Y-100457000D03*
X114554000Y-123571000D03*
X122428000Y-139192000D03*
X165365477Y-72931750D03*
X94245477Y-138971750D03*
X94245477Y-116111750D03*
X122301000Y-125603000D03*
X165100000Y-128270000D03*
D26*
X95377000Y-80391000D03*
D25*
X146050000Y-140208000D03*
X106807000Y-119634000D03*
X101865477Y-88171750D03*
X89165477Y-72931750D03*
X109728000Y-129667000D03*
X115316000Y-103378000D03*
X142505477Y-133891750D03*
X150810000Y-127254000D03*
X132588000Y-114046000D03*
X129540000Y-127762000D03*
X146050000Y-141478000D03*
X110998000Y-133604000D03*
X150876000Y-122301000D03*
X93472000Y-130810000D03*
X126365000Y-116459000D03*
X113030000Y-142748000D03*
X123063000Y-95885000D03*
X114808000Y-86995000D03*
X107188000Y-98171000D03*
X101865477Y-146591750D03*
X109220000Y-81534000D03*
X160285477Y-83091750D03*
X147585477Y-83091750D03*
X122809000Y-128905000D03*
X129540000Y-131826000D03*
X146558000Y-129794000D03*
X155851500Y-116710000D03*
X134356195Y-112417500D03*
X122185477Y-72931750D03*
X149606000Y-73152000D03*
X127254000Y-94107000D03*
X96520000Y-133604000D03*
X132345477Y-146591750D03*
X163576000Y-111506000D03*
X106807000Y-117983000D03*
X125501647Y-98552000D03*
X150368000Y-83566000D03*
X136398000Y-127000000D03*
X165365477Y-146591750D03*
X150876000Y-121412000D03*
X152665477Y-85631750D03*
X104405477Y-95791750D03*
X132334000Y-91440000D03*
X110490000Y-132334000D03*
X119645477Y-144051750D03*
X156464000Y-118618000D03*
X162825477Y-113571750D03*
X145796000Y-73025000D03*
X162825477Y-88171750D03*
X150125477Y-146591750D03*
X115951000Y-116205000D03*
X112903000Y-119634000D03*
X155194000Y-109982000D03*
X150125477Y-78011750D03*
X89165477Y-118651750D03*
X163068000Y-137414000D03*
X120269000Y-121793000D03*
X155498000Y-144526000D03*
X101865477Y-75471750D03*
X132969000Y-120523000D03*
X114554000Y-121920000D03*
X110998000Y-134874000D03*
X137425477Y-138971750D03*
X105664000Y-107950000D03*
X129286000Y-113030000D03*
X123825000Y-100457000D03*
X135382000Y-105664000D03*
X125730000Y-114427000D03*
X163576000Y-90424000D03*
X112903000Y-114427000D03*
X162941000Y-130175000D03*
X112014000Y-137668000D03*
X117105477Y-105951750D03*
X108712000Y-144272000D03*
X109728000Y-126619000D03*
X155702000Y-103124000D03*
X89165477Y-103411750D03*
X147585477Y-93251750D03*
X146304000Y-131318000D03*
X132715000Y-122301000D03*
X112268000Y-112014000D03*
X164973000Y-139065000D03*
X153162000Y-148082000D03*
X142748000Y-111760000D03*
X114565477Y-72931750D03*
X89165477Y-141511750D03*
X98806000Y-133604000D03*
X112776000Y-107188000D03*
X155205477Y-98331750D03*
X89165477Y-111031750D03*
X128905798Y-107872749D03*
X126238000Y-125730000D03*
X120269000Y-118872000D03*
X156210000Y-92456000D03*
X115570000Y-142748000D03*
X135509000Y-114554000D03*
X156845000Y-136121500D03*
X130556000Y-104521000D03*
X126238000Y-144272000D03*
X116967000Y-93853000D03*
X112014000Y-133604000D03*
X142505477Y-105951750D03*
X122185477Y-133891750D03*
X104394000Y-139954000D03*
X142367000Y-124587000D03*
X101865477Y-128811750D03*
X155205477Y-90711750D03*
X157745477Y-78011750D03*
X154686000Y-118263500D03*
X127762000Y-131572000D03*
X124725477Y-146591750D03*
X112014000Y-134874000D03*
X152146000Y-116586000D03*
X113030000Y-91186000D03*
X144272000Y-148082000D03*
X129032000Y-144272000D03*
X152665477Y-72931750D03*
X123825000Y-104394000D03*
X125501647Y-95758000D03*
X96785477Y-83091750D03*
X160285477Y-126271750D03*
X143002000Y-92710000D03*
X160285477Y-100871750D03*
X147447000Y-126238000D03*
X147585477Y-111031750D03*
X89165477Y-95791750D03*
X93472000Y-133604000D03*
X146050000Y-144526000D03*
X135382000Y-124587000D03*
X142505477Y-72931750D03*
X137425477Y-83091750D03*
X115951000Y-119634000D03*
X115570000Y-94361000D03*
X116205000Y-79502000D03*
X96785477Y-126271750D03*
X140462000Y-129286000D03*
X122174000Y-93853000D03*
X109601000Y-119634000D03*
X165100000Y-131699000D03*
X124968000Y-91440000D03*
X96785477Y-144051750D03*
X89165477Y-131351750D03*
X142367000Y-122301000D03*
X136144000Y-71882000D03*
X109601000Y-117983000D03*
X154940000Y-141732000D03*
X122174000Y-112522000D03*
X129540000Y-135636000D03*
%TO.N,+3V3*%
X111633000Y-78740000D03*
X135382000Y-91440000D03*
X113157000Y-75057000D03*
X147574000Y-124714000D03*
X119253000Y-107950000D03*
X130175000Y-110363000D03*
X112649000Y-89154000D03*
X148844000Y-89662000D03*
X147066000Y-119380000D03*
X148082000Y-90170000D03*
X102616000Y-106680000D03*
X127000000Y-115189000D03*
X135382000Y-96774000D03*
X129286000Y-91440000D03*
X119126000Y-123317000D03*
X147828000Y-101600000D03*
X108077000Y-90170000D03*
X148844000Y-137160000D03*
X129286000Y-98552000D03*
X128778000Y-122301000D03*
D26*
%TO.N,/NRST*%
X134620000Y-78740000D03*
X131445000Y-112051500D03*
X131445000Y-119757500D03*
%TO.N,/TARE*%
X124714000Y-93345000D03*
X124777147Y-106680000D03*
X142621000Y-76164000D03*
X142621000Y-91186000D03*
D25*
%TO.N,+5V*%
X109474000Y-89154000D03*
X152400000Y-97780000D03*
X154432000Y-129540000D03*
X109474000Y-111506000D03*
X154432000Y-112313500D03*
X108458000Y-99314000D03*
X153543000Y-88138000D03*
X152654000Y-88519000D03*
X152400000Y-115062000D03*
%TO.N,/Power/7V*%
X131445000Y-127000000D03*
X124841000Y-139065000D03*
D26*
%TO.N,Net-(C19-Pad2)*%
X156457000Y-120970000D03*
X155187000Y-122619512D03*
%TO.N,/Power/12V_UP*%
X109982000Y-138684000D03*
X117339962Y-135288858D03*
D25*
%TO.N,Net-(U10-V_HEAT)*%
X157734000Y-108966000D03*
X157734000Y-79756000D03*
D26*
%TO.N,/DEBUG_SWDIO*%
X105664000Y-115443000D03*
%TO.N,/DEBUG_SWCLK*%
X108331000Y-116967000D03*
%TO.N,/DEBUG_SWO*%
X110744000Y-120396000D03*
%TO.N,/BOOT0*%
X144399000Y-78065500D03*
X144399000Y-117856000D03*
%TO.N,/Power/~{FAULT}*%
X119195500Y-134620000D03*
X105664000Y-141732000D03*
D25*
%TO.N,Net-(U4-OVLO)*%
X104394000Y-131445000D03*
X115062000Y-131318000D03*
D26*
%TO.N,/GPLED3*%
X128524000Y-118745000D03*
X128250318Y-115400073D03*
%TO.N,/UART_TX*%
X123952000Y-117475000D03*
X129794000Y-125476000D03*
%TO.N,/UART_RX*%
X124079000Y-116459000D03*
X127208386Y-121584614D03*
%TO.N,/GPIO9*%
X126735306Y-110098306D03*
X128524000Y-101727000D03*
%TO.N,/GPIO3*%
X128683444Y-103029444D03*
X128160353Y-112885647D03*
%TO.N,/GPIO4*%
X127508000Y-102274500D03*
X125730000Y-109093000D03*
%TO.N,/H2_SENSE*%
X126071500Y-106934000D03*
X125476000Y-84963000D03*
%TO.N,/SCL*%
X117602000Y-94996000D03*
X137795000Y-100838000D03*
X116078000Y-108966000D03*
X137795000Y-95240000D03*
%TO.N,/SDA*%
X114554000Y-109601000D03*
X114647000Y-92617000D03*
X136398000Y-99314000D03*
X136906000Y-92617000D03*
D25*
%TO.N,Net-(BZ1-+)*%
X110998000Y-86868000D03*
D26*
%TO.N,/BEEPER*%
X115951000Y-83185000D03*
X123825000Y-105791000D03*
D25*
%TO.N,GNDA*%
X127508000Y-89027000D03*
X119507000Y-85852000D03*
X123825000Y-86360000D03*
X125095000Y-83947000D03*
X124460000Y-81280000D03*
X121793000Y-89027000D03*
X118999000Y-89027000D03*
X131064000Y-85344000D03*
X122809000Y-86995000D03*
X127127000Y-85471000D03*
X124714000Y-89027000D03*
X131191000Y-89027000D03*
%TD*%
D27*
%TO.N,+3V3*%
X119126000Y-108077000D02*
X119126000Y-123317000D01*
X135382000Y-91440000D02*
X135382000Y-96774000D01*
X112649000Y-89154000D02*
X112649000Y-79756000D01*
X129286000Y-91440000D02*
X129286000Y-98552000D01*
X127508000Y-119126000D02*
X128778000Y-120396000D01*
X148806000Y-105372000D02*
X148844000Y-105410000D01*
X112649000Y-75565000D02*
X112649000Y-79756000D01*
X130175000Y-120904000D02*
X130175000Y-110363000D01*
X148844000Y-126365000D02*
X148844000Y-90678000D01*
X148844000Y-90678000D02*
X148590000Y-90678000D01*
X148590000Y-90678000D02*
X148082000Y-90170000D01*
X128778000Y-120396000D02*
X128778000Y-122301000D01*
X148806000Y-102578000D02*
X148806000Y-105372000D01*
X128778000Y-122301000D02*
X130175000Y-120904000D01*
X108077000Y-90170000D02*
X106172000Y-90170000D01*
X147828000Y-101600000D02*
X148806000Y-102578000D01*
X112649000Y-79756000D02*
X111633000Y-78740000D01*
X106172000Y-90170000D02*
X102616000Y-93726000D01*
X147066000Y-119380000D02*
X148082000Y-119380000D01*
X147574000Y-124714000D02*
X148844000Y-125984000D01*
X102616000Y-93726000D02*
X102616000Y-106680000D01*
X127000000Y-115189000D02*
X127508000Y-115697000D01*
X148844000Y-125984000D02*
X148844000Y-126365000D01*
X127508000Y-115697000D02*
X127508000Y-119126000D01*
X148844000Y-90678000D02*
X148844000Y-89662000D01*
X113157000Y-75057000D02*
X112649000Y-75565000D01*
X148082000Y-119380000D02*
X148844000Y-120142000D01*
X148844000Y-126365000D02*
X148844000Y-137160000D01*
X119253000Y-107950000D02*
X119126000Y-108077000D01*
D28*
%TO.N,/NRST*%
X131445000Y-110400500D02*
X134620000Y-107225500D01*
X131445000Y-119757500D02*
X131445000Y-112051500D01*
X134620000Y-107225500D02*
X134620000Y-78740000D01*
X131445000Y-112051500D02*
X131445000Y-110400500D01*
%TO.N,/TARE*%
X124777147Y-106680000D02*
X124777147Y-93408147D01*
X142621000Y-91186000D02*
X142621000Y-76164000D01*
X124777147Y-93408147D02*
X124714000Y-93345000D01*
D27*
%TO.N,+5V*%
X153250000Y-115912000D02*
X153162000Y-115824000D01*
X153250000Y-114046000D02*
X153250000Y-117094000D01*
X109474000Y-89154000D02*
X109474000Y-97028000D01*
X152654000Y-88519000D02*
X153250000Y-89115000D01*
X153250000Y-115912000D02*
X153250000Y-117094000D01*
X153250000Y-113495500D02*
X154432000Y-112313500D01*
X109474000Y-111506000D02*
X109474000Y-98298000D01*
X153250000Y-118364000D02*
X153250000Y-128358000D01*
X153250000Y-98630000D02*
X152400000Y-97780000D01*
X152400000Y-115062000D02*
X153250000Y-115912000D01*
X153250000Y-99060000D02*
X153250000Y-98630000D01*
X153250000Y-128358000D02*
X154432000Y-129540000D01*
X109474000Y-97028000D02*
X109474000Y-98298000D01*
X153250000Y-114642000D02*
X153250000Y-118364000D01*
X109474000Y-98298000D02*
X108458000Y-99314000D01*
X153250000Y-117094000D02*
X153250000Y-118364000D01*
X153250000Y-89115000D02*
X153250000Y-99060000D01*
X153250000Y-114046000D02*
X153250000Y-113495500D01*
X153250000Y-99060000D02*
X153250000Y-114046000D01*
%TO.N,/Power/7V*%
X127155918Y-126912000D02*
X131357000Y-126912000D01*
X131357000Y-126912000D02*
X131445000Y-127000000D01*
X124841000Y-139065000D02*
X124841000Y-129226918D01*
X124841000Y-129226918D02*
X127155918Y-126912000D01*
D28*
%TO.N,Net-(C19-Pad2)*%
X156457000Y-121349512D02*
X155187000Y-122619512D01*
X156457000Y-120970000D02*
X156457000Y-121349512D01*
%TO.N,/Power/12V_UP*%
X117339962Y-135288858D02*
X117295857Y-135288858D01*
X113900715Y-138684000D02*
X109982000Y-138684000D01*
X117295857Y-135288858D02*
X113900715Y-138684000D01*
D27*
%TO.N,Net-(U10-V_HEAT)*%
X157734000Y-108966000D02*
X157734000Y-79756000D01*
D28*
%TO.N,/DEBUG_SWDIO*%
X105664000Y-115443000D02*
X105664000Y-122682000D01*
%TO.N,/DEBUG_SWCLK*%
X108204000Y-117094000D02*
X108204000Y-122682000D01*
X108331000Y-116967000D02*
X108204000Y-117094000D01*
%TO.N,/DEBUG_SWO*%
X110744000Y-120396000D02*
X110744000Y-122682000D01*
%TO.N,/BOOT0*%
X144399000Y-117856000D02*
X144399000Y-78065500D01*
%TO.N,/Power/~{FAULT}*%
X112083500Y-141732000D02*
X105664000Y-141732000D01*
X119195500Y-134620000D02*
X112083500Y-141732000D01*
%TO.N,Net-(U4-OVLO)*%
X104521000Y-131318000D02*
X104394000Y-131445000D01*
X115062000Y-131318000D02*
X104521000Y-131318000D01*
%TO.N,/GPLED3*%
X128250318Y-115400073D02*
X128143000Y-115507391D01*
X128143000Y-115507391D02*
X128143000Y-118364000D01*
X128143000Y-118364000D02*
X128524000Y-118745000D01*
%TO.N,/UART_TX*%
X129794000Y-125476000D02*
X127635000Y-125476000D01*
X123952000Y-121793000D02*
X123952000Y-117475000D01*
X127635000Y-125476000D02*
X123952000Y-121793000D01*
%TO.N,/UART_RX*%
X125603000Y-117983000D02*
X124079000Y-116459000D01*
X127208386Y-121584614D02*
X125603000Y-119979228D01*
X125603000Y-119979228D02*
X125603000Y-117983000D01*
%TO.N,/GPIO9*%
X127508000Y-109325612D02*
X126735306Y-110098306D01*
X127508000Y-103251000D02*
X127508000Y-109325612D01*
X128524000Y-102235000D02*
X127508000Y-103251000D01*
X128524000Y-101727000D02*
X128524000Y-102235000D01*
%TO.N,/GPIO3*%
X128683444Y-103029444D02*
X128182500Y-103530388D01*
X128160353Y-107592889D02*
X128160353Y-112885647D01*
X128182500Y-103530388D02*
X128182500Y-107570742D01*
X128182500Y-107570742D02*
X128160353Y-107592889D01*
%TO.N,/GPIO4*%
X127508000Y-102274500D02*
X127000000Y-102782500D01*
X127000000Y-102782500D02*
X127000000Y-107253595D01*
X125730000Y-108523595D02*
X125730000Y-109093000D01*
X127000000Y-107253595D02*
X125730000Y-108523595D01*
%TO.N,/H2_SENSE*%
X126238000Y-106767500D02*
X126238000Y-85725000D01*
X126238000Y-85725000D02*
X125476000Y-84963000D01*
X126071500Y-106934000D02*
X126238000Y-106767500D01*
%TO.N,/SCL*%
X117602000Y-94996000D02*
X116078000Y-96520000D01*
X137795000Y-100838000D02*
X137795000Y-95240000D01*
X116078000Y-96520000D02*
X116078000Y-108966000D01*
%TO.N,/SDA*%
X114647000Y-92617000D02*
X114554000Y-92710000D01*
X136652000Y-99060000D02*
X136398000Y-99314000D01*
X136652000Y-92871000D02*
X136652000Y-99060000D01*
X136906000Y-92617000D02*
X136652000Y-92871000D01*
X114554000Y-92710000D02*
X114554000Y-109601000D01*
D27*
%TO.N,Net-(BZ1-+)*%
X110998000Y-86868000D02*
X110998000Y-99314000D01*
D28*
%TO.N,/BEEPER*%
X115951000Y-84337305D02*
X115951000Y-83185000D01*
X122809000Y-97409000D02*
X116967000Y-91567000D01*
X116967000Y-85353305D02*
X115951000Y-84337305D01*
X122809000Y-104775000D02*
X122809000Y-97409000D01*
X116967000Y-91567000D02*
X116967000Y-85353305D01*
X123825000Y-105791000D02*
X122809000Y-104775000D01*
%TD*%
%TA.AperFunction,Conductor*%
%TO.N,GNDA*%
G36*
X132785039Y-77997685D02*
G01*
X132830794Y-78050489D01*
X132842000Y-78102000D01*
X132842000Y-90427000D01*
X132822315Y-90494039D01*
X132769511Y-90539794D01*
X132718000Y-90551000D01*
X126687500Y-90551000D01*
X126620461Y-90531315D01*
X126574706Y-90478511D01*
X126563500Y-90427000D01*
X126563500Y-85741920D01*
X126563736Y-85736513D01*
X126567264Y-85696193D01*
X126567264Y-85696192D01*
X126556782Y-85657076D01*
X126555616Y-85651818D01*
X126548588Y-85611955D01*
X126548586Y-85611952D01*
X126548586Y-85611950D01*
X126546760Y-85606933D01*
X126539820Y-85590176D01*
X126537554Y-85585319D01*
X126537554Y-85585316D01*
X126514339Y-85552162D01*
X126511433Y-85547599D01*
X126491196Y-85512548D01*
X126491195Y-85512547D01*
X126491194Y-85512545D01*
X126460177Y-85486518D01*
X126456193Y-85482867D01*
X126063446Y-85090120D01*
X126029961Y-85028797D01*
X126028188Y-84986254D01*
X126031250Y-84963000D01*
X126012330Y-84819291D01*
X125956861Y-84685375D01*
X125868621Y-84570379D01*
X125753625Y-84482139D01*
X125753624Y-84482138D01*
X125753622Y-84482137D01*
X125619712Y-84426671D01*
X125619710Y-84426670D01*
X125619709Y-84426670D01*
X125547854Y-84417210D01*
X125476001Y-84407750D01*
X125475999Y-84407750D01*
X125332291Y-84426670D01*
X125332287Y-84426671D01*
X125198377Y-84482137D01*
X125083379Y-84570379D01*
X124995137Y-84685377D01*
X124939671Y-84819287D01*
X124939670Y-84819291D01*
X124920750Y-84962999D01*
X124920750Y-84963000D01*
X124939670Y-85106708D01*
X124939671Y-85106712D01*
X124995137Y-85240622D01*
X124995138Y-85240624D01*
X124995139Y-85240625D01*
X125083379Y-85355621D01*
X125198375Y-85443861D01*
X125332291Y-85499330D01*
X125476000Y-85518250D01*
X125499253Y-85515188D01*
X125568286Y-85525952D01*
X125603120Y-85550446D01*
X125876181Y-85823507D01*
X125909666Y-85884830D01*
X125912500Y-85911188D01*
X125912500Y-90427000D01*
X125892815Y-90494039D01*
X125840011Y-90539794D01*
X125788500Y-90551000D01*
X117599000Y-90551000D01*
X117531961Y-90531315D01*
X117486206Y-90478511D01*
X117475000Y-90427000D01*
X117475000Y-82804000D01*
X128738417Y-82804000D01*
X128758699Y-83009932D01*
X128758700Y-83009934D01*
X128818768Y-83207954D01*
X128916315Y-83390450D01*
X128916317Y-83390452D01*
X129047589Y-83550410D01*
X129144209Y-83629702D01*
X129207550Y-83681685D01*
X129390046Y-83779232D01*
X129588066Y-83839300D01*
X129588065Y-83839300D01*
X129606529Y-83841118D01*
X129794000Y-83859583D01*
X129999934Y-83839300D01*
X130197954Y-83779232D01*
X130380450Y-83681685D01*
X130540410Y-83550410D01*
X130671685Y-83390450D01*
X130769232Y-83207954D01*
X130829300Y-83009934D01*
X130849583Y-82804000D01*
X130829300Y-82598066D01*
X130769232Y-82400046D01*
X130671685Y-82217550D01*
X130619702Y-82154209D01*
X130540410Y-82057589D01*
X130380452Y-81926317D01*
X130380453Y-81926317D01*
X130380450Y-81926315D01*
X130197954Y-81828768D01*
X129999934Y-81768700D01*
X129999932Y-81768699D01*
X129999934Y-81768699D01*
X129794000Y-81748417D01*
X129588067Y-81768699D01*
X129390043Y-81828769D01*
X129279898Y-81887643D01*
X129207550Y-81926315D01*
X129207548Y-81926316D01*
X129207547Y-81926317D01*
X129047589Y-82057589D01*
X128916317Y-82217547D01*
X128818769Y-82400043D01*
X128758699Y-82598067D01*
X128738417Y-82804000D01*
X117475000Y-82804000D01*
X117475000Y-80263999D01*
X128738417Y-80263999D01*
X128758699Y-80469932D01*
X128758700Y-80469934D01*
X128818768Y-80667954D01*
X128916315Y-80850450D01*
X128916317Y-80850452D01*
X129047589Y-81010410D01*
X129144209Y-81089702D01*
X129207550Y-81141685D01*
X129390046Y-81239232D01*
X129588066Y-81299300D01*
X129588065Y-81299300D01*
X129606529Y-81301118D01*
X129794000Y-81319583D01*
X129999934Y-81299300D01*
X130197954Y-81239232D01*
X130380450Y-81141685D01*
X130540410Y-81010410D01*
X130671685Y-80850450D01*
X130769232Y-80667954D01*
X130829300Y-80469934D01*
X130849583Y-80264000D01*
X130829300Y-80058066D01*
X130769232Y-79860046D01*
X130671685Y-79677550D01*
X130619702Y-79614209D01*
X130540410Y-79517589D01*
X130380452Y-79386317D01*
X130380453Y-79386317D01*
X130380450Y-79386315D01*
X130197954Y-79288768D01*
X129999934Y-79228700D01*
X129999932Y-79228699D01*
X129999934Y-79228699D01*
X129812463Y-79210235D01*
X129794000Y-79208417D01*
X129793999Y-79208417D01*
X129588067Y-79228699D01*
X129390043Y-79288769D01*
X129279898Y-79347643D01*
X129207550Y-79386315D01*
X129207548Y-79386316D01*
X129207547Y-79386317D01*
X129047589Y-79517589D01*
X128916317Y-79677547D01*
X128818769Y-79860043D01*
X128758699Y-80058067D01*
X128738417Y-80263999D01*
X117475000Y-80263999D01*
X117475000Y-78102000D01*
X117494685Y-78034961D01*
X117547489Y-77989206D01*
X117599000Y-77978000D01*
X132718000Y-77978000D01*
X132785039Y-77997685D01*
G37*
%TD.AperFunction*%
%TD*%
%TA.AperFunction,Conductor*%
%TO.N,GND*%
G36*
X125555539Y-91076185D02*
G01*
X125601294Y-91128989D01*
X125612500Y-91180500D01*
X125612499Y-92748802D01*
X125592814Y-92815842D01*
X125540010Y-92861596D01*
X125470852Y-92871540D01*
X125407296Y-92842515D01*
X125396355Y-92831780D01*
X125306958Y-92732495D01*
X125286234Y-92709478D01*
X125286232Y-92709476D01*
X125286231Y-92709475D01*
X125286230Y-92709474D01*
X125141593Y-92604388D01*
X124978267Y-92531671D01*
X124978265Y-92531670D01*
X124850594Y-92504533D01*
X124803391Y-92494500D01*
X124624609Y-92494500D01*
X124593954Y-92501015D01*
X124449733Y-92531670D01*
X124449728Y-92531672D01*
X124286408Y-92604387D01*
X124141768Y-92709475D01*
X124022140Y-92842336D01*
X123932750Y-92997164D01*
X123932747Y-92997170D01*
X123877504Y-93167192D01*
X123877503Y-93167194D01*
X123862411Y-93310786D01*
X123858815Y-93345000D01*
X123864019Y-93394508D01*
X123877503Y-93522805D01*
X123877504Y-93522807D01*
X123932747Y-93692829D01*
X123932750Y-93692835D01*
X124022138Y-93847661D01*
X124022139Y-93847663D01*
X124022141Y-93847665D01*
X124119798Y-93956124D01*
X124150027Y-94019113D01*
X124151647Y-94039094D01*
X124151647Y-104837803D01*
X124131962Y-104904842D01*
X124079158Y-104950597D01*
X124010000Y-104960541D01*
X124001867Y-104959093D01*
X123914392Y-104940500D01*
X123914391Y-104940500D01*
X123910452Y-104940500D01*
X123908255Y-104939854D01*
X123907923Y-104939820D01*
X123907929Y-104939759D01*
X123843413Y-104920815D01*
X123822771Y-104904181D01*
X123470819Y-104552228D01*
X123437334Y-104490905D01*
X123434500Y-104464547D01*
X123434500Y-97491742D01*
X123436224Y-97476122D01*
X123435939Y-97476095D01*
X123436673Y-97468333D01*
X123434500Y-97399172D01*
X123434500Y-97369656D01*
X123434500Y-97369650D01*
X123433631Y-97362779D01*
X123433173Y-97356952D01*
X123431710Y-97310373D01*
X123426119Y-97291130D01*
X123422173Y-97272078D01*
X123419664Y-97252208D01*
X123402504Y-97208867D01*
X123400624Y-97203379D01*
X123387618Y-97158610D01*
X123377422Y-97141370D01*
X123368861Y-97123894D01*
X123361487Y-97105270D01*
X123361486Y-97105268D01*
X123334079Y-97067545D01*
X123330888Y-97062686D01*
X123307172Y-97022583D01*
X123307165Y-97022574D01*
X123293006Y-97008415D01*
X123280368Y-96993619D01*
X123273591Y-96984291D01*
X123268594Y-96977413D01*
X123232688Y-96947709D01*
X123228376Y-96943786D01*
X117628819Y-91344228D01*
X117595334Y-91282905D01*
X117592500Y-91256547D01*
X117592500Y-91180500D01*
X117612185Y-91113461D01*
X117664989Y-91067706D01*
X117716500Y-91056500D01*
X125488500Y-91056500D01*
X125555539Y-91076185D01*
G37*
%TD.AperFunction*%
%TA.AperFunction,Conductor*%
G36*
X163641423Y-69850566D02*
G01*
X163680986Y-69852394D01*
X163812950Y-69858495D01*
X164012549Y-69868302D01*
X164018048Y-69868819D01*
X164203357Y-69894668D01*
X164389828Y-69922329D01*
X164394871Y-69923294D01*
X164579341Y-69966681D01*
X164760221Y-70011989D01*
X164764797Y-70013327D01*
X164945568Y-70073916D01*
X165120339Y-70136450D01*
X165124471Y-70138100D01*
X165182986Y-70163936D01*
X165299474Y-70215370D01*
X165466973Y-70294592D01*
X165470601Y-70296457D01*
X165638128Y-70389770D01*
X165638142Y-70389778D01*
X165796964Y-70484972D01*
X165800119Y-70486996D01*
X165958603Y-70595559D01*
X166107377Y-70705897D01*
X166110001Y-70707957D01*
X166258027Y-70830876D01*
X166395321Y-70955314D01*
X166397514Y-70957402D01*
X166532596Y-71092484D01*
X166534687Y-71094680D01*
X166659129Y-71231980D01*
X166782034Y-71379989D01*
X166784109Y-71382632D01*
X166894443Y-71531400D01*
X167003002Y-71689879D01*
X167005032Y-71693044D01*
X167100221Y-71851857D01*
X167193527Y-72019371D01*
X167195410Y-72023034D01*
X167274638Y-72190547D01*
X167351899Y-72365527D01*
X167353558Y-72369685D01*
X167416093Y-72544459D01*
X167476662Y-72725173D01*
X167478018Y-72729812D01*
X167523317Y-72910654D01*
X167566696Y-73095090D01*
X167567672Y-73100189D01*
X167595337Y-73286689D01*
X167621177Y-73471933D01*
X167621697Y-73477459D01*
X167631512Y-73677238D01*
X167639434Y-73848575D01*
X167639500Y-73851439D01*
X167639500Y-145858560D01*
X167639434Y-145861424D01*
X167631512Y-146032761D01*
X167621697Y-146232539D01*
X167621177Y-146238065D01*
X167595337Y-146423310D01*
X167567672Y-146609809D01*
X167566696Y-146614908D01*
X167523317Y-146799345D01*
X167478018Y-146980186D01*
X167476662Y-146984825D01*
X167416093Y-147165540D01*
X167353557Y-147340314D01*
X167351899Y-147344470D01*
X167274638Y-147519452D01*
X167195410Y-147686964D01*
X167193527Y-147690627D01*
X167100221Y-147858142D01*
X167005032Y-148016954D01*
X167003002Y-148020118D01*
X166894437Y-148178608D01*
X166784121Y-148327350D01*
X166782021Y-148330025D01*
X166659132Y-148478016D01*
X166534695Y-148615310D01*
X166532596Y-148617514D01*
X166397514Y-148752596D01*
X166395310Y-148754695D01*
X166258016Y-148879132D01*
X166110025Y-149002021D01*
X166107350Y-149004121D01*
X165958608Y-149114437D01*
X165800118Y-149223002D01*
X165796954Y-149225032D01*
X165638142Y-149320221D01*
X165470627Y-149413527D01*
X165466964Y-149415410D01*
X165299452Y-149494638D01*
X165124470Y-149571899D01*
X165120314Y-149573557D01*
X164945540Y-149636093D01*
X164764825Y-149696662D01*
X164760186Y-149698018D01*
X164579345Y-149743317D01*
X164394908Y-149786696D01*
X164389809Y-149787672D01*
X164203310Y-149815337D01*
X164018065Y-149841177D01*
X164012539Y-149841697D01*
X163812761Y-149851512D01*
X163641424Y-149859434D01*
X163638560Y-149859500D01*
X91631440Y-149859500D01*
X91628576Y-149859434D01*
X91457238Y-149851512D01*
X91257459Y-149841697D01*
X91251933Y-149841177D01*
X91066689Y-149815337D01*
X90880189Y-149787672D01*
X90875090Y-149786696D01*
X90690654Y-149743317D01*
X90509812Y-149698018D01*
X90505173Y-149696662D01*
X90324459Y-149636093D01*
X90149685Y-149573558D01*
X90145527Y-149571899D01*
X89970547Y-149494638D01*
X89803034Y-149415410D01*
X89799371Y-149413527D01*
X89631857Y-149320221D01*
X89473044Y-149225032D01*
X89469879Y-149223002D01*
X89360371Y-149147989D01*
X89311392Y-149114437D01*
X89162632Y-149004109D01*
X89159989Y-149002034D01*
X89011980Y-148879129D01*
X88874688Y-148754695D01*
X88872484Y-148752596D01*
X88737402Y-148617514D01*
X88735314Y-148615321D01*
X88610867Y-148478016D01*
X88487957Y-148330001D01*
X88485897Y-148327377D01*
X88375559Y-148178603D01*
X88266995Y-148020118D01*
X88264966Y-148016954D01*
X88169778Y-147858142D01*
X88142261Y-147808740D01*
X88076457Y-147690601D01*
X88074588Y-147686964D01*
X87995361Y-147519452D01*
X87918100Y-147344471D01*
X87916450Y-147340339D01*
X87853906Y-147165540D01*
X87793327Y-146984797D01*
X87791989Y-146980221D01*
X87746675Y-146799315D01*
X87741402Y-146776895D01*
X87703294Y-146614871D01*
X87702329Y-146609828D01*
X87674662Y-146423310D01*
X87648819Y-146238048D01*
X87648302Y-146232549D01*
X87638487Y-146032761D01*
X87630566Y-145861423D01*
X87630500Y-145858560D01*
X87630500Y-144847763D01*
X91145787Y-144847763D01*
X91175413Y-145117013D01*
X91175415Y-145117024D01*
X91243926Y-145379082D01*
X91243928Y-145379088D01*
X91349870Y-145628390D01*
X91421998Y-145746575D01*
X91490979Y-145859605D01*
X91490986Y-145859615D01*
X91664253Y-146067819D01*
X91664259Y-146067824D01*
X91865998Y-146248582D01*
X92091910Y-146398044D01*
X92337176Y-146513020D01*
X92337183Y-146513022D01*
X92337185Y-146513023D01*
X92596557Y-146591057D01*
X92596564Y-146591058D01*
X92596569Y-146591060D01*
X92864561Y-146630500D01*
X92864566Y-146630500D01*
X93067636Y-146630500D01*
X93119133Y-146626730D01*
X93270156Y-146615677D01*
X93382758Y-146590593D01*
X93534546Y-146556782D01*
X93534548Y-146556781D01*
X93534553Y-146556780D01*
X93787558Y-146460014D01*
X94023777Y-146327441D01*
X94238177Y-146161888D01*
X94426186Y-145966881D01*
X94583799Y-145746579D01*
X94657787Y-145602669D01*
X94707649Y-145505690D01*
X94707651Y-145505684D01*
X94707656Y-145505675D01*
X94795118Y-145249305D01*
X94844319Y-144982933D01*
X94849259Y-144847763D01*
X160451787Y-144847763D01*
X160481413Y-145117013D01*
X160481415Y-145117024D01*
X160549926Y-145379082D01*
X160549928Y-145379088D01*
X160655870Y-145628390D01*
X160727998Y-145746575D01*
X160796979Y-145859605D01*
X160796986Y-145859615D01*
X160970253Y-146067819D01*
X160970259Y-146067824D01*
X161171998Y-146248582D01*
X161397910Y-146398044D01*
X161643176Y-146513020D01*
X161643183Y-146513022D01*
X161643185Y-146513023D01*
X161902557Y-146591057D01*
X161902564Y-146591058D01*
X161902569Y-146591060D01*
X162170561Y-146630500D01*
X162170566Y-146630500D01*
X162373636Y-146630500D01*
X162425133Y-146626730D01*
X162576156Y-146615677D01*
X162688758Y-146590593D01*
X162840546Y-146556782D01*
X162840548Y-146556781D01*
X162840553Y-146556780D01*
X163093558Y-146460014D01*
X163329777Y-146327441D01*
X163544177Y-146161888D01*
X163732186Y-145966881D01*
X163889799Y-145746579D01*
X163963787Y-145602669D01*
X164013649Y-145505690D01*
X164013651Y-145505684D01*
X164013656Y-145505675D01*
X164101118Y-145249305D01*
X164150319Y-144982933D01*
X164160212Y-144712235D01*
X164130586Y-144442982D01*
X164062072Y-144180912D01*
X163956130Y-143931610D01*
X163815018Y-143700390D01*
X163725747Y-143593119D01*
X163641746Y-143492180D01*
X163641740Y-143492175D01*
X163440002Y-143311418D01*
X163214092Y-143161957D01*
X163214090Y-143161956D01*
X162968824Y-143046980D01*
X162968819Y-143046978D01*
X162968814Y-143046976D01*
X162709442Y-142968942D01*
X162709428Y-142968939D01*
X162593791Y-142951921D01*
X162441439Y-142929500D01*
X162238369Y-142929500D01*
X162238364Y-142929500D01*
X162035844Y-142944323D01*
X162035831Y-142944325D01*
X161771453Y-143003217D01*
X161771446Y-143003220D01*
X161518439Y-143099987D01*
X161282226Y-143232557D01*
X161067822Y-143398112D01*
X160879822Y-143593109D01*
X160879816Y-143593116D01*
X160722202Y-143813419D01*
X160722199Y-143813424D01*
X160598350Y-144054309D01*
X160598343Y-144054327D01*
X160510884Y-144310685D01*
X160510881Y-144310699D01*
X160461681Y-144577068D01*
X160461680Y-144577075D01*
X160451787Y-144847763D01*
X94849259Y-144847763D01*
X94854212Y-144712235D01*
X94824586Y-144442982D01*
X94756072Y-144180912D01*
X94650130Y-143931610D01*
X94509018Y-143700390D01*
X94419747Y-143593119D01*
X94335746Y-143492180D01*
X94335740Y-143492175D01*
X94134002Y-143311418D01*
X93908092Y-143161957D01*
X93908090Y-143161956D01*
X93662824Y-143046980D01*
X93662819Y-143046978D01*
X93662814Y-143046976D01*
X93403442Y-142968942D01*
X93403428Y-142968939D01*
X93287791Y-142951921D01*
X93135439Y-142929500D01*
X92932369Y-142929500D01*
X92932364Y-142929500D01*
X92729844Y-142944323D01*
X92729831Y-142944325D01*
X92465453Y-143003217D01*
X92465446Y-143003220D01*
X92212439Y-143099987D01*
X91976226Y-143232557D01*
X91761822Y-143398112D01*
X91573822Y-143593109D01*
X91573816Y-143593116D01*
X91416202Y-143813419D01*
X91416199Y-143813424D01*
X91292350Y-144054309D01*
X91292343Y-144054327D01*
X91204884Y-144310685D01*
X91204881Y-144310699D01*
X91155681Y-144577068D01*
X91155680Y-144577075D01*
X91145787Y-144847763D01*
X87630500Y-144847763D01*
X87630500Y-141731999D01*
X104808815Y-141731999D01*
X104827503Y-141909805D01*
X104827504Y-141909807D01*
X104882747Y-142079829D01*
X104882750Y-142079835D01*
X104972141Y-142234665D01*
X104992340Y-142257098D01*
X105091764Y-142367521D01*
X105091767Y-142367523D01*
X105091770Y-142367526D01*
X105236407Y-142472612D01*
X105399733Y-142545329D01*
X105574609Y-142582500D01*
X105574610Y-142582500D01*
X105753389Y-142582500D01*
X105753391Y-142582500D01*
X105928267Y-142545329D01*
X106091593Y-142472612D01*
X106182244Y-142406749D01*
X106217435Y-142381182D01*
X106283242Y-142357702D01*
X106290321Y-142357500D01*
X112000757Y-142357500D01*
X112016377Y-142359224D01*
X112016404Y-142358939D01*
X112024160Y-142359671D01*
X112024167Y-142359673D01*
X112093314Y-142357500D01*
X112122850Y-142357500D01*
X112129728Y-142356630D01*
X112135541Y-142356172D01*
X112182127Y-142354709D01*
X112201369Y-142349117D01*
X112220412Y-142345174D01*
X112240292Y-142342664D01*
X112283622Y-142325507D01*
X112289146Y-142323617D01*
X112292896Y-142322527D01*
X112333890Y-142310618D01*
X112351129Y-142300422D01*
X112368603Y-142291862D01*
X112387227Y-142284488D01*
X112387227Y-142284487D01*
X112387232Y-142284486D01*
X112424949Y-142257082D01*
X112429805Y-142253892D01*
X112469920Y-142230170D01*
X112484089Y-142215999D01*
X112498879Y-142203368D01*
X112515087Y-142191594D01*
X112544799Y-142155676D01*
X112548712Y-142151376D01*
X119193271Y-135506819D01*
X119254595Y-135473334D01*
X119280953Y-135470500D01*
X119284889Y-135470500D01*
X119284891Y-135470500D01*
X119459767Y-135433329D01*
X119623093Y-135360612D01*
X119767730Y-135255526D01*
X119887359Y-135122665D01*
X119976750Y-134967835D01*
X120031997Y-134797803D01*
X120050685Y-134620000D01*
X120031997Y-134442197D01*
X119993377Y-134323338D01*
X119976752Y-134272170D01*
X119976749Y-134272164D01*
X119972969Y-134265616D01*
X119887359Y-134117335D01*
X119840503Y-134065296D01*
X119767735Y-133984478D01*
X119767732Y-133984476D01*
X119767731Y-133984475D01*
X119767730Y-133984474D01*
X119623093Y-133879388D01*
X119459767Y-133806671D01*
X119459765Y-133806670D01*
X119332094Y-133779533D01*
X119284891Y-133769500D01*
X119106109Y-133769500D01*
X119075454Y-133776015D01*
X118931233Y-133806670D01*
X118931228Y-133806672D01*
X118767908Y-133879387D01*
X118623268Y-133984475D01*
X118503640Y-134117336D01*
X118414250Y-134272164D01*
X118414247Y-134272170D01*
X118359004Y-134442192D01*
X118359003Y-134442194D01*
X118348358Y-134543472D01*
X118321772Y-134608086D01*
X118312718Y-134618190D01*
X118177706Y-134753202D01*
X118116383Y-134786687D01*
X118046691Y-134781703D01*
X117997878Y-134748495D01*
X117912192Y-134653332D01*
X117767555Y-134548246D01*
X117604229Y-134475529D01*
X117604227Y-134475528D01*
X117476556Y-134448391D01*
X117429353Y-134438358D01*
X117250571Y-134438358D01*
X117232524Y-134442194D01*
X117075695Y-134475528D01*
X117075690Y-134475530D01*
X116912370Y-134548245D01*
X116767730Y-134653333D01*
X116648102Y-134786194D01*
X116558712Y-134941022D01*
X116558709Y-134941028D01*
X116503466Y-135111050D01*
X116503464Y-135111060D01*
X116497999Y-135163047D01*
X116471414Y-135227661D01*
X116462360Y-135237763D01*
X113677943Y-138022181D01*
X113616620Y-138055666D01*
X113590262Y-138058500D01*
X110608321Y-138058500D01*
X110541282Y-138038815D01*
X110535435Y-138034818D01*
X110409594Y-137943389D01*
X110409593Y-137943388D01*
X110246267Y-137870671D01*
X110246265Y-137870670D01*
X110118594Y-137843533D01*
X110071391Y-137833500D01*
X109892609Y-137833500D01*
X109861954Y-137840015D01*
X109717733Y-137870670D01*
X109717728Y-137870672D01*
X109554408Y-137943387D01*
X109409768Y-138048475D01*
X109290140Y-138181336D01*
X109200750Y-138336164D01*
X109200747Y-138336170D01*
X109145504Y-138506192D01*
X109145503Y-138506194D01*
X109126815Y-138684000D01*
X109145503Y-138861805D01*
X109145504Y-138861807D01*
X109200747Y-139031829D01*
X109200750Y-139031835D01*
X109290141Y-139186665D01*
X109331812Y-139232946D01*
X109409764Y-139319521D01*
X109409767Y-139319523D01*
X109409770Y-139319526D01*
X109554407Y-139424612D01*
X109717733Y-139497329D01*
X109892609Y-139534500D01*
X109892610Y-139534500D01*
X110071389Y-139534500D01*
X110071391Y-139534500D01*
X110246267Y-139497329D01*
X110409593Y-139424612D01*
X110500244Y-139358749D01*
X110535435Y-139333182D01*
X110601242Y-139309702D01*
X110608321Y-139309500D01*
X113322047Y-139309500D01*
X113389086Y-139329185D01*
X113434841Y-139381989D01*
X113444785Y-139451147D01*
X113415760Y-139514703D01*
X113409728Y-139521181D01*
X111860728Y-141070181D01*
X111799405Y-141103666D01*
X111773047Y-141106500D01*
X106290321Y-141106500D01*
X106223282Y-141086815D01*
X106217435Y-141082818D01*
X106091594Y-140991389D01*
X106091593Y-140991388D01*
X105928267Y-140918671D01*
X105928265Y-140918670D01*
X105800594Y-140891533D01*
X105753391Y-140881500D01*
X105574609Y-140881500D01*
X105543954Y-140888015D01*
X105399733Y-140918670D01*
X105399728Y-140918672D01*
X105236408Y-140991387D01*
X105091768Y-141096475D01*
X104972140Y-141229336D01*
X104882750Y-141384164D01*
X104882747Y-141384170D01*
X104827504Y-141554192D01*
X104827503Y-141554194D01*
X104808815Y-141731999D01*
X87630500Y-141731999D01*
X87630500Y-137484000D01*
X88256768Y-137484000D01*
X88275677Y-137772491D01*
X88275679Y-137772503D01*
X88332078Y-138056042D01*
X88332083Y-138056062D01*
X88425008Y-138329811D01*
X88425012Y-138329821D01*
X88552883Y-138589117D01*
X88713506Y-138829505D01*
X88904129Y-139046870D01*
X89073870Y-139195728D01*
X89121496Y-139237495D01*
X89244257Y-139319521D01*
X89361882Y-139398116D01*
X89621178Y-139525987D01*
X89621188Y-139525991D01*
X89894937Y-139618916D01*
X89894941Y-139618917D01*
X89894950Y-139618920D01*
X90178507Y-139675323D01*
X90467000Y-139694232D01*
X90755493Y-139675323D01*
X91039050Y-139618920D01*
X91102994Y-139597214D01*
X91312811Y-139525991D01*
X91312821Y-139525987D01*
X91370934Y-139497329D01*
X91572116Y-139398117D01*
X91812504Y-139237495D01*
X92029870Y-139046870D01*
X92220495Y-138829504D01*
X92381117Y-138589116D01*
X92508988Y-138329819D01*
X92559392Y-138181335D01*
X92601916Y-138056062D01*
X92601916Y-138056061D01*
X92601920Y-138056050D01*
X92658323Y-137772493D01*
X92677232Y-137484000D01*
X92658323Y-137195507D01*
X92601920Y-136911950D01*
X92601916Y-136911937D01*
X92508991Y-136638188D01*
X92508987Y-136638178D01*
X92381116Y-136378882D01*
X92292614Y-136246430D01*
X92220495Y-136138496D01*
X92163943Y-136074011D01*
X92029870Y-135921129D01*
X91987549Y-135884015D01*
X93536500Y-135884015D01*
X93547000Y-135986795D01*
X93547001Y-135986796D01*
X93602186Y-136153335D01*
X93602187Y-136153337D01*
X93694286Y-136302651D01*
X93694289Y-136302655D01*
X93818344Y-136426710D01*
X93818348Y-136426713D01*
X93967662Y-136518812D01*
X93967664Y-136518813D01*
X93967666Y-136518814D01*
X94134203Y-136573999D01*
X94236992Y-136584500D01*
X94236997Y-136584500D01*
X95337003Y-136584500D01*
X95337008Y-136584500D01*
X95439797Y-136573999D01*
X95606334Y-136518814D01*
X95755655Y-136426711D01*
X95879711Y-136302655D01*
X95971814Y-136153334D01*
X96026999Y-135986797D01*
X96037500Y-135884008D01*
X96037500Y-135334002D01*
X96531723Y-135334002D01*
X96550793Y-135551975D01*
X96550793Y-135551979D01*
X96607422Y-135763322D01*
X96607424Y-135763326D01*
X96607425Y-135763330D01*
X96653661Y-135862484D01*
X96699897Y-135961638D01*
X96699898Y-135961639D01*
X96825402Y-136140877D01*
X96980123Y-136295598D01*
X97159361Y-136421102D01*
X97357670Y-136513575D01*
X97357676Y-136513576D01*
X97357677Y-136513577D01*
X97377215Y-136518812D01*
X97569023Y-136570207D01*
X97751926Y-136586208D01*
X97786998Y-136589277D01*
X97787000Y-136589277D01*
X97787002Y-136589277D01*
X97815254Y-136586805D01*
X98004977Y-136570207D01*
X98216330Y-136513575D01*
X98414639Y-136421102D01*
X98593877Y-136295598D01*
X98748598Y-136140877D01*
X98874102Y-135961639D01*
X98966575Y-135763330D01*
X99023207Y-135551977D01*
X99039949Y-135360610D01*
X99042277Y-135334002D01*
X99042277Y-135333997D01*
X99038569Y-135291618D01*
X99023207Y-135116023D01*
X98966575Y-134904670D01*
X98874102Y-134706362D01*
X98874100Y-134706359D01*
X98874099Y-134706357D01*
X98748599Y-134527124D01*
X98691630Y-134470155D01*
X98593877Y-134372402D01*
X98436257Y-134262035D01*
X98414638Y-134246897D01*
X98315484Y-134200661D01*
X98216330Y-134154425D01*
X98216326Y-134154424D01*
X98216322Y-134154422D01*
X98004977Y-134097793D01*
X97787002Y-134078723D01*
X97786998Y-134078723D01*
X97641682Y-134091436D01*
X97569023Y-134097793D01*
X97569020Y-134097793D01*
X97357677Y-134154422D01*
X97357668Y-134154426D01*
X97159361Y-134246898D01*
X97159357Y-134246900D01*
X96980121Y-134372402D01*
X96825402Y-134527121D01*
X96699900Y-134706357D01*
X96699898Y-134706361D01*
X96607426Y-134904668D01*
X96607422Y-134904677D01*
X96550793Y-135116020D01*
X96550793Y-135116024D01*
X96531723Y-135333997D01*
X96531723Y-135334002D01*
X96037500Y-135334002D01*
X96037500Y-134783992D01*
X96026999Y-134681203D01*
X95971814Y-134514666D01*
X95947674Y-134475530D01*
X95879713Y-134365348D01*
X95879710Y-134365344D01*
X95755655Y-134241289D01*
X95755651Y-134241286D01*
X95606337Y-134149187D01*
X95606335Y-134149186D01*
X95451240Y-134097793D01*
X95439797Y-134094001D01*
X95439795Y-134094000D01*
X95337015Y-134083500D01*
X95337008Y-134083500D01*
X94236992Y-134083500D01*
X94236984Y-134083500D01*
X94134204Y-134094000D01*
X94134203Y-134094001D01*
X93967664Y-134149186D01*
X93967662Y-134149187D01*
X93818348Y-134241286D01*
X93818344Y-134241289D01*
X93694289Y-134365344D01*
X93694286Y-134365348D01*
X93602187Y-134514662D01*
X93602186Y-134514664D01*
X93547001Y-134681203D01*
X93547000Y-134681204D01*
X93536500Y-134783984D01*
X93536500Y-135884015D01*
X91987549Y-135884015D01*
X91812505Y-135730506D01*
X91572117Y-135569883D01*
X91312821Y-135442012D01*
X91312811Y-135442008D01*
X91039062Y-135349083D01*
X91039042Y-135349078D01*
X90755503Y-135292679D01*
X90755493Y-135292677D01*
X90467000Y-135273768D01*
X90466999Y-135273768D01*
X90322753Y-135283222D01*
X90178507Y-135292677D01*
X90178501Y-135292678D01*
X90178496Y-135292679D01*
X89894957Y-135349078D01*
X89894937Y-135349083D01*
X89621188Y-135442008D01*
X89621178Y-135442012D01*
X89361882Y-135569883D01*
X89121494Y-135730506D01*
X88904129Y-135921129D01*
X88713506Y-136138494D01*
X88552883Y-136378882D01*
X88425012Y-136638178D01*
X88425008Y-136638188D01*
X88332083Y-136911937D01*
X88332078Y-136911957D01*
X88275679Y-137195496D01*
X88275677Y-137195508D01*
X88256768Y-137484000D01*
X87630500Y-137484000D01*
X87630500Y-131445000D01*
X103488540Y-131445000D01*
X103508326Y-131633256D01*
X103508327Y-131633259D01*
X103566818Y-131813277D01*
X103566821Y-131813284D01*
X103661467Y-131977216D01*
X103773957Y-132102148D01*
X103788129Y-132117888D01*
X103941265Y-132229148D01*
X103941270Y-132229151D01*
X104114192Y-132306142D01*
X104114197Y-132306144D01*
X104299354Y-132345500D01*
X104299355Y-132345500D01*
X104488644Y-132345500D01*
X104488646Y-132345500D01*
X104673803Y-132306144D01*
X104846730Y-132229151D01*
X104999871Y-132117888D01*
X105119949Y-131984527D01*
X105179436Y-131947879D01*
X105212099Y-131943500D01*
X114358252Y-131943500D01*
X114425291Y-131963185D01*
X114450400Y-131984526D01*
X114456126Y-131990885D01*
X114456130Y-131990889D01*
X114609265Y-132102148D01*
X114609270Y-132102151D01*
X114782192Y-132179142D01*
X114782197Y-132179144D01*
X114967354Y-132218500D01*
X114967355Y-132218500D01*
X115156644Y-132218500D01*
X115156646Y-132218500D01*
X115341803Y-132179144D01*
X115514730Y-132102151D01*
X115667871Y-131990888D01*
X115794533Y-131850216D01*
X115889179Y-131686284D01*
X115947674Y-131506256D01*
X115967460Y-131318000D01*
X115947674Y-131129744D01*
X115889179Y-130949716D01*
X115794533Y-130785784D01*
X115667871Y-130645112D01*
X115667870Y-130645111D01*
X115514734Y-130533851D01*
X115514729Y-130533848D01*
X115341807Y-130456857D01*
X115341802Y-130456855D01*
X115173592Y-130421102D01*
X115156646Y-130417500D01*
X114967354Y-130417500D01*
X114950408Y-130421102D01*
X114782197Y-130456855D01*
X114782192Y-130456857D01*
X114609270Y-130533848D01*
X114609265Y-130533851D01*
X114456130Y-130645110D01*
X114456126Y-130645114D01*
X114450400Y-130651474D01*
X114390913Y-130688121D01*
X114358252Y-130692500D01*
X104930584Y-130692500D01*
X104863545Y-130672815D01*
X104857698Y-130668818D01*
X104846729Y-130660848D01*
X104673807Y-130583857D01*
X104673802Y-130583855D01*
X104528001Y-130552865D01*
X104488646Y-130544500D01*
X104299354Y-130544500D01*
X104266897Y-130551398D01*
X104114197Y-130583855D01*
X104114192Y-130583857D01*
X103941270Y-130660848D01*
X103941265Y-130660851D01*
X103788129Y-130772111D01*
X103661466Y-130912785D01*
X103566821Y-131076715D01*
X103566818Y-131076722D01*
X103508327Y-131256740D01*
X103508326Y-131256744D01*
X103488540Y-131445000D01*
X87630500Y-131445000D01*
X87630500Y-127184000D01*
X88256768Y-127184000D01*
X88275677Y-127472491D01*
X88275679Y-127472503D01*
X88332078Y-127756042D01*
X88332083Y-127756062D01*
X88425008Y-128029811D01*
X88425012Y-128029821D01*
X88552883Y-128289117D01*
X88713506Y-128529505D01*
X88904129Y-128746870D01*
X88992188Y-128824095D01*
X89121496Y-128937495D01*
X89281025Y-129044089D01*
X89361882Y-129098116D01*
X89621178Y-129225987D01*
X89621188Y-129225991D01*
X89894937Y-129318916D01*
X89894941Y-129318917D01*
X89894950Y-129318920D01*
X90178507Y-129375323D01*
X90467000Y-129394232D01*
X90755493Y-129375323D01*
X90963238Y-129334000D01*
X93531723Y-129334000D01*
X93549551Y-129537785D01*
X93550793Y-129551975D01*
X93550793Y-129551979D01*
X93607422Y-129763322D01*
X93607424Y-129763326D01*
X93607425Y-129763330D01*
X93653661Y-129862484D01*
X93699897Y-129961638D01*
X93699898Y-129961639D01*
X93825402Y-130140877D01*
X93980123Y-130295598D01*
X94159361Y-130421102D01*
X94357670Y-130513575D01*
X94569023Y-130570207D01*
X94751926Y-130586208D01*
X94786998Y-130589277D01*
X94787000Y-130589277D01*
X94787002Y-130589277D01*
X94815254Y-130586805D01*
X95004977Y-130570207D01*
X95216330Y-130513575D01*
X95414639Y-130421102D01*
X95593877Y-130295598D01*
X95748598Y-130140877D01*
X95874102Y-129961639D01*
X95966575Y-129763330D01*
X96023207Y-129551977D01*
X96042277Y-129334000D01*
X96531723Y-129334000D01*
X96549551Y-129537785D01*
X96550793Y-129551975D01*
X96550793Y-129551979D01*
X96607422Y-129763322D01*
X96607424Y-129763326D01*
X96607425Y-129763330D01*
X96653661Y-129862484D01*
X96699897Y-129961638D01*
X96699898Y-129961639D01*
X96825402Y-130140877D01*
X96980123Y-130295598D01*
X97159361Y-130421102D01*
X97357670Y-130513575D01*
X97569023Y-130570207D01*
X97751926Y-130586208D01*
X97786998Y-130589277D01*
X97787000Y-130589277D01*
X97787002Y-130589277D01*
X97815254Y-130586805D01*
X98004977Y-130570207D01*
X98216330Y-130513575D01*
X98414639Y-130421102D01*
X98593877Y-130295598D01*
X98748598Y-130140877D01*
X98874102Y-129961639D01*
X98966575Y-129763330D01*
X99023207Y-129551977D01*
X99042277Y-129334000D01*
X99040957Y-129318916D01*
X99038569Y-129291618D01*
X99023207Y-129116023D01*
X98980124Y-128955236D01*
X98966577Y-128904677D01*
X98966576Y-128904676D01*
X98966575Y-128904670D01*
X98874102Y-128706362D01*
X98874100Y-128706359D01*
X98874099Y-128706357D01*
X98748599Y-128527124D01*
X98710502Y-128489027D01*
X98593877Y-128372402D01*
X98441144Y-128265457D01*
X98414638Y-128246897D01*
X98315484Y-128200661D01*
X98216330Y-128154425D01*
X98216326Y-128154424D01*
X98216322Y-128154422D01*
X98173694Y-128143000D01*
X116142357Y-128143000D01*
X116162884Y-128364535D01*
X116162885Y-128364537D01*
X116223769Y-128578523D01*
X116223775Y-128578538D01*
X116322938Y-128777683D01*
X116322943Y-128777691D01*
X116457020Y-128955238D01*
X116621437Y-129105123D01*
X116621439Y-129105125D01*
X116810595Y-129222245D01*
X116810596Y-129222245D01*
X116810599Y-129222247D01*
X117018060Y-129302618D01*
X117236757Y-129343500D01*
X117236759Y-129343500D01*
X117459241Y-129343500D01*
X117459243Y-129343500D01*
X117677940Y-129302618D01*
X117885401Y-129222247D01*
X118074562Y-129105124D01*
X118238981Y-128955236D01*
X118373058Y-128777689D01*
X118472229Y-128578528D01*
X118533115Y-128364536D01*
X118553643Y-128143000D01*
X118544215Y-128041259D01*
X118533115Y-127921464D01*
X118533114Y-127921462D01*
X118529907Y-127910191D01*
X118472229Y-127707472D01*
X118472224Y-127707461D01*
X118373061Y-127508316D01*
X118373056Y-127508308D01*
X118238979Y-127330761D01*
X118074562Y-127180876D01*
X118074560Y-127180874D01*
X117885404Y-127063754D01*
X117885398Y-127063752D01*
X117677940Y-126983382D01*
X117459243Y-126942500D01*
X117236757Y-126942500D01*
X117018060Y-126983382D01*
X116886864Y-127034207D01*
X116810601Y-127063752D01*
X116810595Y-127063754D01*
X116621439Y-127180874D01*
X116621437Y-127180876D01*
X116457020Y-127330761D01*
X116322943Y-127508308D01*
X116322938Y-127508316D01*
X116223775Y-127707461D01*
X116223769Y-127707476D01*
X116162885Y-127921462D01*
X116162884Y-127921464D01*
X116142357Y-128142999D01*
X116142357Y-128143000D01*
X98173694Y-128143000D01*
X98004977Y-128097793D01*
X97787002Y-128078723D01*
X97786998Y-128078723D01*
X97641682Y-128091436D01*
X97569023Y-128097793D01*
X97569020Y-128097793D01*
X97357677Y-128154422D01*
X97357668Y-128154426D01*
X97159361Y-128246898D01*
X97159357Y-128246900D01*
X96980121Y-128372402D01*
X96825402Y-128527121D01*
X96699900Y-128706357D01*
X96699898Y-128706361D01*
X96607426Y-128904668D01*
X96607422Y-128904677D01*
X96550793Y-129116020D01*
X96550793Y-129116023D01*
X96548138Y-129146372D01*
X96533043Y-129318916D01*
X96531723Y-129334000D01*
X96042277Y-129334000D01*
X96040957Y-129318916D01*
X96038569Y-129291618D01*
X96023207Y-129116023D01*
X95980124Y-128955236D01*
X95966577Y-128904677D01*
X95966576Y-128904676D01*
X95966575Y-128904670D01*
X95874102Y-128706362D01*
X95874100Y-128706359D01*
X95874099Y-128706357D01*
X95748599Y-128527124D01*
X95710502Y-128489027D01*
X95593877Y-128372402D01*
X95441144Y-128265457D01*
X95414638Y-128246897D01*
X95315484Y-128200661D01*
X95216330Y-128154425D01*
X95216326Y-128154424D01*
X95216322Y-128154422D01*
X95004977Y-128097793D01*
X94787002Y-128078723D01*
X94786998Y-128078723D01*
X94641682Y-128091436D01*
X94569023Y-128097793D01*
X94569020Y-128097793D01*
X94357677Y-128154422D01*
X94357668Y-128154426D01*
X94159361Y-128246898D01*
X94159357Y-128246900D01*
X93980121Y-128372402D01*
X93825402Y-128527121D01*
X93699900Y-128706357D01*
X93699898Y-128706361D01*
X93607426Y-128904668D01*
X93607422Y-128904677D01*
X93550793Y-129116020D01*
X93550793Y-129116023D01*
X93548138Y-129146372D01*
X93533043Y-129318916D01*
X93531723Y-129334000D01*
X90963238Y-129334000D01*
X91039050Y-129318920D01*
X91087077Y-129302617D01*
X91312811Y-129225991D01*
X91312821Y-129225987D01*
X91444484Y-129161058D01*
X91572116Y-129098117D01*
X91812504Y-128937495D01*
X92029870Y-128746870D01*
X92220495Y-128529504D01*
X92381117Y-128289116D01*
X92508988Y-128029819D01*
X92512831Y-128018500D01*
X92601916Y-127756062D01*
X92601916Y-127756061D01*
X92601920Y-127756050D01*
X92658323Y-127472493D01*
X92677232Y-127184000D01*
X92658323Y-126895507D01*
X92601920Y-126611950D01*
X92552983Y-126467785D01*
X92508991Y-126338188D01*
X92508987Y-126338178D01*
X92382376Y-126081438D01*
X92381117Y-126078884D01*
X92354028Y-126038343D01*
X92296442Y-125952159D01*
X92220495Y-125838496D01*
X92178728Y-125790870D01*
X92029870Y-125621129D01*
X91812505Y-125430506D01*
X91572117Y-125269883D01*
X91312821Y-125142012D01*
X91312811Y-125142008D01*
X91039062Y-125049083D01*
X91039042Y-125049078D01*
X90755503Y-124992679D01*
X90755493Y-124992677D01*
X90467000Y-124973768D01*
X90178507Y-124992677D01*
X90178501Y-124992678D01*
X90178496Y-124992679D01*
X89894957Y-125049078D01*
X89894937Y-125049083D01*
X89621188Y-125142008D01*
X89621178Y-125142012D01*
X89361882Y-125269883D01*
X89121494Y-125430506D01*
X88904129Y-125621129D01*
X88713506Y-125838494D01*
X88552883Y-126078882D01*
X88425012Y-126338178D01*
X88425008Y-126338188D01*
X88332083Y-126611937D01*
X88332078Y-126611957D01*
X88328148Y-126631715D01*
X88275677Y-126895507D01*
X88264649Y-127063754D01*
X88256768Y-127184000D01*
X87630500Y-127184000D01*
X87630500Y-123579870D01*
X101773500Y-123579870D01*
X101773501Y-123579876D01*
X101779908Y-123639483D01*
X101830202Y-123774328D01*
X101830206Y-123774335D01*
X101916452Y-123889544D01*
X101916455Y-123889547D01*
X102031664Y-123975793D01*
X102031671Y-123975797D01*
X102166517Y-124026091D01*
X102166516Y-124026091D01*
X102173444Y-124026835D01*
X102226127Y-124032500D01*
X104021872Y-124032499D01*
X104081483Y-124026091D01*
X104216331Y-123975796D01*
X104331546Y-123889546D01*
X104417796Y-123774331D01*
X104466810Y-123642916D01*
X104508681Y-123586984D01*
X104574145Y-123562566D01*
X104642418Y-123577417D01*
X104670673Y-123598569D01*
X104792599Y-123720495D01*
X104889384Y-123788264D01*
X104986165Y-123856032D01*
X104986167Y-123856033D01*
X104986170Y-123856035D01*
X105200337Y-123955903D01*
X105428592Y-124017063D01*
X105605034Y-124032500D01*
X105663999Y-124037659D01*
X105664000Y-124037659D01*
X105664001Y-124037659D01*
X105722966Y-124032500D01*
X105899408Y-124017063D01*
X106127663Y-123955903D01*
X106341830Y-123856035D01*
X106535401Y-123720495D01*
X106702495Y-123553401D01*
X106832426Y-123367840D01*
X106887001Y-123324217D01*
X106956499Y-123317023D01*
X107018854Y-123348546D01*
X107035574Y-123367841D01*
X107080321Y-123431746D01*
X107165505Y-123553401D01*
X107332599Y-123720495D01*
X107429384Y-123788264D01*
X107526165Y-123856032D01*
X107526167Y-123856033D01*
X107526170Y-123856035D01*
X107740337Y-123955903D01*
X107968592Y-124017063D01*
X108145034Y-124032500D01*
X108203999Y-124037659D01*
X108204000Y-124037659D01*
X108204001Y-124037659D01*
X108262966Y-124032500D01*
X108439408Y-124017063D01*
X108667663Y-123955903D01*
X108881830Y-123856035D01*
X109075401Y-123720495D01*
X109242495Y-123553401D01*
X109372426Y-123367841D01*
X109427002Y-123324217D01*
X109496500Y-123317023D01*
X109558855Y-123348546D01*
X109575575Y-123367842D01*
X109705500Y-123553395D01*
X109705505Y-123553401D01*
X109872599Y-123720495D01*
X109969384Y-123788264D01*
X110066165Y-123856032D01*
X110066167Y-123856033D01*
X110066170Y-123856035D01*
X110280337Y-123955903D01*
X110508592Y-124017063D01*
X110685034Y-124032500D01*
X110743999Y-124037659D01*
X110744000Y-124037659D01*
X110744001Y-124037659D01*
X110802966Y-124032500D01*
X110979408Y-124017063D01*
X111207663Y-123955903D01*
X111421830Y-123856035D01*
X111615401Y-123720495D01*
X111782495Y-123553401D01*
X111912426Y-123367840D01*
X111967001Y-123324217D01*
X112036499Y-123317023D01*
X112098854Y-123348546D01*
X112115574Y-123367841D01*
X112160321Y-123431746D01*
X112245505Y-123553401D01*
X112412599Y-123720495D01*
X112509384Y-123788264D01*
X112606165Y-123856032D01*
X112606167Y-123856033D01*
X112606170Y-123856035D01*
X112820337Y-123955903D01*
X113048592Y-124017063D01*
X113225034Y-124032500D01*
X113283999Y-124037659D01*
X113284000Y-124037659D01*
X113284001Y-124037659D01*
X113342966Y-124032500D01*
X113519408Y-124017063D01*
X113747663Y-123955903D01*
X113961830Y-123856035D01*
X114155401Y-123720495D01*
X114322495Y-123553401D01*
X114458035Y-123359830D01*
X114478007Y-123317000D01*
X118220540Y-123317000D01*
X118240326Y-123505256D01*
X118240327Y-123505259D01*
X118298818Y-123685277D01*
X118298821Y-123685284D01*
X118393467Y-123849216D01*
X118507441Y-123975797D01*
X118520129Y-123989888D01*
X118673265Y-124101148D01*
X118673270Y-124101151D01*
X118846192Y-124178142D01*
X118846197Y-124178144D01*
X119031354Y-124217500D01*
X119031355Y-124217500D01*
X119220644Y-124217500D01*
X119220646Y-124217500D01*
X119405803Y-124178144D01*
X119578730Y-124101151D01*
X119731871Y-123989888D01*
X119858533Y-123849216D01*
X119953179Y-123685284D01*
X120011674Y-123505256D01*
X120031460Y-123317000D01*
X120011674Y-123128744D01*
X119953179Y-122948716D01*
X119953178Y-122948714D01*
X119893113Y-122844677D01*
X119876500Y-122782677D01*
X119876500Y-117475000D01*
X123096815Y-117475000D01*
X123115503Y-117652805D01*
X123115504Y-117652807D01*
X123170747Y-117822829D01*
X123170750Y-117822835D01*
X123260141Y-117977665D01*
X123284203Y-118004388D01*
X123294649Y-118015989D01*
X123324879Y-118078980D01*
X123326500Y-118098962D01*
X123326500Y-121710255D01*
X123324775Y-121725872D01*
X123325061Y-121725899D01*
X123324326Y-121733665D01*
X123326500Y-121802814D01*
X123326500Y-121832343D01*
X123326501Y-121832360D01*
X123327368Y-121839231D01*
X123327826Y-121845050D01*
X123329290Y-121891624D01*
X123329291Y-121891627D01*
X123334880Y-121910867D01*
X123338824Y-121929911D01*
X123341336Y-121949791D01*
X123358490Y-121993119D01*
X123360382Y-121998647D01*
X123365265Y-122015454D01*
X123373382Y-122043390D01*
X123377296Y-122050009D01*
X123383580Y-122060634D01*
X123392138Y-122078103D01*
X123399514Y-122096732D01*
X123426898Y-122134423D01*
X123430106Y-122139307D01*
X123453827Y-122179416D01*
X123453833Y-122179424D01*
X123467990Y-122193580D01*
X123480628Y-122208376D01*
X123492405Y-122224586D01*
X123492406Y-122224587D01*
X123528309Y-122254288D01*
X123532620Y-122258210D01*
X125375558Y-124101148D01*
X127134194Y-125859784D01*
X127144019Y-125872048D01*
X127144240Y-125871866D01*
X127149210Y-125877873D01*
X127149213Y-125877876D01*
X127149214Y-125877877D01*
X127199651Y-125925241D01*
X127220530Y-125946120D01*
X127222716Y-125948306D01*
X127256201Y-126009629D01*
X127251217Y-126079321D01*
X127209345Y-126135254D01*
X127145844Y-126159515D01*
X127138606Y-126160148D01*
X127125851Y-126161264D01*
X127120450Y-126161500D01*
X127112206Y-126161500D01*
X127079625Y-126165308D01*
X127003117Y-126172001D01*
X126996051Y-126173461D01*
X126996039Y-126173404D01*
X126988672Y-126175038D01*
X126988686Y-126175094D01*
X126981669Y-126176756D01*
X126909491Y-126203026D01*
X126836580Y-126227187D01*
X126830037Y-126230238D01*
X126830012Y-126230186D01*
X126823232Y-126233468D01*
X126823258Y-126233520D01*
X126816799Y-126236764D01*
X126752627Y-126278970D01*
X126687263Y-126319288D01*
X126681595Y-126323770D01*
X126681559Y-126323724D01*
X126675716Y-126328484D01*
X126675753Y-126328528D01*
X126670228Y-126333164D01*
X126670222Y-126333169D01*
X126670222Y-126333170D01*
X126665488Y-126338188D01*
X126617515Y-126389035D01*
X124355358Y-128651190D01*
X124341729Y-128662969D01*
X124322468Y-128677308D01*
X124288898Y-128717315D01*
X124285253Y-128721294D01*
X124279409Y-128727140D01*
X124259059Y-128752877D01*
X124209695Y-128811707D01*
X124205729Y-128817737D01*
X124205682Y-128817706D01*
X124201630Y-128824065D01*
X124201679Y-128824095D01*
X124197889Y-128830239D01*
X124165424Y-128899859D01*
X124130960Y-128968484D01*
X124128488Y-128975275D01*
X124128432Y-128975254D01*
X124125960Y-128982368D01*
X124126015Y-128982387D01*
X124123742Y-128989245D01*
X124115975Y-129026864D01*
X124108207Y-129064483D01*
X124098575Y-129105124D01*
X124090498Y-129139204D01*
X124089661Y-129146372D01*
X124089601Y-129146365D01*
X124088835Y-129153863D01*
X124088895Y-129153869D01*
X124088265Y-129161058D01*
X124090500Y-129237834D01*
X124090499Y-138530677D01*
X124073887Y-138592676D01*
X124013820Y-138696716D01*
X123960180Y-138861805D01*
X123955326Y-138876744D01*
X123935540Y-139065000D01*
X123955326Y-139253256D01*
X123955327Y-139253259D01*
X124013818Y-139433277D01*
X124013821Y-139433284D01*
X124108467Y-139597216D01*
X124178795Y-139675323D01*
X124235129Y-139737888D01*
X124388265Y-139849148D01*
X124388270Y-139849151D01*
X124561192Y-139926142D01*
X124561197Y-139926144D01*
X124746354Y-139965500D01*
X124746355Y-139965500D01*
X124935644Y-139965500D01*
X124935646Y-139965500D01*
X125120803Y-139926144D01*
X125293730Y-139849151D01*
X125446871Y-139737888D01*
X125573533Y-139597216D01*
X125668179Y-139433284D01*
X125726674Y-139253256D01*
X125746460Y-139065000D01*
X125726674Y-138876744D01*
X125668179Y-138696716D01*
X125668178Y-138696714D01*
X125608113Y-138592677D01*
X125591500Y-138530677D01*
X125591500Y-129589146D01*
X125611185Y-129522107D01*
X125627814Y-129501470D01*
X127430465Y-127698819D01*
X127491789Y-127665334D01*
X127518147Y-127662500D01*
X130784541Y-127662500D01*
X130851580Y-127682185D01*
X130857426Y-127686182D01*
X130992265Y-127784148D01*
X130992270Y-127784151D01*
X131165192Y-127861142D01*
X131165197Y-127861144D01*
X131350354Y-127900500D01*
X131350355Y-127900500D01*
X131539644Y-127900500D01*
X131539646Y-127900500D01*
X131724803Y-127861144D01*
X131897730Y-127784151D01*
X132050871Y-127672888D01*
X132177533Y-127532216D01*
X132272179Y-127368284D01*
X132330674Y-127188256D01*
X132350460Y-127000000D01*
X132330674Y-126811744D01*
X132272179Y-126631716D01*
X132177533Y-126467784D01*
X132050871Y-126327112D01*
X132050853Y-126327099D01*
X131897734Y-126215851D01*
X131897729Y-126215848D01*
X131724807Y-126138857D01*
X131724802Y-126138855D01*
X131549055Y-126101500D01*
X131539646Y-126099500D01*
X131350354Y-126099500D01*
X131340945Y-126101500D01*
X131165197Y-126138855D01*
X131138415Y-126150780D01*
X131087980Y-126161500D01*
X130595074Y-126161500D01*
X130528035Y-126141815D01*
X130482280Y-126089011D01*
X130472336Y-126019853D01*
X130487687Y-125975501D01*
X130575247Y-125823840D01*
X130575246Y-125823840D01*
X130575250Y-125823835D01*
X130630497Y-125653803D01*
X130649185Y-125476000D01*
X130630497Y-125298197D01*
X130575250Y-125128165D01*
X130485859Y-124973335D01*
X130421859Y-124902256D01*
X130366235Y-124840478D01*
X130366232Y-124840476D01*
X130366231Y-124840475D01*
X130366230Y-124840474D01*
X130221593Y-124735388D01*
X130058267Y-124662671D01*
X130058265Y-124662670D01*
X129930594Y-124635533D01*
X129883391Y-124625500D01*
X129704609Y-124625500D01*
X129673954Y-124632015D01*
X129529733Y-124662670D01*
X129529728Y-124662672D01*
X129366408Y-124735387D01*
X129240566Y-124826818D01*
X129174759Y-124850298D01*
X129167680Y-124850500D01*
X127945452Y-124850500D01*
X127878413Y-124830815D01*
X127857771Y-124814181D01*
X124613819Y-121570228D01*
X124580334Y-121508905D01*
X124577500Y-121482547D01*
X124577500Y-118141453D01*
X124597185Y-118074414D01*
X124649989Y-118028659D01*
X124719147Y-118018715D01*
X124782703Y-118047740D01*
X124789181Y-118053772D01*
X124941180Y-118205771D01*
X124974665Y-118267094D01*
X124977499Y-118293452D01*
X124977499Y-119896483D01*
X124975776Y-119912100D01*
X124976061Y-119912127D01*
X124975326Y-119919893D01*
X124977500Y-119989042D01*
X124977500Y-120018571D01*
X124977501Y-120018588D01*
X124978368Y-120025459D01*
X124978826Y-120031278D01*
X124980290Y-120077852D01*
X124980291Y-120077855D01*
X124985880Y-120097095D01*
X124989824Y-120116139D01*
X124992336Y-120136020D01*
X125003474Y-120164151D01*
X125009490Y-120179347D01*
X125011382Y-120184875D01*
X125024381Y-120229616D01*
X125034580Y-120246862D01*
X125043136Y-120264328D01*
X125050514Y-120282960D01*
X125075149Y-120316868D01*
X125077898Y-120320651D01*
X125081106Y-120325535D01*
X125104827Y-120365644D01*
X125104833Y-120365652D01*
X125118990Y-120379808D01*
X125131627Y-120394603D01*
X125132642Y-120396000D01*
X125143405Y-120410814D01*
X125143406Y-120410815D01*
X125179309Y-120440516D01*
X125183620Y-120444438D01*
X125759144Y-121019962D01*
X126325604Y-121586422D01*
X126359089Y-121647745D01*
X126361243Y-121661138D01*
X126371889Y-121762417D01*
X126371890Y-121762419D01*
X126371890Y-121762421D01*
X126427133Y-121932443D01*
X126427136Y-121932449D01*
X126516527Y-122087279D01*
X126525039Y-122096732D01*
X126636150Y-122220135D01*
X126636153Y-122220137D01*
X126636156Y-122220140D01*
X126780793Y-122325226D01*
X126944119Y-122397943D01*
X127118995Y-122435114D01*
X127118996Y-122435114D01*
X127297775Y-122435114D01*
X127297777Y-122435114D01*
X127472653Y-122397943D01*
X127635979Y-122325226D01*
X127684367Y-122290069D01*
X127750172Y-122266590D01*
X127818226Y-122282415D01*
X127866921Y-122332520D01*
X127880572Y-122377423D01*
X127892326Y-122489256D01*
X127892327Y-122489259D01*
X127950818Y-122669277D01*
X127950821Y-122669284D01*
X128045467Y-122833216D01*
X128055787Y-122844677D01*
X128172129Y-122973888D01*
X128325265Y-123085148D01*
X128325270Y-123085151D01*
X128498192Y-123162142D01*
X128498197Y-123162144D01*
X128683354Y-123201500D01*
X128683355Y-123201500D01*
X128872644Y-123201500D01*
X128872646Y-123201500D01*
X129057803Y-123162144D01*
X129230730Y-123085151D01*
X129383871Y-122973888D01*
X129510533Y-122833216D01*
X129605179Y-122669284D01*
X129660522Y-122498955D01*
X129690769Y-122449597D01*
X130660638Y-121479727D01*
X130674267Y-121467950D01*
X130676775Y-121466083D01*
X130693530Y-121453610D01*
X130693532Y-121453606D01*
X130693534Y-121453606D01*
X130711663Y-121431999D01*
X130727113Y-121413585D01*
X130730767Y-121409599D01*
X130733594Y-121406773D01*
X130736590Y-121403777D01*
X130756927Y-121378055D01*
X130806302Y-121319214D01*
X130806304Y-121319209D01*
X130810272Y-121313179D01*
X130810323Y-121313212D01*
X130814369Y-121306860D01*
X130814317Y-121306828D01*
X130818109Y-121300679D01*
X130818111Y-121300677D01*
X130850569Y-121231069D01*
X130885040Y-121162433D01*
X130885043Y-121162417D01*
X130887510Y-121155644D01*
X130887568Y-121155665D01*
X130890043Y-121148546D01*
X130889985Y-121148527D01*
X130892256Y-121141672D01*
X130907784Y-121066467D01*
X130918806Y-121019962D01*
X130925500Y-120991721D01*
X130925500Y-120991720D01*
X130926339Y-120984548D01*
X130926397Y-120984554D01*
X130927164Y-120977056D01*
X130927104Y-120977051D01*
X130927733Y-120969860D01*
X130925500Y-120893103D01*
X130925500Y-120771284D01*
X130925500Y-120648132D01*
X130945183Y-120581096D01*
X130997987Y-120535341D01*
X131067146Y-120525397D01*
X131099932Y-120534854D01*
X131180733Y-120570829D01*
X131355609Y-120608000D01*
X131355610Y-120608000D01*
X131534389Y-120608000D01*
X131534391Y-120608000D01*
X131709267Y-120570829D01*
X131872593Y-120498112D01*
X132017230Y-120393026D01*
X132022916Y-120386712D01*
X132069947Y-120334478D01*
X132136859Y-120260165D01*
X132226250Y-120105335D01*
X132281497Y-119935303D01*
X132300185Y-119757500D01*
X132281497Y-119579697D01*
X132242179Y-119458688D01*
X132226252Y-119409670D01*
X132226249Y-119409664D01*
X132209123Y-119380000D01*
X146160540Y-119380000D01*
X146180326Y-119568256D01*
X146180327Y-119568259D01*
X146238818Y-119748277D01*
X146238821Y-119748284D01*
X146333467Y-119912216D01*
X146455876Y-120048165D01*
X146460129Y-120052888D01*
X146613265Y-120164148D01*
X146613270Y-120164151D01*
X146786192Y-120241142D01*
X146786197Y-120241144D01*
X146971354Y-120280500D01*
X146971355Y-120280500D01*
X147160644Y-120280500D01*
X147160646Y-120280500D01*
X147345803Y-120241144D01*
X147518730Y-120164151D01*
X147520776Y-120162664D01*
X147532452Y-120154182D01*
X147598258Y-120130702D01*
X147605337Y-120130500D01*
X147719770Y-120130500D01*
X147786809Y-120150185D01*
X147807451Y-120166819D01*
X147921181Y-120280549D01*
X147954666Y-120341872D01*
X147957500Y-120368230D01*
X147957500Y-123721770D01*
X147937815Y-123788809D01*
X147885011Y-123834564D01*
X147815853Y-123844508D01*
X147807720Y-123843060D01*
X147668647Y-123813500D01*
X147668646Y-123813500D01*
X147479354Y-123813500D01*
X147446897Y-123820398D01*
X147294197Y-123852855D01*
X147294192Y-123852857D01*
X147121270Y-123929848D01*
X147121265Y-123929851D01*
X146968129Y-124041111D01*
X146841466Y-124181785D01*
X146746821Y-124345715D01*
X146746818Y-124345722D01*
X146688327Y-124525740D01*
X146688326Y-124525744D01*
X146668540Y-124714000D01*
X146688326Y-124902256D01*
X146688327Y-124902259D01*
X146746818Y-125082277D01*
X146746821Y-125082284D01*
X146841467Y-125246216D01*
X146968128Y-125386888D01*
X146968129Y-125386888D01*
X147121265Y-125498148D01*
X147121270Y-125498151D01*
X147294191Y-125575142D01*
X147294194Y-125575142D01*
X147294197Y-125575144D01*
X147328221Y-125582375D01*
X147359329Y-125588988D01*
X147420811Y-125622180D01*
X147421230Y-125622597D01*
X147921181Y-126122548D01*
X147954666Y-126183871D01*
X147957500Y-126210229D01*
X147957500Y-130180500D01*
X147937815Y-130247539D01*
X147885011Y-130293294D01*
X147833500Y-130304500D01*
X147317000Y-130304500D01*
X147316991Y-130304500D01*
X147316990Y-130304501D01*
X147209549Y-130316052D01*
X147209537Y-130316054D01*
X147158027Y-130327260D01*
X147055502Y-130361383D01*
X147055496Y-130361386D01*
X146934462Y-130439171D01*
X146934451Y-130439179D01*
X146881659Y-130484923D01*
X146787433Y-130593664D01*
X146787430Y-130593668D01*
X146727664Y-130724534D01*
X146707978Y-130791575D01*
X146707976Y-130791580D01*
X146691595Y-130905516D01*
X146687500Y-130934000D01*
X146687500Y-141100000D01*
X146687501Y-141100009D01*
X146699052Y-141207450D01*
X146699054Y-141207462D01*
X146710260Y-141258972D01*
X146744383Y-141361497D01*
X146744386Y-141361503D01*
X146822171Y-141482537D01*
X146822179Y-141482548D01*
X146867923Y-141535340D01*
X146867926Y-141535343D01*
X146867930Y-141535347D01*
X146976664Y-141629567D01*
X146976667Y-141629568D01*
X146976668Y-141629569D01*
X147070925Y-141672616D01*
X147107541Y-141689338D01*
X147152357Y-141702497D01*
X147174575Y-141709022D01*
X147174580Y-141709023D01*
X147174584Y-141709024D01*
X147317000Y-141729500D01*
X147317003Y-141729500D01*
X153291990Y-141729500D01*
X153292000Y-141729500D01*
X153399456Y-141717947D01*
X153450967Y-141706741D01*
X153485197Y-141695347D01*
X153553497Y-141672616D01*
X153553501Y-141672613D01*
X153553504Y-141672613D01*
X153674543Y-141594825D01*
X153727347Y-141549070D01*
X153821567Y-141440336D01*
X153881338Y-141309459D01*
X153901023Y-141242420D01*
X153901024Y-141242416D01*
X153921500Y-141100000D01*
X153921500Y-136776000D01*
X153909947Y-136668544D01*
X153898741Y-136617033D01*
X153884418Y-136573999D01*
X153864616Y-136514502D01*
X153864613Y-136514496D01*
X153864020Y-136513573D01*
X153786825Y-136393457D01*
X153786820Y-136393451D01*
X153741076Y-136340659D01*
X153741072Y-136340656D01*
X153741070Y-136340653D01*
X153632336Y-136246433D01*
X153632333Y-136246431D01*
X153632331Y-136246430D01*
X153501465Y-136186664D01*
X153501460Y-136186662D01*
X153501459Y-136186662D01*
X153478858Y-136180025D01*
X153434425Y-136166978D01*
X153434419Y-136166976D01*
X153339532Y-136153334D01*
X153292000Y-136146500D01*
X153291998Y-136146500D01*
X150362500Y-136146500D01*
X150295461Y-136126815D01*
X150249706Y-136074011D01*
X150238500Y-136022500D01*
X150238500Y-135255521D01*
X150238499Y-134470154D01*
X150258184Y-134403116D01*
X150310987Y-134357361D01*
X150380142Y-134347417D01*
X150492000Y-134363500D01*
X150492003Y-134363500D01*
X155591286Y-134363500D01*
X155591292Y-134363500D01*
X155722142Y-134346271D01*
X155776074Y-134331818D01*
X155776073Y-134331816D01*
X155802528Y-134324727D01*
X155803295Y-134323997D01*
X155829481Y-134314048D01*
X155839099Y-134311594D01*
X155950099Y-134265616D01*
X155954075Y-134263884D01*
X155958326Y-134262034D01*
X155963537Y-134259708D01*
X155966504Y-134258386D01*
X156087543Y-134180598D01*
X156140347Y-134134843D01*
X156234567Y-134026109D01*
X156294338Y-133895232D01*
X156314023Y-133828193D01*
X156314024Y-133828189D01*
X156334500Y-133685773D01*
X156334500Y-128648000D01*
X156322947Y-128540544D01*
X156311741Y-128489033D01*
X156311637Y-128488722D01*
X156277616Y-128386502D01*
X156277613Y-128386496D01*
X156263499Y-128364535D01*
X156199825Y-128265457D01*
X156199820Y-128265451D01*
X156154076Y-128212659D01*
X156154072Y-128212656D01*
X156154070Y-128212653D01*
X156045336Y-128118433D01*
X156045333Y-128118431D01*
X156045331Y-128118430D01*
X155914465Y-128058664D01*
X155914460Y-128058662D01*
X155914459Y-128058662D01*
X155891858Y-128052025D01*
X155847425Y-128038978D01*
X155847419Y-128038976D01*
X155761966Y-128026690D01*
X155705000Y-128018500D01*
X155704998Y-128018500D01*
X154680500Y-128018500D01*
X154613461Y-127998815D01*
X154567706Y-127946011D01*
X154556500Y-127894500D01*
X154556500Y-123456067D01*
X154576185Y-123389028D01*
X154628989Y-123343273D01*
X154698147Y-123333329D01*
X154753386Y-123355749D01*
X154759407Y-123360124D01*
X154922733Y-123432841D01*
X155097609Y-123470012D01*
X155097610Y-123470012D01*
X155276389Y-123470012D01*
X155276391Y-123470012D01*
X155451267Y-123432841D01*
X155614593Y-123360124D01*
X155759230Y-123255038D01*
X155878859Y-123122177D01*
X155968250Y-122967347D01*
X156023497Y-122797315D01*
X156034141Y-122696036D01*
X156060724Y-122631425D01*
X156069771Y-122621330D01*
X156840787Y-121850314D01*
X156853042Y-121840498D01*
X156852859Y-121840276D01*
X156858866Y-121835304D01*
X156858877Y-121835298D01*
X156897724Y-121793930D01*
X156906227Y-121784876D01*
X156916671Y-121774430D01*
X156927120Y-121763983D01*
X156931379Y-121758490D01*
X156935152Y-121754073D01*
X156967062Y-121720094D01*
X156976713Y-121702536D01*
X156987396Y-121686273D01*
X156999673Y-121670448D01*
X157018185Y-121627665D01*
X157020735Y-121622460D01*
X157024420Y-121615755D01*
X157040919Y-121592542D01*
X157148859Y-121472665D01*
X157238250Y-121317835D01*
X157293497Y-121147803D01*
X157312185Y-120970000D01*
X157293497Y-120792197D01*
X157238250Y-120622165D01*
X157148859Y-120467335D01*
X157097967Y-120410814D01*
X157029235Y-120334478D01*
X157029232Y-120334476D01*
X157029231Y-120334475D01*
X157029230Y-120334474D01*
X156884593Y-120229388D01*
X156721267Y-120156671D01*
X156721265Y-120156670D01*
X156593594Y-120129533D01*
X156546391Y-120119500D01*
X156367609Y-120119500D01*
X156336954Y-120126015D01*
X156192733Y-120156670D01*
X156192728Y-120156672D01*
X156029408Y-120229387D01*
X155884768Y-120334475D01*
X155765140Y-120467336D01*
X155675750Y-120622164D01*
X155675747Y-120622170D01*
X155620504Y-120792192D01*
X155620503Y-120792194D01*
X155601815Y-120970000D01*
X155620503Y-121147805D01*
X155620505Y-121147810D01*
X155634693Y-121191478D01*
X155636688Y-121261319D01*
X155604443Y-121317476D01*
X155189228Y-121732693D01*
X155127905Y-121766178D01*
X155101547Y-121769012D01*
X155097609Y-121769012D01*
X155066954Y-121775527D01*
X154922733Y-121806182D01*
X154922728Y-121806184D01*
X154759408Y-121878900D01*
X154759405Y-121878901D01*
X154753383Y-121883277D01*
X154687576Y-121906755D01*
X154619523Y-121890928D01*
X154570829Y-121840821D01*
X154556500Y-121782957D01*
X154556500Y-113308067D01*
X154576185Y-113241028D01*
X154628989Y-113195273D01*
X154654714Y-113186777D01*
X154711803Y-113174644D01*
X154884730Y-113097651D01*
X155037871Y-112986388D01*
X155164533Y-112845716D01*
X155259179Y-112681784D01*
X155317674Y-112501756D01*
X155337460Y-112313500D01*
X155317674Y-112125244D01*
X155259179Y-111945216D01*
X155164533Y-111781284D01*
X155037871Y-111640612D01*
X155037870Y-111640611D01*
X154884734Y-111529351D01*
X154884729Y-111529348D01*
X154711807Y-111452357D01*
X154711802Y-111452355D01*
X154654719Y-111440222D01*
X154593237Y-111407029D01*
X154559461Y-111345866D01*
X154556500Y-111318932D01*
X154556500Y-108966000D01*
X156828540Y-108966000D01*
X156848326Y-109154256D01*
X156848327Y-109154259D01*
X156906818Y-109334277D01*
X156906821Y-109334284D01*
X157001467Y-109498216D01*
X157094488Y-109601526D01*
X157128129Y-109638888D01*
X157281265Y-109750148D01*
X157281270Y-109750151D01*
X157454192Y-109827142D01*
X157454197Y-109827144D01*
X157639354Y-109866500D01*
X157639355Y-109866500D01*
X157828644Y-109866500D01*
X157828646Y-109866500D01*
X158013803Y-109827144D01*
X158186730Y-109750151D01*
X158339871Y-109638888D01*
X158466533Y-109498216D01*
X158561179Y-109334284D01*
X158619674Y-109154256D01*
X158639460Y-108966000D01*
X158619674Y-108777744D01*
X158561179Y-108597716D01*
X158561015Y-108597432D01*
X158501113Y-108493677D01*
X158484500Y-108431677D01*
X158484500Y-107195177D01*
X161240500Y-107195177D01*
X161252799Y-107355377D01*
X161255484Y-107390342D01*
X161255484Y-107390347D01*
X161314978Y-107644583D01*
X161314981Y-107644593D01*
X161412581Y-107886758D01*
X161412586Y-107886767D01*
X161454963Y-107958047D01*
X161546018Y-108111208D01*
X161694705Y-108291501D01*
X161712150Y-108312654D01*
X161907071Y-108486368D01*
X161907088Y-108486381D01*
X162126242Y-108628304D01*
X162126245Y-108628304D01*
X162126247Y-108628306D01*
X162364511Y-108735118D01*
X162616287Y-108804307D01*
X162875675Y-108834252D01*
X163136593Y-108824251D01*
X163392927Y-108774538D01*
X163392930Y-108774537D01*
X163638663Y-108686281D01*
X163638664Y-108686280D01*
X163638668Y-108686279D01*
X163868057Y-108561541D01*
X164075716Y-108403250D01*
X164256778Y-108215114D01*
X164406999Y-108001544D01*
X164522859Y-107767547D01*
X164601641Y-107518605D01*
X164641500Y-107260555D01*
X164641500Y-106164823D01*
X164626516Y-105969656D01*
X164567021Y-105715414D01*
X164557897Y-105692775D01*
X164469418Y-105473241D01*
X164469413Y-105473232D01*
X164377464Y-105318568D01*
X164335982Y-105248792D01*
X164169852Y-105047348D01*
X164169849Y-105047345D01*
X163974928Y-104873631D01*
X163974911Y-104873618D01*
X163755757Y-104731695D01*
X163755753Y-104731694D01*
X163517488Y-104624881D01*
X163265714Y-104555693D01*
X163092946Y-104535748D01*
X163006325Y-104525748D01*
X163006324Y-104525748D01*
X162745406Y-104535748D01*
X162489071Y-104585462D01*
X162489069Y-104585462D01*
X162243336Y-104673718D01*
X162013939Y-104798461D01*
X161806288Y-104956746D01*
X161806284Y-104956749D01*
X161806284Y-104956750D01*
X161719093Y-105047348D01*
X161625223Y-105144885D01*
X161625214Y-105144895D01*
X161475010Y-105358441D01*
X161474999Y-105358460D01*
X161359139Y-105592455D01*
X161284778Y-105827431D01*
X161280359Y-105841395D01*
X161240500Y-106099445D01*
X161240500Y-107195177D01*
X158484500Y-107195177D01*
X158484500Y-84843177D01*
X161240500Y-84843177D01*
X161253103Y-85007337D01*
X161255484Y-85038342D01*
X161255484Y-85038347D01*
X161314978Y-85292583D01*
X161314981Y-85292593D01*
X161412581Y-85534758D01*
X161412586Y-85534767D01*
X161426270Y-85557784D01*
X161546018Y-85759208D01*
X161690715Y-85934663D01*
X161712150Y-85960654D01*
X161907071Y-86134368D01*
X161907088Y-86134381D01*
X162126242Y-86276304D01*
X162126245Y-86276304D01*
X162126247Y-86276306D01*
X162364511Y-86383118D01*
X162616287Y-86452307D01*
X162875675Y-86482252D01*
X163136593Y-86472251D01*
X163392927Y-86422538D01*
X163392930Y-86422537D01*
X163638663Y-86334281D01*
X163638664Y-86334280D01*
X163638668Y-86334279D01*
X163868057Y-86209541D01*
X164075716Y-86051250D01*
X164256778Y-85863114D01*
X164406999Y-85649544D01*
X164522859Y-85415547D01*
X164601641Y-85166605D01*
X164641500Y-84908555D01*
X164641500Y-83812823D01*
X164626516Y-83617656D01*
X164567021Y-83363414D01*
X164567018Y-83363406D01*
X164469418Y-83121241D01*
X164469413Y-83121232D01*
X164401618Y-83007197D01*
X164335982Y-82896792D01*
X164169852Y-82695348D01*
X164169849Y-82695345D01*
X163974928Y-82521631D01*
X163974911Y-82521618D01*
X163755757Y-82379695D01*
X163755753Y-82379694D01*
X163517488Y-82272881D01*
X163265714Y-82203693D01*
X163092946Y-82183748D01*
X163006325Y-82173748D01*
X163006324Y-82173748D01*
X162745406Y-82183748D01*
X162489071Y-82233462D01*
X162489069Y-82233462D01*
X162243336Y-82321718D01*
X162013939Y-82446461D01*
X161806288Y-82604746D01*
X161806284Y-82604749D01*
X161806284Y-82604750D01*
X161718858Y-82695592D01*
X161625223Y-82792885D01*
X161625214Y-82792895D01*
X161475010Y-83006441D01*
X161474999Y-83006460D01*
X161359139Y-83240455D01*
X161283842Y-83478388D01*
X161280359Y-83489395D01*
X161240500Y-83747445D01*
X161240500Y-84843177D01*
X158484500Y-84843177D01*
X158484500Y-80290321D01*
X158501113Y-80228321D01*
X158561179Y-80124284D01*
X158619674Y-79944256D01*
X158639460Y-79756000D01*
X158619674Y-79567744D01*
X158561179Y-79387716D01*
X158466533Y-79223784D01*
X158339871Y-79083112D01*
X158290042Y-79046909D01*
X158186734Y-78971851D01*
X158186729Y-78971848D01*
X158013807Y-78894857D01*
X158013802Y-78894855D01*
X157868001Y-78863865D01*
X157828646Y-78855500D01*
X157639354Y-78855500D01*
X157606897Y-78862398D01*
X157454197Y-78894855D01*
X157454192Y-78894857D01*
X157281270Y-78971848D01*
X157281265Y-78971851D01*
X157128129Y-79083111D01*
X157001466Y-79223785D01*
X156906821Y-79387715D01*
X156906818Y-79387722D01*
X156862491Y-79524148D01*
X156848326Y-79567744D01*
X156828540Y-79756000D01*
X156848326Y-79944256D01*
X156848327Y-79944259D01*
X156906818Y-80124277D01*
X156906821Y-80124284D01*
X156966887Y-80228321D01*
X156983500Y-80290321D01*
X156983500Y-108431677D01*
X156966887Y-108493677D01*
X156906821Y-108597714D01*
X156848327Y-108777740D01*
X156848326Y-108777744D01*
X156828540Y-108966000D01*
X154556500Y-108966000D01*
X154556500Y-87627009D01*
X154556500Y-87627000D01*
X154544947Y-87519544D01*
X154533741Y-87468033D01*
X154533637Y-87467722D01*
X154499616Y-87365502D01*
X154499613Y-87365496D01*
X154421828Y-87244462D01*
X154421825Y-87244457D01*
X154414737Y-87236277D01*
X154376076Y-87191659D01*
X154376072Y-87191656D01*
X154376070Y-87191653D01*
X154267336Y-87097433D01*
X154267333Y-87097431D01*
X154267331Y-87097430D01*
X154136465Y-87037664D01*
X154136460Y-87037662D01*
X154136459Y-87037662D01*
X154113858Y-87031025D01*
X154069425Y-87017978D01*
X154069419Y-87017976D01*
X153983966Y-87005690D01*
X153927000Y-86997500D01*
X152270000Y-86997500D01*
X152269991Y-86997500D01*
X152269990Y-86997501D01*
X152162549Y-87009052D01*
X152162537Y-87009054D01*
X152111027Y-87020260D01*
X152008502Y-87054383D01*
X152008496Y-87054386D01*
X151887462Y-87132171D01*
X151887451Y-87132179D01*
X151834659Y-87177923D01*
X151740433Y-87286664D01*
X151740430Y-87286668D01*
X151680664Y-87417534D01*
X151660978Y-87484575D01*
X151660976Y-87484580D01*
X151644595Y-87598516D01*
X151640500Y-87627000D01*
X151640500Y-88903000D01*
X151640501Y-88903009D01*
X151652052Y-89010450D01*
X151652054Y-89010462D01*
X151663260Y-89061972D01*
X151697383Y-89164497D01*
X151697386Y-89164503D01*
X151775171Y-89285537D01*
X151775179Y-89285548D01*
X151820923Y-89338340D01*
X151820926Y-89338343D01*
X151820930Y-89338347D01*
X151929664Y-89432567D01*
X151929667Y-89432568D01*
X151929668Y-89432569D01*
X151978887Y-89455047D01*
X152060541Y-89492338D01*
X152061311Y-89492564D01*
X152061539Y-89492711D01*
X152064685Y-89493884D01*
X152064429Y-89494568D01*
X152120089Y-89530338D01*
X152149114Y-89593894D01*
X152150375Y-89611142D01*
X152173536Y-96814181D01*
X152154067Y-96881284D01*
X152101411Y-96927208D01*
X152099974Y-96927859D01*
X151947267Y-96995850D01*
X151947265Y-96995851D01*
X151794129Y-97107111D01*
X151667466Y-97247785D01*
X151572821Y-97411715D01*
X151572818Y-97411722D01*
X151525241Y-97558151D01*
X151514326Y-97591744D01*
X151494540Y-97780000D01*
X151514326Y-97968256D01*
X151514327Y-97968259D01*
X151572818Y-98148277D01*
X151572821Y-98148284D01*
X151667467Y-98312216D01*
X151774759Y-98431375D01*
X151794129Y-98452888D01*
X151947265Y-98564148D01*
X151947270Y-98564151D01*
X152106190Y-98634908D01*
X152159427Y-98680158D01*
X152179748Y-98747007D01*
X152179753Y-98747788D01*
X152229043Y-114076907D01*
X152209574Y-114144010D01*
X152156918Y-114189934D01*
X152130830Y-114198595D01*
X152120199Y-114200855D01*
X152120192Y-114200857D01*
X151947270Y-114277848D01*
X151947265Y-114277851D01*
X151794129Y-114389111D01*
X151667466Y-114529785D01*
X151572821Y-114693715D01*
X151572818Y-114693722D01*
X151514327Y-114873740D01*
X151514326Y-114873744D01*
X151494540Y-115062000D01*
X151514326Y-115250256D01*
X151514327Y-115250259D01*
X151572818Y-115430277D01*
X151572821Y-115430284D01*
X151667467Y-115594216D01*
X151779271Y-115718387D01*
X151794129Y-115734888D01*
X151947265Y-115846148D01*
X151947270Y-115846151D01*
X152120191Y-115923142D01*
X152120194Y-115923143D01*
X152120195Y-115923143D01*
X152120197Y-115923144D01*
X152137159Y-115926749D01*
X152198640Y-115959938D01*
X152232418Y-116021100D01*
X152235379Y-116047640D01*
X152236903Y-116521156D01*
X152237471Y-116537304D01*
X152239083Y-116561273D01*
X152240378Y-116574314D01*
X152240397Y-116598620D01*
X152239442Y-116608404D01*
X152237832Y-116633577D01*
X152237832Y-116633578D01*
X152237318Y-116650526D01*
X152242763Y-118343656D01*
X152243456Y-118363399D01*
X152243465Y-118367453D01*
X152242899Y-118386140D01*
X152273471Y-127894100D01*
X152254002Y-127961203D01*
X152201346Y-128007127D01*
X152149472Y-128018499D01*
X150492010Y-128018499D01*
X150491990Y-128018501D01*
X150384541Y-128030053D01*
X150382306Y-128030415D01*
X150381785Y-128030349D01*
X150381242Y-128030408D01*
X150381228Y-128030279D01*
X150312983Y-128021691D01*
X150259381Y-127976874D01*
X150238518Y-127910191D01*
X150238499Y-127908007D01*
X150238499Y-89151001D01*
X150238499Y-89151000D01*
X150226948Y-89043553D01*
X150215743Y-88992042D01*
X150181613Y-88889496D01*
X150103825Y-88768457D01*
X150103820Y-88768451D01*
X150058076Y-88715659D01*
X150058072Y-88715656D01*
X150058070Y-88715653D01*
X149949336Y-88621433D01*
X149949333Y-88621431D01*
X149949331Y-88621430D01*
X149818465Y-88561664D01*
X149818460Y-88561662D01*
X149818459Y-88561662D01*
X149795858Y-88555025D01*
X149751425Y-88541978D01*
X149751419Y-88541976D01*
X149665966Y-88529690D01*
X149609000Y-88521500D01*
X147571000Y-88521500D01*
X147570991Y-88521500D01*
X147570990Y-88521501D01*
X147463549Y-88533052D01*
X147463537Y-88533054D01*
X147412027Y-88544260D01*
X147309502Y-88578383D01*
X147309496Y-88578386D01*
X147188462Y-88656171D01*
X147188451Y-88656179D01*
X147135659Y-88701923D01*
X147041433Y-88810664D01*
X147041430Y-88810668D01*
X146981664Y-88941534D01*
X146961978Y-89008575D01*
X146961976Y-89008580D01*
X146954301Y-89061967D01*
X146941501Y-89150997D01*
X146941500Y-89151001D01*
X146941500Y-89151002D01*
X146941499Y-90355272D01*
X146953738Y-90465831D01*
X146953739Y-90465832D01*
X146953740Y-90465839D01*
X146965604Y-90518767D01*
X146982998Y-90569425D01*
X147001725Y-90623965D01*
X147001726Y-90623966D01*
X147081030Y-90744017D01*
X147081029Y-90744017D01*
X147127448Y-90796243D01*
X147127448Y-90796242D01*
X147127450Y-90796244D01*
X147237366Y-90889088D01*
X147867474Y-91282905D01*
X147899220Y-91302746D01*
X147945636Y-91354969D01*
X147957500Y-91407898D01*
X147957500Y-100575500D01*
X147937815Y-100642539D01*
X147885011Y-100688294D01*
X147833500Y-100699500D01*
X147733354Y-100699500D01*
X147700897Y-100706398D01*
X147548197Y-100738855D01*
X147548192Y-100738857D01*
X147375270Y-100815848D01*
X147375265Y-100815851D01*
X147222129Y-100927111D01*
X147095466Y-101067785D01*
X147000821Y-101231715D01*
X147000818Y-101231722D01*
X146952910Y-101379170D01*
X146942326Y-101411744D01*
X146922540Y-101600000D01*
X146942326Y-101788256D01*
X146942327Y-101788259D01*
X147000818Y-101968277D01*
X147000821Y-101968284D01*
X147095467Y-102132216D01*
X147181989Y-102228308D01*
X147222129Y-102272888D01*
X147375265Y-102384148D01*
X147375270Y-102384151D01*
X147548191Y-102461142D01*
X147548193Y-102461142D01*
X147548197Y-102461144D01*
X147613329Y-102474987D01*
X147674809Y-102508178D01*
X147675228Y-102508596D01*
X147921181Y-102754549D01*
X147954666Y-102815872D01*
X147957500Y-102842230D01*
X147957500Y-118505500D01*
X147937815Y-118572539D01*
X147885011Y-118618294D01*
X147833500Y-118629500D01*
X147605337Y-118629500D01*
X147538298Y-118609815D01*
X147532452Y-118605818D01*
X147518734Y-118595851D01*
X147518729Y-118595848D01*
X147345807Y-118518857D01*
X147345802Y-118518855D01*
X147200001Y-118487865D01*
X147160646Y-118479500D01*
X146971354Y-118479500D01*
X146938897Y-118486398D01*
X146786197Y-118518855D01*
X146786192Y-118518857D01*
X146613270Y-118595848D01*
X146613265Y-118595851D01*
X146460129Y-118707111D01*
X146333466Y-118847785D01*
X146238821Y-119011715D01*
X146238818Y-119011722D01*
X146180327Y-119191740D01*
X146180326Y-119191744D01*
X146160540Y-119380000D01*
X132209123Y-119380000D01*
X132136859Y-119254835D01*
X132102348Y-119216507D01*
X132072119Y-119153517D01*
X132070499Y-119133548D01*
X132070499Y-117856000D01*
X143543815Y-117856000D01*
X143562503Y-118033805D01*
X143562504Y-118033807D01*
X143617747Y-118203829D01*
X143617750Y-118203835D01*
X143707141Y-118358665D01*
X143728091Y-118381932D01*
X143826764Y-118491521D01*
X143826767Y-118491523D01*
X143826770Y-118491526D01*
X143971407Y-118596612D01*
X144134733Y-118669329D01*
X144309609Y-118706500D01*
X144309610Y-118706500D01*
X144488389Y-118706500D01*
X144488391Y-118706500D01*
X144663267Y-118669329D01*
X144826593Y-118596612D01*
X144971230Y-118491526D01*
X144982059Y-118479500D01*
X144999454Y-118460180D01*
X145090859Y-118358665D01*
X145180250Y-118203835D01*
X145235497Y-118033803D01*
X145254185Y-117856000D01*
X145235497Y-117678197D01*
X145180250Y-117508165D01*
X145090859Y-117353335D01*
X145072029Y-117332422D01*
X145056349Y-117315007D01*
X145026120Y-117252015D01*
X145024500Y-117232036D01*
X145024500Y-78689462D01*
X145044185Y-78622423D01*
X145056351Y-78606489D01*
X145090859Y-78568165D01*
X145180250Y-78413335D01*
X145235497Y-78243303D01*
X145254185Y-78065500D01*
X145235497Y-77887697D01*
X145198231Y-77773004D01*
X145196236Y-77703163D01*
X145232316Y-77643330D01*
X145295017Y-77612502D01*
X145356427Y-77617405D01*
X145374386Y-77623571D01*
X145619665Y-77664500D01*
X145868335Y-77664500D01*
X146113614Y-77623571D01*
X146348810Y-77542828D01*
X146567509Y-77424474D01*
X146763744Y-77271738D01*
X146932164Y-77088785D01*
X147068173Y-76880607D01*
X147168063Y-76652881D01*
X147173793Y-76630250D01*
X147209334Y-76570094D01*
X147271754Y-76538702D01*
X147341237Y-76546040D01*
X147395723Y-76589779D01*
X147414206Y-76630250D01*
X147419937Y-76652881D01*
X147519826Y-76880606D01*
X147655833Y-77088782D01*
X147655836Y-77088785D01*
X147824256Y-77271738D01*
X148020491Y-77424474D01*
X148239190Y-77542828D01*
X148474386Y-77623571D01*
X148719665Y-77664500D01*
X148968335Y-77664500D01*
X149213614Y-77623571D01*
X149448810Y-77542828D01*
X149667509Y-77424474D01*
X149863744Y-77271738D01*
X150032164Y-77088785D01*
X150168173Y-76880607D01*
X150268063Y-76652881D01*
X150329108Y-76411821D01*
X150345183Y-76217824D01*
X150349643Y-76164005D01*
X153838357Y-76164005D01*
X153858890Y-76411812D01*
X153858892Y-76411824D01*
X153919936Y-76652881D01*
X154019826Y-76880606D01*
X154155833Y-77088782D01*
X154155836Y-77088785D01*
X154324256Y-77271738D01*
X154520491Y-77424474D01*
X154739190Y-77542828D01*
X154974386Y-77623571D01*
X155219665Y-77664500D01*
X155468335Y-77664500D01*
X155713614Y-77623571D01*
X155948810Y-77542828D01*
X156167509Y-77424474D01*
X156363744Y-77271738D01*
X156532164Y-77088785D01*
X156668173Y-76880607D01*
X156768063Y-76652881D01*
X156829108Y-76411821D01*
X156845183Y-76217824D01*
X156849643Y-76164005D01*
X156849643Y-76163994D01*
X156829109Y-75916187D01*
X156829107Y-75916175D01*
X156768063Y-75675118D01*
X156668173Y-75447393D01*
X156532166Y-75239217D01*
X156466903Y-75168323D01*
X156363744Y-75056262D01*
X156288585Y-74997763D01*
X160451787Y-74997763D01*
X160481413Y-75267013D01*
X160481415Y-75267024D01*
X160549926Y-75529082D01*
X160549928Y-75529088D01*
X160655870Y-75778390D01*
X160759528Y-75948239D01*
X160796979Y-76009605D01*
X160796986Y-76009615D01*
X160970253Y-76217819D01*
X160970259Y-76217824D01*
X161171998Y-76398582D01*
X161397910Y-76548044D01*
X161643176Y-76663020D01*
X161643183Y-76663022D01*
X161643185Y-76663023D01*
X161902557Y-76741057D01*
X161902564Y-76741058D01*
X161902569Y-76741060D01*
X162170561Y-76780500D01*
X162170566Y-76780500D01*
X162373636Y-76780500D01*
X162425133Y-76776730D01*
X162576156Y-76765677D01*
X162689794Y-76740363D01*
X162840546Y-76706782D01*
X162840548Y-76706781D01*
X162840553Y-76706780D01*
X163093558Y-76610014D01*
X163329777Y-76477441D01*
X163544177Y-76311888D01*
X163732186Y-76116881D01*
X163889799Y-75896579D01*
X163992024Y-75697750D01*
X164013649Y-75655690D01*
X164013651Y-75655684D01*
X164013656Y-75655675D01*
X164101118Y-75399305D01*
X164150319Y-75132933D01*
X164160212Y-74862235D01*
X164130586Y-74592982D01*
X164062072Y-74330912D01*
X163956130Y-74081610D01*
X163815018Y-73850390D01*
X163725747Y-73743119D01*
X163641746Y-73642180D01*
X163641740Y-73642175D01*
X163440002Y-73461418D01*
X163214092Y-73311957D01*
X163181578Y-73296715D01*
X162968824Y-73196980D01*
X162968819Y-73196978D01*
X162968814Y-73196976D01*
X162709442Y-73118942D01*
X162709428Y-73118939D01*
X162582019Y-73100189D01*
X162441439Y-73079500D01*
X162238369Y-73079500D01*
X162238364Y-73079500D01*
X162035844Y-73094323D01*
X162035831Y-73094325D01*
X161771453Y-73153217D01*
X161771446Y-73153220D01*
X161518439Y-73249987D01*
X161282226Y-73382557D01*
X161067822Y-73548112D01*
X160879822Y-73743109D01*
X160879816Y-73743116D01*
X160722202Y-73963419D01*
X160722199Y-73963424D01*
X160598350Y-74204309D01*
X160598343Y-74204327D01*
X160510884Y-74460685D01*
X160510882Y-74460695D01*
X160465863Y-74704429D01*
X160461681Y-74727068D01*
X160461680Y-74727075D01*
X160451787Y-74997763D01*
X156288585Y-74997763D01*
X156167509Y-74903526D01*
X156167507Y-74903525D01*
X156167506Y-74903524D01*
X155948811Y-74785172D01*
X155948802Y-74785169D01*
X155713616Y-74704429D01*
X155468335Y-74663500D01*
X155219665Y-74663500D01*
X154974383Y-74704429D01*
X154739197Y-74785169D01*
X154739188Y-74785172D01*
X154520493Y-74903524D01*
X154324257Y-75056261D01*
X154155833Y-75239217D01*
X154019826Y-75447393D01*
X153919936Y-75675118D01*
X153858892Y-75916175D01*
X153858890Y-75916187D01*
X153838357Y-76163994D01*
X153838357Y-76164005D01*
X150349643Y-76164005D01*
X150349643Y-76163994D01*
X150329109Y-75916187D01*
X150329107Y-75916175D01*
X150268063Y-75675118D01*
X150168173Y-75447393D01*
X150032166Y-75239217D01*
X149966903Y-75168323D01*
X149863744Y-75056262D01*
X149667509Y-74903526D01*
X149667507Y-74903525D01*
X149667506Y-74903524D01*
X149448811Y-74785172D01*
X149448802Y-74785169D01*
X149213616Y-74704429D01*
X148968335Y-74663500D01*
X148719665Y-74663500D01*
X148474383Y-74704429D01*
X148239197Y-74785169D01*
X148239188Y-74785172D01*
X148020493Y-74903524D01*
X147824257Y-75056261D01*
X147655833Y-75239217D01*
X147519826Y-75447393D01*
X147419935Y-75675122D01*
X147419935Y-75675123D01*
X147414205Y-75697750D01*
X147378666Y-75757906D01*
X147316245Y-75789297D01*
X147246762Y-75781959D01*
X147192276Y-75738219D01*
X147173795Y-75697750D01*
X147168064Y-75675123D01*
X147168064Y-75675122D01*
X147168062Y-75675118D01*
X147068173Y-75447393D01*
X147053724Y-75425277D01*
X146932166Y-75239217D01*
X146866903Y-75168323D01*
X146763744Y-75056262D01*
X146567509Y-74903526D01*
X146567507Y-74903525D01*
X146567506Y-74903524D01*
X146348811Y-74785172D01*
X146348802Y-74785169D01*
X146113616Y-74704429D01*
X145868335Y-74663500D01*
X145619665Y-74663500D01*
X145374383Y-74704429D01*
X145139197Y-74785169D01*
X145139188Y-74785172D01*
X144920493Y-74903524D01*
X144724257Y-75056261D01*
X144555833Y-75239217D01*
X144419826Y-75447393D01*
X144319936Y-75675118D01*
X144258892Y-75916175D01*
X144258890Y-75916187D01*
X144238357Y-76163994D01*
X144238357Y-76164005D01*
X144258890Y-76411812D01*
X144258892Y-76411824D01*
X144319936Y-76652881D01*
X144419826Y-76880606D01*
X144512973Y-77023179D01*
X144533161Y-77090068D01*
X144513980Y-77157254D01*
X144461521Y-77203404D01*
X144409164Y-77215000D01*
X144309609Y-77215000D01*
X144278954Y-77221515D01*
X144134733Y-77252170D01*
X144134728Y-77252172D01*
X143971408Y-77324887D01*
X143826768Y-77429975D01*
X143707140Y-77562836D01*
X143617750Y-77717664D01*
X143617747Y-77717670D01*
X143562504Y-77887692D01*
X143562503Y-77887694D01*
X143543815Y-78065500D01*
X143562503Y-78243305D01*
X143562504Y-78243307D01*
X143617747Y-78413329D01*
X143617750Y-78413335D01*
X143707141Y-78568165D01*
X143741649Y-78606489D01*
X143771879Y-78669480D01*
X143773500Y-78689462D01*
X143773500Y-117232036D01*
X143753815Y-117299075D01*
X143741651Y-117315007D01*
X143707140Y-117353336D01*
X143617750Y-117508164D01*
X143617747Y-117508170D01*
X143562504Y-117678192D01*
X143562503Y-117678194D01*
X143543815Y-117856000D01*
X132070499Y-117856000D01*
X132070500Y-112675461D01*
X132090185Y-112608423D01*
X132102351Y-112592489D01*
X132136859Y-112554165D01*
X132226250Y-112399335D01*
X132281497Y-112229303D01*
X132300185Y-112051500D01*
X132281497Y-111873697D01*
X132226250Y-111703665D01*
X132136859Y-111548835D01*
X132118029Y-111527922D01*
X132102349Y-111510507D01*
X132072120Y-111447515D01*
X132070500Y-111427536D01*
X132070500Y-110710952D01*
X132090185Y-110643913D01*
X132106819Y-110623271D01*
X133547951Y-109182139D01*
X135003788Y-107726301D01*
X135016042Y-107716486D01*
X135015859Y-107716264D01*
X135021866Y-107711292D01*
X135021877Y-107711286D01*
X135056316Y-107674612D01*
X135069227Y-107660864D01*
X135079671Y-107650418D01*
X135090120Y-107639971D01*
X135094379Y-107634478D01*
X135098152Y-107630061D01*
X135130062Y-107596082D01*
X135139715Y-107578520D01*
X135150389Y-107562270D01*
X135162673Y-107546436D01*
X135181180Y-107503667D01*
X135183749Y-107498424D01*
X135202591Y-107464151D01*
X135206197Y-107457592D01*
X135211177Y-107438191D01*
X135217478Y-107419788D01*
X135225438Y-107401396D01*
X135232730Y-107355349D01*
X135233911Y-107349652D01*
X135235631Y-107342953D01*
X135245500Y-107304519D01*
X135245500Y-107284482D01*
X135247027Y-107265082D01*
X135247745Y-107260550D01*
X135250160Y-107245304D01*
X135245775Y-107198915D01*
X135245599Y-107195177D01*
X138126500Y-107195177D01*
X138138799Y-107355377D01*
X138141484Y-107390342D01*
X138141484Y-107390347D01*
X138200978Y-107644583D01*
X138200981Y-107644593D01*
X138298581Y-107886758D01*
X138298586Y-107886767D01*
X138340963Y-107958047D01*
X138432018Y-108111208D01*
X138580705Y-108291501D01*
X138598150Y-108312654D01*
X138793071Y-108486368D01*
X138793088Y-108486381D01*
X139012242Y-108628304D01*
X139012245Y-108628304D01*
X139012247Y-108628306D01*
X139250511Y-108735118D01*
X139502287Y-108804307D01*
X139761675Y-108834252D01*
X140022593Y-108824251D01*
X140278927Y-108774538D01*
X140278930Y-108774537D01*
X140524663Y-108686281D01*
X140524664Y-108686280D01*
X140524668Y-108686279D01*
X140754057Y-108561541D01*
X140961716Y-108403250D01*
X141142778Y-108215114D01*
X141292999Y-108001544D01*
X141408859Y-107767547D01*
X141487641Y-107518605D01*
X141527500Y-107260555D01*
X141527500Y-106164823D01*
X141512516Y-105969656D01*
X141453021Y-105715414D01*
X141443897Y-105692775D01*
X141355418Y-105473241D01*
X141355413Y-105473232D01*
X141263464Y-105318568D01*
X141221982Y-105248792D01*
X141055852Y-105047348D01*
X141055849Y-105047345D01*
X140860928Y-104873631D01*
X140860911Y-104873618D01*
X140641757Y-104731695D01*
X140641753Y-104731694D01*
X140403488Y-104624881D01*
X140151714Y-104555693D01*
X139978946Y-104535748D01*
X139892325Y-104525748D01*
X139892324Y-104525748D01*
X139631406Y-104535748D01*
X139375071Y-104585462D01*
X139375069Y-104585462D01*
X139129336Y-104673718D01*
X138899939Y-104798461D01*
X138692288Y-104956746D01*
X138692284Y-104956749D01*
X138692284Y-104956750D01*
X138605093Y-105047348D01*
X138511223Y-105144885D01*
X138511214Y-105144895D01*
X138361010Y-105358441D01*
X138360999Y-105358460D01*
X138245139Y-105592455D01*
X138170778Y-105827431D01*
X138166359Y-105841395D01*
X138126500Y-106099445D01*
X138126500Y-107195177D01*
X135245599Y-107195177D01*
X135245500Y-107193077D01*
X135245500Y-97798500D01*
X135265185Y-97731461D01*
X135317989Y-97685706D01*
X135369500Y-97674500D01*
X135476644Y-97674500D01*
X135476646Y-97674500D01*
X135661803Y-97635144D01*
X135834730Y-97558151D01*
X135834733Y-97558148D01*
X135840363Y-97554899D01*
X135841904Y-97557569D01*
X135894948Y-97538415D01*
X135963062Y-97553980D01*
X136011948Y-97603900D01*
X136026500Y-97662185D01*
X136026500Y-98469453D01*
X136006815Y-98536492D01*
X135975386Y-98569771D01*
X135825768Y-98678475D01*
X135706140Y-98811336D01*
X135616750Y-98966164D01*
X135616747Y-98966170D01*
X135561504Y-99136192D01*
X135561503Y-99136194D01*
X135542815Y-99313999D01*
X135561503Y-99491805D01*
X135561504Y-99491807D01*
X135616747Y-99661829D01*
X135616750Y-99661835D01*
X135706141Y-99816665D01*
X135732747Y-99846214D01*
X135825764Y-99949521D01*
X135825767Y-99949523D01*
X135825770Y-99949526D01*
X135970407Y-100054612D01*
X136133733Y-100127329D01*
X136308609Y-100164500D01*
X136308610Y-100164500D01*
X136487389Y-100164500D01*
X136487391Y-100164500D01*
X136662267Y-100127329D01*
X136825593Y-100054612D01*
X136970230Y-99949526D01*
X136970232Y-99949523D01*
X136972614Y-99947793D01*
X137038420Y-99924313D01*
X137106474Y-99940138D01*
X137155169Y-99990243D01*
X137169500Y-100048111D01*
X137169500Y-100214036D01*
X137149815Y-100281075D01*
X137137651Y-100297007D01*
X137103140Y-100335336D01*
X137013750Y-100490164D01*
X137013747Y-100490170D01*
X136958504Y-100660192D01*
X136958503Y-100660194D01*
X136939815Y-100838000D01*
X136958503Y-101015805D01*
X136958504Y-101015807D01*
X137013747Y-101185829D01*
X137013750Y-101185835D01*
X137103141Y-101340665D01*
X137128292Y-101368598D01*
X137222764Y-101473521D01*
X137222767Y-101473523D01*
X137222770Y-101473526D01*
X137367407Y-101578612D01*
X137530733Y-101651329D01*
X137705609Y-101688500D01*
X137705610Y-101688500D01*
X137884389Y-101688500D01*
X137884391Y-101688500D01*
X138059267Y-101651329D01*
X138222593Y-101578612D01*
X138367230Y-101473526D01*
X138378356Y-101461170D01*
X138393148Y-101444741D01*
X138486859Y-101340665D01*
X138576250Y-101185835D01*
X138631497Y-101015803D01*
X138650185Y-100838000D01*
X138631497Y-100660197D01*
X138576250Y-100490165D01*
X138486859Y-100335335D01*
X138467689Y-100314045D01*
X138452349Y-100297007D01*
X138422120Y-100234015D01*
X138420500Y-100214036D01*
X138420500Y-98098997D01*
X138440185Y-98031958D01*
X138492989Y-97986203D01*
X138562147Y-97976259D01*
X138596904Y-97986614D01*
X138728337Y-98047903D01*
X138956592Y-98109063D01*
X139144918Y-98125539D01*
X139191999Y-98129659D01*
X139192000Y-98129659D01*
X139192001Y-98129659D01*
X139231234Y-98126226D01*
X139427408Y-98109063D01*
X139655663Y-98047903D01*
X139869830Y-97948035D01*
X140063401Y-97812495D01*
X140230495Y-97645401D01*
X140366035Y-97451830D01*
X140465903Y-97237663D01*
X140527063Y-97009408D01*
X140547659Y-96774000D01*
X140527063Y-96538592D01*
X140465903Y-96310337D01*
X140366035Y-96096171D01*
X140357959Y-96084636D01*
X140230494Y-95902597D01*
X140063402Y-95735506D01*
X140063396Y-95735501D01*
X139877842Y-95605575D01*
X139834217Y-95550998D01*
X139827023Y-95481500D01*
X139858546Y-95419145D01*
X139877842Y-95402425D01*
X139961517Y-95343835D01*
X140063401Y-95272495D01*
X140230495Y-95105401D01*
X140366035Y-94911830D01*
X140465903Y-94697663D01*
X140527063Y-94469408D01*
X140547659Y-94234000D01*
X140527063Y-93998592D01*
X140465903Y-93770337D01*
X140366035Y-93556171D01*
X140342674Y-93522807D01*
X140230494Y-93362597D01*
X140063402Y-93195506D01*
X140063396Y-93195501D01*
X139877842Y-93065575D01*
X139834217Y-93010998D01*
X139827023Y-92941500D01*
X139858546Y-92879145D01*
X139877842Y-92862425D01*
X140040112Y-92748802D01*
X140063401Y-92732495D01*
X140230495Y-92565401D01*
X140366035Y-92371830D01*
X140465903Y-92157663D01*
X140527063Y-91929408D01*
X140547659Y-91694000D01*
X140527063Y-91458592D01*
X140465903Y-91230337D01*
X140445228Y-91186000D01*
X141765815Y-91186000D01*
X141784503Y-91363805D01*
X141784504Y-91363807D01*
X141839747Y-91533829D01*
X141839750Y-91533835D01*
X141929141Y-91688665D01*
X141942875Y-91703918D01*
X142048764Y-91821521D01*
X142048767Y-91821523D01*
X142048770Y-91821526D01*
X142193407Y-91926612D01*
X142356733Y-91999329D01*
X142531609Y-92036500D01*
X142531610Y-92036500D01*
X142710389Y-92036500D01*
X142710391Y-92036500D01*
X142885267Y-91999329D01*
X143048593Y-91926612D01*
X143193230Y-91821526D01*
X143196955Y-91817390D01*
X143242218Y-91767119D01*
X143312859Y-91688665D01*
X143402250Y-91533835D01*
X143457497Y-91363803D01*
X143476185Y-91186000D01*
X143457497Y-91008197D01*
X143402250Y-90838165D01*
X143312859Y-90683335D01*
X143294029Y-90662422D01*
X143278349Y-90645007D01*
X143248120Y-90582015D01*
X143246500Y-90562036D01*
X143246500Y-76787962D01*
X143266185Y-76720923D01*
X143278351Y-76704989D01*
X143312859Y-76666665D01*
X143402250Y-76511835D01*
X143457497Y-76341803D01*
X143476185Y-76164000D01*
X143457497Y-75986197D01*
X143428377Y-75896575D01*
X143402252Y-75816170D01*
X143402249Y-75816164D01*
X143312859Y-75661335D01*
X143247921Y-75589214D01*
X143193235Y-75528478D01*
X143193232Y-75528476D01*
X143193231Y-75528475D01*
X143193230Y-75528474D01*
X143048593Y-75423388D01*
X142885267Y-75350671D01*
X142885265Y-75350670D01*
X142757594Y-75323533D01*
X142710391Y-75313500D01*
X142531609Y-75313500D01*
X142513680Y-75317311D01*
X142356733Y-75350670D01*
X142356728Y-75350672D01*
X142193408Y-75423387D01*
X142048768Y-75528475D01*
X141929140Y-75661336D01*
X141839750Y-75816164D01*
X141839747Y-75816170D01*
X141784504Y-75986192D01*
X141784503Y-75986194D01*
X141765815Y-76163999D01*
X141784503Y-76341805D01*
X141784504Y-76341807D01*
X141839747Y-76511829D01*
X141839750Y-76511835D01*
X141929141Y-76666665D01*
X141963649Y-76704989D01*
X141993879Y-76767980D01*
X141995500Y-76787962D01*
X141995500Y-90562036D01*
X141975815Y-90629075D01*
X141963651Y-90645007D01*
X141929140Y-90683336D01*
X141839750Y-90838164D01*
X141839747Y-90838170D01*
X141784504Y-91008192D01*
X141784503Y-91008194D01*
X141765815Y-91186000D01*
X140445228Y-91186000D01*
X140366035Y-91016171D01*
X140364974Y-91014655D01*
X140230494Y-90822597D01*
X140063402Y-90655506D01*
X140063395Y-90655501D01*
X140036200Y-90636459D01*
X140018356Y-90623964D01*
X139869834Y-90519967D01*
X139869830Y-90519965D01*
X139756270Y-90467011D01*
X139655663Y-90420097D01*
X139655659Y-90420096D01*
X139655655Y-90420094D01*
X139427413Y-90358938D01*
X139427403Y-90358936D01*
X139192001Y-90338341D01*
X139191999Y-90338341D01*
X138956596Y-90358936D01*
X138956586Y-90358938D01*
X138728344Y-90420094D01*
X138728335Y-90420098D01*
X138514171Y-90519964D01*
X138514169Y-90519965D01*
X138320597Y-90655505D01*
X138153505Y-90822597D01*
X138017965Y-91016169D01*
X138017964Y-91016171D01*
X137918098Y-91230335D01*
X137918094Y-91230344D01*
X137856938Y-91458586D01*
X137856936Y-91458596D01*
X137836341Y-91693999D01*
X137836341Y-91694000D01*
X137856936Y-91929403D01*
X137856938Y-91929413D01*
X137918094Y-92157655D01*
X137918096Y-92157659D01*
X137918097Y-92157663D01*
X137970094Y-92269170D01*
X138017965Y-92371830D01*
X138017967Y-92371834D01*
X138153501Y-92565395D01*
X138153506Y-92565402D01*
X138320597Y-92732493D01*
X138320603Y-92732498D01*
X138506158Y-92862425D01*
X138549783Y-92917002D01*
X138556977Y-92986500D01*
X138525454Y-93048855D01*
X138506158Y-93065575D01*
X138320597Y-93195505D01*
X138153505Y-93362597D01*
X138017965Y-93556169D01*
X138017964Y-93556171D01*
X137918098Y-93770335D01*
X137918094Y-93770344D01*
X137856938Y-93998586D01*
X137856936Y-93998596D01*
X137836341Y-94233999D01*
X137836341Y-94234003D01*
X137838151Y-94254694D01*
X137824384Y-94323194D01*
X137775768Y-94373376D01*
X137714623Y-94389500D01*
X137705609Y-94389500D01*
X137674954Y-94396015D01*
X137530733Y-94426670D01*
X137451935Y-94461754D01*
X137382685Y-94471038D01*
X137319409Y-94441410D01*
X137282196Y-94382275D01*
X137277500Y-94348474D01*
X137277500Y-93461547D01*
X137297185Y-93394508D01*
X137328614Y-93361229D01*
X137333591Y-93357612D01*
X137333593Y-93357612D01*
X137478230Y-93252526D01*
X137597859Y-93119665D01*
X137687250Y-92964835D01*
X137742497Y-92794803D01*
X137761185Y-92617000D01*
X137742497Y-92439197D01*
X137687250Y-92269165D01*
X137597859Y-92114335D01*
X137523923Y-92032221D01*
X137478235Y-91981478D01*
X137478232Y-91981476D01*
X137478231Y-91981475D01*
X137478230Y-91981474D01*
X137333593Y-91876388D01*
X137170267Y-91803671D01*
X137170265Y-91803670D01*
X137011090Y-91769837D01*
X136995391Y-91766500D01*
X136816609Y-91766500D01*
X136800910Y-91769837D01*
X136641733Y-91803670D01*
X136641728Y-91803672D01*
X136478408Y-91876388D01*
X136478403Y-91876390D01*
X136405763Y-91929167D01*
X136339957Y-91952647D01*
X136271903Y-91936821D01*
X136223208Y-91886716D01*
X136209333Y-91818238D01*
X136214945Y-91790535D01*
X136267674Y-91628256D01*
X136287460Y-91440000D01*
X136267674Y-91251744D01*
X136209179Y-91071716D01*
X136114533Y-90907784D01*
X135987871Y-90767112D01*
X135987870Y-90767111D01*
X135834734Y-90655851D01*
X135834729Y-90655848D01*
X135661807Y-90578857D01*
X135661802Y-90578855D01*
X135516000Y-90547865D01*
X135476646Y-90539500D01*
X135369500Y-90539500D01*
X135302461Y-90519815D01*
X135256706Y-90467011D01*
X135245500Y-90415500D01*
X135245500Y-84843177D01*
X138126500Y-84843177D01*
X138139103Y-85007337D01*
X138141484Y-85038342D01*
X138141484Y-85038347D01*
X138200978Y-85292583D01*
X138200981Y-85292593D01*
X138298581Y-85534758D01*
X138298586Y-85534767D01*
X138312270Y-85557784D01*
X138432018Y-85759208D01*
X138576715Y-85934663D01*
X138598150Y-85960654D01*
X138793071Y-86134368D01*
X138793088Y-86134381D01*
X139012242Y-86276304D01*
X139012245Y-86276304D01*
X139012247Y-86276306D01*
X139250511Y-86383118D01*
X139502287Y-86452307D01*
X139761675Y-86482252D01*
X140022593Y-86472251D01*
X140278927Y-86422538D01*
X140278930Y-86422537D01*
X140524663Y-86334281D01*
X140524664Y-86334280D01*
X140524668Y-86334279D01*
X140754057Y-86209541D01*
X140961716Y-86051250D01*
X141142778Y-85863114D01*
X141292999Y-85649544D01*
X141408859Y-85415547D01*
X141487641Y-85166605D01*
X141527500Y-84908555D01*
X141527500Y-83812823D01*
X141512516Y-83617656D01*
X141453021Y-83363414D01*
X141453018Y-83363406D01*
X141355418Y-83121241D01*
X141355413Y-83121232D01*
X141287618Y-83007197D01*
X141221982Y-82896792D01*
X141055852Y-82695348D01*
X141055849Y-82695345D01*
X140860928Y-82521631D01*
X140860911Y-82521618D01*
X140641757Y-82379695D01*
X140641753Y-82379694D01*
X140403488Y-82272881D01*
X140151714Y-82203693D01*
X139978946Y-82183748D01*
X139892325Y-82173748D01*
X139892324Y-82173748D01*
X139631406Y-82183748D01*
X139375071Y-82233462D01*
X139375069Y-82233462D01*
X139129336Y-82321718D01*
X138899939Y-82446461D01*
X138692288Y-82604746D01*
X138692284Y-82604749D01*
X138692284Y-82604750D01*
X138604858Y-82695592D01*
X138511223Y-82792885D01*
X138511214Y-82792895D01*
X138361010Y-83006441D01*
X138360999Y-83006460D01*
X138245139Y-83240455D01*
X138169842Y-83478388D01*
X138166359Y-83489395D01*
X138126500Y-83747445D01*
X138126500Y-84843177D01*
X135245500Y-84843177D01*
X135245500Y-79363962D01*
X135265185Y-79296923D01*
X135277351Y-79280989D01*
X135311859Y-79242665D01*
X135401250Y-79087835D01*
X135456497Y-78917803D01*
X135475185Y-78740000D01*
X135456497Y-78562197D01*
X135401250Y-78392165D01*
X135311859Y-78237335D01*
X135265003Y-78185296D01*
X135192235Y-78104478D01*
X135192232Y-78104476D01*
X135192231Y-78104475D01*
X135192230Y-78104474D01*
X135047593Y-77999388D01*
X134884267Y-77926671D01*
X134884265Y-77926670D01*
X134756594Y-77899533D01*
X134709391Y-77889500D01*
X134530609Y-77889500D01*
X134499954Y-77896015D01*
X134355733Y-77926670D01*
X134355728Y-77926672D01*
X134192408Y-77999387D01*
X134047768Y-78104475D01*
X133928140Y-78237336D01*
X133838750Y-78392164D01*
X133838747Y-78392170D01*
X133783504Y-78562192D01*
X133783503Y-78562194D01*
X133764815Y-78740000D01*
X133783503Y-78917805D01*
X133783504Y-78917807D01*
X133838747Y-79087829D01*
X133838750Y-79087835D01*
X133928141Y-79242665D01*
X133949113Y-79265956D01*
X133962649Y-79280990D01*
X133992879Y-79343981D01*
X133994499Y-79363962D01*
X133994499Y-106915046D01*
X133974814Y-106982085D01*
X133958180Y-107002727D01*
X131103275Y-109857632D01*
X131041952Y-109891117D01*
X130972260Y-109886133D01*
X130916327Y-109844261D01*
X130908206Y-109831950D01*
X130907533Y-109830784D01*
X130780871Y-109690112D01*
X130780870Y-109690111D01*
X130627734Y-109578851D01*
X130627729Y-109578848D01*
X130454807Y-109501857D01*
X130454802Y-109501855D01*
X130298641Y-109468663D01*
X130269646Y-109462500D01*
X130080354Y-109462500D01*
X130051359Y-109468663D01*
X129895197Y-109501855D01*
X129895192Y-109501857D01*
X129722270Y-109578848D01*
X129722265Y-109578851D01*
X129569129Y-109690111D01*
X129442466Y-109830785D01*
X129347821Y-109994715D01*
X129347818Y-109994722D01*
X129289406Y-110174497D01*
X129289326Y-110174744D01*
X129269540Y-110363000D01*
X129289326Y-110551256D01*
X129289327Y-110551259D01*
X129347818Y-110731277D01*
X129347820Y-110731281D01*
X129347821Y-110731284D01*
X129381197Y-110789093D01*
X129407887Y-110835322D01*
X129424499Y-110897321D01*
X129424500Y-118151023D01*
X129404815Y-118218062D01*
X129352011Y-118263817D01*
X129282853Y-118273761D01*
X129219297Y-118244736D01*
X129208350Y-118233995D01*
X129096235Y-118109478D01*
X129096232Y-118109476D01*
X129096231Y-118109475D01*
X129096230Y-118109474D01*
X128951593Y-118004388D01*
X128842061Y-117955621D01*
X128788826Y-117910372D01*
X128768505Y-117843523D01*
X128768500Y-117842539D01*
X128768500Y-116138048D01*
X128788185Y-116071008D01*
X128819622Y-116037724D01*
X128822548Y-116035599D01*
X128942177Y-115902738D01*
X129031568Y-115747908D01*
X129086815Y-115577876D01*
X129105503Y-115400073D01*
X129086815Y-115222270D01*
X129055794Y-115126797D01*
X129031570Y-115052243D01*
X129031567Y-115052237D01*
X129024818Y-115040547D01*
X128942177Y-114897408D01*
X128895321Y-114845369D01*
X128822553Y-114764551D01*
X128822550Y-114764549D01*
X128822549Y-114764548D01*
X128822548Y-114764547D01*
X128677911Y-114659461D01*
X128514585Y-114586744D01*
X128514583Y-114586743D01*
X128386912Y-114559606D01*
X128339709Y-114549573D01*
X128160927Y-114549573D01*
X128130272Y-114556088D01*
X127986051Y-114586743D01*
X127986050Y-114586743D01*
X127842365Y-114650716D01*
X127773115Y-114660000D01*
X127709838Y-114630371D01*
X127699780Y-114620408D01*
X127638033Y-114551831D01*
X127605871Y-114516112D01*
X127605870Y-114516111D01*
X127452734Y-114404851D01*
X127452729Y-114404848D01*
X127279807Y-114327857D01*
X127279802Y-114327855D01*
X127134000Y-114296865D01*
X127094646Y-114288500D01*
X126905354Y-114288500D01*
X126872897Y-114295398D01*
X126720197Y-114327855D01*
X126720192Y-114327857D01*
X126547270Y-114404848D01*
X126547265Y-114404851D01*
X126394129Y-114516111D01*
X126267466Y-114656785D01*
X126172821Y-114820715D01*
X126172818Y-114820722D01*
X126114327Y-115000740D01*
X126114326Y-115000744D01*
X126094540Y-115189000D01*
X126114326Y-115377256D01*
X126114327Y-115377259D01*
X126172818Y-115557277D01*
X126172821Y-115557284D01*
X126267467Y-115721216D01*
X126379957Y-115846148D01*
X126394129Y-115861888D01*
X126547265Y-115973148D01*
X126547266Y-115973148D01*
X126547270Y-115973151D01*
X126683936Y-116033999D01*
X126737173Y-116079249D01*
X126757494Y-116146098D01*
X126757500Y-116147278D01*
X126757500Y-119062294D01*
X126756191Y-119080263D01*
X126752710Y-119104025D01*
X126757264Y-119156064D01*
X126757500Y-119161470D01*
X126757500Y-119169709D01*
X126758835Y-119181136D01*
X126761306Y-119202274D01*
X126768000Y-119278791D01*
X126769461Y-119285867D01*
X126769403Y-119285878D01*
X126771034Y-119293237D01*
X126771092Y-119293224D01*
X126772757Y-119300250D01*
X126799025Y-119372424D01*
X126823185Y-119445331D01*
X126826236Y-119451874D01*
X126826182Y-119451898D01*
X126829470Y-119458688D01*
X126829521Y-119458663D01*
X126832761Y-119465113D01*
X126832762Y-119465114D01*
X126832763Y-119465117D01*
X126833853Y-119466774D01*
X126874965Y-119529283D01*
X126915287Y-119594655D01*
X126919766Y-119600319D01*
X126919719Y-119600356D01*
X126924482Y-119606202D01*
X126924528Y-119606164D01*
X126929173Y-119611700D01*
X126975482Y-119655389D01*
X126985018Y-119664386D01*
X127505507Y-120184875D01*
X127991180Y-120670547D01*
X128024665Y-120731870D01*
X128027499Y-120758228D01*
X128027499Y-120900248D01*
X128007814Y-120967287D01*
X127955010Y-121013042D01*
X127885852Y-121022986D01*
X127822296Y-120993961D01*
X127811348Y-120983219D01*
X127780620Y-120949091D01*
X127780618Y-120949090D01*
X127780617Y-120949089D01*
X127780616Y-120949088D01*
X127635979Y-120844002D01*
X127472653Y-120771285D01*
X127472651Y-120771284D01*
X127343483Y-120743829D01*
X127297777Y-120734114D01*
X127297776Y-120734114D01*
X127293838Y-120734114D01*
X127291641Y-120733468D01*
X127291309Y-120733434D01*
X127291315Y-120733373D01*
X127226799Y-120714429D01*
X127206157Y-120697795D01*
X126264819Y-119756456D01*
X126231334Y-119695133D01*
X126228500Y-119668775D01*
X126228500Y-118065737D01*
X126230224Y-118050123D01*
X126229938Y-118050096D01*
X126230672Y-118042333D01*
X126228500Y-117973202D01*
X126228500Y-117943651D01*
X126228500Y-117943650D01*
X126227629Y-117936759D01*
X126227172Y-117930945D01*
X126225709Y-117884374D01*
X126225709Y-117884372D01*
X126220120Y-117865137D01*
X126216174Y-117846084D01*
X126213664Y-117826208D01*
X126196501Y-117782859D01*
X126194614Y-117777346D01*
X126181617Y-117732610D01*
X126181616Y-117732608D01*
X126171421Y-117715369D01*
X126162860Y-117697893D01*
X126155486Y-117679269D01*
X126155486Y-117679267D01*
X126138649Y-117656094D01*
X126128083Y-117641550D01*
X126124900Y-117636705D01*
X126101170Y-117596579D01*
X126101165Y-117596573D01*
X126087005Y-117582413D01*
X126074370Y-117567620D01*
X126062593Y-117551412D01*
X126026693Y-117521713D01*
X126022381Y-117517790D01*
X124961780Y-116457188D01*
X124928295Y-116395866D01*
X124926142Y-116382487D01*
X124915497Y-116281197D01*
X124879530Y-116170503D01*
X124860252Y-116111170D01*
X124860249Y-116111164D01*
X124834729Y-116066962D01*
X124770859Y-115956335D01*
X124722598Y-115902736D01*
X124651235Y-115823478D01*
X124651232Y-115823476D01*
X124651231Y-115823475D01*
X124651230Y-115823474D01*
X124506593Y-115718388D01*
X124343267Y-115645671D01*
X124343265Y-115645670D01*
X124215594Y-115618533D01*
X124168391Y-115608500D01*
X123989609Y-115608500D01*
X123958954Y-115615015D01*
X123814733Y-115645670D01*
X123814728Y-115645672D01*
X123651408Y-115718387D01*
X123506768Y-115823475D01*
X123387140Y-115956336D01*
X123297750Y-116111164D01*
X123297747Y-116111170D01*
X123242504Y-116281192D01*
X123242503Y-116281194D01*
X123223815Y-116459000D01*
X123242503Y-116636805D01*
X123242504Y-116636807D01*
X123297750Y-116806837D01*
X123300393Y-116812773D01*
X123298510Y-116813611D01*
X123312703Y-116872095D01*
X123289855Y-116938124D01*
X123280994Y-116949174D01*
X123260144Y-116972329D01*
X123260139Y-116972336D01*
X123170750Y-117127164D01*
X123170747Y-117127170D01*
X123115504Y-117297192D01*
X123115503Y-117297194D01*
X123096815Y-117475000D01*
X119876500Y-117475000D01*
X119876500Y-115718387D01*
X119876500Y-108650904D01*
X119896184Y-108583869D01*
X119908344Y-108567942D01*
X119985533Y-108482216D01*
X120080179Y-108318284D01*
X120138674Y-108138256D01*
X120158460Y-107950000D01*
X120138674Y-107761744D01*
X120080179Y-107581716D01*
X119985533Y-107417784D01*
X119858871Y-107277112D01*
X119855587Y-107274726D01*
X119705734Y-107165851D01*
X119705729Y-107165848D01*
X119532807Y-107088857D01*
X119532802Y-107088855D01*
X119384648Y-107057365D01*
X119347646Y-107049500D01*
X119158354Y-107049500D01*
X119125897Y-107056398D01*
X118973197Y-107088855D01*
X118973192Y-107088857D01*
X118800270Y-107165848D01*
X118800265Y-107165851D01*
X118647129Y-107277111D01*
X118520466Y-107417785D01*
X118425821Y-107581715D01*
X118425818Y-107581722D01*
X118371090Y-107750160D01*
X118367326Y-107761744D01*
X118354187Y-107886758D01*
X118347540Y-107950000D01*
X118367326Y-108138256D01*
X118369431Y-108144733D01*
X118375500Y-108183053D01*
X118375500Y-122782677D01*
X118358887Y-122844677D01*
X118298821Y-122948714D01*
X118240327Y-123128740D01*
X118240326Y-123128744D01*
X118220540Y-123317000D01*
X114478007Y-123317000D01*
X114557903Y-123145663D01*
X114619063Y-122917408D01*
X114639659Y-122682000D01*
X114638546Y-122669284D01*
X114628818Y-122558090D01*
X114619063Y-122446592D01*
X114559578Y-122224587D01*
X114557905Y-122218344D01*
X114557904Y-122218343D01*
X114557903Y-122218337D01*
X114458035Y-122004171D01*
X114452425Y-121996158D01*
X114322494Y-121810597D01*
X114155402Y-121643506D01*
X114155395Y-121643501D01*
X113961834Y-121507967D01*
X113961830Y-121507965D01*
X113907321Y-121482547D01*
X113747663Y-121408097D01*
X113747659Y-121408096D01*
X113747655Y-121408094D01*
X113519413Y-121346938D01*
X113519403Y-121346936D01*
X113284001Y-121326341D01*
X113283999Y-121326341D01*
X113048596Y-121346936D01*
X113048586Y-121346938D01*
X112820344Y-121408094D01*
X112820335Y-121408098D01*
X112606171Y-121507964D01*
X112606169Y-121507965D01*
X112412597Y-121643505D01*
X112245505Y-121810597D01*
X112115575Y-121996158D01*
X112060998Y-122039783D01*
X111991500Y-122046977D01*
X111929145Y-122015454D01*
X111912425Y-121996158D01*
X111782494Y-121810597D01*
X111615402Y-121643506D01*
X111615395Y-121643501D01*
X111422376Y-121508347D01*
X111378751Y-121453770D01*
X111369500Y-121406777D01*
X111369500Y-121019961D01*
X111389185Y-120952922D01*
X111401351Y-120936989D01*
X111435859Y-120898665D01*
X111525250Y-120743835D01*
X111580497Y-120573803D01*
X111599185Y-120396000D01*
X111580497Y-120218197D01*
X111548428Y-120119500D01*
X111525252Y-120048170D01*
X111525249Y-120048164D01*
X111513814Y-120028358D01*
X111435859Y-119893335D01*
X111355878Y-119804507D01*
X111316235Y-119760478D01*
X111316232Y-119760476D01*
X111316231Y-119760475D01*
X111316230Y-119760474D01*
X111171593Y-119655388D01*
X111008267Y-119582671D01*
X111008265Y-119582670D01*
X110880594Y-119555533D01*
X110833391Y-119545500D01*
X110654609Y-119545500D01*
X110623954Y-119552015D01*
X110479733Y-119582670D01*
X110479728Y-119582672D01*
X110316408Y-119655387D01*
X110171768Y-119760475D01*
X110052140Y-119893336D01*
X109962750Y-120048164D01*
X109962747Y-120048170D01*
X109907504Y-120218192D01*
X109907503Y-120218194D01*
X109888815Y-120395999D01*
X109907503Y-120573805D01*
X109907504Y-120573807D01*
X109962747Y-120743829D01*
X109962750Y-120743835D01*
X110052141Y-120898665D01*
X110086649Y-120936989D01*
X110116879Y-120999980D01*
X110118500Y-121019962D01*
X110118500Y-121406773D01*
X110098815Y-121473812D01*
X110065623Y-121508348D01*
X109872597Y-121643505D01*
X109705505Y-121810597D01*
X109575575Y-121996158D01*
X109520998Y-122039783D01*
X109451500Y-122046977D01*
X109389145Y-122015454D01*
X109372425Y-121996158D01*
X109242494Y-121810597D01*
X109075402Y-121643506D01*
X109075395Y-121643501D01*
X108882376Y-121508347D01*
X108838751Y-121453770D01*
X108829499Y-121406776D01*
X108829499Y-117719274D01*
X108849184Y-117652236D01*
X108880613Y-117618957D01*
X108903230Y-117602526D01*
X109022859Y-117469665D01*
X109112250Y-117314835D01*
X109167497Y-117144803D01*
X109186185Y-116967000D01*
X109167497Y-116789197D01*
X109122440Y-116650526D01*
X109112252Y-116619170D01*
X109112249Y-116619164D01*
X109106037Y-116608404D01*
X109022859Y-116464335D01*
X108961209Y-116395866D01*
X108903235Y-116331478D01*
X108903232Y-116331476D01*
X108903231Y-116331475D01*
X108903230Y-116331474D01*
X108758593Y-116226388D01*
X108595267Y-116153671D01*
X108595265Y-116153670D01*
X108467594Y-116126533D01*
X108420391Y-116116500D01*
X108241609Y-116116500D01*
X108210954Y-116123015D01*
X108066733Y-116153670D01*
X108066728Y-116153672D01*
X107903408Y-116226387D01*
X107758768Y-116331475D01*
X107639140Y-116464336D01*
X107549750Y-116619164D01*
X107549747Y-116619170D01*
X107494504Y-116789192D01*
X107494503Y-116789194D01*
X107475815Y-116966999D01*
X107494503Y-117144805D01*
X107494504Y-117144807D01*
X107549747Y-117314829D01*
X107549748Y-117314830D01*
X107549750Y-117314835D01*
X107561887Y-117335858D01*
X107578500Y-117397856D01*
X107578499Y-121406773D01*
X107558814Y-121473812D01*
X107525623Y-121508348D01*
X107332594Y-121643508D01*
X107165505Y-121810597D01*
X107035575Y-121996158D01*
X106980998Y-122039783D01*
X106911500Y-122046977D01*
X106849145Y-122015454D01*
X106832425Y-121996158D01*
X106702494Y-121810597D01*
X106535402Y-121643506D01*
X106535395Y-121643501D01*
X106342376Y-121508347D01*
X106298751Y-121453770D01*
X106289499Y-121406772D01*
X106289499Y-118847784D01*
X106289499Y-116066958D01*
X106309184Y-115999923D01*
X106321338Y-115984002D01*
X106355859Y-115945665D01*
X106445250Y-115790835D01*
X106500497Y-115620803D01*
X106519185Y-115443000D01*
X106500497Y-115265197D01*
X106472873Y-115180181D01*
X106445252Y-115095170D01*
X106445249Y-115095164D01*
X106426102Y-115062000D01*
X106355859Y-114940335D01*
X106295900Y-114873744D01*
X106236235Y-114807478D01*
X106236232Y-114807476D01*
X106236231Y-114807475D01*
X106236230Y-114807474D01*
X106091593Y-114702388D01*
X105928267Y-114629671D01*
X105928265Y-114629670D01*
X105800594Y-114602533D01*
X105753391Y-114592500D01*
X105574609Y-114592500D01*
X105543954Y-114599015D01*
X105399733Y-114629670D01*
X105399728Y-114629672D01*
X105236408Y-114702387D01*
X105091768Y-114807475D01*
X104972140Y-114940336D01*
X104882750Y-115095164D01*
X104882747Y-115095170D01*
X104827504Y-115265192D01*
X104827503Y-115265194D01*
X104808815Y-115442999D01*
X104827503Y-115620805D01*
X104827504Y-115620807D01*
X104882747Y-115790829D01*
X104882750Y-115790835D01*
X104972141Y-115945665D01*
X104996889Y-115973150D01*
X105006649Y-115983989D01*
X105036879Y-116046980D01*
X105038500Y-116066962D01*
X105038500Y-121406773D01*
X105018815Y-121473812D01*
X104985623Y-121508348D01*
X104792600Y-121643503D01*
X104670673Y-121765430D01*
X104609350Y-121798914D01*
X104539658Y-121793930D01*
X104483725Y-121752058D01*
X104466810Y-121721081D01*
X104417797Y-121589671D01*
X104417793Y-121589664D01*
X104331547Y-121474455D01*
X104331544Y-121474452D01*
X104216335Y-121388206D01*
X104216328Y-121388202D01*
X104081482Y-121337908D01*
X104081483Y-121337908D01*
X104021883Y-121331501D01*
X104021881Y-121331500D01*
X104021873Y-121331500D01*
X104021864Y-121331500D01*
X102226129Y-121331500D01*
X102226123Y-121331501D01*
X102166516Y-121337908D01*
X102031671Y-121388202D01*
X102031664Y-121388206D01*
X101916455Y-121474452D01*
X101916452Y-121474455D01*
X101830206Y-121589664D01*
X101830202Y-121589671D01*
X101779908Y-121724517D01*
X101773501Y-121784116D01*
X101773500Y-121784135D01*
X101773500Y-123579870D01*
X87630500Y-123579870D01*
X87630500Y-120843005D01*
X94245556Y-120843005D01*
X94265310Y-121157004D01*
X94265311Y-121157011D01*
X94280528Y-121236779D01*
X94321890Y-121453610D01*
X94324270Y-121466083D01*
X94421497Y-121765316D01*
X94421499Y-121765321D01*
X94555461Y-122050003D01*
X94555464Y-122050009D01*
X94724051Y-122315661D01*
X94724054Y-122315665D01*
X94924606Y-122558090D01*
X94924608Y-122558092D01*
X94924610Y-122558094D01*
X95025004Y-122652370D01*
X95153968Y-122773476D01*
X95153978Y-122773484D01*
X95408504Y-122958408D01*
X95408509Y-122958410D01*
X95408516Y-122958416D01*
X95684234Y-123109994D01*
X95684239Y-123109996D01*
X95684241Y-123109997D01*
X95684242Y-123109998D01*
X95976771Y-123225818D01*
X95976774Y-123225819D01*
X96281523Y-123304065D01*
X96281527Y-123304066D01*
X96347010Y-123312338D01*
X96593670Y-123343499D01*
X96593679Y-123343499D01*
X96593682Y-123343500D01*
X96593684Y-123343500D01*
X96908316Y-123343500D01*
X96908318Y-123343500D01*
X96908321Y-123343499D01*
X96908329Y-123343499D01*
X97094593Y-123319968D01*
X97220473Y-123304066D01*
X97525225Y-123225819D01*
X97586648Y-123201500D01*
X97817757Y-123109998D01*
X97817758Y-123109997D01*
X97817756Y-123109997D01*
X97817766Y-123109994D01*
X98093484Y-122958416D01*
X98348030Y-122773478D01*
X98577390Y-122558094D01*
X98777947Y-122315663D01*
X98946537Y-122050007D01*
X99080503Y-121765315D01*
X99177731Y-121466079D01*
X99236688Y-121157015D01*
X99236773Y-121155665D01*
X99256444Y-120843005D01*
X99256444Y-120842994D01*
X99236689Y-120528995D01*
X99236688Y-120528988D01*
X99236688Y-120528985D01*
X99177731Y-120219921D01*
X99080503Y-119920685D01*
X99080131Y-119919895D01*
X98974366Y-119695133D01*
X98946537Y-119635993D01*
X98829692Y-119451874D01*
X98777948Y-119370338D01*
X98777945Y-119370334D01*
X98577393Y-119127909D01*
X98577391Y-119127907D01*
X98526656Y-119080263D01*
X98348030Y-118912522D01*
X98348027Y-118912520D01*
X98348021Y-118912515D01*
X98093495Y-118727591D01*
X98093488Y-118727586D01*
X98093484Y-118727584D01*
X97817766Y-118576006D01*
X97817763Y-118576004D01*
X97817758Y-118576002D01*
X97817757Y-118576001D01*
X97525228Y-118460181D01*
X97525225Y-118460180D01*
X97220476Y-118381934D01*
X97220463Y-118381932D01*
X96908329Y-118342500D01*
X96908318Y-118342500D01*
X96593682Y-118342500D01*
X96593670Y-118342500D01*
X96281536Y-118381932D01*
X96281523Y-118381934D01*
X95976774Y-118460180D01*
X95976771Y-118460181D01*
X95684242Y-118576001D01*
X95684241Y-118576002D01*
X95408516Y-118727584D01*
X95408504Y-118727591D01*
X95153978Y-118912515D01*
X95153968Y-118912523D01*
X94924608Y-119127907D01*
X94924606Y-119127909D01*
X94724054Y-119370334D01*
X94724051Y-119370338D01*
X94555464Y-119635990D01*
X94555461Y-119635996D01*
X94421499Y-119920678D01*
X94421497Y-119920683D01*
X94324270Y-120219916D01*
X94265311Y-120528988D01*
X94265310Y-120528995D01*
X94245556Y-120842994D01*
X94245556Y-120843005D01*
X87630500Y-120843005D01*
X87630500Y-112498001D01*
X94025532Y-112498001D01*
X94045364Y-112724686D01*
X94045366Y-112724697D01*
X94104258Y-112944488D01*
X94104261Y-112944497D01*
X94200431Y-113150732D01*
X94200432Y-113150734D01*
X94330954Y-113337141D01*
X94491858Y-113498045D01*
X94524884Y-113521170D01*
X94678266Y-113628568D01*
X94884504Y-113724739D01*
X95104308Y-113783635D01*
X95266230Y-113797801D01*
X95330998Y-113803468D01*
X95331000Y-113803468D01*
X95331002Y-113803468D01*
X95387672Y-113798509D01*
X95557692Y-113783635D01*
X95777496Y-113724739D01*
X95983734Y-113628568D01*
X96170139Y-113498047D01*
X96331047Y-113337139D01*
X96461568Y-113150734D01*
X96557739Y-112944496D01*
X96616635Y-112724692D01*
X96636468Y-112498000D01*
X96616635Y-112271308D01*
X96557739Y-112051504D01*
X96461568Y-111845266D01*
X96331047Y-111658861D01*
X96331045Y-111658858D01*
X96170141Y-111497954D01*
X95983734Y-111367432D01*
X95983732Y-111367431D01*
X95777497Y-111271261D01*
X95777488Y-111271258D01*
X95654966Y-111238429D01*
X95633862Y-111232774D01*
X95574202Y-111196410D01*
X95543673Y-111133563D01*
X95546132Y-111113001D01*
X96865532Y-111113001D01*
X96885364Y-111339686D01*
X96885366Y-111339697D01*
X96944258Y-111559488D01*
X96944261Y-111559497D01*
X97040431Y-111765732D01*
X97040432Y-111765734D01*
X97170954Y-111952141D01*
X97331858Y-112113045D01*
X97349280Y-112125244D01*
X97518266Y-112243568D01*
X97724504Y-112339739D01*
X97724506Y-112339739D01*
X97729598Y-112341593D01*
X97728836Y-112343684D01*
X97780343Y-112375047D01*
X97810902Y-112437880D01*
X97802639Y-112507260D01*
X97758179Y-112561158D01*
X97691637Y-112582463D01*
X97688628Y-112582500D01*
X97323130Y-112582500D01*
X97323123Y-112582501D01*
X97263516Y-112588908D01*
X97128671Y-112639202D01*
X97128664Y-112639206D01*
X97013455Y-112725452D01*
X97013452Y-112725455D01*
X96927206Y-112840664D01*
X96927202Y-112840671D01*
X96876908Y-112975517D01*
X96870501Y-113035116D01*
X96870501Y-113035123D01*
X96870500Y-113035135D01*
X96870500Y-114730870D01*
X96870501Y-114730876D01*
X96876908Y-114790483D01*
X96927202Y-114925328D01*
X96927206Y-114925335D01*
X97013452Y-115040544D01*
X97013455Y-115040547D01*
X97128664Y-115126793D01*
X97128671Y-115126797D01*
X97263517Y-115177091D01*
X97263516Y-115177091D01*
X97270444Y-115177835D01*
X97323127Y-115183500D01*
X99018872Y-115183499D01*
X99078483Y-115177091D01*
X99213331Y-115126796D01*
X99328546Y-115040546D01*
X99414796Y-114925331D01*
X99465091Y-114790483D01*
X99471500Y-114730873D01*
X99471499Y-113035128D01*
X99465091Y-112975517D01*
X99453521Y-112944497D01*
X99414797Y-112840671D01*
X99414793Y-112840664D01*
X99328547Y-112725455D01*
X99328544Y-112725452D01*
X99213335Y-112639206D01*
X99213328Y-112639202D01*
X99078482Y-112588908D01*
X99078483Y-112588908D01*
X99018883Y-112582501D01*
X99018881Y-112582500D01*
X99018873Y-112582500D01*
X99018865Y-112582500D01*
X98653373Y-112582500D01*
X98586334Y-112562815D01*
X98540579Y-112510011D01*
X98530635Y-112440853D01*
X98559660Y-112377297D01*
X98612935Y-112343059D01*
X98612402Y-112341593D01*
X98617489Y-112339740D01*
X98617496Y-112339739D01*
X98823734Y-112243568D01*
X99010139Y-112113047D01*
X99171047Y-111952139D01*
X99301568Y-111765734D01*
X99397739Y-111559496D01*
X99456635Y-111339692D01*
X99476468Y-111113000D01*
X99472197Y-111064188D01*
X99462103Y-110948806D01*
X99456635Y-110886308D01*
X99397739Y-110666504D01*
X99301568Y-110460266D01*
X99172624Y-110276113D01*
X99171045Y-110273858D01*
X99010141Y-110112954D01*
X98823734Y-109982432D01*
X98823732Y-109982431D01*
X98617497Y-109886261D01*
X98617488Y-109886258D01*
X98494966Y-109853429D01*
X98473862Y-109847774D01*
X98414202Y-109811410D01*
X98383673Y-109748563D01*
X98391968Y-109679188D01*
X98436453Y-109625310D01*
X98473862Y-109608225D01*
X98617496Y-109569739D01*
X98823734Y-109473568D01*
X99010139Y-109343047D01*
X99171047Y-109182139D01*
X99301568Y-108995734D01*
X99397739Y-108789496D01*
X99456635Y-108569692D01*
X99476468Y-108343000D01*
X99472197Y-108294188D01*
X99465279Y-108215114D01*
X99456635Y-108116308D01*
X99397739Y-107896504D01*
X99301568Y-107690266D01*
X99171047Y-107503861D01*
X99171045Y-107503858D01*
X99010141Y-107342954D01*
X98823734Y-107212432D01*
X98823732Y-107212431D01*
X98617497Y-107116261D01*
X98617488Y-107116258D01*
X98494966Y-107083429D01*
X98473862Y-107077774D01*
X98414202Y-107041410D01*
X98383673Y-106978563D01*
X98391968Y-106909188D01*
X98436453Y-106855310D01*
X98473862Y-106838225D01*
X98617496Y-106799739D01*
X98823734Y-106703568D01*
X98857393Y-106680000D01*
X101710540Y-106680000D01*
X101730326Y-106868256D01*
X101730327Y-106868259D01*
X101788818Y-107048277D01*
X101788821Y-107048284D01*
X101883467Y-107212216D01*
X102001184Y-107342954D01*
X102010129Y-107352888D01*
X102163265Y-107464148D01*
X102163270Y-107464151D01*
X102336192Y-107541142D01*
X102336197Y-107541144D01*
X102521354Y-107580500D01*
X102521355Y-107580500D01*
X102710644Y-107580500D01*
X102710646Y-107580500D01*
X102895803Y-107541144D01*
X103068730Y-107464151D01*
X103221871Y-107352888D01*
X103348533Y-107212216D01*
X103443179Y-107048284D01*
X103501674Y-106868256D01*
X103521460Y-106680000D01*
X103501674Y-106491744D01*
X103443179Y-106311716D01*
X103439455Y-106305265D01*
X103383113Y-106207677D01*
X103366500Y-106145677D01*
X103366500Y-103455732D01*
X103366500Y-100703127D01*
X103386184Y-100636092D01*
X103438988Y-100590337D01*
X103508146Y-100580393D01*
X103533832Y-100586949D01*
X103590517Y-100608091D01*
X103590516Y-100608091D01*
X103597444Y-100608835D01*
X103650127Y-100614500D01*
X105345872Y-100614499D01*
X105405483Y-100608091D01*
X105540331Y-100557796D01*
X105655546Y-100471546D01*
X105741796Y-100356331D01*
X105792091Y-100221483D01*
X105798500Y-100161873D01*
X105798499Y-98466128D01*
X105792091Y-98406517D01*
X105791675Y-98405402D01*
X105741797Y-98271671D01*
X105741793Y-98271664D01*
X105655547Y-98156455D01*
X105655544Y-98156452D01*
X105540335Y-98070206D01*
X105540328Y-98070202D01*
X105405482Y-98019908D01*
X105405483Y-98019908D01*
X105345883Y-98013501D01*
X105345881Y-98013500D01*
X105345873Y-98013500D01*
X105345864Y-98013500D01*
X103650129Y-98013500D01*
X103650123Y-98013501D01*
X103590515Y-98019909D01*
X103533832Y-98041050D01*
X103464140Y-98046034D01*
X103402818Y-98012548D01*
X103369333Y-97951225D01*
X103366500Y-97924868D01*
X103366500Y-96019199D01*
X103366500Y-94088225D01*
X103386184Y-94021190D01*
X103402813Y-94000553D01*
X106446547Y-90956819D01*
X106507871Y-90923334D01*
X106534229Y-90920500D01*
X107537663Y-90920500D01*
X107604702Y-90940185D01*
X107610548Y-90944182D01*
X107624265Y-90954148D01*
X107624270Y-90954151D01*
X107797192Y-91031142D01*
X107797197Y-91031144D01*
X107982354Y-91070500D01*
X107982355Y-91070500D01*
X108171644Y-91070500D01*
X108171646Y-91070500D01*
X108356803Y-91031144D01*
X108529730Y-90954151D01*
X108529733Y-90954148D01*
X108535363Y-90950899D01*
X108536511Y-90952889D01*
X108592393Y-90932936D01*
X108660450Y-90948746D01*
X108709156Y-90998840D01*
X108723500Y-91056732D01*
X108723500Y-97935769D01*
X108703815Y-98002808D01*
X108687181Y-98023450D01*
X108305228Y-98405402D01*
X108243905Y-98438887D01*
X108243329Y-98439011D01*
X108178196Y-98452856D01*
X108178192Y-98452857D01*
X108005270Y-98529848D01*
X108005265Y-98529851D01*
X107852129Y-98641111D01*
X107725466Y-98781785D01*
X107630821Y-98945715D01*
X107630818Y-98945722D01*
X107584813Y-99087313D01*
X107572326Y-99125744D01*
X107552540Y-99314000D01*
X107572326Y-99502256D01*
X107572327Y-99502259D01*
X107630818Y-99682277D01*
X107630821Y-99682284D01*
X107725467Y-99846216D01*
X107833982Y-99966734D01*
X107852129Y-99986888D01*
X108005265Y-100098148D01*
X108005270Y-100098151D01*
X108178192Y-100175142D01*
X108178197Y-100175144D01*
X108363354Y-100214500D01*
X108363355Y-100214500D01*
X108552642Y-100214500D01*
X108552646Y-100214500D01*
X108573721Y-100210020D01*
X108643384Y-100215335D01*
X108699118Y-100257471D01*
X108723225Y-100323050D01*
X108723500Y-100331310D01*
X108723499Y-110971677D01*
X108706887Y-111033676D01*
X108646820Y-111137716D01*
X108615934Y-111232775D01*
X108588326Y-111317744D01*
X108568540Y-111506000D01*
X108588326Y-111694256D01*
X108588327Y-111694259D01*
X108646818Y-111874277D01*
X108646821Y-111874284D01*
X108741467Y-112038216D01*
X108819824Y-112125240D01*
X108868129Y-112178888D01*
X109021265Y-112290148D01*
X109021270Y-112290151D01*
X109194192Y-112367142D01*
X109194197Y-112367144D01*
X109379354Y-112406500D01*
X109379355Y-112406500D01*
X109568644Y-112406500D01*
X109568646Y-112406500D01*
X109753803Y-112367144D01*
X109926730Y-112290151D01*
X110079871Y-112178888D01*
X110206533Y-112038216D01*
X110301179Y-111874284D01*
X110359674Y-111694256D01*
X110379460Y-111506000D01*
X110359674Y-111317744D01*
X110301179Y-111137716D01*
X110286910Y-111113001D01*
X110241113Y-111033677D01*
X110224500Y-110971677D01*
X110224500Y-109600999D01*
X113698815Y-109600999D01*
X113717503Y-109778805D01*
X113717504Y-109778807D01*
X113772747Y-109948829D01*
X113772750Y-109948835D01*
X113862141Y-110103665D01*
X113903812Y-110149946D01*
X113981764Y-110236521D01*
X113981767Y-110236523D01*
X113981770Y-110236526D01*
X114126407Y-110341612D01*
X114289733Y-110414329D01*
X114464609Y-110451500D01*
X114464610Y-110451500D01*
X114643389Y-110451500D01*
X114643391Y-110451500D01*
X114818267Y-110414329D01*
X114981593Y-110341612D01*
X115126230Y-110236526D01*
X115245859Y-110103665D01*
X115335250Y-109948835D01*
X115390497Y-109778803D01*
X115393535Y-109749889D01*
X115420119Y-109685277D01*
X115477417Y-109645292D01*
X115547236Y-109642632D01*
X115589740Y-109662534D01*
X115650407Y-109706612D01*
X115813733Y-109779329D01*
X115988609Y-109816500D01*
X115988610Y-109816500D01*
X116167389Y-109816500D01*
X116167391Y-109816500D01*
X116342267Y-109779329D01*
X116505593Y-109706612D01*
X116650230Y-109601526D01*
X116655508Y-109595665D01*
X116678852Y-109569738D01*
X116769859Y-109468665D01*
X116859250Y-109313835D01*
X116914497Y-109143803D01*
X116933185Y-108966000D01*
X116914497Y-108788197D01*
X116862545Y-108628305D01*
X116859252Y-108618170D01*
X116859249Y-108618164D01*
X116769859Y-108463335D01*
X116736612Y-108426410D01*
X116735349Y-108425007D01*
X116705120Y-108362015D01*
X116703500Y-108342036D01*
X116703500Y-96830452D01*
X116723185Y-96763413D01*
X116739819Y-96742771D01*
X117599772Y-95882819D01*
X117661095Y-95849334D01*
X117687453Y-95846500D01*
X117691389Y-95846500D01*
X117691391Y-95846500D01*
X117866267Y-95809329D01*
X118029593Y-95736612D01*
X118174230Y-95631526D01*
X118197597Y-95605575D01*
X118202648Y-95599965D01*
X118293859Y-95498665D01*
X118383250Y-95343835D01*
X118438497Y-95173803D01*
X118457185Y-94996000D01*
X118438497Y-94818197D01*
X118399333Y-94697663D01*
X118383252Y-94648170D01*
X118383249Y-94648164D01*
X118376224Y-94635996D01*
X118293859Y-94493335D01*
X118247003Y-94441296D01*
X118174235Y-94360478D01*
X118174232Y-94360476D01*
X118174231Y-94360475D01*
X118174230Y-94360474D01*
X118029593Y-94255388D01*
X117866267Y-94182671D01*
X117866265Y-94182670D01*
X117738594Y-94155533D01*
X117691391Y-94145500D01*
X117512609Y-94145500D01*
X117481954Y-94152015D01*
X117337733Y-94182670D01*
X117337728Y-94182672D01*
X117174408Y-94255387D01*
X117029768Y-94360475D01*
X116910140Y-94493336D01*
X116820750Y-94648164D01*
X116820747Y-94648170D01*
X116765504Y-94818192D01*
X116765503Y-94818194D01*
X116754858Y-94919471D01*
X116728272Y-94984085D01*
X116719218Y-94994189D01*
X115694208Y-96019199D01*
X115681951Y-96029020D01*
X115682134Y-96029241D01*
X115676123Y-96034213D01*
X115628772Y-96084636D01*
X115607889Y-96105519D01*
X115607877Y-96105532D01*
X115603621Y-96111017D01*
X115599837Y-96115447D01*
X115567937Y-96149418D01*
X115567936Y-96149420D01*
X115558284Y-96166976D01*
X115547610Y-96183226D01*
X115535329Y-96199061D01*
X115535324Y-96199068D01*
X115516815Y-96241838D01*
X115514245Y-96247084D01*
X115491803Y-96287906D01*
X115486822Y-96307307D01*
X115480521Y-96325710D01*
X115472562Y-96344102D01*
X115472561Y-96344105D01*
X115465271Y-96390127D01*
X115464087Y-96395846D01*
X115452501Y-96440972D01*
X115452500Y-96440982D01*
X115452500Y-96461016D01*
X115450973Y-96480415D01*
X115447840Y-96500194D01*
X115447840Y-96500195D01*
X115452225Y-96546583D01*
X115452500Y-96552421D01*
X115452499Y-108342036D01*
X115432814Y-108409075D01*
X115420652Y-108425005D01*
X115395653Y-108452771D01*
X115336167Y-108489422D01*
X115266310Y-108488094D01*
X115208261Y-108449209D01*
X115180449Y-108385113D01*
X115179500Y-108369802D01*
X115179500Y-93343507D01*
X115199185Y-93276468D01*
X115215192Y-93257636D01*
X115214881Y-93257356D01*
X115219233Y-93252523D01*
X115338859Y-93119665D01*
X115428250Y-92964835D01*
X115483497Y-92794803D01*
X115502185Y-92617000D01*
X115483497Y-92439197D01*
X115428250Y-92269165D01*
X115338859Y-92114335D01*
X115264923Y-92032221D01*
X115219235Y-91981478D01*
X115219232Y-91981476D01*
X115219231Y-91981475D01*
X115219230Y-91981474D01*
X115074593Y-91876388D01*
X114911267Y-91803671D01*
X114911265Y-91803670D01*
X114752090Y-91769837D01*
X114736391Y-91766500D01*
X114557609Y-91766500D01*
X114541910Y-91769837D01*
X114382733Y-91803670D01*
X114382728Y-91803672D01*
X114219408Y-91876387D01*
X114074768Y-91981475D01*
X113955140Y-92114336D01*
X113865750Y-92269164D01*
X113865747Y-92269170D01*
X113810504Y-92439192D01*
X113810503Y-92439194D01*
X113791815Y-92617000D01*
X113810503Y-92794805D01*
X113810504Y-92794807D01*
X113865747Y-92964829D01*
X113865750Y-92964835D01*
X113911887Y-93044746D01*
X113928500Y-93106746D01*
X113928500Y-108977036D01*
X113908815Y-109044075D01*
X113896651Y-109060007D01*
X113862140Y-109098336D01*
X113772750Y-109253164D01*
X113772747Y-109253170D01*
X113717504Y-109423192D01*
X113717503Y-109423194D01*
X113698815Y-109600999D01*
X110224500Y-109600999D01*
X110224500Y-100582895D01*
X110244185Y-100515856D01*
X110296989Y-100470101D01*
X110366147Y-100460157D01*
X110400904Y-100470512D01*
X110551504Y-100540739D01*
X110771308Y-100599635D01*
X110933230Y-100613801D01*
X110997998Y-100619468D01*
X110998000Y-100619468D01*
X110998002Y-100619468D01*
X111054807Y-100614498D01*
X111224692Y-100599635D01*
X111444496Y-100540739D01*
X111650734Y-100444568D01*
X111837139Y-100314047D01*
X111998047Y-100153139D01*
X112128568Y-99966734D01*
X112224739Y-99760496D01*
X112283635Y-99540692D01*
X112303468Y-99314000D01*
X112283635Y-99087308D01*
X112224739Y-98867504D01*
X112128568Y-98661266D01*
X111998047Y-98474861D01*
X111837139Y-98313953D01*
X111832373Y-98310615D01*
X111801375Y-98288910D01*
X111757751Y-98234332D01*
X111748500Y-98187336D01*
X111748500Y-89822700D01*
X111768185Y-89755661D01*
X111820989Y-89709906D01*
X111890147Y-89699962D01*
X111953703Y-89728987D01*
X111964650Y-89739728D01*
X112043129Y-89826888D01*
X112196265Y-89938148D01*
X112196270Y-89938151D01*
X112369192Y-90015142D01*
X112369197Y-90015144D01*
X112554354Y-90054500D01*
X112554355Y-90054500D01*
X112743644Y-90054500D01*
X112743646Y-90054500D01*
X112928803Y-90015144D01*
X113101730Y-89938151D01*
X113254871Y-89826888D01*
X113381533Y-89686216D01*
X113476179Y-89522284D01*
X113534674Y-89342256D01*
X113554460Y-89154000D01*
X113534674Y-88965744D01*
X113476179Y-88785716D01*
X113476178Y-88785714D01*
X113416113Y-88681677D01*
X113399500Y-88619677D01*
X113399500Y-83185000D01*
X115095815Y-83185000D01*
X115114503Y-83362805D01*
X115114504Y-83362807D01*
X115169747Y-83532829D01*
X115169750Y-83532835D01*
X115259141Y-83687665D01*
X115293649Y-83725989D01*
X115323879Y-83788980D01*
X115325500Y-83808962D01*
X115325500Y-84254560D01*
X115323775Y-84270177D01*
X115324061Y-84270204D01*
X115323326Y-84277970D01*
X115325500Y-84347119D01*
X115325500Y-84376648D01*
X115325501Y-84376665D01*
X115326368Y-84383536D01*
X115326826Y-84389355D01*
X115328290Y-84435929D01*
X115328291Y-84435932D01*
X115333880Y-84455172D01*
X115337824Y-84474216D01*
X115340336Y-84494096D01*
X115357490Y-84537424D01*
X115359382Y-84542952D01*
X115372381Y-84587693D01*
X115382580Y-84604939D01*
X115391138Y-84622408D01*
X115398514Y-84641037D01*
X115425898Y-84678728D01*
X115429106Y-84683612D01*
X115452827Y-84723721D01*
X115452833Y-84723729D01*
X115466990Y-84737885D01*
X115479627Y-84752680D01*
X115491406Y-84768892D01*
X115511068Y-84785158D01*
X115527309Y-84798593D01*
X115531620Y-84802515D01*
X115964691Y-85235586D01*
X116305181Y-85576076D01*
X116338666Y-85637399D01*
X116341500Y-85663757D01*
X116341500Y-91484255D01*
X116339775Y-91499872D01*
X116340061Y-91499899D01*
X116339326Y-91507665D01*
X116341500Y-91576814D01*
X116341500Y-91606343D01*
X116341501Y-91606360D01*
X116342368Y-91613231D01*
X116342826Y-91619050D01*
X116344290Y-91665624D01*
X116344291Y-91665627D01*
X116349880Y-91684867D01*
X116353824Y-91703911D01*
X116356336Y-91723792D01*
X116373245Y-91766500D01*
X116373490Y-91767119D01*
X116375382Y-91772647D01*
X116384395Y-91803670D01*
X116388382Y-91817390D01*
X116388883Y-91818238D01*
X116398580Y-91834634D01*
X116407138Y-91852103D01*
X116414514Y-91870732D01*
X116441898Y-91908423D01*
X116445106Y-91913307D01*
X116468827Y-91953416D01*
X116468833Y-91953424D01*
X116482990Y-91967580D01*
X116495628Y-91982376D01*
X116507405Y-91998586D01*
X116507406Y-91998587D01*
X116543309Y-92028288D01*
X116547620Y-92032210D01*
X117975590Y-93460180D01*
X122147180Y-97631771D01*
X122180665Y-97693094D01*
X122183499Y-97719452D01*
X122183500Y-104692255D01*
X122181775Y-104707872D01*
X122182061Y-104707899D01*
X122181326Y-104715665D01*
X122183500Y-104784814D01*
X122183500Y-104814343D01*
X122183501Y-104814360D01*
X122184368Y-104821231D01*
X122184826Y-104827050D01*
X122186290Y-104873624D01*
X122186291Y-104873627D01*
X122191880Y-104892867D01*
X122195824Y-104911911D01*
X122198336Y-104931792D01*
X122209145Y-104959093D01*
X122215490Y-104975119D01*
X122217382Y-104980647D01*
X122224586Y-105005444D01*
X122230382Y-105025390D01*
X122231417Y-105027141D01*
X122240580Y-105042634D01*
X122249138Y-105060103D01*
X122256514Y-105078732D01*
X122283898Y-105116423D01*
X122287106Y-105121307D01*
X122310827Y-105161416D01*
X122310833Y-105161424D01*
X122324990Y-105175580D01*
X122337628Y-105190376D01*
X122349405Y-105206586D01*
X122349406Y-105206587D01*
X122385309Y-105236288D01*
X122389620Y-105240210D01*
X122805819Y-105656410D01*
X122942218Y-105792809D01*
X122975703Y-105854132D01*
X122977857Y-105867525D01*
X122988503Y-105968803D01*
X122988504Y-105968805D01*
X122988504Y-105968807D01*
X123043747Y-106138829D01*
X123043750Y-106138835D01*
X123133141Y-106293665D01*
X123174812Y-106339946D01*
X123252764Y-106426521D01*
X123252767Y-106426523D01*
X123252770Y-106426526D01*
X123397407Y-106531612D01*
X123560733Y-106604329D01*
X123735609Y-106641500D01*
X123735610Y-106641500D01*
X123806266Y-106641500D01*
X123873305Y-106661185D01*
X123919060Y-106713989D01*
X123929585Y-106752534D01*
X123938592Y-106838225D01*
X123940650Y-106857804D01*
X123940651Y-106857807D01*
X123995894Y-107027829D01*
X123995897Y-107027835D01*
X124085288Y-107182665D01*
X124126959Y-107228946D01*
X124204911Y-107315521D01*
X124204914Y-107315523D01*
X124204917Y-107315526D01*
X124349554Y-107420612D01*
X124512880Y-107493329D01*
X124687756Y-107530500D01*
X124687757Y-107530500D01*
X124866536Y-107530500D01*
X124866538Y-107530500D01*
X125041414Y-107493329D01*
X125204740Y-107420612D01*
X125211404Y-107415769D01*
X125277209Y-107392288D01*
X125345264Y-107408110D01*
X125376443Y-107433113D01*
X125499264Y-107569521D01*
X125499273Y-107569528D01*
X125555690Y-107610519D01*
X125598356Y-107665849D01*
X125604334Y-107735463D01*
X125571727Y-107797257D01*
X125570485Y-107798517D01*
X125346208Y-108022794D01*
X125333951Y-108032615D01*
X125334134Y-108032836D01*
X125328123Y-108037808D01*
X125280772Y-108088231D01*
X125259889Y-108109114D01*
X125259877Y-108109127D01*
X125255621Y-108114612D01*
X125251837Y-108119042D01*
X125219937Y-108153013D01*
X125219936Y-108153015D01*
X125210284Y-108170571D01*
X125199610Y-108186821D01*
X125187329Y-108202656D01*
X125187324Y-108202663D01*
X125168815Y-108245433D01*
X125166245Y-108250679D01*
X125143803Y-108291501D01*
X125138822Y-108310902D01*
X125132521Y-108329305D01*
X125124562Y-108347697D01*
X125124561Y-108347700D01*
X125117271Y-108393722D01*
X125116087Y-108399441D01*
X125104501Y-108444567D01*
X125104500Y-108444577D01*
X125104500Y-108464611D01*
X125102972Y-108484012D01*
X125102326Y-108488094D01*
X125102121Y-108489389D01*
X125072186Y-108552522D01*
X125071800Y-108552952D01*
X125038142Y-108590333D01*
X125038138Y-108590338D01*
X124948750Y-108745164D01*
X124948747Y-108745170D01*
X124893504Y-108915192D01*
X124893503Y-108915194D01*
X124874815Y-109093000D01*
X124893503Y-109270805D01*
X124893504Y-109270807D01*
X124948747Y-109440829D01*
X124948750Y-109440835D01*
X125038141Y-109595665D01*
X125077059Y-109638888D01*
X125157764Y-109728521D01*
X125157767Y-109728523D01*
X125157770Y-109728526D01*
X125302407Y-109833612D01*
X125465733Y-109906329D01*
X125640609Y-109943500D01*
X125640610Y-109943500D01*
X125758676Y-109943500D01*
X125825715Y-109963185D01*
X125871470Y-110015989D01*
X125881996Y-110080459D01*
X125880121Y-110098305D01*
X125880121Y-110098306D01*
X125898809Y-110276111D01*
X125898810Y-110276113D01*
X125954053Y-110446135D01*
X125954056Y-110446141D01*
X126043447Y-110600971D01*
X126063526Y-110623271D01*
X126163070Y-110733827D01*
X126163073Y-110733829D01*
X126163076Y-110733832D01*
X126307713Y-110838918D01*
X126471039Y-110911635D01*
X126645915Y-110948806D01*
X126645916Y-110948806D01*
X126824695Y-110948806D01*
X126824697Y-110948806D01*
X126999573Y-110911635D01*
X127162899Y-110838918D01*
X127307536Y-110733832D01*
X127318700Y-110721432D01*
X127378185Y-110684783D01*
X127448042Y-110686112D01*
X127506092Y-110724997D01*
X127533903Y-110789093D01*
X127534852Y-110804403D01*
X127534852Y-112261683D01*
X127515167Y-112328722D01*
X127503004Y-112344653D01*
X127468495Y-112382980D01*
X127468491Y-112382985D01*
X127379103Y-112537811D01*
X127379100Y-112537817D01*
X127323857Y-112707839D01*
X127323856Y-112707841D01*
X127305168Y-112885646D01*
X127323856Y-113063452D01*
X127323857Y-113063454D01*
X127379100Y-113233476D01*
X127379103Y-113233482D01*
X127468494Y-113388312D01*
X127510165Y-113434593D01*
X127588117Y-113521168D01*
X127588120Y-113521170D01*
X127588123Y-113521173D01*
X127732760Y-113626259D01*
X127896086Y-113698976D01*
X128070962Y-113736147D01*
X128070963Y-113736147D01*
X128249742Y-113736147D01*
X128249744Y-113736147D01*
X128424620Y-113698976D01*
X128587946Y-113626259D01*
X128732583Y-113521173D01*
X128852212Y-113388312D01*
X128941603Y-113233482D01*
X128996850Y-113063450D01*
X129015538Y-112885647D01*
X128996850Y-112707844D01*
X128959369Y-112592489D01*
X128941605Y-112537817D01*
X128941602Y-112537811D01*
X128925552Y-112510011D01*
X128852212Y-112382982D01*
X128817702Y-112344655D01*
X128787472Y-112281664D01*
X128785852Y-112261683D01*
X128785852Y-110080462D01*
X128785852Y-107769545D01*
X128787379Y-107750160D01*
X128787936Y-107746640D01*
X128787938Y-107746637D01*
X128795227Y-107700607D01*
X128796406Y-107694908D01*
X128808000Y-107649761D01*
X128808000Y-107629725D01*
X128809527Y-107610324D01*
X128812660Y-107590546D01*
X128808275Y-107544157D01*
X128808000Y-107538319D01*
X128808000Y-103972882D01*
X128827685Y-103905843D01*
X128880489Y-103860088D01*
X128906211Y-103851593D01*
X128947711Y-103842773D01*
X129111037Y-103770056D01*
X129255674Y-103664970D01*
X129375303Y-103532109D01*
X129464694Y-103377279D01*
X129519941Y-103207247D01*
X129538629Y-103029444D01*
X129519941Y-102851641D01*
X129464694Y-102681609D01*
X129375303Y-102526779D01*
X129255674Y-102393918D01*
X129255670Y-102393914D01*
X129251140Y-102390623D01*
X129208476Y-102335292D01*
X129202500Y-102265678D01*
X129216642Y-102228308D01*
X129261699Y-102150267D01*
X129305250Y-102074835D01*
X129360497Y-101904803D01*
X129379185Y-101727000D01*
X129360497Y-101549197D01*
X129331896Y-101461172D01*
X129305252Y-101379170D01*
X129305249Y-101379164D01*
X129283022Y-101340665D01*
X129215859Y-101224335D01*
X129169003Y-101172296D01*
X129096235Y-101091478D01*
X129096232Y-101091476D01*
X129096231Y-101091475D01*
X129096230Y-101091474D01*
X128951593Y-100986388D01*
X128788267Y-100913671D01*
X128788265Y-100913670D01*
X128660594Y-100886533D01*
X128613391Y-100876500D01*
X128434609Y-100876500D01*
X128403954Y-100883015D01*
X128259733Y-100913670D01*
X128259728Y-100913672D01*
X128096408Y-100986387D01*
X127951768Y-101091475D01*
X127832139Y-101224336D01*
X127748850Y-101368598D01*
X127698283Y-101416814D01*
X127629676Y-101430036D01*
X127615685Y-101427888D01*
X127597391Y-101424000D01*
X127418609Y-101424000D01*
X127390212Y-101430036D01*
X127243733Y-101461170D01*
X127243728Y-101461172D01*
X127080408Y-101533888D01*
X127080403Y-101533890D01*
X127060385Y-101548435D01*
X126994579Y-101571915D01*
X126926525Y-101556090D01*
X126877830Y-101505984D01*
X126863500Y-101448117D01*
X126863500Y-91180500D01*
X126883185Y-91113461D01*
X126935989Y-91067706D01*
X126987500Y-91056500D01*
X128293093Y-91056500D01*
X128360132Y-91076185D01*
X128405887Y-91128989D01*
X128415831Y-91198147D01*
X128411024Y-91218817D01*
X128400327Y-91251739D01*
X128400327Y-91251740D01*
X128400326Y-91251744D01*
X128380540Y-91440000D01*
X128400326Y-91628256D01*
X128400327Y-91628259D01*
X128458818Y-91808277D01*
X128458821Y-91808284D01*
X128518006Y-91910796D01*
X128518887Y-91912321D01*
X128535500Y-91974321D01*
X128535500Y-98017677D01*
X128518887Y-98079677D01*
X128458821Y-98183714D01*
X128400327Y-98363740D01*
X128400326Y-98363744D01*
X128380540Y-98552000D01*
X128400326Y-98740256D01*
X128400327Y-98740259D01*
X128458818Y-98920277D01*
X128458821Y-98920284D01*
X128553467Y-99084216D01*
X128680128Y-99224887D01*
X128680129Y-99224888D01*
X128833265Y-99336148D01*
X128833270Y-99336151D01*
X129006192Y-99413142D01*
X129006197Y-99413144D01*
X129191354Y-99452500D01*
X129191355Y-99452500D01*
X129380644Y-99452500D01*
X129380646Y-99452500D01*
X129565803Y-99413144D01*
X129738730Y-99336151D01*
X129891871Y-99224888D01*
X130018533Y-99084216D01*
X130113179Y-98920284D01*
X130171674Y-98740256D01*
X130191460Y-98552000D01*
X130171674Y-98363744D01*
X130113179Y-98183716D01*
X130097440Y-98156455D01*
X130053113Y-98079677D01*
X130036500Y-98017677D01*
X130036500Y-91974321D01*
X130053113Y-91912321D01*
X130113179Y-91808284D01*
X130171674Y-91628256D01*
X130191460Y-91440000D01*
X130171674Y-91251744D01*
X130164721Y-91230344D01*
X130160976Y-91218817D01*
X130158981Y-91148976D01*
X130195062Y-91089143D01*
X130257763Y-91058316D01*
X130278907Y-91056500D01*
X132717990Y-91056500D01*
X132718000Y-91056500D01*
X132825456Y-91044947D01*
X132876967Y-91033741D01*
X132934311Y-91014655D01*
X132979497Y-90999616D01*
X132979501Y-90999613D01*
X132979504Y-90999613D01*
X133100543Y-90921825D01*
X133153347Y-90876070D01*
X133247567Y-90767336D01*
X133307338Y-90636459D01*
X133327023Y-90569420D01*
X133327024Y-90569416D01*
X133347500Y-90427000D01*
X133347500Y-78102000D01*
X133335947Y-77994544D01*
X133324741Y-77943033D01*
X133324637Y-77942722D01*
X133290616Y-77840502D01*
X133290613Y-77840496D01*
X133212828Y-77719462D01*
X133212825Y-77719457D01*
X133211272Y-77717665D01*
X133167076Y-77666659D01*
X133167072Y-77666656D01*
X133167070Y-77666653D01*
X133058336Y-77572433D01*
X133058333Y-77572431D01*
X133058331Y-77572430D01*
X132927465Y-77512664D01*
X132927460Y-77512662D01*
X132927459Y-77512662D01*
X132904858Y-77506025D01*
X132860425Y-77492978D01*
X132860419Y-77492976D01*
X132774966Y-77480690D01*
X132718000Y-77472500D01*
X117599000Y-77472500D01*
X117598991Y-77472500D01*
X117598990Y-77472501D01*
X117491549Y-77484052D01*
X117491537Y-77484054D01*
X117440027Y-77495260D01*
X117337502Y-77529383D01*
X117337496Y-77529386D01*
X117216462Y-77607171D01*
X117216451Y-77607179D01*
X117163659Y-77652923D01*
X117069433Y-77761664D01*
X117069430Y-77761668D01*
X117009664Y-77892534D01*
X116989978Y-77959575D01*
X116989976Y-77959580D01*
X116984253Y-77999387D01*
X116969502Y-78101990D01*
X116969500Y-78102001D01*
X116969500Y-82786663D01*
X116949815Y-82853702D01*
X116897011Y-82899457D01*
X116827853Y-82909401D01*
X116764297Y-82880376D01*
X116736157Y-82842413D01*
X116735499Y-82842793D01*
X116713102Y-82804000D01*
X116642859Y-82682335D01*
X116573001Y-82604750D01*
X116523235Y-82549478D01*
X116523232Y-82549476D01*
X116523231Y-82549475D01*
X116523230Y-82549474D01*
X116378593Y-82444388D01*
X116215267Y-82371671D01*
X116215265Y-82371670D01*
X116087594Y-82344533D01*
X116040391Y-82334500D01*
X115861609Y-82334500D01*
X115830954Y-82341015D01*
X115686733Y-82371670D01*
X115686728Y-82371672D01*
X115523408Y-82444387D01*
X115378768Y-82549475D01*
X115259140Y-82682336D01*
X115169750Y-82837164D01*
X115169747Y-82837170D01*
X115114504Y-83007192D01*
X115114503Y-83007194D01*
X115095815Y-83185000D01*
X113399500Y-83185000D01*
X113399500Y-79819705D01*
X113400809Y-79801735D01*
X113401129Y-79799547D01*
X113404289Y-79777977D01*
X113402366Y-79756000D01*
X113399736Y-79725934D01*
X113399500Y-79720528D01*
X113399500Y-79712291D01*
X113399500Y-77875815D01*
X113399499Y-76164005D01*
X137738357Y-76164005D01*
X137758890Y-76411812D01*
X137758892Y-76411824D01*
X137819936Y-76652881D01*
X137919826Y-76880606D01*
X138055833Y-77088782D01*
X138055836Y-77088785D01*
X138224256Y-77271738D01*
X138420491Y-77424474D01*
X138639190Y-77542828D01*
X138874386Y-77623571D01*
X139119665Y-77664500D01*
X139368335Y-77664500D01*
X139613614Y-77623571D01*
X139848810Y-77542828D01*
X140067509Y-77424474D01*
X140263744Y-77271738D01*
X140432164Y-77088785D01*
X140568173Y-76880607D01*
X140668063Y-76652881D01*
X140729108Y-76411821D01*
X140745183Y-76217824D01*
X140749643Y-76164005D01*
X140749643Y-76163994D01*
X140729109Y-75916187D01*
X140729107Y-75916175D01*
X140668063Y-75675118D01*
X140568173Y-75447393D01*
X140432166Y-75239217D01*
X140366903Y-75168323D01*
X140263744Y-75056262D01*
X140067509Y-74903526D01*
X140067507Y-74903525D01*
X140067506Y-74903524D01*
X139848811Y-74785172D01*
X139848802Y-74785169D01*
X139613616Y-74704429D01*
X139368335Y-74663500D01*
X139119665Y-74663500D01*
X138874383Y-74704429D01*
X138639197Y-74785169D01*
X138639188Y-74785172D01*
X138420493Y-74903524D01*
X138224257Y-75056261D01*
X138055833Y-75239217D01*
X137919826Y-75447393D01*
X137819936Y-75675118D01*
X137758892Y-75916175D01*
X137758890Y-75916187D01*
X137738357Y-76163994D01*
X137738357Y-76164005D01*
X113399499Y-76164005D01*
X113399499Y-76015277D01*
X113419184Y-75948239D01*
X113471988Y-75902484D01*
X113472851Y-75902093D01*
X113609730Y-75841151D01*
X113762871Y-75729888D01*
X113889533Y-75589216D01*
X113984179Y-75425284D01*
X114042674Y-75245256D01*
X114062460Y-75057000D01*
X114042674Y-74868744D01*
X113984179Y-74688716D01*
X113889533Y-74524784D01*
X113762871Y-74384112D01*
X113762870Y-74384111D01*
X113609734Y-74272851D01*
X113609729Y-74272848D01*
X113436807Y-74195857D01*
X113436802Y-74195855D01*
X113291000Y-74164865D01*
X113251646Y-74156500D01*
X113062354Y-74156500D01*
X113029897Y-74163398D01*
X112877197Y-74195855D01*
X112877192Y-74195857D01*
X112704270Y-74272848D01*
X112704265Y-74272851D01*
X112551129Y-74384111D01*
X112424466Y-74524785D01*
X112329821Y-74688715D01*
X112329819Y-74688719D01*
X112274479Y-74859039D01*
X112244229Y-74908401D01*
X112163358Y-74989272D01*
X112149729Y-75001051D01*
X112130468Y-75015390D01*
X112096898Y-75055397D01*
X112093253Y-75059376D01*
X112087409Y-75065222D01*
X112067059Y-75090959D01*
X112017695Y-75149789D01*
X112013729Y-75155819D01*
X112013682Y-75155788D01*
X112009630Y-75162147D01*
X112009679Y-75162177D01*
X112005889Y-75168321D01*
X111973424Y-75237941D01*
X111938960Y-75306566D01*
X111936488Y-75313357D01*
X111936432Y-75313336D01*
X111933960Y-75320450D01*
X111934015Y-75320469D01*
X111931742Y-75327327D01*
X111926922Y-75350672D01*
X111916207Y-75402565D01*
X111910823Y-75425284D01*
X111898498Y-75477286D01*
X111897661Y-75484454D01*
X111897601Y-75484447D01*
X111896835Y-75491945D01*
X111896895Y-75491951D01*
X111896265Y-75499140D01*
X111898500Y-75575916D01*
X111898499Y-77722688D01*
X111878814Y-77789728D01*
X111826010Y-77835482D01*
X111756852Y-77845426D01*
X111748719Y-77843978D01*
X111727651Y-77839500D01*
X111727646Y-77839500D01*
X111538354Y-77839500D01*
X111510474Y-77845426D01*
X111353197Y-77878855D01*
X111353192Y-77878857D01*
X111180270Y-77955848D01*
X111180265Y-77955851D01*
X111027129Y-78067111D01*
X110900466Y-78207785D01*
X110805821Y-78371715D01*
X110805818Y-78371722D01*
X110747327Y-78551740D01*
X110747326Y-78551744D01*
X110727540Y-78740000D01*
X110747326Y-78928256D01*
X110747327Y-78928259D01*
X110805818Y-79108277D01*
X110805821Y-79108284D01*
X110900467Y-79272216D01*
X111027128Y-79412887D01*
X111027129Y-79412888D01*
X111180265Y-79524148D01*
X111180270Y-79524151D01*
X111353191Y-79601142D01*
X111353193Y-79601142D01*
X111353197Y-79601144D01*
X111418329Y-79614987D01*
X111479809Y-79648178D01*
X111480228Y-79648596D01*
X111862181Y-80030549D01*
X111895666Y-80091872D01*
X111898500Y-80118230D01*
X111898500Y-86199299D01*
X111878815Y-86266338D01*
X111826011Y-86312093D01*
X111756853Y-86322037D01*
X111693297Y-86293012D01*
X111682350Y-86282272D01*
X111603871Y-86195112D01*
X111595753Y-86189214D01*
X111450734Y-86083851D01*
X111450729Y-86083848D01*
X111277807Y-86006857D01*
X111277802Y-86006855D01*
X111132000Y-85975865D01*
X111092646Y-85967500D01*
X110903354Y-85967500D01*
X110870897Y-85974398D01*
X110718197Y-86006855D01*
X110718192Y-86006857D01*
X110545270Y-86083848D01*
X110545265Y-86083851D01*
X110392129Y-86195111D01*
X110265466Y-86335785D01*
X110170821Y-86499715D01*
X110170818Y-86499722D01*
X110112327Y-86679740D01*
X110112326Y-86679744D01*
X110092540Y-86868000D01*
X110112326Y-87056256D01*
X110112327Y-87056259D01*
X110170818Y-87236277D01*
X110170821Y-87236284D01*
X110222132Y-87325158D01*
X110230887Y-87340321D01*
X110247500Y-87402321D01*
X110247500Y-88359538D01*
X110227815Y-88426577D01*
X110175011Y-88472332D01*
X110105853Y-88482276D01*
X110050615Y-88459856D01*
X109926734Y-88369851D01*
X109926729Y-88369848D01*
X109753807Y-88292857D01*
X109753802Y-88292855D01*
X109608000Y-88261865D01*
X109568646Y-88253500D01*
X109379354Y-88253500D01*
X109346897Y-88260398D01*
X109194197Y-88292855D01*
X109194192Y-88292857D01*
X109021270Y-88369848D01*
X109021265Y-88369851D01*
X108868129Y-88481111D01*
X108741466Y-88621785D01*
X108646821Y-88785715D01*
X108646818Y-88785722D01*
X108596192Y-88941534D01*
X108588326Y-88965744D01*
X108573500Y-89106807D01*
X108568540Y-89154000D01*
X108573560Y-89201760D01*
X108560990Y-89270489D01*
X108513258Y-89321513D01*
X108445518Y-89338631D01*
X108399804Y-89328001D01*
X108356802Y-89308855D01*
X108211000Y-89277865D01*
X108171646Y-89269500D01*
X107982354Y-89269500D01*
X107949897Y-89276398D01*
X107797197Y-89308855D01*
X107797192Y-89308857D01*
X107624270Y-89385848D01*
X107624265Y-89385851D01*
X107610548Y-89395818D01*
X107544742Y-89419298D01*
X107537663Y-89419500D01*
X106235705Y-89419500D01*
X106217735Y-89418191D01*
X106193972Y-89414710D01*
X106148890Y-89418655D01*
X106141933Y-89419264D01*
X106136532Y-89419500D01*
X106128288Y-89419500D01*
X106095707Y-89423308D01*
X106019199Y-89430001D01*
X106012133Y-89431461D01*
X106012121Y-89431404D01*
X106004754Y-89433038D01*
X106004768Y-89433094D01*
X105997751Y-89434756D01*
X105925573Y-89461026D01*
X105852662Y-89485187D01*
X105846119Y-89488238D01*
X105846094Y-89488186D01*
X105839314Y-89491468D01*
X105839340Y-89491520D01*
X105832881Y-89494764D01*
X105768709Y-89536970D01*
X105703345Y-89577288D01*
X105697677Y-89581770D01*
X105697641Y-89581724D01*
X105691798Y-89586484D01*
X105691835Y-89586528D01*
X105686310Y-89591164D01*
X105633597Y-89647035D01*
X102130358Y-93150272D01*
X102116729Y-93162051D01*
X102097468Y-93176390D01*
X102063898Y-93216397D01*
X102060253Y-93220376D01*
X102054409Y-93226222D01*
X102034059Y-93251959D01*
X101984695Y-93310789D01*
X101980729Y-93316819D01*
X101980682Y-93316788D01*
X101976630Y-93323147D01*
X101976679Y-93323177D01*
X101972889Y-93329321D01*
X101940424Y-93398941D01*
X101905960Y-93467566D01*
X101903488Y-93474357D01*
X101903432Y-93474336D01*
X101900960Y-93481450D01*
X101901015Y-93481469D01*
X101898742Y-93488327D01*
X101891624Y-93522803D01*
X101883207Y-93563565D01*
X101880259Y-93576006D01*
X101865498Y-93638286D01*
X101864661Y-93645454D01*
X101864601Y-93645447D01*
X101863835Y-93652945D01*
X101863895Y-93652951D01*
X101863265Y-93660140D01*
X101865500Y-93736916D01*
X101865500Y-106145677D01*
X101848887Y-106207677D01*
X101788821Y-106311714D01*
X101730327Y-106491740D01*
X101730326Y-106491744D01*
X101710540Y-106680000D01*
X98857393Y-106680000D01*
X99010139Y-106573047D01*
X99171047Y-106412139D01*
X99301568Y-106225734D01*
X99397739Y-106019496D01*
X99456635Y-105799692D01*
X99476468Y-105573000D01*
X99472197Y-105524188D01*
X99457698Y-105358460D01*
X99456635Y-105346308D01*
X99397739Y-105126504D01*
X99301568Y-104920266D01*
X99171047Y-104733861D01*
X99171045Y-104733858D01*
X99010141Y-104572954D01*
X98823734Y-104442432D01*
X98823732Y-104442431D01*
X98617497Y-104346261D01*
X98617488Y-104346258D01*
X98494966Y-104313429D01*
X98473862Y-104307774D01*
X98414202Y-104271410D01*
X98383673Y-104208563D01*
X98391968Y-104139188D01*
X98436453Y-104085310D01*
X98473862Y-104068225D01*
X98617496Y-104029739D01*
X98823734Y-103933568D01*
X99010139Y-103803047D01*
X99171047Y-103642139D01*
X99301568Y-103455734D01*
X99397739Y-103249496D01*
X99456635Y-103029692D01*
X99476468Y-102803000D01*
X99456635Y-102576308D01*
X99397739Y-102356504D01*
X99301568Y-102150266D01*
X99171047Y-101963861D01*
X99171045Y-101963858D01*
X99010141Y-101802954D01*
X98823734Y-101672432D01*
X98823732Y-101672431D01*
X98617497Y-101576261D01*
X98617488Y-101576258D01*
X98397697Y-101517366D01*
X98397693Y-101517365D01*
X98397692Y-101517365D01*
X98397691Y-101517364D01*
X98397686Y-101517364D01*
X98171002Y-101497532D01*
X98170998Y-101497532D01*
X97944313Y-101517364D01*
X97944302Y-101517366D01*
X97724511Y-101576258D01*
X97724502Y-101576261D01*
X97518267Y-101672431D01*
X97518265Y-101672432D01*
X97331858Y-101802954D01*
X97170954Y-101963858D01*
X97040432Y-102150265D01*
X97040431Y-102150267D01*
X96944261Y-102356502D01*
X96944258Y-102356511D01*
X96885366Y-102576302D01*
X96885364Y-102576313D01*
X96865532Y-102802998D01*
X96865532Y-102803001D01*
X96885364Y-103029686D01*
X96885366Y-103029697D01*
X96944258Y-103249488D01*
X96944261Y-103249497D01*
X97040431Y-103455732D01*
X97040432Y-103455734D01*
X97170954Y-103642141D01*
X97331858Y-103803045D01*
X97331861Y-103803047D01*
X97518266Y-103933568D01*
X97724504Y-104029739D01*
X97724509Y-104029740D01*
X97724511Y-104029741D01*
X97868136Y-104068225D01*
X97927797Y-104104590D01*
X97958326Y-104167437D01*
X97950031Y-104236812D01*
X97905546Y-104290690D01*
X97868136Y-104307775D01*
X97724511Y-104346258D01*
X97724502Y-104346261D01*
X97518267Y-104442431D01*
X97518265Y-104442432D01*
X97331858Y-104572954D01*
X97170954Y-104733858D01*
X97040432Y-104920265D01*
X97040431Y-104920267D01*
X96944261Y-105126502D01*
X96944258Y-105126511D01*
X96885366Y-105346302D01*
X96885364Y-105346313D01*
X96865532Y-105572998D01*
X96865532Y-105573001D01*
X96885364Y-105799686D01*
X96885366Y-105799697D01*
X96944258Y-106019488D01*
X96944261Y-106019497D01*
X97040431Y-106225732D01*
X97040432Y-106225734D01*
X97170954Y-106412141D01*
X97331858Y-106573045D01*
X97331861Y-106573047D01*
X97518266Y-106703568D01*
X97724504Y-106799739D01*
X97724509Y-106799740D01*
X97724511Y-106799741D01*
X97868136Y-106838225D01*
X97927797Y-106874590D01*
X97958326Y-106937437D01*
X97950031Y-107006812D01*
X97905546Y-107060690D01*
X97868136Y-107077775D01*
X97724511Y-107116258D01*
X97724502Y-107116261D01*
X97518267Y-107212431D01*
X97518265Y-107212432D01*
X97331858Y-107342954D01*
X97170954Y-107503858D01*
X97040432Y-107690265D01*
X97040431Y-107690267D01*
X96944261Y-107896502D01*
X96944258Y-107896511D01*
X96885366Y-108116302D01*
X96885364Y-108116313D01*
X96865532Y-108342998D01*
X96865532Y-108343001D01*
X96885364Y-108569686D01*
X96885366Y-108569697D01*
X96944258Y-108789488D01*
X96944261Y-108789497D01*
X97040431Y-108995732D01*
X97040432Y-108995734D01*
X97170954Y-109182141D01*
X97331858Y-109343045D01*
X97331861Y-109343047D01*
X97518266Y-109473568D01*
X97724504Y-109569739D01*
X97724509Y-109569740D01*
X97724511Y-109569741D01*
X97868136Y-109608225D01*
X97927797Y-109644590D01*
X97958326Y-109707437D01*
X97950031Y-109776812D01*
X97905546Y-109830690D01*
X97868136Y-109847775D01*
X97724511Y-109886258D01*
X97724502Y-109886261D01*
X97518267Y-109982431D01*
X97518265Y-109982432D01*
X97331858Y-110112954D01*
X97170954Y-110273858D01*
X97040432Y-110460265D01*
X97040431Y-110460267D01*
X96944261Y-110666502D01*
X96944258Y-110666511D01*
X96885366Y-110886302D01*
X96885364Y-110886313D01*
X96865532Y-111112998D01*
X96865532Y-111113001D01*
X95546132Y-111113001D01*
X95551968Y-111064188D01*
X95596453Y-111010310D01*
X95633862Y-110993225D01*
X95777496Y-110954739D01*
X95983734Y-110858568D01*
X96170139Y-110728047D01*
X96331047Y-110567139D01*
X96461568Y-110380734D01*
X96557739Y-110174496D01*
X96616635Y-109954692D01*
X96636422Y-109728523D01*
X96636468Y-109728001D01*
X96636468Y-109727998D01*
X96625403Y-109601523D01*
X96616635Y-109501308D01*
X96557739Y-109281504D01*
X96461568Y-109075266D01*
X96363839Y-108935693D01*
X96331045Y-108888858D01*
X96170141Y-108727954D01*
X95983734Y-108597432D01*
X95983732Y-108597431D01*
X95777497Y-108501261D01*
X95777488Y-108501258D01*
X95641805Y-108464903D01*
X95633862Y-108462774D01*
X95574202Y-108426410D01*
X95543673Y-108363563D01*
X95551968Y-108294188D01*
X95596453Y-108240310D01*
X95633862Y-108223225D01*
X95777496Y-108184739D01*
X95983734Y-108088568D01*
X96170139Y-107958047D01*
X96331047Y-107797139D01*
X96461568Y-107610734D01*
X96557739Y-107404496D01*
X96616635Y-107184692D01*
X96636468Y-106958000D01*
X96632197Y-106909188D01*
X96616635Y-106731313D01*
X96616635Y-106731308D01*
X96557739Y-106511504D01*
X96461568Y-106305266D01*
X96331047Y-106118861D01*
X96331045Y-106118858D01*
X96170141Y-105957954D01*
X95983734Y-105827432D01*
X95983732Y-105827431D01*
X95777497Y-105731261D01*
X95777488Y-105731258D01*
X95654966Y-105698429D01*
X95633862Y-105692774D01*
X95574202Y-105656410D01*
X95543673Y-105593563D01*
X95551968Y-105524188D01*
X95596453Y-105470310D01*
X95633862Y-105453225D01*
X95777496Y-105414739D01*
X95983734Y-105318568D01*
X96170139Y-105188047D01*
X96331047Y-105027139D01*
X96461568Y-104840734D01*
X96557739Y-104634496D01*
X96616635Y-104414692D01*
X96636468Y-104188000D01*
X96632197Y-104139188D01*
X96622622Y-104029738D01*
X96616635Y-103961308D01*
X96571916Y-103794415D01*
X96557741Y-103741511D01*
X96557738Y-103741502D01*
X96461568Y-103535267D01*
X96461567Y-103535265D01*
X96405879Y-103455734D01*
X96331047Y-103348861D01*
X96331045Y-103348858D01*
X96170141Y-103187954D01*
X95983734Y-103057432D01*
X95983732Y-103057431D01*
X95777497Y-102961261D01*
X95777488Y-102961258D01*
X95557697Y-102902366D01*
X95557693Y-102902365D01*
X95557692Y-102902365D01*
X95557691Y-102902364D01*
X95557686Y-102902364D01*
X95331002Y-102882532D01*
X95330998Y-102882532D01*
X95104313Y-102902364D01*
X95104302Y-102902366D01*
X94884511Y-102961258D01*
X94884502Y-102961261D01*
X94678267Y-103057431D01*
X94678265Y-103057432D01*
X94491858Y-103187954D01*
X94330954Y-103348858D01*
X94200432Y-103535265D01*
X94200431Y-103535267D01*
X94104261Y-103741502D01*
X94104258Y-103741511D01*
X94045366Y-103961302D01*
X94045364Y-103961313D01*
X94025532Y-104187998D01*
X94025532Y-104188001D01*
X94045364Y-104414686D01*
X94045366Y-104414697D01*
X94104258Y-104634488D01*
X94104261Y-104634497D01*
X94200431Y-104840732D01*
X94200432Y-104840734D01*
X94330954Y-105027141D01*
X94491858Y-105188045D01*
X94491861Y-105188047D01*
X94678266Y-105318568D01*
X94884504Y-105414739D01*
X94884506Y-105414739D01*
X94884513Y-105414742D01*
X94954938Y-105433611D01*
X95028136Y-105453225D01*
X95087796Y-105489588D01*
X95118326Y-105552435D01*
X95110032Y-105621811D01*
X95065547Y-105675689D01*
X95028137Y-105692774D01*
X94884509Y-105731259D01*
X94884502Y-105731261D01*
X94678267Y-105827431D01*
X94678265Y-105827432D01*
X94491858Y-105957954D01*
X94330954Y-106118858D01*
X94200432Y-106305265D01*
X94200431Y-106305267D01*
X94104261Y-106511502D01*
X94104258Y-106511511D01*
X94045366Y-106731302D01*
X94045364Y-106731313D01*
X94025532Y-106957998D01*
X94025532Y-106958001D01*
X94045364Y-107184686D01*
X94045366Y-107184697D01*
X94104258Y-107404488D01*
X94104261Y-107404497D01*
X94200431Y-107610732D01*
X94200432Y-107610734D01*
X94330954Y-107797141D01*
X94491858Y-107958045D01*
X94491861Y-107958047D01*
X94678266Y-108088568D01*
X94884504Y-108184739D01*
X94884506Y-108184739D01*
X94884513Y-108184742D01*
X94951371Y-108202656D01*
X95028136Y-108223225D01*
X95087796Y-108259588D01*
X95118326Y-108322435D01*
X95110032Y-108391811D01*
X95065547Y-108445689D01*
X95028137Y-108462774D01*
X94884509Y-108501259D01*
X94884502Y-108501261D01*
X94678267Y-108597431D01*
X94678265Y-108597432D01*
X94491858Y-108727954D01*
X94330954Y-108888858D01*
X94200432Y-109075265D01*
X94200431Y-109075267D01*
X94104261Y-109281502D01*
X94104258Y-109281511D01*
X94045366Y-109501302D01*
X94045364Y-109501313D01*
X94025532Y-109727998D01*
X94025532Y-109728001D01*
X94045364Y-109954686D01*
X94045366Y-109954697D01*
X94104258Y-110174488D01*
X94104261Y-110174497D01*
X94200431Y-110380732D01*
X94200432Y-110380734D01*
X94330954Y-110567141D01*
X94491858Y-110728045D01*
X94491861Y-110728047D01*
X94678266Y-110858568D01*
X94884504Y-110954739D01*
X94884509Y-110954740D01*
X94884511Y-110954741D01*
X95028136Y-110993225D01*
X95087797Y-111029590D01*
X95118326Y-111092437D01*
X95110031Y-111161812D01*
X95065546Y-111215690D01*
X95028136Y-111232775D01*
X94884511Y-111271258D01*
X94884502Y-111271261D01*
X94678267Y-111367431D01*
X94678265Y-111367432D01*
X94491858Y-111497954D01*
X94330954Y-111658858D01*
X94200432Y-111845265D01*
X94200431Y-111845267D01*
X94104261Y-112051502D01*
X94104258Y-112051511D01*
X94045366Y-112271302D01*
X94045364Y-112271313D01*
X94025532Y-112497998D01*
X94025532Y-112498001D01*
X87630500Y-112498001D01*
X87630500Y-95843005D01*
X94245556Y-95843005D01*
X94265310Y-96157004D01*
X94265311Y-96157011D01*
X94290281Y-96287906D01*
X94319481Y-96440981D01*
X94324270Y-96466083D01*
X94421497Y-96765316D01*
X94421499Y-96765321D01*
X94555461Y-97050003D01*
X94555464Y-97050009D01*
X94724051Y-97315661D01*
X94724054Y-97315665D01*
X94924606Y-97558090D01*
X94924608Y-97558092D01*
X94924610Y-97558094D01*
X95048570Y-97674500D01*
X95153968Y-97773476D01*
X95153978Y-97773484D01*
X95408504Y-97958408D01*
X95408509Y-97958410D01*
X95408516Y-97958416D01*
X95684234Y-98109994D01*
X95684239Y-98109996D01*
X95684241Y-98109997D01*
X95684242Y-98109998D01*
X95976771Y-98225818D01*
X95976774Y-98225819D01*
X96222498Y-98288910D01*
X96281527Y-98304066D01*
X96346026Y-98312214D01*
X96593670Y-98343499D01*
X96593679Y-98343499D01*
X96593682Y-98343500D01*
X96593684Y-98343500D01*
X96908316Y-98343500D01*
X96908318Y-98343500D01*
X96908321Y-98343499D01*
X96908329Y-98343499D01*
X97094593Y-98319968D01*
X97220473Y-98304066D01*
X97525225Y-98225819D01*
X97525228Y-98225818D01*
X97817757Y-98109998D01*
X97817758Y-98109997D01*
X97817756Y-98109997D01*
X97817766Y-98109994D01*
X98093484Y-97958416D01*
X98348030Y-97773478D01*
X98577390Y-97558094D01*
X98777947Y-97315663D01*
X98946537Y-97050007D01*
X99080503Y-96765315D01*
X99177731Y-96466079D01*
X99236688Y-96157015D01*
X99237166Y-96149418D01*
X99256444Y-95843005D01*
X99256444Y-95842994D01*
X99236689Y-95528995D01*
X99236688Y-95528988D01*
X99236688Y-95528985D01*
X99177731Y-95219921D01*
X99080503Y-94920685D01*
X98946537Y-94635993D01*
X98841854Y-94471038D01*
X98777948Y-94370338D01*
X98777945Y-94370334D01*
X98577393Y-94127909D01*
X98577391Y-94127907D01*
X98461538Y-94019113D01*
X98348030Y-93912522D01*
X98348027Y-93912520D01*
X98348021Y-93912515D01*
X98093495Y-93727591D01*
X98093488Y-93727586D01*
X98093484Y-93727584D01*
X97817766Y-93576006D01*
X97817763Y-93576004D01*
X97817758Y-93576002D01*
X97817757Y-93576001D01*
X97525228Y-93460181D01*
X97525225Y-93460180D01*
X97220476Y-93381934D01*
X97220463Y-93381932D01*
X96908329Y-93342500D01*
X96908318Y-93342500D01*
X96593682Y-93342500D01*
X96593670Y-93342500D01*
X96281536Y-93381932D01*
X96281523Y-93381934D01*
X95976774Y-93460180D01*
X95976771Y-93460181D01*
X95684242Y-93576001D01*
X95684241Y-93576002D01*
X95408516Y-93727584D01*
X95408504Y-93727591D01*
X95153978Y-93912515D01*
X95153968Y-93912523D01*
X94924608Y-94127907D01*
X94924606Y-94127909D01*
X94724054Y-94370334D01*
X94724051Y-94370338D01*
X94555464Y-94635990D01*
X94555461Y-94635996D01*
X94421499Y-94920678D01*
X94421497Y-94920683D01*
X94324270Y-95219916D01*
X94265311Y-95528988D01*
X94265310Y-95528995D01*
X94245556Y-95842994D01*
X94245556Y-95843005D01*
X87630500Y-95843005D01*
X87630500Y-90551000D01*
X90206341Y-90551000D01*
X90226936Y-90786403D01*
X90226938Y-90786413D01*
X90288094Y-91014655D01*
X90288096Y-91014659D01*
X90288097Y-91014663D01*
X90365428Y-91180500D01*
X90387965Y-91228830D01*
X90387967Y-91228834D01*
X90482477Y-91363807D01*
X90523505Y-91422401D01*
X90690599Y-91589495D01*
X90745957Y-91628257D01*
X90884165Y-91725032D01*
X90884167Y-91725033D01*
X90884170Y-91725035D01*
X91098337Y-91824903D01*
X91326592Y-91886063D01*
X91514918Y-91902539D01*
X91561999Y-91906659D01*
X91562000Y-91906659D01*
X91562001Y-91906659D01*
X91601234Y-91903226D01*
X91797408Y-91886063D01*
X92025663Y-91824903D01*
X92239830Y-91725035D01*
X92433401Y-91589495D01*
X92600495Y-91422401D01*
X92730424Y-91236842D01*
X92785002Y-91193217D01*
X92854500Y-91186023D01*
X92916855Y-91217546D01*
X92933575Y-91236842D01*
X93063500Y-91422395D01*
X93063505Y-91422401D01*
X93230599Y-91589495D01*
X93285957Y-91628257D01*
X93424165Y-91725032D01*
X93424167Y-91725033D01*
X93424170Y-91725035D01*
X93638337Y-91824903D01*
X93866592Y-91886063D01*
X94054918Y-91902539D01*
X94101999Y-91906659D01*
X94102000Y-91906659D01*
X94102001Y-91906659D01*
X94141234Y-91903226D01*
X94337408Y-91886063D01*
X94565663Y-91824903D01*
X94779830Y-91725035D01*
X94973401Y-91589495D01*
X95140495Y-91422401D01*
X95276035Y-91228830D01*
X95375903Y-91014663D01*
X95437063Y-90786408D01*
X95457659Y-90551000D01*
X95437063Y-90315592D01*
X95375903Y-90087337D01*
X95276035Y-89873171D01*
X95270425Y-89865158D01*
X95140494Y-89679597D01*
X94973402Y-89512506D01*
X94973396Y-89512501D01*
X94787842Y-89382575D01*
X94744217Y-89327998D01*
X94737023Y-89258500D01*
X94768546Y-89196145D01*
X94787842Y-89179425D01*
X94810026Y-89163891D01*
X94973401Y-89049495D01*
X95140495Y-88882401D01*
X95276035Y-88688830D01*
X95375903Y-88474663D01*
X95437063Y-88246408D01*
X95457659Y-88011000D01*
X95437063Y-87775592D01*
X95375903Y-87547337D01*
X95276035Y-87333171D01*
X95270425Y-87325158D01*
X95140494Y-87139597D01*
X94973402Y-86972506D01*
X94973396Y-86972501D01*
X94787842Y-86842575D01*
X94744217Y-86787998D01*
X94737023Y-86718500D01*
X94768546Y-86656145D01*
X94787842Y-86639425D01*
X94973282Y-86509578D01*
X94973401Y-86509495D01*
X95140495Y-86342401D01*
X95276035Y-86148830D01*
X95375903Y-85934663D01*
X95437063Y-85706408D01*
X95457659Y-85471000D01*
X95437063Y-85235592D01*
X95375903Y-85007337D01*
X95276035Y-84793171D01*
X95270425Y-84785158D01*
X95140494Y-84599597D01*
X94973402Y-84432506D01*
X94973396Y-84432501D01*
X94787842Y-84302575D01*
X94744217Y-84247998D01*
X94737023Y-84178500D01*
X94768546Y-84116145D01*
X94787842Y-84099425D01*
X94818134Y-84078214D01*
X94973401Y-83969495D01*
X95140495Y-83802401D01*
X95276035Y-83608830D01*
X95375903Y-83394663D01*
X95437063Y-83166408D01*
X95457659Y-82931000D01*
X95446548Y-82804000D01*
X100180422Y-82804000D01*
X100200722Y-83191339D01*
X100260066Y-83566023D01*
X100261398Y-83574433D01*
X100272978Y-83617652D01*
X100361788Y-83949094D01*
X100500787Y-84311197D01*
X100676877Y-84656793D01*
X100888122Y-84982082D01*
X100908572Y-85007335D01*
X101132219Y-85283516D01*
X101406484Y-85557781D01*
X101473927Y-85612395D01*
X101707917Y-85801877D01*
X102023559Y-86006857D01*
X102033211Y-86013125D01*
X102378806Y-86189214D01*
X102740913Y-86328214D01*
X103115567Y-86428602D01*
X103498662Y-86489278D01*
X103864576Y-86508455D01*
X103885999Y-86509578D01*
X103886000Y-86509578D01*
X103886001Y-86509578D01*
X103906300Y-86508514D01*
X104273338Y-86489278D01*
X104656433Y-86428602D01*
X105031087Y-86328214D01*
X105393194Y-86189214D01*
X105738789Y-86013125D01*
X106064084Y-85801876D01*
X106365516Y-85557781D01*
X106639781Y-85283516D01*
X106883876Y-84982084D01*
X107095125Y-84656789D01*
X107271214Y-84311194D01*
X107410214Y-83949087D01*
X107510602Y-83574433D01*
X107571278Y-83191338D01*
X107591578Y-82804000D01*
X107571278Y-82416662D01*
X107510602Y-82033567D01*
X107410214Y-81658913D01*
X107271214Y-81296806D01*
X107267173Y-81288876D01*
X107095122Y-80951206D01*
X106883877Y-80625917D01*
X106639784Y-80324488D01*
X106639781Y-80324484D01*
X106365516Y-80050219D01*
X106331164Y-80022401D01*
X106064082Y-79806122D01*
X105738793Y-79594877D01*
X105393197Y-79418787D01*
X105031094Y-79279788D01*
X105002835Y-79272216D01*
X104656433Y-79179398D01*
X104656429Y-79179397D01*
X104656428Y-79179397D01*
X104273339Y-79118722D01*
X103886001Y-79098422D01*
X103885999Y-79098422D01*
X103498660Y-79118722D01*
X103115572Y-79179397D01*
X103115570Y-79179397D01*
X102740905Y-79279788D01*
X102378802Y-79418787D01*
X102033206Y-79594877D01*
X101707917Y-79806122D01*
X101406488Y-80050215D01*
X101406480Y-80050222D01*
X101132222Y-80324480D01*
X101132215Y-80324488D01*
X100888122Y-80625917D01*
X100676877Y-80951206D01*
X100500787Y-81296802D01*
X100361788Y-81658905D01*
X100261397Y-82033570D01*
X100261397Y-82033572D01*
X100200722Y-82416660D01*
X100180422Y-82803999D01*
X100180422Y-82804000D01*
X95446548Y-82804000D01*
X95437063Y-82695592D01*
X95375903Y-82467337D01*
X95276035Y-82253171D01*
X95270425Y-82245158D01*
X95140494Y-82059597D01*
X94973402Y-81892506D01*
X94973395Y-81892501D01*
X94779834Y-81756967D01*
X94779830Y-81756965D01*
X94730174Y-81733810D01*
X94565663Y-81657097D01*
X94565659Y-81657096D01*
X94565655Y-81657094D01*
X94337413Y-81595938D01*
X94337403Y-81595936D01*
X94102001Y-81575341D01*
X94101999Y-81575341D01*
X93866596Y-81595936D01*
X93866586Y-81595938D01*
X93638344Y-81657094D01*
X93638335Y-81657098D01*
X93424171Y-81756964D01*
X93424169Y-81756965D01*
X93230597Y-81892505D01*
X93063505Y-82059597D01*
X92933575Y-82245158D01*
X92878998Y-82288783D01*
X92809500Y-82295977D01*
X92747145Y-82264454D01*
X92730425Y-82245158D01*
X92600496Y-82059600D01*
X92574463Y-82033567D01*
X92478567Y-81937671D01*
X92445084Y-81876351D01*
X92450068Y-81806659D01*
X92491939Y-81750725D01*
X92522915Y-81733810D01*
X92654331Y-81684796D01*
X92769546Y-81598546D01*
X92855796Y-81483331D01*
X92906091Y-81348483D01*
X92912500Y-81288873D01*
X92912499Y-79493128D01*
X92906091Y-79433517D01*
X92889008Y-79387716D01*
X92855797Y-79298671D01*
X92855793Y-79298664D01*
X92769547Y-79183455D01*
X92769544Y-79183452D01*
X92654335Y-79097206D01*
X92654328Y-79097202D01*
X92519482Y-79046908D01*
X92519483Y-79046908D01*
X92459883Y-79040501D01*
X92459881Y-79040500D01*
X92459873Y-79040500D01*
X92459864Y-79040500D01*
X90664129Y-79040500D01*
X90664123Y-79040501D01*
X90604516Y-79046908D01*
X90469671Y-79097202D01*
X90469664Y-79097206D01*
X90354455Y-79183452D01*
X90354452Y-79183455D01*
X90268206Y-79298664D01*
X90268202Y-79298671D01*
X90217908Y-79433517D01*
X90211501Y-79493116D01*
X90211501Y-79493123D01*
X90211500Y-79493135D01*
X90211500Y-81288870D01*
X90211501Y-81288876D01*
X90217908Y-81348483D01*
X90268202Y-81483328D01*
X90268206Y-81483335D01*
X90354452Y-81598544D01*
X90354455Y-81598547D01*
X90469664Y-81684793D01*
X90469671Y-81684797D01*
X90601081Y-81733810D01*
X90657015Y-81775681D01*
X90681432Y-81841145D01*
X90666580Y-81909418D01*
X90645430Y-81937673D01*
X90523503Y-82059600D01*
X90387965Y-82253169D01*
X90387964Y-82253171D01*
X90288098Y-82467335D01*
X90288094Y-82467344D01*
X90226938Y-82695586D01*
X90226936Y-82695596D01*
X90206341Y-82930999D01*
X90206341Y-82931000D01*
X90226936Y-83166403D01*
X90226938Y-83166413D01*
X90288094Y-83394655D01*
X90288096Y-83394659D01*
X90288097Y-83394663D01*
X90352525Y-83532829D01*
X90387965Y-83608830D01*
X90387967Y-83608834D01*
X90481158Y-83741923D01*
X90523501Y-83802396D01*
X90523506Y-83802402D01*
X90690597Y-83969493D01*
X90690603Y-83969498D01*
X90876158Y-84099425D01*
X90919783Y-84154002D01*
X90926977Y-84223500D01*
X90895454Y-84285855D01*
X90876158Y-84302575D01*
X90690597Y-84432505D01*
X90523505Y-84599597D01*
X90387965Y-84793169D01*
X90387964Y-84793171D01*
X90288098Y-85007335D01*
X90288094Y-85007344D01*
X90226938Y-85235586D01*
X90226936Y-85235596D01*
X90206341Y-85470999D01*
X90206341Y-85471000D01*
X90226936Y-85706403D01*
X90226938Y-85706413D01*
X90288094Y-85934655D01*
X90288096Y-85934659D01*
X90288097Y-85934663D01*
X90321762Y-86006857D01*
X90387965Y-86148830D01*
X90387967Y-86148834D01*
X90430473Y-86209538D01*
X90523501Y-86342396D01*
X90523506Y-86342402D01*
X90690597Y-86509493D01*
X90690603Y-86509498D01*
X90876158Y-86639425D01*
X90919783Y-86694002D01*
X90926977Y-86763500D01*
X90895454Y-86825855D01*
X90876158Y-86842575D01*
X90690597Y-86972505D01*
X90523505Y-87139597D01*
X90387965Y-87333169D01*
X90387964Y-87333171D01*
X90288098Y-87547335D01*
X90288094Y-87547344D01*
X90226938Y-87775586D01*
X90226936Y-87775596D01*
X90206341Y-88010999D01*
X90206341Y-88011000D01*
X90226936Y-88246403D01*
X90226938Y-88246413D01*
X90288094Y-88474655D01*
X90288096Y-88474659D01*
X90288097Y-88474663D01*
X90387964Y-88688830D01*
X90387965Y-88688830D01*
X90387967Y-88688834D01*
X90473274Y-88810664D01*
X90523501Y-88882396D01*
X90523506Y-88882402D01*
X90690597Y-89049493D01*
X90690603Y-89049498D01*
X90876158Y-89179425D01*
X90919783Y-89234002D01*
X90926977Y-89303500D01*
X90895454Y-89365855D01*
X90876158Y-89382575D01*
X90690597Y-89512505D01*
X90523505Y-89679597D01*
X90387965Y-89873169D01*
X90387964Y-89873171D01*
X90288098Y-90087335D01*
X90288094Y-90087344D01*
X90226938Y-90315586D01*
X90226936Y-90315596D01*
X90206341Y-90550999D01*
X90206341Y-90551000D01*
X87630500Y-90551000D01*
X87630500Y-74997763D01*
X91109787Y-74997763D01*
X91139413Y-75267013D01*
X91139415Y-75267024D01*
X91207926Y-75529082D01*
X91207928Y-75529088D01*
X91313870Y-75778390D01*
X91417528Y-75948239D01*
X91454979Y-76009605D01*
X91454986Y-76009615D01*
X91628253Y-76217819D01*
X91628259Y-76217824D01*
X91829998Y-76398582D01*
X92055910Y-76548044D01*
X92301176Y-76663020D01*
X92301183Y-76663022D01*
X92301185Y-76663023D01*
X92560557Y-76741057D01*
X92560564Y-76741058D01*
X92560569Y-76741060D01*
X92828561Y-76780500D01*
X92828566Y-76780500D01*
X93031636Y-76780500D01*
X93083133Y-76776730D01*
X93234156Y-76765677D01*
X93347794Y-76740363D01*
X93498546Y-76706782D01*
X93498548Y-76706781D01*
X93498553Y-76706780D01*
X93751558Y-76610014D01*
X93987777Y-76477441D01*
X94202177Y-76311888D01*
X94390186Y-76116881D01*
X94547799Y-75896579D01*
X94650024Y-75697750D01*
X94671649Y-75655690D01*
X94671651Y-75655684D01*
X94671656Y-75655675D01*
X94759118Y-75399305D01*
X94808319Y-75132933D01*
X94818212Y-74862235D01*
X94788586Y-74592982D01*
X94720072Y-74330912D01*
X94614130Y-74081610D01*
X94473018Y-73850390D01*
X94383747Y-73743119D01*
X94299746Y-73642180D01*
X94299740Y-73642175D01*
X94098002Y-73461418D01*
X93872092Y-73311957D01*
X93839578Y-73296715D01*
X93626824Y-73196980D01*
X93626819Y-73196978D01*
X93626814Y-73196976D01*
X93367442Y-73118942D01*
X93367428Y-73118939D01*
X93240019Y-73100189D01*
X93099439Y-73079500D01*
X92896369Y-73079500D01*
X92896364Y-73079500D01*
X92693844Y-73094323D01*
X92693831Y-73094325D01*
X92429453Y-73153217D01*
X92429446Y-73153220D01*
X92176439Y-73249987D01*
X91940226Y-73382557D01*
X91725822Y-73548112D01*
X91537822Y-73743109D01*
X91537816Y-73743116D01*
X91380202Y-73963419D01*
X91380199Y-73963424D01*
X91256350Y-74204309D01*
X91256343Y-74204327D01*
X91168884Y-74460685D01*
X91168882Y-74460695D01*
X91123863Y-74704429D01*
X91119681Y-74727068D01*
X91119680Y-74727075D01*
X91109787Y-74997763D01*
X87630500Y-74997763D01*
X87630500Y-73851437D01*
X87630566Y-73848574D01*
X87631097Y-73837073D01*
X87638500Y-73676940D01*
X87648302Y-73477444D01*
X87648818Y-73471955D01*
X87674670Y-73286633D01*
X87702331Y-73100162D01*
X87703292Y-73095137D01*
X87746689Y-72910626D01*
X87791993Y-72729764D01*
X87793323Y-72725216D01*
X87853915Y-72544431D01*
X87916457Y-72369641D01*
X87918100Y-72365527D01*
X87946657Y-72300852D01*
X87995368Y-72190530D01*
X88074615Y-72022977D01*
X88076444Y-72019423D01*
X88095587Y-71985055D01*
X126311500Y-71985055D01*
X126352210Y-72150226D01*
X126431263Y-72300849D01*
X126431266Y-72300852D01*
X126544071Y-72428183D01*
X126634318Y-72490476D01*
X126684068Y-72524817D01*
X126684069Y-72524817D01*
X126684070Y-72524818D01*
X126843128Y-72585140D01*
X126919028Y-72594356D01*
X126969626Y-72600500D01*
X126969628Y-72600500D01*
X127054374Y-72600500D01*
X127096538Y-72595380D01*
X127180872Y-72585140D01*
X127339930Y-72524818D01*
X127479929Y-72428183D01*
X127592734Y-72300852D01*
X127671790Y-72150225D01*
X127712500Y-71985056D01*
X127712500Y-71985055D01*
X129311500Y-71985055D01*
X129352210Y-72150226D01*
X129431263Y-72300849D01*
X129431266Y-72300852D01*
X129544071Y-72428183D01*
X129634318Y-72490476D01*
X129684068Y-72524817D01*
X129684069Y-72524817D01*
X129684070Y-72524818D01*
X129843128Y-72585140D01*
X129919028Y-72594356D01*
X129969626Y-72600500D01*
X129969628Y-72600500D01*
X130054374Y-72600500D01*
X130096538Y-72595380D01*
X130180872Y-72585140D01*
X130339930Y-72524818D01*
X130479929Y-72428183D01*
X130592734Y-72300852D01*
X130671790Y-72150225D01*
X130712500Y-71985056D01*
X130712500Y-71814944D01*
X130671790Y-71649775D01*
X130671789Y-71649773D01*
X130592736Y-71499150D01*
X130573560Y-71477505D01*
X130479929Y-71371817D01*
X130430177Y-71337475D01*
X130339931Y-71275182D01*
X130180874Y-71214860D01*
X130180868Y-71214859D01*
X130054374Y-71199500D01*
X130054372Y-71199500D01*
X129969628Y-71199500D01*
X129969626Y-71199500D01*
X129843131Y-71214859D01*
X129843125Y-71214860D01*
X129684068Y-71275182D01*
X129544072Y-71371816D01*
X129431263Y-71499150D01*
X129352210Y-71649773D01*
X129311500Y-71814944D01*
X129311500Y-71985055D01*
X127712500Y-71985055D01*
X127712500Y-71814944D01*
X127671790Y-71649775D01*
X127671789Y-71649773D01*
X127592736Y-71499150D01*
X127573560Y-71477505D01*
X127479929Y-71371817D01*
X127430177Y-71337475D01*
X127339931Y-71275182D01*
X127180874Y-71214860D01*
X127180868Y-71214859D01*
X127054374Y-71199500D01*
X127054372Y-71199500D01*
X126969628Y-71199500D01*
X126969626Y-71199500D01*
X126843131Y-71214859D01*
X126843125Y-71214860D01*
X126684068Y-71275182D01*
X126544072Y-71371816D01*
X126431263Y-71499150D01*
X126352210Y-71649773D01*
X126311500Y-71814944D01*
X126311500Y-71985055D01*
X88095587Y-71985055D01*
X88169781Y-71851852D01*
X88264990Y-71693005D01*
X88266979Y-71689904D01*
X88375570Y-71531381D01*
X88485924Y-71382586D01*
X88487928Y-71380033D01*
X88610875Y-71231973D01*
X88735351Y-71094636D01*
X88737361Y-71092526D01*
X88872526Y-70957361D01*
X88874636Y-70955351D01*
X89011973Y-70830875D01*
X89160033Y-70707928D01*
X89162586Y-70705924D01*
X89311381Y-70595570D01*
X89469904Y-70486979D01*
X89473005Y-70484990D01*
X89631858Y-70389778D01*
X89799423Y-70296444D01*
X89802977Y-70294615D01*
X89970530Y-70215368D01*
X90145538Y-70138095D01*
X90149641Y-70136457D01*
X90324431Y-70073915D01*
X90505216Y-70013323D01*
X90509764Y-70011993D01*
X90690626Y-69966689D01*
X90875137Y-69923292D01*
X90880162Y-69922331D01*
X91066651Y-69894667D01*
X91251955Y-69868818D01*
X91257446Y-69868302D01*
X91456958Y-69858500D01*
X91598945Y-69851935D01*
X91628577Y-69850566D01*
X91631440Y-69850500D01*
X163638560Y-69850500D01*
X163641423Y-69850566D01*
G37*
%TD.AperFunction*%
%TD*%
%TA.AperFunction,Conductor*%
%TO.N,+3V3*%
G36*
X149676039Y-89046685D02*
G01*
X149721794Y-89099489D01*
X149732999Y-89151000D01*
X149733000Y-136652000D01*
X153292000Y-136652000D01*
X153359039Y-136671685D01*
X153404794Y-136724489D01*
X153416000Y-136776000D01*
X153416000Y-141100000D01*
X153396315Y-141167039D01*
X153343511Y-141212794D01*
X153292000Y-141224000D01*
X147317000Y-141224000D01*
X147249961Y-141204315D01*
X147204206Y-141151511D01*
X147193000Y-141100000D01*
X147193000Y-130934000D01*
X147212685Y-130866961D01*
X147265489Y-130821206D01*
X147317000Y-130810000D01*
X148463000Y-130810000D01*
X148463000Y-91059001D01*
X148463000Y-91059000D01*
X147505280Y-90460425D01*
X147458864Y-90408201D01*
X147447000Y-90355273D01*
X147447000Y-89151000D01*
X147466685Y-89083961D01*
X147519489Y-89038206D01*
X147571000Y-89027000D01*
X149609000Y-89027000D01*
X149676039Y-89046685D01*
G37*
%TD.AperFunction*%
%TD*%
%TA.AperFunction,Conductor*%
%TO.N,+5V*%
G36*
X153994039Y-87522685D02*
G01*
X154039794Y-87575489D01*
X154051000Y-87627000D01*
X154051000Y-128524000D01*
X155705000Y-128524000D01*
X155772039Y-128543685D01*
X155817794Y-128596489D01*
X155829000Y-128648000D01*
X155829000Y-133685773D01*
X155809315Y-133752812D01*
X155756511Y-133798567D01*
X155752453Y-133800334D01*
X155645650Y-133844574D01*
X155645224Y-133843547D01*
X155591292Y-133858000D01*
X150492000Y-133858000D01*
X150424961Y-133838315D01*
X150379206Y-133785511D01*
X150368000Y-133734000D01*
X150368000Y-128648000D01*
X150387685Y-128580961D01*
X150440489Y-128535206D01*
X150492000Y-128524000D01*
X152781000Y-128524000D01*
X152781000Y-128523999D01*
X152780929Y-128502070D01*
X152748424Y-118392991D01*
X152748952Y-118384732D01*
X152751682Y-118364000D01*
X152748762Y-118341827D01*
X152748234Y-118333963D01*
X152742843Y-116657379D01*
X152743371Y-116649123D01*
X152751682Y-116586000D01*
X152742903Y-116519317D01*
X152742374Y-116511450D01*
X152691292Y-100624906D01*
X152654001Y-89027000D01*
X152654000Y-89027000D01*
X152270000Y-89027000D01*
X152202961Y-89007315D01*
X152157206Y-88954511D01*
X152146000Y-88903000D01*
X152146000Y-87627000D01*
X152165685Y-87559961D01*
X152218489Y-87514206D01*
X152270000Y-87503000D01*
X153927000Y-87503000D01*
X153994039Y-87522685D01*
G37*
%TD.AperFunction*%
%TD*%
M02*
