%TF.GenerationSoftware,KiCad,Pcbnew,7.0.6*%
%TF.CreationDate,2023-11-26T18:31:55-07:00*%
%TF.ProjectId,H2 Sensor Board Lucy Rev 1,48322053-656e-4736-9f72-20426f617264,rev?*%
%TF.SameCoordinates,Original*%
%TF.FileFunction,Soldermask,Top*%
%TF.FilePolarity,Negative*%
%FSLAX46Y46*%
G04 Gerber Fmt 4.6, Leading zero omitted, Abs format (unit mm)*
G04 Created by KiCad (PCBNEW 7.0.6) date 2023-11-26 18:31:55*
%MOMM*%
%LPD*%
G01*
G04 APERTURE LIST*
G04 Aperture macros list*
%AMRoundRect*
0 Rectangle with rounded corners*
0 $1 Rounding radius*
0 $2 $3 $4 $5 $6 $7 $8 $9 X,Y pos of 4 corners*
0 Add a 4 corners polygon primitive as box body*
4,1,4,$2,$3,$4,$5,$6,$7,$8,$9,$2,$3,0*
0 Add four circle primitives for the rounded corners*
1,1,$1+$1,$2,$3*
1,1,$1+$1,$4,$5*
1,1,$1+$1,$6,$7*
1,1,$1+$1,$8,$9*
0 Add four rect primitives between the rounded corners*
20,1,$1+$1,$2,$3,$4,$5,0*
20,1,$1+$1,$4,$5,$6,$7,0*
20,1,$1+$1,$6,$7,$8,$9,0*
20,1,$1+$1,$8,$9,$2,$3,0*%
%AMFreePoly0*
4,1,19,0.500000,-0.750000,0.000000,-0.750000,0.000000,-0.744911,-0.071157,-0.744911,-0.207708,-0.704816,-0.327430,-0.627875,-0.420627,-0.520320,-0.479746,-0.390866,-0.500000,-0.250000,-0.500000,0.250000,-0.479746,0.390866,-0.420627,0.520320,-0.327430,0.627875,-0.207708,0.704816,-0.071157,0.744911,0.000000,0.744911,0.000000,0.750000,0.500000,0.750000,0.500000,-0.750000,0.500000,-0.750000,
$1*%
%AMFreePoly1*
4,1,19,0.000000,0.744911,0.071157,0.744911,0.207708,0.704816,0.327430,0.627875,0.420627,0.520320,0.479746,0.390866,0.500000,0.250000,0.500000,-0.250000,0.479746,-0.390866,0.420627,-0.520320,0.327430,-0.627875,0.207708,-0.704816,0.071157,-0.744911,0.000000,-0.744911,0.000000,-0.750000,-0.500000,-0.750000,-0.500000,0.750000,0.000000,0.750000,0.000000,0.744911,0.000000,0.744911,
$1*%
G04 Aperture macros list end*
%ADD10RoundRect,0.200000X-0.200000X-0.275000X0.200000X-0.275000X0.200000X0.275000X-0.200000X0.275000X0*%
%ADD11RoundRect,0.243750X0.456250X-0.243750X0.456250X0.243750X-0.456250X0.243750X-0.456250X-0.243750X0*%
%ADD12RoundRect,0.250001X0.499999X-0.499999X0.499999X0.499999X-0.499999X0.499999X-0.499999X-0.499999X0*%
%ADD13C,1.500000*%
%ADD14C,3.410000*%
%ADD15RoundRect,0.140000X-0.140000X-0.170000X0.140000X-0.170000X0.140000X0.170000X-0.140000X0.170000X0*%
%ADD16R,0.250000X0.650000*%
%ADD17R,2.500000X1.700000*%
%ADD18RoundRect,0.250000X-0.475000X0.250000X-0.475000X-0.250000X0.475000X-0.250000X0.475000X0.250000X0*%
%ADD19RoundRect,0.225000X-0.250000X0.225000X-0.250000X-0.225000X0.250000X-0.225000X0.250000X0.225000X0*%
%ADD20RoundRect,0.250000X0.475000X-0.250000X0.475000X0.250000X-0.475000X0.250000X-0.475000X-0.250000X0*%
%ADD21R,1.700000X1.700000*%
%ADD22O,1.700000X1.700000*%
%ADD23RoundRect,0.250000X0.450000X-0.262500X0.450000X0.262500X-0.450000X0.262500X-0.450000X-0.262500X0*%
%ADD24RoundRect,0.225000X-0.225000X-0.250000X0.225000X-0.250000X0.225000X0.250000X-0.225000X0.250000X0*%
%ADD25RoundRect,0.250000X-0.250000X-0.475000X0.250000X-0.475000X0.250000X0.475000X-0.250000X0.475000X0*%
%ADD26RoundRect,0.062500X0.375000X0.062500X-0.375000X0.062500X-0.375000X-0.062500X0.375000X-0.062500X0*%
%ADD27RoundRect,0.062500X0.062500X0.375000X-0.062500X0.375000X-0.062500X-0.375000X0.062500X-0.375000X0*%
%ADD28R,3.450000X3.450000*%
%ADD29C,3.200000*%
%ADD30RoundRect,0.200000X0.200000X0.275000X-0.200000X0.275000X-0.200000X-0.275000X0.200000X-0.275000X0*%
%ADD31C,4.000000*%
%ADD32R,1.600000X1.600000*%
%ADD33C,1.600000*%
%ADD34RoundRect,0.200000X0.275000X-0.200000X0.275000X0.200000X-0.275000X0.200000X-0.275000X-0.200000X0*%
%ADD35RoundRect,0.250000X-0.325000X-1.100000X0.325000X-1.100000X0.325000X1.100000X-0.325000X1.100000X0*%
%ADD36RoundRect,0.250000X-0.450000X0.262500X-0.450000X-0.262500X0.450000X-0.262500X0.450000X0.262500X0*%
%ADD37RoundRect,0.150000X0.825000X0.150000X-0.825000X0.150000X-0.825000X-0.150000X0.825000X-0.150000X0*%
%ADD38FreePoly0,270.000000*%
%ADD39FreePoly1,270.000000*%
%ADD40RoundRect,0.218750X-0.218750X-0.381250X0.218750X-0.381250X0.218750X0.381250X-0.218750X0.381250X0*%
%ADD41RoundRect,0.140000X0.140000X0.170000X-0.140000X0.170000X-0.140000X-0.170000X0.140000X-0.170000X0*%
%ADD42R,1.910000X0.610000*%
%ADD43R,1.205000X1.550000*%
%ADD44RoundRect,0.140000X-0.170000X0.140000X-0.170000X-0.140000X0.170000X-0.140000X0.170000X0.140000X0*%
%ADD45R,0.500000X0.350000*%
%ADD46RoundRect,0.250000X0.262500X0.450000X-0.262500X0.450000X-0.262500X-0.450000X0.262500X-0.450000X0*%
%ADD47FreePoly0,0.000000*%
%ADD48FreePoly1,0.000000*%
%ADD49RoundRect,0.243750X-0.243750X-0.456250X0.243750X-0.456250X0.243750X0.456250X-0.243750X0.456250X0*%
%ADD50RoundRect,0.225000X0.250000X-0.225000X0.250000X0.225000X-0.250000X0.225000X-0.250000X-0.225000X0*%
%ADD51R,1.200000X0.600000*%
%ADD52RoundRect,0.150000X0.150000X-0.587500X0.150000X0.587500X-0.150000X0.587500X-0.150000X-0.587500X0*%
%ADD53RoundRect,0.243750X0.243750X0.456250X-0.243750X0.456250X-0.243750X-0.456250X0.243750X-0.456250X0*%
%ADD54O,2.900000X3.800000*%
%ADD55RoundRect,0.200000X-0.275000X0.200000X-0.275000X-0.200000X0.275000X-0.200000X0.275000X0.200000X0*%
%ADD56C,2.000000*%
%ADD57RoundRect,0.250000X0.325000X1.100000X-0.325000X1.100000X-0.325000X-1.100000X0.325000X-1.100000X0*%
%ADD58RoundRect,0.150000X0.587500X0.150000X-0.587500X0.150000X-0.587500X-0.150000X0.587500X-0.150000X0*%
%ADD59RoundRect,0.250000X-0.550000X1.500000X-0.550000X-1.500000X0.550000X-1.500000X0.550000X1.500000X0*%
%ADD60RoundRect,0.250000X-0.262500X-0.450000X0.262500X-0.450000X0.262500X0.450000X-0.262500X0.450000X0*%
%ADD61R,1.000000X0.800000*%
%ADD62C,0.900000*%
%ADD63R,0.700000X1.500000*%
%ADD64R,1.400000X1.200000*%
%ADD65R,2.900000X5.400000*%
%ADD66R,1.350000X0.400000*%
%ADD67O,1.550000X0.890000*%
%ADD68R,1.550000X1.200000*%
%ADD69O,0.950000X1.250000*%
%ADD70R,1.550000X1.500000*%
%ADD71R,2.000000X1.500000*%
%ADD72R,2.000000X3.800000*%
%ADD73RoundRect,0.140000X0.170000X-0.140000X0.170000X0.140000X-0.170000X0.140000X-0.170000X-0.140000X0*%
%ADD74RoundRect,0.243750X-0.456250X0.243750X-0.456250X-0.243750X0.456250X-0.243750X0.456250X0.243750X0*%
%ADD75C,1.400000*%
%ADD76O,1.400000X1.400000*%
%ADD77RoundRect,0.250000X-1.500000X-0.550000X1.500000X-0.550000X1.500000X0.550000X-1.500000X0.550000X0*%
%ADD78RoundRect,0.225000X-0.225000X-0.375000X0.225000X-0.375000X0.225000X0.375000X-0.225000X0.375000X0*%
%ADD79C,6.400000*%
%ADD80RoundRect,0.150000X0.512500X0.150000X-0.512500X0.150000X-0.512500X-0.150000X0.512500X-0.150000X0*%
%ADD81C,1.000000*%
%ADD82RoundRect,0.150000X-0.150000X0.512500X-0.150000X-0.512500X0.150000X-0.512500X0.150000X0.512500X0*%
G04 APERTURE END LIST*
D10*
%TO.C,R2*%
X116218200Y-133197600D03*
X117868200Y-133197600D03*
%TD*%
D11*
%TO.C,F1*%
X160782000Y-114599500D03*
X160782000Y-112724500D03*
%TD*%
D12*
%TO.C,J2*%
X94787000Y-135334000D03*
D13*
X94787000Y-132334000D03*
X94787000Y-129334000D03*
X97787000Y-135334000D03*
X97787000Y-132334000D03*
X97787000Y-129334000D03*
D14*
X90467000Y-137484000D03*
X90467000Y-127184000D03*
%TD*%
D15*
%TO.C,C7*%
X120043000Y-107950000D03*
X121003000Y-107950000D03*
%TD*%
D16*
%TO.C,U8*%
X150604000Y-120309000D03*
X150154000Y-120309000D03*
X149704000Y-120309000D03*
X149254000Y-120309000D03*
X148804000Y-120309000D03*
X148354000Y-120309000D03*
X148354000Y-123409000D03*
X148804000Y-123409000D03*
X149254000Y-123409000D03*
X149704000Y-123409000D03*
X150154000Y-123409000D03*
X150604000Y-123409000D03*
D17*
X149479000Y-121859000D03*
%TD*%
D15*
%TO.C,C29*%
X131854000Y-97409000D03*
X132814000Y-97409000D03*
%TD*%
D18*
%TO.C,C22*%
X156845000Y-131765000D03*
X156845000Y-133665000D03*
%TD*%
D19*
%TO.C,C18*%
X130252000Y-140957000D03*
X130252000Y-142507000D03*
%TD*%
D20*
%TO.C,C23*%
X156845000Y-137221000D03*
X156845000Y-135321000D03*
%TD*%
D10*
%TO.C,R3*%
X116142000Y-134747000D03*
X117792000Y-134747000D03*
%TD*%
D21*
%TO.C,J1*%
X103124000Y-122682000D03*
D22*
X105664000Y-122682000D03*
X108204000Y-122682000D03*
X110744000Y-122682000D03*
X113284000Y-122682000D03*
X115824000Y-122682000D03*
%TD*%
D23*
%TO.C,R5*%
X104394000Y-134262500D03*
X104394000Y-132437500D03*
%TD*%
D24*
%TO.C,C15*%
X126733000Y-137922000D03*
X128283000Y-137922000D03*
%TD*%
D18*
%TO.C,C24*%
X156845000Y-139394000D03*
X156845000Y-141294000D03*
%TD*%
D25*
%TO.C,C13*%
X149672000Y-117729000D03*
X151572000Y-117729000D03*
%TD*%
D26*
%TO.C,U1*%
X125568500Y-113373000D03*
X125568500Y-112873000D03*
X125568500Y-112373000D03*
X125568500Y-111873000D03*
X125568500Y-111373000D03*
X125568500Y-110873000D03*
X125568500Y-110373000D03*
X125568500Y-109873000D03*
D27*
X124881000Y-109185500D03*
X124381000Y-109185500D03*
X123881000Y-109185500D03*
X123381000Y-109185500D03*
X122881000Y-109185500D03*
X122381000Y-109185500D03*
X121881000Y-109185500D03*
X121381000Y-109185500D03*
D26*
X120693500Y-109873000D03*
X120693500Y-110373000D03*
X120693500Y-110873000D03*
X120693500Y-111373000D03*
X120693500Y-111873000D03*
X120693500Y-112373000D03*
X120693500Y-112873000D03*
X120693500Y-113373000D03*
D27*
X121381000Y-114060500D03*
X121881000Y-114060500D03*
X122381000Y-114060500D03*
X122881000Y-114060500D03*
X123381000Y-114060500D03*
X123881000Y-114060500D03*
X124381000Y-114060500D03*
X124881000Y-114060500D03*
D28*
X123131000Y-111623000D03*
%TD*%
D29*
%TO.C,H3*%
X162306000Y-144780000D03*
%TD*%
D30*
%TO.C,R27*%
X120840000Y-133223000D03*
X119190000Y-133223000D03*
%TD*%
D23*
%TO.C,R24*%
X115062000Y-81303500D03*
X115062000Y-79478500D03*
%TD*%
D31*
%TO.C,J3*%
X96751000Y-95843000D03*
X96751000Y-120843000D03*
D32*
X98171000Y-113883000D03*
D33*
X98171000Y-111113000D03*
X98171000Y-108343000D03*
X98171000Y-105573000D03*
X98171000Y-102803000D03*
X95331000Y-112498000D03*
X95331000Y-109728000D03*
X95331000Y-106958000D03*
X95331000Y-104188000D03*
%TD*%
D34*
%TO.C,R25*%
X127127000Y-84518000D03*
X127127000Y-82868000D03*
%TD*%
D35*
%TO.C,C28*%
X125779000Y-135382000D03*
X128729000Y-135382000D03*
%TD*%
D36*
%TO.C,R7*%
X100076000Y-135485500D03*
X100076000Y-137310500D03*
%TD*%
D37*
%TO.C,U7*%
X108266000Y-113665000D03*
X108266000Y-112395000D03*
X108266000Y-111125000D03*
X108266000Y-109855000D03*
X103316000Y-109855000D03*
X103316000Y-111125000D03*
X103316000Y-112395000D03*
X103316000Y-113665000D03*
%TD*%
D38*
%TO.C,JP1*%
X133350000Y-102220000D03*
D39*
X133350000Y-103520000D03*
%TD*%
D40*
%TO.C,FB1*%
X134400000Y-109601000D03*
X136525000Y-109601000D03*
%TD*%
D41*
%TO.C,C8*%
X126083000Y-115316000D03*
X125123000Y-115316000D03*
%TD*%
D36*
%TO.C,R6*%
X106426000Y-134342500D03*
X106426000Y-136167500D03*
%TD*%
D23*
%TO.C,R16*%
X147828000Y-117879500D03*
X147828000Y-116054500D03*
%TD*%
D42*
%TO.C,U4*%
X108704000Y-132325000D03*
X108704000Y-133595000D03*
X108704000Y-134865000D03*
X108704000Y-136135000D03*
X114264000Y-136135000D03*
X114264000Y-134865000D03*
X114264000Y-133595000D03*
X114264000Y-132325000D03*
D43*
X110881500Y-133455000D03*
X110881500Y-135005000D03*
X112086500Y-133455000D03*
X112086500Y-135005000D03*
%TD*%
D44*
%TO.C,C3*%
X137160000Y-73447000D03*
X137160000Y-74407000D03*
%TD*%
D41*
%TO.C,C5*%
X103604000Y-108585000D03*
X102644000Y-108585000D03*
%TD*%
D19*
%TO.C,C26*%
X155187000Y-118671000D03*
X155187000Y-120221000D03*
%TD*%
D45*
%TO.C,U9*%
X133876000Y-98339000D03*
X133876000Y-98989000D03*
X133876000Y-99639000D03*
X133876000Y-100289000D03*
X131826000Y-100289000D03*
X131826000Y-99639000D03*
X131826000Y-98989000D03*
X131826000Y-98339000D03*
%TD*%
D46*
%TO.C,R19*%
X156614500Y-114932000D03*
X154789500Y-114932000D03*
%TD*%
D29*
%TO.C,H2*%
X162306000Y-74930000D03*
%TD*%
D47*
%TO.C,JP3*%
X119365000Y-127381000D03*
D48*
X120665000Y-127381000D03*
%TD*%
D49*
%TO.C,D2*%
X150022000Y-127305000D03*
X151897000Y-127305000D03*
%TD*%
D50*
%TO.C,C31*%
X125603000Y-82817000D03*
X125603000Y-81267000D03*
%TD*%
D51*
%TO.C,D13*%
X159766000Y-122936000D03*
X159766000Y-121986000D03*
X159766000Y-121036000D03*
X157466000Y-121036000D03*
X157466000Y-121986000D03*
X157466000Y-122936000D03*
%TD*%
D36*
%TO.C,R23*%
X113108500Y-81383500D03*
X113108500Y-83208500D03*
%TD*%
D52*
%TO.C,D11*%
X156784000Y-112313500D03*
X158684000Y-112313500D03*
X157734000Y-110438500D03*
%TD*%
D36*
%TO.C,R9*%
X122886000Y-140057500D03*
X122886000Y-141882500D03*
%TD*%
D53*
%TO.C,D14*%
X156639500Y-116964000D03*
X154764500Y-116964000D03*
%TD*%
D54*
%TO.C,J8*%
X139827000Y-106680000D03*
X162941000Y-106680000D03*
X139827000Y-84328000D03*
X162941000Y-84328000D03*
D21*
X139192000Y-99314000D03*
D22*
X139192000Y-96774000D03*
X139192000Y-94234000D03*
X139192000Y-91694000D03*
%TD*%
D19*
%TO.C,C10*%
X132461000Y-111305000D03*
X132461000Y-112855000D03*
%TD*%
D55*
%TO.C,R21*%
X135382000Y-97664000D03*
X135382000Y-99314000D03*
%TD*%
D56*
%TO.C,SW2*%
X148844000Y-71664000D03*
X155344000Y-71664000D03*
X148844000Y-76164000D03*
X155344000Y-76164000D03*
%TD*%
D57*
%TO.C,C16*%
X131523000Y-128778000D03*
X128573000Y-128778000D03*
%TD*%
D21*
%TO.C,J4*%
X91562000Y-80391000D03*
D22*
X94102000Y-80391000D03*
X91562000Y-82931000D03*
X94102000Y-82931000D03*
X91562000Y-85471000D03*
X94102000Y-85471000D03*
X91562000Y-88011000D03*
X94102000Y-88011000D03*
X91562000Y-90551000D03*
X94102000Y-90551000D03*
%TD*%
D58*
%TO.C,Q2*%
X110998000Y-83246000D03*
X110998000Y-81346000D03*
X109123000Y-82296000D03*
%TD*%
D23*
%TO.C,R15*%
X121920000Y-120595000D03*
X121920000Y-118770000D03*
%TD*%
D30*
%TO.C,R28*%
X120840000Y-134747000D03*
X119190000Y-134747000D03*
%TD*%
D41*
%TO.C,C4*%
X111732000Y-110998000D03*
X110772000Y-110998000D03*
%TD*%
D18*
%TO.C,C25*%
X106680000Y-137734000D03*
X106680000Y-139634000D03*
%TD*%
D59*
%TO.C,C20*%
X114356500Y-139125000D03*
X114356500Y-144725000D03*
%TD*%
D29*
%TO.C,H1*%
X92964000Y-74930000D03*
%TD*%
D60*
%TO.C,R11*%
X148917500Y-144154000D03*
X150742500Y-144154000D03*
%TD*%
D11*
%TO.C,D8*%
X121920000Y-124303000D03*
X121920000Y-122428000D03*
%TD*%
D46*
%TO.C,R10*%
X155379500Y-127305000D03*
X153554500Y-127305000D03*
%TD*%
D44*
%TO.C,C1*%
X132080000Y-107851000D03*
X132080000Y-108811000D03*
%TD*%
D41*
%TO.C,C14*%
X149578000Y-119253000D03*
X148618000Y-119253000D03*
%TD*%
D61*
%TO.C,SW1*%
X132162000Y-73010000D03*
X132162000Y-70800000D03*
D62*
X130012000Y-71900000D03*
X127012000Y-71900000D03*
D61*
X124862000Y-73010000D03*
X124862000Y-70800000D03*
D63*
X130762000Y-73660000D03*
X127762000Y-73660000D03*
X126262000Y-73660000D03*
%TD*%
D15*
%TO.C,C35*%
X121313000Y-86106000D03*
X122273000Y-86106000D03*
%TD*%
D20*
%TO.C,C21*%
X145923000Y-134173000D03*
X145923000Y-132273000D03*
%TD*%
D56*
%TO.C,SW3*%
X139244000Y-71664000D03*
X145744000Y-71664000D03*
X139244000Y-76164000D03*
X145744000Y-76164000D03*
%TD*%
D41*
%TO.C,C27*%
X159484000Y-119634000D03*
X158524000Y-119634000D03*
%TD*%
D29*
%TO.C,H4*%
X93000000Y-144780000D03*
%TD*%
D64*
%TO.C,U2*%
X130259000Y-107354000D03*
X128059000Y-107354000D03*
X128059000Y-109054000D03*
X130259000Y-109054000D03*
%TD*%
D65*
%TO.C,L1*%
X133102000Y-140716000D03*
X143002000Y-140716000D03*
%TD*%
D32*
%TO.C,BZ1*%
X104498000Y-99314000D03*
D33*
X110998000Y-99314000D03*
%TD*%
D66*
%TO.C,J6*%
X163315000Y-123265000D03*
X163315000Y-122615000D03*
X163315000Y-121965000D03*
X163315000Y-121315000D03*
X163315000Y-120665000D03*
D67*
X166015000Y-125465000D03*
D68*
X166015000Y-124865000D03*
D69*
X163315000Y-124465000D03*
D70*
X166015000Y-122965000D03*
X166015000Y-120965000D03*
D69*
X163315000Y-119465000D03*
D68*
X166015000Y-119065000D03*
D67*
X166015000Y-118465000D03*
%TD*%
D53*
%TO.C,D3*%
X154245000Y-144154000D03*
X152370000Y-144154000D03*
%TD*%
D18*
%TO.C,C11*%
X134366000Y-111318000D03*
X134366000Y-113218000D03*
%TD*%
D71*
%TO.C,U3*%
X148234000Y-129653000D03*
X148234000Y-131953000D03*
D72*
X154534000Y-131953000D03*
D71*
X148234000Y-134253000D03*
%TD*%
D52*
%TO.C,Q1*%
X102682000Y-141829000D03*
X104582000Y-141829000D03*
X103632000Y-139954000D03*
%TD*%
D41*
%TO.C,C6*%
X148943000Y-124587000D03*
X147983000Y-124587000D03*
%TD*%
D44*
%TO.C,C2*%
X157353000Y-71656000D03*
X157353000Y-72616000D03*
%TD*%
D10*
%TO.C,R18*%
X152076000Y-120208000D03*
X153726000Y-120208000D03*
%TD*%
D23*
%TO.C,R13*%
X125984000Y-120595000D03*
X125984000Y-118770000D03*
%TD*%
D60*
%TO.C,R1*%
X127738500Y-75819000D03*
X129563500Y-75819000D03*
%TD*%
D73*
%TO.C,C30*%
X130810000Y-99667000D03*
X130810000Y-98707000D03*
%TD*%
D38*
%TO.C,JP2*%
X130556000Y-102220000D03*
D39*
X130556000Y-103520000D03*
%TD*%
D46*
%TO.C,R4*%
X114348900Y-130505200D03*
X112523900Y-130505200D03*
%TD*%
D11*
%TO.C,D4*%
X108641500Y-143237500D03*
X108641500Y-141362500D03*
%TD*%
D50*
%TO.C,C19*%
X155187000Y-125047000D03*
X155187000Y-123497000D03*
%TD*%
D34*
%TO.C,R22*%
X135636000Y-102488000D03*
X135636000Y-100838000D03*
%TD*%
D74*
%TO.C,D12*%
X145796000Y-116029500D03*
X145796000Y-117904500D03*
%TD*%
D75*
%TO.C,R20*%
X109601000Y-127381000D03*
D76*
X117221000Y-127381000D03*
%TD*%
D24*
%TO.C,C9*%
X127114000Y-114046000D03*
X128664000Y-114046000D03*
%TD*%
D74*
%TO.C,D5*%
X119507000Y-83009500D03*
X119507000Y-84884500D03*
%TD*%
D73*
%TO.C,C32*%
X106934000Y-133040000D03*
X106934000Y-132080000D03*
%TD*%
D77*
%TO.C,C34*%
X159887000Y-137287000D03*
X165487000Y-137287000D03*
%TD*%
D11*
%TO.C,D7*%
X123952000Y-124303000D03*
X123952000Y-122428000D03*
%TD*%
D23*
%TO.C,R14*%
X123952000Y-120595000D03*
X123952000Y-118770000D03*
%TD*%
D36*
%TO.C,R8*%
X124918000Y-140057500D03*
X124918000Y-141882500D03*
%TD*%
D11*
%TO.C,D1*%
X100076000Y-140891500D03*
X100076000Y-139016500D03*
%TD*%
D78*
%TO.C,D15*%
X111378000Y-85979000D03*
X108078000Y-85979000D03*
%TD*%
D36*
%TO.C,R12*%
X108641500Y-137831500D03*
X108641500Y-139656500D03*
%TD*%
D79*
%TO.C,U10*%
X103886000Y-82804000D03*
D21*
X129794000Y-85344000D03*
D22*
X129794000Y-82804000D03*
X129794000Y-80264000D03*
%TD*%
D77*
%TO.C,C33*%
X159887000Y-130048000D03*
X165487000Y-130048000D03*
%TD*%
D80*
%TO.C,U11*%
X123814000Y-84831000D03*
X123814000Y-83881000D03*
X123814000Y-82931000D03*
X121539000Y-82931000D03*
X121539000Y-84831000D03*
%TD*%
D11*
%TO.C,D6*%
X125984000Y-124303000D03*
X125984000Y-122428000D03*
%TD*%
D57*
%TO.C,C17*%
X131523000Y-132080000D03*
X128573000Y-132080000D03*
%TD*%
D71*
%TO.C,U6*%
X154534000Y-141619000D03*
X154534000Y-139319000D03*
D72*
X148234000Y-139319000D03*
D71*
X154534000Y-137019000D03*
%TD*%
D81*
%TO.C,TP1*%
X118364000Y-109474000D03*
%TD*%
D10*
%TO.C,R17*%
X152076000Y-123510000D03*
X153726000Y-123510000D03*
%TD*%
D18*
%TO.C,C12*%
X136525000Y-111318000D03*
X136525000Y-113218000D03*
%TD*%
D82*
%TO.C,U5*%
X128662000Y-139578500D03*
X127712000Y-139578500D03*
X126762000Y-139578500D03*
X126762000Y-141853500D03*
X127712000Y-141853500D03*
X128662000Y-141853500D03*
%TD*%
D34*
%TO.C,R26*%
X101346000Y-112585000D03*
X101346000Y-110935000D03*
%TD*%
D74*
%TO.C,D9*%
X158496000Y-115010500D03*
X158496000Y-116885500D03*
%TD*%
M02*
