%TF.GenerationSoftware,KiCad,Pcbnew,7.0.6*%
%TF.CreationDate,2023-10-05T23:14:00-06:00*%
%TF.ProjectId,CAN-USB RF Module,43414e2d-5553-4422-9052-46204d6f6475,1.0*%
%TF.SameCoordinates,Original*%
%TF.FileFunction,Soldermask,Top*%
%TF.FilePolarity,Negative*%
%FSLAX46Y46*%
G04 Gerber Fmt 4.6, Leading zero omitted, Abs format (unit mm)*
G04 Created by KiCad (PCBNEW 7.0.6) date 2023-10-05 23:14:00*
%MOMM*%
%LPD*%
G01*
G04 APERTURE LIST*
G04 Aperture macros list*
%AMRoundRect*
0 Rectangle with rounded corners*
0 $1 Rounding radius*
0 $2 $3 $4 $5 $6 $7 $8 $9 X,Y pos of 4 corners*
0 Add a 4 corners polygon primitive as box body*
4,1,4,$2,$3,$4,$5,$6,$7,$8,$9,$2,$3,0*
0 Add four circle primitives for the rounded corners*
1,1,$1+$1,$2,$3*
1,1,$1+$1,$4,$5*
1,1,$1+$1,$6,$7*
1,1,$1+$1,$8,$9*
0 Add four rect primitives between the rounded corners*
20,1,$1+$1,$2,$3,$4,$5,0*
20,1,$1+$1,$4,$5,$6,$7,0*
20,1,$1+$1,$6,$7,$8,$9,0*
20,1,$1+$1,$8,$9,$2,$3,0*%
G04 Aperture macros list end*
%ADD10C,0.000000*%
%ADD11RoundRect,0.200000X0.200000X0.275000X-0.200000X0.275000X-0.200000X-0.275000X0.200000X-0.275000X0*%
%ADD12RoundRect,0.225000X0.225000X0.250000X-0.225000X0.250000X-0.225000X-0.250000X0.225000X-0.250000X0*%
%ADD13RoundRect,0.225000X-0.225000X-0.250000X0.225000X-0.250000X0.225000X0.250000X-0.225000X0.250000X0*%
%ADD14RoundRect,0.150000X0.150000X-0.825000X0.150000X0.825000X-0.150000X0.825000X-0.150000X-0.825000X0*%
%ADD15R,3.000000X2.290000*%
%ADD16RoundRect,0.200000X-0.275000X0.200000X-0.275000X-0.200000X0.275000X-0.200000X0.275000X0.200000X0*%
%ADD17RoundRect,0.140000X-0.140000X-0.170000X0.140000X-0.170000X0.140000X0.170000X-0.140000X0.170000X0*%
%ADD18RoundRect,0.218750X0.256250X-0.218750X0.256250X0.218750X-0.256250X0.218750X-0.256250X-0.218750X0*%
%ADD19RoundRect,0.135000X-0.185000X0.135000X-0.185000X-0.135000X0.185000X-0.135000X0.185000X0.135000X0*%
%ADD20RoundRect,0.147500X0.172500X-0.147500X0.172500X0.147500X-0.172500X0.147500X-0.172500X-0.147500X0*%
%ADD21RoundRect,0.140000X0.170000X-0.140000X0.170000X0.140000X-0.170000X0.140000X-0.170000X-0.140000X0*%
%ADD22RoundRect,0.140000X-0.170000X0.140000X-0.170000X-0.140000X0.170000X-0.140000X0.170000X0.140000X0*%
%ADD23RoundRect,0.200000X0.275000X-0.200000X0.275000X0.200000X-0.275000X0.200000X-0.275000X-0.200000X0*%
%ADD24C,2.200000*%
%ADD25C,1.000000*%
%ADD26R,2.000000X1.500000*%
%ADD27R,2.000000X3.800000*%
%ADD28RoundRect,0.140000X0.140000X0.170000X-0.140000X0.170000X-0.140000X-0.170000X0.140000X-0.170000X0*%
%ADD29RoundRect,0.218750X-0.218750X-0.256250X0.218750X-0.256250X0.218750X0.256250X-0.218750X0.256250X0*%
%ADD30R,1.200000X1.400000*%
%ADD31R,0.600000X0.420000*%
%ADD32RoundRect,0.135000X0.185000X-0.135000X0.185000X0.135000X-0.185000X0.135000X-0.185000X-0.135000X0*%
%ADD33RoundRect,0.250000X-0.475000X0.250000X-0.475000X-0.250000X0.475000X-0.250000X0.475000X0.250000X0*%
%ADD34RoundRect,0.225000X-0.250000X0.225000X-0.250000X-0.225000X0.250000X-0.225000X0.250000X0.225000X0*%
%ADD35RoundRect,0.147500X0.147500X0.172500X-0.147500X0.172500X-0.147500X-0.172500X0.147500X-0.172500X0*%
%ADD36R,0.500000X0.320000*%
%ADD37R,1.700000X1.700000*%
%ADD38O,1.700000X1.700000*%
%ADD39C,4.000000*%
%ADD40R,1.600000X1.600000*%
%ADD41C,1.600000*%
%ADD42R,0.400000X1.350000*%
%ADD43O,0.890000X1.550000*%
%ADD44R,1.200000X1.550000*%
%ADD45O,1.250000X0.950000*%
%ADD46R,1.500000X1.550000*%
%ADD47R,2.150000X2.200000*%
%ADD48R,1.000000X0.800000*%
%ADD49C,0.900000*%
%ADD50R,0.700000X1.500000*%
%ADD51RoundRect,0.250000X0.250000X0.475000X-0.250000X0.475000X-0.250000X-0.475000X0.250000X-0.475000X0*%
%ADD52R,0.400000X1.200000*%
%ADD53RoundRect,0.250001X0.499999X-0.499999X0.499999X0.499999X-0.499999X0.499999X-0.499999X-0.499999X0*%
%ADD54C,1.500000*%
%ADD55C,3.410000*%
%ADD56RoundRect,0.218750X-0.256250X0.218750X-0.256250X-0.218750X0.256250X-0.218750X0.256250X0.218750X0*%
%ADD57R,4.560000X0.850000*%
%ADD58R,4.560000X1.000000*%
%ADD59RoundRect,0.250000X-0.250000X-0.475000X0.250000X-0.475000X0.250000X0.475000X-0.250000X0.475000X0*%
%ADD60R,0.600000X1.200000*%
%ADD61RoundRect,0.147500X-0.147500X-0.172500X0.147500X-0.172500X0.147500X0.172500X-0.147500X0.172500X0*%
%ADD62RoundRect,0.225000X0.250000X-0.225000X0.250000X0.225000X-0.250000X0.225000X-0.250000X-0.225000X0*%
%ADD63RoundRect,0.062500X-0.375000X-0.062500X0.375000X-0.062500X0.375000X0.062500X-0.375000X0.062500X0*%
%ADD64RoundRect,0.062500X-0.062500X-0.375000X0.062500X-0.375000X0.062500X0.375000X-0.062500X0.375000X0*%
%ADD65R,3.450000X3.450000*%
%ADD66R,1.050000X0.650000*%
%ADD67R,0.300000X0.750000*%
%ADD68R,0.750000X0.300000*%
%ADD69R,4.800000X4.800000*%
%ADD70R,0.610000X1.910000*%
%ADD71R,1.550000X1.205000*%
%ADD72RoundRect,0.150000X-0.150000X0.587500X-0.150000X-0.587500X0.150000X-0.587500X0.150000X0.587500X0*%
%ADD73R,0.900000X0.800000*%
%ADD74RoundRect,0.135000X-0.135000X-0.185000X0.135000X-0.185000X0.135000X0.185000X-0.135000X0.185000X0*%
%ADD75R,0.650000X0.250000*%
%ADD76R,1.700000X2.500000*%
%ADD77R,0.400000X0.510000*%
%ADD78C,0.800000*%
%ADD79C,0.700000*%
G04 APERTURE END LIST*
D10*
G36*
X176911000Y-112649000D02*
G01*
X142240000Y-112649000D01*
X142240000Y-110236000D01*
X143256000Y-110236000D01*
X143256000Y-111633000D01*
X175768000Y-111633000D01*
X175768000Y-103378000D01*
X176911000Y-103378000D01*
X176911000Y-112649000D01*
G37*
G36*
X176911000Y-99441000D02*
G01*
X175895000Y-99441000D01*
X175895000Y-92583000D01*
X143510000Y-92583000D01*
X143510000Y-98933000D01*
X142367000Y-98933000D01*
X142367000Y-91567000D01*
X176911000Y-91567000D01*
X176911000Y-99441000D01*
G37*
D11*
%TO.C,FB1*%
X126967500Y-103604000D03*
X125317500Y-103604000D03*
%TD*%
D12*
%TO.C,C46*%
X143777000Y-85344000D03*
X142227000Y-85344000D03*
%TD*%
D13*
%TO.C,C45*%
X137909000Y-92329000D03*
X139459000Y-92329000D03*
%TD*%
D14*
%TO.C,U10*%
X136835000Y-90333000D03*
X138105000Y-90333000D03*
X139375000Y-90333000D03*
X140645000Y-90333000D03*
X140645000Y-85383000D03*
X139375000Y-85383000D03*
X138105000Y-85383000D03*
X136835000Y-85383000D03*
D15*
X138740000Y-87858000D03*
%TD*%
D16*
%TO.C,R9*%
X112649000Y-103315000D03*
X112649000Y-104965000D03*
%TD*%
D17*
%TO.C,C29*%
X158270000Y-101600000D03*
X159230000Y-101600000D03*
%TD*%
D18*
%TO.C,D7*%
X120142000Y-102260500D03*
X120142000Y-100685500D03*
%TD*%
D19*
%TO.C,R18*%
X168275000Y-103884000D03*
X168275000Y-104904000D03*
%TD*%
D20*
%TO.C,L5*%
X165227000Y-102339000D03*
X165227000Y-101369000D03*
%TD*%
D21*
%TO.C,C24*%
X154606600Y-97523000D03*
X154606600Y-96563000D03*
%TD*%
D22*
%TO.C,C33*%
X157607000Y-105819000D03*
X157607000Y-106779000D03*
%TD*%
D19*
%TO.C,R17*%
X169291000Y-103884000D03*
X169291000Y-104904000D03*
%TD*%
D23*
%TO.C,R15*%
X123712000Y-85453000D03*
X123712000Y-83803000D03*
%TD*%
D22*
%TO.C,C43*%
X148653500Y-114328000D03*
X148653500Y-115288000D03*
%TD*%
D24*
%TO.C,H2*%
X173990000Y-115570000D03*
%TD*%
D25*
%TO.C,TP1*%
X140716000Y-114554000D03*
%TD*%
D17*
%TO.C,C36*%
X158524000Y-105791000D03*
X159484000Y-105791000D03*
%TD*%
D26*
%TO.C,U5*%
X104164600Y-110095000D03*
X104164600Y-112395000D03*
D27*
X110464600Y-112395000D03*
D26*
X104164600Y-114695000D03*
%TD*%
D21*
%TO.C,C25*%
X153590600Y-97015000D03*
X153590600Y-96055000D03*
%TD*%
D28*
%TO.C,C40*%
X169164000Y-100076000D03*
X168204000Y-100076000D03*
%TD*%
D16*
%TO.C,R7*%
X109601000Y-97219000D03*
X109601000Y-98869000D03*
%TD*%
D29*
%TO.C,D5*%
X106527500Y-97282000D03*
X108102500Y-97282000D03*
%TD*%
D30*
%TO.C,U1*%
X130136000Y-107780000D03*
X130136000Y-105580000D03*
X128436000Y-105580000D03*
X128436000Y-107780000D03*
%TD*%
D31*
%TO.C,U9*%
X167325000Y-101333000D03*
X167325000Y-101983000D03*
X167325000Y-102633000D03*
X169225000Y-102633000D03*
X169225000Y-101983000D03*
X169225000Y-101333000D03*
%TD*%
D16*
%TO.C,R12*%
X120142000Y-97600000D03*
X120142000Y-99250000D03*
%TD*%
%TO.C,R10*%
X116713000Y-98616000D03*
X116713000Y-100266000D03*
%TD*%
D22*
%TO.C,C1*%
X118618000Y-116741000D03*
X118618000Y-117701000D03*
%TD*%
D32*
%TO.C,R20*%
X153543000Y-114554000D03*
X153543000Y-113534000D03*
%TD*%
D17*
%TO.C,C19*%
X120565000Y-82550000D03*
X121525000Y-82550000D03*
%TD*%
D33*
%TO.C,C14*%
X123698000Y-107889000D03*
X123698000Y-109789000D03*
%TD*%
D24*
%TO.C,H3*%
X114554000Y-73914000D03*
%TD*%
D34*
%TO.C,C13*%
X112903000Y-109156200D03*
X112903000Y-110706200D03*
%TD*%
D17*
%TO.C,C23*%
X156285600Y-97551000D03*
X157245600Y-97551000D03*
%TD*%
D12*
%TO.C,C10*%
X111265000Y-101727000D03*
X109715000Y-101727000D03*
%TD*%
D16*
%TO.C,R11*%
X123190000Y-97600000D03*
X123190000Y-99250000D03*
%TD*%
D35*
%TO.C,L2*%
X161140000Y-101346000D03*
X160170000Y-101346000D03*
%TD*%
D16*
%TO.C,R13*%
X121666000Y-97600000D03*
X121666000Y-99250000D03*
%TD*%
D18*
%TO.C,D6*%
X123190000Y-102260500D03*
X123190000Y-100685500D03*
%TD*%
D34*
%TO.C,C16*%
X118632000Y-88298000D03*
X118632000Y-89848000D03*
%TD*%
D36*
%TO.C,RN2*%
X147074000Y-98691000D03*
X147074000Y-99191000D03*
X147074000Y-99691000D03*
X147074000Y-100191000D03*
X148074000Y-100191000D03*
X148074000Y-99691000D03*
X148074000Y-99191000D03*
X148074000Y-98691000D03*
%TD*%
D18*
%TO.C,D2*%
X137287000Y-116465750D03*
X137287000Y-114890750D03*
%TD*%
D21*
%TO.C,C37*%
X166243000Y-102334000D03*
X166243000Y-101374000D03*
%TD*%
D17*
%TO.C,C15*%
X125631000Y-88265000D03*
X126591000Y-88265000D03*
%TD*%
D18*
%TO.C,D3*%
X138811000Y-116465750D03*
X138811000Y-114890750D03*
%TD*%
D22*
%TO.C,C32*%
X160147000Y-102263000D03*
X160147000Y-103223000D03*
%TD*%
D36*
%TO.C,RN3*%
X147074000Y-101231000D03*
X147074000Y-101731000D03*
X147074000Y-102231000D03*
X147074000Y-102731000D03*
X148074000Y-102731000D03*
X148074000Y-102231000D03*
X148074000Y-101731000D03*
X148074000Y-101231000D03*
%TD*%
D28*
%TO.C,C22*%
X149451000Y-97663000D03*
X148491000Y-97663000D03*
%TD*%
D22*
%TO.C,C17*%
X119902000Y-88311000D03*
X119902000Y-89271000D03*
%TD*%
%TO.C,C5*%
X127000000Y-106708000D03*
X127000000Y-107668000D03*
%TD*%
D37*
%TO.C,J3*%
X107391200Y-106857800D03*
D38*
X107391200Y-104317800D03*
X109931200Y-106857800D03*
X109931200Y-104317800D03*
%TD*%
D39*
%TO.C,J6*%
X156826000Y-78232000D03*
X131826000Y-78232000D03*
D40*
X138786000Y-79652000D03*
D41*
X141556000Y-79652000D03*
X144326000Y-79652000D03*
X147096000Y-79652000D03*
X149866000Y-79652000D03*
X140171000Y-76812000D03*
X142941000Y-76812000D03*
X145711000Y-76812000D03*
X148481000Y-76812000D03*
%TD*%
D42*
%TO.C,J4*%
X123490000Y-75344000D03*
X122840000Y-75344000D03*
X122190000Y-75344000D03*
X121540000Y-75344000D03*
X120890000Y-75344000D03*
D43*
X125690000Y-72644000D03*
D44*
X125090000Y-72644000D03*
D45*
X124690000Y-75344000D03*
D46*
X123190000Y-72644000D03*
X121190000Y-72644000D03*
D45*
X119690000Y-75344000D03*
D44*
X119290000Y-72644000D03*
D43*
X118690000Y-72644000D03*
%TD*%
D47*
%TO.C,D4*%
X162560000Y-73746000D03*
X162560000Y-78146000D03*
%TD*%
D28*
%TO.C,C26*%
X149498600Y-103774000D03*
X148538600Y-103774000D03*
%TD*%
D20*
%TO.C,L4*%
X163195000Y-103355000D03*
X163195000Y-102385000D03*
%TD*%
D17*
%TO.C,C28*%
X157889000Y-104013000D03*
X158849000Y-104013000D03*
%TD*%
D23*
%TO.C,R16*%
X121426000Y-85453000D03*
X121426000Y-83803000D03*
%TD*%
D48*
%TO.C,SW2*%
X126525000Y-115298000D03*
X126525000Y-117508000D03*
D49*
X128675000Y-116408000D03*
X131675000Y-116408000D03*
D48*
X133825000Y-115298000D03*
X133825000Y-117508000D03*
D50*
X127925000Y-114648000D03*
X130925000Y-114648000D03*
X132425000Y-114648000D03*
%TD*%
D51*
%TO.C,C12*%
X102042000Y-114808000D03*
X100142000Y-114808000D03*
%TD*%
D36*
%TO.C,RN1*%
X147074000Y-107327000D03*
X147074000Y-107827000D03*
X147074000Y-108327000D03*
X147074000Y-108827000D03*
X148074000Y-108827000D03*
X148074000Y-108327000D03*
X148074000Y-107827000D03*
X148074000Y-107327000D03*
%TD*%
D23*
%TO.C,R2*%
X135763000Y-113455250D03*
X135763000Y-111805250D03*
%TD*%
D52*
%TO.C,IC1*%
X163576000Y-81788000D03*
X162926000Y-81788000D03*
X162276000Y-81788000D03*
X162276000Y-83688000D03*
X163576000Y-83688000D03*
%TD*%
D17*
%TO.C,C38*%
X160429000Y-105791000D03*
X161389000Y-105791000D03*
%TD*%
D53*
%TO.C,J2*%
X104947000Y-81232000D03*
D54*
X104947000Y-78232000D03*
X104947000Y-75232000D03*
X107947000Y-81232000D03*
X107947000Y-78232000D03*
X107947000Y-75232000D03*
D55*
X100627000Y-83382000D03*
X100627000Y-73082000D03*
%TD*%
D56*
%TO.C,D9*%
X120918000Y-93746500D03*
X120918000Y-95321500D03*
%TD*%
D22*
%TO.C,C35*%
X149669500Y-114328000D03*
X149669500Y-115288000D03*
%TD*%
D34*
%TO.C,C39*%
X146431000Y-114287000D03*
X146431000Y-115837000D03*
%TD*%
D16*
%TO.C,R8*%
X108077000Y-98870000D03*
X108077000Y-100520000D03*
%TD*%
D57*
%TO.C,J5*%
X174244000Y-101981000D03*
D58*
X174244000Y-104751000D03*
X174244000Y-99211000D03*
%TD*%
D23*
%TO.C,R4*%
X138811000Y-113455250D03*
X138811000Y-111805250D03*
%TD*%
D26*
%TO.C,U6*%
X121387000Y-111647000D03*
X121387000Y-109347000D03*
D27*
X115087000Y-109347000D03*
D26*
X121387000Y-107047000D03*
%TD*%
D17*
%TO.C,C30*%
X161191000Y-102362000D03*
X162151000Y-102362000D03*
%TD*%
D18*
%TO.C,D1*%
X135763000Y-116465750D03*
X135763000Y-114890750D03*
%TD*%
D16*
%TO.C,R5*%
X108077000Y-94171000D03*
X108077000Y-95821000D03*
%TD*%
D59*
%TO.C,C2*%
X137226000Y-104902000D03*
X139126000Y-104902000D03*
%TD*%
D60*
%TO.C,D10*%
X121619000Y-81160000D03*
X122569000Y-81160000D03*
X123519000Y-81160000D03*
X123519000Y-78860000D03*
X122569000Y-78860000D03*
X121619000Y-78860000D03*
%TD*%
D23*
%TO.C,R3*%
X137287000Y-113455250D03*
X137287000Y-111805250D03*
%TD*%
D37*
%TO.C,J1*%
X166624000Y-73660000D03*
D38*
X169164000Y-73660000D03*
X166624000Y-76200000D03*
X169164000Y-76200000D03*
X166624000Y-78740000D03*
X169164000Y-78740000D03*
X166624000Y-81280000D03*
X169164000Y-81280000D03*
X166624000Y-83820000D03*
X169164000Y-83820000D03*
%TD*%
D21*
%TO.C,C3*%
X128936500Y-99131000D03*
X128936500Y-98171000D03*
%TD*%
D22*
%TO.C,C8*%
X125253500Y-104775000D03*
X125253500Y-105735000D03*
%TD*%
D61*
%TO.C,L3*%
X155598000Y-105791000D03*
X156568000Y-105791000D03*
%TD*%
%TO.C,L1*%
X160193000Y-100330000D03*
X161163000Y-100330000D03*
%TD*%
D37*
%TO.C,JP1*%
X114539000Y-84836000D03*
D38*
X111999000Y-84836000D03*
X109459000Y-84836000D03*
%TD*%
D21*
%TO.C,C21*%
X152146000Y-95349000D03*
X152146000Y-94389000D03*
%TD*%
D28*
%TO.C,C20*%
X125293000Y-77089000D03*
X124333000Y-77089000D03*
%TD*%
D62*
%TO.C,C11*%
X102108000Y-112281000D03*
X102108000Y-110731000D03*
%TD*%
D63*
%TO.C,U2*%
X130157500Y-99596000D03*
X130157500Y-100096000D03*
X130157500Y-100596000D03*
X130157500Y-101096000D03*
X130157500Y-101596000D03*
X130157500Y-102096000D03*
X130157500Y-102596000D03*
X130157500Y-103096000D03*
D64*
X130845000Y-103783500D03*
X131345000Y-103783500D03*
X131845000Y-103783500D03*
X132345000Y-103783500D03*
X132845000Y-103783500D03*
X133345000Y-103783500D03*
X133845000Y-103783500D03*
X134345000Y-103783500D03*
D63*
X135032500Y-103096000D03*
X135032500Y-102596000D03*
X135032500Y-102096000D03*
X135032500Y-101596000D03*
X135032500Y-101096000D03*
X135032500Y-100596000D03*
X135032500Y-100096000D03*
X135032500Y-99596000D03*
D64*
X134345000Y-98908500D03*
X133845000Y-98908500D03*
X133345000Y-98908500D03*
X132845000Y-98908500D03*
X132345000Y-98908500D03*
X131845000Y-98908500D03*
X131345000Y-98908500D03*
X130845000Y-98908500D03*
D65*
X132595000Y-101346000D03*
%TD*%
D24*
%TO.C,H4*%
X114554000Y-115570000D03*
%TD*%
D66*
%TO.C,SW1*%
X120127202Y-115257000D03*
X124277202Y-115257000D03*
X120127202Y-117407000D03*
X124277202Y-117407000D03*
%TD*%
D19*
%TO.C,R19*%
X154559000Y-113534000D03*
X154559000Y-114554000D03*
%TD*%
D67*
%TO.C,U8*%
X155540600Y-98640000D03*
X154890600Y-98640000D03*
X154240600Y-98640000D03*
X153590600Y-98640000D03*
X152940600Y-98640000D03*
X152290600Y-98640000D03*
X151640600Y-98640000D03*
D68*
X150615600Y-99665000D03*
X150615600Y-100315000D03*
X150615600Y-100965000D03*
X150615600Y-101615000D03*
X150615600Y-102265000D03*
X150615600Y-102915000D03*
X150615600Y-103565000D03*
D67*
X151640600Y-104590000D03*
X152290600Y-104590000D03*
X152940600Y-104590000D03*
X153590600Y-104590000D03*
X154240600Y-104590000D03*
X154890600Y-104590000D03*
X155540600Y-104590000D03*
D68*
X156565600Y-103565000D03*
X156565600Y-102915000D03*
X156565600Y-102265000D03*
X156565600Y-101615000D03*
X156565600Y-100965000D03*
X156565600Y-100315000D03*
X156565600Y-99665000D03*
D69*
X153590600Y-101615000D03*
%TD*%
D21*
%TO.C,C34*%
X164211000Y-103350000D03*
X164211000Y-102390000D03*
%TD*%
D24*
%TO.C,H1*%
X173990000Y-73914000D03*
%TD*%
D22*
%TO.C,C7*%
X127031500Y-104775000D03*
X127031500Y-105735000D03*
%TD*%
D70*
%TO.C,U3*%
X115062000Y-94135000D03*
X113792000Y-94135000D03*
X112522000Y-94135000D03*
X111252000Y-94135000D03*
X111252000Y-99695000D03*
X112522000Y-99695000D03*
X113792000Y-99695000D03*
X115062000Y-99695000D03*
D71*
X113932000Y-96312500D03*
X112382000Y-96312500D03*
X113932000Y-97517500D03*
X112382000Y-97517500D03*
%TD*%
D17*
%TO.C,C31*%
X161191000Y-103378000D03*
X162151000Y-103378000D03*
%TD*%
D72*
%TO.C,U4*%
X117409000Y-78564500D03*
X115509000Y-78564500D03*
X116459000Y-80439500D03*
%TD*%
D22*
%TO.C,C41*%
X147701000Y-114328000D03*
X147701000Y-115288000D03*
%TD*%
D25*
%TO.C,TP2*%
X154559000Y-107188000D03*
%TD*%
D28*
%TO.C,C6*%
X127003500Y-102334000D03*
X126043500Y-102334000D03*
%TD*%
D73*
%TO.C,Y1*%
X149476000Y-96350000D03*
X150876000Y-96350000D03*
X150876000Y-95250000D03*
X149476000Y-95250000D03*
%TD*%
D12*
%TO.C,C9*%
X111278000Y-92075000D03*
X109728000Y-92075000D03*
%TD*%
D28*
%TO.C,C18*%
X124547000Y-82550000D03*
X123587000Y-82550000D03*
%TD*%
D17*
%TO.C,C44*%
X170208000Y-101981000D03*
X171168000Y-101981000D03*
%TD*%
D74*
%TO.C,R1*%
X130933000Y-113157000D03*
X131953000Y-113157000D03*
%TD*%
D75*
%TO.C,U7*%
X121019000Y-86932000D03*
X121019000Y-87382000D03*
X121019000Y-87832000D03*
X121019000Y-88282000D03*
X121019000Y-88732000D03*
X121019000Y-89182000D03*
X124119000Y-89182000D03*
X124119000Y-88732000D03*
X124119000Y-88282000D03*
X124119000Y-87832000D03*
X124119000Y-87382000D03*
X124119000Y-86932000D03*
D76*
X122569000Y-88057000D03*
%TD*%
D22*
%TO.C,C42*%
X170307000Y-103914000D03*
X170307000Y-104874000D03*
%TD*%
D16*
%TO.C,R14*%
X120918000Y-90598000D03*
X120918000Y-92248000D03*
%TD*%
D77*
%TO.C,Q1*%
X115054000Y-101590000D03*
X114054000Y-101590000D03*
X114554000Y-102880000D03*
%TD*%
D17*
%TO.C,C4*%
X136299000Y-103251000D03*
X137259000Y-103251000D03*
%TD*%
D18*
%TO.C,D8*%
X121666000Y-102260500D03*
X121666000Y-100685500D03*
%TD*%
D17*
%TO.C,C27*%
X157889000Y-102997000D03*
X158849000Y-102997000D03*
%TD*%
D23*
%TO.C,R6*%
X109601000Y-95821000D03*
X109601000Y-94171000D03*
%TD*%
D78*
X124690175Y-103632000D03*
X139336852Y-91698852D03*
X144309500Y-85433500D03*
X142240000Y-86233000D03*
X138684000Y-88519000D03*
X139700000Y-87249000D03*
X137795000Y-87249000D03*
X138409500Y-92329000D03*
X142922600Y-92075000D03*
D79*
X157861000Y-99187000D03*
X155194000Y-94996000D03*
D78*
X140591000Y-104902000D03*
X125614300Y-102504051D03*
X174244000Y-105791000D03*
X122503000Y-82042000D03*
D79*
X167132000Y-106807000D03*
D78*
X154559000Y-112141000D03*
X152066600Y-101615000D03*
X142748000Y-112014000D03*
X109728000Y-92837000D03*
D79*
X163576000Y-104267000D03*
X165481000Y-94869000D03*
D78*
X148844000Y-112141000D03*
X125982000Y-75856508D03*
D79*
X163703000Y-106553000D03*
D78*
X113411000Y-105029000D03*
D79*
X161036000Y-107061000D03*
D78*
X103632000Y-109982000D03*
D79*
X170688000Y-106807000D03*
D78*
X175514000Y-92075000D03*
D79*
X145161000Y-103759000D03*
X162814000Y-110109000D03*
D78*
X142748000Y-110744000D03*
D79*
X173609000Y-107061000D03*
X166370000Y-103124000D03*
D78*
X158750000Y-112141000D03*
X125982000Y-108876508D03*
X148209000Y-97028000D03*
X161544000Y-77597000D03*
X100582000Y-75856508D03*
D79*
X144018000Y-93218000D03*
D78*
X141222000Y-73316508D03*
X101346000Y-110744000D03*
X165354000Y-76327000D03*
X154606600Y-96001600D03*
D79*
X172720000Y-93091000D03*
D78*
X155956000Y-112141000D03*
X174244000Y-112141000D03*
X113792000Y-92964000D03*
D79*
X165100000Y-100330000D03*
X175387000Y-107188000D03*
X166243000Y-109220000D03*
X157099000Y-109093000D03*
D78*
X152908000Y-94361000D03*
X124931500Y-82550000D03*
D79*
X163703000Y-100584000D03*
D78*
X161544000Y-112141000D03*
D79*
X164084000Y-110617000D03*
X134585899Y-103834135D03*
X174625000Y-94742000D03*
X164211000Y-109093000D03*
D78*
X138811000Y-117094000D03*
D79*
X162433000Y-93218000D03*
X167259000Y-97790000D03*
D78*
X100203000Y-115824000D03*
D79*
X166370000Y-93218000D03*
X161798000Y-104267000D03*
D78*
X153590600Y-95696800D03*
X174244000Y-103759000D03*
X172720000Y-112141000D03*
X175260000Y-100203000D03*
X176323600Y-105029000D03*
X154559000Y-92075000D03*
D79*
X163449000Y-99187000D03*
D78*
X171323000Y-112141000D03*
X176276000Y-107315000D03*
D79*
X145542000Y-109982000D03*
D78*
X175260000Y-103759000D03*
X173228000Y-103759000D03*
X104340000Y-86995000D03*
D79*
X150241000Y-110236000D03*
X145288000Y-105537000D03*
D78*
X174244000Y-100203000D03*
X175641000Y-112141000D03*
X176403000Y-97282000D03*
X175260000Y-105791000D03*
D79*
X166751000Y-99441000D03*
X166116000Y-107315000D03*
X174625000Y-107061000D03*
X160147000Y-99187000D03*
D78*
X153162000Y-112141000D03*
X161544000Y-92075000D03*
D79*
X153162000Y-92075000D03*
D78*
X172339000Y-105791000D03*
X100582000Y-86016508D03*
X129032000Y-97663000D03*
X103122000Y-80936508D03*
X156462000Y-116496508D03*
X137522548Y-103320500D03*
X115062000Y-102870000D03*
X136142000Y-75856508D03*
X131062000Y-91096508D03*
X122174000Y-115257000D03*
X172339000Y-98171000D03*
D79*
X146685000Y-105537000D03*
D78*
X167417200Y-100089600D03*
D79*
X162433000Y-109220000D03*
D78*
X131476500Y-100175000D03*
D79*
X168529000Y-109093000D03*
D78*
X142922600Y-94234000D03*
X131476500Y-102588000D03*
X155114600Y-103139000D03*
D79*
X171196000Y-92837000D03*
D78*
X157353000Y-92075000D03*
X109728000Y-100838000D03*
X128522000Y-80936508D03*
D79*
X165100000Y-106553000D03*
X159258000Y-110617000D03*
D78*
X153162000Y-92075000D03*
D79*
X146304000Y-104013000D03*
X175006000Y-96520000D03*
D78*
X143762000Y-88556508D03*
X176276000Y-108585000D03*
X148717000Y-95250000D03*
D79*
X161163000Y-104902000D03*
D78*
X174242000Y-86016508D03*
X104648000Y-110236000D03*
D79*
X158115000Y-94996000D03*
X175260000Y-109474000D03*
D78*
X142922600Y-96853400D03*
D79*
X158496000Y-109220000D03*
D78*
X147574000Y-112141000D03*
X146304000Y-112141000D03*
X147748600Y-92075000D03*
X143938600Y-92075000D03*
D79*
X162052000Y-96266000D03*
X161671000Y-110744000D03*
X149225000Y-92964000D03*
X162814000Y-100076000D03*
D78*
X164338000Y-112141000D03*
X160147000Y-112141000D03*
X131062000Y-111416508D03*
D79*
X175260000Y-108458000D03*
D78*
X155114600Y-100091000D03*
X155114600Y-101615000D03*
X142922600Y-93091000D03*
X145002200Y-92075000D03*
D79*
X170942000Y-96647000D03*
D78*
X167640000Y-84270500D03*
X152066600Y-100091000D03*
D79*
X171831000Y-108331000D03*
D78*
X148842000Y-116496508D03*
X164338000Y-92075000D03*
D79*
X170912000Y-101094000D03*
D78*
X141222000Y-116496508D03*
X103787500Y-78232000D03*
D79*
X168529000Y-97790000D03*
D78*
X110742000Y-116496508D03*
D79*
X156337000Y-109855000D03*
D78*
X150051900Y-112141000D03*
X127089500Y-88265000D03*
D79*
X164338000Y-99568000D03*
X160147000Y-94996000D03*
D78*
X176403000Y-98298000D03*
X132520500Y-101445000D03*
X171323000Y-104775000D03*
D79*
X172466000Y-110871000D03*
D78*
X168529000Y-92075000D03*
X157781600Y-97551000D03*
X125222000Y-77597000D03*
X120486500Y-83104000D03*
X133602000Y-83476508D03*
D79*
X146304000Y-96774000D03*
X160147000Y-96266000D03*
D78*
X121793000Y-111887000D03*
D79*
X172466000Y-96520000D03*
X145923000Y-104648000D03*
D78*
X174244000Y-92075000D03*
X159002000Y-88556508D03*
X171702000Y-80936508D03*
X176403000Y-92075000D03*
X131062000Y-73316508D03*
D79*
X166243000Y-100330000D03*
X175133000Y-110363000D03*
X144399000Y-97282000D03*
D78*
X100582000Y-108876508D03*
X142922600Y-98171000D03*
X158750000Y-92075000D03*
D79*
X168529000Y-110617000D03*
D78*
X113919000Y-96393000D03*
D79*
X153035000Y-108204000D03*
D78*
X108966000Y-78232000D03*
X105662000Y-73316508D03*
X115822000Y-113956508D03*
D79*
X171196000Y-110871000D03*
D78*
X162941000Y-92075000D03*
X131496500Y-101420500D03*
X103122000Y-116496508D03*
D79*
X173482000Y-108077000D03*
X170561000Y-107950000D03*
D78*
X133635500Y-102588000D03*
X148209000Y-103774000D03*
D79*
X171704000Y-94742000D03*
X165608000Y-99568000D03*
D78*
X173355000Y-98171000D03*
D79*
X167386000Y-109855000D03*
X160528000Y-97663000D03*
D78*
X128270000Y-114681000D03*
D79*
X147447000Y-93091000D03*
X159766000Y-106934000D03*
D78*
X153590600Y-101615000D03*
X146558000Y-95250000D03*
X162179000Y-101727000D03*
D79*
X171958000Y-107061000D03*
X170434000Y-110617000D03*
X168148000Y-94742000D03*
X145034000Y-96266000D03*
D78*
X165735000Y-92075000D03*
D79*
X165989000Y-97790000D03*
X165862000Y-96266000D03*
D78*
X135763000Y-117094000D03*
X172974000Y-92075000D03*
D79*
X165354000Y-104013000D03*
X146177000Y-106172000D03*
X162560000Y-94869000D03*
D78*
X132492500Y-102588000D03*
D79*
X158242000Y-109982000D03*
D78*
X153590600Y-103139000D03*
D79*
X145415000Y-93091000D03*
D78*
X127000000Y-106172000D03*
X112506942Y-110192661D03*
D79*
X160274000Y-93218000D03*
X159004000Y-104902000D03*
D78*
X165481000Y-78867000D03*
D79*
X166751000Y-94615000D03*
X167640000Y-99060000D03*
X161163000Y-99187000D03*
X154432000Y-93853000D03*
D78*
X176323600Y-104013000D03*
D79*
X163195000Y-101346000D03*
D78*
X120904000Y-111379000D03*
X156462000Y-73316508D03*
X118362000Y-91096508D03*
X151765000Y-112141000D03*
X122569000Y-88057000D03*
D79*
X164211000Y-96266000D03*
D78*
X110742000Y-78396508D03*
X122569000Y-88950800D03*
X171958000Y-92075000D03*
D79*
X160020000Y-104902000D03*
D78*
X158734218Y-106737196D03*
X172339000Y-100203000D03*
D79*
X172974000Y-94742000D03*
D78*
X137287000Y-117094000D03*
X160147000Y-92075000D03*
X161544000Y-78867000D03*
X171196000Y-99187000D03*
X165735000Y-112141000D03*
D79*
X173863000Y-96647000D03*
D78*
X163322000Y-78867000D03*
D79*
X166497000Y-110617000D03*
D78*
X156462000Y-80936508D03*
X152066600Y-103139000D03*
X176276000Y-109855000D03*
D79*
X164338000Y-105029000D03*
X173228000Y-109220000D03*
X171577000Y-109474000D03*
D78*
X171702000Y-73316508D03*
D79*
X160909000Y-108966000D03*
X164719000Y-93345000D03*
D78*
X157353000Y-112141000D03*
D79*
X145034000Y-110871000D03*
X147828000Y-110109000D03*
D78*
X173228000Y-105791000D03*
D79*
X146685000Y-110871000D03*
D78*
X155575000Y-92075000D03*
X151342100Y-96701832D03*
D79*
X170434000Y-109220000D03*
D78*
X174244000Y-98171000D03*
D79*
X147574000Y-106426000D03*
X130585750Y-98649250D03*
D78*
X133635500Y-100175000D03*
X170648500Y-92075000D03*
X151382000Y-88556508D03*
D79*
X175006000Y-92964000D03*
X153797000Y-109220000D03*
D78*
X176403000Y-93345000D03*
X142922600Y-95504000D03*
D79*
X162052000Y-99314000D03*
D78*
X125222000Y-106172000D03*
X153590600Y-100091000D03*
D79*
X152908000Y-109728000D03*
D78*
X176323600Y-106045000D03*
X149145600Y-92075000D03*
D79*
X146304000Y-94107000D03*
X155829000Y-110744000D03*
D78*
X172339000Y-103759000D03*
X118362000Y-83476508D03*
X105662000Y-88556508D03*
D79*
X159766000Y-108839000D03*
X165227000Y-109855000D03*
X144907000Y-94234000D03*
X168275000Y-93345000D03*
X162179000Y-100711000D03*
D78*
X123241175Y-108988500D03*
X170307000Y-105410000D03*
X146351600Y-92075000D03*
X170180000Y-112141000D03*
X151382000Y-78396508D03*
D79*
X166116000Y-105537000D03*
X163957000Y-98044000D03*
X174117000Y-92964000D03*
D78*
X176276000Y-111252000D03*
X112395000Y-97536000D03*
X167132000Y-92075000D03*
X151765000Y-92075000D03*
X160147000Y-103886000D03*
X163322000Y-77597000D03*
D79*
X172974000Y-110109000D03*
X170815000Y-93980000D03*
X167005000Y-104648000D03*
D78*
X108077000Y-101219000D03*
X115822000Y-75856508D03*
D79*
X174371000Y-110744000D03*
D78*
X168529000Y-112141000D03*
X132492500Y-100175000D03*
D79*
X162941000Y-105029000D03*
D78*
X175133000Y-98171000D03*
D79*
X160401000Y-109982000D03*
D78*
X176403000Y-94742000D03*
D79*
X145161000Y-97917000D03*
X157734000Y-93472000D03*
D78*
X176403000Y-96012000D03*
X148842000Y-73316508D03*
X122580400Y-87172800D03*
X113919000Y-97536000D03*
X156625312Y-106714312D03*
X140843000Y-103759000D03*
D79*
X158877000Y-99187000D03*
X157353000Y-110617000D03*
X165354000Y-98552000D03*
D78*
X145034000Y-112141000D03*
X143764000Y-112141000D03*
D79*
X162179000Y-106553000D03*
D78*
X105662000Y-98716508D03*
X167132000Y-112141000D03*
X100582000Y-101256508D03*
X173228000Y-100203000D03*
D79*
X152146000Y-93091000D03*
X164211000Y-101346000D03*
X159131000Y-97917000D03*
D78*
X112395000Y-96393000D03*
D79*
X162052000Y-97917000D03*
X167386000Y-96393000D03*
D78*
X106426000Y-96520000D03*
D79*
X170942000Y-95377000D03*
D78*
X164082000Y-116496508D03*
X171702000Y-113956508D03*
X166622000Y-88556508D03*
D79*
X144018000Y-95250000D03*
D78*
X133655500Y-101420500D03*
X162941000Y-112141000D03*
X100582000Y-93636508D03*
D79*
X174371000Y-109220000D03*
D78*
X150415600Y-92075000D03*
X100203000Y-113792000D03*
X115062000Y-92964000D03*
X117983000Y-116731298D03*
X118362000Y-101256508D03*
D79*
X143002000Y-81893994D03*
X133477000Y-92202000D03*
X124293500Y-101092000D03*
X124293500Y-92456000D03*
X161290000Y-81915000D03*
X123825000Y-116713000D03*
X163957000Y-81788000D03*
D78*
X109093000Y-112395000D03*
D79*
X154940000Y-114554000D03*
D78*
X132969000Y-113538000D03*
X119380000Y-97536000D03*
X162433000Y-75311000D03*
X125603000Y-88773000D03*
X145542000Y-114427000D03*
X121793000Y-95377000D03*
X150876000Y-114300000D03*
X130429000Y-108712000D03*
X155880484Y-96444484D03*
X128270000Y-108712000D03*
X129650616Y-99170616D03*
X149479000Y-104648000D03*
X169172400Y-99241000D03*
X157889000Y-104521000D03*
X136653583Y-104013000D03*
X121412000Y-109347000D03*
X118187094Y-88821868D03*
X116332000Y-109347000D03*
X120015000Y-109347000D03*
X121194017Y-97211729D03*
X113411000Y-107950000D03*
D79*
X141192965Y-93225918D03*
X141732000Y-110744000D03*
X128143000Y-86308000D03*
X127520444Y-99261556D03*
X129558500Y-103659591D03*
X126064219Y-87470954D03*
X124841000Y-89408000D03*
X128943457Y-104330498D03*
X143807474Y-108207268D03*
X144399000Y-109982000D03*
X143891685Y-105537098D03*
X145923000Y-99365500D03*
X143001306Y-105409306D03*
X143002000Y-100290500D03*
X138596500Y-96861500D03*
X140500700Y-91559602D03*
X136525000Y-97361000D03*
X136779000Y-91567000D03*
X140208000Y-113284000D03*
X155829000Y-113538000D03*
X169291000Y-105410000D03*
X139954000Y-96012000D03*
X139192000Y-99187000D03*
X139231500Y-95250000D03*
X137707500Y-94702500D03*
X138235056Y-100081832D03*
X140629000Y-101503000D03*
X140589000Y-93892500D03*
X154559000Y-108077000D03*
X168275000Y-105537000D03*
X134326500Y-96686500D03*
X143002000Y-82793497D03*
X143002000Y-83693000D03*
X135019500Y-98933000D03*
X143002000Y-84709000D03*
X135763000Y-98044000D03*
X163576000Y-84582000D03*
X113307773Y-100915500D03*
X112649000Y-102489000D03*
D78*
X102870000Y-114808000D03*
X122569000Y-79960000D03*
X117409000Y-80010000D03*
D79*
X135763000Y-112505750D03*
X136779000Y-101421500D03*
X137541000Y-101912713D03*
X137287000Y-112477750D03*
X129230106Y-102770050D03*
X134239000Y-111289500D03*
X137199500Y-96686500D03*
X137509944Y-100806944D03*
X128142500Y-99921875D03*
X138977500Y-109690500D03*
X138977500Y-103251000D03*
X134569200Y-109690500D03*
X150952856Y-108037500D03*
X150876000Y-106652500D03*
X151627356Y-105574356D03*
X151638000Y-109387000D03*
X138303000Y-102596000D03*
X139718314Y-114057655D03*
X123519000Y-78105000D03*
X122090500Y-76472687D03*
M02*
