%TF.GenerationSoftware,KiCad,Pcbnew,7.0.6*%
%TF.CreationDate,2023-10-05T23:13:59-06:00*%
%TF.ProjectId,CAN-USB RF Module,43414e2d-5553-4422-9052-46204d6f6475,1.0*%
%TF.SameCoordinates,Original*%
%TF.FileFunction,Paste,Top*%
%TF.FilePolarity,Positive*%
%FSLAX46Y46*%
G04 Gerber Fmt 4.6, Leading zero omitted, Abs format (unit mm)*
G04 Created by KiCad (PCBNEW 7.0.6) date 2023-10-05 23:13:59*
%MOMM*%
%LPD*%
G01*
G04 APERTURE LIST*
G04 Aperture macros list*
%AMRoundRect*
0 Rectangle with rounded corners*
0 $1 Rounding radius*
0 $2 $3 $4 $5 $6 $7 $8 $9 X,Y pos of 4 corners*
0 Add a 4 corners polygon primitive as box body*
4,1,4,$2,$3,$4,$5,$6,$7,$8,$9,$2,$3,0*
0 Add four circle primitives for the rounded corners*
1,1,$1+$1,$2,$3*
1,1,$1+$1,$4,$5*
1,1,$1+$1,$6,$7*
1,1,$1+$1,$8,$9*
0 Add four rect primitives between the rounded corners*
20,1,$1+$1,$2,$3,$4,$5,0*
20,1,$1+$1,$4,$5,$6,$7,0*
20,1,$1+$1,$6,$7,$8,$9,0*
20,1,$1+$1,$8,$9,$2,$3,0*%
G04 Aperture macros list end*
%ADD10RoundRect,0.200000X0.200000X0.275000X-0.200000X0.275000X-0.200000X-0.275000X0.200000X-0.275000X0*%
%ADD11RoundRect,0.225000X0.225000X0.250000X-0.225000X0.250000X-0.225000X-0.250000X0.225000X-0.250000X0*%
%ADD12RoundRect,0.225000X-0.225000X-0.250000X0.225000X-0.250000X0.225000X0.250000X-0.225000X0.250000X0*%
%ADD13RoundRect,0.230000X0.375000X-0.230000X0.375000X0.230000X-0.375000X0.230000X-0.375000X-0.230000X0*%
%ADD14RoundRect,0.150000X0.150000X-0.825000X0.150000X0.825000X-0.150000X0.825000X-0.150000X-0.825000X0*%
%ADD15RoundRect,0.200000X-0.275000X0.200000X-0.275000X-0.200000X0.275000X-0.200000X0.275000X0.200000X0*%
%ADD16RoundRect,0.140000X-0.140000X-0.170000X0.140000X-0.170000X0.140000X0.170000X-0.140000X0.170000X0*%
%ADD17RoundRect,0.218750X0.256250X-0.218750X0.256250X0.218750X-0.256250X0.218750X-0.256250X-0.218750X0*%
%ADD18RoundRect,0.135000X-0.185000X0.135000X-0.185000X-0.135000X0.185000X-0.135000X0.185000X0.135000X0*%
%ADD19RoundRect,0.147500X0.172500X-0.147500X0.172500X0.147500X-0.172500X0.147500X-0.172500X-0.147500X0*%
%ADD20RoundRect,0.140000X0.170000X-0.140000X0.170000X0.140000X-0.170000X0.140000X-0.170000X-0.140000X0*%
%ADD21RoundRect,0.140000X-0.170000X0.140000X-0.170000X-0.140000X0.170000X-0.140000X0.170000X0.140000X0*%
%ADD22RoundRect,0.200000X0.275000X-0.200000X0.275000X0.200000X-0.275000X0.200000X-0.275000X-0.200000X0*%
%ADD23R,2.000000X1.500000*%
%ADD24R,2.000000X3.800000*%
%ADD25RoundRect,0.140000X0.140000X0.170000X-0.140000X0.170000X-0.140000X-0.170000X0.140000X-0.170000X0*%
%ADD26RoundRect,0.218750X-0.218750X-0.256250X0.218750X-0.256250X0.218750X0.256250X-0.218750X0.256250X0*%
%ADD27R,1.200000X1.400000*%
%ADD28R,0.600000X0.420000*%
%ADD29RoundRect,0.135000X0.185000X-0.135000X0.185000X0.135000X-0.185000X0.135000X-0.185000X-0.135000X0*%
%ADD30RoundRect,0.250000X-0.475000X0.250000X-0.475000X-0.250000X0.475000X-0.250000X0.475000X0.250000X0*%
%ADD31RoundRect,0.225000X-0.250000X0.225000X-0.250000X-0.225000X0.250000X-0.225000X0.250000X0.225000X0*%
%ADD32RoundRect,0.147500X0.147500X0.172500X-0.147500X0.172500X-0.147500X-0.172500X0.147500X-0.172500X0*%
%ADD33R,0.500000X0.320000*%
%ADD34O,0.890000X1.550000*%
%ADD35O,1.250000X0.950000*%
%ADD36R,0.400000X1.350000*%
%ADD37R,1.200000X1.550000*%
%ADD38R,1.500000X1.550000*%
%ADD39R,2.150000X2.200000*%
%ADD40R,1.000000X0.800000*%
%ADD41R,0.700000X1.500000*%
%ADD42RoundRect,0.250000X0.250000X0.475000X-0.250000X0.475000X-0.250000X-0.475000X0.250000X-0.475000X0*%
%ADD43R,0.400000X1.200000*%
%ADD44RoundRect,0.218750X-0.256250X0.218750X-0.256250X-0.218750X0.256250X-0.218750X0.256250X0.218750X0*%
%ADD45R,4.560000X0.850000*%
%ADD46R,4.560000X1.000000*%
%ADD47RoundRect,0.250000X-0.250000X-0.475000X0.250000X-0.475000X0.250000X0.475000X-0.250000X0.475000X0*%
%ADD48R,0.600000X1.200000*%
%ADD49RoundRect,0.147500X-0.147500X-0.172500X0.147500X-0.172500X0.147500X0.172500X-0.147500X0.172500X0*%
%ADD50RoundRect,0.225000X0.250000X-0.225000X0.250000X0.225000X-0.250000X0.225000X-0.250000X-0.225000X0*%
%ADD51RoundRect,0.232500X-0.232500X-0.232500X0.232500X-0.232500X0.232500X0.232500X-0.232500X0.232500X0*%
%ADD52RoundRect,0.062500X-0.375000X-0.062500X0.375000X-0.062500X0.375000X0.062500X-0.375000X0.062500X0*%
%ADD53RoundRect,0.062500X-0.062500X-0.375000X0.062500X-0.375000X0.062500X0.375000X-0.062500X0.375000X0*%
%ADD54R,1.050000X0.650000*%
%ADD55R,0.300000X0.750000*%
%ADD56R,0.750000X0.300000*%
%ADD57R,4.800000X4.800000*%
%ADD58R,0.610000X1.910000*%
%ADD59R,0.930000X0.723000*%
%ADD60RoundRect,0.150000X-0.150000X0.587500X-0.150000X-0.587500X0.150000X-0.587500X0.150000X0.587500X0*%
%ADD61R,0.900000X0.800000*%
%ADD62RoundRect,0.135000X-0.135000X-0.185000X0.135000X-0.185000X0.135000X0.185000X-0.135000X0.185000X0*%
%ADD63R,0.650000X0.250000*%
%ADD64R,1.700000X2.500000*%
%ADD65R,0.400000X0.510000*%
G04 APERTURE END LIST*
D10*
%TO.C,FB1*%
X126967500Y-103604000D03*
X125317500Y-103604000D03*
%TD*%
D11*
%TO.C,C46*%
X143777000Y-85344000D03*
X142227000Y-85344000D03*
%TD*%
D12*
%TO.C,C45*%
X137909000Y-92329000D03*
X139459000Y-92329000D03*
%TD*%
D13*
%TO.C,U10*%
X137990000Y-88428000D03*
X139490000Y-87288000D03*
X137990000Y-87288000D03*
X139490000Y-88428000D03*
D14*
X136835000Y-90333000D03*
X138105000Y-90333000D03*
X139375000Y-90333000D03*
X140645000Y-90333000D03*
X140645000Y-85383000D03*
X139375000Y-85383000D03*
X138105000Y-85383000D03*
X136835000Y-85383000D03*
%TD*%
D15*
%TO.C,R9*%
X112649000Y-103315000D03*
X112649000Y-104965000D03*
%TD*%
D16*
%TO.C,C29*%
X158270000Y-101600000D03*
X159230000Y-101600000D03*
%TD*%
D17*
%TO.C,D7*%
X120142000Y-102260500D03*
X120142000Y-100685500D03*
%TD*%
D18*
%TO.C,R18*%
X168275000Y-103884000D03*
X168275000Y-104904000D03*
%TD*%
D19*
%TO.C,L5*%
X165227000Y-102339000D03*
X165227000Y-101369000D03*
%TD*%
D20*
%TO.C,C24*%
X154606600Y-97523000D03*
X154606600Y-96563000D03*
%TD*%
D21*
%TO.C,C33*%
X157607000Y-105819000D03*
X157607000Y-106779000D03*
%TD*%
D18*
%TO.C,R17*%
X169291000Y-103884000D03*
X169291000Y-104904000D03*
%TD*%
D22*
%TO.C,R15*%
X123712000Y-85453000D03*
X123712000Y-83803000D03*
%TD*%
D21*
%TO.C,C43*%
X148653500Y-114328000D03*
X148653500Y-115288000D03*
%TD*%
D16*
%TO.C,C36*%
X158524000Y-105791000D03*
X159484000Y-105791000D03*
%TD*%
D23*
%TO.C,U5*%
X104164600Y-110095000D03*
X104164600Y-112395000D03*
D24*
X110464600Y-112395000D03*
D23*
X104164600Y-114695000D03*
%TD*%
D20*
%TO.C,C25*%
X153590600Y-97015000D03*
X153590600Y-96055000D03*
%TD*%
D25*
%TO.C,C40*%
X169164000Y-100076000D03*
X168204000Y-100076000D03*
%TD*%
D15*
%TO.C,R7*%
X109601000Y-97219000D03*
X109601000Y-98869000D03*
%TD*%
D26*
%TO.C,D5*%
X106527500Y-97282000D03*
X108102500Y-97282000D03*
%TD*%
D27*
%TO.C,U1*%
X130136000Y-107780000D03*
X130136000Y-105580000D03*
X128436000Y-105580000D03*
X128436000Y-107780000D03*
%TD*%
D28*
%TO.C,U9*%
X167325000Y-101333000D03*
X167325000Y-101983000D03*
X167325000Y-102633000D03*
X169225000Y-102633000D03*
X169225000Y-101983000D03*
X169225000Y-101333000D03*
%TD*%
D15*
%TO.C,R12*%
X120142000Y-97600000D03*
X120142000Y-99250000D03*
%TD*%
%TO.C,R10*%
X116713000Y-98616000D03*
X116713000Y-100266000D03*
%TD*%
D21*
%TO.C,C1*%
X118618000Y-116741000D03*
X118618000Y-117701000D03*
%TD*%
D29*
%TO.C,R20*%
X153543000Y-114554000D03*
X153543000Y-113534000D03*
%TD*%
D16*
%TO.C,C19*%
X120565000Y-82550000D03*
X121525000Y-82550000D03*
%TD*%
D30*
%TO.C,C14*%
X123698000Y-107889000D03*
X123698000Y-109789000D03*
%TD*%
D31*
%TO.C,C13*%
X112903000Y-109156200D03*
X112903000Y-110706200D03*
%TD*%
D16*
%TO.C,C23*%
X156285600Y-97551000D03*
X157245600Y-97551000D03*
%TD*%
D11*
%TO.C,C10*%
X111265000Y-101727000D03*
X109715000Y-101727000D03*
%TD*%
D15*
%TO.C,R11*%
X123190000Y-97600000D03*
X123190000Y-99250000D03*
%TD*%
D32*
%TO.C,L2*%
X161140000Y-101346000D03*
X160170000Y-101346000D03*
%TD*%
D15*
%TO.C,R13*%
X121666000Y-97600000D03*
X121666000Y-99250000D03*
%TD*%
D17*
%TO.C,D6*%
X123190000Y-102260500D03*
X123190000Y-100685500D03*
%TD*%
D31*
%TO.C,C16*%
X118632000Y-88298000D03*
X118632000Y-89848000D03*
%TD*%
D33*
%TO.C,RN2*%
X147074000Y-98691000D03*
X147074000Y-99191000D03*
X147074000Y-99691000D03*
X147074000Y-100191000D03*
X148074000Y-100191000D03*
X148074000Y-99691000D03*
X148074000Y-99191000D03*
X148074000Y-98691000D03*
%TD*%
D17*
%TO.C,D2*%
X137287000Y-116465750D03*
X137287000Y-114890750D03*
%TD*%
D20*
%TO.C,C37*%
X166243000Y-102334000D03*
X166243000Y-101374000D03*
%TD*%
D16*
%TO.C,C15*%
X125631000Y-88265000D03*
X126591000Y-88265000D03*
%TD*%
D17*
%TO.C,D3*%
X138811000Y-116465750D03*
X138811000Y-114890750D03*
%TD*%
D21*
%TO.C,C32*%
X160147000Y-102263000D03*
X160147000Y-103223000D03*
%TD*%
D33*
%TO.C,RN3*%
X147074000Y-101231000D03*
X147074000Y-101731000D03*
X147074000Y-102231000D03*
X147074000Y-102731000D03*
X148074000Y-102731000D03*
X148074000Y-102231000D03*
X148074000Y-101731000D03*
X148074000Y-101231000D03*
%TD*%
D25*
%TO.C,C22*%
X149451000Y-97663000D03*
X148491000Y-97663000D03*
%TD*%
D21*
%TO.C,C17*%
X119902000Y-88311000D03*
X119902000Y-89271000D03*
%TD*%
%TO.C,C5*%
X127000000Y-106708000D03*
X127000000Y-107668000D03*
%TD*%
D34*
%TO.C,J4*%
X125690000Y-72644000D03*
D35*
X124690000Y-75344000D03*
X119690000Y-75344000D03*
D34*
X118690000Y-72644000D03*
D36*
X123490000Y-75344000D03*
X122840000Y-75344000D03*
X122190000Y-75344000D03*
X121540000Y-75344000D03*
X120890000Y-75344000D03*
D37*
X125090000Y-72644000D03*
D38*
X123190000Y-72644000D03*
X121190000Y-72644000D03*
D37*
X119290000Y-72644000D03*
%TD*%
D39*
%TO.C,D4*%
X162560000Y-73746000D03*
X162560000Y-78146000D03*
%TD*%
D25*
%TO.C,C26*%
X149498600Y-103774000D03*
X148538600Y-103774000D03*
%TD*%
D19*
%TO.C,L4*%
X163195000Y-103355000D03*
X163195000Y-102385000D03*
%TD*%
D16*
%TO.C,C28*%
X157889000Y-104013000D03*
X158849000Y-104013000D03*
%TD*%
D22*
%TO.C,R16*%
X121426000Y-85453000D03*
X121426000Y-83803000D03*
%TD*%
D40*
%TO.C,SW2*%
X126525000Y-115298000D03*
X126525000Y-117508000D03*
X133825000Y-115298000D03*
X133825000Y-117508000D03*
D41*
X127925000Y-114648000D03*
X130925000Y-114648000D03*
X132425000Y-114648000D03*
%TD*%
D42*
%TO.C,C12*%
X102042000Y-114808000D03*
X100142000Y-114808000D03*
%TD*%
D33*
%TO.C,RN1*%
X147074000Y-107327000D03*
X147074000Y-107827000D03*
X147074000Y-108327000D03*
X147074000Y-108827000D03*
X148074000Y-108827000D03*
X148074000Y-108327000D03*
X148074000Y-107827000D03*
X148074000Y-107327000D03*
%TD*%
D22*
%TO.C,R2*%
X135763000Y-113455250D03*
X135763000Y-111805250D03*
%TD*%
D43*
%TO.C,IC1*%
X163576000Y-81788000D03*
X162926000Y-81788000D03*
X162276000Y-81788000D03*
X162276000Y-83688000D03*
X163576000Y-83688000D03*
%TD*%
D16*
%TO.C,C38*%
X160429000Y-105791000D03*
X161389000Y-105791000D03*
%TD*%
D44*
%TO.C,D9*%
X120918000Y-93746500D03*
X120918000Y-95321500D03*
%TD*%
D21*
%TO.C,C35*%
X149669500Y-114328000D03*
X149669500Y-115288000D03*
%TD*%
D31*
%TO.C,C39*%
X146431000Y-114287000D03*
X146431000Y-115837000D03*
%TD*%
D15*
%TO.C,R8*%
X108077000Y-98870000D03*
X108077000Y-100520000D03*
%TD*%
D45*
%TO.C,J5*%
X174244000Y-101981000D03*
D46*
X174244000Y-104751000D03*
X174244000Y-99211000D03*
%TD*%
D22*
%TO.C,R4*%
X138811000Y-113455250D03*
X138811000Y-111805250D03*
%TD*%
D23*
%TO.C,U6*%
X121387000Y-111647000D03*
X121387000Y-109347000D03*
D24*
X115087000Y-109347000D03*
D23*
X121387000Y-107047000D03*
%TD*%
D16*
%TO.C,C30*%
X161191000Y-102362000D03*
X162151000Y-102362000D03*
%TD*%
D17*
%TO.C,D1*%
X135763000Y-116465750D03*
X135763000Y-114890750D03*
%TD*%
D15*
%TO.C,R5*%
X108077000Y-94171000D03*
X108077000Y-95821000D03*
%TD*%
D47*
%TO.C,C2*%
X137226000Y-104902000D03*
X139126000Y-104902000D03*
%TD*%
D48*
%TO.C,D10*%
X121619000Y-81160000D03*
X122569000Y-81160000D03*
X123519000Y-81160000D03*
X123519000Y-78860000D03*
X122569000Y-78860000D03*
X121619000Y-78860000D03*
%TD*%
D22*
%TO.C,R3*%
X137287000Y-113455250D03*
X137287000Y-111805250D03*
%TD*%
D20*
%TO.C,C3*%
X128936500Y-99131000D03*
X128936500Y-98171000D03*
%TD*%
D21*
%TO.C,C8*%
X125253500Y-104775000D03*
X125253500Y-105735000D03*
%TD*%
D49*
%TO.C,L3*%
X155598000Y-105791000D03*
X156568000Y-105791000D03*
%TD*%
%TO.C,L1*%
X160193000Y-100330000D03*
X161163000Y-100330000D03*
%TD*%
D20*
%TO.C,C21*%
X152146000Y-95349000D03*
X152146000Y-94389000D03*
%TD*%
D25*
%TO.C,C20*%
X125293000Y-77089000D03*
X124333000Y-77089000D03*
%TD*%
D50*
%TO.C,C11*%
X102108000Y-112281000D03*
X102108000Y-110731000D03*
%TD*%
D51*
%TO.C,U2*%
X131445000Y-100196000D03*
X131445000Y-101346000D03*
X131445000Y-102496000D03*
X132595000Y-100196000D03*
X132595000Y-101346000D03*
X132595000Y-102496000D03*
X133745000Y-100196000D03*
X133745000Y-101346000D03*
X133745000Y-102496000D03*
D52*
X130157500Y-99596000D03*
X130157500Y-100096000D03*
X130157500Y-100596000D03*
X130157500Y-101096000D03*
X130157500Y-101596000D03*
X130157500Y-102096000D03*
X130157500Y-102596000D03*
X130157500Y-103096000D03*
D53*
X130845000Y-103783500D03*
X131345000Y-103783500D03*
X131845000Y-103783500D03*
X132345000Y-103783500D03*
X132845000Y-103783500D03*
X133345000Y-103783500D03*
X133845000Y-103783500D03*
X134345000Y-103783500D03*
D52*
X135032500Y-103096000D03*
X135032500Y-102596000D03*
X135032500Y-102096000D03*
X135032500Y-101596000D03*
X135032500Y-101096000D03*
X135032500Y-100596000D03*
X135032500Y-100096000D03*
X135032500Y-99596000D03*
D53*
X134345000Y-98908500D03*
X133845000Y-98908500D03*
X133345000Y-98908500D03*
X132845000Y-98908500D03*
X132345000Y-98908500D03*
X131845000Y-98908500D03*
X131345000Y-98908500D03*
X130845000Y-98908500D03*
%TD*%
D54*
%TO.C,SW1*%
X120127202Y-115257000D03*
X124277202Y-115257000D03*
X120127202Y-117407000D03*
X124277202Y-117407000D03*
%TD*%
D18*
%TO.C,R19*%
X154559000Y-113534000D03*
X154559000Y-114554000D03*
%TD*%
D55*
%TO.C,U8*%
X155540600Y-98640000D03*
X154890600Y-98640000D03*
X154240600Y-98640000D03*
X153590600Y-98640000D03*
X152940600Y-98640000D03*
X152290600Y-98640000D03*
X151640600Y-98640000D03*
D56*
X150615600Y-99665000D03*
X150615600Y-100315000D03*
X150615600Y-100965000D03*
X150615600Y-101615000D03*
X150615600Y-102265000D03*
X150615600Y-102915000D03*
X150615600Y-103565000D03*
D55*
X151640600Y-104590000D03*
X152290600Y-104590000D03*
X152940600Y-104590000D03*
X153590600Y-104590000D03*
X154240600Y-104590000D03*
X154890600Y-104590000D03*
X155540600Y-104590000D03*
D56*
X156565600Y-103565000D03*
X156565600Y-102915000D03*
X156565600Y-102265000D03*
X156565600Y-101615000D03*
X156565600Y-100965000D03*
X156565600Y-100315000D03*
X156565600Y-99665000D03*
D57*
X153590600Y-101615000D03*
%TD*%
D20*
%TO.C,C34*%
X164211000Y-103350000D03*
X164211000Y-102390000D03*
%TD*%
D21*
%TO.C,C7*%
X127031500Y-104775000D03*
X127031500Y-105735000D03*
%TD*%
D58*
%TO.C,U3*%
X115062000Y-94135000D03*
X113792000Y-94135000D03*
X112522000Y-94135000D03*
X111252000Y-94135000D03*
X111252000Y-99695000D03*
X112522000Y-99695000D03*
X113792000Y-99695000D03*
X115062000Y-99695000D03*
D59*
X113932000Y-96312500D03*
X112382000Y-96312500D03*
X113932000Y-97517500D03*
X112382000Y-97517500D03*
%TD*%
D16*
%TO.C,C31*%
X161191000Y-103378000D03*
X162151000Y-103378000D03*
%TD*%
D60*
%TO.C,U4*%
X117409000Y-78564500D03*
X115509000Y-78564500D03*
X116459000Y-80439500D03*
%TD*%
D21*
%TO.C,C41*%
X147701000Y-114328000D03*
X147701000Y-115288000D03*
%TD*%
D25*
%TO.C,C6*%
X127003500Y-102334000D03*
X126043500Y-102334000D03*
%TD*%
D61*
%TO.C,Y1*%
X149476000Y-96350000D03*
X150876000Y-96350000D03*
X150876000Y-95250000D03*
X149476000Y-95250000D03*
%TD*%
D11*
%TO.C,C9*%
X111278000Y-92075000D03*
X109728000Y-92075000D03*
%TD*%
D25*
%TO.C,C18*%
X124547000Y-82550000D03*
X123587000Y-82550000D03*
%TD*%
D16*
%TO.C,C44*%
X170208000Y-101981000D03*
X171168000Y-101981000D03*
%TD*%
D62*
%TO.C,R1*%
X130933000Y-113157000D03*
X131953000Y-113157000D03*
%TD*%
D63*
%TO.C,U7*%
X121019000Y-86932000D03*
X121019000Y-87382000D03*
X121019000Y-87832000D03*
X121019000Y-88282000D03*
X121019000Y-88732000D03*
X121019000Y-89182000D03*
X124119000Y-89182000D03*
X124119000Y-88732000D03*
X124119000Y-88282000D03*
X124119000Y-87832000D03*
X124119000Y-87382000D03*
X124119000Y-86932000D03*
D64*
X122569000Y-88057000D03*
%TD*%
D21*
%TO.C,C42*%
X170307000Y-103914000D03*
X170307000Y-104874000D03*
%TD*%
D15*
%TO.C,R14*%
X120918000Y-90598000D03*
X120918000Y-92248000D03*
%TD*%
D65*
%TO.C,Q1*%
X115054000Y-101590000D03*
X114054000Y-101590000D03*
X114554000Y-102880000D03*
%TD*%
D16*
%TO.C,C4*%
X136299000Y-103251000D03*
X137259000Y-103251000D03*
%TD*%
D17*
%TO.C,D8*%
X121666000Y-102260500D03*
X121666000Y-100685500D03*
%TD*%
D16*
%TO.C,C27*%
X157889000Y-102997000D03*
X158849000Y-102997000D03*
%TD*%
D22*
%TO.C,R6*%
X109601000Y-95821000D03*
X109601000Y-94171000D03*
%TD*%
M02*
