M48
; DRILL file {KiCad 7.0.6} date Tue Oct  3 10:59:45 2023
; FORMAT={-:-/ absolute / metric / decimal}
; #@! TF.CreationDate,2023-10-03T10:59:45-06:00
; #@! TF.GenerationSoftware,Kicad,Pcbnew,7.0.6
; #@! TF.FileFunction,MixedPlating,1,4
FMAT,2
METRIC
; #@! TA.AperFunction,Plated,PTH,ViaDrill
T1C0.300
; #@! TA.AperFunction,Plated,PTH,ViaDrill
T2C0.400
; #@! TA.AperFunction,Plated,PTH,ComponentDrill
T3C0.500
; #@! TA.AperFunction,Plated,PTH,ComponentDrill
T4C0.550
; #@! TA.AperFunction,Plated,PTH,ComponentDrill
T5C1.000
; #@! TA.AperFunction,Plated,PTH,ComponentDrill
T6C1.020
; #@! TA.AperFunction,Plated,PTH,ComponentDrill
T7C2.410
; #@! TA.AperFunction,Plated,PTH,ComponentDrill
T8C3.200
; #@! TA.AperFunction,NonPlated,NPTH,ComponentDrill
T9C0.900
; #@! TA.AperFunction,NonPlated,NPTH,ComponentDrill
T10C2.200
%
G90
G05
T1
X112.649Y-102.489
X113.308Y-100.915
X122.09Y-76.473
X123.519Y-78.105
X123.825Y-116.713
X124.293Y-92.456
X124.293Y-101.092
X124.841Y-89.408
X126.064Y-87.471
X127.52Y-99.262
X128.142Y-99.922
X128.143Y-86.308
X128.943Y-104.33
X129.23Y-102.77
X129.558Y-103.66
X130.586Y-98.649
X133.477Y-92.202
X134.239Y-111.289
X134.326Y-96.686
X134.569Y-109.691
X134.586Y-103.834
X135.019Y-98.933
X135.763Y-98.044
X135.763Y-112.506
X136.525Y-89.408
X136.525Y-97.361
X136.779Y-101.421
X137.2Y-96.686
X137.287Y-112.478
X137.51Y-100.807
X137.541Y-101.913
X137.707Y-94.703
X138.235Y-100.082
X138.303Y-102.596
X138.596Y-96.861
X138.977Y-103.251
X138.977Y-109.691
X139.192Y-99.187
X139.231Y-95.25
X139.718Y-114.058
X139.954Y-96.012
X140.208Y-89.408
X140.208Y-113.284
X140.589Y-93.892
X140.629Y-101.503
X141.193Y-93.226
X141.732Y-110.744
X142.494Y-81.894
X142.494Y-82.793
X142.494Y-83.693
X142.494Y-84.709
X143.001Y-105.409
X143.002Y-100.29
X143.807Y-108.207
X143.892Y-105.537
X144.018Y-93.218
X144.018Y-95.25
X144.399Y-97.282
X144.399Y-109.982
X144.907Y-94.234
X145.034Y-96.266
X145.034Y-110.871
X145.161Y-97.917
X145.161Y-103.759
X145.288Y-105.537
X145.415Y-93.091
X145.542Y-109.982
X145.923Y-99.365
X145.923Y-104.648
X146.177Y-106.172
X146.304Y-94.107
X146.304Y-96.774
X146.304Y-104.013
X146.685Y-105.537
X146.685Y-110.871
X147.447Y-93.091
X147.574Y-106.426
X147.828Y-110.109
X149.225Y-92.964
X150.241Y-110.236
X150.876Y-106.652
X150.953Y-108.037
X151.627Y-105.574
X151.638Y-109.387
X152.146Y-93.091
X152.908Y-109.728
X153.035Y-108.204
X153.162Y-92.075
X153.797Y-109.22
X154.432Y-93.853
X154.559Y-108.077
X154.94Y-114.554
X155.194Y-94.996
X155.829Y-110.744
X155.829Y-113.538
X156.337Y-109.855
X157.099Y-109.093
X157.353Y-110.617
X157.734Y-93.472
X157.861Y-99.187
X158.115Y-94.996
X158.242Y-109.982
X158.496Y-109.22
X158.877Y-99.187
X159.004Y-104.902
X159.131Y-97.917
X159.258Y-110.617
X159.766Y-106.934
X159.766Y-108.839
X160.02Y-104.902
X160.147Y-94.996
X160.147Y-96.266
X160.147Y-99.187
X160.274Y-93.218
X160.401Y-109.982
X160.528Y-97.663
X160.909Y-108.966
X161.036Y-107.061
X161.163Y-99.187
X161.163Y-104.902
X161.29Y-81.915
X161.671Y-110.744
X161.798Y-104.267
X162.052Y-96.266
X162.052Y-97.917
X162.052Y-99.314
X162.179Y-100.711
X162.179Y-106.553
X162.433Y-93.218
X162.433Y-109.22
X162.56Y-94.869
X162.814Y-100.076
X162.814Y-110.109
X162.941Y-105.029
X163.195Y-101.346
X163.449Y-99.187
X163.576Y-84.582
X163.576Y-104.267
X163.703Y-100.584
X163.703Y-106.553
X163.957Y-81.788
X163.957Y-98.044
X164.084Y-110.617
X164.211Y-96.266
X164.211Y-101.346
X164.211Y-109.093
X164.338Y-99.568
X164.338Y-105.029
X164.719Y-93.345
X165.1Y-100.33
X165.1Y-106.553
X165.227Y-109.855
X165.354Y-98.552
X165.354Y-104.013
X165.481Y-94.869
X165.608Y-99.568
X165.862Y-96.266
X165.989Y-97.79
X166.116Y-105.537
X166.116Y-107.315
X166.243Y-100.33
X166.243Y-109.22
X166.37Y-93.218
X166.37Y-103.124
X166.497Y-110.617
X166.751Y-94.615
X166.751Y-99.441
X167.005Y-104.648
X167.132Y-106.807
X167.259Y-97.79
X167.386Y-96.393
X167.386Y-109.855
X167.64Y-99.06
X168.148Y-94.742
X168.275Y-93.345
X168.275Y-105.537
X168.529Y-97.79
X168.529Y-109.093
X168.529Y-110.617
X169.291Y-105.41
X170.434Y-109.22
X170.434Y-110.617
X170.561Y-107.95
X170.688Y-106.807
X170.815Y-93.98
X170.912Y-101.094
X170.942Y-95.377
X170.942Y-96.647
X171.196Y-92.837
X171.196Y-110.871
X171.577Y-109.474
X171.704Y-94.742
X171.831Y-108.331
X171.958Y-107.061
X172.466Y-96.52
X172.466Y-110.871
X172.72Y-93.091
X172.974Y-94.742
X172.974Y-110.109
X173.228Y-109.22
X173.482Y-108.077
X173.609Y-107.061
X173.863Y-96.647
X174.117Y-92.964
X174.371Y-109.22
X174.371Y-110.744
X174.625Y-94.742
X174.625Y-107.061
X175.006Y-92.964
X175.006Y-96.52
X175.133Y-110.363
X175.26Y-108.458
X175.26Y-109.474
X175.387Y-107.188
T2
X100.203Y-113.792
X100.203Y-115.824
X100.582Y-75.857
X100.582Y-86.017
X100.582Y-93.637
X100.582Y-101.257
X100.582Y-108.877
X101.346Y-110.744
X102.87Y-114.808
X103.122Y-80.937
X103.122Y-116.497
X103.632Y-109.982
X103.787Y-78.232
X104.34Y-86.995
X104.648Y-110.236
X105.662Y-73.317
X105.662Y-88.557
X105.662Y-98.717
X106.426Y-96.52
X108.077Y-101.219
X108.966Y-78.232
X109.093Y-111.125
X109.093Y-112.395
X109.093Y-113.792
X109.728Y-92.837
X109.728Y-100.838
X110.49Y-111.379
X110.49Y-113.665
X110.742Y-78.397
X110.742Y-116.497
X112.395Y-96.393
X112.395Y-97.536
X112.507Y-110.193
X113.411Y-105.029
X113.411Y-107.95
X113.792Y-92.964
X113.919Y-96.393
X113.919Y-97.536
X115.062Y-92.964
X115.062Y-102.87
X115.822Y-75.857
X115.822Y-113.957
X116.332Y-109.347
X117.409Y-80.01
X117.983Y-116.731
X118.187Y-88.822
X118.362Y-83.477
X118.362Y-91.097
X118.362Y-101.257
X119.38Y-97.536
X120.015Y-109.347
X120.486Y-83.104
X120.904Y-111.379
X121.194Y-97.212
X121.412Y-109.347
X121.793Y-95.377
X121.793Y-111.887
X122.174Y-115.257
X122.503Y-82.042
X122.569Y-79.96
X122.569Y-88.057
X122.569Y-88.951
X122.58Y-87.173
X123.241Y-108.989
X124.69Y-103.505
X124.931Y-82.55
X125.222Y-77.597
X125.222Y-106.172
X125.603Y-88.773
X125.614Y-102.504
X125.982Y-75.857
X125.982Y-108.877
X127.0Y-106.172
X127.09Y-88.265
X128.27Y-108.712
X128.27Y-114.681
X128.522Y-80.937
X129.032Y-97.663
X129.651Y-99.171
X130.429Y-108.712
X131.062Y-73.317
X131.062Y-91.097
X131.062Y-111.417
X131.476Y-100.175
X131.476Y-102.588
X131.496Y-101.42
X132.493Y-100.175
X132.493Y-102.588
X132.52Y-101.445
X132.969Y-113.538
X133.602Y-83.477
X133.636Y-100.175
X133.636Y-102.588
X133.655Y-101.42
X135.763Y-117.094
X136.142Y-75.857
X136.654Y-104.013
X137.287Y-117.094
X137.523Y-103.32
X138.011Y-87.623
X138.117Y-90.474
X138.773Y-88.258
X138.811Y-117.094
X139.535Y-87.623
X140.208Y-92.202
X140.335Y-86.213
X140.591Y-104.902
X140.843Y-103.759
X141.222Y-73.317
X141.222Y-116.497
X142.748Y-110.744
X142.748Y-112.014
X142.923Y-92.075
X142.923Y-93.091
X142.923Y-94.234
X142.923Y-95.504
X142.923Y-96.853
X142.923Y-98.171
X143.762Y-88.557
X143.764Y-112.141
X143.939Y-92.075
X145.002Y-92.075
X145.034Y-112.141
X145.542Y-114.427
X146.304Y-112.141
X146.352Y-92.075
X146.558Y-95.25
X147.574Y-112.141
X147.749Y-92.075
X148.209Y-97.028
X148.209Y-103.774
X148.717Y-95.25
X148.842Y-73.317
X148.842Y-116.497
X148.844Y-112.141
X149.146Y-92.075
X149.479Y-104.648
X150.052Y-112.141
X150.416Y-92.075
X150.876Y-114.3
X151.342Y-96.702
X151.382Y-78.397
X151.382Y-88.557
X151.765Y-92.075
X151.765Y-112.141
X152.067Y-100.091
X152.067Y-101.615
X152.067Y-103.139
X152.908Y-94.361
X153.162Y-92.075
X153.162Y-112.141
X153.591Y-95.697
X153.591Y-100.091
X153.591Y-101.615
X153.591Y-103.139
X154.559Y-92.075
X154.559Y-112.141
X154.607Y-96.002
X155.115Y-100.091
X155.115Y-101.615
X155.115Y-103.139
X155.575Y-92.075
X155.88Y-96.444
X155.956Y-112.141
X156.462Y-73.317
X156.462Y-80.937
X156.462Y-116.497
X156.625Y-106.714
X157.353Y-92.075
X157.353Y-112.141
X157.782Y-97.551
X157.889Y-104.521
X158.734Y-106.737
X158.75Y-92.075
X158.75Y-112.141
X159.002Y-88.557
X160.147Y-92.075
X160.147Y-103.886
X160.147Y-112.141
X161.544Y-77.597
X161.544Y-78.867
X161.544Y-92.075
X161.544Y-112.141
X162.179Y-101.727
X162.433Y-75.311
X162.941Y-92.075
X162.941Y-112.141
X163.322Y-77.597
X163.322Y-78.867
X164.082Y-116.497
X164.338Y-92.075
X164.338Y-112.141
X165.354Y-76.327
X165.481Y-78.867
X165.735Y-92.075
X165.735Y-112.141
X166.622Y-88.557
X167.132Y-92.075
X167.132Y-112.141
X167.417Y-100.09
X167.64Y-84.27
X168.529Y-92.075
X168.529Y-112.141
X169.172Y-99.241
X170.18Y-112.141
X170.307Y-105.41
X170.648Y-92.075
X171.196Y-99.187
X171.323Y-104.775
X171.323Y-112.141
X171.702Y-73.317
X171.702Y-80.937
X171.702Y-113.957
X171.958Y-92.075
X172.339Y-98.171
X172.339Y-100.203
X172.339Y-103.759
X172.339Y-105.791
X172.72Y-112.141
X172.974Y-92.075
X173.228Y-100.203
X173.228Y-103.759
X173.228Y-105.791
X173.355Y-98.171
X174.242Y-86.017
X174.244Y-92.075
X174.244Y-98.171
X174.244Y-100.203
X174.244Y-103.759
X174.244Y-105.791
X174.244Y-112.141
X175.133Y-98.171
X175.26Y-100.203
X175.26Y-103.759
X175.26Y-105.791
X175.514Y-92.075
X175.641Y-112.141
X176.276Y-107.315
X176.276Y-108.585
X176.276Y-109.855
X176.276Y-111.252
X176.324Y-104.013
X176.324Y-105.029
X176.324Y-106.045
X176.403Y-92.075
X176.403Y-93.345
X176.403Y-94.742
X176.403Y-96.012
X176.403Y-97.282
X176.403Y-98.298
T5
X107.391Y-104.318
X107.391Y-106.858
X109.459Y-84.836
X109.931Y-104.318
X109.931Y-106.858
X111.999Y-84.836
X114.539Y-84.836
X138.786Y-79.652
X140.171Y-76.812
X141.556Y-79.652
X142.941Y-76.812
X144.326Y-79.652
X145.711Y-76.812
X147.096Y-79.652
X148.481Y-76.812
X149.866Y-79.652
X166.624Y-73.66
X166.624Y-76.2
X166.624Y-78.74
X166.624Y-81.28
X166.624Y-83.82
X169.164Y-73.66
X169.164Y-76.2
X169.164Y-78.74
X169.164Y-81.28
X169.164Y-83.82
T6
X104.947Y-75.232
X104.947Y-78.232
X104.947Y-81.232
X107.947Y-75.232
X107.947Y-78.232
X107.947Y-81.232
T7
X100.627Y-73.082
X100.627Y-83.382
T8
X131.826Y-78.232
X156.826Y-78.232
T9
X128.675Y-116.408
X131.675Y-116.408
T10
X114.554Y-73.914
X114.554Y-115.57
X173.99Y-73.914
X173.99Y-115.57
T3
G00X118.69Y-72.969
M15
G01X118.69Y-72.319
M16
G05
G00X125.69Y-72.969
M15
G01X125.69Y-72.319
M16
G05
T4
G00X119.84Y-75.344
M15
G01X119.54Y-75.344
M16
G05
G00X124.84Y-75.344
M15
G01X124.54Y-75.344
M16
G05
T0
M30
