M48
; DRILL file {KiCad 7.0.6} date Thu Oct  5 23:13:57 2023
; FORMAT={-:-/ absolute / inch / decimal}
; #@! TF.CreationDate,2023-10-05T23:13:57-06:00
; #@! TF.GenerationSoftware,Kicad,Pcbnew,7.0.6
; #@! TF.FileFunction,Plated,1,4,PTH
FMAT,2
INCH
; #@! TA.AperFunction,Plated,PTH,ViaDrill
T1C0.0118
; #@! TA.AperFunction,Plated,PTH,ViaDrill
T2C0.0157
; #@! TA.AperFunction,Plated,PTH,ComponentDrill
T3C0.0197
; #@! TA.AperFunction,Plated,PTH,ComponentDrill
T4C0.0217
; #@! TA.AperFunction,Plated,PTH,ComponentDrill
T5C0.0394
; #@! TA.AperFunction,Plated,PTH,ComponentDrill
T6C0.0402
; #@! TA.AperFunction,Plated,PTH,ComponentDrill
T7C0.0949
; #@! TA.AperFunction,Plated,PTH,ComponentDrill
T8C0.1260
%
G90
G05
T1
X4.435Y-4.035
X4.4609Y-3.9731
X4.8067Y-3.0107
X4.863Y-3.075
X4.875Y-4.595
X4.8934Y-3.64
X4.8934Y-3.98
X4.915Y-3.52
X4.9632Y-3.4437
X5.0205Y-3.9079
X5.045Y-3.9339
X5.045Y-3.398
X5.0765Y-4.1075
X5.0878Y-4.0461
X5.1007Y-4.0811
X5.1412Y-3.8838
X5.255Y-3.63
X5.285Y-4.3815
X5.2884Y-3.8066
X5.298Y-4.3185
X5.2987Y-4.088
X5.3157Y-3.895
X5.345Y-3.86
X5.345Y-4.4294
X5.375Y-3.8331
X5.385Y-3.605
X5.385Y-3.993
X5.4016Y-3.8066
X5.405Y-4.4283
X5.4138Y-3.9688
X5.415Y-4.0123
X5.4216Y-3.7284
X5.4423Y-3.9402
X5.445Y-4.0392
X5.4566Y-3.8134
X5.4716Y-4.065
X5.4716Y-4.3185
X5.48Y-3.905
X5.4816Y-3.75
X5.5007Y-4.4905
X5.51Y-3.78
X5.52Y-4.46
X5.5315Y-3.6047
X5.535Y-3.6966
X5.5366Y-3.9962
X5.5588Y-3.6703
X5.58Y-4.36
X5.63Y-4.15
X5.63Y-3.2242
X5.63Y-3.2596
X5.63Y-3.295
X5.63Y-3.335
X5.63Y-3.9484
X5.6617Y-4.2601
X5.665Y-4.155
X5.67Y-3.67
X5.67Y-3.75
X5.685Y-3.83
X5.685Y-4.33
X5.705Y-3.71
X5.71Y-3.79
X5.71Y-4.365
X5.715Y-3.855
X5.715Y-4.085
X5.72Y-4.155
X5.725Y-3.665
X5.73Y-4.33
X5.745Y-3.912
X5.745Y-4.12
X5.755Y-4.18
X5.76Y-3.705
X5.76Y-3.81
X5.76Y-4.095
X5.775Y-4.155
X5.775Y-4.365
X5.805Y-3.665
X5.81Y-4.19
X5.82Y-4.335
X5.875Y-3.66
X5.915Y-4.34
X5.94Y-4.1989
X5.943Y-4.2534
X5.9696Y-4.1565
X5.97Y-4.3066
X5.99Y-3.665
X6.02Y-4.32
X6.025Y-4.26
X6.03Y-3.625
X6.055Y-4.3
X6.08Y-3.695
X6.085Y-4.255
X6.1Y-4.51
X6.11Y-3.74
X6.135Y-4.36
X6.135Y-4.47
X6.155Y-4.325
X6.185Y-4.295
X6.195Y-4.355
X6.21Y-3.68
X6.215Y-3.905
X6.225Y-3.74
X6.23Y-4.33
X6.24Y-4.3
X6.255Y-3.905
X6.26Y-4.13
X6.265Y-3.855
X6.27Y-4.355
X6.29Y-4.21
X6.29Y-4.285
X6.3Y-4.13
X6.305Y-3.74
X6.305Y-3.79
X6.305Y-3.905
X6.31Y-3.67
X6.315Y-4.33
X6.32Y-3.845
X6.335Y-4.29
X6.34Y-4.215
X6.345Y-3.905
X6.345Y-4.13
X6.35Y-3.225
X6.365Y-4.36
X6.37Y-4.105
X6.38Y-3.79
X6.38Y-3.855
X6.38Y-3.91
X6.385Y-3.965
X6.385Y-4.195
X6.395Y-3.67
X6.395Y-4.3
X6.4Y-3.735
X6.41Y-3.94
X6.41Y-4.335
X6.415Y-4.135
X6.425Y-3.99
X6.435Y-3.905
X6.44Y-3.33
X6.44Y-4.105
X6.445Y-3.96
X6.445Y-4.195
X6.455Y-3.22
X6.455Y-3.86
X6.46Y-4.355
X6.465Y-3.79
X6.465Y-3.99
X6.465Y-4.295
X6.47Y-3.92
X6.47Y-4.135
X6.485Y-3.675
X6.5Y-3.95
X6.5Y-4.195
X6.505Y-4.325
X6.51Y-3.88
X6.51Y-4.095
X6.515Y-3.735
X6.52Y-3.92
X6.53Y-3.79
X6.535Y-3.85
X6.54Y-4.155
X6.54Y-4.225
X6.545Y-3.95
X6.545Y-4.3
X6.55Y-3.67
X6.55Y-4.06
X6.555Y-4.355
X6.565Y-3.725
X6.565Y-3.915
X6.575Y-4.12
X6.58Y-4.205
X6.585Y-3.85
X6.59Y-3.795
X6.59Y-4.325
X6.6Y-3.9
X6.62Y-3.73
X6.625Y-3.675
X6.625Y-4.155
X6.635Y-3.85
X6.635Y-4.295
X6.635Y-4.355
X6.665Y-4.15
X6.71Y-4.3
X6.71Y-4.355
X6.715Y-4.25
X6.72Y-4.205
X6.725Y-3.7
X6.7288Y-3.9801
X6.73Y-3.755
X6.73Y-3.805
X6.74Y-3.655
X6.74Y-4.365
X6.755Y-4.31
X6.76Y-3.73
X6.765Y-4.265
X6.77Y-4.215
X6.79Y-3.8
X6.79Y-4.365
X6.8Y-3.665
X6.81Y-3.73
X6.81Y-4.335
X6.82Y-4.3
X6.83Y-4.255
X6.835Y-4.215
X6.845Y-3.805
X6.855Y-3.66
X6.865Y-4.3
X6.865Y-4.36
X6.875Y-3.73
X6.875Y-4.215
X6.89Y-3.66
X6.89Y-3.8
X6.895Y-4.345
X6.9Y-4.27
X6.9Y-4.31
X6.905Y-4.22
T2
X3.945Y-4.48
X3.945Y-4.56
X3.9599Y-2.9865
X3.9599Y-3.3865
X3.9599Y-3.6865
X3.9599Y-3.9865
X3.9599Y-4.2865
X3.99Y-4.36
X4.05Y-4.52
X4.0599Y-3.1865
X4.0599Y-4.5865
X4.08Y-4.33
X4.0861Y-3.08
X4.1079Y-3.425
X4.12Y-4.34
X4.1599Y-2.8865
X4.1599Y-3.4865
X4.1599Y-3.8865
X4.19Y-3.8
X4.255Y-3.985
X4.29Y-3.08
X4.295Y-4.425
X4.32Y-3.655
X4.32Y-3.97
X4.3599Y-3.0865
X4.3599Y-4.5865
X4.425Y-3.795
X4.425Y-3.84
X4.4294Y-4.3383
X4.465Y-4.135
X4.465Y-4.25
X4.48Y-3.66
X4.485Y-3.795
X4.485Y-3.84
X4.53Y-3.66
X4.53Y-4.05
X4.5599Y-2.9865
X4.5599Y-4.4865
X4.58Y-4.305
X4.6224Y-3.15
X4.645Y-4.5957
X4.653Y-3.4969
X4.6599Y-3.2865
X4.6599Y-3.5865
X4.6599Y-3.9865
X4.7Y-3.84
X4.725Y-4.305
X4.7436Y-3.2718
X4.76Y-4.385
X4.7714Y-3.8272
X4.78Y-4.305
X4.795Y-3.755
X4.795Y-4.405
X4.81Y-4.5377
X4.823Y-3.23
X4.8256Y-3.148
X4.8256Y-3.4668
X4.8256Y-3.502
X4.826Y-3.432
X4.852Y-4.2909
X4.9091Y-4.08
X4.9186Y-3.25
X4.93Y-3.055
X4.93Y-4.18
X4.945Y-3.495
X4.9454Y-4.0356
X4.9599Y-2.9865
X4.9599Y-4.2865
X5.0Y-4.18
X5.0035Y-3.475
X5.05Y-4.28
X5.05Y-4.515
X5.0599Y-3.1865
X5.08Y-3.845
X5.1044Y-3.9044
X5.135Y-4.28
X5.1599Y-2.8865
X5.1599Y-3.5865
X5.1599Y-4.3865
X5.1762Y-3.9439
X5.1762Y-4.0389
X5.177Y-3.9929
X5.2162Y-3.9439
X5.2162Y-4.0389
X5.2173Y-3.9939
X5.235Y-4.47
X5.2599Y-3.2865
X5.2612Y-3.9439
X5.2612Y-4.0389
X5.262Y-3.9929
X5.345Y-4.61
X5.3599Y-2.9865
X5.3801Y-4.095
X5.405Y-4.61
X5.4143Y-4.0677
X5.425Y-3.435
X5.4492Y-3.635
X5.46Y-3.485
X5.465Y-4.61
X5.4857Y-3.6102
X5.5Y-3.435
X5.5351Y-4.13
X5.545Y-4.085
X5.5599Y-2.8865
X5.5599Y-4.5865
X5.6Y-3.395
X5.62Y-4.36
X5.62Y-4.41
X5.6269Y-3.625
X5.6269Y-3.665
X5.6269Y-3.71
X5.6269Y-3.76
X5.6269Y-3.8131
X5.6269Y-3.865
X5.6599Y-3.4865
X5.66Y-4.415
X5.6669Y-3.625
X5.6815Y-3.3635
X5.7087Y-3.625
X5.71Y-4.415
X5.73Y-4.505
X5.76Y-4.415
X5.7619Y-3.625
X5.77Y-3.75
X5.81Y-4.415
X5.8169Y-3.625
X5.835Y-3.82
X5.835Y-4.0856
X5.855Y-3.75
X5.8599Y-2.8865
X5.8599Y-4.5865
X5.86Y-4.415
X5.8719Y-3.625
X5.885Y-4.12
X5.9076Y-4.415
X5.9219Y-3.625
X5.94Y-4.5
X5.9584Y-3.8072
X5.9599Y-3.0865
X5.9599Y-3.4865
X5.975Y-3.625
X5.975Y-4.415
X5.9869Y-3.9406
X5.9869Y-4.0006
X5.9869Y-4.0606
X6.02Y-3.715
X6.03Y-3.625
X6.03Y-4.415
X6.0469Y-3.7676
X6.0469Y-3.9406
X6.0469Y-4.0006
X6.0469Y-4.0606
X6.085Y-3.625
X6.085Y-4.415
X6.0869Y-3.7796
X6.1069Y-3.9406
X6.1069Y-4.0006
X6.1069Y-4.0606
X6.125Y-3.625
X6.137Y-3.797
X6.14Y-4.415
X6.1599Y-2.8865
X6.1599Y-3.1865
X6.1599Y-4.5865
X6.1664Y-4.2014
X6.195Y-3.625
X6.195Y-4.415
X6.2119Y-3.8406
X6.2161Y-4.115
X6.2494Y-4.2023
X6.25Y-3.625
X6.25Y-4.415
X6.2599Y-3.4865
X6.305Y-3.625
X6.305Y-4.09
X6.305Y-4.415
X6.36Y-3.055
X6.36Y-3.105
X6.36Y-3.625
X6.36Y-4.415
X6.385Y-4.005
X6.395Y-2.965
X6.415Y-3.625
X6.415Y-4.415
X6.43Y-3.055
X6.43Y-3.105
X6.4599Y-4.5865
X6.47Y-3.625
X6.47Y-4.415
X6.51Y-3.005
X6.515Y-3.105
X6.525Y-3.625
X6.525Y-4.415
X6.5599Y-3.4865
X6.58Y-3.625
X6.58Y-4.415
X6.5912Y-3.9405
X6.6Y-3.3177
X6.635Y-3.625
X6.635Y-4.415
X6.6603Y-3.9071
X6.7Y-4.415
X6.705Y-4.15
X6.7184Y-3.625
X6.74Y-3.905
X6.745Y-4.125
X6.745Y-4.415
X6.7599Y-2.8865
X6.7599Y-3.1865
X6.7599Y-4.4865
X6.77Y-3.625
X6.785Y-3.865
X6.785Y-3.945
X6.785Y-4.085
X6.785Y-4.165
X6.8Y-4.415
X6.81Y-3.625
X6.82Y-3.945
X6.82Y-4.085
X6.82Y-4.165
X6.825Y-3.865
X6.8599Y-3.3865
X6.86Y-3.625
X6.86Y-3.865
X6.86Y-3.945
X6.86Y-4.085
X6.86Y-4.165
X6.86Y-4.415
X6.895Y-3.865
X6.9Y-3.945
X6.9Y-4.085
X6.9Y-4.165
X6.91Y-3.625
X6.915Y-4.415
X6.94Y-4.225
X6.94Y-4.275
X6.94Y-4.325
X6.94Y-4.38
X6.9419Y-4.095
X6.9419Y-4.135
X6.9419Y-4.175
X6.945Y-3.625
X6.945Y-3.675
X6.945Y-3.73
X6.945Y-3.78
X6.945Y-3.83
X6.945Y-3.87
T5
X4.228Y-4.107
X4.228Y-4.207
X4.3094Y-3.34
X4.328Y-4.107
X4.328Y-4.207
X4.4094Y-3.34
X4.5094Y-3.34
X5.464Y-3.1359
X5.5185Y-3.0241
X5.5731Y-3.1359
X5.6276Y-3.0241
X5.6821Y-3.1359
X5.7367Y-3.0241
X5.7912Y-3.1359
X5.8457Y-3.0241
X5.9002Y-3.1359
X6.56Y-2.9
X6.56Y-3.0
X6.56Y-3.1
X6.56Y-3.2
X6.56Y-3.3
X6.66Y-2.9
X6.66Y-3.0
X6.66Y-3.1
X6.66Y-3.2
X6.66Y-3.3
T6
X4.1318Y-2.9619
X4.1318Y-3.08
X4.1318Y-3.1981
X4.2499Y-2.9619
X4.2499Y-3.08
X4.2499Y-3.1981
T7
X3.9617Y-2.8772
X3.9617Y-3.2828
T8
X5.19Y-3.08
X6.1743Y-3.08
T3
G00X4.6728Y-2.8728
M15
G01X4.6728Y-2.8472
M16
G05
G00X4.9484Y-2.8728
M15
G01X4.9484Y-2.8472
M16
G05
T4
G00X4.7181Y-2.9663
M15
G01X4.7063Y-2.9663
M16
G05
G00X4.915Y-2.9663
M15
G01X4.9031Y-2.9663
M16
G05
T0
M30
