%TF.GenerationSoftware,KiCad,Pcbnew,7.0.6*%
%TF.CreationDate,2023-10-05T23:13:59-06:00*%
%TF.ProjectId,CAN-USB RF Module,43414e2d-5553-4422-9052-46204d6f6475,1.0*%
%TF.SameCoordinates,Original*%
%TF.FileFunction,Copper,L3,Inr*%
%TF.FilePolarity,Positive*%
%FSLAX46Y46*%
G04 Gerber Fmt 4.6, Leading zero omitted, Abs format (unit mm)*
G04 Created by KiCad (PCBNEW 7.0.6) date 2023-10-05 23:13:59*
%MOMM*%
%LPD*%
G01*
G04 APERTURE LIST*
G04 Aperture macros list*
%AMRoundRect*
0 Rectangle with rounded corners*
0 $1 Rounding radius*
0 $2 $3 $4 $5 $6 $7 $8 $9 X,Y pos of 4 corners*
0 Add a 4 corners polygon primitive as box body*
4,1,4,$2,$3,$4,$5,$6,$7,$8,$9,$2,$3,0*
0 Add four circle primitives for the rounded corners*
1,1,$1+$1,$2,$3*
1,1,$1+$1,$4,$5*
1,1,$1+$1,$6,$7*
1,1,$1+$1,$8,$9*
0 Add four rect primitives between the rounded corners*
20,1,$1+$1,$2,$3,$4,$5,0*
20,1,$1+$1,$4,$5,$6,$7,0*
20,1,$1+$1,$6,$7,$8,$9,0*
20,1,$1+$1,$8,$9,$2,$3,0*%
G04 Aperture macros list end*
%TA.AperFunction,ComponentPad*%
%ADD10R,1.700000X1.700000*%
%TD*%
%TA.AperFunction,ComponentPad*%
%ADD11O,1.700000X1.700000*%
%TD*%
%TA.AperFunction,ComponentPad*%
%ADD12C,4.000000*%
%TD*%
%TA.AperFunction,ComponentPad*%
%ADD13R,1.600000X1.600000*%
%TD*%
%TA.AperFunction,ComponentPad*%
%ADD14C,1.600000*%
%TD*%
%TA.AperFunction,ComponentPad*%
%ADD15O,0.890000X1.550000*%
%TD*%
%TA.AperFunction,ComponentPad*%
%ADD16O,1.250000X0.950000*%
%TD*%
%TA.AperFunction,ComponentPad*%
%ADD17RoundRect,0.250001X0.499999X-0.499999X0.499999X0.499999X-0.499999X0.499999X-0.499999X-0.499999X0*%
%TD*%
%TA.AperFunction,ComponentPad*%
%ADD18C,1.500000*%
%TD*%
%TA.AperFunction,ComponentPad*%
%ADD19C,3.410000*%
%TD*%
%TA.AperFunction,ViaPad*%
%ADD20C,0.800000*%
%TD*%
%TA.AperFunction,ViaPad*%
%ADD21C,0.700000*%
%TD*%
%TA.AperFunction,Conductor*%
%ADD22C,0.500000*%
%TD*%
G04 APERTURE END LIST*
D10*
%TO.N,+5V*%
%TO.C,J3*%
X107391200Y-106857800D03*
D11*
%TO.N,/Power Regulator/5V*%
X107391200Y-104317800D03*
%TO.N,/Power Regulator/12V*%
X109931200Y-106857800D03*
%TO.N,/Power Regulator/FUSE_OUT*%
X109931200Y-104317800D03*
%TD*%
D12*
%TO.N,N/C*%
%TO.C,J6*%
X156826000Y-78232000D03*
X131826000Y-78232000D03*
D13*
%TO.N,unconnected-(J6-Pin_1-Pad1)*%
X138786000Y-79652000D03*
D14*
%TO.N,/CAN Tranciever/CD-*%
X141556000Y-79652000D03*
%TO.N,unconnected-(J6-Pin_3-Pad3)*%
X144326000Y-79652000D03*
%TO.N,unconnected-(J6-Pin_4-Pad4)*%
X147096000Y-79652000D03*
%TO.N,unconnected-(J6-Pin_5-Pad5)*%
X149866000Y-79652000D03*
%TO.N,unconnected-(J6-Pin_6-Pad6)*%
X140171000Y-76812000D03*
%TO.N,/CAN Tranciever/CD+*%
X142941000Y-76812000D03*
%TO.N,unconnected-(J6-Pin_8-Pad8)*%
X145711000Y-76812000D03*
%TO.N,unconnected-(J6-Pin_9-Pad9)*%
X148481000Y-76812000D03*
%TD*%
D15*
%TO.N,unconnected-(J4-Shield-Pad6)*%
%TO.C,J4*%
X125690000Y-72644000D03*
D16*
X124690000Y-75344000D03*
X119690000Y-75344000D03*
D15*
X118690000Y-72644000D03*
%TD*%
D17*
%TO.N,+12V*%
%TO.C,J2*%
X104947000Y-81232000D03*
D18*
%TO.N,GND*%
X104947000Y-78232000D03*
%TO.N,/Power Regulator/5V_UP*%
X104947000Y-75232000D03*
%TO.N,+12V*%
X107947000Y-81232000D03*
%TO.N,GND*%
X107947000Y-78232000D03*
%TO.N,/Power Regulator/5V_UP*%
X107947000Y-75232000D03*
D19*
%TO.N,N/C*%
X100627000Y-83382000D03*
X100627000Y-73082000D03*
%TD*%
D10*
%TO.N,+3V3*%
%TO.C,J1*%
X166624000Y-73660000D03*
D11*
%TO.N,/DEBUG_SWDIO*%
X169164000Y-73660000D03*
%TO.N,GND*%
X166624000Y-76200000D03*
%TO.N,/DEBUG_SWCLK*%
X169164000Y-76200000D03*
%TO.N,GND*%
X166624000Y-78740000D03*
%TO.N,/DEBUG_SWO*%
X169164000Y-78740000D03*
%TO.N,unconnected-(J1-Pin_7-Pad7)*%
X166624000Y-81280000D03*
%TO.N,unconnected-(J1-Pin_8-Pad8)*%
X169164000Y-81280000D03*
%TO.N,GND*%
X166624000Y-83820000D03*
%TO.N,/NRST*%
X169164000Y-83820000D03*
%TD*%
D10*
%TO.N,VBUS_UP*%
%TO.C,JP1*%
X114539000Y-84836000D03*
D11*
%TO.N,/Power Regulator/FUSE_IN*%
X111999000Y-84836000D03*
%TO.N,+12V*%
X109459000Y-84836000D03*
%TD*%
D20*
%TO.N,+3V3*%
X124690175Y-103632000D03*
%TO.N,+5V*%
X139336852Y-91698852D03*
%TO.N,GND*%
X144309500Y-85433500D03*
%TO.N,+3V3*%
X142240000Y-86233000D03*
%TO.N,GND*%
X138684000Y-88519000D03*
X139700000Y-87249000D03*
X137795000Y-87249000D03*
X138409500Y-92329000D03*
X142922600Y-92075000D03*
D21*
X157861000Y-99187000D03*
X155194000Y-94996000D03*
D20*
X140591000Y-104902000D03*
X125614300Y-102504051D03*
X174244000Y-105791000D03*
X122503000Y-82042000D03*
D21*
X167132000Y-106807000D03*
D20*
X154559000Y-112141000D03*
X152066600Y-101615000D03*
X142748000Y-112014000D03*
X109728000Y-92837000D03*
D21*
X163576000Y-104267000D03*
X165481000Y-94869000D03*
D20*
X148844000Y-112141000D03*
X125982000Y-75856508D03*
D21*
X163703000Y-106553000D03*
D20*
X113411000Y-105029000D03*
D21*
X161036000Y-107061000D03*
D20*
X103632000Y-109982000D03*
D21*
X170688000Y-106807000D03*
D20*
X175514000Y-92075000D03*
D21*
X145161000Y-103759000D03*
X162814000Y-110109000D03*
D20*
X142748000Y-110744000D03*
D21*
X173609000Y-107061000D03*
X166370000Y-103124000D03*
D20*
X158750000Y-112141000D03*
X125982000Y-108876508D03*
X148209000Y-97028000D03*
X161544000Y-77597000D03*
X100582000Y-75856508D03*
D21*
X144018000Y-93218000D03*
D20*
X141222000Y-73316508D03*
X101346000Y-110744000D03*
X165354000Y-76327000D03*
X154606600Y-96001600D03*
D21*
X172720000Y-93091000D03*
D20*
X155956000Y-112141000D03*
X174244000Y-112141000D03*
X113792000Y-92964000D03*
D21*
X165100000Y-100330000D03*
X175387000Y-107188000D03*
X166243000Y-109220000D03*
X157099000Y-109093000D03*
D20*
X152908000Y-94361000D03*
X124931500Y-82550000D03*
D21*
X163703000Y-100584000D03*
D20*
X161544000Y-112141000D03*
D21*
X164084000Y-110617000D03*
X134585899Y-103834135D03*
X174625000Y-94742000D03*
X164211000Y-109093000D03*
D20*
X138811000Y-117094000D03*
D21*
X162433000Y-93218000D03*
X167259000Y-97790000D03*
D20*
X100203000Y-115824000D03*
D21*
X166370000Y-93218000D03*
X161798000Y-104267000D03*
D20*
X153590600Y-95696800D03*
X174244000Y-103759000D03*
X172720000Y-112141000D03*
X175260000Y-100203000D03*
X176323600Y-105029000D03*
X154559000Y-92075000D03*
D21*
X163449000Y-99187000D03*
D20*
X171323000Y-112141000D03*
X176276000Y-107315000D03*
D21*
X145542000Y-109982000D03*
D20*
X175260000Y-103759000D03*
X173228000Y-103759000D03*
X104340000Y-86995000D03*
D21*
X150241000Y-110236000D03*
X145288000Y-105537000D03*
D20*
X174244000Y-100203000D03*
X175641000Y-112141000D03*
X176403000Y-97282000D03*
X175260000Y-105791000D03*
D21*
X166751000Y-99441000D03*
X166116000Y-107315000D03*
X174625000Y-107061000D03*
X160147000Y-99187000D03*
D20*
X153162000Y-112141000D03*
X161544000Y-92075000D03*
D21*
X153162000Y-92075000D03*
D20*
X172339000Y-105791000D03*
X100582000Y-86016508D03*
X129032000Y-97663000D03*
X103122000Y-80936508D03*
X156462000Y-116496508D03*
X137522548Y-103320500D03*
X115062000Y-102870000D03*
X136142000Y-75856508D03*
X131062000Y-91096508D03*
X122174000Y-115257000D03*
X172339000Y-98171000D03*
D21*
X146685000Y-105537000D03*
D20*
X167417200Y-100089600D03*
D21*
X162433000Y-109220000D03*
D20*
X131476500Y-100175000D03*
D21*
X168529000Y-109093000D03*
D20*
X142922600Y-94234000D03*
X131476500Y-102588000D03*
X155114600Y-103139000D03*
D21*
X171196000Y-92837000D03*
D20*
X157353000Y-92075000D03*
X109728000Y-100838000D03*
X128522000Y-80936508D03*
D21*
X165100000Y-106553000D03*
X159258000Y-110617000D03*
D20*
X153162000Y-92075000D03*
D21*
X146304000Y-104013000D03*
X175006000Y-96520000D03*
D20*
X143762000Y-88556508D03*
X176276000Y-108585000D03*
X148717000Y-95250000D03*
D21*
X161163000Y-104902000D03*
D20*
X174242000Y-86016508D03*
X104648000Y-110236000D03*
D21*
X158115000Y-94996000D03*
X175260000Y-109474000D03*
D20*
X142922600Y-96853400D03*
D21*
X158496000Y-109220000D03*
D20*
X147574000Y-112141000D03*
X146304000Y-112141000D03*
X147748600Y-92075000D03*
X143938600Y-92075000D03*
D21*
X162052000Y-96266000D03*
X161671000Y-110744000D03*
X149225000Y-92964000D03*
X162814000Y-100076000D03*
D20*
X164338000Y-112141000D03*
X160147000Y-112141000D03*
X131062000Y-111416508D03*
D21*
X175260000Y-108458000D03*
D20*
X155114600Y-100091000D03*
X155114600Y-101615000D03*
X142922600Y-93091000D03*
X145002200Y-92075000D03*
D21*
X170942000Y-96647000D03*
D20*
X167640000Y-84270500D03*
X152066600Y-100091000D03*
D21*
X171831000Y-108331000D03*
D20*
X148842000Y-116496508D03*
X164338000Y-92075000D03*
D21*
X170912000Y-101094000D03*
D20*
X141222000Y-116496508D03*
X103787500Y-78232000D03*
D21*
X168529000Y-97790000D03*
D20*
X110742000Y-116496508D03*
D21*
X156337000Y-109855000D03*
D20*
X150051900Y-112141000D03*
X127089500Y-88265000D03*
D21*
X164338000Y-99568000D03*
X160147000Y-94996000D03*
D20*
X176403000Y-98298000D03*
X132520500Y-101445000D03*
X171323000Y-104775000D03*
D21*
X172466000Y-110871000D03*
D20*
X168529000Y-92075000D03*
X157781600Y-97551000D03*
X125222000Y-77597000D03*
X120486500Y-83104000D03*
X133602000Y-83476508D03*
D21*
X146304000Y-96774000D03*
X160147000Y-96266000D03*
D20*
X121793000Y-111887000D03*
D21*
X172466000Y-96520000D03*
X145923000Y-104648000D03*
D20*
X174244000Y-92075000D03*
X159002000Y-88556508D03*
X171702000Y-80936508D03*
X176403000Y-92075000D03*
X131062000Y-73316508D03*
D21*
X166243000Y-100330000D03*
X175133000Y-110363000D03*
X144399000Y-97282000D03*
D20*
X100582000Y-108876508D03*
X142922600Y-98171000D03*
X158750000Y-92075000D03*
D21*
X168529000Y-110617000D03*
D20*
X113919000Y-96393000D03*
D21*
X153035000Y-108204000D03*
D20*
X108966000Y-78232000D03*
X105662000Y-73316508D03*
X115822000Y-113956508D03*
D21*
X171196000Y-110871000D03*
D20*
X162941000Y-92075000D03*
X131496500Y-101420500D03*
X103122000Y-116496508D03*
D21*
X173482000Y-108077000D03*
X170561000Y-107950000D03*
D20*
X133635500Y-102588000D03*
X148209000Y-103774000D03*
D21*
X171704000Y-94742000D03*
X165608000Y-99568000D03*
D20*
X173355000Y-98171000D03*
D21*
X167386000Y-109855000D03*
X160528000Y-97663000D03*
D20*
X128270000Y-114681000D03*
D21*
X147447000Y-93091000D03*
X159766000Y-106934000D03*
D20*
X153590600Y-101615000D03*
X146558000Y-95250000D03*
X162179000Y-101727000D03*
D21*
X171958000Y-107061000D03*
X170434000Y-110617000D03*
X168148000Y-94742000D03*
X145034000Y-96266000D03*
D20*
X165735000Y-92075000D03*
D21*
X165989000Y-97790000D03*
X165862000Y-96266000D03*
D20*
X135763000Y-117094000D03*
X172974000Y-92075000D03*
D21*
X165354000Y-104013000D03*
X146177000Y-106172000D03*
X162560000Y-94869000D03*
D20*
X132492500Y-102588000D03*
D21*
X158242000Y-109982000D03*
D20*
X153590600Y-103139000D03*
D21*
X145415000Y-93091000D03*
D20*
X127000000Y-106172000D03*
X112506942Y-110192661D03*
D21*
X160274000Y-93218000D03*
X159004000Y-104902000D03*
D20*
X165481000Y-78867000D03*
D21*
X166751000Y-94615000D03*
X167640000Y-99060000D03*
X161163000Y-99187000D03*
X154432000Y-93853000D03*
D20*
X176323600Y-104013000D03*
D21*
X163195000Y-101346000D03*
D20*
X120904000Y-111379000D03*
X156462000Y-73316508D03*
X118362000Y-91096508D03*
X151765000Y-112141000D03*
X122569000Y-88057000D03*
D21*
X164211000Y-96266000D03*
D20*
X110742000Y-78396508D03*
X122569000Y-88950800D03*
X171958000Y-92075000D03*
D21*
X160020000Y-104902000D03*
D20*
X158734218Y-106737196D03*
X172339000Y-100203000D03*
D21*
X172974000Y-94742000D03*
D20*
X137287000Y-117094000D03*
X160147000Y-92075000D03*
X161544000Y-78867000D03*
X171196000Y-99187000D03*
X165735000Y-112141000D03*
D21*
X173863000Y-96647000D03*
D20*
X163322000Y-78867000D03*
D21*
X166497000Y-110617000D03*
D20*
X156462000Y-80936508D03*
X152066600Y-103139000D03*
X176276000Y-109855000D03*
D21*
X164338000Y-105029000D03*
X173228000Y-109220000D03*
X171577000Y-109474000D03*
D20*
X171702000Y-73316508D03*
D21*
X160909000Y-108966000D03*
X164719000Y-93345000D03*
D20*
X157353000Y-112141000D03*
D21*
X145034000Y-110871000D03*
X147828000Y-110109000D03*
D20*
X173228000Y-105791000D03*
D21*
X146685000Y-110871000D03*
D20*
X155575000Y-92075000D03*
X151342100Y-96701832D03*
D21*
X170434000Y-109220000D03*
D20*
X174244000Y-98171000D03*
D21*
X147574000Y-106426000D03*
X130585750Y-98649250D03*
D20*
X133635500Y-100175000D03*
X170648500Y-92075000D03*
X151382000Y-88556508D03*
D21*
X175006000Y-92964000D03*
X153797000Y-109220000D03*
D20*
X176403000Y-93345000D03*
X142922600Y-95504000D03*
D21*
X162052000Y-99314000D03*
D20*
X125222000Y-106172000D03*
X153590600Y-100091000D03*
D21*
X152908000Y-109728000D03*
D20*
X176323600Y-106045000D03*
X149145600Y-92075000D03*
D21*
X146304000Y-94107000D03*
X155829000Y-110744000D03*
D20*
X172339000Y-103759000D03*
X118362000Y-83476508D03*
X105662000Y-88556508D03*
D21*
X159766000Y-108839000D03*
X165227000Y-109855000D03*
X144907000Y-94234000D03*
X168275000Y-93345000D03*
X162179000Y-100711000D03*
D20*
X123241175Y-108988500D03*
X170307000Y-105410000D03*
X146351600Y-92075000D03*
X170180000Y-112141000D03*
X151382000Y-78396508D03*
D21*
X166116000Y-105537000D03*
X163957000Y-98044000D03*
X174117000Y-92964000D03*
D20*
X176276000Y-111252000D03*
X112395000Y-97536000D03*
X167132000Y-92075000D03*
X151765000Y-92075000D03*
X160147000Y-103886000D03*
X163322000Y-77597000D03*
D21*
X172974000Y-110109000D03*
X170815000Y-93980000D03*
X167005000Y-104648000D03*
D20*
X108077000Y-101219000D03*
X115822000Y-75856508D03*
D21*
X174371000Y-110744000D03*
D20*
X168529000Y-112141000D03*
X132492500Y-100175000D03*
D21*
X162941000Y-105029000D03*
D20*
X175133000Y-98171000D03*
D21*
X160401000Y-109982000D03*
D20*
X176403000Y-94742000D03*
D21*
X145161000Y-97917000D03*
X157734000Y-93472000D03*
D20*
X176403000Y-96012000D03*
X148842000Y-73316508D03*
X122580400Y-87172800D03*
X113919000Y-97536000D03*
X156625312Y-106714312D03*
X140843000Y-103759000D03*
D21*
X158877000Y-99187000D03*
X157353000Y-110617000D03*
X165354000Y-98552000D03*
D20*
X145034000Y-112141000D03*
X143764000Y-112141000D03*
D21*
X162179000Y-106553000D03*
D20*
X105662000Y-98716508D03*
X167132000Y-112141000D03*
X100582000Y-101256508D03*
X173228000Y-100203000D03*
D21*
X152146000Y-93091000D03*
X164211000Y-101346000D03*
X159131000Y-97917000D03*
D20*
X112395000Y-96393000D03*
D21*
X162052000Y-97917000D03*
X167386000Y-96393000D03*
D20*
X106426000Y-96520000D03*
D21*
X170942000Y-95377000D03*
D20*
X164082000Y-116496508D03*
X171702000Y-113956508D03*
X166622000Y-88556508D03*
D21*
X144018000Y-95250000D03*
D20*
X133655500Y-101420500D03*
X162941000Y-112141000D03*
X100582000Y-93636508D03*
D21*
X174371000Y-109220000D03*
D20*
X150415600Y-92075000D03*
X100203000Y-113792000D03*
X115062000Y-92964000D03*
X117983000Y-116731298D03*
X118362000Y-101256508D03*
D21*
%TO.N,/NRST*%
X143002000Y-81893994D03*
X133477000Y-92202000D03*
X124293500Y-101092000D03*
X124293500Y-92456000D03*
X161290000Y-81915000D03*
X123825000Y-116713000D03*
X163957000Y-81788000D03*
D20*
%TO.N,+3V3*%
X109093000Y-112395000D03*
D21*
X154940000Y-114554000D03*
D20*
X132969000Y-113538000D03*
X119380000Y-97536000D03*
X162433000Y-75311000D03*
X125603000Y-88773000D03*
X145542000Y-114427000D03*
X121793000Y-95377000D03*
X150876000Y-114300000D03*
X130429000Y-108712000D03*
X155880484Y-96444484D03*
X128270000Y-108712000D03*
X129650616Y-99170616D03*
X149479000Y-104648000D03*
X169172400Y-99241000D03*
X157889000Y-104521000D03*
X136653583Y-104013000D03*
%TO.N,+5V*%
X121412000Y-109347000D03*
X118187094Y-88821868D03*
X116332000Y-109347000D03*
X120015000Y-109347000D03*
X121194017Y-97211729D03*
X113411000Y-107950000D03*
D21*
%TO.N,/BOOT0*%
X141192965Y-93225918D03*
X141732000Y-110744000D03*
%TO.N,/CAN_STBY*%
X128143000Y-86308000D03*
X127520444Y-99261556D03*
%TO.N,/UART2_USB_TX*%
X129558500Y-103659591D03*
X126064219Y-87470954D03*
%TO.N,/UART2_USB_RX*%
X124841000Y-89408000D03*
X128943457Y-104330498D03*
%TO.N,/SPI1_SCK*%
X143807474Y-108207268D03*
X144399000Y-109982000D03*
%TO.N,/DIO0*%
X143891685Y-105537098D03*
X145923000Y-99365500D03*
%TO.N,/DIO1*%
X143001306Y-105409306D03*
X143002000Y-100290500D03*
%TO.N,/CAN_RX*%
X138596500Y-96861500D03*
X140500700Y-91559602D03*
%TO.N,/CAN_TX*%
X136525000Y-97361000D03*
X136779000Y-91567000D03*
%TO.N,/SW_RXTX*%
X140208000Y-113284000D03*
X155829000Y-113538000D03*
X169291000Y-105410000D03*
X139954000Y-96012000D03*
%TO.N,/SX_RESET*%
X139192000Y-99187000D03*
X139231500Y-95250000D03*
%TO.N,/DIO2*%
X137707500Y-94702500D03*
X138235056Y-100081832D03*
%TO.N,/DIO3*%
X140629000Y-101503000D03*
X140589000Y-93892500D03*
%TO.N,/LoRa Tranciever/RXTX_SX*%
X154559000Y-108077000D03*
X168275000Y-105537000D03*
%TO.N,/DEBUG_SWO*%
X134326500Y-96686500D03*
X143002000Y-82793497D03*
%TO.N,/DEBUG_SWCLK*%
X143002000Y-83693000D03*
X135019500Y-98933000D03*
%TO.N,/DEBUG_SWDIO*%
X143002000Y-84709000D03*
X135763000Y-98044000D03*
X163576000Y-84582000D03*
%TO.N,/Power Regulator/I_{MON}*%
X113307773Y-100915500D03*
X112649000Y-102489000D03*
D20*
%TO.N,/Power Regulator/5V*%
X102870000Y-114808000D03*
%TO.N,VBUS_UP*%
X122569000Y-79960000D03*
X117409000Y-80010000D03*
D21*
%TO.N,Net-(U2-PA10)*%
X135763000Y-112505750D03*
X136779000Y-101421500D03*
%TO.N,Net-(U2-PA9)*%
X137541000Y-101912713D03*
X137287000Y-112477750D03*
%TO.N,Net-(U2-PA1)*%
X129230106Y-102770050D03*
X134239000Y-111289500D03*
%TO.N,/DIO4*%
X137199500Y-96686500D03*
X137509944Y-100806944D03*
%TO.N,/DIO5*%
X128142500Y-99921875D03*
X138977500Y-109690500D03*
X138977500Y-103251000D03*
X134569200Y-109690500D03*
%TO.N,/LoRa Tranciever/MISO_TX*%
X150952856Y-108037500D03*
X150876000Y-106652500D03*
%TO.N,/LoRa Tranciever/SCK_RTSN*%
X151627356Y-105574356D03*
X151638000Y-109387000D03*
%TO.N,Net-(U2-PA8)*%
X138303000Y-102596000D03*
X139718314Y-114057655D03*
%TO.N,Net-(J4-D+)*%
X123519000Y-78105000D03*
X122090500Y-76472687D03*
%TD*%
D22*
%TO.N,+3V3*%
X124690175Y-101905695D02*
X124690175Y-103632000D01*
X124791435Y-101804435D02*
X125857000Y-100738871D01*
X124333000Y-102262871D02*
X124791435Y-101804435D01*
X124791435Y-101804435D02*
X124690175Y-101905695D01*
X125857000Y-100738871D02*
X125857000Y-95250000D01*
X124333000Y-103862175D02*
X124333000Y-104140000D01*
X124333000Y-103147825D02*
X124333000Y-104140000D01*
X124333000Y-104140000D02*
X124333000Y-109474000D01*
X124333000Y-102262871D02*
X124333000Y-103147825D01*
X120650000Y-98806000D02*
X120876129Y-98806000D01*
X119380000Y-97536000D02*
X120650000Y-98806000D01*
X120876129Y-98806000D02*
X124333000Y-102262871D01*
%TO.N,+5V*%
X128272871Y-85306500D02*
X121702462Y-85306500D01*
X121702462Y-85306500D02*
X118187094Y-88821868D01*
X133517371Y-90551000D02*
X128272871Y-85306500D01*
X138013368Y-90551000D02*
X133517371Y-90551000D01*
X139161220Y-91698852D02*
X138013368Y-90551000D01*
X139336852Y-91698852D02*
X139161220Y-91698852D01*
%TO.N,+3V3*%
X142290500Y-86283500D02*
X142240000Y-86233000D01*
X155620200Y-86283500D02*
X142290500Y-86283500D01*
X155696100Y-86207600D02*
X155620200Y-86283500D01*
X141992965Y-86480035D02*
X142240000Y-86233000D01*
X141992965Y-108705035D02*
X141992965Y-86480035D01*
X140208000Y-110490000D02*
X141992965Y-108705035D01*
X128143000Y-110490000D02*
X129921000Y-110490000D01*
X150901400Y-114274600D02*
X150901400Y-111609400D01*
X150876000Y-114300000D02*
X150901400Y-114274600D01*
X155696100Y-86207600D02*
X162433000Y-79470700D01*
X132969000Y-113538000D02*
X132969000Y-111150400D01*
X155702000Y-86213500D02*
X155696100Y-86207600D01*
X132969000Y-111150400D02*
X132308600Y-110490000D01*
X149479000Y-104648000D02*
X148971000Y-105156000D01*
X128270000Y-110363000D02*
X128143000Y-110490000D01*
X125603000Y-88773000D02*
X125857000Y-89027000D01*
X125323600Y-110490000D02*
X128143000Y-110490000D01*
X125323600Y-94716600D02*
X122453400Y-94716600D01*
X169799000Y-87483500D02*
X169799000Y-98044000D01*
X130429000Y-109982000D02*
X129921000Y-110490000D01*
X155880484Y-96444484D02*
X156387800Y-95937168D01*
X150901400Y-111609400D02*
X150583000Y-111291000D01*
X122453400Y-94716600D02*
X121793000Y-95377000D01*
X113665000Y-110490000D02*
X125323600Y-110490000D01*
X109093000Y-112395000D02*
X111760000Y-112395000D01*
X111760000Y-112395000D02*
X113665000Y-110490000D01*
X168529000Y-86213500D02*
X155702000Y-86213500D01*
X154686000Y-114300000D02*
X150876000Y-114300000D01*
X136652000Y-104014583D02*
X136652000Y-109855000D01*
X140690600Y-112623600D02*
X142494000Y-114427000D01*
X136653583Y-104013000D02*
X136652000Y-104014583D01*
X136017000Y-110490000D02*
X140208000Y-110490000D01*
X132308600Y-110490000D02*
X136017000Y-110490000D01*
X157889000Y-106652000D02*
X153250000Y-111291000D01*
X142494000Y-114427000D02*
X145542000Y-114427000D01*
X162433000Y-79470700D02*
X162433000Y-75311000D01*
X169799000Y-98044000D02*
X169164000Y-98679000D01*
X136652000Y-109855000D02*
X136017000Y-110490000D01*
X130429000Y-108712000D02*
X130429000Y-99949000D01*
X130429000Y-99949000D02*
X129650616Y-99170616D01*
X128270000Y-108712000D02*
X128270000Y-110363000D01*
X130429000Y-108712000D02*
X130429000Y-109982000D01*
X169164000Y-98679000D02*
X169164000Y-99232600D01*
X129921000Y-110490000D02*
X132308600Y-110490000D01*
X148971000Y-110185200D02*
X150076800Y-111291000D01*
X150076800Y-111291000D02*
X150583000Y-111291000D01*
X124333000Y-109474000D02*
X123317000Y-110490000D01*
X157889000Y-104521000D02*
X157889000Y-106652000D01*
X168529000Y-86213500D02*
X169799000Y-87483500D01*
X148971000Y-105156000D02*
X148971000Y-110185200D01*
X125857000Y-89027000D02*
X125857000Y-95250000D01*
X140208000Y-110490000D02*
X140690600Y-110972600D01*
X156387800Y-86899300D02*
X155702000Y-86213500D01*
X154940000Y-114554000D02*
X154686000Y-114300000D01*
X125857000Y-95250000D02*
X125323600Y-94716600D01*
X169164000Y-99232600D02*
X169172400Y-99241000D01*
X153250000Y-111291000D02*
X150583000Y-111291000D01*
X156387800Y-95937168D02*
X156387800Y-86899300D01*
X140690600Y-110972600D02*
X140690600Y-112623600D01*
%TO.N,+5V*%
X120349888Y-96367600D02*
X116589853Y-96367600D01*
X116056453Y-90952509D02*
X118187094Y-88821868D01*
X107391200Y-106857800D02*
X108691200Y-108157800D01*
X116589853Y-96367600D02*
X116056453Y-96901000D01*
X113411000Y-107950000D02*
X113411000Y-107061000D01*
X116056453Y-96901000D02*
X116056453Y-90952509D01*
X116056453Y-104415547D02*
X116056453Y-96901000D01*
X113411000Y-107061000D02*
X116056453Y-104415547D01*
X121194017Y-97211729D02*
X120349888Y-96367600D01*
%TO.N,+12V*%
X107947000Y-81232000D02*
X107947000Y-83324000D01*
X107947000Y-83324000D02*
X109459000Y-84836000D01*
%TO.N,/Power Regulator/5V*%
X102616000Y-114554000D02*
X102616000Y-108204000D01*
X102616000Y-108204000D02*
X106502200Y-104317800D01*
X106502200Y-104317800D02*
X107391200Y-104317800D01*
X102870000Y-114808000D02*
X102616000Y-114554000D01*
%TO.N,VBUS_UP*%
X117409000Y-81458000D02*
X114539000Y-84328000D01*
X122519000Y-80010000D02*
X122569000Y-79960000D01*
X114539000Y-84328000D02*
X114539000Y-84836000D01*
X117409000Y-80010000D02*
X122519000Y-80010000D01*
X117409000Y-80010000D02*
X117409000Y-81458000D01*
%TD*%
%TA.AperFunction,Conductor*%
%TO.N,/Power Regulator/5V*%
G36*
X108401039Y-103397685D02*
G01*
X108446794Y-103450489D01*
X108458000Y-103502000D01*
X108458000Y-105286000D01*
X108438315Y-105353039D01*
X108385511Y-105398794D01*
X108334000Y-105410000D01*
X106172000Y-105410000D01*
X102997000Y-108457999D01*
X102997000Y-109811240D01*
X102996548Y-109818720D01*
X102995763Y-109825180D01*
X102995763Y-109825182D01*
X102990868Y-109865499D01*
X102976722Y-109981999D01*
X102976722Y-109982000D01*
X102996548Y-110145283D01*
X102997000Y-110152763D01*
X102997000Y-111252000D01*
X102996999Y-111610703D01*
X102995739Y-111628333D01*
X102995500Y-111629996D01*
X102995500Y-113160005D01*
X102996644Y-113170641D01*
X102996999Y-113177271D01*
X102996999Y-113537999D01*
X102997000Y-113537999D01*
X102997000Y-113538000D01*
X103355699Y-113538000D01*
X103373343Y-113539262D01*
X103374398Y-113539413D01*
X103375000Y-113539500D01*
X103375003Y-113539500D01*
X105286000Y-113539500D01*
X105353039Y-113559185D01*
X105398794Y-113611989D01*
X105410000Y-113663500D01*
X105410000Y-115446000D01*
X105390315Y-115513039D01*
X105337511Y-115558794D01*
X105286000Y-115570000D01*
X102232000Y-115570000D01*
X102164961Y-115550315D01*
X102119206Y-115497511D01*
X102108000Y-115446000D01*
X102108000Y-107747361D01*
X102127685Y-107680322D01*
X102144314Y-107659685D01*
X106389680Y-103414319D01*
X106451004Y-103380834D01*
X106477362Y-103378000D01*
X108334000Y-103378000D01*
X108401039Y-103397685D01*
G37*
%TD.AperFunction*%
%TD*%
%TA.AperFunction,Conductor*%
%TO.N,VBUS_UP*%
G36*
X117926039Y-77743685D02*
G01*
X117971794Y-77796489D01*
X117983000Y-77848000D01*
X117983000Y-78994000D01*
X118618000Y-79502000D01*
X122174000Y-79502000D01*
X122812000Y-79502000D01*
X122879039Y-79521685D01*
X122924794Y-79574489D01*
X122936000Y-79626000D01*
X122936000Y-80394000D01*
X122916315Y-80461039D01*
X122863511Y-80506794D01*
X122812000Y-80518000D01*
X118364000Y-80518000D01*
X118364000Y-81228637D01*
X118344315Y-81295676D01*
X118327681Y-81316318D01*
X115823999Y-83820000D01*
X115824000Y-85474000D01*
X115804315Y-85541039D01*
X115751511Y-85586794D01*
X115700000Y-85598000D01*
X113408000Y-85598000D01*
X113340961Y-85578315D01*
X113295206Y-85525511D01*
X113284000Y-85474000D01*
X113284000Y-83436000D01*
X113303685Y-83368961D01*
X113356489Y-83323206D01*
X113408000Y-83312000D01*
X114807999Y-83312000D01*
X114808000Y-83312000D01*
X116967000Y-81026000D01*
X116967000Y-77847999D01*
X116986685Y-77780961D01*
X117039489Y-77735206D01*
X117091000Y-77724000D01*
X117859000Y-77724000D01*
X117926039Y-77743685D01*
G37*
%TD.AperFunction*%
%TD*%
%TA.AperFunction,Conductor*%
%TO.N,+12V*%
G36*
X110433039Y-80283685D02*
G01*
X110478794Y-80336489D01*
X110490000Y-80388000D01*
X110490000Y-85474000D01*
X110470315Y-85541039D01*
X110417511Y-85586794D01*
X110366000Y-85598000D01*
X104010000Y-85598000D01*
X103942961Y-85578315D01*
X103897206Y-85525511D01*
X103886000Y-85474000D01*
X103886000Y-80388000D01*
X103905685Y-80320961D01*
X103958489Y-80275206D01*
X104010000Y-80264000D01*
X110366000Y-80264000D01*
X110433039Y-80283685D01*
G37*
%TD.AperFunction*%
%TD*%
%TA.AperFunction,Conductor*%
%TO.N,+3V3*%
G36*
X112084039Y-111525685D02*
G01*
X112129794Y-111578489D01*
X112141000Y-111630000D01*
X112141000Y-113160000D01*
X112121315Y-113227039D01*
X112068511Y-113272794D01*
X112017000Y-113284000D01*
X103375000Y-113284000D01*
X103307961Y-113264315D01*
X103262206Y-113211511D01*
X103251000Y-113160000D01*
X103251000Y-111630000D01*
X103270685Y-111562961D01*
X103323489Y-111517206D01*
X103375000Y-111506000D01*
X112017000Y-111506000D01*
X112084039Y-111525685D01*
G37*
%TD.AperFunction*%
%TD*%
%TA.AperFunction,Conductor*%
%TO.N,+5V*%
G36*
X108528039Y-105810685D02*
G01*
X108573794Y-105863489D01*
X108585000Y-105915000D01*
X108584999Y-107315000D01*
X109749164Y-108373331D01*
X109982000Y-108585000D01*
X112014000Y-108585000D01*
X112014000Y-105915000D01*
X112033685Y-105847961D01*
X112086489Y-105802206D01*
X112138000Y-105791000D01*
X122558000Y-105791000D01*
X122625039Y-105810685D01*
X122670794Y-105863489D01*
X122682000Y-105915000D01*
X122681999Y-108614849D01*
X122663756Y-108676977D01*
X122664440Y-108677336D01*
X122662648Y-108680749D01*
X122662314Y-108681889D01*
X122661071Y-108683755D01*
X122660954Y-108683977D01*
X122604938Y-108831681D01*
X122585897Y-108988499D01*
X122585897Y-108988500D01*
X122604938Y-109145318D01*
X122660955Y-109293024D01*
X122664439Y-109299662D01*
X122662932Y-109300452D01*
X122681932Y-109358064D01*
X122681999Y-109362150D01*
X122682000Y-109865500D01*
X122662316Y-109932539D01*
X122609512Y-109978294D01*
X122558000Y-109989500D01*
X113916000Y-109989500D01*
X113848961Y-109969815D01*
X113803206Y-109917011D01*
X113792000Y-109865500D01*
X113792000Y-109601000D01*
X112809949Y-109601000D01*
X112752322Y-109586796D01*
X112739305Y-109579964D01*
X112585928Y-109542161D01*
X112585927Y-109542161D01*
X112427957Y-109542161D01*
X112427956Y-109542161D01*
X112274578Y-109579964D01*
X112261562Y-109586796D01*
X112203935Y-109601000D01*
X106550000Y-109601000D01*
X106482961Y-109581315D01*
X106437206Y-109528511D01*
X106426000Y-109477000D01*
X106426000Y-105915000D01*
X106445685Y-105847961D01*
X106498489Y-105802206D01*
X106550000Y-105791000D01*
X108461000Y-105791000D01*
X108528039Y-105810685D01*
G37*
%TD.AperFunction*%
%TD*%
%TA.AperFunction,Conductor*%
%TO.N,+3V3*%
G36*
X125038039Y-101873685D02*
G01*
X125083794Y-101926489D01*
X125095000Y-101978000D01*
X125095000Y-102072630D01*
X125075315Y-102139669D01*
X125073050Y-102143070D01*
X125034081Y-102199526D01*
X125034080Y-102199527D01*
X124978062Y-102347232D01*
X124959022Y-102504050D01*
X124959022Y-102504051D01*
X124978062Y-102660869D01*
X125034079Y-102808572D01*
X125034080Y-102808574D01*
X125073051Y-102865033D01*
X125094933Y-102931385D01*
X125095000Y-102935471D01*
X125095000Y-102997000D01*
X125142732Y-102997000D01*
X125209771Y-103016685D01*
X125224957Y-103028182D01*
X125242060Y-103043334D01*
X125242062Y-103043335D01*
X125381934Y-103116747D01*
X125535314Y-103154551D01*
X125535315Y-103154551D01*
X125693285Y-103154551D01*
X125703322Y-103152077D01*
X125773123Y-103155144D01*
X125830186Y-103195462D01*
X125856393Y-103260231D01*
X125856999Y-103272473D01*
X125857000Y-104270000D01*
X125837316Y-104337039D01*
X125784512Y-104382794D01*
X125733000Y-104394000D01*
X124076000Y-104394000D01*
X124008961Y-104374315D01*
X123963206Y-104321511D01*
X123952000Y-104270000D01*
X123952000Y-101978000D01*
X123971685Y-101910961D01*
X124024489Y-101865206D01*
X124076000Y-101854000D01*
X124971000Y-101854000D01*
X125038039Y-101873685D01*
G37*
%TD.AperFunction*%
%TD*%
M02*
