%TF.GenerationSoftware,KiCad,Pcbnew,7.0.6*%
%TF.CreationDate,2023-10-05T23:13:59-06:00*%
%TF.ProjectId,CAN-USB RF Module,43414e2d-5553-4422-9052-46204d6f6475,1.0*%
%TF.SameCoordinates,Original*%
%TF.FileFunction,Copper,L4,Bot*%
%TF.FilePolarity,Positive*%
%FSLAX46Y46*%
G04 Gerber Fmt 4.6, Leading zero omitted, Abs format (unit mm)*
G04 Created by KiCad (PCBNEW 7.0.6) date 2023-10-05 23:13:59*
%MOMM*%
%LPD*%
G01*
G04 APERTURE LIST*
G04 Aperture macros list*
%AMRoundRect*
0 Rectangle with rounded corners*
0 $1 Rounding radius*
0 $2 $3 $4 $5 $6 $7 $8 $9 X,Y pos of 4 corners*
0 Add a 4 corners polygon primitive as box body*
4,1,4,$2,$3,$4,$5,$6,$7,$8,$9,$2,$3,0*
0 Add four circle primitives for the rounded corners*
1,1,$1+$1,$2,$3*
1,1,$1+$1,$4,$5*
1,1,$1+$1,$6,$7*
1,1,$1+$1,$8,$9*
0 Add four rect primitives between the rounded corners*
20,1,$1+$1,$2,$3,$4,$5,0*
20,1,$1+$1,$4,$5,$6,$7,0*
20,1,$1+$1,$6,$7,$8,$9,0*
20,1,$1+$1,$8,$9,$2,$3,0*%
G04 Aperture macros list end*
%TA.AperFunction,ComponentPad*%
%ADD10R,1.700000X1.700000*%
%TD*%
%TA.AperFunction,ComponentPad*%
%ADD11O,1.700000X1.700000*%
%TD*%
%TA.AperFunction,ComponentPad*%
%ADD12C,4.000000*%
%TD*%
%TA.AperFunction,ComponentPad*%
%ADD13R,1.600000X1.600000*%
%TD*%
%TA.AperFunction,ComponentPad*%
%ADD14C,1.600000*%
%TD*%
%TA.AperFunction,ComponentPad*%
%ADD15O,0.890000X1.550000*%
%TD*%
%TA.AperFunction,ComponentPad*%
%ADD16O,1.250000X0.950000*%
%TD*%
%TA.AperFunction,ComponentPad*%
%ADD17RoundRect,0.250001X0.499999X-0.499999X0.499999X0.499999X-0.499999X0.499999X-0.499999X-0.499999X0*%
%TD*%
%TA.AperFunction,ComponentPad*%
%ADD18C,1.500000*%
%TD*%
%TA.AperFunction,ComponentPad*%
%ADD19C,3.410000*%
%TD*%
%TA.AperFunction,SMDPad,CuDef*%
%ADD20R,4.560000X1.000000*%
%TD*%
%TA.AperFunction,ViaPad*%
%ADD21C,0.800000*%
%TD*%
%TA.AperFunction,ViaPad*%
%ADD22C,0.700000*%
%TD*%
%TA.AperFunction,Conductor*%
%ADD23C,0.250000*%
%TD*%
%TA.AperFunction,Conductor*%
%ADD24C,0.254000*%
%TD*%
%TA.AperFunction,Conductor*%
%ADD25C,0.200000*%
%TD*%
G04 APERTURE END LIST*
D10*
%TO.P,J3,1,Pin_1*%
%TO.N,+5V*%
X107391200Y-106857800D03*
D11*
%TO.P,J3,2,Pin_2*%
%TO.N,/Power Regulator/5V*%
X107391200Y-104317800D03*
%TO.P,J3,3,Pin_3*%
%TO.N,/Power Regulator/12V*%
X109931200Y-106857800D03*
%TO.P,J3,4,Pin_4*%
%TO.N,/Power Regulator/FUSE_OUT*%
X109931200Y-104317800D03*
%TD*%
D12*
%TO.P,J6,0*%
%TO.N,N/C*%
X156826000Y-78232000D03*
X131826000Y-78232000D03*
D13*
%TO.P,J6,1,Pin_1*%
%TO.N,unconnected-(J6-Pin_1-Pad1)*%
X138786000Y-79652000D03*
D14*
%TO.P,J6,2,Pin_2*%
%TO.N,/CAN Tranciever/CD-*%
X141556000Y-79652000D03*
%TO.P,J6,3,Pin_3*%
%TO.N,unconnected-(J6-Pin_3-Pad3)*%
X144326000Y-79652000D03*
%TO.P,J6,4,Pin_4*%
%TO.N,unconnected-(J6-Pin_4-Pad4)*%
X147096000Y-79652000D03*
%TO.P,J6,5,Pin_5*%
%TO.N,unconnected-(J6-Pin_5-Pad5)*%
X149866000Y-79652000D03*
%TO.P,J6,6,Pin_6*%
%TO.N,unconnected-(J6-Pin_6-Pad6)*%
X140171000Y-76812000D03*
%TO.P,J6,7,Pin_7*%
%TO.N,/CAN Tranciever/CD+*%
X142941000Y-76812000D03*
%TO.P,J6,8,Pin_8*%
%TO.N,unconnected-(J6-Pin_8-Pad8)*%
X145711000Y-76812000D03*
%TO.P,J6,9,Pin_9*%
%TO.N,unconnected-(J6-Pin_9-Pad9)*%
X148481000Y-76812000D03*
%TD*%
D15*
%TO.P,J4,6,Shield*%
%TO.N,unconnected-(J4-Shield-Pad6)*%
X125690000Y-72644000D03*
D16*
X124690000Y-75344000D03*
X119690000Y-75344000D03*
D15*
X118690000Y-72644000D03*
%TD*%
D17*
%TO.P,J2,1,Pin_1*%
%TO.N,+12V*%
X104947000Y-81232000D03*
D18*
%TO.P,J2,2,Pin_2*%
%TO.N,GND*%
X104947000Y-78232000D03*
%TO.P,J2,3,Pin_3*%
%TO.N,/Power Regulator/5V_UP*%
X104947000Y-75232000D03*
%TO.P,J2,4,Pin_4*%
%TO.N,+12V*%
X107947000Y-81232000D03*
%TO.P,J2,5,Pin_5*%
%TO.N,GND*%
X107947000Y-78232000D03*
%TO.P,J2,6,Pin_6*%
%TO.N,/Power Regulator/5V_UP*%
X107947000Y-75232000D03*
D19*
%TO.P,J2,MP*%
%TO.N,N/C*%
X100627000Y-83382000D03*
X100627000Y-73082000D03*
%TD*%
D20*
%TO.P,J5,2,Ext*%
%TO.N,GND*%
X174244000Y-104751000D03*
X174244000Y-99211000D03*
%TD*%
D10*
%TO.P,J1,1,Pin_1*%
%TO.N,+3V3*%
X166624000Y-73660000D03*
D11*
%TO.P,J1,2,Pin_2*%
%TO.N,/DEBUG_SWDIO*%
X169164000Y-73660000D03*
%TO.P,J1,3,Pin_3*%
%TO.N,GND*%
X166624000Y-76200000D03*
%TO.P,J1,4,Pin_4*%
%TO.N,/DEBUG_SWCLK*%
X169164000Y-76200000D03*
%TO.P,J1,5,Pin_5*%
%TO.N,GND*%
X166624000Y-78740000D03*
%TO.P,J1,6,Pin_6*%
%TO.N,/DEBUG_SWO*%
X169164000Y-78740000D03*
%TO.P,J1,7,Pin_7*%
%TO.N,unconnected-(J1-Pin_7-Pad7)*%
X166624000Y-81280000D03*
%TO.P,J1,8,Pin_8*%
%TO.N,unconnected-(J1-Pin_8-Pad8)*%
X169164000Y-81280000D03*
%TO.P,J1,9,Pin_9*%
%TO.N,GND*%
X166624000Y-83820000D03*
%TO.P,J1,10,Pin_10*%
%TO.N,/NRST*%
X169164000Y-83820000D03*
%TD*%
D10*
%TO.P,JP1,1,A*%
%TO.N,VBUS_UP*%
X114539000Y-84836000D03*
D11*
%TO.P,JP1,2,C*%
%TO.N,/Power Regulator/FUSE_IN*%
X111999000Y-84836000D03*
%TO.P,JP1,3,B*%
%TO.N,+12V*%
X109459000Y-84836000D03*
%TD*%
D21*
%TO.N,+3V3*%
X124690175Y-103632000D03*
%TO.N,+5V*%
X139336852Y-91698852D03*
%TO.N,GND*%
X144309500Y-85433500D03*
%TO.N,+3V3*%
X142240000Y-86233000D03*
%TO.N,GND*%
X138684000Y-88519000D03*
X139700000Y-87249000D03*
X137795000Y-87249000D03*
X138409500Y-92329000D03*
X142922600Y-92075000D03*
D22*
X157861000Y-99187000D03*
X155194000Y-94996000D03*
D21*
X140591000Y-104902000D03*
X125614300Y-102504051D03*
X174244000Y-105791000D03*
X122503000Y-82042000D03*
D22*
X167132000Y-106807000D03*
D21*
X154559000Y-112141000D03*
X152066600Y-101615000D03*
X142748000Y-112014000D03*
X109728000Y-92837000D03*
D22*
X163576000Y-104267000D03*
X165481000Y-94869000D03*
D21*
X148844000Y-112141000D03*
X125982000Y-75856508D03*
D22*
X163703000Y-106553000D03*
D21*
X113411000Y-105029000D03*
D22*
X161036000Y-107061000D03*
D21*
X103632000Y-109982000D03*
D22*
X170688000Y-106807000D03*
D21*
X175514000Y-92075000D03*
D22*
X145161000Y-103759000D03*
X162814000Y-110109000D03*
D21*
X142748000Y-110744000D03*
D22*
X173609000Y-107061000D03*
X166370000Y-103124000D03*
D21*
X158750000Y-112141000D03*
X125982000Y-108876508D03*
X148209000Y-97028000D03*
X161544000Y-77597000D03*
X100582000Y-75856508D03*
D22*
X144018000Y-93218000D03*
D21*
X141222000Y-73316508D03*
X101346000Y-110744000D03*
X165354000Y-76327000D03*
X154606600Y-96001600D03*
D22*
X172720000Y-93091000D03*
D21*
X155956000Y-112141000D03*
X174244000Y-112141000D03*
X113792000Y-92964000D03*
D22*
X165100000Y-100330000D03*
X175387000Y-107188000D03*
X166243000Y-109220000D03*
X157099000Y-109093000D03*
D21*
X152908000Y-94361000D03*
X124931500Y-82550000D03*
D22*
X163703000Y-100584000D03*
D21*
X161544000Y-112141000D03*
D22*
X164084000Y-110617000D03*
X134585899Y-103834135D03*
X174625000Y-94742000D03*
X164211000Y-109093000D03*
D21*
X138811000Y-117094000D03*
D22*
X162433000Y-93218000D03*
X167259000Y-97790000D03*
D21*
X100203000Y-115824000D03*
D22*
X166370000Y-93218000D03*
X161798000Y-104267000D03*
D21*
X153590600Y-95696800D03*
X174244000Y-103759000D03*
X172720000Y-112141000D03*
X175260000Y-100203000D03*
X176323600Y-105029000D03*
X154559000Y-92075000D03*
D22*
X163449000Y-99187000D03*
D21*
X171323000Y-112141000D03*
X176276000Y-107315000D03*
D22*
X145542000Y-109982000D03*
D21*
X175260000Y-103759000D03*
X173228000Y-103759000D03*
X104340000Y-86995000D03*
D22*
X150241000Y-110236000D03*
X145288000Y-105537000D03*
D21*
X174244000Y-100203000D03*
X175641000Y-112141000D03*
X176403000Y-97282000D03*
X175260000Y-105791000D03*
D22*
X166751000Y-99441000D03*
X166116000Y-107315000D03*
X174625000Y-107061000D03*
X160147000Y-99187000D03*
D21*
X153162000Y-112141000D03*
X161544000Y-92075000D03*
D22*
X153162000Y-92075000D03*
D21*
X172339000Y-105791000D03*
X100582000Y-86016508D03*
X129032000Y-97663000D03*
X103122000Y-80936508D03*
X156462000Y-116496508D03*
X137522548Y-103320500D03*
X115062000Y-102870000D03*
X136142000Y-75856508D03*
X131062000Y-91096508D03*
X122174000Y-115257000D03*
X172339000Y-98171000D03*
D22*
X146685000Y-105537000D03*
D21*
X167417200Y-100089600D03*
D22*
X162433000Y-109220000D03*
D21*
X131476500Y-100175000D03*
D22*
X168529000Y-109093000D03*
D21*
X142922600Y-94234000D03*
X131476500Y-102588000D03*
X155114600Y-103139000D03*
D22*
X171196000Y-92837000D03*
D21*
X157353000Y-92075000D03*
X109728000Y-100838000D03*
X128522000Y-80936508D03*
D22*
X165100000Y-106553000D03*
X159258000Y-110617000D03*
D21*
X153162000Y-92075000D03*
D22*
X146304000Y-104013000D03*
X175006000Y-96520000D03*
D21*
X143762000Y-88556508D03*
X176276000Y-108585000D03*
X148717000Y-95250000D03*
D22*
X161163000Y-104902000D03*
D21*
X174242000Y-86016508D03*
X104648000Y-110236000D03*
D22*
X158115000Y-94996000D03*
X175260000Y-109474000D03*
D21*
X142922600Y-96853400D03*
D22*
X158496000Y-109220000D03*
D21*
X147574000Y-112141000D03*
X146304000Y-112141000D03*
X147748600Y-92075000D03*
X143938600Y-92075000D03*
D22*
X162052000Y-96266000D03*
X161671000Y-110744000D03*
X149225000Y-92964000D03*
X162814000Y-100076000D03*
D21*
X164338000Y-112141000D03*
X160147000Y-112141000D03*
X131062000Y-111416508D03*
D22*
X175260000Y-108458000D03*
D21*
X155114600Y-100091000D03*
X155114600Y-101615000D03*
X142922600Y-93091000D03*
X145002200Y-92075000D03*
D22*
X170942000Y-96647000D03*
D21*
X167640000Y-84270500D03*
X152066600Y-100091000D03*
D22*
X171831000Y-108331000D03*
D21*
X148842000Y-116496508D03*
X164338000Y-92075000D03*
D22*
X170912000Y-101094000D03*
D21*
X141222000Y-116496508D03*
X103787500Y-78232000D03*
D22*
X168529000Y-97790000D03*
D21*
X110742000Y-116496508D03*
D22*
X156337000Y-109855000D03*
D21*
X150051900Y-112141000D03*
X127089500Y-88265000D03*
D22*
X164338000Y-99568000D03*
X160147000Y-94996000D03*
D21*
X176403000Y-98298000D03*
X132520500Y-101445000D03*
X171323000Y-104775000D03*
D22*
X172466000Y-110871000D03*
D21*
X168529000Y-92075000D03*
X157781600Y-97551000D03*
X125222000Y-77597000D03*
X120486500Y-83104000D03*
X133602000Y-83476508D03*
D22*
X146304000Y-96774000D03*
X160147000Y-96266000D03*
D21*
X121793000Y-111887000D03*
D22*
X172466000Y-96520000D03*
X145923000Y-104648000D03*
D21*
X174244000Y-92075000D03*
X159002000Y-88556508D03*
X171702000Y-80936508D03*
X176403000Y-92075000D03*
X131062000Y-73316508D03*
D22*
X166243000Y-100330000D03*
X175133000Y-110363000D03*
X144399000Y-97282000D03*
D21*
X100582000Y-108876508D03*
X142922600Y-98171000D03*
X158750000Y-92075000D03*
D22*
X168529000Y-110617000D03*
D21*
X113919000Y-96393000D03*
D22*
X153035000Y-108204000D03*
D21*
X108966000Y-78232000D03*
X105662000Y-73316508D03*
X115822000Y-113956508D03*
D22*
X171196000Y-110871000D03*
D21*
X162941000Y-92075000D03*
X131496500Y-101420500D03*
X103122000Y-116496508D03*
D22*
X173482000Y-108077000D03*
X170561000Y-107950000D03*
D21*
X133635500Y-102588000D03*
X148209000Y-103774000D03*
D22*
X171704000Y-94742000D03*
X165608000Y-99568000D03*
D21*
X173355000Y-98171000D03*
D22*
X167386000Y-109855000D03*
X160528000Y-97663000D03*
D21*
X128270000Y-114681000D03*
D22*
X147447000Y-93091000D03*
X159766000Y-106934000D03*
D21*
X153590600Y-101615000D03*
X146558000Y-95250000D03*
X162179000Y-101727000D03*
D22*
X171958000Y-107061000D03*
X170434000Y-110617000D03*
X168148000Y-94742000D03*
X145034000Y-96266000D03*
D21*
X165735000Y-92075000D03*
D22*
X165989000Y-97790000D03*
X165862000Y-96266000D03*
D21*
X135763000Y-117094000D03*
X172974000Y-92075000D03*
D22*
X165354000Y-104013000D03*
X146177000Y-106172000D03*
X162560000Y-94869000D03*
D21*
X132492500Y-102588000D03*
D22*
X158242000Y-109982000D03*
D21*
X153590600Y-103139000D03*
D22*
X145415000Y-93091000D03*
D21*
X127000000Y-106172000D03*
X112506942Y-110192661D03*
D22*
X160274000Y-93218000D03*
X159004000Y-104902000D03*
D21*
X165481000Y-78867000D03*
D22*
X166751000Y-94615000D03*
X167640000Y-99060000D03*
X161163000Y-99187000D03*
X154432000Y-93853000D03*
D21*
X176323600Y-104013000D03*
D22*
X163195000Y-101346000D03*
D21*
X120904000Y-111379000D03*
X156462000Y-73316508D03*
X118362000Y-91096508D03*
X151765000Y-112141000D03*
X122569000Y-88057000D03*
D22*
X164211000Y-96266000D03*
D21*
X110742000Y-78396508D03*
X122569000Y-88950800D03*
X171958000Y-92075000D03*
D22*
X160020000Y-104902000D03*
D21*
X158734218Y-106737196D03*
X172339000Y-100203000D03*
D22*
X172974000Y-94742000D03*
D21*
X137287000Y-117094000D03*
X160147000Y-92075000D03*
X161544000Y-78867000D03*
X171196000Y-99187000D03*
X165735000Y-112141000D03*
D22*
X173863000Y-96647000D03*
D21*
X163322000Y-78867000D03*
D22*
X166497000Y-110617000D03*
D21*
X156462000Y-80936508D03*
X152066600Y-103139000D03*
X176276000Y-109855000D03*
D22*
X164338000Y-105029000D03*
X173228000Y-109220000D03*
X171577000Y-109474000D03*
D21*
X171702000Y-73316508D03*
D22*
X160909000Y-108966000D03*
X164719000Y-93345000D03*
D21*
X157353000Y-112141000D03*
D22*
X145034000Y-110871000D03*
X147828000Y-110109000D03*
D21*
X173228000Y-105791000D03*
D22*
X146685000Y-110871000D03*
D21*
X155575000Y-92075000D03*
X151342100Y-96701832D03*
D22*
X170434000Y-109220000D03*
D21*
X174244000Y-98171000D03*
D22*
X147574000Y-106426000D03*
X130585750Y-98649250D03*
D21*
X133635500Y-100175000D03*
X170648500Y-92075000D03*
X151382000Y-88556508D03*
D22*
X175006000Y-92964000D03*
X153797000Y-109220000D03*
D21*
X176403000Y-93345000D03*
X142922600Y-95504000D03*
D22*
X162052000Y-99314000D03*
D21*
X125222000Y-106172000D03*
X153590600Y-100091000D03*
D22*
X152908000Y-109728000D03*
D21*
X176323600Y-106045000D03*
X149145600Y-92075000D03*
D22*
X146304000Y-94107000D03*
X155829000Y-110744000D03*
D21*
X172339000Y-103759000D03*
X118362000Y-83476508D03*
X105662000Y-88556508D03*
D22*
X159766000Y-108839000D03*
X165227000Y-109855000D03*
X144907000Y-94234000D03*
X168275000Y-93345000D03*
X162179000Y-100711000D03*
D21*
X123241175Y-108988500D03*
X170307000Y-105410000D03*
X146351600Y-92075000D03*
X170180000Y-112141000D03*
X151382000Y-78396508D03*
D22*
X166116000Y-105537000D03*
X163957000Y-98044000D03*
X174117000Y-92964000D03*
D21*
X176276000Y-111252000D03*
X112395000Y-97536000D03*
X167132000Y-92075000D03*
X151765000Y-92075000D03*
X160147000Y-103886000D03*
X163322000Y-77597000D03*
D22*
X172974000Y-110109000D03*
X170815000Y-93980000D03*
X167005000Y-104648000D03*
D21*
X108077000Y-101219000D03*
X115822000Y-75856508D03*
D22*
X174371000Y-110744000D03*
D21*
X168529000Y-112141000D03*
X132492500Y-100175000D03*
D22*
X162941000Y-105029000D03*
D21*
X175133000Y-98171000D03*
D22*
X160401000Y-109982000D03*
D21*
X176403000Y-94742000D03*
D22*
X145161000Y-97917000D03*
X157734000Y-93472000D03*
D21*
X176403000Y-96012000D03*
X148842000Y-73316508D03*
X122580400Y-87172800D03*
X113919000Y-97536000D03*
X156625312Y-106714312D03*
X140843000Y-103759000D03*
D22*
X158877000Y-99187000D03*
X157353000Y-110617000D03*
X165354000Y-98552000D03*
D21*
X145034000Y-112141000D03*
X143764000Y-112141000D03*
D22*
X162179000Y-106553000D03*
D21*
X105662000Y-98716508D03*
X167132000Y-112141000D03*
X100582000Y-101256508D03*
X173228000Y-100203000D03*
D22*
X152146000Y-93091000D03*
X164211000Y-101346000D03*
X159131000Y-97917000D03*
D21*
X112395000Y-96393000D03*
D22*
X162052000Y-97917000D03*
X167386000Y-96393000D03*
D21*
X106426000Y-96520000D03*
D22*
X170942000Y-95377000D03*
D21*
X164082000Y-116496508D03*
X171702000Y-113956508D03*
X166622000Y-88556508D03*
D22*
X144018000Y-95250000D03*
D21*
X133655500Y-101420500D03*
X162941000Y-112141000D03*
X100582000Y-93636508D03*
D22*
X174371000Y-109220000D03*
D21*
X150415600Y-92075000D03*
X100203000Y-113792000D03*
X115062000Y-92964000D03*
X117983000Y-116731298D03*
X118362000Y-101256508D03*
D22*
%TO.N,/NRST*%
X143002000Y-81893994D03*
X133477000Y-92202000D03*
X124293500Y-101092000D03*
X124293500Y-92456000D03*
X161290000Y-81915000D03*
X123825000Y-116713000D03*
X163957000Y-81788000D03*
D21*
%TO.N,+3V3*%
X109093000Y-112395000D03*
D22*
X154940000Y-114554000D03*
D21*
X132969000Y-113538000D03*
X119380000Y-97536000D03*
X162433000Y-75311000D03*
X125603000Y-88773000D03*
X145542000Y-114427000D03*
X121793000Y-95377000D03*
X150876000Y-114300000D03*
X130429000Y-108712000D03*
X155880484Y-96444484D03*
X128270000Y-108712000D03*
X129650616Y-99170616D03*
X149479000Y-104648000D03*
X169172400Y-99241000D03*
X157889000Y-104521000D03*
X136653583Y-104013000D03*
%TO.N,+5V*%
X121412000Y-109347000D03*
X118187094Y-88821868D03*
X116332000Y-109347000D03*
X120015000Y-109347000D03*
X121194017Y-97211729D03*
X113411000Y-107950000D03*
D22*
%TO.N,/BOOT0*%
X141192965Y-93225918D03*
X141732000Y-110744000D03*
%TO.N,/CAN_STBY*%
X128143000Y-86308000D03*
X127520444Y-99261556D03*
%TO.N,/UART2_USB_TX*%
X129558500Y-103659591D03*
X126064219Y-87470954D03*
%TO.N,/UART2_USB_RX*%
X124841000Y-89408000D03*
X128943457Y-104330498D03*
%TO.N,/SPI1_SCK*%
X143807474Y-108207268D03*
X144399000Y-109982000D03*
%TO.N,/DIO0*%
X143891685Y-105537098D03*
X145923000Y-99365500D03*
%TO.N,/DIO1*%
X143001306Y-105409306D03*
X143002000Y-100290500D03*
%TO.N,/CAN_RX*%
X138596500Y-96861500D03*
X140500700Y-91559602D03*
%TO.N,/CAN_TX*%
X136525000Y-97361000D03*
X136779000Y-91567000D03*
%TO.N,/SW_RXTX*%
X140208000Y-113284000D03*
X155829000Y-113538000D03*
X169291000Y-105410000D03*
X139954000Y-96012000D03*
%TO.N,/SX_RESET*%
X139192000Y-99187000D03*
X139231500Y-95250000D03*
%TO.N,/DIO2*%
X137707500Y-94702500D03*
X138235056Y-100081832D03*
%TO.N,/DIO3*%
X140629000Y-101503000D03*
X140589000Y-93892500D03*
%TO.N,/LoRa Tranciever/RXTX_SX*%
X154559000Y-108077000D03*
X168275000Y-105537000D03*
%TO.N,/DEBUG_SWO*%
X134326500Y-96686500D03*
X143002000Y-82793497D03*
%TO.N,/DEBUG_SWCLK*%
X143002000Y-83693000D03*
X135019500Y-98933000D03*
%TO.N,/DEBUG_SWDIO*%
X143002000Y-84709000D03*
X135763000Y-98044000D03*
X163576000Y-84582000D03*
%TO.N,/Power Regulator/I_{MON}*%
X113307773Y-100915500D03*
X112649000Y-102489000D03*
D21*
%TO.N,/Power Regulator/5V*%
X102870000Y-114808000D03*
%TO.N,VBUS_UP*%
X122569000Y-79960000D03*
X117409000Y-80010000D03*
D22*
%TO.N,Net-(U2-PA10)*%
X135763000Y-112505750D03*
X136779000Y-101421500D03*
%TO.N,Net-(U2-PA9)*%
X137541000Y-101912713D03*
X137287000Y-112477750D03*
%TO.N,Net-(U2-PA1)*%
X129230106Y-102770050D03*
X134239000Y-111289500D03*
%TO.N,/DIO4*%
X137199500Y-96686500D03*
X137509944Y-100806944D03*
%TO.N,/DIO5*%
X128142500Y-99921875D03*
X138977500Y-109690500D03*
X138977500Y-103251000D03*
X134569200Y-109690500D03*
%TO.N,/LoRa Tranciever/MISO_TX*%
X150952856Y-108037500D03*
X150876000Y-106652500D03*
%TO.N,/LoRa Tranciever/SCK_RTSN*%
X151627356Y-105574356D03*
X151638000Y-109387000D03*
%TO.N,Net-(U2-PA8)*%
X138303000Y-102596000D03*
X139718314Y-114057655D03*
%TO.N,Net-(J4-D+)*%
X123519000Y-78105000D03*
X122090500Y-76472687D03*
%TD*%
D23*
%TO.N,/NRST*%
X142980994Y-81915000D02*
X136779000Y-81915000D01*
X133477000Y-85217000D02*
X133477000Y-92202000D01*
X143002000Y-81893994D02*
X142980994Y-81915000D01*
X136779000Y-81915000D02*
X133477000Y-85217000D01*
%TO.N,/DEBUG_SWO*%
X134264400Y-85826600D02*
X134264400Y-96624400D01*
X142991497Y-82804000D02*
X137287000Y-82804000D01*
X143002000Y-82793497D02*
X142991497Y-82804000D01*
X137287000Y-82804000D02*
X134264400Y-85826600D01*
X134264400Y-96624400D02*
X134326500Y-96686500D01*
%TO.N,/DEBUG_SWCLK*%
X135001000Y-98914500D02*
X135019500Y-98933000D01*
X137668000Y-83693000D02*
X135001000Y-86360000D01*
X143002000Y-83693000D02*
X137668000Y-83693000D01*
X135001000Y-86360000D02*
X135001000Y-98914500D01*
%TO.N,/DEBUG_SWDIO*%
X138049000Y-84709000D02*
X135763000Y-86995000D01*
X143002000Y-84709000D02*
X138049000Y-84709000D01*
X135763000Y-86995000D02*
X135763000Y-98044000D01*
%TO.N,/CAN_RX*%
X138557000Y-96822000D02*
X138596500Y-96861500D01*
X140500700Y-91559602D02*
X138557000Y-93503302D01*
X138557000Y-93503302D02*
X138557000Y-96822000D01*
%TO.N,/CAN_TX*%
X136779000Y-91567000D02*
X136525000Y-91821000D01*
X136525000Y-91821000D02*
X136525000Y-97361000D01*
%TO.N,/NRST*%
X123965675Y-101419825D02*
X123965675Y-116572325D01*
X163830000Y-81915000D02*
X161290000Y-81915000D01*
X124293500Y-101092000D02*
X123965675Y-101419825D01*
X124293500Y-101092000D02*
X124293500Y-92456000D01*
X123965675Y-116572325D02*
X123825000Y-116713000D01*
X163957000Y-81788000D02*
X163830000Y-81915000D01*
%TO.N,/BOOT0*%
X141192965Y-93541870D02*
X141192965Y-93225918D01*
X141732000Y-110744000D02*
X141732000Y-101727000D01*
X141264000Y-101259000D02*
X141264000Y-93612905D01*
X141732000Y-101727000D02*
X141264000Y-101259000D01*
X141264000Y-93612905D02*
X141192965Y-93541870D01*
%TO.N,/CAN_STBY*%
X128143000Y-98639000D02*
X128143000Y-86308000D01*
X127520444Y-99261556D02*
X128143000Y-98639000D01*
%TO.N,/UART2_USB_TX*%
X128905377Y-103655498D02*
X126364500Y-101114621D01*
X126364500Y-101114621D02*
X126364500Y-87771235D01*
X126364500Y-87771235D02*
X126064219Y-87470954D01*
X129554407Y-103655498D02*
X128905377Y-103655498D01*
X129558500Y-103659591D02*
X129554407Y-103655498D01*
%TO.N,/UART2_USB_RX*%
X128943457Y-104330498D02*
X128587498Y-104330498D01*
X128587498Y-104330498D02*
X124968000Y-100711000D01*
X124968000Y-100711000D02*
X124968000Y-89535000D01*
X124968000Y-89535000D02*
X124841000Y-89408000D01*
%TO.N,/SPI1_SCK*%
X143807474Y-108207268D02*
X143807474Y-108628474D01*
X143807474Y-108628474D02*
X144399000Y-109220000D01*
X144399000Y-109220000D02*
X144399000Y-109982000D01*
%TO.N,/DIO0*%
X145923000Y-99365500D02*
X144855500Y-99365500D01*
X143891685Y-100329315D02*
X143891685Y-105537098D01*
X144855500Y-99365500D02*
X143891685Y-100329315D01*
%TO.N,/DIO1*%
X143001306Y-105409306D02*
X143002000Y-105408612D01*
X143002000Y-105408612D02*
X143002000Y-100290500D01*
%TO.N,/SW_RXTX*%
X168783000Y-113538000D02*
X155829000Y-113538000D01*
X169291000Y-105410000D02*
X169455000Y-105574000D01*
X169455000Y-105754000D02*
X169455000Y-112866000D01*
X169455000Y-105574000D02*
X169455000Y-105754000D01*
X139866500Y-112942500D02*
X140208000Y-113284000D01*
X139954000Y-96012000D02*
X139866500Y-96099500D01*
X139866500Y-96099500D02*
X139866500Y-112942500D01*
X169455000Y-112866000D02*
X168783000Y-113538000D01*
%TO.N,/SX_RESET*%
X139271500Y-95290000D02*
X139231500Y-95250000D01*
X139271500Y-99107500D02*
X139271500Y-95290000D01*
X139192000Y-99187000D02*
X139271500Y-99107500D01*
%TO.N,/DIO2*%
X138235056Y-100081832D02*
X137922000Y-99768776D01*
X137922000Y-94917000D02*
X137707500Y-94702500D01*
X137922000Y-99768776D02*
X137922000Y-94917000D01*
%TO.N,/DIO3*%
X140629000Y-93932500D02*
X140589000Y-93892500D01*
X140629000Y-101503000D02*
X140629000Y-93932500D01*
%TO.N,/LoRa Tranciever/RXTX_SX*%
X168275000Y-105537000D02*
X168275000Y-107569000D01*
X168275000Y-107569000D02*
X167767000Y-108077000D01*
X167767000Y-108077000D02*
X154559000Y-108077000D01*
%TO.N,/DEBUG_SWDIO*%
X170339000Y-84306701D02*
X169555701Y-85090000D01*
X169164000Y-73660000D02*
X170339000Y-74835000D01*
X170339000Y-74835000D02*
X170339000Y-84306701D01*
X169555701Y-85090000D02*
X164084000Y-85090000D01*
X164084000Y-85090000D02*
X163576000Y-84582000D01*
D24*
%TO.N,/Power Regulator/I_{MON}*%
X113307773Y-100915500D02*
X113307773Y-101830227D01*
X113307773Y-101830227D02*
X112649000Y-102489000D01*
D23*
%TO.N,Net-(U2-PA10)*%
X135260899Y-112003649D02*
X135763000Y-112505750D01*
X136779000Y-101421500D02*
X136779000Y-101473000D01*
X135260899Y-102991101D02*
X135260899Y-112003649D01*
X136779000Y-101473000D02*
X135260899Y-102991101D01*
%TO.N,Net-(U2-PA9)*%
X135929083Y-103524630D02*
X135929083Y-111119833D01*
X135929083Y-111119833D02*
X137287000Y-112477750D01*
X137541000Y-101912713D02*
X135929083Y-103524630D01*
%TO.N,Net-(U2-PA1)*%
X130233000Y-107283500D02*
X134239000Y-111289500D01*
X129384156Y-102616000D02*
X129667000Y-102616000D01*
X129230106Y-102770050D02*
X129384156Y-102616000D01*
X130233000Y-103182000D02*
X130233000Y-107283500D01*
X129667000Y-102616000D02*
X130233000Y-103182000D01*
%TO.N,/DIO4*%
X137199500Y-100496500D02*
X137509944Y-100806944D01*
X137199500Y-96686500D02*
X137199500Y-100496500D01*
%TO.N,/DIO5*%
X138938000Y-109651000D02*
X138938000Y-103290500D01*
X130020875Y-99921875D02*
X130683000Y-100584000D01*
X134074500Y-109690500D02*
X134569200Y-109690500D01*
X138977500Y-109690500D02*
X138938000Y-109651000D01*
X128142500Y-99921875D02*
X130020875Y-99921875D01*
X138938000Y-103290500D02*
X138977500Y-103251000D01*
X130683000Y-100584000D02*
X130683000Y-106299000D01*
X130683000Y-106299000D02*
X134074500Y-109690500D01*
%TO.N,/LoRa Tranciever/MISO_TX*%
X150876000Y-107960644D02*
X150952856Y-108037500D01*
X150876000Y-106652500D02*
X150876000Y-107960644D01*
%TO.N,/LoRa Tranciever/SCK_RTSN*%
X151638000Y-109387000D02*
X151627356Y-109376356D01*
X151627356Y-109376356D02*
X151627356Y-105574356D01*
%TO.N,Net-(U2-PA8)*%
X138303000Y-112642341D02*
X138303000Y-102596000D01*
X139718314Y-114057655D02*
X138303000Y-112642341D01*
D25*
%TO.N,Net-(J4-D+)*%
X123519000Y-77901187D02*
X122090500Y-76472687D01*
X123519000Y-78105000D02*
X123519000Y-77901187D01*
%TD*%
%TA.AperFunction,Conductor*%
%TO.N,GND*%
G36*
X137630706Y-102526438D02*
G01*
X137682963Y-102572817D01*
X137700797Y-102622427D01*
X137717955Y-102752760D01*
X137717956Y-102752762D01*
X137778464Y-102898842D01*
X137874715Y-103024279D01*
X137874716Y-103024280D01*
X137874718Y-103024282D01*
X137878982Y-103027554D01*
X137920187Y-103083978D01*
X137927500Y-103125932D01*
X137927500Y-111962323D01*
X137907815Y-112029362D01*
X137855011Y-112075117D01*
X137785853Y-112085061D01*
X137722297Y-112056036D01*
X137715826Y-112050011D01*
X137715290Y-112049475D01*
X137715283Y-112049470D01*
X137715282Y-112049468D01*
X137589841Y-111953214D01*
X137443762Y-111892706D01*
X137443760Y-111892705D01*
X137287002Y-111872068D01*
X137286997Y-111872068D01*
X137281664Y-111872770D01*
X137212629Y-111862004D01*
X137177800Y-111837512D01*
X136340902Y-111000614D01*
X136307417Y-110939291D01*
X136304583Y-110912933D01*
X136304583Y-104755222D01*
X136324268Y-104688183D01*
X136377072Y-104642428D01*
X136446230Y-104632484D01*
X136458251Y-104634823D01*
X136574598Y-104663500D01*
X136732568Y-104663500D01*
X136885948Y-104625696D01*
X136905893Y-104615228D01*
X137025823Y-104552283D01*
X137144066Y-104447530D01*
X137233803Y-104317523D01*
X137289820Y-104169818D01*
X137308861Y-104013000D01*
X137297392Y-103918539D01*
X137289820Y-103856181D01*
X137244233Y-103735979D01*
X137233803Y-103708477D01*
X137144066Y-103578470D01*
X137025823Y-103473717D01*
X137025821Y-103473716D01*
X137025820Y-103473715D01*
X136885950Y-103400304D01*
X136857532Y-103393300D01*
X136797152Y-103358143D01*
X136765364Y-103295923D01*
X136772260Y-103226395D01*
X136799525Y-103185224D01*
X137431801Y-102552948D01*
X137493122Y-102519465D01*
X137535669Y-102517693D01*
X137541000Y-102518395D01*
X137561673Y-102515673D01*
X137630706Y-102526438D01*
G37*
%TD.AperFunction*%
%TA.AperFunction,Conductor*%
G36*
X99911329Y-71050185D02*
G01*
X99957084Y-71102989D01*
X99967028Y-71172147D01*
X99938003Y-71235703D01*
X99887623Y-71270682D01*
X99812579Y-71298671D01*
X99812575Y-71298673D01*
X99567081Y-71432723D01*
X99567073Y-71432728D01*
X99343156Y-71600350D01*
X99343138Y-71600366D01*
X99145366Y-71798138D01*
X99145350Y-71798156D01*
X98977728Y-72022073D01*
X98977723Y-72022081D01*
X98843673Y-72267575D01*
X98843671Y-72267579D01*
X98745917Y-72529671D01*
X98686460Y-72802986D01*
X98666505Y-73081998D01*
X98666505Y-73082001D01*
X98686460Y-73361013D01*
X98745917Y-73634328D01*
X98745919Y-73634335D01*
X98806611Y-73797059D01*
X98843671Y-73896420D01*
X98843673Y-73896424D01*
X98977723Y-74141918D01*
X98977728Y-74141926D01*
X99145350Y-74365843D01*
X99145366Y-74365861D01*
X99343138Y-74563633D01*
X99343156Y-74563649D01*
X99567073Y-74731271D01*
X99567081Y-74731276D01*
X99812575Y-74865326D01*
X99812579Y-74865328D01*
X99812581Y-74865329D01*
X100074665Y-74963081D01*
X100211328Y-74992810D01*
X100347986Y-75022539D01*
X100347988Y-75022539D01*
X100347992Y-75022540D01*
X100595934Y-75040273D01*
X100626999Y-75042495D01*
X100627000Y-75042495D01*
X100627001Y-75042495D01*
X100654952Y-75040495D01*
X100906008Y-75022540D01*
X101179335Y-74963081D01*
X101441419Y-74865329D01*
X101686924Y-74731273D01*
X101910851Y-74563643D01*
X102108643Y-74365851D01*
X102276273Y-74141924D01*
X102400729Y-73914000D01*
X113198341Y-73914000D01*
X113218936Y-74149403D01*
X113218938Y-74149413D01*
X113280094Y-74377655D01*
X113280096Y-74377659D01*
X113280097Y-74377663D01*
X113330030Y-74484746D01*
X113379964Y-74591828D01*
X113379965Y-74591830D01*
X113515505Y-74785402D01*
X113682597Y-74952494D01*
X113876169Y-75088034D01*
X113876171Y-75088035D01*
X114090337Y-75187903D01*
X114318592Y-75249063D01*
X114495034Y-75264500D01*
X114612966Y-75264500D01*
X114789408Y-75249063D01*
X115017663Y-75187903D01*
X115231829Y-75088035D01*
X115425401Y-74952495D01*
X115592495Y-74785401D01*
X115728035Y-74591830D01*
X115754686Y-74534676D01*
X165523499Y-74534676D01*
X165523500Y-74534678D01*
X165538032Y-74607735D01*
X165538033Y-74607739D01*
X165545223Y-74618500D01*
X165593399Y-74690601D01*
X165657943Y-74733727D01*
X165676260Y-74745966D01*
X165676264Y-74745967D01*
X165749321Y-74760499D01*
X165749324Y-74760500D01*
X165749326Y-74760500D01*
X167498676Y-74760500D01*
X167498677Y-74760499D01*
X167571740Y-74745966D01*
X167654601Y-74690601D01*
X167709966Y-74607740D01*
X167724500Y-74534674D01*
X167724500Y-72785326D01*
X167724500Y-72785325D01*
X167724500Y-72785323D01*
X167724499Y-72785321D01*
X167709967Y-72712264D01*
X167709966Y-72712260D01*
X167654601Y-72629399D01*
X167599234Y-72592405D01*
X167571739Y-72574033D01*
X167571735Y-72574032D01*
X167498677Y-72559500D01*
X167498674Y-72559500D01*
X165749326Y-72559500D01*
X165749323Y-72559500D01*
X165676264Y-72574032D01*
X165676260Y-72574033D01*
X165593399Y-72629399D01*
X165538033Y-72712260D01*
X165538032Y-72712264D01*
X165523500Y-72785321D01*
X165523499Y-72785323D01*
X165523499Y-74534676D01*
X115754686Y-74534676D01*
X115827903Y-74377663D01*
X115889063Y-74149408D01*
X115909659Y-73914000D01*
X115889063Y-73678592D01*
X115827903Y-73450337D01*
X115728035Y-73236171D01*
X115728034Y-73236169D01*
X115592494Y-73042597D01*
X115565968Y-73016071D01*
X117994500Y-73016071D01*
X118009750Y-73141667D01*
X118069642Y-73299589D01*
X118069643Y-73299590D01*
X118165588Y-73438590D01*
X118292007Y-73550588D01*
X118292009Y-73550589D01*
X118441561Y-73629080D01*
X118523555Y-73649289D01*
X118605550Y-73669500D01*
X118605551Y-73669500D01*
X118774450Y-73669500D01*
X118829112Y-73656026D01*
X118938439Y-73629080D01*
X119087991Y-73550589D01*
X119214413Y-73438589D01*
X119310358Y-73299589D01*
X119370250Y-73141666D01*
X119385500Y-73016071D01*
X124994500Y-73016071D01*
X125009750Y-73141667D01*
X125069642Y-73299589D01*
X125069643Y-73299590D01*
X125165588Y-73438590D01*
X125292007Y-73550588D01*
X125292009Y-73550589D01*
X125441561Y-73629080D01*
X125523555Y-73649290D01*
X125605550Y-73669500D01*
X125605551Y-73669500D01*
X125774450Y-73669500D01*
X125829112Y-73656026D01*
X125938439Y-73629080D01*
X126087991Y-73550589D01*
X126214413Y-73438589D01*
X126310358Y-73299589D01*
X126370250Y-73141666D01*
X126385500Y-73016069D01*
X126385500Y-72271931D01*
X126370250Y-72146334D01*
X126310358Y-71988411D01*
X126214413Y-71849411D01*
X126214411Y-71849409D01*
X126087992Y-71737411D01*
X125938437Y-71658919D01*
X125774450Y-71618500D01*
X125774449Y-71618500D01*
X125605551Y-71618500D01*
X125605550Y-71618500D01*
X125441562Y-71658919D01*
X125292007Y-71737411D01*
X125165588Y-71849409D01*
X125069643Y-71988409D01*
X125069642Y-71988410D01*
X125009750Y-72146332D01*
X124994500Y-72271928D01*
X124994500Y-73016071D01*
X119385500Y-73016071D01*
X119385500Y-73016069D01*
X119385500Y-72271931D01*
X119370250Y-72146334D01*
X119310358Y-71988411D01*
X119214413Y-71849411D01*
X119214411Y-71849409D01*
X119087992Y-71737411D01*
X118938437Y-71658919D01*
X118774450Y-71618500D01*
X118774449Y-71618500D01*
X118605551Y-71618500D01*
X118605550Y-71618500D01*
X118441562Y-71658919D01*
X118292007Y-71737411D01*
X118165588Y-71849409D01*
X118069643Y-71988409D01*
X118069642Y-71988410D01*
X118009750Y-72146332D01*
X117994500Y-72271928D01*
X117994500Y-73016071D01*
X115565968Y-73016071D01*
X115425402Y-72875505D01*
X115231830Y-72739965D01*
X115231828Y-72739964D01*
X115083194Y-72670655D01*
X115017663Y-72640097D01*
X115017659Y-72640096D01*
X115017655Y-72640094D01*
X114789413Y-72578938D01*
X114789403Y-72578936D01*
X114612966Y-72563500D01*
X114495034Y-72563500D01*
X114318596Y-72578936D01*
X114318586Y-72578938D01*
X114090344Y-72640094D01*
X114090335Y-72640098D01*
X113876171Y-72739964D01*
X113876169Y-72739965D01*
X113682597Y-72875505D01*
X113515506Y-73042597D01*
X113515501Y-73042604D01*
X113379967Y-73236165D01*
X113379965Y-73236169D01*
X113280098Y-73450335D01*
X113280094Y-73450344D01*
X113218938Y-73678586D01*
X113218936Y-73678596D01*
X113198341Y-73913999D01*
X113198341Y-73914000D01*
X102400729Y-73914000D01*
X102410329Y-73896419D01*
X102508081Y-73634335D01*
X102567540Y-73361008D01*
X102587495Y-73082000D01*
X102567540Y-72802992D01*
X102563696Y-72785323D01*
X102532104Y-72640097D01*
X102508081Y-72529665D01*
X102410329Y-72267581D01*
X102276273Y-72022076D01*
X102251070Y-71988409D01*
X102108649Y-71798156D01*
X102108633Y-71798138D01*
X101910861Y-71600366D01*
X101910843Y-71600350D01*
X101686926Y-71432728D01*
X101686918Y-71432723D01*
X101441424Y-71298673D01*
X101441420Y-71298671D01*
X101366377Y-71270682D01*
X101310443Y-71228811D01*
X101286026Y-71163346D01*
X101300878Y-71095073D01*
X101350283Y-71045668D01*
X101409710Y-71030500D01*
X176755500Y-71030500D01*
X176822539Y-71050185D01*
X176868294Y-71102989D01*
X176879500Y-71154500D01*
X176879500Y-98301000D01*
X176859815Y-98368039D01*
X176807011Y-98413794D01*
X176755500Y-98425000D01*
X175892000Y-98425000D01*
X175824961Y-98405315D01*
X175779206Y-98352511D01*
X175768000Y-98301000D01*
X175768000Y-92583000D01*
X143510000Y-92583000D01*
X143416064Y-99628112D01*
X143395487Y-99694883D01*
X143342078Y-99739930D01*
X143272793Y-99748951D01*
X143244623Y-99741020D01*
X143158765Y-99705457D01*
X143158760Y-99705455D01*
X143002001Y-99684818D01*
X143001999Y-99684818D01*
X142845239Y-99705455D01*
X142845237Y-99705456D01*
X142699160Y-99765963D01*
X142573718Y-99862218D01*
X142477463Y-99987660D01*
X142416956Y-100133737D01*
X142416955Y-100133739D01*
X142396318Y-100290498D01*
X142396318Y-100290501D01*
X142416955Y-100447260D01*
X142416956Y-100447262D01*
X142477464Y-100593342D01*
X142573715Y-100718779D01*
X142573716Y-100718780D01*
X142573718Y-100718782D01*
X142577982Y-100722054D01*
X142619187Y-100778478D01*
X142626500Y-100820432D01*
X142626500Y-104878840D01*
X142606815Y-104945879D01*
X142577987Y-104977216D01*
X142573026Y-104981022D01*
X142476769Y-105106466D01*
X142416262Y-105252543D01*
X142416261Y-105252545D01*
X142395624Y-105409304D01*
X142395624Y-105409307D01*
X142416261Y-105566066D01*
X142416262Y-105566068D01*
X142476770Y-105712147D01*
X142573024Y-105837588D01*
X142698465Y-105933842D01*
X142844544Y-105994350D01*
X142922924Y-106004668D01*
X143001305Y-106014988D01*
X143001306Y-106014988D01*
X143001307Y-106014988D01*
X143032658Y-106010860D01*
X143158068Y-105994350D01*
X143158180Y-105994303D01*
X143158280Y-105994292D01*
X143165919Y-105992246D01*
X143166237Y-105993436D01*
X143227644Y-105986826D01*
X143290127Y-106018093D01*
X143325787Y-106078178D01*
X143329632Y-106110512D01*
X143306665Y-107833050D01*
X143286862Y-107897306D01*
X143287002Y-107897387D01*
X143286650Y-107897995D01*
X143286088Y-107899821D01*
X143283505Y-107903442D01*
X143282939Y-107904424D01*
X143222430Y-108050505D01*
X143222429Y-108050507D01*
X143201792Y-108207266D01*
X143201792Y-108207269D01*
X143222429Y-108364028D01*
X143222431Y-108364033D01*
X143286048Y-108517619D01*
X143283680Y-108518599D01*
X143296851Y-108569106D01*
X143259630Y-111360779D01*
X143256000Y-111633000D01*
X168955500Y-111633000D01*
X169022539Y-111652685D01*
X169068294Y-111705489D01*
X169079500Y-111757000D01*
X169079500Y-112659100D01*
X169059815Y-112726139D01*
X169043181Y-112746781D01*
X168663781Y-113126181D01*
X168602458Y-113159666D01*
X168576100Y-113162500D01*
X156358933Y-113162500D01*
X156291894Y-113142815D01*
X156260559Y-113113988D01*
X156257284Y-113109721D01*
X156257282Y-113109718D01*
X156131841Y-113013464D01*
X156091224Y-112996640D01*
X155985762Y-112952956D01*
X155985760Y-112952955D01*
X155829001Y-112932318D01*
X155828999Y-112932318D01*
X155672239Y-112952955D01*
X155672237Y-112952956D01*
X155526160Y-113013463D01*
X155400718Y-113109718D01*
X155304463Y-113235160D01*
X155243956Y-113381237D01*
X155243955Y-113381239D01*
X155223318Y-113537998D01*
X155223318Y-113538001D01*
X155243955Y-113694760D01*
X155243956Y-113694762D01*
X155291083Y-113808537D01*
X155296977Y-113822765D01*
X155304446Y-113892235D01*
X155273171Y-113954714D01*
X155213082Y-113990366D01*
X155143257Y-113987872D01*
X155134965Y-113984780D01*
X155105390Y-113972530D01*
X155096762Y-113968956D01*
X155096760Y-113968955D01*
X154940001Y-113948318D01*
X154939999Y-113948318D01*
X154783239Y-113968955D01*
X154783237Y-113968956D01*
X154637160Y-114029463D01*
X154511718Y-114125718D01*
X154415463Y-114251160D01*
X154354956Y-114397237D01*
X154354955Y-114397239D01*
X154334318Y-114553998D01*
X154334318Y-114554001D01*
X154354955Y-114710760D01*
X154354956Y-114710762D01*
X154408191Y-114839284D01*
X154415464Y-114856841D01*
X154511718Y-114982282D01*
X154637159Y-115078536D01*
X154783238Y-115139044D01*
X154861619Y-115149362D01*
X154939999Y-115159682D01*
X154940000Y-115159682D01*
X154940001Y-115159682D01*
X154992254Y-115152802D01*
X155096762Y-115139044D01*
X155242841Y-115078536D01*
X155368282Y-114982282D01*
X155464536Y-114856841D01*
X155525044Y-114710762D01*
X155545682Y-114554000D01*
X155542720Y-114531505D01*
X155525044Y-114397239D01*
X155525044Y-114397238D01*
X155472021Y-114269230D01*
X155464553Y-114199765D01*
X155495828Y-114137286D01*
X155555916Y-114101633D01*
X155625742Y-114104126D01*
X155634035Y-114107220D01*
X155649207Y-114113504D01*
X155672238Y-114123044D01*
X155750618Y-114133363D01*
X155828999Y-114143682D01*
X155829000Y-114143682D01*
X155829001Y-114143682D01*
X155881253Y-114136802D01*
X155985762Y-114123044D01*
X156131841Y-114062536D01*
X156257282Y-113966282D01*
X156259490Y-113963404D01*
X156260559Y-113962012D01*
X156316987Y-113920810D01*
X156358933Y-113913500D01*
X168731196Y-113913500D01*
X168756641Y-113916139D01*
X168760440Y-113916935D01*
X168767268Y-113918367D01*
X168788225Y-113915754D01*
X168802492Y-113913977D01*
X168810168Y-113913500D01*
X168814112Y-113913500D01*
X168814114Y-113913500D01*
X168814116Y-113913499D01*
X168814122Y-113913499D01*
X168829487Y-113910934D01*
X168837140Y-113909657D01*
X168891626Y-113902866D01*
X168891627Y-113902865D01*
X168891629Y-113902865D01*
X168899141Y-113900628D01*
X168906606Y-113898066D01*
X168906606Y-113898065D01*
X168906610Y-113898065D01*
X168954877Y-113871944D01*
X169004211Y-113847826D01*
X169004213Y-113847823D01*
X169010594Y-113843268D01*
X169016819Y-113838422D01*
X169016826Y-113838419D01*
X169054008Y-113798028D01*
X169683889Y-113168146D01*
X169703746Y-113152022D01*
X169712836Y-113146084D01*
X169734651Y-113118054D01*
X169739719Y-113112316D01*
X169742520Y-113109517D01*
X169756088Y-113090513D01*
X169789809Y-113047189D01*
X169789810Y-113047183D01*
X169793543Y-113040287D01*
X169797006Y-113033203D01*
X169797010Y-113033199D01*
X169812027Y-112982757D01*
X169812673Y-112980588D01*
X169819057Y-112961991D01*
X169830500Y-112928660D01*
X169830500Y-112928655D01*
X169831795Y-112920895D01*
X169832769Y-112913086D01*
X169830500Y-112858231D01*
X169830500Y-111757000D01*
X169850185Y-111689961D01*
X169902989Y-111644206D01*
X169954500Y-111633000D01*
X175768000Y-111633000D01*
X175768000Y-105661000D01*
X175787685Y-105593961D01*
X175840489Y-105548206D01*
X175892000Y-105537000D01*
X176755500Y-105537000D01*
X176822539Y-105556685D01*
X176868294Y-105609489D01*
X176879500Y-105661000D01*
X176879500Y-118149500D01*
X176859815Y-118216539D01*
X176807011Y-118262294D01*
X176755500Y-118273500D01*
X98264500Y-118273500D01*
X98197461Y-118253815D01*
X98151706Y-118201011D01*
X98140500Y-118149500D01*
X98140500Y-115570000D01*
X113198341Y-115570000D01*
X113218936Y-115805403D01*
X113218938Y-115805413D01*
X113280094Y-116033655D01*
X113280096Y-116033659D01*
X113280097Y-116033663D01*
X113300587Y-116077604D01*
X113379964Y-116247828D01*
X113379965Y-116247830D01*
X113515505Y-116441402D01*
X113682597Y-116608494D01*
X113876169Y-116744034D01*
X113876171Y-116744035D01*
X114090337Y-116843903D01*
X114318592Y-116905063D01*
X114495034Y-116920500D01*
X114612966Y-116920500D01*
X114789408Y-116905063D01*
X115017663Y-116843903D01*
X115231829Y-116744035D01*
X115276150Y-116713001D01*
X123219318Y-116713001D01*
X123239955Y-116869760D01*
X123239956Y-116869762D01*
X123267468Y-116936183D01*
X123300464Y-117015841D01*
X123396718Y-117141282D01*
X123522159Y-117237536D01*
X123668238Y-117298044D01*
X123746618Y-117308362D01*
X123824999Y-117318682D01*
X123825000Y-117318682D01*
X123825001Y-117318682D01*
X123877253Y-117311802D01*
X123981762Y-117298044D01*
X124127841Y-117237536D01*
X124253282Y-117141282D01*
X124349536Y-117015841D01*
X124410044Y-116869762D01*
X124430682Y-116713000D01*
X124410044Y-116556238D01*
X124383873Y-116493055D01*
X127974500Y-116493055D01*
X128015210Y-116658226D01*
X128094263Y-116808849D01*
X128094266Y-116808852D01*
X128207071Y-116936183D01*
X128297318Y-116998476D01*
X128347068Y-117032817D01*
X128347069Y-117032817D01*
X128347070Y-117032818D01*
X128506128Y-117093140D01*
X128582028Y-117102356D01*
X128632626Y-117108500D01*
X128632628Y-117108500D01*
X128717374Y-117108500D01*
X128759538Y-117103380D01*
X128843872Y-117093140D01*
X129002930Y-117032818D01*
X129142929Y-116936183D01*
X129255734Y-116808852D01*
X129289754Y-116744034D01*
X129306041Y-116713001D01*
X129334790Y-116658225D01*
X129375500Y-116493056D01*
X129375500Y-116493055D01*
X130974500Y-116493055D01*
X131015210Y-116658226D01*
X131094263Y-116808849D01*
X131094266Y-116808852D01*
X131207071Y-116936183D01*
X131297318Y-116998476D01*
X131347068Y-117032817D01*
X131347069Y-117032817D01*
X131347070Y-117032818D01*
X131506128Y-117093140D01*
X131582028Y-117102356D01*
X131632626Y-117108500D01*
X131632628Y-117108500D01*
X131717374Y-117108500D01*
X131759538Y-117103380D01*
X131843872Y-117093140D01*
X132002930Y-117032818D01*
X132142929Y-116936183D01*
X132255734Y-116808852D01*
X132289754Y-116744034D01*
X132306041Y-116713001D01*
X132334790Y-116658225D01*
X132375500Y-116493056D01*
X132375500Y-116322944D01*
X132334790Y-116157775D01*
X132292713Y-116077604D01*
X132255736Y-116007150D01*
X132236560Y-115985505D01*
X132142929Y-115879817D01*
X132093177Y-115845475D01*
X132002931Y-115783182D01*
X131843874Y-115722860D01*
X131843868Y-115722859D01*
X131717374Y-115707500D01*
X131717372Y-115707500D01*
X131632628Y-115707500D01*
X131632626Y-115707500D01*
X131506131Y-115722859D01*
X131506125Y-115722860D01*
X131347068Y-115783182D01*
X131207072Y-115879816D01*
X131094263Y-116007150D01*
X131015210Y-116157773D01*
X130974500Y-116322944D01*
X130974500Y-116493055D01*
X129375500Y-116493055D01*
X129375500Y-116322944D01*
X129334790Y-116157775D01*
X129292713Y-116077604D01*
X129255736Y-116007150D01*
X129236560Y-115985505D01*
X129142929Y-115879817D01*
X129093177Y-115845475D01*
X129002931Y-115783182D01*
X128843874Y-115722860D01*
X128843868Y-115722859D01*
X128717374Y-115707500D01*
X128717372Y-115707500D01*
X128632628Y-115707500D01*
X128632626Y-115707500D01*
X128506131Y-115722859D01*
X128506125Y-115722860D01*
X128347068Y-115783182D01*
X128207072Y-115879816D01*
X128094263Y-116007150D01*
X128015210Y-116157773D01*
X127974500Y-116322944D01*
X127974500Y-116493055D01*
X124383873Y-116493055D01*
X124350614Y-116412760D01*
X124341175Y-116365308D01*
X124341175Y-115570000D01*
X172634341Y-115570000D01*
X172654936Y-115805403D01*
X172654938Y-115805413D01*
X172716094Y-116033655D01*
X172716096Y-116033659D01*
X172716097Y-116033663D01*
X172736587Y-116077604D01*
X172815964Y-116247828D01*
X172815965Y-116247830D01*
X172951505Y-116441402D01*
X173118597Y-116608494D01*
X173312169Y-116744034D01*
X173312171Y-116744035D01*
X173526337Y-116843903D01*
X173754592Y-116905063D01*
X173931034Y-116920500D01*
X174048966Y-116920500D01*
X174225408Y-116905063D01*
X174453663Y-116843903D01*
X174667829Y-116744035D01*
X174861401Y-116608495D01*
X175028495Y-116441401D01*
X175164035Y-116247830D01*
X175263903Y-116033663D01*
X175325063Y-115805408D01*
X175345659Y-115570000D01*
X175325063Y-115334592D01*
X175263903Y-115106337D01*
X175164035Y-114892171D01*
X175164034Y-114892169D01*
X175028494Y-114698597D01*
X174861402Y-114531505D01*
X174667830Y-114395965D01*
X174667828Y-114395964D01*
X174560745Y-114346031D01*
X174453663Y-114296097D01*
X174453659Y-114296096D01*
X174453655Y-114296094D01*
X174225413Y-114234938D01*
X174225403Y-114234936D01*
X174048966Y-114219500D01*
X173931034Y-114219500D01*
X173754596Y-114234936D01*
X173754586Y-114234938D01*
X173526344Y-114296094D01*
X173526335Y-114296098D01*
X173312171Y-114395964D01*
X173312169Y-114395965D01*
X173118597Y-114531505D01*
X172951506Y-114698597D01*
X172951501Y-114698604D01*
X172815967Y-114892165D01*
X172815965Y-114892169D01*
X172716098Y-115106335D01*
X172716094Y-115106344D01*
X172654938Y-115334586D01*
X172654936Y-115334596D01*
X172634341Y-115569999D01*
X172634341Y-115570000D01*
X124341175Y-115570000D01*
X124341175Y-113538000D01*
X132313721Y-113538000D01*
X132332762Y-113694818D01*
X132378078Y-113814304D01*
X132388780Y-113842523D01*
X132478517Y-113972530D01*
X132596760Y-114077283D01*
X132596762Y-114077284D01*
X132736634Y-114150696D01*
X132890014Y-114188500D01*
X132890015Y-114188500D01*
X133047985Y-114188500D01*
X133201365Y-114150696D01*
X133214729Y-114143682D01*
X133341240Y-114077283D01*
X133459483Y-113972530D01*
X133549220Y-113842523D01*
X133605237Y-113694818D01*
X133624278Y-113538000D01*
X133605237Y-113381182D01*
X133549220Y-113233477D01*
X133459483Y-113103470D01*
X133341240Y-112998717D01*
X133341238Y-112998716D01*
X133341237Y-112998715D01*
X133201365Y-112925303D01*
X133047986Y-112887500D01*
X133047985Y-112887500D01*
X132890015Y-112887500D01*
X132890014Y-112887500D01*
X132736634Y-112925303D01*
X132596762Y-112998715D01*
X132557840Y-113033197D01*
X132493142Y-113090514D01*
X132478516Y-113103471D01*
X132388781Y-113233475D01*
X132388780Y-113233476D01*
X132332762Y-113381181D01*
X132313721Y-113537999D01*
X132313721Y-113538000D01*
X124341175Y-113538000D01*
X124341175Y-108712000D01*
X127614721Y-108712000D01*
X127633762Y-108868818D01*
X127650318Y-108912471D01*
X127689780Y-109016523D01*
X127779517Y-109146530D01*
X127897760Y-109251283D01*
X127897762Y-109251284D01*
X128037634Y-109324696D01*
X128191014Y-109362500D01*
X128191015Y-109362500D01*
X128348985Y-109362500D01*
X128502365Y-109324696D01*
X128502364Y-109324695D01*
X128642240Y-109251283D01*
X128760483Y-109146530D01*
X128850220Y-109016523D01*
X128906237Y-108868818D01*
X128925278Y-108712000D01*
X128906237Y-108555182D01*
X128896284Y-108528939D01*
X128881245Y-108489283D01*
X128850220Y-108407477D01*
X128760483Y-108277470D01*
X128642240Y-108172717D01*
X128642238Y-108172716D01*
X128642237Y-108172715D01*
X128502365Y-108099303D01*
X128348986Y-108061500D01*
X128348985Y-108061500D01*
X128191015Y-108061500D01*
X128191014Y-108061500D01*
X128037634Y-108099303D01*
X127897762Y-108172715D01*
X127779516Y-108277471D01*
X127689781Y-108407475D01*
X127689780Y-108407476D01*
X127633762Y-108555181D01*
X127614721Y-108711999D01*
X127614721Y-108712000D01*
X124341175Y-108712000D01*
X124341175Y-104374222D01*
X124360860Y-104307183D01*
X124413664Y-104261428D01*
X124482822Y-104251484D01*
X124494843Y-104253823D01*
X124611190Y-104282500D01*
X124769160Y-104282500D01*
X124922540Y-104244696D01*
X124923173Y-104244364D01*
X125062415Y-104171283D01*
X125180658Y-104066530D01*
X125270395Y-103936523D01*
X125326412Y-103788818D01*
X125345453Y-103632000D01*
X125338954Y-103578471D01*
X125326412Y-103475181D01*
X125305167Y-103419164D01*
X125270395Y-103327477D01*
X125180658Y-103197470D01*
X125062415Y-103092717D01*
X125062413Y-103092716D01*
X125062412Y-103092715D01*
X124922540Y-103019303D01*
X124769161Y-102981500D01*
X124769160Y-102981500D01*
X124611190Y-102981500D01*
X124611189Y-102981500D01*
X124494849Y-103010174D01*
X124425047Y-103007104D01*
X124367985Y-102966784D01*
X124341780Y-102902015D01*
X124341175Y-102889777D01*
X124341175Y-101800150D01*
X124360860Y-101733111D01*
X124413664Y-101687356D01*
X124448988Y-101677211D01*
X124450262Y-101677044D01*
X124596341Y-101616536D01*
X124721782Y-101520282D01*
X124818036Y-101394841D01*
X124835697Y-101352203D01*
X124879535Y-101297801D01*
X124945829Y-101275735D01*
X125013528Y-101293013D01*
X125037938Y-101311975D01*
X128285347Y-104559384D01*
X128301475Y-104579243D01*
X128307414Y-104588334D01*
X128335430Y-104610139D01*
X128341191Y-104615228D01*
X128343980Y-104618017D01*
X128362981Y-104631583D01*
X128403987Y-104663500D01*
X128406309Y-104665307D01*
X128413202Y-104669037D01*
X128420295Y-104672505D01*
X128420299Y-104672508D01*
X128420302Y-104672509D01*
X128429536Y-104677024D01*
X128428813Y-104678501D01*
X128477576Y-104710097D01*
X128481928Y-104715452D01*
X128515175Y-104758780D01*
X128640616Y-104855034D01*
X128786695Y-104915542D01*
X128865075Y-104925860D01*
X128943456Y-104936180D01*
X128943457Y-104936180D01*
X128943458Y-104936180D01*
X128995710Y-104929300D01*
X129100219Y-104915542D01*
X129246298Y-104855034D01*
X129371739Y-104758780D01*
X129467993Y-104633339D01*
X129528501Y-104487260D01*
X129545293Y-104359710D01*
X129573559Y-104295814D01*
X129631884Y-104257343D01*
X129652040Y-104252958D01*
X129715262Y-104244635D01*
X129715264Y-104244633D01*
X129717314Y-104244364D01*
X129786350Y-104255129D01*
X129838605Y-104301509D01*
X129857500Y-104367303D01*
X129857499Y-107231696D01*
X129854862Y-107257134D01*
X129852633Y-107267767D01*
X129852633Y-107267770D01*
X129857023Y-107302991D01*
X129857500Y-107310667D01*
X129857500Y-107314616D01*
X129861342Y-107337641D01*
X129868134Y-107392127D01*
X129870373Y-107399647D01*
X129872934Y-107407108D01*
X129872935Y-107407110D01*
X129874886Y-107410715D01*
X129899055Y-107455377D01*
X129923174Y-107504711D01*
X129927742Y-107511109D01*
X129932582Y-107517327D01*
X129972971Y-107554509D01*
X130298803Y-107880341D01*
X130332288Y-107941664D01*
X130327304Y-108011356D01*
X130285432Y-108067289D01*
X130240797Y-108088419D01*
X130196633Y-108099304D01*
X130056762Y-108172715D01*
X129938516Y-108277471D01*
X129848781Y-108407475D01*
X129848780Y-108407476D01*
X129792762Y-108555181D01*
X129773721Y-108711999D01*
X129773721Y-108712000D01*
X129792762Y-108868818D01*
X129809318Y-108912471D01*
X129848780Y-109016523D01*
X129938517Y-109146530D01*
X130056760Y-109251283D01*
X130056762Y-109251284D01*
X130196634Y-109324696D01*
X130350014Y-109362500D01*
X130350015Y-109362500D01*
X130507985Y-109362500D01*
X130661365Y-109324696D01*
X130661365Y-109324695D01*
X130801240Y-109251283D01*
X130919483Y-109146530D01*
X131009220Y-109016523D01*
X131058283Y-108887151D01*
X131100461Y-108831450D01*
X131166058Y-108807393D01*
X131234249Y-108822620D01*
X131261906Y-108843443D01*
X133598762Y-111180299D01*
X133632247Y-111241622D01*
X133634021Y-111284162D01*
X133633318Y-111289502D01*
X133653955Y-111446260D01*
X133653956Y-111446262D01*
X133714464Y-111592341D01*
X133810718Y-111717782D01*
X133936159Y-111814036D01*
X134082238Y-111874544D01*
X134126590Y-111880383D01*
X134238999Y-111895182D01*
X134239000Y-111895182D01*
X134239001Y-111895182D01*
X134291254Y-111888302D01*
X134395762Y-111874544D01*
X134541841Y-111814036D01*
X134667282Y-111717782D01*
X134667285Y-111717777D01*
X134673029Y-111712035D01*
X134675336Y-111714342D01*
X134719446Y-111682131D01*
X134789192Y-111677973D01*
X134850114Y-111712183D01*
X134882869Y-111773899D01*
X134885399Y-111798818D01*
X134885399Y-111951845D01*
X134882761Y-111977283D01*
X134880532Y-111987917D01*
X134880532Y-111987918D01*
X134880532Y-111987920D01*
X134884922Y-112023140D01*
X134885399Y-112030816D01*
X134885399Y-112034765D01*
X134889241Y-112057790D01*
X134896033Y-112112276D01*
X134898272Y-112119796D01*
X134900833Y-112127257D01*
X134900834Y-112127259D01*
X134926620Y-112174909D01*
X134926954Y-112175526D01*
X134951073Y-112224860D01*
X134955641Y-112231258D01*
X134960481Y-112237476D01*
X135000870Y-112274658D01*
X135046851Y-112320638D01*
X135122763Y-112396550D01*
X135156247Y-112457871D01*
X135158021Y-112500412D01*
X135157318Y-112505752D01*
X135177955Y-112662510D01*
X135177956Y-112662512D01*
X135238464Y-112808591D01*
X135334718Y-112934032D01*
X135460159Y-113030286D01*
X135606238Y-113090794D01*
X135684619Y-113101112D01*
X135762999Y-113111432D01*
X135763000Y-113111432D01*
X135763001Y-113111432D01*
X135823478Y-113103470D01*
X135919762Y-113090794D01*
X136065841Y-113030286D01*
X136191282Y-112934032D01*
X136287536Y-112808591D01*
X136348044Y-112662512D01*
X136368682Y-112505750D01*
X136353400Y-112389672D01*
X136364165Y-112320638D01*
X136410545Y-112268382D01*
X136477814Y-112249497D01*
X136544615Y-112269978D01*
X136564020Y-112285807D01*
X136646762Y-112368549D01*
X136680247Y-112429872D01*
X136682021Y-112472412D01*
X136681318Y-112477752D01*
X136701955Y-112634510D01*
X136701956Y-112634512D01*
X136733415Y-112710462D01*
X136762464Y-112780591D01*
X136858718Y-112906032D01*
X136984159Y-113002286D01*
X137130238Y-113062794D01*
X137155426Y-113066110D01*
X137286999Y-113083432D01*
X137287000Y-113083432D01*
X137287001Y-113083432D01*
X137339254Y-113076552D01*
X137443762Y-113062794D01*
X137589841Y-113002286D01*
X137715282Y-112906032D01*
X137775854Y-112827092D01*
X137832279Y-112785891D01*
X137902025Y-112781736D01*
X137962946Y-112815948D01*
X137985627Y-112848116D01*
X137993173Y-112863551D01*
X137997742Y-112869950D01*
X138002582Y-112876168D01*
X138042971Y-112913350D01*
X139078076Y-113948454D01*
X139111561Y-114009777D01*
X139113335Y-114052317D01*
X139112632Y-114057657D01*
X139133269Y-114214415D01*
X139133270Y-114214417D01*
X139193778Y-114360496D01*
X139290032Y-114485937D01*
X139415473Y-114582191D01*
X139561552Y-114642699D01*
X139625980Y-114651181D01*
X139718313Y-114663337D01*
X139718314Y-114663337D01*
X139718315Y-114663337D01*
X139770567Y-114656457D01*
X139875076Y-114642699D01*
X140021155Y-114582191D01*
X140146596Y-114485937D01*
X140191820Y-114427000D01*
X144886722Y-114427000D01*
X144905762Y-114583818D01*
X144949295Y-114698604D01*
X144961780Y-114731523D01*
X145051517Y-114861530D01*
X145169760Y-114966283D01*
X145169762Y-114966284D01*
X145309634Y-115039696D01*
X145463014Y-115077500D01*
X145463015Y-115077500D01*
X145620985Y-115077500D01*
X145774365Y-115039696D01*
X145914240Y-114966283D01*
X146032483Y-114861530D01*
X146122220Y-114731523D01*
X146178237Y-114583818D01*
X146197278Y-114427000D01*
X146193665Y-114397239D01*
X146181858Y-114300000D01*
X150220722Y-114300000D01*
X150239762Y-114456818D01*
X150287928Y-114583818D01*
X150295780Y-114604523D01*
X150385517Y-114734530D01*
X150503760Y-114839283D01*
X150503762Y-114839284D01*
X150643634Y-114912696D01*
X150797014Y-114950500D01*
X150797015Y-114950500D01*
X150954985Y-114950500D01*
X151108365Y-114912696D01*
X151108364Y-114912695D01*
X151248240Y-114839283D01*
X151366483Y-114734530D01*
X151456220Y-114604523D01*
X151512237Y-114456818D01*
X151531278Y-114300000D01*
X151527658Y-114270182D01*
X151512237Y-114143181D01*
X151479801Y-114057655D01*
X151456220Y-113995477D01*
X151366483Y-113865470D01*
X151248240Y-113760717D01*
X151248238Y-113760716D01*
X151248237Y-113760715D01*
X151108365Y-113687303D01*
X150954986Y-113649500D01*
X150954985Y-113649500D01*
X150797015Y-113649500D01*
X150797014Y-113649500D01*
X150643634Y-113687303D01*
X150503762Y-113760715D01*
X150385516Y-113865471D01*
X150295781Y-113995475D01*
X150295780Y-113995476D01*
X150239762Y-114143181D01*
X150220722Y-114299999D01*
X150220722Y-114300000D01*
X146181858Y-114300000D01*
X146178237Y-114270181D01*
X146151531Y-114199765D01*
X146122220Y-114122477D01*
X146032483Y-113992470D01*
X145914240Y-113887717D01*
X145914238Y-113887716D01*
X145914237Y-113887715D01*
X145774365Y-113814303D01*
X145620986Y-113776500D01*
X145620985Y-113776500D01*
X145463015Y-113776500D01*
X145463014Y-113776500D01*
X145309634Y-113814303D01*
X145169762Y-113887715D01*
X145140658Y-113913499D01*
X145081078Y-113966282D01*
X145051516Y-113992471D01*
X144961781Y-114122475D01*
X144961780Y-114122476D01*
X144905762Y-114270181D01*
X144886722Y-114426999D01*
X144886722Y-114427000D01*
X140191820Y-114427000D01*
X140242850Y-114360496D01*
X140303358Y-114214417D01*
X140321412Y-114077283D01*
X140323996Y-114057656D01*
X140323996Y-114057655D01*
X140323293Y-114052317D01*
X140314976Y-113989143D01*
X140325741Y-113920110D01*
X140372121Y-113867854D01*
X140390460Y-113858399D01*
X140510841Y-113808536D01*
X140636282Y-113712282D01*
X140732536Y-113586841D01*
X140793044Y-113440762D01*
X140813682Y-113284000D01*
X140807030Y-113233476D01*
X140793044Y-113127239D01*
X140793044Y-113127238D01*
X140732536Y-112981159D01*
X140636282Y-112855718D01*
X140510841Y-112759464D01*
X140490327Y-112750967D01*
X140430387Y-112726139D01*
X140364762Y-112698956D01*
X140349812Y-112696987D01*
X140285917Y-112668720D01*
X140247446Y-112610395D01*
X140242000Y-112574049D01*
X140242000Y-102178255D01*
X140261685Y-102111216D01*
X140314489Y-102065461D01*
X140383647Y-102055517D01*
X140413450Y-102063693D01*
X140472238Y-102088044D01*
X140550618Y-102098363D01*
X140628999Y-102108682D01*
X140629000Y-102108682D01*
X140629001Y-102108682D01*
X140681253Y-102101802D01*
X140785762Y-102088044D01*
X140931841Y-102027536D01*
X141057282Y-101931282D01*
X141122283Y-101846570D01*
X141178708Y-101805369D01*
X141248454Y-101801214D01*
X141308335Y-101834373D01*
X141320178Y-101846215D01*
X141353665Y-101907537D01*
X141356500Y-101933900D01*
X141356500Y-110214067D01*
X141336815Y-110281106D01*
X141307988Y-110312441D01*
X141303721Y-110315715D01*
X141303719Y-110315716D01*
X141303718Y-110315718D01*
X141240418Y-110398212D01*
X141207463Y-110441160D01*
X141146956Y-110587237D01*
X141146955Y-110587239D01*
X141126318Y-110743998D01*
X141126318Y-110744001D01*
X141146955Y-110900760D01*
X141146956Y-110900762D01*
X141207464Y-111046841D01*
X141303718Y-111172282D01*
X141429159Y-111268536D01*
X141575238Y-111329044D01*
X141653619Y-111339362D01*
X141731999Y-111349682D01*
X141732000Y-111349682D01*
X141732001Y-111349682D01*
X141784254Y-111342802D01*
X141888762Y-111329044D01*
X142034841Y-111268536D01*
X142160282Y-111172282D01*
X142256536Y-111046841D01*
X142317044Y-110900762D01*
X142337682Y-110744000D01*
X142329851Y-110684521D01*
X142317044Y-110587239D01*
X142317044Y-110587238D01*
X142256536Y-110441159D01*
X142160282Y-110315718D01*
X142159774Y-110315328D01*
X142156012Y-110312441D01*
X142114810Y-110256013D01*
X142107500Y-110214067D01*
X142107500Y-101778804D01*
X142110139Y-101753359D01*
X142110785Y-101750275D01*
X142112367Y-101742732D01*
X142110498Y-101727740D01*
X142107977Y-101707506D01*
X142107500Y-101699830D01*
X142107500Y-101695889D01*
X142107498Y-101695876D01*
X142103657Y-101672859D01*
X142096866Y-101618376D01*
X142096866Y-101618374D01*
X142096864Y-101618370D01*
X142094622Y-101610840D01*
X142092065Y-101603392D01*
X142092065Y-101603390D01*
X142065944Y-101555122D01*
X142041826Y-101505789D01*
X142041824Y-101505787D01*
X142041824Y-101505786D01*
X142037276Y-101499416D01*
X142032420Y-101493176D01*
X142032419Y-101493174D01*
X142022919Y-101484429D01*
X141992030Y-101455993D01*
X141675819Y-101139781D01*
X141642334Y-101078458D01*
X141639500Y-101052100D01*
X141639500Y-93672504D01*
X141659185Y-93605465D01*
X141665124Y-93597018D01*
X141678290Y-93579858D01*
X141717501Y-93528759D01*
X141778009Y-93382680D01*
X141794188Y-93259790D01*
X141798647Y-93225919D01*
X141798647Y-93225916D01*
X141778009Y-93069157D01*
X141778009Y-93069156D01*
X141717501Y-92923077D01*
X141621247Y-92797636D01*
X141495806Y-92701382D01*
X141349727Y-92640874D01*
X141349725Y-92640873D01*
X141192966Y-92620236D01*
X141192964Y-92620236D01*
X141036204Y-92640873D01*
X141036202Y-92640874D01*
X140890125Y-92701381D01*
X140764683Y-92797636D01*
X140668428Y-92923078D01*
X140607921Y-93069155D01*
X140607921Y-93069157D01*
X140591512Y-93193788D01*
X140563245Y-93257685D01*
X140504920Y-93296155D01*
X140484760Y-93300541D01*
X140432238Y-93307456D01*
X140432237Y-93307456D01*
X140286160Y-93367963D01*
X140160718Y-93464218D01*
X140064463Y-93589660D01*
X140003956Y-93735737D01*
X140003955Y-93735739D01*
X139983318Y-93892498D01*
X139983318Y-93892501D01*
X140003955Y-94049260D01*
X140003956Y-94049262D01*
X140032202Y-94117455D01*
X140064464Y-94195341D01*
X140160718Y-94320782D01*
X140160720Y-94320783D01*
X140160722Y-94320786D01*
X140204984Y-94354748D01*
X140246188Y-94411174D01*
X140253500Y-94453125D01*
X140253500Y-95304353D01*
X140233815Y-95371392D01*
X140181011Y-95417147D01*
X140113315Y-95427292D01*
X139945942Y-95405257D01*
X139946256Y-95402870D01*
X139890958Y-95386633D01*
X139845203Y-95333829D01*
X139835058Y-95266132D01*
X139837182Y-95249999D01*
X139837182Y-95249998D01*
X139816544Y-95093239D01*
X139816544Y-95093238D01*
X139756036Y-94947159D01*
X139659782Y-94821718D01*
X139534341Y-94725464D01*
X139388262Y-94664956D01*
X139388260Y-94664955D01*
X139231501Y-94644318D01*
X139231499Y-94644318D01*
X139072685Y-94665226D01*
X139003650Y-94654460D01*
X138951394Y-94608080D01*
X138932500Y-94542287D01*
X138932500Y-93710201D01*
X138952185Y-93643162D01*
X138968819Y-93622520D01*
X139668262Y-92923077D01*
X140391501Y-92199837D01*
X140452822Y-92166354D01*
X140495369Y-92164582D01*
X140500700Y-92165284D01*
X140657462Y-92144646D01*
X140803541Y-92084138D01*
X140928982Y-91987884D01*
X141025236Y-91862443D01*
X141085744Y-91716364D01*
X141106382Y-91559602D01*
X141085744Y-91402840D01*
X141025236Y-91256761D01*
X140928982Y-91131320D01*
X140803541Y-91035066D01*
X140657462Y-90974558D01*
X140657460Y-90974557D01*
X140500701Y-90953920D01*
X140500699Y-90953920D01*
X140343939Y-90974557D01*
X140343937Y-90974558D01*
X140197860Y-91035065D01*
X140072416Y-91131321D01*
X139993485Y-91234188D01*
X139937057Y-91275391D01*
X139867311Y-91279546D01*
X139812882Y-91251518D01*
X139793320Y-91234188D01*
X139709092Y-91159569D01*
X139709090Y-91159568D01*
X139709089Y-91159567D01*
X139569217Y-91086155D01*
X139415838Y-91048352D01*
X139415837Y-91048352D01*
X139257867Y-91048352D01*
X139257866Y-91048352D01*
X139104486Y-91086155D01*
X138964614Y-91159567D01*
X138846368Y-91264323D01*
X138756633Y-91394327D01*
X138756632Y-91394328D01*
X138700614Y-91542033D01*
X138681574Y-91698851D01*
X138681574Y-91698852D01*
X138700614Y-91855670D01*
X138750757Y-91987883D01*
X138756632Y-92003375D01*
X138846369Y-92133382D01*
X138923824Y-92202000D01*
X138964614Y-92238137D01*
X139029525Y-92272205D01*
X139079738Y-92320790D01*
X139095712Y-92388809D01*
X139072377Y-92454666D01*
X139059580Y-92469682D01*
X138328108Y-93201154D01*
X138308254Y-93217278D01*
X138299165Y-93223216D01*
X138299164Y-93223217D01*
X138277363Y-93251225D01*
X138272286Y-93256976D01*
X138269484Y-93259779D01*
X138269474Y-93259790D01*
X138255905Y-93278797D01*
X138222192Y-93322110D01*
X138218447Y-93329031D01*
X138214988Y-93336106D01*
X138199329Y-93388705D01*
X138181500Y-93440640D01*
X138180206Y-93448394D01*
X138179231Y-93456213D01*
X138181500Y-93511057D01*
X138181500Y-94063281D01*
X138161815Y-94130320D01*
X138109011Y-94176075D01*
X138039853Y-94186019D01*
X138010048Y-94177842D01*
X137864265Y-94117457D01*
X137864260Y-94117455D01*
X137707501Y-94096818D01*
X137707499Y-94096818D01*
X137550739Y-94117455D01*
X137550737Y-94117456D01*
X137404660Y-94177963D01*
X137279218Y-94274218D01*
X137182963Y-94399660D01*
X137139061Y-94505650D01*
X137095220Y-94560053D01*
X137028926Y-94582118D01*
X136961226Y-94564839D01*
X136913616Y-94513701D01*
X136900500Y-94458197D01*
X136900500Y-92249503D01*
X136920185Y-92182464D01*
X136972989Y-92136709D01*
X136977012Y-92134957D01*
X137081841Y-92091536D01*
X137207282Y-91995282D01*
X137303536Y-91869841D01*
X137364044Y-91723762D01*
X137384682Y-91567000D01*
X137364044Y-91410238D01*
X137303536Y-91264159D01*
X137207282Y-91138718D01*
X137081841Y-91042464D01*
X137063978Y-91035065D01*
X136935762Y-90981956D01*
X136935760Y-90981955D01*
X136779001Y-90961318D01*
X136778999Y-90961318D01*
X136622239Y-90981955D01*
X136622237Y-90981956D01*
X136476160Y-91042463D01*
X136350713Y-91138722D01*
X136350181Y-91139255D01*
X136349621Y-91139560D01*
X136344271Y-91143666D01*
X136343630Y-91142831D01*
X136288858Y-91172740D01*
X136219166Y-91167756D01*
X136163233Y-91125884D01*
X136138816Y-91060420D01*
X136138500Y-91051574D01*
X136138500Y-87201898D01*
X136158185Y-87134859D01*
X136174819Y-87114217D01*
X137056036Y-86233000D01*
X141584722Y-86233000D01*
X141603762Y-86389818D01*
X141632185Y-86464762D01*
X141659780Y-86537523D01*
X141749517Y-86667530D01*
X141867760Y-86772283D01*
X141867762Y-86772284D01*
X142007634Y-86845696D01*
X142161014Y-86883500D01*
X142161015Y-86883500D01*
X142318985Y-86883500D01*
X142472365Y-86845696D01*
X142487158Y-86837932D01*
X142612240Y-86772283D01*
X142730483Y-86667530D01*
X142820220Y-86537523D01*
X142876237Y-86389818D01*
X142895278Y-86233000D01*
X142889612Y-86186331D01*
X142876237Y-86076181D01*
X142849302Y-86005160D01*
X142820220Y-85928477D01*
X142730483Y-85798470D01*
X142612240Y-85693717D01*
X142612238Y-85693716D01*
X142612237Y-85693715D01*
X142472365Y-85620303D01*
X142318986Y-85582500D01*
X142318985Y-85582500D01*
X142161015Y-85582500D01*
X142161014Y-85582500D01*
X142007634Y-85620303D01*
X141867762Y-85693715D01*
X141788931Y-85763552D01*
X141766456Y-85783464D01*
X141749516Y-85798471D01*
X141659781Y-85928475D01*
X141659780Y-85928476D01*
X141603762Y-86076181D01*
X141584722Y-86232999D01*
X141584722Y-86233000D01*
X137056036Y-86233000D01*
X138168218Y-85120819D01*
X138229541Y-85087334D01*
X138255899Y-85084500D01*
X142472067Y-85084500D01*
X142539106Y-85104185D01*
X142570441Y-85133012D01*
X142573328Y-85136774D01*
X142573718Y-85137282D01*
X142699159Y-85233536D01*
X142845238Y-85294044D01*
X142923618Y-85304363D01*
X143001999Y-85314682D01*
X143002000Y-85314682D01*
X143002001Y-85314682D01*
X143054253Y-85307802D01*
X143158762Y-85294044D01*
X143304841Y-85233536D01*
X143430282Y-85137282D01*
X143526536Y-85011841D01*
X143587044Y-84865762D01*
X143607682Y-84709000D01*
X143602001Y-84665851D01*
X143590962Y-84582001D01*
X162970318Y-84582001D01*
X162990955Y-84738760D01*
X162990956Y-84738762D01*
X163051464Y-84884841D01*
X163147718Y-85010282D01*
X163273159Y-85106536D01*
X163419238Y-85167044D01*
X163576000Y-85187682D01*
X163581327Y-85186980D01*
X163650360Y-85197741D01*
X163685200Y-85222237D01*
X163781849Y-85318886D01*
X163797978Y-85338747D01*
X163800426Y-85342495D01*
X163803916Y-85347836D01*
X163831932Y-85369641D01*
X163837693Y-85374730D01*
X163840482Y-85377519D01*
X163859483Y-85391085D01*
X163893833Y-85417821D01*
X163902811Y-85424809D01*
X163909722Y-85428549D01*
X163916800Y-85432010D01*
X163969405Y-85447670D01*
X163969405Y-85447671D01*
X164021340Y-85465500D01*
X164021342Y-85465500D01*
X164029079Y-85466791D01*
X164036909Y-85467767D01*
X164036911Y-85467768D01*
X164036912Y-85467767D01*
X164036913Y-85467768D01*
X164091755Y-85465500D01*
X169503897Y-85465500D01*
X169529342Y-85468139D01*
X169533141Y-85468935D01*
X169539969Y-85470367D01*
X169560926Y-85467754D01*
X169575193Y-85465977D01*
X169582869Y-85465500D01*
X169586813Y-85465500D01*
X169586815Y-85465500D01*
X169586817Y-85465499D01*
X169586823Y-85465499D01*
X169602188Y-85462934D01*
X169609841Y-85461657D01*
X169664327Y-85454866D01*
X169664328Y-85454865D01*
X169664330Y-85454865D01*
X169671842Y-85452628D01*
X169679307Y-85450066D01*
X169679307Y-85450065D01*
X169679311Y-85450065D01*
X169727578Y-85423944D01*
X169776912Y-85399826D01*
X169776914Y-85399823D01*
X169783295Y-85395268D01*
X169789520Y-85390422D01*
X169789527Y-85390419D01*
X169826709Y-85350028D01*
X170567889Y-84608847D01*
X170587746Y-84592723D01*
X170596836Y-84586785D01*
X170618638Y-84558772D01*
X170623733Y-84553004D01*
X170626519Y-84550219D01*
X170626528Y-84550207D01*
X170640086Y-84531217D01*
X170673807Y-84487893D01*
X170677547Y-84480981D01*
X170681003Y-84473908D01*
X170681010Y-84473900D01*
X170696670Y-84421297D01*
X170714500Y-84369361D01*
X170714500Y-84369356D01*
X170715790Y-84361625D01*
X170716768Y-84353786D01*
X170714500Y-84298945D01*
X170714500Y-74886804D01*
X170717139Y-74861359D01*
X170717785Y-74858275D01*
X170719367Y-74850732D01*
X170717498Y-74835740D01*
X170714977Y-74815506D01*
X170714500Y-74807830D01*
X170714500Y-74803889D01*
X170714498Y-74803876D01*
X170710657Y-74780859D01*
X170704477Y-74731276D01*
X170703866Y-74726374D01*
X170703864Y-74726370D01*
X170701622Y-74718840D01*
X170699065Y-74711392D01*
X170699065Y-74711390D01*
X170672944Y-74663122D01*
X170648826Y-74613789D01*
X170648824Y-74613787D01*
X170648824Y-74613786D01*
X170644276Y-74607416D01*
X170639420Y-74601176D01*
X170639419Y-74601174D01*
X170599029Y-74563992D01*
X170223709Y-74188672D01*
X170190224Y-74127349D01*
X170194666Y-74065234D01*
X170193013Y-74064764D01*
X170194583Y-74059247D01*
X170235910Y-73914000D01*
X172634341Y-73914000D01*
X172654936Y-74149403D01*
X172654938Y-74149413D01*
X172716094Y-74377655D01*
X172716096Y-74377659D01*
X172716097Y-74377663D01*
X172766030Y-74484746D01*
X172815964Y-74591828D01*
X172815965Y-74591830D01*
X172951505Y-74785402D01*
X173118597Y-74952494D01*
X173312169Y-75088034D01*
X173312171Y-75088035D01*
X173526337Y-75187903D01*
X173754592Y-75249063D01*
X173931034Y-75264500D01*
X174048966Y-75264500D01*
X174225408Y-75249063D01*
X174453663Y-75187903D01*
X174667829Y-75088035D01*
X174861401Y-74952495D01*
X175028495Y-74785401D01*
X175164035Y-74591830D01*
X175263903Y-74377663D01*
X175325063Y-74149408D01*
X175345659Y-73914000D01*
X175325063Y-73678592D01*
X175263903Y-73450337D01*
X175164035Y-73236171D01*
X175164034Y-73236169D01*
X175028494Y-73042597D01*
X174861402Y-72875505D01*
X174667830Y-72739965D01*
X174667828Y-72739964D01*
X174519194Y-72670655D01*
X174453663Y-72640097D01*
X174453659Y-72640096D01*
X174453655Y-72640094D01*
X174225413Y-72578938D01*
X174225403Y-72578936D01*
X174048966Y-72563500D01*
X173931034Y-72563500D01*
X173754596Y-72578936D01*
X173754586Y-72578938D01*
X173526344Y-72640094D01*
X173526335Y-72640098D01*
X173312171Y-72739964D01*
X173312169Y-72739965D01*
X173118597Y-72875505D01*
X172951506Y-73042597D01*
X172951501Y-73042604D01*
X172815967Y-73236165D01*
X172815965Y-73236169D01*
X172716098Y-73450335D01*
X172716094Y-73450344D01*
X172654938Y-73678586D01*
X172654936Y-73678596D01*
X172634341Y-73913999D01*
X172634341Y-73914000D01*
X170235910Y-73914000D01*
X170250397Y-73863083D01*
X170269215Y-73660000D01*
X170250397Y-73456917D01*
X170194582Y-73260750D01*
X170182343Y-73236171D01*
X170135286Y-73141667D01*
X170103673Y-73078179D01*
X169980764Y-72915421D01*
X169980762Y-72915418D01*
X169830041Y-72778019D01*
X169830039Y-72778017D01*
X169656642Y-72670655D01*
X169656635Y-72670651D01*
X169550150Y-72629399D01*
X169466456Y-72596976D01*
X169265976Y-72559500D01*
X169062024Y-72559500D01*
X168861544Y-72596976D01*
X168861541Y-72596976D01*
X168861541Y-72596977D01*
X168671364Y-72670651D01*
X168671357Y-72670655D01*
X168497960Y-72778017D01*
X168497958Y-72778019D01*
X168347237Y-72915418D01*
X168224327Y-73078178D01*
X168133422Y-73260739D01*
X168133417Y-73260752D01*
X168077602Y-73456917D01*
X168058785Y-73659999D01*
X168058785Y-73660000D01*
X168077602Y-73863082D01*
X168133417Y-74059247D01*
X168133422Y-74059260D01*
X168224327Y-74241821D01*
X168347237Y-74404581D01*
X168497958Y-74541980D01*
X168497960Y-74541982D01*
X168593554Y-74601171D01*
X168671363Y-74649348D01*
X168861544Y-74723024D01*
X169062024Y-74760500D01*
X169062026Y-74760500D01*
X169265974Y-74760500D01*
X169265976Y-74760500D01*
X169466456Y-74723024D01*
X169556556Y-74688118D01*
X169626174Y-74682256D01*
X169687914Y-74714965D01*
X169689027Y-74716064D01*
X169927181Y-74954218D01*
X169960666Y-75015541D01*
X169963500Y-75041899D01*
X169963500Y-75178030D01*
X169943815Y-75245069D01*
X169891011Y-75290824D01*
X169821853Y-75300768D01*
X169774223Y-75283457D01*
X169656642Y-75210655D01*
X169656635Y-75210651D01*
X169510870Y-75154182D01*
X169466456Y-75136976D01*
X169265976Y-75099500D01*
X169062024Y-75099500D01*
X168861544Y-75136976D01*
X168861541Y-75136976D01*
X168861541Y-75136977D01*
X168671364Y-75210651D01*
X168671357Y-75210655D01*
X168497960Y-75318017D01*
X168497958Y-75318019D01*
X168347237Y-75455418D01*
X168224327Y-75618178D01*
X168133422Y-75800739D01*
X168133417Y-75800752D01*
X168077602Y-75996917D01*
X168058785Y-76199999D01*
X168058785Y-76200000D01*
X168077602Y-76403082D01*
X168133417Y-76599247D01*
X168133422Y-76599260D01*
X168224327Y-76781821D01*
X168347237Y-76944581D01*
X168497958Y-77081980D01*
X168497960Y-77081982D01*
X168541291Y-77108811D01*
X168671363Y-77189348D01*
X168861544Y-77263024D01*
X169062024Y-77300500D01*
X169062026Y-77300500D01*
X169265974Y-77300500D01*
X169265976Y-77300500D01*
X169466456Y-77263024D01*
X169656637Y-77189348D01*
X169774223Y-77116541D01*
X169841583Y-77097986D01*
X169908282Y-77118794D01*
X169953144Y-77172360D01*
X169963500Y-77221969D01*
X169963500Y-77718030D01*
X169943815Y-77785069D01*
X169891011Y-77830824D01*
X169821853Y-77840768D01*
X169774223Y-77823457D01*
X169656642Y-77750655D01*
X169656635Y-77750651D01*
X169499254Y-77689682D01*
X169466456Y-77676976D01*
X169265976Y-77639500D01*
X169062024Y-77639500D01*
X168861544Y-77676976D01*
X168861541Y-77676976D01*
X168861541Y-77676977D01*
X168671364Y-77750651D01*
X168671357Y-77750655D01*
X168497960Y-77858017D01*
X168497958Y-77858019D01*
X168347237Y-77995418D01*
X168224327Y-78158178D01*
X168133422Y-78340739D01*
X168133417Y-78340752D01*
X168077602Y-78536917D01*
X168058785Y-78739999D01*
X168058785Y-78740000D01*
X168077602Y-78943082D01*
X168133417Y-79139247D01*
X168133422Y-79139260D01*
X168224327Y-79321821D01*
X168347237Y-79484581D01*
X168497958Y-79621980D01*
X168497960Y-79621982D01*
X168552055Y-79655476D01*
X168671363Y-79729348D01*
X168861544Y-79803024D01*
X169062024Y-79840500D01*
X169062026Y-79840500D01*
X169265974Y-79840500D01*
X169265976Y-79840500D01*
X169466456Y-79803024D01*
X169656637Y-79729348D01*
X169774223Y-79656541D01*
X169841583Y-79637986D01*
X169908282Y-79658794D01*
X169953144Y-79712360D01*
X169963500Y-79761969D01*
X169963500Y-80258030D01*
X169943815Y-80325069D01*
X169891011Y-80370824D01*
X169821853Y-80380768D01*
X169774223Y-80363457D01*
X169656642Y-80290655D01*
X169656635Y-80290651D01*
X169541314Y-80245976D01*
X169466456Y-80216976D01*
X169265976Y-80179500D01*
X169062024Y-80179500D01*
X168861544Y-80216976D01*
X168861541Y-80216976D01*
X168861541Y-80216977D01*
X168671364Y-80290651D01*
X168671357Y-80290655D01*
X168497960Y-80398017D01*
X168497958Y-80398019D01*
X168347237Y-80535418D01*
X168224327Y-80698178D01*
X168133422Y-80880739D01*
X168133417Y-80880752D01*
X168077602Y-81076917D01*
X168058785Y-81279999D01*
X168058785Y-81280000D01*
X168077602Y-81483082D01*
X168133417Y-81679247D01*
X168133422Y-81679260D01*
X168224327Y-81861821D01*
X168347237Y-82024581D01*
X168497958Y-82161980D01*
X168497960Y-82161982D01*
X168523808Y-82177986D01*
X168671363Y-82269348D01*
X168861544Y-82343024D01*
X169062024Y-82380500D01*
X169062026Y-82380500D01*
X169265974Y-82380500D01*
X169265976Y-82380500D01*
X169466456Y-82343024D01*
X169656637Y-82269348D01*
X169774223Y-82196541D01*
X169841583Y-82177986D01*
X169908282Y-82198794D01*
X169953144Y-82252360D01*
X169963500Y-82301969D01*
X169963500Y-82798030D01*
X169943815Y-82865069D01*
X169891011Y-82910824D01*
X169821853Y-82920768D01*
X169774223Y-82903457D01*
X169656642Y-82830655D01*
X169656635Y-82830651D01*
X169560723Y-82793495D01*
X169466456Y-82756976D01*
X169265976Y-82719500D01*
X169062024Y-82719500D01*
X168861544Y-82756976D01*
X168861541Y-82756976D01*
X168861541Y-82756977D01*
X168671364Y-82830651D01*
X168671357Y-82830655D01*
X168497960Y-82938017D01*
X168497958Y-82938019D01*
X168347237Y-83075418D01*
X168224327Y-83238178D01*
X168133422Y-83420739D01*
X168133417Y-83420752D01*
X168077602Y-83616917D01*
X168058785Y-83819999D01*
X168058785Y-83820000D01*
X168077602Y-84023082D01*
X168133417Y-84219247D01*
X168133422Y-84219260D01*
X168220009Y-84393149D01*
X168224327Y-84401821D01*
X168310380Y-84515774D01*
X168335072Y-84581134D01*
X168320507Y-84649469D01*
X168271310Y-84699081D01*
X168211426Y-84714500D01*
X164305633Y-84714500D01*
X164238594Y-84694815D01*
X164192839Y-84642011D01*
X164185065Y-84590128D01*
X164181682Y-84590128D01*
X164181682Y-84581998D01*
X164162560Y-84436752D01*
X164161044Y-84425238D01*
X164100536Y-84279159D01*
X164004282Y-84153718D01*
X163878841Y-84057464D01*
X163732762Y-83996956D01*
X163732760Y-83996955D01*
X163576001Y-83976318D01*
X163575999Y-83976318D01*
X163419239Y-83996955D01*
X163419237Y-83996956D01*
X163273160Y-84057463D01*
X163147718Y-84153718D01*
X163051463Y-84279160D01*
X162990956Y-84425237D01*
X162990955Y-84425239D01*
X162970318Y-84581998D01*
X162970318Y-84582001D01*
X143590962Y-84582001D01*
X143587044Y-84552239D01*
X143587044Y-84552238D01*
X143526536Y-84406159D01*
X143430282Y-84280718D01*
X143430278Y-84280715D01*
X143427034Y-84276487D01*
X143401840Y-84211318D01*
X143415878Y-84142873D01*
X143427034Y-84125513D01*
X143430278Y-84121284D01*
X143430282Y-84121282D01*
X143526536Y-83995841D01*
X143587044Y-83849762D01*
X143607682Y-83693000D01*
X143587044Y-83536238D01*
X143526536Y-83390159D01*
X143526535Y-83390158D01*
X143526535Y-83390157D01*
X143471730Y-83318734D01*
X143446536Y-83253565D01*
X143460574Y-83185120D01*
X143471731Y-83167761D01*
X143526535Y-83096339D01*
X143526534Y-83096339D01*
X143526536Y-83096338D01*
X143587044Y-82950259D01*
X143602790Y-82830655D01*
X143607682Y-82793498D01*
X143607682Y-82793495D01*
X143587044Y-82636736D01*
X143587044Y-82636735D01*
X143526536Y-82490656D01*
X143526535Y-82490655D01*
X143526535Y-82490654D01*
X143471730Y-82419231D01*
X143446536Y-82354062D01*
X143460574Y-82285617D01*
X143471731Y-82268258D01*
X143495455Y-82237341D01*
X143526536Y-82196835D01*
X143587044Y-82050756D01*
X143604916Y-81915001D01*
X160684318Y-81915001D01*
X160704955Y-82071760D01*
X160704956Y-82071762D01*
X160742325Y-82161980D01*
X160765464Y-82217841D01*
X160861718Y-82343282D01*
X160987159Y-82439536D01*
X161133238Y-82500044D01*
X161211618Y-82510363D01*
X161289999Y-82520682D01*
X161290000Y-82520682D01*
X161290001Y-82520682D01*
X161342253Y-82513802D01*
X161446762Y-82500044D01*
X161592841Y-82439536D01*
X161718282Y-82343282D01*
X161720490Y-82340404D01*
X161721559Y-82339012D01*
X161777987Y-82297810D01*
X161819933Y-82290500D01*
X163583349Y-82290500D01*
X163646747Y-82309115D01*
X163647119Y-82308472D01*
X163649773Y-82310004D01*
X163650388Y-82310185D01*
X163651773Y-82311159D01*
X163654157Y-82312534D01*
X163654159Y-82312536D01*
X163800238Y-82373044D01*
X163878618Y-82383363D01*
X163956999Y-82393682D01*
X163957000Y-82393682D01*
X163957001Y-82393682D01*
X164009253Y-82386802D01*
X164113762Y-82373044D01*
X164259841Y-82312536D01*
X164385282Y-82216282D01*
X164481536Y-82090841D01*
X164542044Y-81944762D01*
X164562682Y-81788000D01*
X164555998Y-81737233D01*
X164542044Y-81631239D01*
X164542044Y-81631238D01*
X164481536Y-81485159D01*
X164385282Y-81359718D01*
X164281391Y-81280000D01*
X165518785Y-81280000D01*
X165537602Y-81483082D01*
X165593417Y-81679247D01*
X165593422Y-81679260D01*
X165684327Y-81861821D01*
X165807237Y-82024581D01*
X165957958Y-82161980D01*
X165957960Y-82161982D01*
X165983808Y-82177986D01*
X166131363Y-82269348D01*
X166321544Y-82343024D01*
X166522024Y-82380500D01*
X166522026Y-82380500D01*
X166725974Y-82380500D01*
X166725976Y-82380500D01*
X166926456Y-82343024D01*
X167116637Y-82269348D01*
X167290041Y-82161981D01*
X167440764Y-82024579D01*
X167563673Y-81861821D01*
X167654582Y-81679250D01*
X167710397Y-81483083D01*
X167729215Y-81280000D01*
X167710397Y-81076917D01*
X167654582Y-80880750D01*
X167563673Y-80698179D01*
X167451577Y-80549740D01*
X167440762Y-80535418D01*
X167290041Y-80398019D01*
X167290039Y-80398017D01*
X167116642Y-80290655D01*
X167116635Y-80290651D01*
X167001314Y-80245976D01*
X166926456Y-80216976D01*
X166725976Y-80179500D01*
X166522024Y-80179500D01*
X166321544Y-80216976D01*
X166321541Y-80216976D01*
X166321541Y-80216977D01*
X166131364Y-80290651D01*
X166131357Y-80290655D01*
X165957960Y-80398017D01*
X165957958Y-80398019D01*
X165807237Y-80535418D01*
X165684327Y-80698178D01*
X165593422Y-80880739D01*
X165593417Y-80880752D01*
X165537602Y-81076917D01*
X165518785Y-81279999D01*
X165518785Y-81280000D01*
X164281391Y-81280000D01*
X164259841Y-81263464D01*
X164183880Y-81232000D01*
X164113762Y-81202956D01*
X164113760Y-81202955D01*
X163957001Y-81182318D01*
X163956999Y-81182318D01*
X163800239Y-81202955D01*
X163800237Y-81202956D01*
X163654160Y-81263463D01*
X163528716Y-81359719D01*
X163427993Y-81490986D01*
X163371565Y-81532189D01*
X163329617Y-81539500D01*
X161819933Y-81539500D01*
X161752894Y-81519815D01*
X161721559Y-81490988D01*
X161718284Y-81486721D01*
X161718282Y-81486718D01*
X161592841Y-81390464D01*
X161446762Y-81329956D01*
X161446760Y-81329955D01*
X161290001Y-81309318D01*
X161289999Y-81309318D01*
X161133239Y-81329955D01*
X161133237Y-81329956D01*
X160987160Y-81390463D01*
X160861718Y-81486718D01*
X160765463Y-81612160D01*
X160704956Y-81758237D01*
X160704955Y-81758239D01*
X160684318Y-81914998D01*
X160684318Y-81915001D01*
X143604916Y-81915001D01*
X143607682Y-81893994D01*
X143603446Y-81861821D01*
X143587044Y-81737233D01*
X143587044Y-81737232D01*
X143526536Y-81591153D01*
X143430282Y-81465712D01*
X143304841Y-81369458D01*
X143209472Y-81329955D01*
X143158762Y-81308950D01*
X143158760Y-81308949D01*
X143002001Y-81288312D01*
X143001999Y-81288312D01*
X142845239Y-81308949D01*
X142845237Y-81308950D01*
X142699160Y-81369457D01*
X142573716Y-81465713D01*
X142554325Y-81490986D01*
X142497897Y-81532189D01*
X142455949Y-81539500D01*
X136830804Y-81539500D01*
X136805359Y-81536861D01*
X136794733Y-81534633D01*
X136794730Y-81534633D01*
X136759508Y-81539023D01*
X136751832Y-81539500D01*
X136747886Y-81539500D01*
X136730615Y-81542381D01*
X136724858Y-81543342D01*
X136670370Y-81550134D01*
X136662857Y-81552371D01*
X136655387Y-81554936D01*
X136607122Y-81581055D01*
X136557792Y-81605171D01*
X136551375Y-81609753D01*
X136545175Y-81614579D01*
X136507991Y-81654971D01*
X133248108Y-84914852D01*
X133228254Y-84930976D01*
X133219165Y-84936914D01*
X133219164Y-84936915D01*
X133197363Y-84964923D01*
X133192286Y-84970674D01*
X133189484Y-84973477D01*
X133189474Y-84973488D01*
X133175905Y-84992495D01*
X133142192Y-85035808D01*
X133138447Y-85042729D01*
X133134988Y-85049804D01*
X133119329Y-85102403D01*
X133101500Y-85154338D01*
X133100206Y-85162092D01*
X133099231Y-85169911D01*
X133101500Y-85224755D01*
X133101500Y-91672067D01*
X133081815Y-91739106D01*
X133052988Y-91770441D01*
X133048721Y-91773715D01*
X133048719Y-91773716D01*
X133048718Y-91773718D01*
X133006487Y-91828755D01*
X132952463Y-91899160D01*
X132891956Y-92045237D01*
X132891955Y-92045239D01*
X132871318Y-92201998D01*
X132871318Y-92202001D01*
X132891955Y-92358760D01*
X132891956Y-92358762D01*
X132932232Y-92455998D01*
X132952464Y-92504841D01*
X133048718Y-92630282D01*
X133174159Y-92726536D01*
X133320238Y-92787044D01*
X133398618Y-92797363D01*
X133476999Y-92807682D01*
X133477000Y-92807682D01*
X133477001Y-92807682D01*
X133553307Y-92797636D01*
X133633762Y-92787044D01*
X133717448Y-92752379D01*
X133786915Y-92744911D01*
X133849394Y-92776186D01*
X133885047Y-92836274D01*
X133888899Y-92866941D01*
X133888899Y-96228268D01*
X133869214Y-96295307D01*
X133863276Y-96303753D01*
X133801964Y-96383658D01*
X133741456Y-96529737D01*
X133741455Y-96529739D01*
X133720818Y-96686498D01*
X133720818Y-96686501D01*
X133741455Y-96843260D01*
X133741456Y-96843262D01*
X133774610Y-96923304D01*
X133801964Y-96989341D01*
X133898218Y-97114782D01*
X134023659Y-97211036D01*
X134169738Y-97271544D01*
X134248119Y-97281862D01*
X134326499Y-97292182D01*
X134326500Y-97292182D01*
X134483262Y-97271544D01*
X134483264Y-97271542D01*
X134485314Y-97271273D01*
X134554350Y-97282038D01*
X134606606Y-97328418D01*
X134625500Y-97394212D01*
X134625500Y-98419073D01*
X134605815Y-98486112D01*
X134596074Y-98498200D01*
X134596166Y-98498271D01*
X134591220Y-98504716D01*
X134591218Y-98504718D01*
X134550396Y-98557919D01*
X134494963Y-98630160D01*
X134434456Y-98776237D01*
X134434455Y-98776239D01*
X134413818Y-98932998D01*
X134413818Y-98933001D01*
X134434455Y-99089760D01*
X134434456Y-99089762D01*
X134474732Y-99186998D01*
X134494964Y-99235841D01*
X134591218Y-99361282D01*
X134716659Y-99457536D01*
X134862738Y-99518044D01*
X134888906Y-99521489D01*
X135019499Y-99538682D01*
X135019500Y-99538682D01*
X135019501Y-99538682D01*
X135107649Y-99527077D01*
X135176262Y-99518044D01*
X135322341Y-99457536D01*
X135447782Y-99361282D01*
X135544036Y-99235841D01*
X135604544Y-99089762D01*
X135618302Y-98985253D01*
X135625182Y-98933001D01*
X135625182Y-98933000D01*
X135619262Y-98888033D01*
X135605886Y-98786435D01*
X135616651Y-98717403D01*
X135663031Y-98665147D01*
X135730300Y-98646261D01*
X135744995Y-98647311D01*
X135763000Y-98649682D01*
X135919762Y-98629044D01*
X136065841Y-98568536D01*
X136191282Y-98472282D01*
X136287536Y-98346841D01*
X136348044Y-98200762D01*
X136365166Y-98070706D01*
X136393431Y-98006813D01*
X136451755Y-97968341D01*
X136504288Y-97963955D01*
X136525000Y-97966682D01*
X136681762Y-97946044D01*
X136681765Y-97946042D01*
X136683814Y-97945773D01*
X136752850Y-97956538D01*
X136805106Y-98002918D01*
X136824000Y-98068712D01*
X136824000Y-100444696D01*
X136821362Y-100470134D01*
X136819133Y-100480768D01*
X136819133Y-100480769D01*
X136819133Y-100480771D01*
X136823523Y-100515991D01*
X136824000Y-100523667D01*
X136824000Y-100527616D01*
X136827842Y-100550641D01*
X136834634Y-100605127D01*
X136836873Y-100612647D01*
X136839434Y-100620108D01*
X136839435Y-100620110D01*
X136847928Y-100635804D01*
X136848540Y-100636935D01*
X136863134Y-100705263D01*
X136838470Y-100770635D01*
X136782378Y-100812295D01*
X136755670Y-100818889D01*
X136622238Y-100836456D01*
X136622237Y-100836456D01*
X136476160Y-100896963D01*
X136350718Y-100993218D01*
X136254463Y-101118660D01*
X136193956Y-101264737D01*
X136193955Y-101264739D01*
X136173318Y-101421498D01*
X136173318Y-101421501D01*
X136180011Y-101472342D01*
X136169245Y-101541378D01*
X136144753Y-101576208D01*
X135032007Y-102688953D01*
X135012153Y-102705077D01*
X135003064Y-102711015D01*
X135003063Y-102711016D01*
X134981262Y-102739024D01*
X134976185Y-102744775D01*
X134973383Y-102747578D01*
X134973373Y-102747589D01*
X134959804Y-102766596D01*
X134926091Y-102809909D01*
X134922346Y-102816830D01*
X134918887Y-102823905D01*
X134903228Y-102876504D01*
X134885399Y-102928439D01*
X134884105Y-102936193D01*
X134883130Y-102944012D01*
X134885399Y-102998856D01*
X134885399Y-108986577D01*
X134865714Y-109053616D01*
X134812910Y-109099371D01*
X134743752Y-109109315D01*
X134729310Y-109106353D01*
X134725962Y-109105456D01*
X134569201Y-109084818D01*
X134569199Y-109084818D01*
X134412439Y-109105455D01*
X134412437Y-109105456D01*
X134266358Y-109165964D01*
X134247749Y-109180243D01*
X134182579Y-109205435D01*
X134114134Y-109191395D01*
X134084584Y-109169546D01*
X131094819Y-106179781D01*
X131061334Y-106118458D01*
X131058500Y-106092100D01*
X131058500Y-100635804D01*
X131061139Y-100610359D01*
X131061785Y-100607275D01*
X131063367Y-100599732D01*
X131061498Y-100584740D01*
X131058977Y-100564506D01*
X131058500Y-100556830D01*
X131058500Y-100552883D01*
X131054657Y-100529853D01*
X131047866Y-100475375D01*
X131045624Y-100467846D01*
X131043065Y-100460392D01*
X131043065Y-100460390D01*
X131016944Y-100412122D01*
X130992826Y-100362789D01*
X130992824Y-100362787D01*
X130992824Y-100362786D01*
X130988276Y-100356416D01*
X130983420Y-100350176D01*
X130983419Y-100350174D01*
X130983399Y-100350156D01*
X130943030Y-100312993D01*
X130323024Y-99692986D01*
X130306897Y-99673127D01*
X130300961Y-99664042D01*
X130300958Y-99664038D01*
X130272949Y-99642238D01*
X130267185Y-99637147D01*
X130264388Y-99634350D01*
X130260471Y-99631032D01*
X130261789Y-99629474D01*
X130224056Y-99581362D01*
X130217506Y-99511800D01*
X130229442Y-99477793D01*
X130230831Y-99475145D01*
X130230836Y-99475139D01*
X130286853Y-99327434D01*
X130305894Y-99170616D01*
X130296077Y-99089760D01*
X130286853Y-99013797D01*
X130256210Y-98933000D01*
X130230836Y-98866093D01*
X130141099Y-98736086D01*
X130022856Y-98631333D01*
X130022854Y-98631332D01*
X130022853Y-98631331D01*
X129882981Y-98557919D01*
X129729602Y-98520116D01*
X129729601Y-98520116D01*
X129571631Y-98520116D01*
X129571630Y-98520116D01*
X129418250Y-98557919D01*
X129278378Y-98631331D01*
X129160132Y-98736087D01*
X129070397Y-98866091D01*
X129070396Y-98866092D01*
X129014378Y-99013797D01*
X128995337Y-99170615D01*
X128995337Y-99170616D01*
X129014379Y-99327434D01*
X129033709Y-99378404D01*
X129039076Y-99448067D01*
X129005928Y-99509573D01*
X128944790Y-99543395D01*
X128917767Y-99546375D01*
X128672433Y-99546375D01*
X128605394Y-99526690D01*
X128574059Y-99497863D01*
X128570784Y-99493596D01*
X128570782Y-99493593D01*
X128445341Y-99397339D01*
X128444346Y-99396927D01*
X128299262Y-99336831D01*
X128299260Y-99336830D01*
X128263083Y-99332068D01*
X128199186Y-99303801D01*
X128160715Y-99245477D01*
X128159884Y-99175612D01*
X128191585Y-99121450D01*
X128371889Y-98941146D01*
X128391746Y-98925022D01*
X128400836Y-98919084D01*
X128422638Y-98891071D01*
X128427733Y-98885303D01*
X128430519Y-98882518D01*
X128430528Y-98882506D01*
X128444086Y-98863516D01*
X128477807Y-98820192D01*
X128481547Y-98813280D01*
X128485003Y-98806207D01*
X128485010Y-98806199D01*
X128500670Y-98753596D01*
X128518500Y-98701660D01*
X128518500Y-98701655D01*
X128519791Y-98693922D01*
X128520768Y-98686086D01*
X128518499Y-98631244D01*
X128518499Y-92726536D01*
X128518499Y-86837928D01*
X128538184Y-86770893D01*
X128567016Y-86739554D01*
X128571282Y-86736282D01*
X128667536Y-86610841D01*
X128728044Y-86464762D01*
X128748682Y-86308000D01*
X128728044Y-86151238D01*
X128667536Y-86005159D01*
X128571282Y-85879718D01*
X128445841Y-85783464D01*
X128417906Y-85771893D01*
X128299762Y-85722956D01*
X128299760Y-85722955D01*
X128143001Y-85702318D01*
X128142999Y-85702318D01*
X127986239Y-85722955D01*
X127986237Y-85722956D01*
X127840160Y-85783463D01*
X127714718Y-85879718D01*
X127618463Y-86005160D01*
X127557956Y-86151237D01*
X127557955Y-86151239D01*
X127537318Y-86307998D01*
X127537318Y-86308001D01*
X127557955Y-86464760D01*
X127557956Y-86464762D01*
X127618464Y-86610842D01*
X127714715Y-86736279D01*
X127714716Y-86736280D01*
X127714718Y-86736282D01*
X127718982Y-86739554D01*
X127760187Y-86795978D01*
X127767500Y-86837932D01*
X127767500Y-98432099D01*
X127747815Y-98499138D01*
X127731181Y-98519780D01*
X127629643Y-98621318D01*
X127568320Y-98654803D01*
X127525778Y-98656576D01*
X127520446Y-98655874D01*
X127520442Y-98655874D01*
X127363683Y-98676511D01*
X127363681Y-98676512D01*
X127217604Y-98737019D01*
X127092162Y-98833274D01*
X126995907Y-98958716D01*
X126978561Y-99000594D01*
X126934720Y-99054997D01*
X126868425Y-99077062D01*
X126800726Y-99059783D01*
X126753116Y-99008645D01*
X126740000Y-98953141D01*
X126740000Y-87823038D01*
X126742639Y-87797593D01*
X126743285Y-87794509D01*
X126744867Y-87786966D01*
X126742787Y-87770286D01*
X126740477Y-87751743D01*
X126740000Y-87744067D01*
X126740000Y-87740124D01*
X126739999Y-87740118D01*
X126736155Y-87717081D01*
X126729365Y-87662608D01*
X126727117Y-87655062D01*
X126724565Y-87647625D01*
X126698442Y-87599354D01*
X126679056Y-87559699D01*
X126667298Y-87490826D01*
X126667518Y-87489052D01*
X126669901Y-87470953D01*
X126669901Y-87470952D01*
X126649263Y-87314193D01*
X126649263Y-87314192D01*
X126588755Y-87168113D01*
X126492501Y-87042672D01*
X126367060Y-86946418D01*
X126220981Y-86885910D01*
X126220979Y-86885909D01*
X126064220Y-86865272D01*
X126064218Y-86865272D01*
X125907458Y-86885909D01*
X125907456Y-86885910D01*
X125761379Y-86946417D01*
X125635937Y-87042672D01*
X125539682Y-87168114D01*
X125479175Y-87314191D01*
X125479174Y-87314193D01*
X125458537Y-87470952D01*
X125458537Y-87470955D01*
X125479174Y-87627714D01*
X125479175Y-87627716D01*
X125525733Y-87740118D01*
X125539683Y-87773795D01*
X125635937Y-87899236D01*
X125637094Y-87900124D01*
X125637823Y-87901122D01*
X125641684Y-87904983D01*
X125641082Y-87905584D01*
X125678297Y-87956549D01*
X125682454Y-88026295D01*
X125648243Y-88087216D01*
X125586526Y-88119971D01*
X125561609Y-88122500D01*
X125524014Y-88122500D01*
X125370634Y-88160303D01*
X125230762Y-88233715D01*
X125112516Y-88338471D01*
X125022781Y-88468475D01*
X125022780Y-88468476D01*
X125004247Y-88517345D01*
X124966763Y-88616182D01*
X124960830Y-88665050D01*
X124957404Y-88693264D01*
X124929783Y-88757442D01*
X124871849Y-88796499D01*
X124848898Y-88800056D01*
X124849057Y-88801257D01*
X124684239Y-88822955D01*
X124684237Y-88822956D01*
X124538160Y-88883463D01*
X124412718Y-88979718D01*
X124316463Y-89105160D01*
X124255956Y-89251237D01*
X124255955Y-89251239D01*
X124235318Y-89407998D01*
X124235318Y-89408001D01*
X124255955Y-89564760D01*
X124255956Y-89564762D01*
X124316464Y-89710841D01*
X124370799Y-89781652D01*
X124412719Y-89836283D01*
X124543986Y-89937007D01*
X124585189Y-89993435D01*
X124592500Y-90035383D01*
X124592499Y-91748287D01*
X124572814Y-91815327D01*
X124520010Y-91861081D01*
X124452314Y-91871226D01*
X124293501Y-91850318D01*
X124293499Y-91850318D01*
X124136739Y-91870955D01*
X124136737Y-91870956D01*
X123990660Y-91931463D01*
X123865218Y-92027718D01*
X123768963Y-92153160D01*
X123708456Y-92299237D01*
X123708455Y-92299239D01*
X123687818Y-92455998D01*
X123687818Y-92456001D01*
X123708455Y-92612760D01*
X123708456Y-92612762D01*
X123768964Y-92758842D01*
X123865215Y-92884279D01*
X123865216Y-92884280D01*
X123865218Y-92884282D01*
X123869482Y-92887554D01*
X123910687Y-92943978D01*
X123918000Y-92985932D01*
X123918000Y-100562067D01*
X123898315Y-100629106D01*
X123869488Y-100660441D01*
X123865221Y-100663715D01*
X123865219Y-100663716D01*
X123865218Y-100663718D01*
X123822966Y-100718782D01*
X123768963Y-100789160D01*
X123708456Y-100935237D01*
X123708455Y-100935239D01*
X123687818Y-101091998D01*
X123687818Y-101092001D01*
X123689305Y-101103300D01*
X123678536Y-101172335D01*
X123667324Y-101191475D01*
X123666268Y-101192955D01*
X123664580Y-101195320D01*
X123630867Y-101238633D01*
X123627122Y-101245554D01*
X123623663Y-101252629D01*
X123608004Y-101305228D01*
X123590175Y-101357163D01*
X123588881Y-101364917D01*
X123587906Y-101372736D01*
X123590175Y-101427580D01*
X123590175Y-116077604D01*
X123570490Y-116144643D01*
X123528173Y-116184992D01*
X123522158Y-116188464D01*
X123396719Y-116284716D01*
X123300463Y-116410160D01*
X123239956Y-116556237D01*
X123239955Y-116556239D01*
X123219318Y-116712998D01*
X123219318Y-116713001D01*
X115276150Y-116713001D01*
X115425401Y-116608495D01*
X115592495Y-116441401D01*
X115728035Y-116247830D01*
X115827903Y-116033663D01*
X115889063Y-115805408D01*
X115909659Y-115570000D01*
X115889063Y-115334592D01*
X115827903Y-115106337D01*
X115728035Y-114892171D01*
X115728034Y-114892169D01*
X115592494Y-114698597D01*
X115425402Y-114531505D01*
X115231830Y-114395965D01*
X115231828Y-114395964D01*
X115124746Y-114346030D01*
X115017663Y-114296097D01*
X115017659Y-114296096D01*
X115017655Y-114296094D01*
X114789413Y-114234938D01*
X114789403Y-114234936D01*
X114612966Y-114219500D01*
X114495034Y-114219500D01*
X114318596Y-114234936D01*
X114318586Y-114234938D01*
X114090344Y-114296094D01*
X114090335Y-114296098D01*
X113876171Y-114395964D01*
X113876169Y-114395965D01*
X113682597Y-114531505D01*
X113515506Y-114698597D01*
X113515501Y-114698604D01*
X113379967Y-114892165D01*
X113379965Y-114892169D01*
X113280098Y-115106335D01*
X113280094Y-115106344D01*
X113218938Y-115334586D01*
X113218936Y-115334596D01*
X113198341Y-115569999D01*
X113198341Y-115570000D01*
X98140500Y-115570000D01*
X98140500Y-114808000D01*
X102214722Y-114808000D01*
X102233762Y-114964818D01*
X102276890Y-115078536D01*
X102289780Y-115112523D01*
X102379517Y-115242530D01*
X102497760Y-115347283D01*
X102497762Y-115347284D01*
X102637634Y-115420696D01*
X102791014Y-115458500D01*
X102791015Y-115458500D01*
X102948985Y-115458500D01*
X103102365Y-115420696D01*
X103102365Y-115420695D01*
X103242240Y-115347283D01*
X103360483Y-115242530D01*
X103450220Y-115112523D01*
X103506237Y-114964818D01*
X103525278Y-114808000D01*
X103511995Y-114698599D01*
X103506237Y-114651181D01*
X103469380Y-114553998D01*
X103450220Y-114503477D01*
X103360483Y-114373470D01*
X103242240Y-114268717D01*
X103242238Y-114268716D01*
X103242237Y-114268715D01*
X103102365Y-114195303D01*
X102948986Y-114157500D01*
X102948985Y-114157500D01*
X102791015Y-114157500D01*
X102791014Y-114157500D01*
X102637634Y-114195303D01*
X102497762Y-114268715D01*
X102379516Y-114373471D01*
X102289781Y-114503475D01*
X102289780Y-114503476D01*
X102233762Y-114651181D01*
X102214722Y-114807999D01*
X102214722Y-114808000D01*
X98140500Y-114808000D01*
X98140500Y-112395000D01*
X108437722Y-112395000D01*
X108456762Y-112551818D01*
X108511626Y-112696481D01*
X108512780Y-112699523D01*
X108602517Y-112829530D01*
X108720760Y-112934283D01*
X108720762Y-112934284D01*
X108860634Y-113007696D01*
X109014014Y-113045500D01*
X109014015Y-113045500D01*
X109171985Y-113045500D01*
X109325365Y-113007696D01*
X109346430Y-112996640D01*
X109465240Y-112934283D01*
X109583483Y-112829530D01*
X109673220Y-112699523D01*
X109729237Y-112551818D01*
X109748278Y-112395000D01*
X109739292Y-112320988D01*
X109729237Y-112238181D01*
X109705241Y-112174909D01*
X109673220Y-112090477D01*
X109583483Y-111960470D01*
X109465240Y-111855717D01*
X109465238Y-111855716D01*
X109465237Y-111855715D01*
X109325365Y-111782303D01*
X109171986Y-111744500D01*
X109171985Y-111744500D01*
X109014015Y-111744500D01*
X109014014Y-111744500D01*
X108860634Y-111782303D01*
X108720762Y-111855715D01*
X108660896Y-111908751D01*
X108610708Y-111953214D01*
X108602516Y-111960471D01*
X108512781Y-112090475D01*
X108512780Y-112090476D01*
X108456762Y-112238181D01*
X108437722Y-112394999D01*
X108437722Y-112395000D01*
X98140500Y-112395000D01*
X98140500Y-109347000D01*
X115676721Y-109347000D01*
X115695762Y-109503818D01*
X115743807Y-109630499D01*
X115751780Y-109651523D01*
X115841517Y-109781530D01*
X115959760Y-109886283D01*
X115959762Y-109886284D01*
X116099634Y-109959696D01*
X116253014Y-109997500D01*
X116253015Y-109997500D01*
X116410985Y-109997500D01*
X116564365Y-109959696D01*
X116641168Y-109919386D01*
X116704240Y-109886283D01*
X116822483Y-109781530D01*
X116912220Y-109651523D01*
X116968237Y-109503818D01*
X116987278Y-109347000D01*
X119359721Y-109347000D01*
X119378762Y-109503818D01*
X119426807Y-109630499D01*
X119434780Y-109651523D01*
X119524517Y-109781530D01*
X119642760Y-109886283D01*
X119642762Y-109886284D01*
X119782634Y-109959696D01*
X119936014Y-109997500D01*
X119936015Y-109997500D01*
X120093985Y-109997500D01*
X120247365Y-109959696D01*
X120324168Y-109919386D01*
X120387240Y-109886283D01*
X120505483Y-109781530D01*
X120595220Y-109651523D01*
X120597558Y-109645357D01*
X120639735Y-109589655D01*
X120705332Y-109565597D01*
X120773523Y-109580823D01*
X120822656Y-109630499D01*
X120829441Y-109645357D01*
X120831780Y-109651523D01*
X120921517Y-109781530D01*
X121039760Y-109886283D01*
X121039762Y-109886284D01*
X121179634Y-109959696D01*
X121333014Y-109997500D01*
X121333015Y-109997500D01*
X121490985Y-109997500D01*
X121644365Y-109959696D01*
X121721168Y-109919386D01*
X121784240Y-109886283D01*
X121902483Y-109781530D01*
X121992220Y-109651523D01*
X122048237Y-109503818D01*
X122067278Y-109347000D01*
X122048237Y-109190182D01*
X122042939Y-109176213D01*
X122013797Y-109099371D01*
X121992220Y-109042477D01*
X121902483Y-108912470D01*
X121784240Y-108807717D01*
X121784238Y-108807716D01*
X121784237Y-108807715D01*
X121644365Y-108734303D01*
X121490986Y-108696500D01*
X121490985Y-108696500D01*
X121333015Y-108696500D01*
X121333014Y-108696500D01*
X121179634Y-108734303D01*
X121039762Y-108807715D01*
X120921516Y-108912471D01*
X120831781Y-109042475D01*
X120831779Y-109042478D01*
X120829441Y-109048644D01*
X120787262Y-109104346D01*
X120721665Y-109128402D01*
X120653475Y-109113174D01*
X120604342Y-109063497D01*
X120597559Y-109048644D01*
X120595220Y-109042478D01*
X120595220Y-109042477D01*
X120505483Y-108912470D01*
X120387240Y-108807717D01*
X120387238Y-108807716D01*
X120387237Y-108807715D01*
X120247365Y-108734303D01*
X120093986Y-108696500D01*
X120093985Y-108696500D01*
X119936015Y-108696500D01*
X119936014Y-108696500D01*
X119782634Y-108734303D01*
X119642762Y-108807715D01*
X119524516Y-108912471D01*
X119434781Y-109042475D01*
X119434780Y-109042476D01*
X119378762Y-109190181D01*
X119359721Y-109346999D01*
X119359721Y-109347000D01*
X116987278Y-109347000D01*
X116968237Y-109190182D01*
X116962939Y-109176213D01*
X116933797Y-109099371D01*
X116912220Y-109042477D01*
X116822483Y-108912470D01*
X116704240Y-108807717D01*
X116704238Y-108807716D01*
X116704237Y-108807715D01*
X116564365Y-108734303D01*
X116410986Y-108696500D01*
X116410985Y-108696500D01*
X116253015Y-108696500D01*
X116253014Y-108696500D01*
X116099634Y-108734303D01*
X115959762Y-108807715D01*
X115841516Y-108912471D01*
X115751781Y-109042475D01*
X115751780Y-109042476D01*
X115695762Y-109190181D01*
X115676721Y-109346999D01*
X115676721Y-109347000D01*
X98140500Y-109347000D01*
X98140500Y-107732478D01*
X106290700Y-107732478D01*
X106305232Y-107805535D01*
X106305233Y-107805539D01*
X106305234Y-107805540D01*
X106360599Y-107888401D01*
X106440314Y-107941664D01*
X106443460Y-107943766D01*
X106443464Y-107943767D01*
X106516521Y-107958299D01*
X106516524Y-107958300D01*
X106516526Y-107958300D01*
X108265876Y-107958300D01*
X108265877Y-107958299D01*
X108338940Y-107943766D01*
X108421801Y-107888401D01*
X108477166Y-107805540D01*
X108491700Y-107732474D01*
X108491700Y-106857800D01*
X108825985Y-106857800D01*
X108844802Y-107060882D01*
X108900617Y-107257047D01*
X108900622Y-107257060D01*
X108991527Y-107439621D01*
X109114437Y-107602381D01*
X109265158Y-107739780D01*
X109265160Y-107739782D01*
X109351403Y-107793181D01*
X109438563Y-107847148D01*
X109628744Y-107920824D01*
X109829224Y-107958300D01*
X109829226Y-107958300D01*
X110033174Y-107958300D01*
X110033176Y-107958300D01*
X110077577Y-107950000D01*
X112755722Y-107950000D01*
X112774762Y-108106818D01*
X112812859Y-108207269D01*
X112830780Y-108254523D01*
X112920517Y-108384530D01*
X113038760Y-108489283D01*
X113038762Y-108489284D01*
X113178634Y-108562696D01*
X113332014Y-108600500D01*
X113332015Y-108600500D01*
X113489985Y-108600500D01*
X113643365Y-108562696D01*
X113643364Y-108562695D01*
X113783240Y-108489283D01*
X113901483Y-108384530D01*
X113991220Y-108254523D01*
X114047237Y-108106818D01*
X114066278Y-107950000D01*
X114062736Y-107920824D01*
X114047237Y-107793181D01*
X114024214Y-107732474D01*
X113991220Y-107645477D01*
X113901483Y-107515470D01*
X113783240Y-107410717D01*
X113783238Y-107410716D01*
X113783237Y-107410715D01*
X113643365Y-107337303D01*
X113489986Y-107299500D01*
X113489985Y-107299500D01*
X113332015Y-107299500D01*
X113332014Y-107299500D01*
X113178634Y-107337303D01*
X113038762Y-107410715D01*
X113038759Y-107410717D01*
X113038760Y-107410717D01*
X112926315Y-107510334D01*
X112920516Y-107515471D01*
X112830781Y-107645475D01*
X112830780Y-107645476D01*
X112774762Y-107793181D01*
X112755722Y-107949999D01*
X112755722Y-107950000D01*
X110077577Y-107950000D01*
X110233656Y-107920824D01*
X110423837Y-107847148D01*
X110597241Y-107739781D01*
X110747964Y-107602379D01*
X110870873Y-107439621D01*
X110961782Y-107257050D01*
X111017597Y-107060883D01*
X111036415Y-106857800D01*
X111017597Y-106654717D01*
X110961782Y-106458550D01*
X110870873Y-106275979D01*
X110747964Y-106113221D01*
X110747962Y-106113218D01*
X110597241Y-105975819D01*
X110597239Y-105975817D01*
X110423842Y-105868455D01*
X110423835Y-105868451D01*
X110317350Y-105827199D01*
X110233656Y-105794776D01*
X110033176Y-105757300D01*
X109829224Y-105757300D01*
X109628744Y-105794776D01*
X109628741Y-105794776D01*
X109628741Y-105794777D01*
X109438564Y-105868451D01*
X109438557Y-105868455D01*
X109265160Y-105975817D01*
X109265158Y-105975819D01*
X109114437Y-106113218D01*
X108991527Y-106275978D01*
X108900622Y-106458539D01*
X108900617Y-106458552D01*
X108844802Y-106654717D01*
X108825985Y-106857799D01*
X108825985Y-106857800D01*
X108491700Y-106857800D01*
X108491700Y-105983126D01*
X108491700Y-105983125D01*
X108491700Y-105983123D01*
X108491699Y-105983121D01*
X108477167Y-105910064D01*
X108477166Y-105910060D01*
X108421801Y-105827199D01*
X108338940Y-105771834D01*
X108338939Y-105771833D01*
X108338935Y-105771832D01*
X108265877Y-105757300D01*
X108265874Y-105757300D01*
X106516526Y-105757300D01*
X106516523Y-105757300D01*
X106443464Y-105771832D01*
X106443460Y-105771833D01*
X106360599Y-105827199D01*
X106305233Y-105910060D01*
X106305232Y-105910064D01*
X106290700Y-105983121D01*
X106290700Y-107732478D01*
X98140500Y-107732478D01*
X98140500Y-104317800D01*
X106285985Y-104317800D01*
X106304802Y-104520882D01*
X106360617Y-104717047D01*
X106360622Y-104717060D01*
X106451527Y-104899621D01*
X106574437Y-105062381D01*
X106725158Y-105199780D01*
X106725160Y-105199782D01*
X106810373Y-105252543D01*
X106898563Y-105307148D01*
X107088744Y-105380824D01*
X107289224Y-105418300D01*
X107289226Y-105418300D01*
X107493174Y-105418300D01*
X107493176Y-105418300D01*
X107693656Y-105380824D01*
X107883837Y-105307148D01*
X108057241Y-105199781D01*
X108207964Y-105062379D01*
X108330873Y-104899621D01*
X108421782Y-104717050D01*
X108477597Y-104520883D01*
X108496415Y-104317800D01*
X108825985Y-104317800D01*
X108844802Y-104520882D01*
X108900617Y-104717047D01*
X108900622Y-104717060D01*
X108991527Y-104899621D01*
X109114437Y-105062381D01*
X109265158Y-105199780D01*
X109265160Y-105199782D01*
X109350373Y-105252543D01*
X109438563Y-105307148D01*
X109628744Y-105380824D01*
X109829224Y-105418300D01*
X109829226Y-105418300D01*
X110033174Y-105418300D01*
X110033176Y-105418300D01*
X110233656Y-105380824D01*
X110423837Y-105307148D01*
X110597241Y-105199781D01*
X110747964Y-105062379D01*
X110870873Y-104899621D01*
X110961782Y-104717050D01*
X111017597Y-104520883D01*
X111036415Y-104317800D01*
X111036389Y-104317524D01*
X111017597Y-104114717D01*
X111003886Y-104066528D01*
X110961782Y-103918550D01*
X110870873Y-103735979D01*
X110747964Y-103573221D01*
X110747962Y-103573218D01*
X110597241Y-103435819D01*
X110597239Y-103435817D01*
X110423842Y-103328455D01*
X110423835Y-103328451D01*
X110320306Y-103288344D01*
X110233656Y-103254776D01*
X110033176Y-103217300D01*
X109829224Y-103217300D01*
X109628744Y-103254776D01*
X109628741Y-103254776D01*
X109628741Y-103254777D01*
X109438564Y-103328451D01*
X109438557Y-103328455D01*
X109265160Y-103435817D01*
X109265158Y-103435819D01*
X109114437Y-103573218D01*
X108991527Y-103735978D01*
X108900622Y-103918539D01*
X108900617Y-103918552D01*
X108844802Y-104114717D01*
X108825985Y-104317799D01*
X108825985Y-104317800D01*
X108496415Y-104317800D01*
X108496389Y-104317524D01*
X108477597Y-104114717D01*
X108463886Y-104066528D01*
X108421782Y-103918550D01*
X108330873Y-103735979D01*
X108207964Y-103573221D01*
X108207962Y-103573218D01*
X108057241Y-103435819D01*
X108057239Y-103435817D01*
X107883842Y-103328455D01*
X107883835Y-103328451D01*
X107780306Y-103288344D01*
X107693656Y-103254776D01*
X107493176Y-103217300D01*
X107289224Y-103217300D01*
X107088744Y-103254776D01*
X107088741Y-103254776D01*
X107088741Y-103254777D01*
X106898564Y-103328451D01*
X106898557Y-103328455D01*
X106725160Y-103435817D01*
X106725158Y-103435819D01*
X106574437Y-103573218D01*
X106451527Y-103735978D01*
X106360622Y-103918539D01*
X106360617Y-103918552D01*
X106304802Y-104114717D01*
X106285985Y-104317799D01*
X106285985Y-104317800D01*
X98140500Y-104317800D01*
X98140500Y-102489001D01*
X112043318Y-102489001D01*
X112063955Y-102645760D01*
X112063956Y-102645762D01*
X112104968Y-102744775D01*
X112124464Y-102791841D01*
X112220718Y-102917282D01*
X112346159Y-103013536D01*
X112492238Y-103074044D01*
X112541421Y-103080519D01*
X112648999Y-103094682D01*
X112649000Y-103094682D01*
X112649001Y-103094682D01*
X112730305Y-103083978D01*
X112805762Y-103074044D01*
X112951841Y-103013536D01*
X113077282Y-102917282D01*
X113173536Y-102791841D01*
X113234044Y-102645762D01*
X113254682Y-102489000D01*
X113254309Y-102486170D01*
X113254682Y-102483780D01*
X113254682Y-102480873D01*
X113255135Y-102480873D01*
X113265070Y-102417137D01*
X113289563Y-102382301D01*
X113537930Y-102133934D01*
X113557789Y-102117809D01*
X113566979Y-102111805D01*
X113566979Y-102111804D01*
X113566982Y-102111803D01*
X113588932Y-102083600D01*
X113593992Y-102077872D01*
X113596825Y-102075041D01*
X113610468Y-102055932D01*
X113644365Y-102012382D01*
X113644366Y-102012376D01*
X113648117Y-102005446D01*
X113651602Y-101998320D01*
X113651605Y-101998316D01*
X113667352Y-101945420D01*
X113685273Y-101893221D01*
X113685273Y-101893220D01*
X113686573Y-101885428D01*
X113687554Y-101877565D01*
X113685273Y-101822424D01*
X113685273Y-101443898D01*
X113704958Y-101376859D01*
X113733787Y-101345522D01*
X113733790Y-101345520D01*
X113736055Y-101343782D01*
X113832309Y-101218341D01*
X113892817Y-101072262D01*
X113910856Y-100935239D01*
X113913455Y-100915501D01*
X113913455Y-100915498D01*
X113893581Y-100764541D01*
X113892817Y-100758738D01*
X113832309Y-100612659D01*
X113736055Y-100487218D01*
X113610614Y-100390964D01*
X113595426Y-100384673D01*
X113464535Y-100330456D01*
X113464533Y-100330455D01*
X113307774Y-100309818D01*
X113307772Y-100309818D01*
X113151012Y-100330455D01*
X113151010Y-100330456D01*
X113004933Y-100390963D01*
X112879491Y-100487218D01*
X112783236Y-100612660D01*
X112722729Y-100758737D01*
X112722728Y-100758739D01*
X112702091Y-100915498D01*
X112702091Y-100915501D01*
X112722728Y-101072260D01*
X112722729Y-101072262D01*
X112753162Y-101145735D01*
X112783237Y-101218341D01*
X112879491Y-101343782D01*
X112881758Y-101345521D01*
X112883186Y-101347477D01*
X112885238Y-101349529D01*
X112884918Y-101349848D01*
X112922960Y-101401947D01*
X112930272Y-101443897D01*
X112930272Y-101622498D01*
X112910587Y-101689537D01*
X112893953Y-101710179D01*
X112755700Y-101848432D01*
X112694377Y-101881917D01*
X112651846Y-101883692D01*
X112649003Y-101883318D01*
X112648998Y-101883318D01*
X112492239Y-101903955D01*
X112492237Y-101903956D01*
X112346160Y-101964463D01*
X112220718Y-102060718D01*
X112124463Y-102186160D01*
X112063956Y-102332237D01*
X112063955Y-102332239D01*
X112043318Y-102488998D01*
X112043318Y-102489001D01*
X98140500Y-102489001D01*
X98140500Y-97536000D01*
X118724721Y-97536000D01*
X118743762Y-97692818D01*
X118765833Y-97751013D01*
X118799780Y-97840523D01*
X118889517Y-97970530D01*
X119007760Y-98075283D01*
X119007762Y-98075284D01*
X119147634Y-98148696D01*
X119301014Y-98186500D01*
X119301015Y-98186500D01*
X119458985Y-98186500D01*
X119612365Y-98148696D01*
X119612365Y-98148695D01*
X119752240Y-98075283D01*
X119870483Y-97970530D01*
X119960220Y-97840523D01*
X120016237Y-97692818D01*
X120035278Y-97536000D01*
X120016237Y-97379182D01*
X119960220Y-97231477D01*
X119946589Y-97211729D01*
X120538739Y-97211729D01*
X120557779Y-97368547D01*
X120608905Y-97503352D01*
X120613797Y-97516252D01*
X120703534Y-97646259D01*
X120821777Y-97751012D01*
X120821779Y-97751013D01*
X120961651Y-97824425D01*
X121115031Y-97862229D01*
X121115032Y-97862229D01*
X121273002Y-97862229D01*
X121426382Y-97824425D01*
X121566257Y-97751012D01*
X121684500Y-97646259D01*
X121774237Y-97516252D01*
X121830254Y-97368547D01*
X121849295Y-97211729D01*
X121837524Y-97114781D01*
X121830254Y-97054910D01*
X121780342Y-96923304D01*
X121774237Y-96907206D01*
X121684500Y-96777199D01*
X121566257Y-96672446D01*
X121566255Y-96672445D01*
X121566254Y-96672444D01*
X121426382Y-96599032D01*
X121273003Y-96561229D01*
X121273002Y-96561229D01*
X121115032Y-96561229D01*
X121115031Y-96561229D01*
X120961651Y-96599032D01*
X120821779Y-96672444D01*
X120703533Y-96777200D01*
X120613798Y-96907204D01*
X120613797Y-96907205D01*
X120557779Y-97054910D01*
X120538739Y-97211728D01*
X120538739Y-97211729D01*
X119946589Y-97211729D01*
X119870483Y-97101470D01*
X119752240Y-96996717D01*
X119752238Y-96996716D01*
X119752237Y-96996715D01*
X119612365Y-96923303D01*
X119458986Y-96885500D01*
X119458985Y-96885500D01*
X119301015Y-96885500D01*
X119301014Y-96885500D01*
X119147634Y-96923303D01*
X119007762Y-96996715D01*
X118889516Y-97101471D01*
X118799781Y-97231475D01*
X118799780Y-97231476D01*
X118743762Y-97379181D01*
X118724721Y-97535999D01*
X118724721Y-97536000D01*
X98140500Y-97536000D01*
X98140500Y-95377000D01*
X121137721Y-95377000D01*
X121156762Y-95533818D01*
X121212779Y-95681522D01*
X121212780Y-95681523D01*
X121302517Y-95811530D01*
X121420760Y-95916283D01*
X121420762Y-95916284D01*
X121560634Y-95989696D01*
X121714014Y-96027500D01*
X121714015Y-96027500D01*
X121871985Y-96027500D01*
X122025365Y-95989696D01*
X122046150Y-95978787D01*
X122165240Y-95916283D01*
X122283483Y-95811530D01*
X122373220Y-95681523D01*
X122429237Y-95533818D01*
X122448278Y-95377000D01*
X122432858Y-95249999D01*
X122429237Y-95220181D01*
X122395332Y-95130781D01*
X122373220Y-95072477D01*
X122283483Y-94942470D01*
X122165240Y-94837717D01*
X122165238Y-94837716D01*
X122165237Y-94837715D01*
X122025365Y-94764303D01*
X121871986Y-94726500D01*
X121871985Y-94726500D01*
X121714015Y-94726500D01*
X121714014Y-94726500D01*
X121560634Y-94764303D01*
X121420762Y-94837715D01*
X121302516Y-94942471D01*
X121212781Y-95072475D01*
X121212780Y-95072476D01*
X121156762Y-95220181D01*
X121137721Y-95376999D01*
X121137721Y-95377000D01*
X98140500Y-95377000D01*
X98140500Y-88821868D01*
X117531816Y-88821868D01*
X117550856Y-88978686D01*
X117598822Y-89105159D01*
X117606874Y-89126391D01*
X117696611Y-89256398D01*
X117814854Y-89361151D01*
X117814856Y-89361152D01*
X117954728Y-89434564D01*
X118108108Y-89472368D01*
X118108109Y-89472368D01*
X118266079Y-89472368D01*
X118419459Y-89434564D01*
X118470070Y-89408001D01*
X118559334Y-89361151D01*
X118677577Y-89256398D01*
X118767314Y-89126391D01*
X118823331Y-88978686D01*
X118842372Y-88821868D01*
X118839870Y-88801257D01*
X118823331Y-88665049D01*
X118802086Y-88609032D01*
X118767314Y-88517345D01*
X118677577Y-88387338D01*
X118559334Y-88282585D01*
X118559332Y-88282584D01*
X118559331Y-88282583D01*
X118419459Y-88209171D01*
X118266080Y-88171368D01*
X118266079Y-88171368D01*
X118108109Y-88171368D01*
X118108108Y-88171368D01*
X117954728Y-88209171D01*
X117814856Y-88282583D01*
X117696610Y-88387339D01*
X117606875Y-88517343D01*
X117606874Y-88517344D01*
X117550856Y-88665049D01*
X117531816Y-88821867D01*
X117531816Y-88821868D01*
X98140500Y-88821868D01*
X98140500Y-83382001D01*
X98666505Y-83382001D01*
X98686460Y-83661013D01*
X98745917Y-83934328D01*
X98745919Y-83934335D01*
X98779020Y-84023082D01*
X98843671Y-84196420D01*
X98843673Y-84196424D01*
X98977723Y-84441918D01*
X98977728Y-84441926D01*
X99145350Y-84665843D01*
X99145366Y-84665861D01*
X99343138Y-84863633D01*
X99343156Y-84863649D01*
X99567073Y-85031271D01*
X99567081Y-85031276D01*
X99812575Y-85165326D01*
X99812579Y-85165328D01*
X99812581Y-85165329D01*
X100074665Y-85263081D01*
X100211328Y-85292810D01*
X100347986Y-85322539D01*
X100347988Y-85322539D01*
X100347992Y-85322540D01*
X100595934Y-85340273D01*
X100626999Y-85342495D01*
X100627000Y-85342495D01*
X100627001Y-85342495D01*
X100654952Y-85340495D01*
X100906008Y-85322540D01*
X101179335Y-85263081D01*
X101441419Y-85165329D01*
X101686924Y-85031273D01*
X101910851Y-84863643D01*
X101938494Y-84836000D01*
X108353785Y-84836000D01*
X108372602Y-85039082D01*
X108428417Y-85235247D01*
X108428422Y-85235260D01*
X108519327Y-85417821D01*
X108642237Y-85580581D01*
X108792958Y-85717980D01*
X108792960Y-85717982D01*
X108867185Y-85763940D01*
X108966363Y-85825348D01*
X109156544Y-85899024D01*
X109357024Y-85936500D01*
X109357026Y-85936500D01*
X109560974Y-85936500D01*
X109560976Y-85936500D01*
X109761456Y-85899024D01*
X109951637Y-85825348D01*
X110125041Y-85717981D01*
X110253122Y-85601219D01*
X110275762Y-85580581D01*
X110311282Y-85533545D01*
X110398673Y-85417821D01*
X110489582Y-85235250D01*
X110545397Y-85039083D01*
X110564215Y-84836000D01*
X110893785Y-84836000D01*
X110912602Y-85039082D01*
X110968417Y-85235247D01*
X110968422Y-85235260D01*
X111059327Y-85417821D01*
X111182237Y-85580581D01*
X111332958Y-85717980D01*
X111332960Y-85717982D01*
X111407185Y-85763940D01*
X111506363Y-85825348D01*
X111696544Y-85899024D01*
X111897024Y-85936500D01*
X111897026Y-85936500D01*
X112100974Y-85936500D01*
X112100976Y-85936500D01*
X112301456Y-85899024D01*
X112491637Y-85825348D01*
X112665041Y-85717981D01*
X112673052Y-85710678D01*
X113438500Y-85710678D01*
X113453032Y-85783735D01*
X113453033Y-85783739D01*
X113453034Y-85783740D01*
X113508399Y-85866601D01*
X113591259Y-85921966D01*
X113591260Y-85921966D01*
X113591264Y-85921967D01*
X113664321Y-85936499D01*
X113664324Y-85936500D01*
X113664326Y-85936500D01*
X115413676Y-85936500D01*
X115413677Y-85936499D01*
X115486740Y-85921966D01*
X115569601Y-85866601D01*
X115624966Y-85783740D01*
X115639500Y-85710674D01*
X115639500Y-83961326D01*
X115639500Y-83961325D01*
X115639500Y-83961323D01*
X115639499Y-83961321D01*
X115624967Y-83888264D01*
X115624966Y-83888260D01*
X115569601Y-83805399D01*
X115486740Y-83750034D01*
X115486739Y-83750033D01*
X115486735Y-83750032D01*
X115413677Y-83735500D01*
X115413674Y-83735500D01*
X113664326Y-83735500D01*
X113664323Y-83735500D01*
X113591264Y-83750032D01*
X113591260Y-83750033D01*
X113508399Y-83805399D01*
X113453033Y-83888260D01*
X113453032Y-83888264D01*
X113438500Y-83961321D01*
X113438500Y-85710678D01*
X112673052Y-85710678D01*
X112793122Y-85601219D01*
X112815762Y-85580581D01*
X112851282Y-85533545D01*
X112938673Y-85417821D01*
X113029582Y-85235250D01*
X113085397Y-85039083D01*
X113104215Y-84836000D01*
X113085397Y-84632917D01*
X113029582Y-84436750D01*
X113023850Y-84425239D01*
X112971349Y-84319802D01*
X112938673Y-84254179D01*
X112879704Y-84176091D01*
X112815762Y-84091418D01*
X112665041Y-83954019D01*
X112665039Y-83954017D01*
X112491642Y-83846655D01*
X112491635Y-83846651D01*
X112385150Y-83805399D01*
X112301456Y-83772976D01*
X112100976Y-83735500D01*
X111897024Y-83735500D01*
X111696544Y-83772976D01*
X111696541Y-83772976D01*
X111696541Y-83772977D01*
X111506364Y-83846651D01*
X111506357Y-83846655D01*
X111332960Y-83954017D01*
X111332958Y-83954019D01*
X111182237Y-84091418D01*
X111059327Y-84254178D01*
X110968422Y-84436739D01*
X110968417Y-84436752D01*
X110912602Y-84632917D01*
X110893785Y-84835999D01*
X110893785Y-84836000D01*
X110564215Y-84836000D01*
X110545397Y-84632917D01*
X110489582Y-84436750D01*
X110483850Y-84425239D01*
X110431349Y-84319802D01*
X110398673Y-84254179D01*
X110339704Y-84176091D01*
X110275762Y-84091418D01*
X110125041Y-83954019D01*
X110125039Y-83954017D01*
X109951642Y-83846655D01*
X109951635Y-83846651D01*
X109845150Y-83805399D01*
X109761456Y-83772976D01*
X109560976Y-83735500D01*
X109357024Y-83735500D01*
X109156544Y-83772976D01*
X109156541Y-83772976D01*
X109156541Y-83772977D01*
X108966364Y-83846651D01*
X108966357Y-83846655D01*
X108792960Y-83954017D01*
X108792958Y-83954019D01*
X108642237Y-84091418D01*
X108519327Y-84254178D01*
X108428422Y-84436739D01*
X108428417Y-84436752D01*
X108372602Y-84632917D01*
X108353785Y-84835999D01*
X108353785Y-84836000D01*
X101938494Y-84836000D01*
X102108643Y-84665851D01*
X102276273Y-84441924D01*
X102410329Y-84196419D01*
X102508081Y-83934335D01*
X102567540Y-83661008D01*
X102587495Y-83382000D01*
X102567540Y-83102992D01*
X102561542Y-83075421D01*
X102525736Y-82910824D01*
X102508081Y-82829665D01*
X102410329Y-82567581D01*
X102375382Y-82503581D01*
X102276276Y-82322081D01*
X102276271Y-82322073D01*
X102108649Y-82098156D01*
X102108633Y-82098138D01*
X101910861Y-81900366D01*
X101910843Y-81900350D01*
X101749891Y-81779863D01*
X103946500Y-81779863D01*
X103946501Y-81779882D01*
X103952908Y-81839481D01*
X104003202Y-81974327D01*
X104003203Y-81974328D01*
X104003204Y-81974330D01*
X104089454Y-82089546D01*
X104204670Y-82175796D01*
X104204671Y-82175796D01*
X104204672Y-82175797D01*
X104339518Y-82226091D01*
X104339517Y-82226091D01*
X104346445Y-82226835D01*
X104399128Y-82232500D01*
X104399137Y-82232500D01*
X105494863Y-82232500D01*
X105494872Y-82232500D01*
X105554482Y-82226091D01*
X105689330Y-82175796D01*
X105804546Y-82089546D01*
X105890796Y-81974330D01*
X105941091Y-81839482D01*
X105947500Y-81779872D01*
X105947500Y-81232000D01*
X106941659Y-81232000D01*
X106960975Y-81428129D01*
X106960976Y-81428132D01*
X107017534Y-81614579D01*
X107018188Y-81616733D01*
X107111086Y-81790532D01*
X107111090Y-81790539D01*
X107236116Y-81942883D01*
X107388460Y-82067909D01*
X107388467Y-82067913D01*
X107562266Y-82160811D01*
X107562269Y-82160811D01*
X107562273Y-82160814D01*
X107750868Y-82218024D01*
X107947000Y-82237341D01*
X108143132Y-82218024D01*
X108331727Y-82160814D01*
X108505538Y-82067910D01*
X108657883Y-81942883D01*
X108782910Y-81790538D01*
X108875814Y-81616727D01*
X108933024Y-81428132D01*
X108952341Y-81232000D01*
X108933024Y-81035868D01*
X108875814Y-80847273D01*
X108875811Y-80847269D01*
X108875811Y-80847266D01*
X108782913Y-80673467D01*
X108782909Y-80673460D01*
X108657883Y-80521116D01*
X108505539Y-80396090D01*
X108505532Y-80396086D01*
X108331733Y-80303188D01*
X108331727Y-80303186D01*
X108204273Y-80264523D01*
X108143129Y-80245975D01*
X107947000Y-80226659D01*
X107750870Y-80245975D01*
X107562266Y-80303188D01*
X107388467Y-80396086D01*
X107388460Y-80396090D01*
X107236116Y-80521116D01*
X107111090Y-80673460D01*
X107111086Y-80673467D01*
X107018188Y-80847266D01*
X106960975Y-81035870D01*
X106941659Y-81232000D01*
X105947500Y-81232000D01*
X105947500Y-80684128D01*
X105941091Y-80624518D01*
X105905721Y-80529685D01*
X105890797Y-80489672D01*
X105890796Y-80489671D01*
X105890796Y-80489670D01*
X105804546Y-80374454D01*
X105689330Y-80288204D01*
X105689328Y-80288203D01*
X105689327Y-80288202D01*
X105554481Y-80237908D01*
X105554482Y-80237908D01*
X105494882Y-80231501D01*
X105494880Y-80231500D01*
X105494872Y-80231500D01*
X104399128Y-80231500D01*
X104399120Y-80231500D01*
X104399117Y-80231501D01*
X104339518Y-80237908D01*
X104204672Y-80288202D01*
X104204670Y-80288204D01*
X104089454Y-80374454D01*
X104003204Y-80489670D01*
X104003202Y-80489672D01*
X103952908Y-80624518D01*
X103946501Y-80684117D01*
X103946500Y-80684136D01*
X103946500Y-81779863D01*
X101749891Y-81779863D01*
X101686926Y-81732728D01*
X101686918Y-81732723D01*
X101441424Y-81598673D01*
X101441420Y-81598671D01*
X101342059Y-81561611D01*
X101179335Y-81500919D01*
X101179331Y-81500918D01*
X101179328Y-81500917D01*
X100906013Y-81441460D01*
X100627001Y-81421505D01*
X100626999Y-81421505D01*
X100347986Y-81441460D01*
X100074671Y-81500917D01*
X100074666Y-81500918D01*
X100074665Y-81500919D01*
X100024003Y-81519815D01*
X99812579Y-81598671D01*
X99812575Y-81598673D01*
X99567081Y-81732723D01*
X99567073Y-81732728D01*
X99343156Y-81900350D01*
X99343138Y-81900366D01*
X99145366Y-82098138D01*
X99145350Y-82098156D01*
X98977728Y-82322073D01*
X98977723Y-82322081D01*
X98843673Y-82567575D01*
X98843671Y-82567579D01*
X98745917Y-82829671D01*
X98686460Y-83102986D01*
X98666505Y-83381998D01*
X98666505Y-83382001D01*
X98140500Y-83382001D01*
X98140500Y-80010000D01*
X116753721Y-80010000D01*
X116772762Y-80166818D01*
X116819727Y-80290652D01*
X116828780Y-80314523D01*
X116918517Y-80444530D01*
X117036760Y-80549283D01*
X117036762Y-80549284D01*
X117176634Y-80622696D01*
X117330014Y-80660500D01*
X117330015Y-80660500D01*
X117487985Y-80660500D01*
X117641365Y-80622696D01*
X117664602Y-80610500D01*
X117781240Y-80549283D01*
X117899483Y-80444530D01*
X117989220Y-80314523D01*
X118045237Y-80166818D01*
X118064278Y-80010000D01*
X118058207Y-79960000D01*
X121913721Y-79960000D01*
X121932762Y-80116818D01*
X121988780Y-80264523D01*
X122078517Y-80394530D01*
X122196760Y-80499283D01*
X122196762Y-80499284D01*
X122336634Y-80572696D01*
X122490014Y-80610500D01*
X122490015Y-80610500D01*
X122647985Y-80610500D01*
X122801365Y-80572696D01*
X122845974Y-80549283D01*
X122941240Y-80499283D01*
X123059483Y-80394530D01*
X123149220Y-80264523D01*
X123205237Y-80116818D01*
X123224278Y-79960000D01*
X123205237Y-79803182D01*
X123205176Y-79803022D01*
X123183992Y-79747163D01*
X123149220Y-79655477D01*
X123059483Y-79525470D01*
X122941240Y-79420717D01*
X122941238Y-79420716D01*
X122941237Y-79420715D01*
X122801365Y-79347303D01*
X122647986Y-79309500D01*
X122647985Y-79309500D01*
X122490015Y-79309500D01*
X122490014Y-79309500D01*
X122336634Y-79347303D01*
X122196762Y-79420715D01*
X122078516Y-79525471D01*
X121988781Y-79655475D01*
X121988780Y-79655476D01*
X121932762Y-79803181D01*
X121913721Y-79959999D01*
X121913721Y-79960000D01*
X118058207Y-79960000D01*
X118045237Y-79853182D01*
X118040427Y-79840500D01*
X118023992Y-79797163D01*
X117989220Y-79705477D01*
X117899483Y-79575470D01*
X117781240Y-79470717D01*
X117781238Y-79470716D01*
X117781237Y-79470715D01*
X117641365Y-79397303D01*
X117487986Y-79359500D01*
X117487985Y-79359500D01*
X117330015Y-79359500D01*
X117330014Y-79359500D01*
X117176634Y-79397303D01*
X117036762Y-79470715D01*
X116918516Y-79575471D01*
X116828781Y-79705475D01*
X116828780Y-79705476D01*
X116772762Y-79853181D01*
X116753721Y-80009999D01*
X116753721Y-80010000D01*
X98140500Y-80010000D01*
X98140500Y-76472688D01*
X121484818Y-76472688D01*
X121505455Y-76629447D01*
X121505456Y-76629449D01*
X121565964Y-76775528D01*
X121662218Y-76900969D01*
X121787659Y-76997223D01*
X121933738Y-77057731D01*
X122090500Y-77078369D01*
X122127077Y-77073553D01*
X122196109Y-77084318D01*
X122230942Y-77108811D01*
X122915323Y-77793192D01*
X122948808Y-77854515D01*
X122943824Y-77924207D01*
X122942205Y-77928322D01*
X122933956Y-77948237D01*
X122933955Y-77948239D01*
X122913318Y-78104998D01*
X122913318Y-78105001D01*
X122933955Y-78261760D01*
X122933956Y-78261762D01*
X122994464Y-78407841D01*
X123090718Y-78533282D01*
X123216159Y-78629536D01*
X123362238Y-78690044D01*
X123440618Y-78700363D01*
X123518999Y-78710682D01*
X123519000Y-78710682D01*
X123519001Y-78710682D01*
X123571254Y-78703802D01*
X123675762Y-78690044D01*
X123821841Y-78629536D01*
X123947282Y-78533282D01*
X124043536Y-78407841D01*
X124104044Y-78261762D01*
X124107961Y-78232007D01*
X129570671Y-78232007D01*
X129589964Y-78526363D01*
X129589965Y-78526373D01*
X129589966Y-78526380D01*
X129635294Y-78754264D01*
X129647518Y-78815716D01*
X129647521Y-78815730D01*
X129742349Y-79095080D01*
X129872825Y-79359660D01*
X129872829Y-79359667D01*
X130036725Y-79604955D01*
X130231241Y-79826758D01*
X130453044Y-80021274D01*
X130596036Y-80116818D01*
X130698335Y-80185172D01*
X130962923Y-80315652D01*
X131242278Y-80410481D01*
X131531620Y-80468034D01*
X131559888Y-80469886D01*
X131825993Y-80487329D01*
X131826000Y-80487329D01*
X131826007Y-80487329D01*
X131988494Y-80476678D01*
X137735500Y-80476678D01*
X137750032Y-80549735D01*
X137750033Y-80549739D01*
X137750034Y-80549740D01*
X137805399Y-80632601D01*
X137882516Y-80684128D01*
X137888260Y-80687966D01*
X137888264Y-80687967D01*
X137961321Y-80702499D01*
X137961324Y-80702500D01*
X137961326Y-80702500D01*
X139610676Y-80702500D01*
X139610677Y-80702499D01*
X139683740Y-80687966D01*
X139766601Y-80632601D01*
X139821966Y-80549740D01*
X139836500Y-80476674D01*
X139836500Y-79652000D01*
X140500417Y-79652000D01*
X140500864Y-79656542D01*
X140520699Y-79857932D01*
X140520700Y-79857934D01*
X140580768Y-80055954D01*
X140678315Y-80238450D01*
X140699713Y-80264524D01*
X140809589Y-80398410D01*
X140894429Y-80468035D01*
X140969550Y-80529685D01*
X141152046Y-80627232D01*
X141350066Y-80687300D01*
X141350065Y-80687300D01*
X141368529Y-80689118D01*
X141556000Y-80707583D01*
X141761934Y-80687300D01*
X141959954Y-80627232D01*
X142142450Y-80529685D01*
X142302410Y-80398410D01*
X142433685Y-80238450D01*
X142531232Y-80055954D01*
X142591300Y-79857934D01*
X142611583Y-79652000D01*
X143270417Y-79652000D01*
X143270864Y-79656542D01*
X143290699Y-79857932D01*
X143290700Y-79857934D01*
X143350768Y-80055954D01*
X143448315Y-80238450D01*
X143469713Y-80264524D01*
X143579589Y-80398410D01*
X143664429Y-80468035D01*
X143739550Y-80529685D01*
X143922046Y-80627232D01*
X144120066Y-80687300D01*
X144120065Y-80687300D01*
X144138529Y-80689118D01*
X144326000Y-80707583D01*
X144531934Y-80687300D01*
X144729954Y-80627232D01*
X144912450Y-80529685D01*
X145072410Y-80398410D01*
X145203685Y-80238450D01*
X145301232Y-80055954D01*
X145361300Y-79857934D01*
X145381583Y-79652000D01*
X146040417Y-79652000D01*
X146040864Y-79656542D01*
X146060699Y-79857932D01*
X146060700Y-79857934D01*
X146120768Y-80055954D01*
X146218315Y-80238450D01*
X146239713Y-80264524D01*
X146349589Y-80398410D01*
X146434429Y-80468035D01*
X146509550Y-80529685D01*
X146692046Y-80627232D01*
X146890066Y-80687300D01*
X146890065Y-80687300D01*
X146908529Y-80689118D01*
X147096000Y-80707583D01*
X147301934Y-80687300D01*
X147499954Y-80627232D01*
X147682450Y-80529685D01*
X147842410Y-80398410D01*
X147973685Y-80238450D01*
X148071232Y-80055954D01*
X148131300Y-79857934D01*
X148151583Y-79652000D01*
X148810417Y-79652000D01*
X148810864Y-79656542D01*
X148830699Y-79857932D01*
X148830700Y-79857934D01*
X148890768Y-80055954D01*
X148988315Y-80238450D01*
X149009713Y-80264524D01*
X149119589Y-80398410D01*
X149204429Y-80468035D01*
X149279550Y-80529685D01*
X149462046Y-80627232D01*
X149660066Y-80687300D01*
X149660065Y-80687300D01*
X149678529Y-80689118D01*
X149866000Y-80707583D01*
X150071934Y-80687300D01*
X150269954Y-80627232D01*
X150452450Y-80529685D01*
X150612410Y-80398410D01*
X150743685Y-80238450D01*
X150841232Y-80055954D01*
X150901300Y-79857934D01*
X150921583Y-79652000D01*
X150901300Y-79446066D01*
X150841232Y-79248046D01*
X150743685Y-79065550D01*
X150643179Y-78943082D01*
X150612410Y-78905589D01*
X150452452Y-78774317D01*
X150452453Y-78774317D01*
X150452450Y-78774315D01*
X150269954Y-78676768D01*
X150071934Y-78616700D01*
X150071932Y-78616699D01*
X150071934Y-78616699D01*
X149884463Y-78598235D01*
X149866000Y-78596417D01*
X149865999Y-78596417D01*
X149660067Y-78616699D01*
X149462043Y-78676769D01*
X149351898Y-78735643D01*
X149279550Y-78774315D01*
X149279548Y-78774316D01*
X149279547Y-78774317D01*
X149119589Y-78905589D01*
X148988317Y-79065547D01*
X148988315Y-79065550D01*
X148972531Y-79095080D01*
X148890769Y-79248043D01*
X148830699Y-79446067D01*
X148811797Y-79637986D01*
X148810417Y-79652000D01*
X148151583Y-79652000D01*
X148131300Y-79446066D01*
X148071232Y-79248046D01*
X147973685Y-79065550D01*
X147873179Y-78943082D01*
X147842410Y-78905589D01*
X147682452Y-78774317D01*
X147682453Y-78774317D01*
X147682450Y-78774315D01*
X147499954Y-78676768D01*
X147301934Y-78616700D01*
X147301932Y-78616699D01*
X147301934Y-78616699D01*
X147096000Y-78596417D01*
X146890067Y-78616699D01*
X146692043Y-78676769D01*
X146581897Y-78735643D01*
X146509550Y-78774315D01*
X146509548Y-78774316D01*
X146509547Y-78774317D01*
X146349589Y-78905589D01*
X146218317Y-79065547D01*
X146218315Y-79065550D01*
X146202531Y-79095080D01*
X146120769Y-79248043D01*
X146060699Y-79446067D01*
X146041797Y-79637986D01*
X146040417Y-79652000D01*
X145381583Y-79652000D01*
X145361300Y-79446066D01*
X145301232Y-79248046D01*
X145203685Y-79065550D01*
X145103179Y-78943082D01*
X145072410Y-78905589D01*
X144912452Y-78774317D01*
X144912453Y-78774317D01*
X144912450Y-78774315D01*
X144729954Y-78676768D01*
X144531934Y-78616700D01*
X144531932Y-78616699D01*
X144531934Y-78616699D01*
X144326000Y-78596417D01*
X144120067Y-78616699D01*
X143922043Y-78676769D01*
X143811898Y-78735643D01*
X143739550Y-78774315D01*
X143739548Y-78774316D01*
X143739547Y-78774317D01*
X143579589Y-78905589D01*
X143448317Y-79065547D01*
X143448315Y-79065550D01*
X143432531Y-79095080D01*
X143350769Y-79248043D01*
X143290699Y-79446067D01*
X143271797Y-79637986D01*
X143270417Y-79652000D01*
X142611583Y-79652000D01*
X142591300Y-79446066D01*
X142531232Y-79248046D01*
X142433685Y-79065550D01*
X142333179Y-78943082D01*
X142302410Y-78905589D01*
X142142452Y-78774317D01*
X142142453Y-78774317D01*
X142142450Y-78774315D01*
X141959954Y-78676768D01*
X141761934Y-78616700D01*
X141761932Y-78616699D01*
X141761934Y-78616699D01*
X141556000Y-78596417D01*
X141350067Y-78616699D01*
X141152043Y-78676769D01*
X141041897Y-78735643D01*
X140969550Y-78774315D01*
X140969548Y-78774316D01*
X140969547Y-78774317D01*
X140809589Y-78905589D01*
X140678317Y-79065547D01*
X140678315Y-79065550D01*
X140662531Y-79095080D01*
X140580769Y-79248043D01*
X140520699Y-79446067D01*
X140501797Y-79637986D01*
X140500417Y-79652000D01*
X139836500Y-79652000D01*
X139836500Y-78827326D01*
X139836500Y-78827323D01*
X139836499Y-78827321D01*
X139821967Y-78754264D01*
X139821966Y-78754260D01*
X139812437Y-78739999D01*
X139766601Y-78671399D01*
X139684737Y-78616700D01*
X139683739Y-78616033D01*
X139683735Y-78616032D01*
X139610677Y-78601500D01*
X139610674Y-78601500D01*
X137961326Y-78601500D01*
X137961323Y-78601500D01*
X137888264Y-78616032D01*
X137888260Y-78616033D01*
X137805399Y-78671399D01*
X137750033Y-78754260D01*
X137750032Y-78754264D01*
X137735500Y-78827321D01*
X137735500Y-80476678D01*
X131988494Y-80476678D01*
X132061675Y-80471881D01*
X132120380Y-80468034D01*
X132409722Y-80410481D01*
X132689077Y-80315652D01*
X132953665Y-80185172D01*
X133198957Y-80021273D01*
X133420758Y-79826758D01*
X133615273Y-79604957D01*
X133779172Y-79359665D01*
X133909652Y-79095077D01*
X134004481Y-78815722D01*
X134062034Y-78526380D01*
X134074202Y-78340739D01*
X134081329Y-78232007D01*
X154570671Y-78232007D01*
X154589964Y-78526363D01*
X154589965Y-78526373D01*
X154589966Y-78526380D01*
X154635294Y-78754264D01*
X154647518Y-78815716D01*
X154647521Y-78815730D01*
X154742349Y-79095080D01*
X154872825Y-79359660D01*
X154872829Y-79359667D01*
X155036725Y-79604955D01*
X155231241Y-79826758D01*
X155453044Y-80021274D01*
X155596036Y-80116818D01*
X155698335Y-80185172D01*
X155962923Y-80315652D01*
X156242278Y-80410481D01*
X156531620Y-80468034D01*
X156559888Y-80469886D01*
X156825993Y-80487329D01*
X156826000Y-80487329D01*
X156826007Y-80487329D01*
X157061675Y-80471881D01*
X157120380Y-80468034D01*
X157409722Y-80410481D01*
X157689077Y-80315652D01*
X157953665Y-80185172D01*
X158198957Y-80021273D01*
X158420758Y-79826758D01*
X158615273Y-79604957D01*
X158779172Y-79359665D01*
X158909652Y-79095077D01*
X159004481Y-78815722D01*
X159062034Y-78526380D01*
X159074202Y-78340739D01*
X159081329Y-78232007D01*
X159081329Y-78231992D01*
X159062035Y-77937636D01*
X159062034Y-77937620D01*
X159004481Y-77648278D01*
X158909652Y-77368923D01*
X158779172Y-77104336D01*
X158765796Y-77084318D01*
X158672426Y-76944579D01*
X158615273Y-76859043D01*
X158542030Y-76775526D01*
X158420758Y-76637241D01*
X158198955Y-76442725D01*
X157953667Y-76278829D01*
X157953660Y-76278825D01*
X157689080Y-76148349D01*
X157409730Y-76053521D01*
X157409724Y-76053519D01*
X157409722Y-76053519D01*
X157120380Y-75995966D01*
X157120373Y-75995965D01*
X157120363Y-75995964D01*
X156826007Y-75976671D01*
X156825993Y-75976671D01*
X156531636Y-75995964D01*
X156531624Y-75995965D01*
X156531620Y-75995966D01*
X156531612Y-75995967D01*
X156531609Y-75995968D01*
X156242283Y-76053518D01*
X156242269Y-76053521D01*
X155962919Y-76148349D01*
X155698334Y-76278828D01*
X155453041Y-76442728D01*
X155231241Y-76637241D01*
X155036728Y-76859041D01*
X154872828Y-77104334D01*
X154742349Y-77368919D01*
X154647521Y-77648269D01*
X154647518Y-77648283D01*
X154589968Y-77937609D01*
X154589964Y-77937636D01*
X154570671Y-78231992D01*
X154570671Y-78232007D01*
X134081329Y-78232007D01*
X134081329Y-78231992D01*
X134062035Y-77937636D01*
X134062034Y-77937620D01*
X134004481Y-77648278D01*
X133909652Y-77368923D01*
X133779172Y-77104336D01*
X133765796Y-77084318D01*
X133672426Y-76944579D01*
X133615273Y-76859043D01*
X133574017Y-76812000D01*
X139115417Y-76812000D01*
X139135699Y-77017932D01*
X139155837Y-77084318D01*
X139195768Y-77215954D01*
X139293315Y-77398450D01*
X139293317Y-77398452D01*
X139424589Y-77558410D01*
X139521209Y-77637702D01*
X139584550Y-77689685D01*
X139767046Y-77787232D01*
X139965066Y-77847300D01*
X139965065Y-77847300D01*
X139985347Y-77849297D01*
X140171000Y-77867583D01*
X140376934Y-77847300D01*
X140574954Y-77787232D01*
X140757450Y-77689685D01*
X140917410Y-77558410D01*
X141048685Y-77398450D01*
X141146232Y-77215954D01*
X141206300Y-77017934D01*
X141226583Y-76812000D01*
X141885417Y-76812000D01*
X141905699Y-77017932D01*
X141925837Y-77084318D01*
X141965768Y-77215954D01*
X142063315Y-77398450D01*
X142063317Y-77398452D01*
X142194589Y-77558410D01*
X142291209Y-77637702D01*
X142354550Y-77689685D01*
X142537046Y-77787232D01*
X142735066Y-77847300D01*
X142735065Y-77847300D01*
X142753529Y-77849118D01*
X142941000Y-77867583D01*
X143146934Y-77847300D01*
X143344954Y-77787232D01*
X143527450Y-77689685D01*
X143687410Y-77558410D01*
X143818685Y-77398450D01*
X143916232Y-77215954D01*
X143976300Y-77017934D01*
X143996583Y-76812000D01*
X144655417Y-76812000D01*
X144675699Y-77017932D01*
X144695837Y-77084318D01*
X144735768Y-77215954D01*
X144833315Y-77398450D01*
X144833317Y-77398452D01*
X144964589Y-77558410D01*
X145061209Y-77637702D01*
X145124550Y-77689685D01*
X145307046Y-77787232D01*
X145505066Y-77847300D01*
X145505065Y-77847300D01*
X145525348Y-77849297D01*
X145711000Y-77867583D01*
X145916934Y-77847300D01*
X146114954Y-77787232D01*
X146297450Y-77689685D01*
X146457410Y-77558410D01*
X146588685Y-77398450D01*
X146686232Y-77215954D01*
X146746300Y-77017934D01*
X146766583Y-76812000D01*
X147425417Y-76812000D01*
X147445699Y-77017932D01*
X147465837Y-77084318D01*
X147505768Y-77215954D01*
X147603315Y-77398450D01*
X147603317Y-77398452D01*
X147734589Y-77558410D01*
X147831209Y-77637702D01*
X147894550Y-77689685D01*
X148077046Y-77787232D01*
X148275066Y-77847300D01*
X148275065Y-77847300D01*
X148293529Y-77849118D01*
X148481000Y-77867583D01*
X148686934Y-77847300D01*
X148884954Y-77787232D01*
X149067450Y-77689685D01*
X149227410Y-77558410D01*
X149358685Y-77398450D01*
X149456232Y-77215954D01*
X149516300Y-77017934D01*
X149536583Y-76812000D01*
X149516300Y-76606066D01*
X149456232Y-76408046D01*
X149358685Y-76225550D01*
X149295327Y-76148348D01*
X149227410Y-76065589D01*
X149067452Y-75934317D01*
X149067453Y-75934317D01*
X149067450Y-75934315D01*
X148884954Y-75836768D01*
X148686934Y-75776700D01*
X148686932Y-75776699D01*
X148686934Y-75776699D01*
X148481000Y-75756417D01*
X148275067Y-75776699D01*
X148077043Y-75836769D01*
X147981868Y-75887642D01*
X147894550Y-75934315D01*
X147894548Y-75934316D01*
X147894547Y-75934317D01*
X147734589Y-76065589D01*
X147603317Y-76225547D01*
X147505769Y-76408043D01*
X147445699Y-76606067D01*
X147425417Y-76812000D01*
X146766583Y-76812000D01*
X146746300Y-76606066D01*
X146686232Y-76408046D01*
X146588685Y-76225550D01*
X146525327Y-76148348D01*
X146457410Y-76065589D01*
X146297452Y-75934317D01*
X146297453Y-75934317D01*
X146297450Y-75934315D01*
X146114954Y-75836768D01*
X145916934Y-75776700D01*
X145916932Y-75776699D01*
X145916934Y-75776699D01*
X145711000Y-75756417D01*
X145505067Y-75776699D01*
X145307043Y-75836769D01*
X145211868Y-75887642D01*
X145124550Y-75934315D01*
X145124548Y-75934316D01*
X145124547Y-75934317D01*
X144964589Y-76065589D01*
X144833317Y-76225547D01*
X144735769Y-76408043D01*
X144675699Y-76606067D01*
X144655417Y-76812000D01*
X143996583Y-76812000D01*
X143976300Y-76606066D01*
X143916232Y-76408046D01*
X143818685Y-76225550D01*
X143755327Y-76148348D01*
X143687410Y-76065589D01*
X143527452Y-75934317D01*
X143527453Y-75934317D01*
X143527450Y-75934315D01*
X143344954Y-75836768D01*
X143146934Y-75776700D01*
X143146932Y-75776699D01*
X143146934Y-75776699D01*
X142959463Y-75758235D01*
X142941000Y-75756417D01*
X142940999Y-75756417D01*
X142735067Y-75776699D01*
X142537043Y-75836769D01*
X142441868Y-75887642D01*
X142354550Y-75934315D01*
X142354548Y-75934316D01*
X142354547Y-75934317D01*
X142194589Y-76065589D01*
X142063317Y-76225547D01*
X141965769Y-76408043D01*
X141905699Y-76606067D01*
X141885417Y-76812000D01*
X141226583Y-76812000D01*
X141206300Y-76606066D01*
X141146232Y-76408046D01*
X141048685Y-76225550D01*
X140985327Y-76148348D01*
X140917410Y-76065589D01*
X140757452Y-75934317D01*
X140757453Y-75934317D01*
X140757450Y-75934315D01*
X140574954Y-75836768D01*
X140376934Y-75776700D01*
X140376932Y-75776699D01*
X140376934Y-75776699D01*
X140189463Y-75758235D01*
X140171000Y-75756417D01*
X140170999Y-75756417D01*
X139965067Y-75776699D01*
X139767043Y-75836769D01*
X139671868Y-75887642D01*
X139584550Y-75934315D01*
X139584548Y-75934316D01*
X139584547Y-75934317D01*
X139424589Y-76065589D01*
X139293317Y-76225547D01*
X139195769Y-76408043D01*
X139135699Y-76606067D01*
X139115417Y-76812000D01*
X133574017Y-76812000D01*
X133542030Y-76775526D01*
X133420758Y-76637241D01*
X133198955Y-76442725D01*
X132953667Y-76278829D01*
X132953660Y-76278825D01*
X132689080Y-76148349D01*
X132409730Y-76053521D01*
X132409724Y-76053519D01*
X132409722Y-76053519D01*
X132120380Y-75995966D01*
X132120373Y-75995965D01*
X132120363Y-75995964D01*
X131826007Y-75976671D01*
X131825993Y-75976671D01*
X131531636Y-75995964D01*
X131531624Y-75995965D01*
X131531620Y-75995966D01*
X131531612Y-75995967D01*
X131531609Y-75995968D01*
X131242283Y-76053518D01*
X131242269Y-76053521D01*
X130962919Y-76148349D01*
X130698334Y-76278828D01*
X130453041Y-76442728D01*
X130231241Y-76637241D01*
X130036728Y-76859041D01*
X129872828Y-77104334D01*
X129742349Y-77368919D01*
X129647521Y-77648269D01*
X129647518Y-77648283D01*
X129589968Y-77937609D01*
X129589964Y-77937636D01*
X129570671Y-78231992D01*
X129570671Y-78232007D01*
X124107961Y-78232007D01*
X124124682Y-78105000D01*
X124104044Y-77948238D01*
X124043536Y-77802159D01*
X123947282Y-77676718D01*
X123821841Y-77580464D01*
X123675762Y-77519956D01*
X123668764Y-77519034D01*
X123604869Y-77490767D01*
X123597272Y-77483777D01*
X122726624Y-76613129D01*
X122693139Y-76551806D01*
X122691366Y-76509266D01*
X122696182Y-76472687D01*
X122675544Y-76315925D01*
X122615036Y-76169846D01*
X122518782Y-76044405D01*
X122393341Y-75948151D01*
X122285662Y-75903549D01*
X122247262Y-75887643D01*
X122247260Y-75887642D01*
X122090501Y-75867005D01*
X122090499Y-75867005D01*
X121933739Y-75887642D01*
X121933737Y-75887643D01*
X121787660Y-75948150D01*
X121662218Y-76044405D01*
X121565963Y-76169847D01*
X121505456Y-76315924D01*
X121505455Y-76315926D01*
X121484818Y-76472685D01*
X121484818Y-76472688D01*
X98140500Y-76472688D01*
X98140500Y-75232000D01*
X103941659Y-75232000D01*
X103960975Y-75428129D01*
X104018188Y-75616733D01*
X104111086Y-75790532D01*
X104111090Y-75790539D01*
X104236116Y-75942883D01*
X104388460Y-76067909D01*
X104388467Y-76067913D01*
X104562266Y-76160811D01*
X104562269Y-76160811D01*
X104562273Y-76160814D01*
X104750868Y-76218024D01*
X104947000Y-76237341D01*
X105143132Y-76218024D01*
X105331727Y-76160814D01*
X105355048Y-76148349D01*
X105505532Y-76067913D01*
X105505538Y-76067910D01*
X105657883Y-75942883D01*
X105782910Y-75790538D01*
X105875038Y-75618179D01*
X105875811Y-75616733D01*
X105875811Y-75616732D01*
X105875814Y-75616727D01*
X105933024Y-75428132D01*
X105952341Y-75232000D01*
X106941659Y-75232000D01*
X106960975Y-75428129D01*
X107018188Y-75616733D01*
X107111086Y-75790532D01*
X107111090Y-75790539D01*
X107236116Y-75942883D01*
X107388460Y-76067909D01*
X107388467Y-76067913D01*
X107562266Y-76160811D01*
X107562269Y-76160811D01*
X107562273Y-76160814D01*
X107750868Y-76218024D01*
X107947000Y-76237341D01*
X108143132Y-76218024D01*
X108331727Y-76160814D01*
X108355048Y-76148349D01*
X108505532Y-76067913D01*
X108505538Y-76067910D01*
X108657883Y-75942883D01*
X108782910Y-75790538D01*
X108875038Y-75618179D01*
X108875811Y-75616733D01*
X108875811Y-75616732D01*
X108875814Y-75616727D01*
X108933024Y-75428132D01*
X108937127Y-75386469D01*
X118810796Y-75386469D01*
X118810797Y-75386471D01*
X118840245Y-75553485D01*
X118840246Y-75553488D01*
X118840247Y-75553492D01*
X118907421Y-75709219D01*
X119008698Y-75845258D01*
X119138617Y-75954273D01*
X119290175Y-76030388D01*
X119455201Y-76069500D01*
X119455203Y-76069500D01*
X119882249Y-76069500D01*
X119882256Y-76069500D01*
X120008451Y-76054750D01*
X120167820Y-75996744D01*
X120309517Y-75903549D01*
X120425902Y-75780188D01*
X120510701Y-75633312D01*
X120559342Y-75470839D01*
X120564256Y-75386469D01*
X123810796Y-75386469D01*
X123810797Y-75386471D01*
X123840245Y-75553485D01*
X123840246Y-75553488D01*
X123840247Y-75553492D01*
X123907421Y-75709219D01*
X124008698Y-75845258D01*
X124138617Y-75954273D01*
X124290175Y-76030388D01*
X124455201Y-76069500D01*
X124455203Y-76069500D01*
X124882249Y-76069500D01*
X124882256Y-76069500D01*
X125008451Y-76054750D01*
X125167820Y-75996744D01*
X125309517Y-75903549D01*
X125425902Y-75780188D01*
X125510701Y-75633312D01*
X125559342Y-75470839D01*
X125568651Y-75311000D01*
X161777722Y-75311000D01*
X161796762Y-75467818D01*
X161852780Y-75615523D01*
X161942517Y-75745530D01*
X162060760Y-75850283D01*
X162060762Y-75850284D01*
X162200634Y-75923696D01*
X162354014Y-75961500D01*
X162354015Y-75961500D01*
X162511985Y-75961500D01*
X162665365Y-75923696D01*
X162734059Y-75887642D01*
X162805240Y-75850283D01*
X162923483Y-75745530D01*
X163013220Y-75615523D01*
X163069237Y-75467818D01*
X163088278Y-75311000D01*
X163076885Y-75217165D01*
X163069237Y-75154181D01*
X163031503Y-75054685D01*
X163013220Y-75006477D01*
X162923483Y-74876470D01*
X162805240Y-74771717D01*
X162805238Y-74771716D01*
X162805237Y-74771715D01*
X162665365Y-74698303D01*
X162511986Y-74660500D01*
X162511985Y-74660500D01*
X162354015Y-74660500D01*
X162354014Y-74660500D01*
X162200634Y-74698303D01*
X162060762Y-74771715D01*
X162024448Y-74803886D01*
X161945370Y-74873943D01*
X161942516Y-74876471D01*
X161852781Y-75006475D01*
X161852780Y-75006476D01*
X161796762Y-75154181D01*
X161777722Y-75310999D01*
X161777722Y-75311000D01*
X125568651Y-75311000D01*
X125569203Y-75301529D01*
X125539753Y-75134508D01*
X125472579Y-74978781D01*
X125371302Y-74842742D01*
X125338843Y-74815506D01*
X125241383Y-74733727D01*
X125241381Y-74733726D01*
X125089828Y-74657613D01*
X125089826Y-74657612D01*
X125089825Y-74657612D01*
X124924799Y-74618500D01*
X124497744Y-74618500D01*
X124387323Y-74631406D01*
X124371548Y-74633250D01*
X124212181Y-74691255D01*
X124176132Y-74714965D01*
X124070483Y-74784451D01*
X124070482Y-74784451D01*
X124070482Y-74784452D01*
X123954098Y-74907810D01*
X123869300Y-75054685D01*
X123820658Y-75217159D01*
X123820657Y-75217165D01*
X123810796Y-75386469D01*
X120564256Y-75386469D01*
X120569203Y-75301529D01*
X120539753Y-75134508D01*
X120472579Y-74978781D01*
X120371302Y-74842742D01*
X120338843Y-74815506D01*
X120241383Y-74733727D01*
X120241381Y-74733726D01*
X120089828Y-74657613D01*
X120089826Y-74657612D01*
X120089825Y-74657612D01*
X119924799Y-74618500D01*
X119497744Y-74618500D01*
X119387323Y-74631406D01*
X119371548Y-74633250D01*
X119212181Y-74691255D01*
X119176132Y-74714965D01*
X119070483Y-74784451D01*
X119070482Y-74784451D01*
X119070482Y-74784452D01*
X118954098Y-74907810D01*
X118869300Y-75054685D01*
X118820658Y-75217159D01*
X118820657Y-75217165D01*
X118810796Y-75386469D01*
X108937127Y-75386469D01*
X108952341Y-75232000D01*
X108933024Y-75035868D01*
X108875814Y-74847273D01*
X108875811Y-74847269D01*
X108875811Y-74847266D01*
X108782913Y-74673467D01*
X108782909Y-74673460D01*
X108657883Y-74521116D01*
X108505539Y-74396090D01*
X108505532Y-74396086D01*
X108331733Y-74303188D01*
X108331727Y-74303186D01*
X108143132Y-74245976D01*
X108143129Y-74245975D01*
X107947000Y-74226659D01*
X107750870Y-74245975D01*
X107562266Y-74303188D01*
X107388467Y-74396086D01*
X107388460Y-74396090D01*
X107236116Y-74521116D01*
X107111090Y-74673460D01*
X107111086Y-74673467D01*
X107018188Y-74847266D01*
X106960975Y-75035870D01*
X106941659Y-75232000D01*
X105952341Y-75232000D01*
X105933024Y-75035868D01*
X105875814Y-74847273D01*
X105875811Y-74847269D01*
X105875811Y-74847266D01*
X105782913Y-74673467D01*
X105782909Y-74673460D01*
X105657883Y-74521116D01*
X105505539Y-74396090D01*
X105505532Y-74396086D01*
X105331733Y-74303188D01*
X105331727Y-74303186D01*
X105143132Y-74245976D01*
X105143129Y-74245975D01*
X104947000Y-74226659D01*
X104750870Y-74245975D01*
X104562266Y-74303188D01*
X104388467Y-74396086D01*
X104388460Y-74396090D01*
X104236116Y-74521116D01*
X104111090Y-74673460D01*
X104111086Y-74673467D01*
X104018188Y-74847266D01*
X103960975Y-75035870D01*
X103941659Y-75232000D01*
X98140500Y-75232000D01*
X98140500Y-71154500D01*
X98160185Y-71087461D01*
X98212989Y-71041706D01*
X98264500Y-71030500D01*
X99844290Y-71030500D01*
X99911329Y-71050185D01*
G37*
%TD.AperFunction*%
%TD*%
M02*
