%TF.GenerationSoftware,KiCad,Pcbnew,7.0.6*%
%TF.CreationDate,2024-02-06T22:27:34-07:00*%
%TF.ProjectId,Batt-Power-Prototype-2023_Lucy_V1,42617474-2d50-46f7-9765-722d50726f74,rev?*%
%TF.SameCoordinates,Original*%
%TF.FileFunction,Paste,Top*%
%TF.FilePolarity,Positive*%
%FSLAX46Y46*%
G04 Gerber Fmt 4.6, Leading zero omitted, Abs format (unit mm)*
G04 Created by KiCad (PCBNEW 7.0.6) date 2024-02-06 22:27:34*
%MOMM*%
%LPD*%
G01*
G04 APERTURE LIST*
G04 Aperture macros list*
%AMRoundRect*
0 Rectangle with rounded corners*
0 $1 Rounding radius*
0 $2 $3 $4 $5 $6 $7 $8 $9 X,Y pos of 4 corners*
0 Add a 4 corners polygon primitive as box body*
4,1,4,$2,$3,$4,$5,$6,$7,$8,$9,$2,$3,0*
0 Add four circle primitives for the rounded corners*
1,1,$1+$1,$2,$3*
1,1,$1+$1,$4,$5*
1,1,$1+$1,$6,$7*
1,1,$1+$1,$8,$9*
0 Add four rect primitives between the rounded corners*
20,1,$1+$1,$2,$3,$4,$5,0*
20,1,$1+$1,$4,$5,$6,$7,0*
20,1,$1+$1,$6,$7,$8,$9,0*
20,1,$1+$1,$8,$9,$2,$3,0*%
G04 Aperture macros list end*
%ADD10RoundRect,0.250000X0.450000X-0.262500X0.450000X0.262500X-0.450000X0.262500X-0.450000X-0.262500X0*%
%ADD11RoundRect,0.250000X-0.450000X0.262500X-0.450000X-0.262500X0.450000X-0.262500X0.450000X0.262500X0*%
%ADD12RoundRect,0.243750X0.456250X-0.243750X0.456250X0.243750X-0.456250X0.243750X-0.456250X-0.243750X0*%
%ADD13RoundRect,0.140000X0.140000X0.170000X-0.140000X0.170000X-0.140000X-0.170000X0.140000X-0.170000X0*%
%ADD14R,0.340000X0.700000*%
%ADD15RoundRect,0.225000X-0.250000X0.225000X-0.250000X-0.225000X0.250000X-0.225000X0.250000X0.225000X0*%
%ADD16RoundRect,0.200000X0.200000X0.275000X-0.200000X0.275000X-0.200000X-0.275000X0.200000X-0.275000X0*%
%ADD17RoundRect,0.250000X-1.500000X-0.550000X1.500000X-0.550000X1.500000X0.550000X-1.500000X0.550000X0*%
%ADD18RoundRect,0.250000X0.325000X1.100000X-0.325000X1.100000X-0.325000X-1.100000X0.325000X-1.100000X0*%
%ADD19RoundRect,0.243750X-0.456250X0.243750X-0.456250X-0.243750X0.456250X-0.243750X0.456250X0.243750X0*%
%ADD20RoundRect,0.225000X-0.225000X-0.250000X0.225000X-0.250000X0.225000X0.250000X-0.225000X0.250000X0*%
%ADD21RoundRect,0.250000X-0.325000X-1.100000X0.325000X-1.100000X0.325000X1.100000X-0.325000X1.100000X0*%
%ADD22R,2.200000X1.500000*%
%ADD23RoundRect,0.140000X0.170000X-0.140000X0.170000X0.140000X-0.170000X0.140000X-0.170000X-0.140000X0*%
%ADD24R,1.200000X0.400000*%
%ADD25RoundRect,0.250000X0.350000X-0.850000X0.350000X0.850000X-0.350000X0.850000X-0.350000X-0.850000X0*%
%ADD26RoundRect,0.250000X1.125000X-1.275000X1.125000X1.275000X-1.125000X1.275000X-1.125000X-1.275000X0*%
%ADD27RoundRect,0.200000X-0.275000X0.200000X-0.275000X-0.200000X0.275000X-0.200000X0.275000X0.200000X0*%
%ADD28O,1.550000X0.890000*%
%ADD29O,0.950000X1.250000*%
%ADD30R,1.350000X0.400000*%
%ADD31R,1.550000X1.200000*%
%ADD32R,1.550000X1.500000*%
%ADD33R,0.774700X0.508000*%
%ADD34RoundRect,0.150000X-0.150000X0.825000X-0.150000X-0.825000X0.150000X-0.825000X0.150000X0.825000X0*%
%ADD35RoundRect,0.250000X1.000000X-1.400000X1.000000X1.400000X-1.000000X1.400000X-1.000000X-1.400000X0*%
%ADD36R,0.800000X1.000000*%
%ADD37R,1.500000X0.700000*%
%ADD38RoundRect,0.218750X0.218750X0.256250X-0.218750X0.256250X-0.218750X-0.256250X0.218750X-0.256250X0*%
G04 APERTURE END LIST*
D10*
%TO.C,R1*%
X100738000Y-127508500D03*
X100738000Y-125683500D03*
%TD*%
D11*
%TO.C,R5*%
X109393333Y-143087500D03*
X109393333Y-144912500D03*
%TD*%
D12*
%TO.C,D12*%
X127664000Y-144955000D03*
X127664000Y-143080000D03*
%TD*%
D13*
%TO.C,C15*%
X134980000Y-136450000D03*
X134020000Y-136450000D03*
%TD*%
D14*
%TO.C,U10*%
X142411250Y-109051000D03*
X141911250Y-109051000D03*
X141411250Y-109051000D03*
X141411250Y-110551000D03*
X141911250Y-110551000D03*
X142411250Y-110551000D03*
%TD*%
D11*
%TO.C,R22*%
X120084000Y-139245000D03*
X120084000Y-141070000D03*
%TD*%
D15*
%TO.C,C13*%
X106100000Y-125925000D03*
X106100000Y-127475000D03*
%TD*%
D10*
%TO.C,R12*%
X104300000Y-144912500D03*
X104300000Y-143087500D03*
%TD*%
D11*
%TO.C,R23*%
X122624000Y-139270000D03*
X122624000Y-141095000D03*
%TD*%
D16*
%TO.C,R8*%
X135375000Y-145200000D03*
X133725000Y-145200000D03*
%TD*%
D17*
%TO.C,C37*%
X116600000Y-99900000D03*
X122000000Y-99900000D03*
%TD*%
D18*
%TO.C,C35*%
X129200000Y-98500000D03*
X126250000Y-98500000D03*
%TD*%
D19*
%TO.C,D11*%
X104300000Y-139250000D03*
X104300000Y-141125000D03*
%TD*%
D18*
%TO.C,C33*%
X146688250Y-98613000D03*
X143738250Y-98613000D03*
%TD*%
D14*
%TO.C,U9*%
X124669000Y-108938000D03*
X124169000Y-108938000D03*
X123669000Y-108938000D03*
X123669000Y-110438000D03*
X124169000Y-110438000D03*
X124669000Y-110438000D03*
%TD*%
D18*
%TO.C,C32*%
X129211750Y-101714750D03*
X126261750Y-101714750D03*
%TD*%
D11*
%TO.C,R6*%
X111946666Y-143087500D03*
X111946666Y-144912500D03*
%TD*%
D15*
%TO.C,C29*%
X126100000Y-109536000D03*
X126100000Y-111086000D03*
%TD*%
%TO.C,C12*%
X107601000Y-125925000D03*
X107601000Y-127475000D03*
%TD*%
D11*
%TO.C,R15*%
X127664000Y-139270000D03*
X127664000Y-141095000D03*
%TD*%
D16*
%TO.C,R18*%
X124575000Y-111850000D03*
X122925000Y-111850000D03*
%TD*%
D20*
%TO.C,C51*%
X106412250Y-107573000D03*
X107962250Y-107573000D03*
%TD*%
D21*
%TO.C,C25*%
X105028250Y-105173000D03*
X107978250Y-105173000D03*
%TD*%
D22*
%TO.C,L3*%
X148600000Y-111000000D03*
X148600000Y-104600000D03*
%TD*%
D23*
%TO.C,C16*%
X131250000Y-144080000D03*
X131250000Y-143120000D03*
%TD*%
D24*
%TO.C,IC1*%
X99150000Y-112050000D03*
X99150000Y-111400000D03*
X99150000Y-110750000D03*
X97250000Y-110750000D03*
X97250000Y-112050000D03*
%TD*%
D11*
%TO.C,R9*%
X117750000Y-139237500D03*
X117750000Y-141062500D03*
%TD*%
D25*
%TO.C,D10*%
X170176000Y-83873000D03*
D26*
X170931000Y-79248000D03*
X173981000Y-79248000D03*
X170931000Y-75898000D03*
X173981000Y-75898000D03*
D25*
X174736000Y-83873000D03*
%TD*%
D11*
%TO.C,R7*%
X114500000Y-143087500D03*
X114500000Y-144912500D03*
%TD*%
D14*
%TO.C,U17*%
X107257250Y-108923250D03*
X106757250Y-108923250D03*
X106257250Y-108923250D03*
X106257250Y-110423250D03*
X106757250Y-110423250D03*
X107257250Y-110423250D03*
%TD*%
D27*
%TO.C,R19*%
X122250000Y-108725000D03*
X122250000Y-110375000D03*
%TD*%
%TO.C,R21*%
X140000000Y-108775000D03*
X140000000Y-110425000D03*
%TD*%
D21*
%TO.C,C26*%
X122440000Y-105187750D03*
X125390000Y-105187750D03*
%TD*%
D18*
%TO.C,C31*%
X111800000Y-101700000D03*
X108850000Y-101700000D03*
%TD*%
D28*
%TO.C,J2*%
X96433000Y-132450000D03*
D29*
X99133000Y-133450000D03*
X99133000Y-138450000D03*
D28*
X96433000Y-139450000D03*
D30*
X99133000Y-134650000D03*
X99133000Y-135300000D03*
X99133000Y-135950000D03*
X99133000Y-136600000D03*
X99133000Y-137250000D03*
D31*
X96433000Y-133050000D03*
D32*
X96433000Y-134950000D03*
X96433000Y-136950000D03*
D31*
X96433000Y-138850000D03*
%TD*%
D12*
%TO.C,D13*%
X120200000Y-144937500D03*
X120200000Y-143062500D03*
%TD*%
D33*
%TO.C,D2*%
X102672700Y-134549998D03*
X102672700Y-135499999D03*
X102672700Y-136450000D03*
X105200000Y-136450000D03*
X105200000Y-135499999D03*
X105200000Y-134549998D03*
%TD*%
D19*
%TO.C,D4*%
X111946666Y-139252500D03*
X111946666Y-141127500D03*
%TD*%
D22*
%TO.C,L2*%
X130800000Y-110850000D03*
X130800000Y-104450000D03*
%TD*%
D21*
%TO.C,C27*%
X140175000Y-105200000D03*
X143125000Y-105200000D03*
%TD*%
D12*
%TO.C,D15*%
X125150000Y-144955000D03*
X125150000Y-143080000D03*
%TD*%
D15*
%TO.C,C14*%
X104553000Y-125925000D03*
X104553000Y-127475000D03*
%TD*%
D27*
%TO.C,R17*%
X104850000Y-108725000D03*
X104850000Y-110375000D03*
%TD*%
D22*
%TO.C,L1*%
X113350000Y-111000000D03*
X113350000Y-104600000D03*
%TD*%
D20*
%TO.C,C53*%
X141525000Y-107650000D03*
X143075000Y-107650000D03*
%TD*%
D16*
%TO.C,R16*%
X107225000Y-111850000D03*
X105575000Y-111850000D03*
%TD*%
D34*
%TO.C,U4*%
X136405000Y-138225000D03*
X135135000Y-138225000D03*
X133865000Y-138225000D03*
X132595000Y-138225000D03*
X132595000Y-143175000D03*
X133865000Y-143175000D03*
X135135000Y-143175000D03*
X136405000Y-143175000D03*
%TD*%
D15*
%TO.C,C28*%
X108650000Y-109525000D03*
X108650000Y-111075000D03*
%TD*%
D10*
%TO.C,R2*%
X106840000Y-144912500D03*
X106840000Y-143087500D03*
%TD*%
D17*
%TO.C,C38*%
X134000000Y-99900000D03*
X139400000Y-99900000D03*
%TD*%
D20*
%TO.C,C52*%
X123896750Y-107587750D03*
X125446750Y-107587750D03*
%TD*%
D18*
%TO.C,C34*%
X111800000Y-98358250D03*
X108850000Y-98358250D03*
%TD*%
D19*
%TO.C,D3*%
X109393333Y-139252500D03*
X109393333Y-141127500D03*
%TD*%
D17*
%TO.C,C39*%
X151542000Y-100049750D03*
X156942000Y-100049750D03*
%TD*%
D35*
%TO.C,D9*%
X177698000Y-85471000D03*
X184498000Y-85471000D03*
%TD*%
D36*
%TO.C,SW2*%
X97815000Y-123074000D03*
X95605000Y-123074000D03*
X97815000Y-130374000D03*
X95605000Y-130374000D03*
D37*
X98465000Y-124474000D03*
X98465000Y-127474000D03*
X98465000Y-128974000D03*
%TD*%
D15*
%TO.C,C30*%
X143800000Y-109475000D03*
X143800000Y-111025000D03*
%TD*%
D38*
%TO.C,FB1*%
X105887500Y-124414000D03*
X104312500Y-124414000D03*
%TD*%
D12*
%TO.C,D8*%
X117750000Y-144945000D03*
X117750000Y-143070000D03*
%TD*%
D16*
%TO.C,R20*%
X142325000Y-111900000D03*
X140675000Y-111900000D03*
%TD*%
D12*
%TO.C,D14*%
X122624000Y-144955000D03*
X122624000Y-143080000D03*
%TD*%
D18*
%TO.C,C36*%
X146700000Y-101827750D03*
X143750000Y-101827750D03*
%TD*%
D11*
%TO.C,R24*%
X125200000Y-139270000D03*
X125200000Y-141095000D03*
%TD*%
D19*
%TO.C,D5*%
X114500000Y-139252500D03*
X114500000Y-141127500D03*
%TD*%
D12*
%TO.C,D1*%
X106840000Y-141125000D03*
X106840000Y-139250000D03*
%TD*%
M02*
