M48
; DRILL file {KiCad 7.0.6} date Tue Feb  6 00:02:59 2024
; FORMAT={-:-/ absolute / metric / decimal}
; #@! TF.CreationDate,2024-02-06T00:02:59-07:00
; #@! TF.GenerationSoftware,Kicad,Pcbnew,7.0.6
; #@! TF.FileFunction,MixedPlating,1,4
FMAT,2
METRIC
; #@! TA.AperFunction,Plated,PTH,ViaDrill
T1C0.300
; #@! TA.AperFunction,Plated,PTH,ViaDrill
T2C0.400
; #@! TA.AperFunction,Plated,PTH,ViaDrill
T3C0.500
; #@! TA.AperFunction,Plated,PTH,ComponentDrill
T4C0.500
; #@! TA.AperFunction,Plated,PTH,ComponentDrill
T5C0.550
; #@! TA.AperFunction,Plated,PTH,ComponentDrill
T6C1.000
; #@! TA.AperFunction,Plated,PTH,ComponentDrill
T7C1.020
; #@! TA.AperFunction,Plated,PTH,ComponentDrill
T8C1.100
; #@! TA.AperFunction,Plated,PTH,ComponentDrill
T9C1.200
; #@! TA.AperFunction,Plated,PTH,ComponentDrill
T10C1.500
; #@! TA.AperFunction,Plated,PTH,ComponentDrill
T11C1.651
; #@! TA.AperFunction,Plated,PTH,ComponentDrill
T12C3.200
; #@! TA.AperFunction,Plated,PTH,ComponentDrill
T13C4.000
; #@! TA.AperFunction,NonPlated,NPTH,ComponentDrill
T14C0.900
; #@! TA.AperFunction,NonPlated,NPTH,ComponentDrill
T15C1.020
%
G90
G05
T1
X97.9Y-126.574
X99.15Y-112.5
X99.4Y-131.9
X101.115Y-128.885
X102.6Y-97.2
X102.9Y-135.5
X104.263Y-136.3
X106.251Y-134.852
X106.7Y-135.8
X106.775Y-138.0
X107.1Y-133.65
X107.952Y-112.148
X109.4Y-145.6
X109.846Y-127.854
X110.774Y-135.051
X110.777Y-135.856
X111.2Y-128.0
X111.95Y-145.5
X112.45Y-124.2
X112.6Y-101.7
X113.6Y-102.8
X113.6Y-124.749
X113.65Y-144.925
X113.9Y-134.9
X113.95Y-135.9
X114.5Y-132.35
X118.65Y-132.5
X118.95Y-144.1
X119.3Y-138.7
X119.426Y-131.6
X120.1Y-125.957
X120.121Y-127.223
X121.35Y-140.15
X121.75Y-139.25
X123.2Y-132.9
X123.874Y-111.9
X124.37Y-139.23
X124.85Y-128.4
X126.325Y-138.575
X128.65Y-139.27
X129.165Y-135.352
X130.1Y-101.7
X130.4Y-140.874
X131.3Y-123.0
X132.6Y-139.525
X135.555Y-137.5
X139.05Y-108.8
X142.95Y-112.45
X147.65Y-101.8
X148.5Y-124.2
X149.2Y-125.45
T2
X97.087Y-121.613
X97.1Y-107.8
X98.386Y-124.913
X99.9Y-142.2
X100.2Y-111.4
X101.958Y-126.304
X102.001Y-135.5
X103.15Y-139.2
X103.4Y-98.9
X104.494Y-132.624
X104.497Y-107.838
X105.2Y-127.475
X106.8Y-127.475
X106.85Y-144.2
X107.15Y-97.85
X107.15Y-99.2
X107.15Y-100.65
X107.15Y-101.8
X107.15Y-103.0
X107.531Y-60.036
X107.531Y-62.576
X107.531Y-65.116
X108.4Y-133.4
X108.6Y-125.9
X108.7Y-127.5
X108.75Y-107.6
X109.35Y-138.5
X110.071Y-60.036
X110.071Y-62.576
X110.071Y-65.116
X110.1Y-97.85
X110.1Y-99.2
X110.1Y-100.65
X110.4Y-102.7
X110.424Y-124.75
X111.1Y-131.425
X111.713Y-138.537
X112.55Y-119.7
X112.611Y-60.036
X112.611Y-62.576
X112.611Y-65.116
X113.4Y-140.15
X113.418Y-133.324
X113.7Y-123.3
X113.9Y-120.464
X114.1Y-138.165
X115.151Y-60.036
X115.151Y-62.576
X115.151Y-65.116
X115.151Y-75.276
X115.151Y-77.816
X115.151Y-80.356
X115.175Y-137.0
X115.4Y-126.2
X115.4Y-127.8
X115.6Y-119.7
X116.1Y-122.35
X116.9Y-126.2
X116.9Y-127.8
X117.691Y-60.036
X117.691Y-62.576
X117.691Y-65.116
X117.691Y-75.276
X117.691Y-77.816
X117.75Y-145.55
X118.669Y-139.41
X118.9Y-135.1
X120.05Y-145.55
X120.231Y-60.036
X120.231Y-62.576
X120.231Y-65.116
X120.25Y-97.0
X120.25Y-98.25
X121.0Y-101.6
X121.0Y-102.7
X121.5Y-97.0
X121.5Y-98.15
X122.05Y-101.6
X122.25Y-107.85
X122.3Y-133.8
X122.65Y-145.55
X122.75Y-97.0
X122.75Y-98.2
X122.771Y-60.036
X122.771Y-62.576
X122.771Y-65.116
X123.05Y-101.6
X124.5Y-97.0
X124.5Y-98.15
X124.5Y-101.95
X124.825Y-121.213
X124.825Y-124.4
X124.825Y-137.175
X124.925Y-133.6
X125.25Y-145.55
X125.311Y-60.036
X125.311Y-62.576
X125.311Y-65.116
X125.6Y-108.5
X125.75Y-112.4
X126.25Y-142.25
X127.1Y-120.524
X127.35Y-127.15
X127.7Y-145.55
X127.737Y-97.765
X127.737Y-99.115
X127.737Y-100.565
X127.851Y-60.036
X127.851Y-62.576
X127.851Y-65.116
X127.9Y-132.3
X129.15Y-132.4
X129.2Y-121.5
X129.556Y-141.9
X130.391Y-60.036
X130.391Y-62.576
X130.391Y-65.116
X130.4Y-124.3
X130.606Y-143.372
X130.8Y-127.95
X131.1Y-119.9
X131.25Y-144.7
X132.6Y-127.3
X132.7Y-112.025
X132.931Y-60.036
X132.931Y-62.576
X132.931Y-65.116
X132.931Y-75.276
X132.931Y-77.816
X132.931Y-80.356
X134.1Y-125.7
X134.858Y-138.21
X135.1Y-121.1
X135.163Y-139.463
X135.471Y-60.036
X135.471Y-62.576
X135.471Y-65.116
X135.471Y-75.276
X135.471Y-77.816
X136.9Y-125.75
X136.95Y-133.7
X137.75Y-72.7
X137.75Y-75.25
X137.75Y-82.9
X137.75Y-85.45
X137.75Y-93.05
X137.75Y-95.6
X137.8Y-67.65
X137.8Y-70.25
X137.8Y-77.85
X137.8Y-80.45
X137.8Y-88.0
X137.8Y-90.6
X138.0Y-101.4
X138.011Y-60.036
X138.011Y-62.576
X138.011Y-65.116
X138.05Y-97.0
X138.15Y-98.15
X139.2Y-101.4
X139.3Y-97.0
X139.3Y-98.15
X140.55Y-97.0
X140.55Y-98.15
X140.55Y-101.45
X140.551Y-60.036
X140.551Y-62.576
X140.551Y-65.116
X140.6Y-134.9
X141.05Y-138.799
X141.85Y-142.95
X142.3Y-97.0
X142.3Y-98.15
X143.091Y-60.036
X143.091Y-62.576
X143.091Y-65.116
X143.4Y-142.95
X144.4Y-133.6
X144.5Y-100.2
X144.523Y-101.602
X144.6Y-142.95
X145.225Y-97.878
X145.225Y-99.228
X145.225Y-100.678
X145.631Y-60.036
X145.631Y-62.576
X145.631Y-65.116
X145.8Y-140.15
X148.171Y-60.036
X148.171Y-62.576
X148.171Y-65.116
X148.4Y-115.9
X148.85Y-117.25
X149.0Y-123.0
X150.711Y-60.036
X150.711Y-62.576
X150.711Y-65.116
X150.711Y-75.276
X150.711Y-77.816
X150.711Y-80.356
X150.711Y-87.976
X152.4Y-120.5
X152.4Y-122.0
X153.251Y-60.036
X153.251Y-62.576
X153.251Y-65.116
X153.251Y-75.276
X153.251Y-77.816
X153.251Y-87.976
X155.791Y-60.036
X155.791Y-62.576
X155.791Y-65.116
X155.791Y-67.656
X158.331Y-77.816
X158.331Y-80.356
X158.331Y-87.976
X159.3Y-68.9
X162.3Y-116.15
X162.3Y-121.85
X168.4Y-118.55
X177.8Y-148.3
T3
X97.371Y-113.376
X97.371Y-115.916
X97.371Y-118.456
X99.911Y-75.276
X99.911Y-87.976
X99.911Y-90.516
X100.686Y-120.913
X102.451Y-80.356
X102.451Y-82.896
X102.451Y-85.436
X102.451Y-87.976
X102.451Y-90.516
X102.451Y-93.056
X103.1Y-128.5
X103.55Y-123.15
X104.991Y-62.576
X104.991Y-65.116
X104.991Y-100.676
X104.991Y-148.936
X104.991Y-151.476
X104.991Y-154.016
X104.991Y-156.556
X105.25Y-145.0
X105.649Y-139.25
X105.971Y-70.796
X105.971Y-72.796
X105.971Y-74.796
X105.971Y-76.796
X105.971Y-78.796
X105.971Y-84.796
X105.971Y-86.796
X105.971Y-88.796
X105.971Y-90.796
X106.986Y-123.213
X107.45Y-130.0
X107.531Y-148.936
X107.531Y-151.476
X107.531Y-154.016
X107.531Y-156.556
X107.971Y-74.796
X107.971Y-76.796
X107.971Y-78.796
X107.971Y-88.796
X107.971Y-90.796
X110.071Y-148.936
X110.071Y-151.476
X110.071Y-154.016
X110.071Y-156.556
X111.75Y-73.4
X111.75Y-75.9
X111.75Y-78.6
X111.75Y-80.9
X111.75Y-128.92
X111.9Y-89.1
X112.471Y-91.296
X112.471Y-95.796
X112.611Y-148.936
X112.611Y-151.476
X112.611Y-154.016
X112.611Y-156.556
X113.971Y-91.296
X113.971Y-95.796
X113.971Y-97.296
X114.4Y-89.1
X115.151Y-154.016
X115.151Y-156.556
X115.471Y-91.296
X115.471Y-95.796
X115.471Y-97.296
X115.471Y-101.796
X116.468Y-69.342
X116.468Y-70.485
X116.468Y-71.628
X116.468Y-82.804
X116.468Y-83.947
X116.468Y-85.09
X116.971Y-91.296
X116.971Y-95.796
X116.971Y-97.296
X116.971Y-101.796
X117.1Y-89.1
X117.357Y-69.85
X117.357Y-70.993
X117.357Y-83.312
X117.357Y-84.455
X117.691Y-154.016
X117.691Y-156.556
X118.195Y-121.651
X118.246Y-69.342
X118.246Y-70.485
X118.246Y-71.628
X118.246Y-82.804
X118.246Y-83.947
X118.246Y-85.09
X118.471Y-91.296
X118.471Y-95.796
X118.471Y-97.296
X119.4Y-89.1
X120.231Y-70.196
X120.231Y-72.736
X120.231Y-75.276
X120.231Y-77.816
X120.231Y-80.356
X120.231Y-82.896
X120.231Y-85.436
X120.231Y-87.976
X120.231Y-93.056
X120.231Y-154.016
X120.231Y-156.556
X122.15Y-150.45
X122.771Y-154.016
X122.771Y-156.556
X123.971Y-70.796
X123.971Y-72.796
X123.971Y-74.796
X123.971Y-76.796
X123.971Y-78.796
X123.971Y-84.796
X123.971Y-86.796
X123.971Y-88.796
X123.971Y-90.796
X125.311Y-154.016
X125.311Y-156.556
X125.971Y-74.796
X125.971Y-76.796
X125.971Y-78.796
X125.971Y-88.796
X125.971Y-90.796
X127.851Y-154.016
X127.851Y-156.556
X129.15Y-89.1
X129.25Y-73.35
X129.25Y-75.65
X129.25Y-78.35
X129.25Y-80.85
X130.391Y-154.016
X130.391Y-156.556
X130.471Y-91.296
X130.471Y-95.796
X131.65Y-89.1
X131.971Y-91.296
X131.971Y-95.796
X131.971Y-97.296
X131.971Y-101.796
X132.931Y-154.016
X132.931Y-156.556
X133.471Y-91.296
X133.471Y-95.796
X133.471Y-97.296
X133.471Y-101.796
X133.994Y-69.088
X133.994Y-70.231
X133.994Y-71.374
X133.994Y-83.058
X133.994Y-84.201
X133.994Y-85.344
X134.148Y-120.247
X134.35Y-89.1
X134.883Y-69.596
X134.883Y-70.739
X134.883Y-83.566
X134.883Y-84.709
X134.971Y-91.296
X134.971Y-95.796
X134.971Y-97.296
X134.971Y-101.796
X135.471Y-154.016
X135.471Y-156.556
X135.772Y-69.088
X135.772Y-70.231
X135.772Y-71.374
X135.772Y-83.058
X135.772Y-84.201
X135.772Y-85.344
X136.65Y-89.1
X136.9Y-135.15
X136.935Y-130.585
X137.6Y-120.3
X138.011Y-148.936
X138.011Y-151.476
X138.011Y-154.016
X138.011Y-156.556
X139.971Y-70.796
X139.971Y-72.796
X139.971Y-74.796
X139.971Y-76.796
X139.971Y-78.796
X139.971Y-84.796
X139.971Y-86.796
X139.971Y-88.796
X139.971Y-90.796
X140.45Y-127.0
X140.45Y-128.6
X140.45Y-130.2
X140.45Y-131.8
X140.551Y-154.016
X140.551Y-156.556
X140.95Y-127.8
X140.95Y-129.4
X140.95Y-131.0
X141.45Y-127.0
X141.45Y-128.6
X141.45Y-130.2
X141.45Y-131.8
X141.971Y-70.796
X141.971Y-72.796
X141.971Y-74.796
X141.971Y-76.796
X141.971Y-78.796
X141.971Y-84.796
X141.971Y-86.796
X141.971Y-88.796
X141.971Y-90.796
X142.0Y-129.4
X142.45Y-127.0
X142.45Y-128.6
X142.45Y-130.2
X142.45Y-131.8
X142.95Y-127.8
X142.95Y-129.4
X142.95Y-131.0
X143.091Y-154.016
X143.091Y-156.556
X143.4Y-137.0
X143.4Y-138.35
X143.4Y-139.95
X143.971Y-74.796
X143.971Y-76.796
X143.971Y-78.796
X143.971Y-88.796
X143.971Y-90.796
X144.45Y-127.0
X144.45Y-128.6
X144.45Y-130.2
X144.45Y-131.8
X144.95Y-127.8
X144.95Y-129.4
X144.95Y-131.0
X145.45Y-127.0
X145.45Y-128.6
X145.45Y-130.2
X145.45Y-131.8
X145.631Y-146.396
X145.631Y-148.936
X145.631Y-151.476
X145.631Y-154.016
X145.631Y-156.556
X145.95Y-129.4
X146.5Y-127.0
X146.5Y-128.6
X146.5Y-130.2
X146.5Y-131.8
X146.75Y-73.45
X146.75Y-75.75
X146.75Y-78.45
X146.75Y-80.95
X147.05Y-127.8
X147.05Y-129.4
X147.05Y-131.0
X147.2Y-89.75
X148.171Y-141.316
X148.171Y-143.856
X148.171Y-146.396
X148.171Y-148.936
X148.171Y-156.556
X148.471Y-95.796
X148.471Y-97.296
X148.471Y-98.796
X149.7Y-89.75
X149.971Y-95.796
X149.971Y-97.296
X150.711Y-133.696
X150.711Y-141.316
X150.711Y-143.856
X150.711Y-146.396
X150.711Y-148.936
X150.711Y-156.556
X151.471Y-95.796
X151.471Y-97.296
X151.471Y-103.296
X151.471Y-104.796
X151.647Y-69.342
X151.647Y-70.485
X151.647Y-71.628
X151.647Y-82.931
X151.647Y-84.074
X151.647Y-85.217
X152.4Y-89.75
X152.536Y-69.85
X152.536Y-70.993
X152.536Y-83.439
X152.536Y-84.582
X153.251Y-133.696
X153.251Y-141.316
X153.251Y-143.856
X153.251Y-156.556
X153.425Y-69.342
X153.425Y-70.485
X153.425Y-71.628
X153.425Y-82.931
X153.425Y-84.074
X153.425Y-85.217
X154.002Y-106.802
X154.25Y-109.4
X154.4Y-97.1
X154.4Y-98.4
X154.4Y-99.6
X154.4Y-101.0
X154.4Y-102.3
X154.4Y-103.5
X154.4Y-104.6
X154.7Y-89.75
X155.791Y-156.556
X158.331Y-156.556
X160.871Y-62.576
X160.871Y-156.556
X161.2Y-65.9
X163.411Y-90.516
X163.411Y-93.056
X163.411Y-95.596
X163.411Y-133.696
X163.411Y-141.316
X163.411Y-143.856
X163.411Y-146.396
X163.411Y-148.936
X163.411Y-156.556
X164.08Y-75.946
X164.08Y-77.089
X164.08Y-78.232
X164.207Y-72.898
X164.715Y-73.787
X164.969Y-76.581
X164.969Y-77.724
X165.35Y-72.898
X165.858Y-73.787
X165.951Y-133.696
X165.951Y-141.316
X165.951Y-143.856
X165.951Y-146.396
X165.951Y-156.556
X166.493Y-72.898
X166.7Y-125.8
X166.7Y-126.8
X166.7Y-127.8
X166.7Y-128.8
X166.7Y-129.8
X167.001Y-73.787
X167.636Y-72.898
X167.8Y-136.9
X168.144Y-73.787
X168.144Y-76.073
X168.144Y-77.216
X168.144Y-78.359
X168.491Y-141.316
X168.491Y-143.856
X168.491Y-146.396
X168.491Y-151.476
X168.491Y-154.016
X168.491Y-156.556
X168.7Y-117.25
X170.176Y-75.184
X170.176Y-76.327
X170.176Y-77.47
X170.176Y-78.74
X170.176Y-80.01
X171.031Y-72.736
X171.031Y-133.696
X171.031Y-136.236
X171.031Y-138.776
X171.031Y-141.316
X171.031Y-143.856
X171.031Y-146.396
X171.031Y-151.476
X171.031Y-154.016
X171.031Y-156.556
X171.065Y-75.819
X171.065Y-76.962
X171.065Y-78.232
X171.065Y-79.502
X171.954Y-75.311
X171.954Y-76.454
X171.954Y-77.597
X171.954Y-78.867
X171.954Y-80.137
X172.843Y-75.946
X172.843Y-77.089
X172.843Y-78.359
X172.843Y-79.629
X173.571Y-133.696
X173.571Y-136.236
X173.571Y-138.776
X173.571Y-141.316
X173.571Y-143.856
X173.571Y-146.396
X173.571Y-156.556
X173.859Y-75.311
X173.859Y-76.454
X173.859Y-77.597
X173.859Y-78.867
X173.859Y-80.137
X174.748Y-75.946
X174.748Y-77.089
X174.748Y-78.359
X174.748Y-79.629
X176.111Y-133.696
X176.111Y-136.236
X176.111Y-138.776
X176.111Y-141.316
X176.111Y-143.856
X176.111Y-146.396
X176.111Y-154.016
X176.111Y-156.556
X177.8Y-113.6
X178.651Y-115.916
X178.651Y-118.456
X178.651Y-120.996
X178.651Y-123.536
X178.651Y-131.156
X178.651Y-133.696
X178.651Y-136.236
X178.651Y-138.776
X178.651Y-141.316
X178.651Y-143.856
X178.651Y-146.396
X178.651Y-154.016
X178.651Y-156.556
X181.191Y-98.136
X181.191Y-100.676
X181.191Y-103.216
X181.191Y-115.916
X181.191Y-118.456
X181.191Y-120.996
X181.191Y-123.536
X181.191Y-126.076
X181.191Y-128.616
X181.191Y-131.156
X181.191Y-133.696
X181.191Y-136.236
X181.191Y-138.776
X181.191Y-141.316
X181.191Y-143.856
X181.191Y-146.396
X181.191Y-148.936
X181.191Y-154.016
X181.191Y-156.556
X183.731Y-98.136
X183.731Y-100.676
X183.731Y-103.216
X183.731Y-115.916
X183.731Y-118.456
X183.731Y-120.996
X183.731Y-123.536
X183.731Y-126.076
X183.731Y-128.616
X183.731Y-131.156
X183.731Y-133.696
X183.731Y-136.236
X183.731Y-138.776
X183.731Y-141.316
X183.731Y-143.856
X183.731Y-146.396
X183.731Y-148.936
X183.731Y-156.556
X186.271Y-98.136
X186.271Y-100.676
X186.271Y-103.216
X186.271Y-105.756
X186.271Y-108.296
X186.271Y-110.836
X186.271Y-113.376
X186.271Y-115.916
X186.271Y-118.456
X186.271Y-120.996
X186.271Y-123.536
X186.271Y-126.076
X186.271Y-128.616
X186.271Y-131.156
X186.271Y-133.696
X186.271Y-136.236
X186.271Y-138.776
X186.271Y-141.316
X186.271Y-143.856
X186.271Y-146.396
X186.271Y-148.936
X186.271Y-156.556
X188.811Y-98.136
X188.811Y-100.676
X188.811Y-103.216
X188.811Y-105.756
X188.811Y-108.296
X188.811Y-110.836
X188.811Y-113.376
X188.811Y-115.916
X188.811Y-118.456
X188.811Y-120.996
X188.811Y-123.536
X188.811Y-126.076
X188.811Y-128.616
X188.811Y-131.156
X188.811Y-133.696
X188.811Y-136.236
X188.811Y-138.776
X188.811Y-141.316
X188.811Y-143.856
X188.811Y-146.396
X188.811Y-148.936
X191.351Y-70.196
X191.351Y-72.736
X191.351Y-75.276
X191.351Y-77.816
X191.351Y-80.356
X191.351Y-82.896
X191.351Y-85.436
X191.351Y-87.976
X191.351Y-90.516
X191.351Y-93.056
X191.351Y-95.596
X191.351Y-98.136
X191.351Y-100.676
X191.351Y-103.216
X191.351Y-105.756
X191.351Y-108.296
X191.351Y-110.836
X191.351Y-113.376
X191.351Y-115.916
X191.351Y-118.456
X191.351Y-120.996
X191.351Y-123.536
X191.351Y-126.076
X191.351Y-128.616
X191.351Y-131.156
X191.351Y-133.696
X191.351Y-136.236
X191.351Y-138.776
X191.351Y-141.316
X191.351Y-143.856
X191.351Y-146.396
X191.351Y-148.936
X193.891Y-67.656
X193.891Y-70.196
X193.891Y-72.736
X193.891Y-75.276
X193.891Y-77.816
X193.891Y-80.356
X193.891Y-82.896
X193.891Y-85.436
X193.891Y-87.976
X193.891Y-90.516
X193.891Y-93.056
X193.891Y-95.596
X193.891Y-98.136
X193.891Y-100.676
X193.891Y-103.216
X193.891Y-105.756
X193.891Y-108.296
X193.891Y-110.836
X193.891Y-113.376
X193.891Y-115.916
X193.891Y-118.456
X193.891Y-120.996
X193.891Y-123.536
X193.891Y-126.076
X193.891Y-128.616
X193.891Y-131.156
X193.891Y-133.696
X193.891Y-136.236
X193.891Y-138.776
X193.891Y-141.316
X193.891Y-143.856
X193.891Y-146.396
X193.891Y-148.936
X193.891Y-151.476
T6
X96.9Y-94.65
X96.9Y-97.19
X96.9Y-99.73
X96.9Y-102.27
X96.9Y-104.81
X96.985Y-81.095
X96.985Y-83.635
X96.985Y-86.175
X99.44Y-94.65
X99.44Y-97.19
X99.44Y-99.73
X99.44Y-102.27
X99.44Y-104.81
X99.525Y-81.095
X99.525Y-83.635
X99.525Y-86.175
X124.51Y-148.4
X125.895Y-151.24
X127.28Y-148.4
X128.665Y-151.24
X130.05Y-148.4
X131.435Y-151.24
X132.82Y-148.4
X134.205Y-151.24
X135.59Y-148.4
X179.492Y-76.327
X184.492Y-76.327
T7
X108.767Y-68.751
X108.767Y-71.751
X108.767Y-82.451
X108.767Y-85.45
X111.767Y-68.751
X111.767Y-71.751
X111.767Y-82.451
X111.767Y-85.45
X114.767Y-68.751
X114.767Y-71.751
X114.767Y-82.451
X114.767Y-85.45
X126.23Y-82.45
X126.23Y-85.45
X126.231Y-68.751
X126.231Y-71.751
X129.23Y-82.45
X129.23Y-85.45
X129.231Y-68.751
X129.231Y-71.751
X132.23Y-82.45
X132.23Y-85.45
X132.231Y-68.751
X132.231Y-71.751
X143.692Y-82.469
X143.692Y-85.468
X143.695Y-68.751
X143.695Y-71.751
X146.692Y-82.469
X146.692Y-85.468
X146.695Y-68.751
X146.695Y-71.751
X149.692Y-82.469
X149.692Y-85.468
X149.695Y-68.751
X149.695Y-71.751
T8
X96.65Y-142.35
X96.65Y-148.85
X96.9Y-70.95
X96.9Y-77.45
X101.15Y-142.35
X101.15Y-148.85
X101.4Y-70.95
X101.4Y-77.45
T9
X153.0Y-147.324
X153.0Y-152.324
X169.247Y-93.472
X169.247Y-98.472
X176.947Y-93.472
X176.947Y-98.472
T10
X163.572Y-152.095
X166.112Y-106.375
X171.192Y-106.375
X173.732Y-152.095
X181.352Y-106.375
X183.892Y-152.095
T11
X106.075Y-93.726
X109.481Y-93.726
X113.951Y-93.726
X117.357Y-93.726
X123.537Y-93.726
X126.944Y-93.726
X131.414Y-93.726
X134.82Y-93.726
X141.0Y-93.726
X144.406Y-93.726
X148.876Y-93.726
X152.282Y-93.726
X158.365Y-82.374
X158.365Y-85.78
X158.365Y-90.25
X158.365Y-93.656
X166.366Y-75.188
X166.366Y-78.594
X166.366Y-83.064
X166.366Y-86.47
T12
X100.0Y-64.0
X100.0Y-154.0
X117.55Y-149.82
X142.55Y-149.82
X190.0Y-64.0
X190.0Y-154.0
T13
X168.631Y-63.5
X175.581Y-63.5
T14
X96.705Y-125.224
X96.705Y-128.224
T15
X105.767Y-67.811
X105.767Y-81.51
X117.767Y-67.811
X117.767Y-81.51
X123.23Y-81.51
X123.231Y-67.811
X135.23Y-81.51
X135.231Y-67.811
X140.692Y-81.528
X140.695Y-67.811
X152.692Y-81.528
X152.695Y-67.811
T4
G00X96.758Y-132.45
M15
G01X96.108Y-132.45
M16
G05
G00X96.758Y-139.45
M15
G01X96.108Y-139.45
M16
G05
T5
G00X99.133Y-133.3
M15
G01X99.133Y-133.6
M16
G05
G00X99.133Y-138.3
M15
G01X99.133Y-138.6
M16
G05
T0
M30
