%TF.GenerationSoftware,KiCad,Pcbnew,7.0.6*%
%TF.CreationDate,2024-03-09T23:02:32-07:00*%
%TF.ProjectId,Batt-Power-Prototype-2023_Lucy_V1,42617474-2d50-46f7-9765-722d50726f74,2*%
%TF.SameCoordinates,Original*%
%TF.FileFunction,Paste,Top*%
%TF.FilePolarity,Positive*%
%FSLAX46Y46*%
G04 Gerber Fmt 4.6, Leading zero omitted, Abs format (unit mm)*
G04 Created by KiCad (PCBNEW 7.0.6) date 2024-03-09 23:02:32*
%MOMM*%
%LPD*%
G01*
G04 APERTURE LIST*
G04 Aperture macros list*
%AMRoundRect*
0 Rectangle with rounded corners*
0 $1 Rounding radius*
0 $2 $3 $4 $5 $6 $7 $8 $9 X,Y pos of 4 corners*
0 Add a 4 corners polygon primitive as box body*
4,1,4,$2,$3,$4,$5,$6,$7,$8,$9,$2,$3,0*
0 Add four circle primitives for the rounded corners*
1,1,$1+$1,$2,$3*
1,1,$1+$1,$4,$5*
1,1,$1+$1,$6,$7*
1,1,$1+$1,$8,$9*
0 Add four rect primitives between the rounded corners*
20,1,$1+$1,$2,$3,$4,$5,0*
20,1,$1+$1,$4,$5,$6,$7,0*
20,1,$1+$1,$6,$7,$8,$9,0*
20,1,$1+$1,$8,$9,$2,$3,0*%
G04 Aperture macros list end*
%ADD10RoundRect,0.250000X0.450000X-0.262500X0.450000X0.262500X-0.450000X0.262500X-0.450000X-0.262500X0*%
%ADD11RoundRect,0.250000X-0.450000X0.262500X-0.450000X-0.262500X0.450000X-0.262500X0.450000X0.262500X0*%
%ADD12RoundRect,0.243750X0.456250X-0.243750X0.456250X0.243750X-0.456250X0.243750X-0.456250X-0.243750X0*%
%ADD13RoundRect,0.140000X0.140000X0.170000X-0.140000X0.170000X-0.140000X-0.170000X0.140000X-0.170000X0*%
%ADD14RoundRect,0.150000X-0.150000X0.512500X-0.150000X-0.512500X0.150000X-0.512500X0.150000X0.512500X0*%
%ADD15RoundRect,0.200000X0.200000X0.275000X-0.200000X0.275000X-0.200000X-0.275000X0.200000X-0.275000X0*%
%ADD16RoundRect,0.250000X-1.500000X-0.550000X1.500000X-0.550000X1.500000X0.550000X-1.500000X0.550000X0*%
%ADD17RoundRect,0.250000X0.325000X1.100000X-0.325000X1.100000X-0.325000X-1.100000X0.325000X-1.100000X0*%
%ADD18RoundRect,0.243750X-0.456250X0.243750X-0.456250X-0.243750X0.456250X-0.243750X0.456250X0.243750X0*%
%ADD19RoundRect,0.225000X-0.250000X0.225000X-0.250000X-0.225000X0.250000X-0.225000X0.250000X0.225000X0*%
%ADD20RoundRect,0.200000X-0.275000X0.200000X-0.275000X-0.200000X0.275000X-0.200000X0.275000X0.200000X0*%
%ADD21RoundRect,0.225000X-0.225000X-0.250000X0.225000X-0.250000X0.225000X0.250000X-0.225000X0.250000X0*%
%ADD22RoundRect,0.250000X-0.325000X-1.100000X0.325000X-1.100000X0.325000X1.100000X-0.325000X1.100000X0*%
%ADD23R,2.200000X1.500000*%
%ADD24RoundRect,0.140000X0.170000X-0.140000X0.170000X0.140000X-0.170000X0.140000X-0.170000X-0.140000X0*%
%ADD25R,0.400000X1.200000*%
%ADD26RoundRect,0.250000X0.350000X-0.850000X0.350000X0.850000X-0.350000X0.850000X-0.350000X-0.850000X0*%
%ADD27RoundRect,0.250000X1.125000X-1.275000X1.125000X1.275000X-1.125000X1.275000X-1.125000X-1.275000X0*%
%ADD28O,1.550000X0.890000*%
%ADD29O,0.950000X1.250000*%
%ADD30R,1.350000X0.400000*%
%ADD31R,1.550000X1.200000*%
%ADD32R,1.550000X1.500000*%
%ADD33R,0.774700X0.508000*%
%ADD34RoundRect,0.150000X-0.150000X0.825000X-0.150000X-0.825000X0.150000X-0.825000X0.150000X0.825000X0*%
%ADD35RoundRect,0.250000X1.000000X-1.400000X1.000000X1.400000X-1.000000X1.400000X-1.000000X-1.400000X0*%
%ADD36R,0.800000X1.000000*%
%ADD37R,1.500000X0.700000*%
G04 APERTURE END LIST*
D10*
%TO.C,R1*%
X98263000Y-109358500D03*
X98263000Y-107533500D03*
%TD*%
D11*
%TO.C,R5*%
X106918333Y-124937500D03*
X106918333Y-126762500D03*
%TD*%
D12*
%TO.C,D12*%
X125189000Y-126805000D03*
X125189000Y-124930000D03*
%TD*%
D13*
%TO.C,C15*%
X132505000Y-118300000D03*
X131545000Y-118300000D03*
%TD*%
D14*
%TO.C,U10*%
X142075000Y-91125000D03*
X141125000Y-91125000D03*
X140175000Y-91125000D03*
X140175000Y-93400000D03*
X141125000Y-93400000D03*
X142075000Y-93400000D03*
%TD*%
D11*
%TO.C,R22*%
X117609000Y-121095000D03*
X117609000Y-122920000D03*
%TD*%
D10*
%TO.C,R12*%
X101825000Y-126762500D03*
X101825000Y-124937500D03*
%TD*%
D11*
%TO.C,R23*%
X120149000Y-121120000D03*
X120149000Y-122945000D03*
%TD*%
D15*
%TO.C,R8*%
X132900000Y-127050000D03*
X131250000Y-127050000D03*
%TD*%
D16*
%TO.C,C37*%
X114125000Y-81750000D03*
X119525000Y-81750000D03*
%TD*%
D17*
%TO.C,C35*%
X126725000Y-80208250D03*
X123775000Y-80208250D03*
%TD*%
D18*
%TO.C,D11*%
X101825000Y-121100000D03*
X101825000Y-122975000D03*
%TD*%
D17*
%TO.C,C33*%
X144213250Y-80208250D03*
X141263250Y-80208250D03*
%TD*%
D14*
%TO.C,U9*%
X124375000Y-91142500D03*
X123425000Y-91142500D03*
X122475000Y-91142500D03*
X122475000Y-93417500D03*
X123425000Y-93417500D03*
X124375000Y-93417500D03*
%TD*%
D17*
%TO.C,C32*%
X126736750Y-83550000D03*
X123786750Y-83550000D03*
%TD*%
D11*
%TO.C,R6*%
X109471666Y-124937500D03*
X109471666Y-126762500D03*
%TD*%
D19*
%TO.C,C29*%
X125925000Y-92075000D03*
X125925000Y-93625000D03*
%TD*%
D11*
%TO.C,R15*%
X125189000Y-121120000D03*
X125189000Y-122945000D03*
%TD*%
D20*
%TO.C,R18*%
X119375000Y-92025000D03*
X119375000Y-93675000D03*
%TD*%
D21*
%TO.C,C51*%
X103937250Y-89423000D03*
X105487250Y-89423000D03*
%TD*%
D22*
%TO.C,C25*%
X102553250Y-87023000D03*
X105503250Y-87023000D03*
%TD*%
D23*
%TO.C,L3*%
X148275000Y-92850000D03*
X148275000Y-86450000D03*
%TD*%
D24*
%TO.C,C16*%
X128775000Y-125930000D03*
X128775000Y-124970000D03*
%TD*%
D25*
%TO.C,IC1*%
X95875000Y-91750000D03*
X95225000Y-91750000D03*
X94575000Y-91750000D03*
X94575000Y-93650000D03*
X95875000Y-93650000D03*
%TD*%
D11*
%TO.C,R9*%
X115275000Y-121087500D03*
X115275000Y-122912500D03*
%TD*%
D26*
%TO.C,D10*%
X167701000Y-65723000D03*
D27*
X168456000Y-61098000D03*
X171506000Y-61098000D03*
X168456000Y-57748000D03*
X171506000Y-57748000D03*
D26*
X172261000Y-65723000D03*
%TD*%
D11*
%TO.C,R7*%
X112025000Y-124937500D03*
X112025000Y-126762500D03*
%TD*%
D20*
%TO.C,R19*%
X120925000Y-92025000D03*
X120925000Y-93675000D03*
%TD*%
%TO.C,R21*%
X138625000Y-92007500D03*
X138625000Y-93657500D03*
%TD*%
D22*
%TO.C,C26*%
X119965000Y-87037750D03*
X122915000Y-87037750D03*
%TD*%
D17*
%TO.C,C31*%
X109325000Y-83550000D03*
X106375000Y-83550000D03*
%TD*%
D28*
%TO.C,J2*%
X93958000Y-114300000D03*
D29*
X96658000Y-115300000D03*
X96658000Y-120300000D03*
D28*
X93958000Y-121300000D03*
D30*
X96658000Y-116500000D03*
X96658000Y-117150000D03*
X96658000Y-117800000D03*
X96658000Y-118450000D03*
X96658000Y-119100000D03*
D31*
X93958000Y-114900000D03*
D32*
X93958000Y-116800000D03*
X93958000Y-118800000D03*
D31*
X93958000Y-120700000D03*
%TD*%
D12*
%TO.C,D13*%
X117725000Y-126787500D03*
X117725000Y-124912500D03*
%TD*%
D33*
%TO.C,D2*%
X100197700Y-116399998D03*
X100197700Y-117349999D03*
X100197700Y-118300000D03*
X102725000Y-118300000D03*
X102725000Y-117349999D03*
X102725000Y-116399998D03*
%TD*%
D18*
%TO.C,D4*%
X109471666Y-121102500D03*
X109471666Y-122977500D03*
%TD*%
D23*
%TO.C,L2*%
X130575000Y-92850000D03*
X130575000Y-86450000D03*
%TD*%
D22*
%TO.C,C27*%
X137700000Y-87000000D03*
X140650000Y-87000000D03*
%TD*%
D12*
%TO.C,D15*%
X122675000Y-126805000D03*
X122675000Y-124930000D03*
%TD*%
D14*
%TO.C,U8*%
X106625000Y-91175000D03*
X105675000Y-91175000D03*
X104725000Y-91175000D03*
X104725000Y-93450000D03*
X105675000Y-93450000D03*
X106625000Y-93450000D03*
%TD*%
D20*
%TO.C,R17*%
X103175000Y-92057500D03*
X103175000Y-93707500D03*
%TD*%
D23*
%TO.C,L1*%
X112825000Y-92850000D03*
X112825000Y-86450000D03*
%TD*%
D21*
%TO.C,C53*%
X139050000Y-89400000D03*
X140600000Y-89400000D03*
%TD*%
D20*
%TO.C,R16*%
X101625000Y-92057500D03*
X101625000Y-93707500D03*
%TD*%
D34*
%TO.C,U4*%
X133930000Y-120075000D03*
X132660000Y-120075000D03*
X131390000Y-120075000D03*
X130120000Y-120075000D03*
X130120000Y-125025000D03*
X131390000Y-125025000D03*
X132660000Y-125025000D03*
X133930000Y-125025000D03*
%TD*%
D19*
%TO.C,C28*%
X108175000Y-92107500D03*
X108175000Y-93657500D03*
%TD*%
D10*
%TO.C,R2*%
X104365000Y-126762500D03*
X104365000Y-124937500D03*
%TD*%
D16*
%TO.C,C38*%
X131525000Y-81750000D03*
X136925000Y-81750000D03*
%TD*%
D21*
%TO.C,C52*%
X121421750Y-89437750D03*
X122971750Y-89437750D03*
%TD*%
D17*
%TO.C,C34*%
X109325000Y-80208250D03*
X106375000Y-80208250D03*
%TD*%
D18*
%TO.C,D3*%
X106918333Y-121102500D03*
X106918333Y-122977500D03*
%TD*%
D16*
%TO.C,C39*%
X149067000Y-81899750D03*
X154467000Y-81899750D03*
%TD*%
D35*
%TO.C,D9*%
X175223000Y-67321000D03*
X182023000Y-67321000D03*
%TD*%
D36*
%TO.C,SW2*%
X95340000Y-104924000D03*
X93130000Y-104924000D03*
X95340000Y-112224000D03*
X93130000Y-112224000D03*
D37*
X95990000Y-106324000D03*
X95990000Y-109324000D03*
X95990000Y-110824000D03*
%TD*%
D19*
%TO.C,C30*%
X143625000Y-92057500D03*
X143625000Y-93607500D03*
%TD*%
D12*
%TO.C,D8*%
X115275000Y-126795000D03*
X115275000Y-124920000D03*
%TD*%
D20*
%TO.C,R20*%
X137075000Y-92007500D03*
X137075000Y-93657500D03*
%TD*%
D12*
%TO.C,D14*%
X120149000Y-126805000D03*
X120149000Y-124930000D03*
%TD*%
D17*
%TO.C,C36*%
X144225000Y-83550000D03*
X141275000Y-83550000D03*
%TD*%
D11*
%TO.C,R24*%
X122725000Y-121120000D03*
X122725000Y-122945000D03*
%TD*%
D18*
%TO.C,D5*%
X112025000Y-121102500D03*
X112025000Y-122977500D03*
%TD*%
%TO.C,D1*%
X104365000Y-121100000D03*
X104365000Y-122975000D03*
%TD*%
M02*
