M48
; DRILL file {KiCad 7.0.6} date Sat Mar  9 23:02:29 2024
; FORMAT={-:-/ absolute / metric / decimal}
; #@! TF.CreationDate,2024-03-09T23:02:29-07:00
; #@! TF.GenerationSoftware,Kicad,Pcbnew,7.0.6
; #@! TF.FileFunction,MixedPlating,1,4
FMAT,2
METRIC
; #@! TA.AperFunction,Plated,PTH,ViaDrill
T1C0.300
; #@! TA.AperFunction,Plated,PTH,ViaDrill
T2C0.400
; #@! TA.AperFunction,Plated,PTH,ViaDrill
T3C0.500
; #@! TA.AperFunction,Plated,PTH,ComponentDrill
T4C0.500
; #@! TA.AperFunction,Plated,PTH,ComponentDrill
T5C0.550
; #@! TA.AperFunction,Plated,PTH,ComponentDrill
T6C1.000
; #@! TA.AperFunction,Plated,PTH,ComponentDrill
T7C1.020
; #@! TA.AperFunction,Plated,PTH,ComponentDrill
T8C1.100
; #@! TA.AperFunction,Plated,PTH,ComponentDrill
T9C1.200
; #@! TA.AperFunction,Plated,PTH,ComponentDrill
T10C1.500
; #@! TA.AperFunction,Plated,PTH,ComponentDrill
T11C1.651
; #@! TA.AperFunction,Plated,PTH,ComponentDrill
T12C3.200
; #@! TA.AperFunction,Plated,PTH,ComponentDrill
T13C4.000
; #@! TA.AperFunction,NonPlated,NPTH,ComponentDrill
T14C0.900
; #@! TA.AperFunction,NonPlated,NPTH,ComponentDrill
T15C1.020
%
G90
G05
T1
X93.025Y-94.6
X95.425Y-108.424
X95.425Y-113.65
X100.125Y-79.05
X100.425Y-117.35
X101.875Y-119.15
X102.051Y-90.3
X103.776Y-116.702
X104.225Y-117.65
X104.3Y-119.85
X104.625Y-115.5
X106.925Y-127.45
X108.299Y-116.901
X108.302Y-117.706
X108.725Y-109.85
X109.475Y-127.35
X109.975Y-106.05
X110.625Y-78.7
X111.125Y-106.599
X111.175Y-126.775
X111.425Y-116.75
X111.475Y-117.75
X112.025Y-114.2
X116.175Y-114.35
X116.825Y-120.55
X116.951Y-113.45
X117.625Y-107.807
X117.646Y-109.073
X118.875Y-122.0
X119.275Y-121.1
X119.425Y-91.25
X120.725Y-114.75
X121.725Y-121.2
X122.375Y-110.25
X123.849Y-120.424
X126.175Y-121.12
X126.69Y-117.202
X126.775Y-78.55
X127.925Y-122.724
X128.825Y-104.85
X129.575Y-94.15
X130.125Y-121.375
X133.081Y-119.35
X134.025Y-126.75
X137.625Y-91.2
X137.792Y-94.463
X144.175Y-78.6
X146.025Y-106.05
T2
X93.875Y-95.4
X94.625Y-89.65
X94.896Y-49.506
X95.225Y-90.65
X95.912Y-102.25
X97.425Y-124.05
X97.436Y-54.586
X97.436Y-57.126
X97.436Y-69.826
X97.436Y-72.366
X98.075Y-102.9
X99.325Y-111.15
X99.525Y-117.35
X99.976Y-41.886
X99.976Y-62.206
X99.976Y-64.746
X99.976Y-67.286
X99.976Y-69.826
X99.976Y-72.366
X99.976Y-74.906
X100.675Y-121.05
X100.925Y-80.75
X101.675Y-109.825
X101.724Y-114.474
X101.775Y-103.6
X102.516Y-41.886
X102.516Y-44.426
X102.516Y-46.966
X102.516Y-130.786
X102.516Y-133.326
X102.516Y-135.866
X102.516Y-138.406
X103.175Y-91.25
X103.275Y-103.6
X104.251Y-122.287
X104.325Y-127.4
X104.625Y-102.2
X104.625Y-103.6
X104.675Y-79.7
X104.675Y-81.05
X104.675Y-82.5
X104.675Y-83.65
X104.675Y-84.85
X105.056Y-107.926
X105.056Y-130.786
X105.056Y-133.326
X105.056Y-135.866
X105.056Y-138.406
X105.925Y-115.25
X106.625Y-89.35
X106.625Y-90.25
X106.648Y-87.023
X106.875Y-120.35
X107.087Y-41.886
X107.087Y-44.426
X107.087Y-46.966
X107.596Y-130.786
X107.596Y-133.326
X107.596Y-135.866
X107.596Y-138.406
X107.625Y-79.7
X107.625Y-81.05
X107.625Y-82.5
X107.95Y-106.6
X108.575Y-113.275
X109.238Y-120.387
X109.627Y-41.886
X109.627Y-44.426
X109.627Y-46.966
X110.075Y-101.55
X110.136Y-130.786
X110.136Y-133.326
X110.136Y-135.866
X110.136Y-138.406
X110.943Y-115.174
X111.175Y-120.015
X111.225Y-105.15
X111.425Y-102.314
X112.167Y-41.886
X112.167Y-44.426
X112.167Y-46.966
X112.167Y-57.126
X112.167Y-59.666
X112.167Y-62.206
X112.425Y-121.89
X112.676Y-135.866
X112.676Y-138.406
X112.7Y-118.85
X112.925Y-108.05
X112.925Y-109.65
X113.125Y-101.55
X113.625Y-104.2
X114.425Y-108.05
X114.425Y-109.65
X114.707Y-41.886
X114.707Y-44.426
X114.707Y-46.966
X114.707Y-57.126
X114.707Y-59.666
X114.95Y-90.95
X115.216Y-135.866
X115.216Y-138.406
X115.275Y-127.4
X116.194Y-121.26
X116.425Y-116.95
X117.247Y-41.886
X117.247Y-44.426
X117.247Y-46.966
X117.575Y-127.4
X117.756Y-49.506
X117.756Y-52.046
X117.756Y-54.586
X117.756Y-57.126
X117.756Y-59.666
X117.756Y-62.206
X117.756Y-64.746
X117.756Y-67.286
X117.756Y-74.906
X117.756Y-135.866
X117.756Y-138.406
X117.775Y-78.85
X117.775Y-80.1
X118.525Y-83.45
X118.525Y-84.55
X119.025Y-78.85
X119.025Y-80.0
X119.575Y-83.45
X119.787Y-41.886
X119.787Y-44.426
X119.787Y-46.966
X119.825Y-115.65
X120.175Y-127.4
X120.275Y-78.85
X120.275Y-80.05
X120.296Y-135.866
X120.296Y-138.406
X120.575Y-83.45
X120.99Y-91.304
X122.025Y-78.85
X122.025Y-80.0
X122.025Y-83.8
X122.327Y-41.886
X122.327Y-44.426
X122.327Y-46.966
X122.349Y-103.063
X122.349Y-106.25
X122.45Y-115.45
X122.45Y-119.15
X122.775Y-127.4
X122.836Y-135.866
X122.836Y-138.406
X123.775Y-124.1
X123.825Y-87.05
X123.875Y-89.438
X124.375Y-90.1
X124.625Y-102.374
X124.867Y-41.886
X124.867Y-44.426
X124.867Y-46.966
X124.875Y-109.0
X124.975Y-79.6
X124.975Y-80.95
X124.975Y-82.4
X125.225Y-127.4
X125.376Y-135.866
X125.376Y-138.406
X125.425Y-114.15
X126.675Y-114.25
X126.725Y-103.35
X127.081Y-123.75
X127.407Y-41.886
X127.407Y-44.426
X127.407Y-46.966
X127.916Y-135.866
X127.916Y-138.406
X127.925Y-106.15
X128.325Y-109.8
X128.625Y-101.75
X128.775Y-126.55
X129.947Y-41.886
X129.947Y-44.426
X129.947Y-46.966
X129.947Y-57.126
X129.947Y-59.666
X129.947Y-62.206
X130.125Y-109.15
X130.456Y-115.546
X130.456Y-135.866
X130.456Y-138.406
X131.625Y-107.55
X132.375Y-90.45
X132.383Y-120.06
X132.487Y-41.886
X132.487Y-44.426
X132.487Y-46.966
X132.487Y-57.126
X132.487Y-59.666
X132.688Y-121.313
X132.996Y-135.866
X132.996Y-138.406
X134.425Y-107.6
X135.027Y-41.886
X135.027Y-44.426
X135.027Y-46.966
X135.275Y-54.55
X135.275Y-57.1
X135.275Y-64.75
X135.275Y-67.3
X135.275Y-74.9
X135.275Y-77.45
X135.325Y-49.5
X135.325Y-52.1
X135.325Y-59.7
X135.325Y-62.3
X135.325Y-69.85
X135.325Y-72.45
X135.525Y-83.25
X135.536Y-130.786
X135.536Y-133.326
X135.536Y-135.866
X135.536Y-138.406
X135.575Y-78.85
X135.675Y-80.0
X136.725Y-83.25
X136.825Y-78.85
X136.825Y-80.0
X137.567Y-41.886
X137.567Y-44.426
X137.567Y-46.966
X138.075Y-78.85
X138.075Y-80.0
X138.075Y-83.3
X138.076Y-135.866
X138.076Y-138.406
X138.125Y-116.75
X138.575Y-120.649
X138.675Y-91.25
X139.375Y-124.8
X139.825Y-78.85
X139.825Y-80.0
X140.107Y-41.886
X140.107Y-44.426
X140.107Y-46.966
X140.616Y-135.866
X140.616Y-138.406
X140.925Y-124.8
X141.575Y-89.5
X141.625Y-87.1
X141.925Y-115.45
X142.075Y-90.3
X142.125Y-124.8
X142.5Y-79.725
X142.5Y-81.075
X142.5Y-82.525
X142.647Y-41.886
X142.647Y-44.426
X142.647Y-46.966
X143.156Y-128.246
X143.156Y-130.786
X143.156Y-133.326
X143.156Y-135.866
X143.156Y-138.406
X143.325Y-122.0
X145.025Y-77.925
X145.025Y-79.425
X145.025Y-80.825
X145.025Y-82.45
X145.025Y-84.05
X145.025Y-85.6
X145.187Y-41.886
X145.187Y-44.426
X145.187Y-46.966
X145.696Y-125.706
X145.696Y-128.246
X145.696Y-130.786
X145.696Y-138.406
X145.925Y-97.75
X146.325Y-77.925
X146.325Y-79.425
X146.325Y-80.825
X146.325Y-82.45
X146.325Y-84.05
X146.325Y-85.6
X146.375Y-99.1
X146.525Y-104.85
X147.6Y-77.925
X147.6Y-79.425
X147.6Y-80.825
X147.6Y-84.05
X147.65Y-82.45
X147.65Y-85.6
X147.727Y-41.886
X147.727Y-44.426
X147.727Y-46.966
X147.727Y-57.126
X147.727Y-59.666
X147.727Y-62.206
X148.236Y-113.006
X148.236Y-115.546
X148.236Y-118.086
X148.236Y-125.706
X148.236Y-128.246
X148.236Y-130.786
X148.236Y-138.406
X148.9Y-77.925
X148.9Y-79.425
X148.9Y-80.825
X148.9Y-82.45
X148.9Y-84.05
X148.9Y-85.6
X149.925Y-102.35
X149.925Y-103.85
X150.267Y-41.886
X150.267Y-44.426
X150.267Y-46.966
X150.267Y-57.126
X150.267Y-59.666
X150.776Y-113.006
X150.776Y-115.546
X150.776Y-123.166
X150.776Y-125.706
X150.776Y-138.406
X152.807Y-41.886
X152.807Y-44.426
X152.807Y-46.966
X152.807Y-62.206
X152.807Y-64.746
X152.807Y-67.286
X153.316Y-49.506
X153.316Y-52.046
X153.316Y-54.586
X153.316Y-57.126
X153.316Y-138.406
X155.347Y-62.206
X155.856Y-54.586
X155.856Y-57.126
X155.856Y-138.406
X156.825Y-50.75
X158.396Y-41.886
X158.396Y-44.426
X158.396Y-138.406
X159.825Y-98.0
X159.825Y-103.7
X160.936Y-72.366
X160.936Y-74.906
X160.936Y-77.446
X160.936Y-123.166
X160.936Y-125.706
X160.936Y-128.246
X160.936Y-130.786
X160.936Y-138.406
X161.125Y-80.65
X161.125Y-82.05
X161.125Y-83.55
X161.125Y-84.85
X161.125Y-86.25
X163.125Y-80.65
X163.125Y-82.05
X163.125Y-83.55
X163.125Y-84.85
X163.125Y-86.25
X163.476Y-123.166
X163.476Y-125.706
X163.476Y-128.246
X163.476Y-138.406
X164.925Y-80.65
X164.925Y-82.05
X164.925Y-83.55
X164.925Y-84.85
X164.925Y-86.25
X165.925Y-100.4
X166.016Y-138.406
X167.039Y-123.166
X167.039Y-125.706
X167.039Y-128.246
X167.039Y-133.326
X167.039Y-135.866
X167.825Y-95.35
X167.825Y-98.65
X167.825Y-101.95
X167.825Y-105.05
X168.556Y-54.586
X168.556Y-138.406
X169.579Y-115.546
X169.579Y-118.086
X169.579Y-120.626
X169.579Y-123.166
X169.579Y-125.706
X169.579Y-128.246
X169.825Y-91.75
X169.825Y-95.35
X169.825Y-98.65
X169.825Y-101.95
X169.825Y-105.05
X171.096Y-138.406
X171.825Y-82.55
X171.825Y-83.95
X171.825Y-85.35
X171.825Y-86.85
X171.825Y-88.15
X171.825Y-89.55
X171.825Y-91.75
X171.825Y-95.35
X171.825Y-98.65
X171.825Y-101.95
X171.825Y-105.05
X172.119Y-115.546
X172.119Y-118.086
X172.119Y-120.626
X172.119Y-123.166
X172.119Y-125.706
X172.119Y-128.246
X173.636Y-135.866
X173.636Y-138.406
X173.825Y-82.55
X173.825Y-83.95
X173.825Y-85.35
X173.825Y-86.85
X173.825Y-88.15
X173.825Y-89.55
X175.325Y-130.15
X175.825Y-82.55
X175.825Y-83.95
X175.825Y-85.35
X175.825Y-86.85
X175.825Y-88.15
X175.825Y-89.55
X176.176Y-113.006
X176.176Y-115.546
X176.176Y-118.086
X176.176Y-120.626
X176.176Y-123.166
X176.176Y-125.706
X176.176Y-128.246
X176.176Y-135.866
X176.176Y-138.406
X178.716Y-79.986
X178.716Y-82.526
X178.716Y-85.066
X178.716Y-100.306
X178.716Y-102.846
X178.716Y-105.386
X178.716Y-107.926
X178.716Y-110.466
X178.716Y-113.006
X178.716Y-115.546
X178.716Y-118.086
X178.716Y-120.626
X178.716Y-123.166
X178.716Y-125.706
X178.716Y-128.246
X178.716Y-130.786
X178.716Y-135.866
X178.716Y-138.406
X181.256Y-79.986
X181.256Y-82.526
X181.256Y-85.066
X181.256Y-97.766
X181.256Y-100.306
X181.256Y-102.846
X181.256Y-105.386
X181.256Y-107.926
X181.256Y-110.466
X181.256Y-113.006
X181.256Y-115.546
X181.256Y-118.086
X181.256Y-120.626
X181.256Y-123.166
X181.256Y-125.706
X181.256Y-128.246
X181.256Y-130.786
X181.256Y-138.406
X183.796Y-79.986
X183.796Y-82.526
X183.796Y-85.066
X183.796Y-87.606
X183.796Y-90.146
X183.796Y-92.686
X183.796Y-95.226
X183.796Y-97.766
X183.796Y-100.306
X183.796Y-102.846
X183.796Y-105.386
X183.796Y-107.926
X183.796Y-110.466
X183.796Y-113.006
X183.796Y-115.546
X183.796Y-118.086
X183.796Y-120.626
X183.796Y-123.166
X183.796Y-125.706
X183.796Y-128.246
X183.796Y-130.786
X183.796Y-138.406
X186.336Y-79.986
X186.336Y-82.526
X186.336Y-85.066
X186.336Y-87.606
X186.336Y-90.146
X186.336Y-92.686
X186.336Y-95.226
X186.336Y-97.766
X186.336Y-100.306
X186.336Y-102.846
X186.336Y-105.386
X186.336Y-107.926
X186.336Y-110.466
X186.336Y-113.006
X186.336Y-115.546
X186.336Y-118.086
X186.336Y-120.626
X186.336Y-123.166
X186.336Y-125.706
X186.336Y-128.246
X186.336Y-130.786
X188.876Y-52.046
X188.876Y-54.586
X188.876Y-57.126
X188.876Y-59.666
X188.876Y-62.206
X188.876Y-64.746
X188.876Y-67.286
X188.876Y-69.826
X188.876Y-72.366
X188.876Y-74.906
X188.876Y-77.446
X188.876Y-79.986
X188.876Y-82.526
X188.876Y-85.066
X188.876Y-87.606
X188.876Y-90.146
X188.876Y-92.686
X188.876Y-95.226
X188.876Y-97.766
X188.876Y-100.306
X188.876Y-102.846
X188.876Y-105.386
X188.876Y-107.926
X188.876Y-110.466
X188.876Y-113.006
X188.876Y-115.546
X188.876Y-118.086
X188.876Y-120.626
X188.876Y-123.166
X188.876Y-125.706
X188.876Y-128.246
X188.876Y-130.786
X191.416Y-49.506
X191.416Y-52.046
X191.416Y-54.586
X191.416Y-57.126
X191.416Y-59.666
X191.416Y-62.206
X191.416Y-64.746
X191.416Y-67.286
X191.416Y-69.826
X191.416Y-72.366
X191.416Y-74.906
X191.416Y-77.446
X191.416Y-79.986
X191.416Y-82.526
X191.416Y-85.066
X191.416Y-87.606
X191.416Y-90.146
X191.416Y-92.686
X191.416Y-95.226
X191.416Y-97.766
X191.416Y-100.306
X191.416Y-102.846
X191.416Y-105.386
X191.416Y-107.926
X191.416Y-110.466
X191.416Y-113.006
X191.416Y-115.546
X191.416Y-118.086
X191.416Y-120.626
X191.416Y-123.166
X191.416Y-125.706
X191.416Y-128.246
X191.416Y-130.786
X191.416Y-133.326
T3
X95.325Y-97.25
X95.875Y-96.45
X95.875Y-98.05
X96.375Y-97.25
X100.625Y-102.2
X101.825Y-127.75
X101.975Y-102.2
X103.325Y-102.2
X103.496Y-52.646
X103.496Y-54.646
X103.496Y-56.646
X103.496Y-58.646
X103.496Y-60.646
X103.496Y-66.646
X103.496Y-68.646
X103.496Y-70.646
X103.496Y-72.646
X104.975Y-111.85
X105.496Y-56.646
X105.496Y-58.646
X105.496Y-60.646
X105.496Y-70.646
X105.496Y-72.646
X109.275Y-55.25
X109.275Y-57.75
X109.275Y-60.45
X109.275Y-62.75
X109.275Y-110.77
X109.425Y-70.95
X109.996Y-73.146
X109.996Y-77.646
X110.0Y-80.85
X110.025Y-82.25
X111.496Y-73.146
X111.496Y-77.646
X111.496Y-79.146
X111.5Y-80.825
X111.5Y-82.25
X111.925Y-70.95
X112.996Y-73.146
X112.996Y-77.646
X112.996Y-79.146
X112.996Y-83.646
X113.0Y-80.8
X113.0Y-82.225
X113.993Y-51.192
X113.993Y-52.335
X113.993Y-53.478
X113.993Y-64.654
X113.993Y-65.797
X113.993Y-66.94
X114.496Y-73.146
X114.496Y-77.646
X114.496Y-79.146
X114.496Y-83.646
X114.5Y-80.825
X114.5Y-82.25
X114.625Y-70.95
X114.882Y-51.7
X114.882Y-52.843
X114.882Y-65.162
X114.882Y-66.305
X115.72Y-103.501
X115.771Y-51.192
X115.771Y-52.335
X115.771Y-53.478
X115.771Y-64.654
X115.771Y-65.797
X115.771Y-66.94
X115.996Y-73.146
X115.996Y-77.646
X115.996Y-79.146
X116.0Y-80.825
X116.0Y-82.25
X116.925Y-70.95
X119.675Y-132.3
X121.496Y-52.646
X121.496Y-54.646
X121.496Y-56.646
X121.496Y-58.646
X121.496Y-60.646
X121.496Y-66.646
X121.496Y-68.646
X121.496Y-70.646
X121.496Y-72.646
X123.496Y-56.646
X123.496Y-58.646
X123.496Y-60.646
X123.496Y-70.646
X123.496Y-72.646
X126.675Y-70.95
X126.775Y-55.2
X126.775Y-57.5
X126.775Y-60.2
X126.775Y-62.7
X127.62Y-125.051
X127.996Y-73.146
X127.996Y-77.646
X129.175Y-70.95
X129.475Y-80.775
X129.475Y-82.175
X129.496Y-73.146
X129.496Y-77.646
X129.496Y-79.146
X129.496Y-83.646
X130.996Y-73.146
X130.996Y-77.646
X130.996Y-79.146
X130.996Y-83.646
X131.0Y-80.775
X131.0Y-82.175
X131.519Y-50.938
X131.519Y-52.081
X131.519Y-53.224
X131.519Y-64.908
X131.519Y-66.051
X131.519Y-67.194
X131.875Y-70.95
X132.375Y-102.525
X132.408Y-51.446
X132.408Y-52.589
X132.408Y-65.416
X132.408Y-66.559
X132.496Y-73.146
X132.496Y-77.646
X132.496Y-79.146
X132.496Y-83.646
X132.525Y-80.775
X132.525Y-82.175
X133.297Y-50.938
X133.297Y-52.081
X133.297Y-53.224
X133.297Y-64.908
X133.297Y-66.051
X133.297Y-67.194
X134.175Y-70.95
X134.425Y-102.15
X134.425Y-117.0
X134.46Y-112.435
X134.475Y-115.55
X137.496Y-52.646
X137.496Y-54.646
X137.496Y-56.646
X137.496Y-58.646
X137.496Y-60.646
X137.496Y-66.646
X137.496Y-68.646
X137.496Y-70.646
X137.496Y-72.646
X137.975Y-108.85
X137.975Y-110.45
X137.975Y-112.05
X137.975Y-113.65
X138.475Y-109.65
X138.475Y-111.25
X138.475Y-112.85
X138.975Y-108.85
X138.975Y-110.45
X138.975Y-112.05
X138.975Y-113.65
X139.496Y-52.646
X139.496Y-54.646
X139.496Y-56.646
X139.496Y-58.646
X139.496Y-60.646
X139.496Y-66.646
X139.496Y-68.646
X139.496Y-70.646
X139.496Y-72.646
X139.525Y-111.25
X139.975Y-108.85
X139.975Y-110.45
X139.975Y-112.05
X139.975Y-113.65
X140.475Y-109.65
X140.475Y-111.25
X140.475Y-112.85
X140.925Y-118.85
X140.925Y-120.2
X140.925Y-121.8
X141.496Y-56.646
X141.496Y-58.646
X141.496Y-60.646
X141.496Y-70.646
X141.496Y-72.646
X141.975Y-108.85
X141.975Y-110.45
X141.975Y-112.05
X141.975Y-113.65
X142.475Y-109.65
X142.475Y-111.25
X142.475Y-112.85
X142.975Y-108.85
X142.975Y-110.45
X142.975Y-112.05
X142.975Y-113.65
X143.475Y-111.25
X144.025Y-108.85
X144.025Y-110.45
X144.025Y-112.05
X144.025Y-113.65
X144.275Y-55.3
X144.275Y-57.6
X144.275Y-60.3
X144.275Y-62.8
X144.575Y-109.65
X144.575Y-111.25
X144.575Y-112.85
X144.725Y-71.6
X147.225Y-71.6
X149.172Y-51.192
X149.172Y-52.335
X149.172Y-53.478
X149.172Y-64.781
X149.172Y-65.924
X149.172Y-67.067
X149.925Y-71.6
X150.061Y-51.7
X150.061Y-52.843
X150.061Y-65.289
X150.061Y-66.432
X150.95Y-51.192
X150.95Y-52.335
X150.95Y-53.478
X150.95Y-64.781
X150.95Y-65.924
X150.95Y-67.067
X151.527Y-88.652
X151.775Y-91.25
X151.925Y-78.95
X151.925Y-80.25
X151.925Y-81.45
X151.925Y-82.85
X151.925Y-84.15
X151.925Y-85.35
X151.925Y-86.45
X152.225Y-71.6
X158.725Y-47.75
X161.605Y-57.796
X161.605Y-58.939
X161.605Y-60.082
X161.732Y-54.748
X162.24Y-55.637
X162.4Y-112.4
X162.4Y-113.4
X162.4Y-114.4
X162.4Y-115.4
X162.4Y-116.4
X162.494Y-58.431
X162.494Y-59.574
X162.875Y-54.748
X163.383Y-55.637
X164.018Y-54.748
X164.2Y-112.4
X164.2Y-113.4
X164.2Y-114.4
X164.2Y-115.4
X164.2Y-116.4
X164.526Y-55.637
X165.161Y-54.748
X165.6Y-120.2
X165.669Y-55.637
X165.669Y-57.923
X165.669Y-59.066
X165.669Y-60.209
X166.025Y-98.65
X167.701Y-57.034
X167.701Y-58.177
X167.701Y-59.32
X167.701Y-60.59
X167.701Y-61.86
X168.59Y-57.669
X168.59Y-58.812
X168.59Y-60.082
X168.59Y-61.352
X169.479Y-57.161
X169.479Y-58.304
X169.479Y-59.447
X169.479Y-60.717
X169.479Y-61.987
X170.368Y-57.796
X170.368Y-58.939
X170.368Y-60.209
X170.368Y-61.479
X171.384Y-57.161
X171.384Y-58.304
X171.384Y-59.447
X171.384Y-60.717
X171.384Y-61.987
X172.273Y-57.796
X172.273Y-58.939
X172.273Y-60.209
X172.273Y-61.479
X177.825Y-96.45
T6
X94.425Y-76.5
X94.425Y-79.04
X94.425Y-81.58
X94.425Y-84.12
X94.425Y-86.66
X94.51Y-62.945
X94.51Y-65.485
X94.51Y-68.025
X96.965Y-76.5
X96.965Y-79.04
X96.965Y-81.58
X96.965Y-84.12
X96.965Y-86.66
X97.05Y-62.945
X97.05Y-65.485
X97.05Y-68.025
X122.035Y-130.25
X123.42Y-133.09
X124.805Y-130.25
X126.19Y-133.09
X127.575Y-130.25
X128.96Y-133.09
X130.345Y-130.25
X131.73Y-133.09
X133.115Y-130.25
X177.017Y-58.177
X182.017Y-58.177
T7
X106.292Y-50.601
X106.292Y-53.601
X106.292Y-64.301
X106.292Y-67.3
X109.292Y-50.601
X109.292Y-53.601
X109.292Y-64.301
X109.292Y-67.3
X112.292Y-50.601
X112.292Y-53.601
X112.292Y-64.301
X112.292Y-67.3
X123.755Y-64.3
X123.755Y-67.3
X123.756Y-50.601
X123.756Y-53.601
X126.755Y-64.3
X126.755Y-67.3
X126.756Y-50.601
X126.756Y-53.601
X129.755Y-64.3
X129.755Y-67.3
X129.756Y-50.601
X129.756Y-53.601
X141.217Y-64.319
X141.217Y-67.319
X141.22Y-50.601
X141.22Y-53.601
X144.217Y-64.319
X144.217Y-67.319
X144.22Y-50.601
X144.22Y-53.601
X147.217Y-64.319
X147.217Y-67.319
X147.22Y-50.601
X147.22Y-53.601
T8
X94.175Y-124.2
X94.175Y-130.7
X94.425Y-52.8
X94.425Y-59.3
X98.675Y-124.2
X98.675Y-130.7
X98.925Y-52.8
X98.925Y-59.3
T9
X150.525Y-129.174
X150.525Y-134.174
X166.772Y-75.322
X166.772Y-80.322
X174.472Y-75.322
X174.472Y-80.322
T10
X161.097Y-133.945
X163.637Y-88.225
X168.717Y-88.225
X171.257Y-133.945
X178.877Y-88.225
X181.417Y-133.945
T11
X103.6Y-75.576
X107.006Y-75.576
X111.476Y-75.576
X114.882Y-75.576
X121.062Y-75.576
X124.469Y-75.576
X128.939Y-75.576
X132.345Y-75.576
X138.525Y-75.576
X141.931Y-75.576
X146.401Y-75.576
X149.807Y-75.576
X154.3Y-104.818
X154.3Y-108.224
X154.3Y-112.694
X154.3Y-116.1
X163.891Y-57.038
X163.891Y-60.444
X163.891Y-64.914
X163.891Y-68.32
T12
X97.525Y-45.85
X97.525Y-135.85
X115.075Y-131.67
X140.075Y-131.67
X187.525Y-45.85
X187.525Y-135.85
T13
X166.156Y-45.35
X173.106Y-45.35
T14
X94.23Y-107.074
X94.23Y-110.074
T15
X103.292Y-49.661
X103.292Y-63.36
X115.292Y-49.661
X115.292Y-63.36
X120.755Y-63.36
X120.756Y-49.661
X132.755Y-63.36
X132.756Y-49.661
X138.217Y-63.378
X138.22Y-49.661
X150.217Y-63.378
X150.22Y-49.661
T4
G00X94.283Y-114.3
M15
G01X93.633Y-114.3
M16
G05
G00X94.283Y-121.3
M15
G01X93.633Y-121.3
M16
G05
T5
G00X96.658Y-115.15
M15
G01X96.658Y-115.45
M16
G05
G00X96.658Y-120.15
M15
G01X96.658Y-120.45
M16
G05
T0
M30
