%TF.GenerationSoftware,KiCad,Pcbnew,7.0.6*%
%TF.CreationDate,2024-03-09T23:02:32-07:00*%
%TF.ProjectId,Batt-Power-Prototype-2023_Lucy_V1,42617474-2d50-46f7-9765-722d50726f74,2*%
%TF.SameCoordinates,Original*%
%TF.FileFunction,Paste,Bot*%
%TF.FilePolarity,Positive*%
%FSLAX46Y46*%
G04 Gerber Fmt 4.6, Leading zero omitted, Abs format (unit mm)*
G04 Created by KiCad (PCBNEW 7.0.6) date 2024-03-09 23:02:32*
%MOMM*%
%LPD*%
G01*
G04 APERTURE LIST*
G04 Aperture macros list*
%AMRoundRect*
0 Rectangle with rounded corners*
0 $1 Rounding radius*
0 $2 $3 $4 $5 $6 $7 $8 $9 X,Y pos of 4 corners*
0 Add a 4 corners polygon primitive as box body*
4,1,4,$2,$3,$4,$5,$6,$7,$8,$9,$2,$3,0*
0 Add four circle primitives for the rounded corners*
1,1,$1+$1,$2,$3*
1,1,$1+$1,$4,$5*
1,1,$1+$1,$6,$7*
1,1,$1+$1,$8,$9*
0 Add four rect primitives between the rounded corners*
20,1,$1+$1,$2,$3,$4,$5,0*
20,1,$1+$1,$4,$5,$6,$7,0*
20,1,$1+$1,$6,$7,$8,$9,0*
20,1,$1+$1,$8,$9,$2,$3,0*%
G04 Aperture macros list end*
%ADD10RoundRect,0.225000X-0.250000X0.225000X-0.250000X-0.225000X0.250000X-0.225000X0.250000X0.225000X0*%
%ADD11RoundRect,0.250000X1.075000X-0.312500X1.075000X0.312500X-1.075000X0.312500X-1.075000X-0.312500X0*%
%ADD12RoundRect,0.225000X0.250000X-0.225000X0.250000X0.225000X-0.250000X0.225000X-0.250000X-0.225000X0*%
%ADD13RoundRect,0.225000X0.225000X0.250000X-0.225000X0.250000X-0.225000X-0.250000X0.225000X-0.250000X0*%
%ADD14RoundRect,0.225000X-0.225000X-0.250000X0.225000X-0.250000X0.225000X0.250000X-0.225000X0.250000X0*%
%ADD15RoundRect,0.225000X0.225000X0.375000X-0.225000X0.375000X-0.225000X-0.375000X0.225000X-0.375000X0*%
%ADD16RoundRect,0.140000X-0.140000X-0.170000X0.140000X-0.170000X0.140000X0.170000X-0.140000X0.170000X0*%
%ADD17R,5.400000X1.375600*%
%ADD18R,0.558800X1.460500*%
%ADD19RoundRect,0.150000X-0.825000X-0.150000X0.825000X-0.150000X0.825000X0.150000X-0.825000X0.150000X0*%
%ADD20R,1.400000X1.200000*%
%ADD21RoundRect,0.250000X-1.075000X0.312500X-1.075000X-0.312500X1.075000X-0.312500X1.075000X0.312500X0*%
%ADD22R,1.500000X2.000000*%
%ADD23R,3.800000X2.000000*%
%ADD24RoundRect,0.250000X-0.262500X-0.450000X0.262500X-0.450000X0.262500X0.450000X-0.262500X0.450000X0*%
%ADD25RoundRect,0.140000X0.170000X-0.140000X0.170000X0.140000X-0.170000X0.140000X-0.170000X-0.140000X0*%
%ADD26R,0.228600X0.812800*%
%ADD27R,2.540000X1.651000*%
%ADD28RoundRect,0.140000X0.140000X0.170000X-0.140000X0.170000X-0.140000X-0.170000X0.140000X-0.170000X0*%
%ADD29RoundRect,0.150000X0.825000X0.150000X-0.825000X0.150000X-0.825000X-0.150000X0.825000X-0.150000X0*%
%ADD30RoundRect,0.250000X0.262500X0.450000X-0.262500X0.450000X-0.262500X-0.450000X0.262500X-0.450000X0*%
%ADD31RoundRect,0.140000X-0.170000X0.140000X-0.170000X-0.140000X0.170000X-0.140000X0.170000X0.140000X0*%
%ADD32RoundRect,0.200000X0.200000X0.275000X-0.200000X0.275000X-0.200000X-0.275000X0.200000X-0.275000X0*%
%ADD33R,1.375600X5.400000*%
%ADD34RoundRect,0.200000X-0.275000X0.200000X-0.275000X-0.200000X0.275000X-0.200000X0.275000X0.200000X0*%
%ADD35RoundRect,0.225000X-0.375000X0.225000X-0.375000X-0.225000X0.375000X-0.225000X0.375000X0.225000X0*%
%ADD36RoundRect,0.135000X0.135000X0.185000X-0.135000X0.185000X-0.135000X-0.185000X0.135000X-0.185000X0*%
%ADD37RoundRect,0.200000X0.275000X-0.200000X0.275000X0.200000X-0.275000X0.200000X-0.275000X-0.200000X0*%
%ADD38RoundRect,0.225000X0.375000X-0.225000X0.375000X0.225000X-0.375000X0.225000X-0.375000X-0.225000X0*%
%ADD39RoundRect,0.232500X-0.232500X-0.232500X0.232500X-0.232500X0.232500X0.232500X-0.232500X0.232500X0*%
%ADD40RoundRect,0.062500X-0.375000X-0.062500X0.375000X-0.062500X0.375000X0.062500X-0.375000X0.062500X0*%
%ADD41RoundRect,0.062500X-0.062500X-0.375000X0.062500X-0.375000X0.062500X0.375000X-0.062500X0.375000X0*%
%ADD42RoundRect,0.218750X0.218750X0.256250X-0.218750X0.256250X-0.218750X-0.256250X0.218750X-0.256250X0*%
%ADD43R,1.370000X2.720000*%
%ADD44R,2.000000X1.500000*%
%ADD45R,2.000000X3.800000*%
%ADD46RoundRect,0.150000X0.150000X-0.825000X0.150000X0.825000X-0.150000X0.825000X-0.150000X-0.825000X0*%
G04 APERTURE END LIST*
%TO.C,U2*%
G36*
X110819999Y-118028500D02*
G01*
X109749999Y-118028500D01*
X109749999Y-116577500D01*
X110819999Y-116577500D01*
X110819999Y-118028500D01*
G37*
G36*
X109549999Y-118028500D02*
G01*
X108479999Y-118028500D01*
X108479999Y-116577500D01*
X109549999Y-116577500D01*
X109549999Y-118028500D01*
G37*
%TD*%
D10*
%TO.C,C43*%
X121325000Y-117975000D03*
X121325000Y-119525000D03*
%TD*%
D11*
%TO.C,R10*%
X177125000Y-95512500D03*
X177125000Y-92587500D03*
%TD*%
D12*
%TO.C,C13*%
X103325000Y-105850000D03*
X103325000Y-104300000D03*
%TD*%
D13*
%TO.C,C18*%
X96100000Y-95400000D03*
X94550000Y-95400000D03*
%TD*%
D14*
%TO.C,C23*%
X143250000Y-116850000D03*
X144800000Y-116850000D03*
%TD*%
D15*
%TO.C,D19*%
X126575000Y-125850000D03*
X123275000Y-125850000D03*
%TD*%
D16*
%TO.C,C11*%
X100895000Y-119650000D03*
X101855000Y-119650000D03*
%TD*%
D17*
%TO.C,C22*%
X169925000Y-107232200D03*
X169925000Y-112667800D03*
%TD*%
D18*
%TO.C,U14*%
X129230000Y-123674150D03*
X127960000Y-123674150D03*
X126690000Y-123674150D03*
X125420000Y-123674150D03*
X125420000Y-118225850D03*
X126690000Y-118225850D03*
X127960000Y-118225850D03*
X129230000Y-118225850D03*
%TD*%
D19*
%TO.C,U11*%
X157575000Y-101660000D03*
X157575000Y-100390000D03*
X157575000Y-99120000D03*
X157575000Y-97850000D03*
X162525000Y-97850000D03*
X162525000Y-99120000D03*
X162525000Y-100390000D03*
X162525000Y-101660000D03*
%TD*%
D20*
%TO.C,U1*%
X106975000Y-101600000D03*
X109175000Y-101600000D03*
X109175000Y-103300000D03*
X106975000Y-103300000D03*
%TD*%
D12*
%TO.C,C12*%
X104826000Y-105850000D03*
X104826000Y-104300000D03*
%TD*%
D21*
%TO.C,R11*%
X180425000Y-92587500D03*
X180425000Y-95512500D03*
%TD*%
D15*
%TO.C,D7*%
X96975000Y-89650000D03*
X93675000Y-89650000D03*
%TD*%
D18*
%TO.C,U15*%
X129280000Y-102374150D03*
X128010000Y-102374150D03*
X126740000Y-102374150D03*
X125470000Y-102374150D03*
X125470000Y-96925850D03*
X126740000Y-96925850D03*
X128010000Y-96925850D03*
X129280000Y-96925850D03*
%TD*%
%TO.C,U13*%
X129230000Y-113024150D03*
X127960000Y-113024150D03*
X126690000Y-113024150D03*
X125420000Y-113024150D03*
X125420000Y-107575850D03*
X126690000Y-107575850D03*
X127960000Y-107575850D03*
X129230000Y-107575850D03*
%TD*%
D22*
%TO.C,U6*%
X138625000Y-118850000D03*
X140925000Y-118850000D03*
D23*
X140925000Y-125150000D03*
D22*
X143225000Y-118850000D03*
%TD*%
D24*
%TO.C,R30*%
X128425000Y-94650000D03*
X130250000Y-94650000D03*
%TD*%
D12*
%TO.C,C46*%
X148976000Y-103822000D03*
X148976000Y-102272000D03*
%TD*%
D10*
%TO.C,C42*%
X123675000Y-107425000D03*
X123675000Y-108975000D03*
%TD*%
D25*
%TO.C,C7*%
X109875000Y-114580000D03*
X109875000Y-113620000D03*
%TD*%
D24*
%TO.C,R13*%
X175312500Y-131450000D03*
X177137500Y-131450000D03*
%TD*%
D26*
%TO.C,U2*%
X108524997Y-115906000D03*
X108974999Y-115906000D03*
X109424998Y-115906000D03*
X109875000Y-115906000D03*
X110324999Y-115906000D03*
X110774998Y-115906000D03*
X110775001Y-118700000D03*
X110324999Y-118700000D03*
X109875000Y-118700000D03*
X109424998Y-118700000D03*
X108974999Y-118700000D03*
X108525000Y-118700000D03*
D27*
X109649999Y-117303000D03*
%TD*%
D28*
%TO.C,C48*%
X145900000Y-100507000D03*
X144940000Y-100507000D03*
%TD*%
D29*
%TO.C,U12*%
X163699000Y-50049000D03*
X163699000Y-51319000D03*
X163699000Y-52589000D03*
X163699000Y-53859000D03*
X158749000Y-53859000D03*
X158749000Y-52589000D03*
X158749000Y-51319000D03*
X158749000Y-50049000D03*
%TD*%
D30*
%TO.C,R29*%
X130237500Y-92550000D03*
X128412500Y-92550000D03*
%TD*%
D13*
%TO.C,C3*%
X116187000Y-103921500D03*
X114637000Y-103921500D03*
%TD*%
D31*
%TO.C,C45*%
X156779000Y-51375000D03*
X156779000Y-52335000D03*
%TD*%
D10*
%TO.C,C49*%
X131025000Y-118175000D03*
X131025000Y-119725000D03*
%TD*%
D15*
%TO.C,D20*%
X126725000Y-94650000D03*
X123425000Y-94650000D03*
%TD*%
D28*
%TO.C,C6*%
X116441000Y-105191500D03*
X115481000Y-105191500D03*
%TD*%
%TO.C,C55*%
X97025000Y-50700000D03*
X96065000Y-50700000D03*
%TD*%
D31*
%TO.C,C4*%
X109925000Y-110770000D03*
X109925000Y-111730000D03*
%TD*%
D32*
%TO.C,R27*%
X123650000Y-105750000D03*
X122000000Y-105750000D03*
%TD*%
D12*
%TO.C,C14*%
X101778000Y-105850000D03*
X101778000Y-104300000D03*
%TD*%
%TO.C,C5*%
X108625000Y-114325000D03*
X108625000Y-112775000D03*
%TD*%
D25*
%TO.C,C44*%
X164228000Y-100362000D03*
X164228000Y-99402000D03*
%TD*%
D31*
%TO.C,C10*%
X104225000Y-115820000D03*
X104225000Y-116780000D03*
%TD*%
D33*
%TO.C,C21*%
X162242800Y-114300000D03*
X156807200Y-114300000D03*
%TD*%
D28*
%TO.C,C41*%
X159705000Y-48700000D03*
X158745000Y-48700000D03*
%TD*%
D30*
%TO.C,R14*%
X177137500Y-133950000D03*
X175312500Y-133950000D03*
%TD*%
D13*
%TO.C,C40*%
X162590000Y-103311000D03*
X161040000Y-103311000D03*
%TD*%
D15*
%TO.C,D18*%
X126675000Y-115300000D03*
X123375000Y-115300000D03*
%TD*%
D34*
%TO.C,R26*%
X121325000Y-114800000D03*
X121325000Y-116450000D03*
%TD*%
D35*
%TO.C,D16*%
X121725000Y-107400000D03*
X121725000Y-110700000D03*
%TD*%
D10*
%TO.C,C17*%
X96125000Y-99975000D03*
X96125000Y-101525000D03*
%TD*%
D25*
%TO.C,C9*%
X104225000Y-119280000D03*
X104225000Y-118320000D03*
%TD*%
D28*
%TO.C,C2*%
X99505000Y-122150000D03*
X98545000Y-122150000D03*
%TD*%
D35*
%TO.C,D21*%
X123225000Y-99200000D03*
X123225000Y-102500000D03*
%TD*%
D28*
%TO.C,C8*%
X108655000Y-100200000D03*
X107695000Y-100200000D03*
%TD*%
D36*
%TO.C,R4*%
X106735000Y-116350000D03*
X105715000Y-116350000D03*
%TD*%
D37*
%TO.C,R28*%
X119825000Y-117975000D03*
X119825000Y-116325000D03*
%TD*%
D35*
%TO.C,D17*%
X123225000Y-117850000D03*
X123225000Y-121150000D03*
%TD*%
D38*
%TO.C,D6*%
X99825000Y-84100000D03*
X99825000Y-80800000D03*
%TD*%
D13*
%TO.C,C20*%
X140700000Y-116750000D03*
X139150000Y-116750000D03*
%TD*%
D16*
%TO.C,C1*%
X111645000Y-119650000D03*
X112605000Y-119650000D03*
%TD*%
D39*
%TO.C,U3*%
X112525000Y-107700000D03*
X112525000Y-108850000D03*
X112525000Y-110000000D03*
X113675000Y-107700000D03*
X113675000Y-108850000D03*
X113675000Y-110000000D03*
X114825000Y-107700000D03*
X114825000Y-108850000D03*
X114825000Y-110000000D03*
D40*
X111237500Y-110600000D03*
X111237500Y-110100000D03*
X111237500Y-109600000D03*
X111237500Y-109100000D03*
X111237500Y-108600000D03*
X111237500Y-108100000D03*
X111237500Y-107600000D03*
X111237500Y-107100000D03*
D41*
X111925000Y-106412500D03*
X112425000Y-106412500D03*
X112925000Y-106412500D03*
X113425000Y-106412500D03*
X113925000Y-106412500D03*
X114425000Y-106412500D03*
X114925000Y-106412500D03*
X115425000Y-106412500D03*
D40*
X116112500Y-107100000D03*
X116112500Y-107600000D03*
X116112500Y-108100000D03*
X116112500Y-108600000D03*
X116112500Y-109100000D03*
X116112500Y-109600000D03*
X116112500Y-110100000D03*
X116112500Y-110600000D03*
D41*
X115425000Y-111287500D03*
X114925000Y-111287500D03*
X114425000Y-111287500D03*
X113925000Y-111287500D03*
X113425000Y-111287500D03*
X112925000Y-111287500D03*
X112425000Y-111287500D03*
X111925000Y-111287500D03*
%TD*%
D42*
%TO.C,FB1*%
X103112500Y-107361000D03*
X101537500Y-107361000D03*
%TD*%
D43*
%TO.C,C54*%
X168983000Y-83750000D03*
X171825000Y-83750000D03*
%TD*%
D32*
%TO.C,R25*%
X126750000Y-105750000D03*
X125100000Y-105750000D03*
%TD*%
D36*
%TO.C,R3*%
X106785000Y-118350000D03*
X105765000Y-118350000D03*
%TD*%
D10*
%TO.C,C50*%
X131025000Y-96875000D03*
X131025000Y-98425000D03*
%TD*%
D44*
%TO.C,U5*%
X98125000Y-101850000D03*
X98125000Y-99550000D03*
D45*
X104425000Y-99550000D03*
D44*
X98125000Y-97250000D03*
%TD*%
D10*
%TO.C,C47*%
X130975000Y-107575000D03*
X130975000Y-109125000D03*
%TD*%
D46*
%TO.C,U16*%
X147325000Y-107300000D03*
X146055000Y-107300000D03*
X144785000Y-107300000D03*
X143515000Y-107300000D03*
X143515000Y-102350000D03*
X144785000Y-102350000D03*
X146055000Y-102350000D03*
X147325000Y-102350000D03*
%TD*%
M02*
