%TF.GenerationSoftware,KiCad,Pcbnew,7.0.6*%
%TF.CreationDate,2024-02-04T22:28:32-07:00*%
%TF.ProjectId,Batt-Power-Prototype-2023_Lucy_V1,42617474-2d50-46f7-9765-722d50726f74,rev?*%
%TF.SameCoordinates,Original*%
%TF.FileFunction,Paste,Bot*%
%TF.FilePolarity,Positive*%
%FSLAX46Y46*%
G04 Gerber Fmt 4.6, Leading zero omitted, Abs format (unit mm)*
G04 Created by KiCad (PCBNEW 7.0.6) date 2024-02-04 22:28:32*
%MOMM*%
%LPD*%
G01*
G04 APERTURE LIST*
G04 Aperture macros list*
%AMRoundRect*
0 Rectangle with rounded corners*
0 $1 Rounding radius*
0 $2 $3 $4 $5 $6 $7 $8 $9 X,Y pos of 4 corners*
0 Add a 4 corners polygon primitive as box body*
4,1,4,$2,$3,$4,$5,$6,$7,$8,$9,$2,$3,0*
0 Add four circle primitives for the rounded corners*
1,1,$1+$1,$2,$3*
1,1,$1+$1,$4,$5*
1,1,$1+$1,$6,$7*
1,1,$1+$1,$8,$9*
0 Add four rect primitives between the rounded corners*
20,1,$1+$1,$2,$3,$4,$5,0*
20,1,$1+$1,$4,$5,$6,$7,0*
20,1,$1+$1,$6,$7,$8,$9,0*
20,1,$1+$1,$8,$9,$2,$3,0*%
G04 Aperture macros list end*
%ADD10RoundRect,0.135000X0.135000X0.185000X-0.135000X0.185000X-0.135000X-0.185000X0.135000X-0.185000X0*%
%ADD11RoundRect,0.140000X-0.140000X-0.170000X0.140000X-0.170000X0.140000X0.170000X-0.140000X0.170000X0*%
%ADD12RoundRect,0.140000X0.140000X0.170000X-0.140000X0.170000X-0.140000X-0.170000X0.140000X-0.170000X0*%
%ADD13RoundRect,0.140000X-0.170000X0.140000X-0.170000X-0.140000X0.170000X-0.140000X0.170000X0.140000X0*%
%ADD14RoundRect,0.140000X0.170000X-0.140000X0.170000X0.140000X-0.170000X0.140000X-0.170000X-0.140000X0*%
%ADD15RoundRect,0.225000X-0.250000X0.225000X-0.250000X-0.225000X0.250000X-0.225000X0.250000X0.225000X0*%
%ADD16RoundRect,0.250000X1.075000X-0.312500X1.075000X0.312500X-1.075000X0.312500X-1.075000X-0.312500X0*%
%ADD17RoundRect,0.225000X0.225000X0.250000X-0.225000X0.250000X-0.225000X-0.250000X0.225000X-0.250000X0*%
%ADD18RoundRect,0.225000X-0.225000X-0.250000X0.225000X-0.250000X0.225000X0.250000X-0.225000X0.250000X0*%
%ADD19RoundRect,0.225000X0.225000X0.375000X-0.225000X0.375000X-0.225000X-0.375000X0.225000X-0.375000X0*%
%ADD20R,5.400000X1.375600*%
%ADD21R,0.558800X1.460500*%
%ADD22RoundRect,0.150000X-0.825000X-0.150000X0.825000X-0.150000X0.825000X0.150000X-0.825000X0.150000X0*%
%ADD23R,1.400000X1.200000*%
%ADD24RoundRect,0.250000X-1.075000X0.312500X-1.075000X-0.312500X1.075000X-0.312500X1.075000X0.312500X0*%
%ADD25R,1.500000X2.000000*%
%ADD26R,3.800000X2.000000*%
%ADD27RoundRect,0.250000X-0.262500X-0.450000X0.262500X-0.450000X0.262500X0.450000X-0.262500X0.450000X0*%
%ADD28RoundRect,0.225000X0.250000X-0.225000X0.250000X0.225000X-0.250000X0.225000X-0.250000X-0.225000X0*%
%ADD29R,0.228600X0.812800*%
%ADD30R,2.540000X1.651000*%
%ADD31RoundRect,0.150000X0.825000X0.150000X-0.825000X0.150000X-0.825000X-0.150000X0.825000X-0.150000X0*%
%ADD32RoundRect,0.250000X0.262500X0.450000X-0.262500X0.450000X-0.262500X-0.450000X0.262500X-0.450000X0*%
%ADD33RoundRect,0.200000X0.200000X0.275000X-0.200000X0.275000X-0.200000X-0.275000X0.200000X-0.275000X0*%
%ADD34R,1.375600X5.400000*%
%ADD35RoundRect,0.200000X-0.275000X0.200000X-0.275000X-0.200000X0.275000X-0.200000X0.275000X0.200000X0*%
%ADD36RoundRect,0.225000X-0.375000X0.225000X-0.375000X-0.225000X0.375000X-0.225000X0.375000X0.225000X0*%
%ADD37RoundRect,0.200000X0.275000X-0.200000X0.275000X0.200000X-0.275000X0.200000X-0.275000X-0.200000X0*%
%ADD38RoundRect,0.225000X0.375000X-0.225000X0.375000X0.225000X-0.375000X0.225000X-0.375000X-0.225000X0*%
%ADD39RoundRect,0.232500X-0.232500X-0.232500X0.232500X-0.232500X0.232500X0.232500X-0.232500X0.232500X0*%
%ADD40RoundRect,0.062500X-0.375000X-0.062500X0.375000X-0.062500X0.375000X0.062500X-0.375000X0.062500X0*%
%ADD41RoundRect,0.062500X-0.062500X-0.375000X0.062500X-0.375000X0.062500X0.375000X-0.062500X0.375000X0*%
%ADD42R,1.370000X2.720000*%
%ADD43R,2.000000X1.500000*%
%ADD44R,2.000000X3.800000*%
%ADD45RoundRect,0.150000X0.150000X-0.825000X0.150000X0.825000X-0.150000X0.825000X-0.150000X-0.825000X0*%
G04 APERTURE END LIST*
%TO.C,U2*%
G36*
X113294999Y-136178500D02*
G01*
X112224999Y-136178500D01*
X112224999Y-134727500D01*
X113294999Y-134727500D01*
X113294999Y-136178500D01*
G37*
G36*
X112024999Y-136178500D02*
G01*
X110954999Y-136178500D01*
X110954999Y-134727500D01*
X112024999Y-134727500D01*
X112024999Y-136178500D01*
G37*
%TD*%
D10*
%TO.C,R4*%
X109210000Y-134500000D03*
X108190000Y-134500000D03*
%TD*%
%TO.C,R3*%
X109260000Y-136500000D03*
X108240000Y-136500000D03*
%TD*%
D11*
%TO.C,C11*%
X103370000Y-137800000D03*
X104330000Y-137800000D03*
%TD*%
D12*
%TO.C,C55*%
X99500000Y-68850000D03*
X98540000Y-68850000D03*
%TD*%
D13*
%TO.C,C10*%
X106700000Y-133970000D03*
X106700000Y-134930000D03*
%TD*%
D14*
%TO.C,C9*%
X106700000Y-136470000D03*
X106700000Y-137430000D03*
%TD*%
D12*
%TO.C,C2*%
X101980000Y-140300000D03*
X101020000Y-140300000D03*
%TD*%
D15*
%TO.C,C43*%
X123800000Y-136125000D03*
X123800000Y-137675000D03*
%TD*%
D16*
%TO.C,R10*%
X179600000Y-113662500D03*
X179600000Y-110737500D03*
%TD*%
D17*
%TO.C,C18*%
X98642500Y-120800500D03*
X97092500Y-120800500D03*
%TD*%
D18*
%TO.C,C23*%
X145725000Y-135000000D03*
X147275000Y-135000000D03*
%TD*%
D19*
%TO.C,D19*%
X129050000Y-144000000D03*
X125750000Y-144000000D03*
%TD*%
D20*
%TO.C,C22*%
X172400000Y-125382200D03*
X172400000Y-130817800D03*
%TD*%
D21*
%TO.C,U14*%
X131705000Y-141824150D03*
X130435000Y-141824150D03*
X129165000Y-141824150D03*
X127895000Y-141824150D03*
X127895000Y-136375850D03*
X129165000Y-136375850D03*
X130435000Y-136375850D03*
X131705000Y-136375850D03*
%TD*%
D22*
%TO.C,U11*%
X160050000Y-119810000D03*
X160050000Y-118540000D03*
X160050000Y-117270000D03*
X160050000Y-116000000D03*
X165000000Y-116000000D03*
X165000000Y-117270000D03*
X165000000Y-118540000D03*
X165000000Y-119810000D03*
%TD*%
D23*
%TO.C,U1*%
X109604000Y-121563500D03*
X111804000Y-121563500D03*
X111804000Y-123263500D03*
X109604000Y-123263500D03*
%TD*%
D24*
%TO.C,R11*%
X182900000Y-110737500D03*
X182900000Y-113662500D03*
%TD*%
D19*
%TO.C,D7*%
X99450000Y-107800000D03*
X96150000Y-107800000D03*
%TD*%
D21*
%TO.C,U15*%
X131755000Y-120524150D03*
X130485000Y-120524150D03*
X129215000Y-120524150D03*
X127945000Y-120524150D03*
X127945000Y-115075850D03*
X129215000Y-115075850D03*
X130485000Y-115075850D03*
X131755000Y-115075850D03*
%TD*%
%TO.C,U13*%
X131705000Y-131174150D03*
X130435000Y-131174150D03*
X129165000Y-131174150D03*
X127895000Y-131174150D03*
X127895000Y-125725850D03*
X129165000Y-125725850D03*
X130435000Y-125725850D03*
X131705000Y-125725850D03*
%TD*%
D25*
%TO.C,U6*%
X141100000Y-137000000D03*
X143400000Y-137000000D03*
D26*
X143400000Y-143300000D03*
D25*
X145700000Y-137000000D03*
%TD*%
D27*
%TO.C,R30*%
X130900000Y-112800000D03*
X132725000Y-112800000D03*
%TD*%
D28*
%TO.C,C46*%
X151451000Y-121972000D03*
X151451000Y-120422000D03*
%TD*%
D15*
%TO.C,C42*%
X126150000Y-125575000D03*
X126150000Y-127125000D03*
%TD*%
D14*
%TO.C,C7*%
X112350000Y-132730000D03*
X112350000Y-131770000D03*
%TD*%
D27*
%TO.C,R13*%
X177787500Y-149600000D03*
X179612500Y-149600000D03*
%TD*%
D29*
%TO.C,U2*%
X110999997Y-134056000D03*
X111449999Y-134056000D03*
X111899998Y-134056000D03*
X112350000Y-134056000D03*
X112799999Y-134056000D03*
X113249998Y-134056000D03*
X113250001Y-136850000D03*
X112799999Y-136850000D03*
X112350000Y-136850000D03*
X111899998Y-136850000D03*
X111449999Y-136850000D03*
X111000000Y-136850000D03*
D30*
X112124999Y-135453000D03*
%TD*%
D12*
%TO.C,C48*%
X148375000Y-118657000D03*
X147415000Y-118657000D03*
%TD*%
D31*
%TO.C,U12*%
X166174000Y-68199000D03*
X166174000Y-69469000D03*
X166174000Y-70739000D03*
X166174000Y-72009000D03*
X161224000Y-72009000D03*
X161224000Y-70739000D03*
X161224000Y-69469000D03*
X161224000Y-68199000D03*
%TD*%
D32*
%TO.C,R29*%
X132712500Y-110700000D03*
X130887500Y-110700000D03*
%TD*%
D17*
%TO.C,C3*%
X118662000Y-122071500D03*
X117112000Y-122071500D03*
%TD*%
D13*
%TO.C,C45*%
X159254000Y-69525000D03*
X159254000Y-70485000D03*
%TD*%
D15*
%TO.C,C49*%
X133500000Y-136325000D03*
X133500000Y-137875000D03*
%TD*%
D19*
%TO.C,D20*%
X129200000Y-112800000D03*
X125900000Y-112800000D03*
%TD*%
D12*
%TO.C,C6*%
X118916000Y-123341500D03*
X117956000Y-123341500D03*
%TD*%
D13*
%TO.C,C4*%
X112400000Y-128920000D03*
X112400000Y-129880000D03*
%TD*%
D33*
%TO.C,R27*%
X126125000Y-123900000D03*
X124475000Y-123900000D03*
%TD*%
D28*
%TO.C,C5*%
X111100000Y-132475000D03*
X111100000Y-130925000D03*
%TD*%
D14*
%TO.C,C44*%
X166703000Y-118512000D03*
X166703000Y-117552000D03*
%TD*%
D34*
%TO.C,C21*%
X166717800Y-128000000D03*
X161282200Y-128000000D03*
%TD*%
D12*
%TO.C,C41*%
X162180000Y-66850000D03*
X161220000Y-66850000D03*
%TD*%
D32*
%TO.C,R14*%
X179612500Y-152100000D03*
X177787500Y-152100000D03*
%TD*%
D17*
%TO.C,C40*%
X165065000Y-121461000D03*
X163515000Y-121461000D03*
%TD*%
D19*
%TO.C,D18*%
X129150000Y-133450000D03*
X125850000Y-133450000D03*
%TD*%
D35*
%TO.C,R26*%
X123800000Y-132950000D03*
X123800000Y-134600000D03*
%TD*%
D36*
%TO.C,D16*%
X124200000Y-125550000D03*
X124200000Y-128850000D03*
%TD*%
D15*
%TO.C,C17*%
X98586500Y-122436500D03*
X98586500Y-123986500D03*
%TD*%
D36*
%TO.C,D21*%
X125700000Y-117350000D03*
X125700000Y-120650000D03*
%TD*%
D12*
%TO.C,C8*%
X111250000Y-119993500D03*
X110290000Y-119993500D03*
%TD*%
D37*
%TO.C,R28*%
X122300000Y-136125000D03*
X122300000Y-134475000D03*
%TD*%
D36*
%TO.C,D17*%
X125700000Y-136000000D03*
X125700000Y-139300000D03*
%TD*%
D38*
%TO.C,D6*%
X102300000Y-102250000D03*
X102300000Y-98950000D03*
%TD*%
D17*
%TO.C,C20*%
X143175000Y-134900000D03*
X141625000Y-134900000D03*
%TD*%
D11*
%TO.C,C1*%
X114120000Y-137800000D03*
X115080000Y-137800000D03*
%TD*%
D39*
%TO.C,U3*%
X115000000Y-125850000D03*
X115000000Y-127000000D03*
X115000000Y-128150000D03*
X116150000Y-125850000D03*
X116150000Y-127000000D03*
X116150000Y-128150000D03*
X117300000Y-125850000D03*
X117300000Y-127000000D03*
X117300000Y-128150000D03*
D40*
X113712500Y-128750000D03*
X113712500Y-128250000D03*
X113712500Y-127750000D03*
X113712500Y-127250000D03*
X113712500Y-126750000D03*
X113712500Y-126250000D03*
X113712500Y-125750000D03*
X113712500Y-125250000D03*
D41*
X114400000Y-124562500D03*
X114900000Y-124562500D03*
X115400000Y-124562500D03*
X115900000Y-124562500D03*
X116400000Y-124562500D03*
X116900000Y-124562500D03*
X117400000Y-124562500D03*
X117900000Y-124562500D03*
D40*
X118587500Y-125250000D03*
X118587500Y-125750000D03*
X118587500Y-126250000D03*
X118587500Y-126750000D03*
X118587500Y-127250000D03*
X118587500Y-127750000D03*
X118587500Y-128250000D03*
X118587500Y-128750000D03*
D41*
X117900000Y-129437500D03*
X117400000Y-129437500D03*
X116900000Y-129437500D03*
X116400000Y-129437500D03*
X115900000Y-129437500D03*
X115400000Y-129437500D03*
X114900000Y-129437500D03*
X114400000Y-129437500D03*
%TD*%
D42*
%TO.C,C54*%
X171458000Y-101900000D03*
X174300000Y-101900000D03*
%TD*%
D33*
%TO.C,R25*%
X129225000Y-123900000D03*
X127575000Y-123900000D03*
%TD*%
D15*
%TO.C,C50*%
X133500000Y-115025000D03*
X133500000Y-116575000D03*
%TD*%
D43*
%TO.C,U5*%
X100686500Y-125513500D03*
X100686500Y-123213500D03*
D44*
X106986500Y-123213500D03*
D43*
X100686500Y-120913500D03*
%TD*%
D15*
%TO.C,C47*%
X133450000Y-125725000D03*
X133450000Y-127275000D03*
%TD*%
D45*
%TO.C,U16*%
X149800000Y-125450000D03*
X148530000Y-125450000D03*
X147260000Y-125450000D03*
X145990000Y-125450000D03*
X145990000Y-120500000D03*
X147260000Y-120500000D03*
X148530000Y-120500000D03*
X149800000Y-120500000D03*
%TD*%
M02*
