M48
; DRILL file {KiCad 7.0.9} date Tue Nov 28 23:56:52 2023
; FORMAT={-:-/ absolute / metric / decimal}
; #@! TF.CreationDate,2023-11-28T23:56:52-07:00
; #@! TF.GenerationSoftware,Kicad,Pcbnew,7.0.9
; #@! TF.FileFunction,Plated,1,2,PTH
FMAT,2
METRIC
; #@! TA.AperFunction,Plated,PTH,ViaDrill
T1C0.300
; #@! TA.AperFunction,Plated,PTH,ViaDrill
T2C0.400
; #@! TA.AperFunction,Plated,PTH,ViaDrill
T3C0.500
; #@! TA.AperFunction,Plated,PTH,ComponentDrill
T4C0.550
; #@! TA.AperFunction,Plated,PTH,ComponentDrill
T5C0.850
; #@! TA.AperFunction,Plated,PTH,ComponentDrill
T6C1.000
; #@! TA.AperFunction,Plated,PTH,ComponentDrill
T7C1.100
; #@! TA.AperFunction,Plated,PTH,ComponentDrill
T8C1.300
; #@! TA.AperFunction,Plated,PTH,ComponentDrill
T9C3.200
%
G90
G05
T1
X110.622Y-107.447
X110.744Y-96.652
X112.141Y-75.946
X112.268Y-88.388
X113.03Y-77.978
X113.416Y-96.139
X113.665Y-75.946
X113.665Y-78.74
X113.665Y-85.344
X113.665Y-86.868
X113.67Y-106.939
X114.427Y-77.216
X114.427Y-81.28
X114.941Y-93.35
X115.189Y-75.946
X115.189Y-78.74
X115.189Y-85.344
X115.189Y-86.868
X116.586Y-78.74
X116.586Y-85.344
X116.586Y-86.868
X116.713Y-75.946
X118.11Y-78.74
X118.11Y-85.344
X118.11Y-86.868
X118.364Y-75.946
X119.634Y-78.74
X119.634Y-85.344
X119.634Y-86.868
X119.888Y-75.946
X121.158Y-78.74
X121.158Y-85.344
X121.158Y-86.868
X121.285Y-75.946
X122.164Y-107.59
X122.306Y-97.414
X122.809Y-75.946
X122.809Y-78.74
X122.809Y-85.344
X122.809Y-86.868
X124.333Y-75.946
X124.333Y-78.74
X124.333Y-85.344
X124.333Y-86.868
X124.714Y-115.824
X124.714Y-121.666
X124.968Y-86.106
X124.968Y-103.886
X125.603Y-79.629
X125.73Y-92.964
X125.857Y-75.946
X125.984Y-104.648
X128.016Y-74.803
X128.016Y-76.454
X128.524Y-102.616
X128.524Y-105.41
X128.651Y-92.202
X128.651Y-94.234
X129.54Y-74.803
X129.54Y-76.454
X129.794Y-106.934
X129.794Y-115.57
X129.921Y-102.616
X129.921Y-105.41
X130.048Y-92.202
X130.048Y-94.234
X130.048Y-123.444
X130.937Y-74.803
X130.937Y-76.454
X131.064Y-107.061
X131.064Y-109.093
X131.445Y-102.616
X131.445Y-105.41
X131.572Y-92.202
X131.572Y-94.234
X132.461Y-74.803
X132.461Y-76.454
X132.588Y-107.061
X132.588Y-109.093
X132.969Y-102.616
X132.969Y-105.41
X133.096Y-92.202
X133.096Y-94.234
X133.858Y-120.65
X133.985Y-74.803
X133.985Y-76.454
X134.112Y-107.061
X134.112Y-109.093
X134.493Y-102.616
X134.493Y-105.41
X134.493Y-121.666
X134.62Y-94.234
X134.874Y-78.994
X135.509Y-76.454
X135.509Y-107.061
X135.509Y-109.093
X135.534Y-92.227
X135.89Y-121.666
X136.144Y-68.072
X136.144Y-102.616
X136.144Y-105.41
X136.271Y-94.234
X136.548Y-100.067
X136.802Y-101.683
X136.855Y-92.227
X137.033Y-107.061
X137.033Y-109.093
X137.109Y-89.865
X137.16Y-76.454
X137.16Y-121.666
X137.668Y-105.41
X137.795Y-94.234
X138.176Y-87.249
X138.557Y-107.061
X138.557Y-109.093
X138.557Y-110.617
X138.557Y-112.141
X138.557Y-113.538
X138.557Y-115.062
X138.557Y-116.713
X138.557Y-118.237
X138.557Y-119.761
X138.557Y-121.666
X138.684Y-76.454
X138.834Y-73.634
X139.065Y-86.614
X139.065Y-105.41
X139.088Y-75.412
X139.192Y-94.234
X139.217Y-89.51
X139.446Y-91.643
X139.7Y-84.328
X139.827Y-90.237
X139.852Y-88.367
X140.462Y-80.772
X140.589Y-87.122
X140.589Y-102.616
X140.589Y-105.41
X140.716Y-94.234
X140.97Y-91.643
X140.97Y-107.061
X140.97Y-109.093
X140.97Y-110.617
X140.97Y-112.141
X140.97Y-113.538
X140.97Y-115.062
X140.97Y-116.713
X140.97Y-118.237
X140.97Y-119.761
X140.97Y-121.666
X141.859Y-85.217
X141.884Y-76.53
X142.113Y-102.616
X142.113Y-105.41
X142.24Y-94.234
X142.367Y-119.761
X142.367Y-121.666
X142.469Y-91.643
X142.494Y-77.978
X142.596Y-79.756
X142.748Y-77.216
X143.51Y-93.218
X143.764Y-98.552
X143.764Y-120.65
X144.018Y-99.568
X144.12Y-91.643
X144.78Y-93.472
X144.78Y-94.996
X145.263Y-90.805
X146.245Y-82.668
X146.304Y-81.534
X146.482Y-90.856
X146.558Y-106.807
X146.6Y-91.846
X146.761Y-97.765
X146.761Y-99.111
X146.761Y-100.559
X146.812Y-79.756
X147.193Y-80.645
X147.345Y-88.341
X147.574Y-86.106
X147.574Y-107.442
X147.752Y-91.846
X147.782Y-87.091
X148.209Y-88.367
X148.336Y-93.472
X149.098Y-92.801
X149.733Y-76.581
X149.86Y-80.518
X149.86Y-90.932
X149.86Y-91.948
X149.86Y-108.712
X149.982Y-89.022
X150.114Y-83.058
X150.114Y-84.074
X150.114Y-85.09
X150.114Y-94.742
X150.114Y-100.838
X150.368Y-111.76
X150.422Y-79.835
X150.749Y-99.568
X150.876Y-105.156
X150.952Y-78.257
X151.003Y-110.998
X151.13Y-83.058
X151.13Y-84.074
X151.13Y-85.09
X151.257Y-90.932
X151.257Y-91.948
X151.384Y-95.25
X151.384Y-102.362
X152.146Y-83.058
X152.146Y-84.074
X152.146Y-85.09
X152.273Y-110.617
X152.4Y-103.886
X152.654Y-99.06
X152.654Y-105.918
X152.654Y-108.712
X152.654Y-117.094
X152.781Y-90.932
X152.781Y-91.948
X153.415Y-109.614
X153.532Y-108.753
X153.619Y-89.103
X153.859Y-110.363
X154.178Y-78.994
X154.178Y-81.28
X154.305Y-90.932
X154.305Y-91.948
X154.559Y-85.979
X154.661Y-80.416
X154.686Y-86.868
X154.686Y-87.884
X154.838Y-89.129
X155.194Y-93.98
X155.702Y-83.312
X155.829Y-108.753
X155.956Y-95.25
X156.21Y-106.934
X156.972Y-83.775
X157.226Y-98.806
X157.48Y-108.204
X157.734Y-106.172
X157.734Y-131.318
X158.75Y-81.788
X158.75Y-110.236
X158.75Y-130.302
X159.004Y-83.566
X159.639Y-85.852
X159.639Y-89.027
X159.639Y-109.855
X159.639Y-111.506
X160.528Y-78.105
X160.782Y-81.915
X161.036Y-85.852
X161.036Y-89.027
X161.798Y-133.604
X162.179Y-81.915
X162.56Y-85.852
X162.56Y-89.027
X162.56Y-97.79
X162.56Y-99.314
X162.56Y-100.838
X162.56Y-102.362
X162.56Y-104.013
X162.56Y-105.537
X163.703Y-81.915
X164.084Y-85.852
X164.084Y-89.027
X165.227Y-81.915
X165.354Y-67.564
X165.608Y-85.852
X165.608Y-89.027
X165.608Y-97.79
X165.608Y-99.314
X165.608Y-100.838
X165.608Y-102.362
X165.608Y-104.013
X165.608Y-105.537
X166.751Y-81.915
X167.259Y-85.852
X167.259Y-89.027
X168.402Y-81.915
X168.783Y-85.852
X168.783Y-89.027
X169.037Y-97.79
X169.037Y-99.314
X169.037Y-100.838
X169.037Y-102.362
X169.037Y-104.013
X169.672Y-113.03
X169.926Y-81.915
X170.18Y-85.852
X170.18Y-89.027
X170.688Y-115.824
X170.688Y-117.602
X170.688Y-119.38
X171.323Y-81.915
X171.704Y-85.852
X171.704Y-89.027
X172.847Y-81.915
X173.228Y-85.852
X173.228Y-89.027
X173.99Y-82.296
X173.99Y-83.566
X174.752Y-85.852
X174.752Y-89.027
X176.276Y-88.392
X177.038Y-104.902
X177.546Y-87.122
X177.8Y-78.486
X178.308Y-103.886
X179.324Y-86.106
X180.192Y-86.122
X180.848Y-100.203
X180.848Y-102.616
X181.102Y-81.026
X181.102Y-87.122
X181.37Y-86.106
X181.864Y-90.17
X182.372Y-85.852
X183.134Y-81.026
X185.582Y-84.263
X186.182Y-82.739
X187.467Y-83.501
X188.214Y-93.218
X188.214Y-106.68
X188.722Y-78.486
X191.008Y-83.501
X191.749Y-83.172
X191.749Y-83.972
X192.024Y-84.836
X196.342Y-104.775
X196.342Y-106.299
X196.342Y-107.823
X196.342Y-109.347
X196.342Y-110.998
X196.342Y-112.522
X197.866Y-104.775
X197.866Y-106.299
X197.866Y-107.823
X197.866Y-109.347
X197.866Y-110.998
X197.866Y-112.522
T2
X163.957Y-121.793
T3
X109.601Y-66.548
X127.0Y-74.803
X127.0Y-94.742
X127.254Y-119.38
X127.508Y-96.52
X138.684Y-134.62
X139.7Y-108.204
X148.209Y-68.834
X148.209Y-72.771
X148.209Y-77.851
X148.59Y-97.79
X149.352Y-122.936
X150.114Y-115.824
X153.162Y-65.024
X154.432Y-97.79
X154.686Y-115.824
X154.686Y-122.428
X155.194Y-104.648
X160.274Y-105.156
X160.858Y-97.841
X163.576Y-95.758
X167.386Y-97.536
X167.386Y-107.696
X167.894Y-133.858
X172.466Y-133.858
X178.308Y-133.858
X179.451Y-113.665
X185.42Y-122.682
X185.42Y-134.112
X185.928Y-97.536
X185.928Y-108.458
X195.072Y-74.93
X195.58Y-95.123
T6
X101.986Y-98.653
X101.986Y-101.653
X101.986Y-104.653
X104.986Y-98.653
X104.986Y-101.653
X104.986Y-104.653
X123.274Y-125.33
X124.659Y-128.17
X126.044Y-125.33
X127.429Y-128.17
X128.814Y-125.33
X130.199Y-128.17
X131.584Y-125.33
X132.969Y-128.17
X134.354Y-125.33
X153.162Y-73.406
X153.162Y-75.946
X155.665Y-125.33
X155.702Y-73.406
X155.702Y-75.946
X157.05Y-128.17
X158.242Y-73.406
X158.242Y-75.946
X158.435Y-125.33
X159.82Y-128.17
X160.782Y-73.406
X160.782Y-75.946
X161.205Y-125.33
X162.59Y-128.17
X162.636Y-92.431
X163.322Y-73.406
X163.322Y-75.946
X163.975Y-125.33
X165.176Y-92.431
X165.36Y-128.17
X166.745Y-125.33
X167.716Y-92.431
X168.13Y-128.17
X169.515Y-125.33
X170.256Y-92.431
X170.9Y-128.17
X172.285Y-125.33
X173.67Y-128.17
X175.055Y-125.33
T7
X100.89Y-75.982
X100.89Y-80.482
X100.89Y-85.634
X100.89Y-90.134
X107.39Y-75.982
X107.39Y-80.482
X107.39Y-85.634
X107.39Y-90.134
T8
X193.599Y-116.337
X193.599Y-121.417
X193.802Y-97.917
X193.802Y-102.997
T9
X116.314Y-126.75
X141.314Y-126.75
X148.71Y-126.75
X182.01Y-126.75
T4
X196.697Y-79.372G85X197.347Y-79.372
G05
X196.697Y-87.122G85X197.347Y-87.122
G05
T5
X192.947Y-79.522G85X193.497Y-79.522
G05
X192.947Y-86.972G85X193.497Y-86.972
G05
T0
M30
