G04 #@! TF.GenerationSoftware,KiCad,Pcbnew,7.0.9*
G04 #@! TF.CreationDate,2023-11-28T23:55:51-07:00*
G04 #@! TF.ProjectId,Fuel_Cell_Controller_Prototype,4675656c-5f43-4656-9c6c-5f436f6e7472,V1.0*
G04 #@! TF.SameCoordinates,Original*
G04 #@! TF.FileFunction,Soldermask,Bot*
G04 #@! TF.FilePolarity,Negative*
%FSLAX46Y46*%
G04 Gerber Fmt 4.6, Leading zero omitted, Abs format (unit mm)*
G04 Created by KiCad (PCBNEW 7.0.9) date 2023-11-28 23:55:51*
%MOMM*%
%LPD*%
G01*
G04 APERTURE LIST*
G04 Aperture macros list*
%AMRoundRect*
0 Rectangle with rounded corners*
0 $1 Rounding radius*
0 $2 $3 $4 $5 $6 $7 $8 $9 X,Y pos of 4 corners*
0 Add a 4 corners polygon primitive as box body*
4,1,4,$2,$3,$4,$5,$6,$7,$8,$9,$2,$3,0*
0 Add four circle primitives for the rounded corners*
1,1,$1+$1,$2,$3*
1,1,$1+$1,$4,$5*
1,1,$1+$1,$6,$7*
1,1,$1+$1,$8,$9*
0 Add four rect primitives between the rounded corners*
20,1,$1+$1,$2,$3,$4,$5,0*
20,1,$1+$1,$4,$5,$6,$7,0*
20,1,$1+$1,$6,$7,$8,$9,0*
20,1,$1+$1,$8,$9,$2,$3,0*%
G04 Aperture macros list end*
%ADD10C,3.200000*%
%ADD11C,2.000000*%
%ADD12R,2.600000X2.600000*%
%ADD13C,2.600000*%
%ADD14R,1.700000X1.700000*%
%ADD15O,1.700000X1.700000*%
%ADD16C,1.000000*%
%ADD17RoundRect,0.250001X0.499999X-0.499999X0.499999X0.499999X-0.499999X0.499999X-0.499999X-0.499999X0*%
%ADD18C,1.500000*%
%ADD19C,4.000000*%
%ADD20R,1.600000X1.600000*%
%ADD21C,1.600000*%
%ADD22O,0.800000X0.800000*%
%ADD23O,1.800000X1.150000*%
%ADD24O,2.000000X1.450000*%
%ADD25RoundRect,0.143300X-0.563700X-0.253700X0.563700X-0.253700X0.563700X0.253700X-0.563700X0.253700X0*%
G04 APERTURE END LIST*
D10*
X194000000Y-131000000D03*
X104000000Y-131000000D03*
D11*
X100890000Y-75982000D03*
X107390000Y-75982000D03*
X100890000Y-80482000D03*
X107390000Y-80482000D03*
D12*
X193802000Y-102997000D03*
D13*
X193802000Y-97917000D03*
D14*
X162636200Y-92431000D03*
D15*
X165176200Y-92431000D03*
X167716200Y-92431000D03*
X170256200Y-92431000D03*
D10*
X104000000Y-69000000D03*
X194000000Y-69000000D03*
D16*
X105926500Y-107653500D03*
X105926500Y-95653500D03*
D17*
X101986500Y-104653500D03*
D18*
X101986500Y-101653500D03*
X101986500Y-98653500D03*
X104986500Y-104653500D03*
X104986500Y-101653500D03*
X104986500Y-98653500D03*
D19*
X148710000Y-126750000D03*
X182010000Y-126750000D03*
D20*
X175055000Y-125330000D03*
D21*
X172285000Y-125330000D03*
X169515000Y-125330000D03*
X166745000Y-125330000D03*
X163975000Y-125330000D03*
X161205000Y-125330000D03*
X158435000Y-125330000D03*
X155665000Y-125330000D03*
X173670000Y-128170000D03*
X170900000Y-128170000D03*
X168130000Y-128170000D03*
X165360000Y-128170000D03*
X162590000Y-128170000D03*
X159820000Y-128170000D03*
X157050000Y-128170000D03*
D19*
X116314000Y-126750000D03*
X141314000Y-126750000D03*
D20*
X134354000Y-125330000D03*
D21*
X131584000Y-125330000D03*
X128814000Y-125330000D03*
X126044000Y-125330000D03*
X123274000Y-125330000D03*
X132969000Y-128170000D03*
X130199000Y-128170000D03*
X127429000Y-128170000D03*
X124659000Y-128170000D03*
D22*
X194272000Y-85747000D03*
X194272000Y-80747000D03*
D23*
X197022000Y-87122000D03*
D24*
X193222000Y-86972000D03*
X193222000Y-79522000D03*
D23*
X197022000Y-79372000D03*
D12*
X193599000Y-121417000D03*
D13*
X193599000Y-116337000D03*
D11*
X100890000Y-85634000D03*
X107390000Y-85634000D03*
X100890000Y-90134000D03*
X107390000Y-90134000D03*
D14*
X163322000Y-75946000D03*
D15*
X163322000Y-73406000D03*
X160782000Y-75946000D03*
X160782000Y-73406000D03*
X158242000Y-75946000D03*
X158242000Y-73406000D03*
X155702000Y-75946000D03*
X155702000Y-73406000D03*
X153162000Y-75946000D03*
X153162000Y-73406000D03*
D25*
X187467000Y-84451000D03*
X187467000Y-83501000D03*
X187467000Y-82551000D03*
X189977000Y-82551000D03*
X189977000Y-83501000D03*
X189977000Y-84451000D03*
M02*
