G04 #@! TF.GenerationSoftware,KiCad,Pcbnew,7.0.9*
G04 #@! TF.CreationDate,2023-11-28T23:55:50-07:00*
G04 #@! TF.ProjectId,Fuel_Cell_Controller_Prototype,4675656c-5f43-4656-9c6c-5f436f6e7472,V1.0*
G04 #@! TF.SameCoordinates,Original*
G04 #@! TF.FileFunction,Paste,Top*
G04 #@! TF.FilePolarity,Positive*
%FSLAX46Y46*%
G04 Gerber Fmt 4.6, Leading zero omitted, Abs format (unit mm)*
G04 Created by KiCad (PCBNEW 7.0.9) date 2023-11-28 23:55:50*
%MOMM*%
%LPD*%
G01*
G04 APERTURE LIST*
G04 Aperture macros list*
%AMRoundRect*
0 Rectangle with rounded corners*
0 $1 Rounding radius*
0 $2 $3 $4 $5 $6 $7 $8 $9 X,Y pos of 4 corners*
0 Add a 4 corners polygon primitive as box body*
4,1,4,$2,$3,$4,$5,$6,$7,$8,$9,$2,$3,0*
0 Add four circle primitives for the rounded corners*
1,1,$1+$1,$2,$3*
1,1,$1+$1,$4,$5*
1,1,$1+$1,$6,$7*
1,1,$1+$1,$8,$9*
0 Add four rect primitives between the rounded corners*
20,1,$1+$1,$2,$3,$4,$5,0*
20,1,$1+$1,$4,$5,$6,$7,0*
20,1,$1+$1,$6,$7,$8,$9,0*
20,1,$1+$1,$8,$9,$2,$3,0*%
G04 Aperture macros list end*
%ADD10C,0.010000*%
%ADD11RoundRect,0.200000X0.275000X-0.200000X0.275000X0.200000X-0.275000X0.200000X-0.275000X-0.200000X0*%
%ADD12RoundRect,0.250000X-0.325000X-0.450000X0.325000X-0.450000X0.325000X0.450000X-0.325000X0.450000X0*%
%ADD13RoundRect,0.150000X-0.150000X0.512500X-0.150000X-0.512500X0.150000X-0.512500X0.150000X0.512500X0*%
%ADD14RoundRect,0.135000X0.185000X-0.135000X0.185000X0.135000X-0.185000X0.135000X-0.185000X-0.135000X0*%
%ADD15R,1.450000X0.450000*%
%ADD16R,1.100000X1.400000*%
%ADD17RoundRect,0.150000X-0.150000X0.825000X-0.150000X-0.825000X0.150000X-0.825000X0.150000X0.825000X0*%
%ADD18RoundRect,0.200000X-0.275000X0.200000X-0.275000X-0.200000X0.275000X-0.200000X0.275000X0.200000X0*%
%ADD19RoundRect,0.225000X0.250000X-0.225000X0.250000X0.225000X-0.250000X0.225000X-0.250000X-0.225000X0*%
%ADD20RoundRect,0.200000X-0.200000X-0.275000X0.200000X-0.275000X0.200000X0.275000X-0.200000X0.275000X0*%
%ADD21R,1.050000X0.650000*%
%ADD22RoundRect,0.250000X-0.250000X-0.475000X0.250000X-0.475000X0.250000X0.475000X-0.250000X0.475000X0*%
%ADD23RoundRect,0.200000X0.200000X0.275000X-0.200000X0.275000X-0.200000X-0.275000X0.200000X-0.275000X0*%
%ADD24RoundRect,0.150000X0.825000X0.150000X-0.825000X0.150000X-0.825000X-0.150000X0.825000X-0.150000X0*%
%ADD25RoundRect,0.218750X-0.218750X-0.256250X0.218750X-0.256250X0.218750X0.256250X-0.218750X0.256250X0*%
%ADD26RoundRect,0.225000X-0.225000X-0.250000X0.225000X-0.250000X0.225000X0.250000X-0.225000X0.250000X0*%
%ADD27RoundRect,0.135000X-0.135000X-0.185000X0.135000X-0.185000X0.135000X0.185000X-0.135000X0.185000X0*%
%ADD28R,0.762000X0.279400*%
%ADD29R,0.730000X0.660000*%
%ADD30R,0.450000X0.630000*%
%ADD31RoundRect,0.140000X0.170000X-0.140000X0.170000X0.140000X-0.170000X0.140000X-0.170000X-0.140000X0*%
%ADD32RoundRect,0.150000X-0.825000X-0.150000X0.825000X-0.150000X0.825000X0.150000X-0.825000X0.150000X0*%
%ADD33RoundRect,0.243750X-0.456250X0.243750X-0.456250X-0.243750X0.456250X-0.243750X0.456250X0.243750X0*%
%ADD34RoundRect,0.250000X0.250000X0.475000X-0.250000X0.475000X-0.250000X-0.475000X0.250000X-0.475000X0*%
%ADD35R,2.200000X1.600000*%
%ADD36RoundRect,0.243750X0.456250X-0.243750X0.456250X0.243750X-0.456250X0.243750X-0.456250X-0.243750X0*%
%ADD37RoundRect,0.225000X-0.250000X0.225000X-0.250000X-0.225000X0.250000X-0.225000X0.250000X0.225000X0*%
%ADD38RoundRect,0.225000X0.225000X0.250000X-0.225000X0.250000X-0.225000X-0.250000X0.225000X-0.250000X0*%
%ADD39R,0.558800X1.219200*%
%ADD40RoundRect,0.140000X-0.170000X0.140000X-0.170000X-0.140000X0.170000X-0.140000X0.170000X0.140000X0*%
%ADD41RoundRect,0.225000X0.225000X0.375000X-0.225000X0.375000X-0.225000X-0.375000X0.225000X-0.375000X0*%
%ADD42RoundRect,0.150000X0.150000X-0.512500X0.150000X0.512500X-0.150000X0.512500X-0.150000X-0.512500X0*%
%ADD43RoundRect,0.250000X0.325000X0.450000X-0.325000X0.450000X-0.325000X-0.450000X0.325000X-0.450000X0*%
%ADD44RoundRect,0.218750X-0.218750X-0.381250X0.218750X-0.381250X0.218750X0.381250X-0.218750X0.381250X0*%
%ADD45RoundRect,0.140000X0.140000X0.170000X-0.140000X0.170000X-0.140000X-0.170000X0.140000X-0.170000X0*%
%ADD46RoundRect,0.250000X0.475000X-0.250000X0.475000X0.250000X-0.475000X0.250000X-0.475000X-0.250000X0*%
%ADD47RoundRect,0.225000X-0.225000X-0.375000X0.225000X-0.375000X0.225000X0.375000X-0.225000X0.375000X0*%
%ADD48RoundRect,0.225000X-0.375000X0.225000X-0.375000X-0.225000X0.375000X-0.225000X0.375000X0.225000X0*%
%ADD49R,1.300000X0.450000*%
%ADD50R,1.400000X1.200000*%
%ADD51RoundRect,0.140000X-0.140000X-0.170000X0.140000X-0.170000X0.140000X0.170000X-0.140000X0.170000X0*%
%ADD52RoundRect,0.007500X-0.117500X0.412500X-0.117500X-0.412500X0.117500X-0.412500X0.117500X0.412500X0*%
%ADD53RoundRect,0.150000X0.512500X0.150000X-0.512500X0.150000X-0.512500X-0.150000X0.512500X-0.150000X0*%
%ADD54RoundRect,0.232500X-0.232500X-0.232500X0.232500X-0.232500X0.232500X0.232500X-0.232500X0.232500X0*%
%ADD55RoundRect,0.062500X-0.375000X-0.062500X0.375000X-0.062500X0.375000X0.062500X-0.375000X0.062500X0*%
%ADD56RoundRect,0.062500X-0.062500X-0.375000X0.062500X-0.375000X0.062500X0.375000X-0.062500X0.375000X0*%
%ADD57R,1.600000X2.200000*%
G04 APERTURE END LIST*
D10*
X158658000Y-108362000D02*
X158358000Y-108362000D01*
X158358000Y-107792000D01*
X158658000Y-107792000D01*
X158658000Y-108362000D01*
G36*
X158658000Y-108362000D02*
G01*
X158358000Y-108362000D01*
X158358000Y-107792000D01*
X158658000Y-107792000D01*
X158658000Y-108362000D01*
G37*
X159128000Y-108362000D02*
X158888000Y-108362000D01*
X158888000Y-107792000D01*
X159128000Y-107792000D01*
X159128000Y-108362000D01*
G36*
X159128000Y-108362000D02*
G01*
X158888000Y-108362000D01*
X158888000Y-107792000D01*
X159128000Y-107792000D01*
X159128000Y-108362000D01*
G37*
X159628000Y-108362000D02*
X159388000Y-108362000D01*
X159388000Y-107792000D01*
X159628000Y-107792000D01*
X159628000Y-108362000D01*
G36*
X159628000Y-108362000D02*
G01*
X159388000Y-108362000D01*
X159388000Y-107792000D01*
X159628000Y-107792000D01*
X159628000Y-108362000D01*
G37*
X160158000Y-108362000D02*
X159858000Y-108362000D01*
X159858000Y-107792000D01*
X160158000Y-107792000D01*
X160158000Y-108362000D01*
G36*
X160158000Y-108362000D02*
G01*
X159858000Y-108362000D01*
X159858000Y-107792000D01*
X160158000Y-107792000D01*
X160158000Y-108362000D01*
G37*
X158708000Y-107612000D02*
X158088000Y-107612000D01*
X158088000Y-107272000D01*
X158708000Y-107272000D01*
X158708000Y-107612000D01*
G36*
X158708000Y-107612000D02*
G01*
X158088000Y-107612000D01*
X158088000Y-107272000D01*
X158708000Y-107272000D01*
X158708000Y-107612000D01*
G37*
X160428000Y-107612000D02*
X159808000Y-107612000D01*
X159808000Y-107272000D01*
X160428000Y-107272000D01*
X160428000Y-107612000D01*
G36*
X160428000Y-107612000D02*
G01*
X159808000Y-107612000D01*
X159808000Y-107272000D01*
X160428000Y-107272000D01*
X160428000Y-107612000D01*
G37*
X158658000Y-107092000D02*
X158358000Y-107092000D01*
X158358000Y-106522000D01*
X158658000Y-106522000D01*
X158658000Y-107092000D01*
G36*
X158658000Y-107092000D02*
G01*
X158358000Y-107092000D01*
X158358000Y-106522000D01*
X158658000Y-106522000D01*
X158658000Y-107092000D01*
G37*
X159128000Y-107092000D02*
X158888000Y-107092000D01*
X158888000Y-106522000D01*
X159128000Y-106522000D01*
X159128000Y-107092000D01*
G36*
X159128000Y-107092000D02*
G01*
X158888000Y-107092000D01*
X158888000Y-106522000D01*
X159128000Y-106522000D01*
X159128000Y-107092000D01*
G37*
X159628000Y-107092000D02*
X159388000Y-107092000D01*
X159388000Y-106522000D01*
X159628000Y-106522000D01*
X159628000Y-107092000D01*
G36*
X159628000Y-107092000D02*
G01*
X159388000Y-107092000D01*
X159388000Y-106522000D01*
X159628000Y-106522000D01*
X159628000Y-107092000D01*
G37*
X160158000Y-107092000D02*
X159858000Y-107092000D01*
X159858000Y-106522000D01*
X160158000Y-106522000D01*
X160158000Y-107092000D01*
G36*
X160158000Y-107092000D02*
G01*
X159858000Y-107092000D01*
X159858000Y-106522000D01*
X160158000Y-106522000D01*
X160158000Y-107092000D01*
G37*
X153578000Y-108362000D02*
X153278000Y-108362000D01*
X153278000Y-107792000D01*
X153578000Y-107792000D01*
X153578000Y-108362000D01*
G36*
X153578000Y-108362000D02*
G01*
X153278000Y-108362000D01*
X153278000Y-107792000D01*
X153578000Y-107792000D01*
X153578000Y-108362000D01*
G37*
X154048000Y-108362000D02*
X153808000Y-108362000D01*
X153808000Y-107792000D01*
X154048000Y-107792000D01*
X154048000Y-108362000D01*
G36*
X154048000Y-108362000D02*
G01*
X153808000Y-108362000D01*
X153808000Y-107792000D01*
X154048000Y-107792000D01*
X154048000Y-108362000D01*
G37*
X154548000Y-108362000D02*
X154308000Y-108362000D01*
X154308000Y-107792000D01*
X154548000Y-107792000D01*
X154548000Y-108362000D01*
G36*
X154548000Y-108362000D02*
G01*
X154308000Y-108362000D01*
X154308000Y-107792000D01*
X154548000Y-107792000D01*
X154548000Y-108362000D01*
G37*
X155078000Y-108362000D02*
X154778000Y-108362000D01*
X154778000Y-107792000D01*
X155078000Y-107792000D01*
X155078000Y-108362000D01*
G36*
X155078000Y-108362000D02*
G01*
X154778000Y-108362000D01*
X154778000Y-107792000D01*
X155078000Y-107792000D01*
X155078000Y-108362000D01*
G37*
X153628000Y-107612000D02*
X153008000Y-107612000D01*
X153008000Y-107272000D01*
X153628000Y-107272000D01*
X153628000Y-107612000D01*
G36*
X153628000Y-107612000D02*
G01*
X153008000Y-107612000D01*
X153008000Y-107272000D01*
X153628000Y-107272000D01*
X153628000Y-107612000D01*
G37*
X155348000Y-107612000D02*
X154728000Y-107612000D01*
X154728000Y-107272000D01*
X155348000Y-107272000D01*
X155348000Y-107612000D01*
G36*
X155348000Y-107612000D02*
G01*
X154728000Y-107612000D01*
X154728000Y-107272000D01*
X155348000Y-107272000D01*
X155348000Y-107612000D01*
G37*
X153578000Y-107092000D02*
X153278000Y-107092000D01*
X153278000Y-106522000D01*
X153578000Y-106522000D01*
X153578000Y-107092000D01*
G36*
X153578000Y-107092000D02*
G01*
X153278000Y-107092000D01*
X153278000Y-106522000D01*
X153578000Y-106522000D01*
X153578000Y-107092000D01*
G37*
X154048000Y-107092000D02*
X153808000Y-107092000D01*
X153808000Y-106522000D01*
X154048000Y-106522000D01*
X154048000Y-107092000D01*
G36*
X154048000Y-107092000D02*
G01*
X153808000Y-107092000D01*
X153808000Y-106522000D01*
X154048000Y-106522000D01*
X154048000Y-107092000D01*
G37*
X154548000Y-107092000D02*
X154308000Y-107092000D01*
X154308000Y-106522000D01*
X154548000Y-106522000D01*
X154548000Y-107092000D01*
G36*
X154548000Y-107092000D02*
G01*
X154308000Y-107092000D01*
X154308000Y-106522000D01*
X154548000Y-106522000D01*
X154548000Y-107092000D01*
G37*
X155078000Y-107092000D02*
X154778000Y-107092000D01*
X154778000Y-106522000D01*
X155078000Y-106522000D01*
X155078000Y-107092000D01*
G36*
X155078000Y-107092000D02*
G01*
X154778000Y-107092000D01*
X154778000Y-106522000D01*
X155078000Y-106522000D01*
X155078000Y-107092000D01*
G37*
X136247800Y-90990800D02*
X135967800Y-90990800D01*
X135967800Y-90630800D01*
X136247800Y-90630800D01*
X136247800Y-90990800D01*
G36*
X136247800Y-90990800D02*
G01*
X135967800Y-90990800D01*
X135967800Y-90630800D01*
X136247800Y-90630800D01*
X136247800Y-90990800D01*
G37*
X136747800Y-90990800D02*
X136467800Y-90990800D01*
X136467800Y-90630800D01*
X136747800Y-90630800D01*
X136747800Y-90990800D01*
G36*
X136747800Y-90990800D02*
G01*
X136467800Y-90990800D01*
X136467800Y-90630800D01*
X136747800Y-90630800D01*
X136747800Y-90990800D01*
G37*
X137247800Y-90990800D02*
X136967800Y-90990800D01*
X136967800Y-90630800D01*
X137247800Y-90630800D01*
X137247800Y-90990800D01*
G36*
X137247800Y-90990800D02*
G01*
X136967800Y-90990800D01*
X136967800Y-90630800D01*
X137247800Y-90630800D01*
X137247800Y-90990800D01*
G37*
X137747800Y-90990800D02*
X137467800Y-90990800D01*
X137467800Y-90630800D01*
X137747800Y-90630800D01*
X137747800Y-90990800D01*
G36*
X137747800Y-90990800D02*
G01*
X137467800Y-90990800D01*
X137467800Y-90630800D01*
X137747800Y-90630800D01*
X137747800Y-90990800D01*
G37*
X138247800Y-90990800D02*
X137967800Y-90990800D01*
X137967800Y-90630800D01*
X138247800Y-90630800D01*
X138247800Y-90990800D01*
G36*
X138247800Y-90990800D02*
G01*
X137967800Y-90990800D01*
X137967800Y-90630800D01*
X138247800Y-90630800D01*
X138247800Y-90990800D01*
G37*
X136067800Y-90225800D02*
X135707800Y-90225800D01*
X135707800Y-89945800D01*
X136067800Y-89945800D01*
X136067800Y-90225800D01*
G36*
X136067800Y-90225800D02*
G01*
X135707800Y-90225800D01*
X135707800Y-89945800D01*
X136067800Y-89945800D01*
X136067800Y-90225800D01*
G37*
X138517800Y-90220800D02*
X138157800Y-90220800D01*
X138157800Y-89940800D01*
X138517800Y-89940800D01*
X138517800Y-90220800D01*
G36*
X138517800Y-90220800D02*
G01*
X138157800Y-90220800D01*
X138157800Y-89940800D01*
X138517800Y-89940800D01*
X138517800Y-90220800D01*
G37*
X136062800Y-89725800D02*
X135702800Y-89725800D01*
X135702800Y-89445800D01*
X136062800Y-89445800D01*
X136062800Y-89725800D01*
G36*
X136062800Y-89725800D02*
G01*
X135702800Y-89725800D01*
X135702800Y-89445800D01*
X136062800Y-89445800D01*
X136062800Y-89725800D01*
G37*
X138517800Y-89725800D02*
X138157800Y-89725800D01*
X138157800Y-89445800D01*
X138517800Y-89445800D01*
X138517800Y-89725800D01*
G36*
X138517800Y-89725800D02*
G01*
X138157800Y-89725800D01*
X138157800Y-89445800D01*
X138517800Y-89445800D01*
X138517800Y-89725800D01*
G37*
X138517800Y-89225800D02*
X138157800Y-89225800D01*
X138157800Y-88945800D01*
X138517800Y-88945800D01*
X138517800Y-89225800D01*
G36*
X138517800Y-89225800D02*
G01*
X138157800Y-89225800D01*
X138157800Y-88945800D01*
X138517800Y-88945800D01*
X138517800Y-89225800D01*
G37*
X136067800Y-89225800D02*
X135707800Y-89225800D01*
X135707800Y-88945800D01*
X136067800Y-88945800D01*
X136067800Y-89225800D01*
G36*
X136067800Y-89225800D02*
G01*
X135707800Y-89225800D01*
X135707800Y-88945800D01*
X136067800Y-88945800D01*
X136067800Y-89225800D01*
G37*
X136247800Y-88540800D02*
X135967800Y-88540800D01*
X135967800Y-88180800D01*
X136247800Y-88180800D01*
X136247800Y-88540800D01*
G36*
X136247800Y-88540800D02*
G01*
X135967800Y-88540800D01*
X135967800Y-88180800D01*
X136247800Y-88180800D01*
X136247800Y-88540800D01*
G37*
X136747800Y-88540800D02*
X136467800Y-88540800D01*
X136467800Y-88180800D01*
X136747800Y-88180800D01*
X136747800Y-88540800D01*
G36*
X136747800Y-88540800D02*
G01*
X136467800Y-88540800D01*
X136467800Y-88180800D01*
X136747800Y-88180800D01*
X136747800Y-88540800D01*
G37*
X137247800Y-88540800D02*
X136967800Y-88540800D01*
X136967800Y-88180800D01*
X137247800Y-88180800D01*
X137247800Y-88540800D01*
G36*
X137247800Y-88540800D02*
G01*
X136967800Y-88540800D01*
X136967800Y-88180800D01*
X137247800Y-88180800D01*
X137247800Y-88540800D01*
G37*
X137747800Y-88540800D02*
X137467800Y-88540800D01*
X137467800Y-88180800D01*
X137747800Y-88180800D01*
X137747800Y-88540800D01*
G36*
X137747800Y-88540800D02*
G01*
X137467800Y-88540800D01*
X137467800Y-88180800D01*
X137747800Y-88180800D01*
X137747800Y-88540800D01*
G37*
X138247800Y-88540800D02*
X137967800Y-88540800D01*
X137967800Y-88180800D01*
X138247800Y-88180800D01*
X138247800Y-88540800D01*
G36*
X138247800Y-88540800D02*
G01*
X137967800Y-88540800D01*
X137967800Y-88180800D01*
X138247800Y-88180800D01*
X138247800Y-88540800D01*
G37*
X181551000Y-84011000D02*
X179971000Y-84011000D01*
X179971000Y-82991000D01*
X181551000Y-82991000D01*
X181551000Y-84011000D01*
G36*
X181551000Y-84011000D02*
G01*
X179971000Y-84011000D01*
X179971000Y-82991000D01*
X181551000Y-82991000D01*
X181551000Y-84011000D01*
G37*
D11*
X127386500Y-100779500D03*
X127386500Y-99129500D03*
D12*
X179319500Y-121820000D03*
X181369500Y-121820000D03*
D13*
X177230500Y-117380500D03*
X175330500Y-117380500D03*
X176280500Y-119655500D03*
D14*
X111384500Y-98559500D03*
X111384500Y-97539500D03*
D15*
X115038500Y-104989500D03*
X115038500Y-105639500D03*
X115038500Y-106289500D03*
X115038500Y-106939500D03*
X115038500Y-107589500D03*
X115038500Y-108239500D03*
X115038500Y-108889500D03*
X120938500Y-108889500D03*
X120938500Y-108239500D03*
X120938500Y-107589500D03*
X120938500Y-106939500D03*
X120938500Y-106289500D03*
X120938500Y-105639500D03*
X120938500Y-104989500D03*
D16*
X117238500Y-106039500D03*
X117238500Y-107839500D03*
X118738500Y-106039500D03*
X118738500Y-107839500D03*
D17*
X167132000Y-115027000D03*
X165862000Y-115027000D03*
X164592000Y-115027000D03*
X163322000Y-115027000D03*
X163322000Y-119977000D03*
X164592000Y-119977000D03*
X165862000Y-119977000D03*
X167132000Y-119977000D03*
D18*
X191008000Y-110681000D03*
X191008000Y-112331000D03*
D11*
X182122500Y-106643000D03*
X182122500Y-104993000D03*
D14*
X111384500Y-107449500D03*
X111384500Y-106429500D03*
D19*
X148844000Y-117361000D03*
X148844000Y-115811000D03*
D20*
X185357000Y-121412000D03*
X187007000Y-121412000D03*
X158560000Y-122074000D03*
X160210000Y-122074000D03*
D21*
X135933000Y-81593000D03*
X131783000Y-81593000D03*
X135933000Y-79443000D03*
X131783000Y-79443000D03*
D11*
X178312500Y-106643000D03*
X178312500Y-104993000D03*
D22*
X109728000Y-77878400D03*
X111628000Y-77878400D03*
D20*
X155893000Y-111760000D03*
X157543000Y-111760000D03*
D23*
X187007000Y-119888000D03*
X185357000Y-119888000D03*
D11*
X111236800Y-81294200D03*
X111236800Y-79644200D03*
X189484000Y-112331000D03*
X189484000Y-110681000D03*
D24*
X153859000Y-114173000D03*
X153859000Y-112903000D03*
X153859000Y-111633000D03*
X153859000Y-110363000D03*
X148909000Y-110363000D03*
X148909000Y-111633000D03*
X148909000Y-112903000D03*
X148909000Y-114173000D03*
D11*
X187198000Y-102806000D03*
X187198000Y-101156000D03*
X110114500Y-108272500D03*
X110114500Y-106622500D03*
D19*
X145034000Y-74326000D03*
X145034000Y-72776000D03*
D25*
X143484500Y-80772000D03*
X145059500Y-80772000D03*
D26*
X158610000Y-120550000D03*
X160160000Y-120550000D03*
D14*
X112400500Y-98557500D03*
X112400500Y-97537500D03*
D27*
X183045000Y-85025000D03*
X184065000Y-85025000D03*
D28*
X160540700Y-79493999D03*
X160540700Y-78994000D03*
X160540700Y-78494001D03*
X158991300Y-78494001D03*
X158991300Y-79493999D03*
D29*
X137460000Y-100838000D03*
X138326000Y-100838000D03*
X139192000Y-100838000D03*
X137460000Y-99988000D03*
X138326000Y-99988000D03*
X139192000Y-99988000D03*
D30*
X137376000Y-101753000D03*
X138326000Y-101753000D03*
X139276000Y-101753000D03*
X139276000Y-99073000D03*
X138326000Y-99073000D03*
X137376000Y-99073000D03*
D11*
X111252000Y-88518000D03*
X111252000Y-86868000D03*
D31*
X185079000Y-81949000D03*
X185079000Y-80989000D03*
D15*
X115038500Y-94194500D03*
X115038500Y-94844500D03*
X115038500Y-95494500D03*
X115038500Y-96144500D03*
X115038500Y-96794500D03*
X115038500Y-97444500D03*
X115038500Y-98094500D03*
X120938500Y-98094500D03*
X120938500Y-97444500D03*
X120938500Y-96794500D03*
X120938500Y-96144500D03*
X120938500Y-95494500D03*
X120938500Y-94844500D03*
X120938500Y-94194500D03*
D16*
X117238500Y-95244500D03*
X117238500Y-97044500D03*
X118738500Y-95244500D03*
X118738500Y-97044500D03*
D14*
X111384500Y-109481500D03*
X111384500Y-108461500D03*
D23*
X146875000Y-110236000D03*
X145225000Y-110236000D03*
D19*
X184404000Y-112281000D03*
X184404000Y-110731000D03*
D26*
X148323000Y-78994000D03*
X149873000Y-78994000D03*
D32*
X124906000Y-116675000D03*
X124906000Y-117945000D03*
X124906000Y-119215000D03*
X124906000Y-120485000D03*
X129856000Y-120485000D03*
X129856000Y-119215000D03*
X129856000Y-117945000D03*
X129856000Y-116675000D03*
D20*
X176467000Y-82042000D03*
X178117000Y-82042000D03*
D11*
X172273000Y-111469000D03*
X172273000Y-109819000D03*
D18*
X175010500Y-113883000D03*
X175010500Y-115533000D03*
D33*
X128910500Y-109812000D03*
X128910500Y-111687000D03*
D20*
X145225000Y-111760000D03*
X146875000Y-111760000D03*
D21*
X135933000Y-85403000D03*
X131783000Y-85403000D03*
X135933000Y-83253000D03*
X131783000Y-83253000D03*
D14*
X113416500Y-98557500D03*
X113416500Y-97537500D03*
D26*
X133005400Y-90601800D03*
X134555400Y-90601800D03*
D34*
X185608000Y-101219000D03*
X183708000Y-101219000D03*
D18*
X109712800Y-79644200D03*
X109712800Y-81294200D03*
D35*
X132054600Y-88138000D03*
X129054600Y-88138000D03*
D36*
X109860500Y-100892000D03*
X109860500Y-99017000D03*
D19*
X168783000Y-120563000D03*
X168783000Y-119013000D03*
D11*
X161671000Y-122137000D03*
X161671000Y-120487000D03*
D22*
X109743200Y-85111400D03*
X111643200Y-85111400D03*
D19*
X154813000Y-118531000D03*
X154813000Y-116981000D03*
D37*
X122814500Y-92829500D03*
X122814500Y-94379500D03*
X154022000Y-103619000D03*
X154022000Y-105169000D03*
D19*
X165735000Y-110403000D03*
X165735000Y-108853000D03*
D27*
X183045000Y-81977000D03*
X184065000Y-81977000D03*
D14*
X112400500Y-109481500D03*
X112400500Y-108461500D03*
D19*
X143510000Y-74326000D03*
X143510000Y-72776000D03*
D38*
X136538000Y-118580000D03*
X134988000Y-118580000D03*
D37*
X142113000Y-87109000D03*
X142113000Y-88659000D03*
D39*
X181995500Y-108269100D03*
X180725500Y-108269100D03*
X180725500Y-115050900D03*
X181995500Y-115050900D03*
D36*
X176530000Y-80439500D03*
X176530000Y-78564500D03*
D40*
X185079000Y-85053000D03*
X185079000Y-86013000D03*
D41*
X146812000Y-113792000D03*
X143512000Y-113792000D03*
D42*
X167325000Y-111273500D03*
X168275000Y-111273500D03*
X169225000Y-111273500D03*
X169225000Y-108998500D03*
X167325000Y-108998500D03*
D37*
X122814500Y-103370500D03*
X122814500Y-104920500D03*
D29*
X139850000Y-74484000D03*
X140716000Y-74484000D03*
X141582000Y-74484000D03*
X139850000Y-73634000D03*
X140716000Y-73634000D03*
X141582000Y-73634000D03*
D30*
X139766000Y-75399000D03*
X140716000Y-75399000D03*
X141666000Y-75399000D03*
X141666000Y-72719000D03*
X140716000Y-72719000D03*
X139766000Y-72719000D03*
D43*
X177305500Y-121820000D03*
X175255500Y-121820000D03*
D44*
X187659500Y-78486000D03*
X189784500Y-78486000D03*
D37*
X159004000Y-103619000D03*
X159004000Y-105169000D03*
D38*
X183401000Y-80010000D03*
X181851000Y-80010000D03*
D20*
X165926000Y-122074000D03*
X167576000Y-122074000D03*
D14*
X112400500Y-96525500D03*
X112400500Y-95505500D03*
X113416500Y-109481500D03*
X113416500Y-108461500D03*
D37*
X122936000Y-117994000D03*
X122936000Y-119544000D03*
D23*
X133540000Y-119342000D03*
X131890000Y-119342000D03*
D36*
X109860500Y-111687000D03*
X109860500Y-109812000D03*
D45*
X153896000Y-87884000D03*
X152936000Y-87884000D03*
D46*
X186690000Y-118298000D03*
X186690000Y-116398000D03*
D47*
X188138000Y-107746000D03*
X191438000Y-107746000D03*
D19*
X135532000Y-100934000D03*
X135532000Y-99384000D03*
D14*
X112400500Y-107449500D03*
X112400500Y-106429500D03*
D23*
X172336000Y-112930000D03*
X170686000Y-112930000D03*
D42*
X185994000Y-112135500D03*
X186944000Y-112135500D03*
X187894000Y-112135500D03*
X187894000Y-109860500D03*
X185994000Y-109860500D03*
D39*
X178185500Y-108269100D03*
X176915500Y-108269100D03*
X176915500Y-115050900D03*
X178185500Y-115050900D03*
D18*
X137668000Y-83503000D03*
X137668000Y-85153000D03*
D37*
X190754000Y-85585000D03*
X190754000Y-87135000D03*
D38*
X129965248Y-122125966D03*
X128415248Y-122125966D03*
D19*
X134008000Y-100934000D03*
X134008000Y-99384000D03*
D48*
X152604000Y-116002000D03*
X152604000Y-119302000D03*
D41*
X155651000Y-70308000D03*
X152351000Y-70308000D03*
D11*
X110114500Y-97477500D03*
X110114500Y-95827500D03*
D37*
X182372000Y-86855000D03*
X182372000Y-88405000D03*
D45*
X145288000Y-83566000D03*
X144328000Y-83566000D03*
D19*
X186182000Y-78499000D03*
X186182000Y-76949000D03*
X142644000Y-100680002D03*
X142644000Y-99130002D03*
D37*
X113162500Y-103624500D03*
X113162500Y-105174500D03*
D49*
X193172000Y-84547000D03*
X193172000Y-83897000D03*
X193172000Y-83247000D03*
X193172000Y-82597000D03*
X193172000Y-81947000D03*
D19*
X170749000Y-111419000D03*
X170749000Y-109869000D03*
D50*
X143934000Y-86956000D03*
X146134000Y-86956000D03*
X146134000Y-85256000D03*
X143934000Y-85256000D03*
D51*
X148110000Y-80264000D03*
X149070000Y-80264000D03*
D11*
X127132500Y-111320500D03*
X127132500Y-109670500D03*
D13*
X182310500Y-117380500D03*
X180410500Y-117380500D03*
X181360500Y-119655500D03*
D18*
X109728000Y-86868000D03*
X109728000Y-88518000D03*
D23*
X157543000Y-110236000D03*
X155893000Y-110236000D03*
X133540000Y-117818000D03*
X131890000Y-117818000D03*
D52*
X181886000Y-82066000D03*
X181436000Y-82066000D03*
X180986000Y-82066000D03*
X180536000Y-82066000D03*
X180086000Y-82066000D03*
X179636000Y-82066000D03*
X179636000Y-84936000D03*
X180086000Y-84936000D03*
X180536000Y-84936000D03*
X180986000Y-84936000D03*
X181436000Y-84936000D03*
X181886000Y-84936000D03*
D19*
X141120000Y-100680002D03*
X141120000Y-99130002D03*
D37*
X137668000Y-79743000D03*
X137668000Y-81293000D03*
D47*
X158039000Y-114504000D03*
X161339000Y-114504000D03*
D18*
X183900500Y-115661000D03*
X183900500Y-117311000D03*
X147320000Y-93409000D03*
X147320000Y-95059000D03*
D53*
X125476000Y-100904500D03*
X125476000Y-99004500D03*
X123201000Y-99954500D03*
D47*
X169469000Y-106884000D03*
X172769000Y-106884000D03*
D42*
X156403000Y-118893500D03*
X157353000Y-118893500D03*
X158303000Y-118893500D03*
X158303000Y-116618500D03*
X156403000Y-116618500D03*
D54*
X149980000Y-82924000D03*
X149980000Y-84074000D03*
X149980000Y-85224000D03*
X151130000Y-82924000D03*
X151130000Y-84074000D03*
X151130000Y-85224000D03*
X152280000Y-82924000D03*
X152280000Y-84074000D03*
X152280000Y-85224000D03*
D55*
X148692500Y-82324000D03*
X148692500Y-82824000D03*
X148692500Y-83324000D03*
X148692500Y-83824000D03*
X148692500Y-84324000D03*
X148692500Y-84824000D03*
X148692500Y-85324000D03*
X148692500Y-85824000D03*
D56*
X149380000Y-86511500D03*
X149880000Y-86511500D03*
X150380000Y-86511500D03*
X150880000Y-86511500D03*
X151380000Y-86511500D03*
X151880000Y-86511500D03*
X152380000Y-86511500D03*
X152880000Y-86511500D03*
D55*
X153567500Y-85824000D03*
X153567500Y-85324000D03*
X153567500Y-84824000D03*
X153567500Y-84324000D03*
X153567500Y-83824000D03*
X153567500Y-83324000D03*
X153567500Y-82824000D03*
X153567500Y-82324000D03*
D56*
X152880000Y-81636500D03*
X152380000Y-81636500D03*
X151880000Y-81636500D03*
X151380000Y-81636500D03*
X150880000Y-81636500D03*
X150380000Y-81636500D03*
X149880000Y-81636500D03*
X149380000Y-81636500D03*
D38*
X164478000Y-112930000D03*
X162928000Y-112930000D03*
D53*
X125222000Y-111699500D03*
X125222000Y-109799500D03*
X122947000Y-110749500D03*
D19*
X138072000Y-74422000D03*
X138072000Y-72872000D03*
D38*
X145047000Y-82296000D03*
X143497000Y-82296000D03*
D19*
X136548000Y-74422000D03*
X136548000Y-72872000D03*
D37*
X113162500Y-92829500D03*
X113162500Y-94379500D03*
D23*
X124401500Y-108209500D03*
X122751500Y-108209500D03*
D57*
X183388000Y-76962000D03*
X183388000Y-73962000D03*
D18*
X145826000Y-93409000D03*
X145826000Y-95059000D03*
D23*
X124909500Y-97414500D03*
X123259500Y-97414500D03*
D33*
X129418500Y-99271000D03*
X129418500Y-101146000D03*
D14*
X111384500Y-96525500D03*
X111384500Y-95505500D03*
M02*
